<?xml version="1.0" encoding="UTF-8"?>
<!DOCTYPE svg PUBLIC "-//W3C//DTD SVG 1.1//EN" "http://www.w3.org/Graphics/SVG/1.1/DTD/svg11.dtd">
<!-- Creator: CorelDRAW 2021 (64 Bit) -->
<svg xmlns="http://www.w3.org/2000/svg" xml:space="preserve" width="70px" height="70px" version="1.1" style="shape-rendering:geometricPrecision; text-rendering:geometricPrecision; image-rendering:optimizeQuality; fill-rule:evenodd; clip-rule:evenodd"
viewBox="0 0 35.38 35.27"
 xmlns:xlink="http://www.w3.org/1999/xlink"
 xmlns:xodm="http://www.corel.com/coreldraw/odm/2003">
 <defs>
  <style type="text/css">
   <![CDATA[
    .fil1 {fill:#EAECED}
    .fil0 {fill:#41B97F}
   ]]>
  </style>
 </defs>
 <g id="Camada_x0020_1">
  <metadata id="CorelCorpID_0Corel-Layer"/>
  <path class="fil0" d="M33.28 25.85c-0.36,-0.31 -2.15,-0.59 -2.69,-2.56 -0.17,-0.61 -0.05,-1.01 -0.14,-1.53 -0.79,-0.11 -1.8,-0.9 -2.22,-1.71 -0.27,-0.54 -0.4,-1.21 -0.36,-1.76 0.04,-0.59 0.29,-0.98 0.34,-1.43 -1.72,-1.06 -2.36,-2.98 -1.26,-4.76 0.37,-0.61 0.8,-0.76 1.22,-1.27 -0.37,-0.68 -1.67,-1.73 -1.08,-3.65 0.56,-1.83 2.1,-2.05 2.5,-2.57 -0.28,-0.26 -0.63,-0.51 -0.95,-0.76 -0.17,-0.14 -0.32,-0.25 -0.48,-0.38 -0.46,-0.34 -1.59,-1.07 -2.08,-1.32 -2,-1 -2.99,-1.4 -5.4,-1.88 -3.61,-0.72 -8.18,0.02 -11.71,2.02 -6.02,3.41 -9.88,10.3 -8.78,17.89 0.6,4.17 2.76,7.87 5.3,10.26 0.66,0.62 2.2,1.87 2.97,2.29 0.22,0.12 0.34,0.15 0.54,0.29l1.11 0.58c1.56,0.65 2.33,1.03 4.24,1.38 6.77,1.22 13.59,-1.42 17.61,-7.01 0.47,-0.66 0.94,-1.42 1.32,-2.12z"/>
  <path class="fil1" d="M30.61 26.56c-0.45,-0.45 -0.81,-0.71 -1.23,-1.37 -0.52,-0.82 -0.52,-1.24 -0.78,-2.14 -0.04,-0.05 -3.04,-1.61 -2.58,-5.22 0.05,-0.41 -0.13,-0.43 -0.38,-0.74 -1.36,-1.7 -1.51,-4.44 -0.18,-6.2 0.13,-0.16 0.16,-0.12 0.22,-0.35 -0.59,-0.89 -0.71,-2.43 -0.53,-3.38 0.31,-1.54 1.06,-2.22 1.22,-2.49 0.04,-0.08 0.02,-0.04 0.05,-0.12 -0.23,-0.08 -0.61,-0.39 -0.85,-0.53l-1.36 -0.69c-4.89,-2.3 -11.04,-1.76 -15.57,1.4 -7.87,5.48 -9.23,16.91 -2.06,24.13 4.34,4.36 11.25,5.77 17.09,3.34 2.55,-1.06 4.65,-2.68 6.31,-4.76 0.23,-0.29 0.47,-0.59 0.63,-0.88z"/>
  <path class="fil0" d="M11.8 26.25c-2.77,1.49 -0.5,5.5 2.15,4.07 0.97,-0.52 1.6,-1.85 0.94,-3.1 -0.52,-0.98 -1.83,-1.64 -3.09,-0.97z"/>
  <path class="fil0" d="M16.83 16.06c-2.8,1.21 -1,5.42 1.79,4.24 1.07,-0.46 1.77,-1.74 1.22,-3.02 -0.45,-1.08 -1.76,-1.76 -3.01,-1.22z"/>
  <path class="fil0" d="M6.3 19.1c-1.01,0.51 -1.67,1.78 -1.06,3.06 0.49,1.04 1.82,1.71 3.1,1.07 1.01,-0.5 1.65,-1.8 1.06,-3.04 -0.5,-1.05 -1.82,-1.73 -3.1,-1.09z"/>
  <path class="fil0" d="M16.51 5.53c-1.01,0.51 -1.68,1.79 -1.08,3.05 0.5,1.04 1.84,1.72 3.12,1.08 1,-0.5 1.64,-1.8 1.05,-3.05 -0.51,-1.05 -1.81,-1.71 -3.09,-1.08z"/>
  <path class="fil0" d="M8.32 9.57c-1.1,0.46 -1.79,1.72 -1.25,3.02 0.46,1.09 1.76,1.76 3.03,1.22 1.07,-0.45 1.74,-1.76 1.21,-3.02 -0.45,-1.06 -1.73,-1.76 -2.99,-1.22z"/>
  <path class="fil0" d="M23.88 23.63c-1.09,0.46 -1.8,1.74 -1.23,3.04 0.48,1.08 1.76,1.74 3.03,1.18 1.06,-0.45 1.74,-1.77 1.19,-3.02 -0.47,-1.06 -1.75,-1.73 -2.99,-1.2z"/>
  <path class="fil0" d="M30.62 11.14c-2.41,1.23 -0.56,4.9 1.88,3.64 0.88,-0.45 1.42,-1.62 0.88,-2.73 -0.44,-0.9 -1.63,-1.48 -2.76,-0.91z"/>
  <path class="fil0" d="M30.98 18.22c-1.16,0.56 -0.36,2.23 0.77,1.74 1.1,-0.48 0.38,-2.29 -0.77,-1.74z"/>
  <path class="fil0" d="M34.05 16.62c-1.06,0.66 -0.1,2.16 0.92,1.56 0.93,-0.54 0.14,-2.2 -0.92,-1.56z"/>
  <path class="fil0" d="M18.35 25.17c-0.92,0.77 0.2,1.97 1.04,1.32 0.84,-0.66 -0.18,-2.02 -1.04,-1.32z"/>
  <path class="fil0" d="M30.46 7.93c-0.39,0.31 -0.39,0.73 -0.14,1.06 0.2,0.26 0.68,0.4 1.06,0.1 0.73,-0.58 -0.15,-1.78 -0.92,-1.16z"/>
  <path class="fil0" d="M13.23 21.21c-0.86,0.51 -0.07,1.66 0.7,1.17 0.66,-0.43 0.08,-1.64 -0.7,-1.17z"/>
  <path class="fil0" d="M14.67 12.14c-0.74,0.48 0,1.54 0.71,1.04 0.59,-0.43 0,-1.49 -0.71,-1.04z"/>
  <path class="fil0" d="M33.52 21.84c-0.07,0.08 -0.15,0.07 -0.16,0.28 -0.01,0.51 0.54,0.65 0.83,0.38 0.39,-0.37 -0.17,-1.16 -0.67,-0.66z"/>
 </g>
</svg>
