<?xml version="1.0" encoding="UTF-8"?>
<!DOCTYPE svg PUBLIC "-//W3C//DTD SVG 1.1//EN" "http://www.w3.org/Graphics/SVG/1.1/DTD/svg11.dtd">
<!-- Creator: CorelDRAW 2021 (64 Bit) -->
<svg xmlns="http://www.w3.org/2000/svg" xml:space="preserve" width="100px" height="30px" version="1.1" style="shape-rendering:geometricPrecision; text-rendering:geometricPrecision; image-rendering:optimizeQuality; fill-rule:evenodd; clip-rule:evenodd"
viewBox="0 0 25.47 7.64"
 xmlns:xlink="http://www.w3.org/1999/xlink"
 xmlns:xodm="http://www.corel.com/coreldraw/odm/2003">
 <defs>
  <style type="text/css">
   <![CDATA[
    .fil0 {fill:#373435;fill-rule:nonzero}
    .fil1 {fill:#953735;fill-rule:nonzero}
   ]]>
  </style>
 </defs>
 <g id="Camada_x0020_1">
  <metadata id="CorelCorpID_0Corel-Layer"/>
  <g id="logo_x0020_dux-2022.eps">
   <path class="fil0" d="M0.83 6.59c0.01,0 0.02,0.01 0.02,0.02l0 0.1c0,0.02 -0.01,0.03 -0.02,0.03l-0.55 0c-0.02,0 -0.03,0 -0.04,0.01 -0.01,0.02 -0.02,0.03 -0.02,0.05l0 0.04c0,0.04 0.02,0.06 0.06,0.06l0.41 0c0.06,0 0.11,0.01 0.14,0.05 0.03,0.03 0.05,0.07 0.05,0.13l0 0.09c0,0.05 -0.02,0.1 -0.05,0.13 -0.03,0.03 -0.08,0.05 -0.14,0.05l-0.61 0c-0.01,0 -0.02,-0.01 -0.02,-0.03l0 -0.1c0,-0.02 0.01,-0.02 0.02,-0.02l0.57 0c0.03,0 0.04,-0.01 0.05,-0.02 0.01,-0.01 0.01,-0.03 0.01,-0.04l0 -0.05c0,-0.04 -0.02,-0.06 -0.05,-0.06l-0.41 0c-0.06,0 -0.11,-0.02 -0.14,-0.05 -0.04,-0.03 -0.05,-0.08 -0.05,-0.14l0 -0.08c0,-0.05 0.01,-0.09 0.05,-0.12 0.03,-0.04 0.07,-0.05 0.14,-0.05l0.58 0z"/>
   <path class="fil0" d="M2.2 7.05c0,0.03 0,0.05 0.01,0.07 0,0.02 0.01,0.03 0.02,0.05 0.01,0.01 0.03,0.01 0.05,0.02 0.01,0 0.04,0.01 0.07,0.01l0.32 0c0.03,0 0.05,-0.01 0.07,-0.01 0.02,-0.01 0.03,-0.01 0.04,-0.02 0.01,-0.02 0.02,-0.03 0.03,-0.05 0,-0.02 0,-0.04 0,-0.07l0 -0.16c0,-0.03 0,-0.06 0,-0.08 -0.01,-0.01 -0.02,-0.03 -0.03,-0.04 -0.01,-0.01 -0.02,-0.02 -0.04,-0.02 -0.02,-0.01 -0.04,-0.01 -0.07,-0.01l-0.32 0c-0.03,0 -0.06,0 -0.07,0.01 -0.02,0 -0.04,0.01 -0.05,0.02 -0.01,0.01 -0.02,0.03 -0.02,0.04 -0.01,0.02 -0.01,0.05 -0.01,0.08l0 0.16zm0.47 -0.46c0.06,0 0.11,0 0.15,0.01 0.03,0.01 0.07,0.03 0.09,0.05 0.02,0.03 0.04,0.06 0.05,0.09 0.01,0.04 0.02,0.08 0.02,0.13l0 0.19c0,0.05 -0.01,0.1 -0.02,0.13 -0.01,0.04 -0.03,0.07 -0.05,0.09 -0.02,0.03 -0.06,0.04 -0.09,0.05 -0.04,0.01 -0.09,0.02 -0.15,0.02l-0.33 0c-0.06,0 -0.1,-0.01 -0.14,-0.02 -0.04,-0.01 -0.07,-0.02 -0.09,-0.05 -0.03,-0.02 -0.05,-0.05 -0.06,-0.09 -0.01,-0.03 -0.01,-0.08 -0.01,-0.13l0 -0.19c0,-0.05 0,-0.09 0.01,-0.13 0.01,-0.03 0.03,-0.06 0.06,-0.09 0.02,-0.02 0.05,-0.04 0.09,-0.05 0.04,-0.01 0.08,-0.01 0.14,-0.01l0.33 0z"/>
   <path class="fil0" d="M4.3 6.59c0.01,0 0.02,0.01 0.02,0.02l0 0.43c0,0.03 0,0.06 0.01,0.08 0,0.02 0.01,0.03 0.02,0.04 0.01,0.01 0.03,0.02 0.04,0.03 0.02,0 0.05,0 0.07,0l0.44 0c0.02,0 0.03,0.01 0.03,0.03l0 0.1c0,0.02 -0.01,0.03 -0.03,0.03l-0.44 0c-0.06,0 -0.1,-0.01 -0.14,-0.02 -0.04,-0.01 -0.07,-0.02 -0.1,-0.05 -0.02,-0.02 -0.04,-0.05 -0.05,-0.09 -0.01,-0.03 -0.02,-0.08 -0.02,-0.13l0 -0.45c0,-0.01 0.01,-0.02 0.03,-0.02l0.12 0z"/>
   <path class="fil0" d="M6.19 6.59c0.02,0 0.03,0.01 0.03,0.02l0 0.43c0,0.03 0,0.06 0,0.08 0.01,0.02 0.02,0.03 0.03,0.04 0.01,0.01 0.02,0.02 0.04,0.03 0.02,0 0.04,0 0.07,0l0.3 0c0.03,0 0.05,0 0.07,0 0.02,-0.01 0.03,-0.02 0.04,-0.03 0.02,-0.01 0.02,-0.02 0.03,-0.04 0,-0.02 0,-0.05 0,-0.08l0 -0.43c0,-0.01 0.01,-0.02 0.03,-0.02l0.12 0c0.01,0 0.02,0.01 0.02,0.02l0 0.45c0,0.05 -0.01,0.1 -0.02,0.13 -0.01,0.04 -0.02,0.07 -0.05,0.09 -0.02,0.03 -0.05,0.04 -0.09,0.05 -0.04,0.01 -0.09,0.02 -0.14,0.02l-0.32 0c-0.05,0 -0.1,-0.01 -0.14,-0.02 -0.03,-0.01 -0.07,-0.02 -0.09,-0.05 -0.02,-0.02 -0.04,-0.05 -0.05,-0.09 -0.01,-0.03 -0.02,-0.08 -0.02,-0.13l0 -0.45c0,-0.01 0.01,-0.02 0.02,-0.02l0.12 0z"/>
   <path class="fil0" d="M8.64 7.39c0.02,0 0.02,0.01 0.02,0.03l-0.05 0.2c0,0.01 -0.01,0.02 -0.02,0.02l-0.07 0c-0.01,0 -0.02,-0.01 -0.02,-0.02l0.02 -0.2c0,-0.02 0.01,-0.03 0.02,-0.03l0.1 0zm0.3 -0.8c0.02,0 0.02,0.01 0.02,0.02l0 0.11c0,0.01 0,0.02 -0.02,0.02l-0.48 0c-0.03,0 -0.06,0.01 -0.07,0.01 -0.02,0 -0.04,0.01 -0.05,0.02 -0.01,0.01 -0.02,0.03 -0.02,0.05 -0.01,0.02 -0.01,0.04 -0.01,0.07l0 0.15c0,0.03 0,0.06 0.01,0.08 0,0.02 0.01,0.03 0.02,0.04 0.01,0.01 0.03,0.02 0.05,0.03 0.01,0 0.04,0 0.07,0l0.48 0c0.02,0 0.02,0.01 0.02,0.03l0 0.1c0,0.02 0,0.03 -0.02,0.03l-0.49 0c-0.06,0 -0.1,-0.01 -0.14,-0.02 -0.04,-0.01 -0.07,-0.02 -0.09,-0.05 -0.03,-0.02 -0.05,-0.05 -0.06,-0.09 -0.01,-0.03 -0.01,-0.08 -0.01,-0.13l0 -0.19c0,-0.05 0,-0.09 0.01,-0.13 0.01,-0.03 0.03,-0.06 0.06,-0.09 0.02,-0.02 0.05,-0.04 0.09,-0.05 0.04,-0.01 0.08,-0.01 0.14,-0.01l0.49 0z"/>
   <path class="fil0" d="M10.33 6.54c-0.01,0 -0.02,0 -0.02,-0.01 0,0 0,-0.01 0,-0.02 0,-0.03 0,-0.05 0,-0.07 0.01,-0.02 0.02,-0.04 0.03,-0.05 0.01,-0.01 0.02,-0.02 0.04,-0.03 0.02,0 0.04,0 0.06,0 0.04,0 0.07,0 0.1,0.01 0.03,0.01 0.06,0.03 0.08,0.05 0.01,0.01 0.02,0.02 0.04,0.02 0.01,0.01 0.02,0.01 0.04,0.01 0.01,0 0.02,0 0.03,0 0.01,0 0.01,-0.01 0.01,-0.01 0.01,-0.01 0.01,-0.02 0.01,-0.03 0,-0.01 0,-0.02 0,-0.03 0,-0.02 0.01,-0.03 0.03,-0.03l0.06 0c0.01,0 0.02,0.01 0.02,0.01 0,0 0,0.01 0,0.02 0,0.03 0,0.06 0,0.08 -0.01,0.02 -0.02,0.03 -0.03,0.05 -0.01,0.01 -0.02,0.01 -0.04,0.02 -0.02,0 -0.04,0.01 -0.06,0.01 -0.04,0 -0.08,-0.01 -0.1,-0.02 -0.03,-0.01 -0.06,-0.02 -0.08,-0.04 -0.01,-0.01 -0.02,-0.02 -0.04,-0.03 -0.01,0 -0.02,-0.01 -0.04,-0.01 -0.03,0 -0.04,0.01 -0.04,0.02 -0.01,0.01 -0.01,0.03 -0.01,0.06 0,0.01 -0.01,0.02 -0.03,0.02l-0.06 0zm-0.05 0.51c0,0.03 0,0.05 0.01,0.07 0,0.02 0.01,0.03 0.02,0.05 0.01,0.01 0.03,0.01 0.04,0.02 0.02,0 0.05,0.01 0.07,0.01l0.33 0c0.02,0 0.05,-0.01 0.07,-0.01 0.01,-0.01 0.03,-0.01 0.04,-0.02 0.01,-0.02 0.02,-0.03 0.02,-0.05 0.01,-0.02 0.01,-0.04 0.01,-0.07l0 -0.16c0,-0.03 0,-0.06 -0.01,-0.08 0,-0.01 -0.01,-0.03 -0.02,-0.04 -0.01,-0.01 -0.03,-0.02 -0.04,-0.02 -0.02,-0.01 -0.05,-0.01 -0.07,-0.01l-0.33 0c-0.02,0 -0.05,0 -0.07,0.01 -0.01,0 -0.03,0.01 -0.04,0.02 -0.01,0.01 -0.02,0.03 -0.02,0.04 -0.01,0.02 -0.01,0.05 -0.01,0.08l0 0.16zm0.47 -0.46c0.06,0 0.1,0 0.14,0.01 0.04,0.01 0.07,0.03 0.1,0.05 0.02,0.03 0.04,0.06 0.05,0.09 0.01,0.04 0.02,0.08 0.02,0.13l0 0.19c0,0.05 -0.01,0.1 -0.02,0.13 -0.01,0.04 -0.03,0.07 -0.05,0.09 -0.03,0.03 -0.06,0.04 -0.1,0.05 -0.04,0.01 -0.08,0.02 -0.14,0.02l-0.33 0c-0.06,0 -0.1,-0.01 -0.14,-0.02 -0.04,-0.01 -0.07,-0.02 -0.1,-0.05 -0.02,-0.02 -0.04,-0.05 -0.05,-0.09 -0.01,-0.03 -0.02,-0.08 -0.02,-0.13l0 -0.19c0,-0.05 0.01,-0.09 0.02,-0.13 0.01,-0.03 0.03,-0.06 0.05,-0.09 0.03,-0.02 0.06,-0.04 0.1,-0.05 0.04,-0.01 0.08,-0.01 0.14,-0.01l0.33 0z"/>
   <path class="fil0" d="M13.01 6.59c0.01,0 0.02,0.01 0.02,0.02l0 0.1c0,0.02 -0.01,0.03 -0.02,0.03l-0.48 0c-0.03,0 -0.05,0 -0.07,0.01 -0.02,0 -0.03,0.01 -0.04,0.02 -0.01,0.01 -0.02,0.03 -0.03,0.04 0,0.02 0,0.05 0,0.08l0 0.01 0.61 0c0.02,0 0.02,0 0.02,0.02l0 0.09c0,0.01 0,0.02 -0.02,0.02l-0.61 0 0 0.02c0,0.03 0,0.05 0,0.07 0.01,0.02 0.02,0.03 0.03,0.05 0.01,0.01 0.02,0.01 0.04,0.02 0.02,0 0.04,0.01 0.07,0.01l0.48 0c0.01,0 0.02,0 0.02,0.02l0 0.1c0,0.02 -0.01,0.03 -0.02,0.03l-0.48 0c-0.06,0 -0.1,-0.01 -0.14,-0.02 -0.04,-0.01 -0.07,-0.02 -0.1,-0.05 -0.02,-0.02 -0.04,-0.05 -0.05,-0.09 -0.01,-0.03 -0.02,-0.08 -0.02,-0.13l0 -0.19c0,-0.05 0.01,-0.09 0.02,-0.13 0.01,-0.03 0.03,-0.06 0.05,-0.09 0.03,-0.02 0.06,-0.04 0.1,-0.05 0.04,-0.01 0.08,-0.01 0.14,-0.01l0.48 0z"/>
   <path class="fil0" d="M14.95 6.59c0.02,0 0.03,0.01 0.03,0.02l0 0.1c0,0.02 -0.01,0.03 -0.03,0.03l-0.54 0c-0.02,0 -0.04,0 -0.05,0.01 0,0.02 -0.01,0.03 -0.01,0.05l0 0.04c0,0.04 0.02,0.06 0.06,0.06l0.4 0c0.07,0 0.11,0.01 0.15,0.05 0.03,0.03 0.04,0.07 0.04,0.13l0 0.09c0,0.05 -0.01,0.1 -0.04,0.13 -0.03,0.03 -0.08,0.05 -0.15,0.05l-0.6 0c-0.02,0 -0.02,-0.01 -0.02,-0.03l0 -0.1c0,-0.02 0,-0.02 0.02,-0.02l0.57 0c0.02,0 0.04,-0.01 0.05,-0.02 0,-0.01 0.01,-0.03 0.01,-0.04l0 -0.05c0,-0.04 -0.02,-0.06 -0.06,-0.06l-0.41 0c-0.06,0 -0.11,-0.02 -0.14,-0.05 -0.03,-0.03 -0.04,-0.08 -0.04,-0.14l0 -0.08c0,-0.05 0.01,-0.09 0.04,-0.12 0.03,-0.04 0.08,-0.05 0.15,-0.05l0.57 0z"/>
   <path class="fil0" d="M18.35 6.59c0.02,0 0.02,0.01 0.02,0.02l0 0.1c0,0.02 0,0.03 -0.02,0.03l-0.47 0c-0.03,0 -0.06,0 -0.07,0.01 -0.02,0 -0.04,0.01 -0.05,0.02 -0.01,0.01 -0.02,0.03 -0.02,0.04 -0.01,0.02 -0.01,0.05 -0.01,0.08l0 0.01 0.61 0c0.02,0 0.03,0 0.03,0.02l0 0.09c0,0.01 -0.01,0.02 -0.03,0.02l-0.61 0 0 0.02c0,0.03 0,0.05 0.01,0.07 0,0.02 0.01,0.03 0.02,0.05 0.01,0.01 0.03,0.01 0.05,0.02 0.01,0 0.04,0.01 0.07,0.01l0.47 0c0.02,0 0.02,0 0.02,0.02l0 0.1c0,0.02 0,0.03 -0.02,0.03l-0.48 0c-0.05,0 -0.1,-0.01 -0.14,-0.02 -0.04,-0.01 -0.07,-0.02 -0.09,-0.05 -0.03,-0.02 -0.04,-0.05 -0.06,-0.09 -0.01,-0.03 -0.01,-0.08 -0.01,-0.13l0 -0.19c0,-0.05 0,-0.09 0.01,-0.13 0.02,-0.03 0.03,-0.06 0.06,-0.09 0.02,-0.02 0.05,-0.04 0.09,-0.05 0.04,-0.01 0.09,-0.01 0.14,-0.01l0.48 0z"/>
   <path class="fil0" d="M19.76 6.59c0.01,0 0.03,0 0.04,0 0.01,0 0.02,0.01 0.03,0.01 0.01,0.01 0.01,0.02 0.02,0.03 0.01,0.01 0.02,0.02 0.02,0.04l0.23 0.52c0,0.01 0.01,0.01 0.01,0.01l0.02 0c0,0 0.01,0 0.01,-0.01l0.23 -0.52c0,-0.02 0.01,-0.03 0.02,-0.04 0.01,-0.01 0.01,-0.02 0.02,-0.03 0.01,0 0.02,-0.01 0.03,-0.01 0.01,0 0.03,0 0.04,0l0.12 0c0.04,0 0.06,0.01 0.07,0.02 0.02,0.02 0.02,0.05 0.02,0.09l0 0.62c0,0.02 0,0.03 -0.02,0.03l-0.11 0c-0.02,0 -0.03,-0.01 -0.03,-0.03l0 -0.56c0,-0.01 0,-0.01 0,-0.01l-0.01 0c-0.01,0 -0.02,0 -0.02,0l-0.22 0.49c-0.01,0.02 -0.01,0.04 -0.02,0.05 -0.01,0.01 -0.02,0.02 -0.03,0.03 -0.01,0.01 -0.03,0.02 -0.04,0.02 -0.01,0.01 -0.03,0.01 -0.05,0.01l-0.05 0c-0.02,0 -0.03,0 -0.05,-0.01 -0.01,0 -0.02,-0.01 -0.03,-0.02 -0.01,-0.01 -0.02,-0.02 -0.03,-0.03 -0.01,-0.01 -0.02,-0.03 -0.03,-0.05l-0.22 -0.49c0,0 0,0 -0.01,0l-0.01 0c-0.01,0 -0.01,0 -0.01,0.01l0 0.56c0,0.02 -0.01,0.03 -0.02,0.03l-0.11 0c-0.02,0 -0.03,-0.01 -0.03,-0.03l0 -0.62c0,-0.04 0.01,-0.07 0.02,-0.09 0.01,-0.01 0.04,-0.02 0.08,-0.02l0.12 0z"/>
   <path class="fil0" d="M24.11 6.59c0.02,0 0.03,0.01 0.03,0.02l0 0.11c0,0.01 -0.01,0.02 -0.03,0.02l-0.34 0 0 0.58c0,0.02 -0.01,0.03 -0.02,0.03l-0.12 0c-0.02,0 -0.03,-0.01 -0.03,-0.03l0 -0.58 -0.34 0c-0.01,0 -0.02,-0.01 -0.02,-0.02l0 -0.11c0,-0.01 0.01,-0.02 0.02,-0.02l0.85 0z"/>
   <path class="fil0" d="M25.42 6.59c0.01,0 0.02,0.01 0.02,0.02l0 0.71c0,0.02 -0.01,0.03 -0.02,0.03l-0.12 0c-0.02,0 -0.02,-0.01 -0.02,-0.03l0 -0.71c0,-0.01 0,-0.02 0.02,-0.02l0.12 0z"/>
   <path class="fil0" d="M0.87 1.83c0,-0.05 0.03,-0.08 0.07,-0.08l1.87 0c0.17,0 0.31,0.02 0.42,0.05 0.12,0.03 0.21,0.08 0.28,0.15 0.07,0.07 0.12,0.16 0.15,0.27 0.03,0.12 0.04,0.26 0.04,0.42l0 0.63c0,0.17 -0.01,0.31 -0.04,0.42 -0.03,0.11 -0.08,0.2 -0.15,0.27 -0.07,0.07 -0.16,0.12 -0.28,0.15 -0.11,0.03 -0.25,0.05 -0.42,0.05l-1.87 0c-0.04,0 -0.07,-0.03 -0.07,-0.08l0 -2.25zm-0.7 3.12l2.66 0c0.31,0 0.57,-0.03 0.8,-0.1 0.21,-0.06 0.4,-0.16 0.54,-0.29 0.14,-0.13 0.24,-0.29 0.31,-0.5 0.06,-0.2 0.1,-0.44 0.1,-0.72l0 -0.77c0,-0.28 -0.04,-0.52 -0.1,-0.72 -0.07,-0.2 -0.17,-0.37 -0.31,-0.5 -0.14,-0.13 -0.33,-0.23 -0.54,-0.29 -0.23,-0.07 -0.49,-0.1 -0.8,-0.1l-2.66 0c-0.11,0 -0.17,0.06 -0.17,0.17l0 3.65c0,0.11 0.06,0.17 0.17,0.17z"/>
   <path class="fil0" d="M5.64 4.61c0.13,0.12 0.29,0.2 0.49,0.26 0.21,0.05 0.45,0.08 0.74,0.08l1.64 0c0.29,0 0.53,-0.03 0.73,-0.08 0.21,-0.06 0.37,-0.14 0.5,-0.26 0.13,-0.12 0.22,-0.28 0.28,-0.47 0.05,-0.19 0.08,-0.42 0.08,-0.7l0 -2.35c0,-0.08 -0.04,-0.13 -0.12,-0.13l-0.62 0c-0.09,0 -0.13,0.05 -0.13,0.13l0 2.27c0,0.15 -0.01,0.28 -0.03,0.38 -0.03,0.1 -0.07,0.18 -0.12,0.24 -0.06,0.06 -0.14,0.1 -0.23,0.12 -0.1,0.03 -0.22,0.04 -0.37,0.04l-1.58 0c-0.15,0 -0.27,-0.01 -0.36,-0.04 -0.1,-0.02 -0.18,-0.06 -0.23,-0.12 -0.06,-0.06 -0.1,-0.14 -0.13,-0.24 -0.02,-0.1 -0.03,-0.23 -0.03,-0.38l0 -2.27c0,-0.08 -0.05,-0.13 -0.13,-0.13l-0.61 0c-0.09,0 -0.13,0.05 -0.13,0.13l0 2.35c0,0.28 0.02,0.51 0.08,0.7 0.06,0.19 0.16,0.35 0.28,0.47z"/>
   <path class="fil0" d="M15.58 0l-0.95 0.96 -0.09 0c-0.05,0 -0.08,0.01 -0.11,0.02 -0.03,0.02 -0.05,0.04 -0.07,0.06l-1.32 1.32 -1.24 -1.32c-0.02,-0.02 -0.05,-0.04 -0.07,-0.06 -0.03,-0.01 -0.06,-0.02 -0.11,-0.02l-0.78 0c-0.05,0 -0.08,0.02 -0.08,0.06 -0.01,0.03 0,0.07 0.02,0.09l1.69 1.74 -1.87 1.95c-0.03,0.03 -0.04,0.06 -0.03,0.09 0.01,0.04 0.03,0.06 0.08,0.06l0.05 0 -0.51 0.52 -10.19 -0.01 0 0.41 10.37 0.01 0.91 -0.93 0.11 0c0.05,0 0.09,-0.01 0.11,-0.02 0.03,-0.01 0.05,-0.03 0.08,-0.06l1.41 -1.48 1.41 1.48c0.02,0.03 0.04,0.05 0.07,0.06 0.03,0.01 0.06,0.02 0.11,0.02l0.78 0c0.05,0 0.08,-0.02 0.09,-0.06 0,-0.03 -0.01,-0.06 -0.03,-0.09l-1.83 -1.92 1.75 -1.77c0.02,-0.02 0.03,-0.06 0.03,-0.09 -0.01,-0.04 -0.04,-0.06 -0.09,-0.06l-0.07 0 0.54 -0.55 9.72 0 0 -0.41 -9.89 0z"/>
   <path class="fil1" d="M24.07 2.57l-2.18 0 0 -0.75c0,-0.05 0.02,-0.07 0.07,-0.07l2.11 0c0.19,0 0.33,0.04 0.41,0.12 0.06,0.07 0.1,0.17 0.11,0.29 -0.01,0.12 -0.05,0.22 -0.11,0.28 -0.08,0.09 -0.22,0.13 -0.41,0.13zm1.11 -1.31c-0.19,-0.2 -0.5,-0.3 -0.94,-0.3l-3.05 0c-0.12,0 -0.17,0.06 -0.17,0.17l0 1.44 -3.24 0c-0.09,0 -0.15,0.06 -0.15,0.15l0 0.4c0,0.08 0.06,0.15 0.15,0.15l1.65 0c0.04,0 0.06,0.03 0.06,0.07l0 0.46c0,0.13 -0.02,0.22 -0.07,0.27 -0.04,0.05 -0.12,0.08 -0.21,0.08l-1.88 0c-0.15,0 -0.27,-0.01 -0.37,-0.04 -0.1,-0.02 -0.17,-0.06 -0.23,-0.12 -0.06,-0.06 -0.1,-0.14 -0.12,-0.24 -0.03,-0.1 -0.04,-0.23 -0.04,-0.38l0 -0.82c0,-0.15 0.01,-0.28 0.04,-0.37 0.02,-0.1 0.06,-0.18 0.12,-0.24 0.06,-0.06 0.13,-0.1 0.23,-0.13 0.1,-0.02 0.22,-0.03 0.37,-0.03l2.85 0c0.08,0 0.12,-0.05 0.12,-0.13l0 -0.56c0,-0.08 -0.04,-0.13 -0.12,-0.13l-2.89 0c-0.28,0 -0.53,0.03 -0.73,0.09 -0.2,0.05 -0.37,0.14 -0.49,0.26 -0.13,0.12 -0.22,0.27 -0.28,0.46 -0.06,0.19 -0.09,0.42 -0.09,0.7l0 0.97c0,0.28 0.03,0.51 0.09,0.7 0.06,0.19 0.15,0.35 0.28,0.47 0.12,0.12 0.29,0.2 0.49,0.26 0.2,0.05 0.45,0.08 0.73,0.08l2.3 0c0.23,0 0.4,-0.07 0.53,-0.2 0.12,-0.13 0.18,-0.35 0.18,-0.67l0 -0.81 0.72 0 0 1.55c0,0.09 0.04,0.13 0.13,0.13l0.61 0c0.08,0 0.13,-0.04 0.13,-0.13l0 -1.55 2.35 0c0.44,0 0.75,-0.1 0.94,-0.3 0.19,-0.19 0.29,-0.49 0.29,-0.87l0 -0.02c0,-0.38 -0.1,-0.62 -0.29,-0.82z"/>
  </g>
 </g>
</svg>
