<?xml version="1.0" encoding="UTF-8"?>
<!DOCTYPE svg PUBLIC "-//W3C//DTD SVG 1.1//EN" "http://www.w3.org/Graphics/SVG/1.1/DTD/svg11.dtd">
<!-- Creator: CorelDRAW 2021 (64 Bit) -->
<svg xmlns="http://www.w3.org/2000/svg" xml:space="preserve" width="14px" height="14px" version="1.1" style="shape-rendering:geometricPrecision; text-rendering:geometricPrecision; image-rendering:optimizeQuality; fill-rule:evenodd; clip-rule:evenodd"
viewBox="0 0 0.38 0.38"
 xmlns:xlink="http://www.w3.org/1999/xlink"
 xmlns:xodm="http://www.corel.com/coreldraw/odm/2003">
 <defs>
  <style type="text/css">
   <![CDATA[
    .fil0 {fill:#FEFEFE}
   ]]>
  </style>
 </defs>
 <g id="Camada_x0020_1">
  <metadata id="CorelCorpID_0Corel-Layer"/>
  <path class="fil0" d="M0.19 0.34c-0.03,0 -0.06,-0.01 -0.08,-0.02l-0.06 0.02 0.02 -0.06c-0.02,-0.03 -0.03,-0.06 -0.03,-0.09 0,-0.01 0,-0.01 0,-0.02 0.01,-0.08 0.07,-0.14 0.15,-0.14 0.09,0 0.15,0.06 0.16,0.14 0,0.01 0,0.01 0,0.02 0,0.08 -0.07,0.15 -0.16,0.15l0 0zm0.09 -0.12c0,0 -0.03,-0.01 -0.03,-0.01 -0.01,0 -0.01,0 -0.01,0 0,0.01 -0.01,0.02 -0.02,0.02 0,0 0,0 -0.01,0 0,0 -0.02,-0.01 -0.03,-0.02 -0.02,-0.02 -0.03,-0.03 -0.03,-0.03 0,-0.01 0,-0.01 0,-0.01 0.01,-0.01 0.01,-0.01 0.01,-0.01 0,0 0,0 0,0 0,-0.01 0,-0.01 0,-0.01 0.01,0 0.01,-0.01 0,-0.01 0,0 -0.01,-0.02 -0.01,-0.03 0,-0.01 -0.01,-0.01 -0.01,-0.01 0,0 -0.01,0 -0.01,0 0,0 -0.01,0 -0.01,0.01 -0.01,0 -0.02,0.01 -0.02,0.03 0,0.01 0,0.02 0.01,0.02 0,0.02 0.01,0.03 0.01,0.03 0,0 0.03,0.05 0.08,0.07 0.05,0.02 0.05,0.01 0.06,0.01 0,0 0.02,-0.01 0.03,-0.02 0,-0.01 0,-0.02 0,-0.02 0,0 -0.01,0 -0.01,-0.01l0 0zm0.1 -0.04c0,-0.1 -0.08,-0.18 -0.19,-0.18 -0.1,0 -0.18,0.08 -0.18,0.18 0,0 0,0 0,0.01 0,0.03 0.01,0.06 0.02,0.09l-0.03 0.1 0.1 -0.03c0.03,0.01 0.06,0.02 0.09,0.02 0.11,0 0.19,-0.08 0.19,-0.18 0,-0.01 0,-0.01 0,-0.01l0 0z"/>
 </g>
</svg>
