<?xml version="1.0" encoding="UTF-8"?>
<!DOCTYPE svg PUBLIC "-//W3C//DTD SVG 1.1//EN" "http://www.w3.org/Graphics/SVG/1.1/DTD/svg11.dtd">
<!-- Creator: CorelDRAW 2021 (64 Bit) -->
<svg xmlns="http://www.w3.org/2000/svg" xml:space="preserve" width="560px" height="90px" version="1.1" style="shape-rendering:geometricPrecision; text-rendering:geometricPrecision; image-rendering:optimizeQuality; fill-rule:evenodd; clip-rule:evenodd"
viewBox="0 0 99.42 15.98"
 xmlns:xlink="http://www.w3.org/1999/xlink"
 xmlns:xodm="http://www.corel.com/coreldraw/odm/2003">
 <defs>
  <style type="text/css">
   <![CDATA[
    .fil1 {fill:#00CC83}
    .fil0 {fill:#373435;fill-rule:nonzero}
    .fil2 {fill:#00CC83;fill-rule:nonzero}
   ]]>
  </style>
 </defs>
 <g id="Camada_x0020_1">
  <metadata id="CorelCorpID_0Corel-Layer"/>
  <path class="fil0" d="M3.4 15.82l-3.13 0 0 -11.24 3.13 0 0 11.24zm4.62 -6.27l0 6.27 -3.13 0 0 -11.24 3.13 0 0 1.25 0 0 0 3.67c0,0.02 0,0.03 0,0.05zm0.84 -4.42c0.73,-0.5 1.51,-0.74 2.36,-0.74 1.18,0 2.18,0.42 2.98,1.25 0.8,0.84 1.2,1.95 1.2,3.34l0 6.84 -3.14 0 0 -6.36c0,-1.72 -0.63,-2.59 -1.9,-2.59 -0.56,0 -1.06,0.19 -1.5,0.56l0 -2.3zm12.4 10.85c-1.33,0 -2.52,-0.56 -3.56,-1.69 -1.05,-1.13 -1.57,-2.53 -1.57,-4.2 0,-1.67 0.51,-3.04 1.53,-4.1 1.01,-1.07 2.2,-1.6 3.57,-1.6 0.97,0 1.81,0.24 2.53,0.73l0 2.71c-0.49,-0.54 -1.08,-0.81 -1.78,-0.81 -0.74,0 -1.37,0.31 -1.9,0.92 -0.53,0.61 -0.79,1.37 -0.79,2.28 0,0.9 0.27,1.64 0.81,2.22 0.54,0.58 1.18,0.87 1.9,0.87 0.73,0 1.34,-0.29 1.85,-0.87 0.51,-0.58 0.76,-1.32 0.76,-2.23 0,-0.13 0,-0.26 -0.01,-0.39l0 -7.81 -0.03 0 0 -1.7 3.14 0 0 15.51 -3.14 0 0 -1.49c-0.88,1.1 -1.98,1.65 -3.31,1.65zm17.67 -1.79c-1.27,1.19 -2.76,1.79 -4.46,1.79 -1.71,0 -3.12,-0.52 -4.23,-1.57 -1.12,-1.06 -1.68,-2.47 -1.68,-4.24 0,-1.76 0.57,-3.17 1.71,-4.22 1.13,-1.04 2.47,-1.56 4.02,-1.56 1.55,0 2.86,0.46 3.94,1.4 1.08,0.93 1.62,2.21 1.62,3.84l0 1.67 -7.38 0 0 -2.23 4.2 0c-0.07,-0.67 -0.32,-1.19 -0.75,-1.55 -0.43,-0.36 -0.96,-0.54 -1.58,-0.54 -0.62,0 -1.19,0.19 -1.7,0.56 -0.52,0.38 -0.82,0.89 -0.9,1.53 -0.17,1.13 -0.12,2.06 -0.08,2.23 0.09,0.62 0.41,1.12 0.96,1.51 0.54,0.39 1.15,0.58 1.84,0.58 1.1,0 2,-0.37 2.71,-1.11l1.76 1.91zm5.98 -6.69l2.03 -2.91 0.01 -0.01 3.68 0 -3.87 5.49 4.02 5.75 -3.74 0 -2.2 -3.1 -2.13 3.1 -3.61 0 5.81 -8.32zm15.48 8.32l-2.95 0 0 -1.36c-0.81,1.01 -1.8,1.52 -3,1.52 -1.19,0 -2.19,-0.34 -2.99,-1.03 -0.81,-0.69 -1.22,-1.61 -1.22,-2.76 0,-1.15 0.42,-2.01 1.26,-2.58 0.83,-0.57 1.98,-0.86 3.42,-0.86l1.49 0 0 2.24 -1.13 0c-1.25,0 -1.88,0.39 -1.88,1.17 0,0.4 0.15,0.71 0.45,0.93 0.3,0.22 0.73,0.32 1.28,0.32 0.56,0 1.05,-0.17 1.48,-0.51 0.42,-0.34 0.63,-0.8 0.63,-1.37l0.01 -0.5 0.01 -2.34c0,-1.2 -0.63,-1.8 -1.9,-1.8 -0.54,0 -1.11,0.11 -1.72,0.33 -0.61,0.21 -1.12,0.48 -1.54,0.8l-1.4 -2.02c1.48,-1.08 3.17,-1.61 5.06,-1.61 1.37,0 2.48,0.34 3.34,1.02 0.87,0.68 1.3,1.76 1.3,3.24l0 7.17z"/>
  <circle class="fil1" cx="1.84" cy="1.84" r="1.84"/>
  <circle class="fil1" cx="63.08" cy="14.15" r="1.84"/>
  <polygon class="fil1" points="42.65,9.53 44.51,6.87 43.05,4.58 39.31,4.58 "/>
  <path class="fil2" d="M69.62 4.6c2.01,0 3.55,0.49 4.62,1.48 1.07,0.98 1.61,2.34 1.61,4.09 0,1.75 -0.52,3.14 -1.57,4.16 -1.04,1.01 -2.64,1.52 -4.79,1.52l-3.84 0 0 -11.25 3.97 0zm0.13 9.03c1.15,0 2.03,-0.29 2.65,-0.87 0.62,-0.58 0.92,-1.42 0.92,-2.52 0,-1.11 -0.3,-1.96 -0.92,-2.55 -0.62,-0.6 -1.57,-0.9 -2.84,-0.9l-1.4 0 0 6.84 1.59 0zm16 -3.47c0,-1 -0.32,-1.85 -0.96,-2.56 -0.65,-0.71 -1.44,-1.06 -2.38,-1.06 -0.94,0 -1.73,0.35 -2.37,1.06 -0.65,0.71 -0.97,1.56 -0.97,2.56 0,1.01 0.32,1.86 0.97,2.56 0.64,0.71 1.43,1.06 2.37,1.06 0.94,0 1.73,-0.35 2.38,-1.06 0.64,-0.7 0.96,-1.55 0.96,-2.56zm0.85 4.14c-1.13,1.11 -2.53,1.67 -4.2,1.67 -1.66,0 -3.06,-0.56 -4.2,-1.67 -1.13,-1.11 -1.7,-2.49 -1.7,-4.14 0,-1.66 0.57,-3.04 1.7,-4.15 1.14,-1.11 2.54,-1.66 4.2,-1.66 1.67,0 3.07,0.55 4.2,1.66 1.14,1.11 1.71,2.49 1.71,4.15 0,1.65 -0.57,3.03 -1.71,4.14zm8.12 -0.67c1.23,0 2.24,-0.49 3.02,-1.46l1.61 1.66c-1.27,1.43 -2.78,2.15 -4.51,2.15 -1.73,0 -3.16,-0.54 -4.28,-1.64 -1.12,-1.09 -1.68,-2.47 -1.68,-4.14 0,-1.67 0.57,-3.06 1.71,-4.18 1.14,-1.12 2.54,-1.67 4.19,-1.67 1.85,0 3.39,0.7 4.64,2.1l-1.56 1.78c-0.8,-0.99 -1.78,-1.49 -2.97,-1.49 -0.94,0 -1.75,0.31 -2.42,0.93 -0.67,0.62 -1,1.45 -1,2.49 0,1.05 0.31,1.89 0.95,2.52 0.63,0.64 1.4,0.95 2.3,0.95z"/>
 </g>
</svg>
