<?xml version="1.0" encoding="UTF-8"?>
<!DOCTYPE svg PUBLIC "-//W3C//DTD SVG 1.1//EN" "http://www.w3.org/Graphics/SVG/1.1/DTD/svg11.dtd">
<!-- Creator: CorelDRAW 2021 (64 Bit) -->
<svg xmlns="http://www.w3.org/2000/svg" xml:space="preserve" width="561px" height="90px" version="1.1" style="shape-rendering:geometricPrecision; text-rendering:geometricPrecision; image-rendering:optimizeQuality; fill-rule:evenodd; clip-rule:evenodd"
viewBox="0 0 99.74 15.99"
 xmlns:xlink="http://www.w3.org/1999/xlink"
 xmlns:xodm="http://www.corel.com/coreldraw/odm/2003">
 <defs>
  <style type="text/css">
   <![CDATA[
    .fil1 {fill:#6D41A1}
    .fil0 {fill:#373435;fill-rule:nonzero}
    .fil2 {fill:#6D41A1;fill-rule:nonzero}
   ]]>
  </style>
 </defs>
 <g id="Camada_x0020_1">
  <metadata id="CorelCorpID_0Corel-Layer"/>
  <path class="fil0" d="M3.41 15.83l-3.14 0 0 -11.25 3.14 0 0 11.25zm4.62 -6.28l0 6.28 -3.14 0 0 -11.25 3.14 0 0 1.25 0 0 0 3.68c0,0.01 0,0.03 0,0.04zm0.84 -4.42c0.72,-0.49 1.51,-0.74 2.36,-0.74 1.18,0 2.18,0.42 2.98,1.25 0.8,0.84 1.2,1.96 1.2,3.35l0 6.84 -3.14 0 0 -6.36c0,-1.73 -0.63,-2.59 -1.9,-2.59 -0.57,0 -1.07,0.18 -1.5,0.55l0 -2.3zm12.41 10.86c-1.34,0 -2.52,-0.56 -3.57,-1.69 -1.04,-1.13 -1.57,-2.53 -1.57,-4.2 0,-1.67 0.51,-3.04 1.53,-4.11 1.02,-1.07 2.21,-1.6 3.57,-1.6 0.98,0 1.82,0.24 2.54,0.73l0 2.71c-0.49,-0.54 -1.09,-0.81 -1.78,-0.81 -0.74,0 -1.38,0.31 -1.91,0.92 -0.53,0.62 -0.79,1.38 -0.79,2.28 0,0.91 0.27,1.65 0.82,2.23 0.54,0.58 1.17,0.87 1.9,0.87 0.72,0 1.34,-0.29 1.85,-0.87 0.51,-0.58 0.76,-1.32 0.76,-2.24 0,-0.13 0,-0.25 -0.01,-0.38l0 -7.82 -0.03 0 0 -1.7 3.14 0 0 15.52 -3.14 0 0 -1.49c-0.88,1.1 -1.98,1.65 -3.31,1.65zm17.68 -1.79c-1.27,1.19 -2.76,1.79 -4.47,1.79 -1.71,0 -3.12,-0.52 -4.23,-1.57 -1.12,-1.06 -1.67,-2.47 -1.67,-4.24 0,-1.77 0.56,-3.18 1.7,-4.22 1.13,-1.05 2.48,-1.57 4.02,-1.57 1.55,0 2.86,0.47 3.94,1.4 1.08,0.94 1.63,2.22 1.63,3.85l0 1.67 -7.39 0 0 -2.24 4.21 0c-0.07,-0.67 -0.32,-1.18 -0.76,-1.54 -0.43,-0.37 -0.95,-0.55 -1.57,-0.55 -0.62,0 -1.19,0.19 -1.71,0.57 -0.51,0.37 -0.81,0.88 -0.9,1.52 -0.17,1.14 -0.12,2.07 -0.08,2.24 0.1,0.61 0.42,1.12 0.96,1.51 0.54,0.39 1.16,0.58 1.84,0.58 1.1,0 2.01,-0.37 2.72,-1.11l1.76 1.91zm5.98 -6.7l2.04 -2.91 0.01 -0.01 3.68 0 -3.87 5.5 4.01 5.75 -3.74 0 -2.2 -3.1 -2.13 3.1 -3.61 0 5.81 -8.33zm15.49 8.33l-2.95 0 0 -1.36c-0.81,1.02 -1.81,1.52 -3,1.52 -1.19,0 -2.19,-0.34 -3,-1.03 -0.81,-0.69 -1.21,-1.61 -1.21,-2.76 0,-1.15 0.42,-2.01 1.25,-2.58 0.84,-0.57 1.98,-0.86 3.43,-0.86l1.49 0 0 2.24 -1.13 0c-1.26,0 -1.88,0.39 -1.88,1.17 0,0.4 0.15,0.71 0.45,0.93 0.3,0.21 0.72,0.32 1.28,0.32 0.56,0 1.05,-0.17 1.48,-0.51 0.42,-0.34 0.63,-0.8 0.63,-1.37l0.01 -0.5 0.01 -2.34c0,-1.2 -0.63,-1.8 -1.9,-1.8 -0.54,0 -1.12,0.11 -1.72,0.32 -0.61,0.22 -1.12,0.49 -1.54,0.81l-1.4 -2.03c1.48,-1.07 3.16,-1.61 5.06,-1.61 1.37,0 2.48,0.34 3.34,1.02 0.87,0.69 1.3,1.77 1.3,3.25l0 7.17z"/>
  <circle class="fil1" cx="1.84" cy="1.84" r="1.84"/>
  <circle class="fil1" cx="63.12" cy="14.16" r="1.84"/>
  <polygon class="fil1" points="42.68,9.54 44.54,6.87 43.08,4.58 39.33,4.58 "/>
  <path class="fil2" d="M73.95 10.13l2.53 0 0 4c-1.12,1.24 -2.66,1.86 -4.64,1.86 -1.65,0 -3.04,-0.54 -4.16,-1.64 -1.12,-1.09 -1.68,-2.48 -1.68,-4.15 0,-1.67 0.57,-3.06 1.71,-4.18 1.14,-1.11 2.52,-1.67 4.14,-1.67 1.62,0 3.02,0.53 4.21,1.59l-1.3 1.89c-0.51,-0.44 -0.97,-0.75 -1.4,-0.91 -0.42,-0.17 -0.88,-0.25 -1.37,-0.25 -0.96,0 -1.76,0.32 -2.42,0.97 -0.65,0.65 -0.98,1.51 -0.98,2.57 0,1.07 0.31,1.92 0.94,2.55 0.63,0.64 1.38,0.96 2.25,0.96 0.87,0 1.59,-0.16 2.17,-0.5l0 -3.09zm13.03 -5.52l0 2.24 -5.61 0 0 2.32 5.04 0 0 2.14 -5.04 0 0 2.33 5.78 0 0 2.23 -8.29 0 0 -11.26 8.12 0zm6.53 0c2.01,0 3.55,0.49 4.62,1.47 1.07,0.98 1.61,2.35 1.61,4.1 0,1.75 -0.52,3.14 -1.57,4.16 -1.05,1.02 -2.64,1.53 -4.79,1.53l-3.85 0 0 -11.26 3.98 0zm0.13 9.03c1.15,0 2.03,-0.29 2.65,-0.87 0.61,-0.58 0.92,-1.42 0.92,-2.53 0,-1.1 -0.31,-1.95 -0.92,-2.55 -0.62,-0.59 -1.57,-0.89 -2.85,-0.89l-1.4 0 0 6.84 1.6 0z"/>
 </g>
</svg>
