<?xml version="1.0" encoding="UTF-8"?>
<!DOCTYPE svg PUBLIC "-//W3C//DTD SVG 1.1//EN" "http://www.w3.org/Graphics/SVG/1.1/DTD/svg11.dtd">
<!-- Creator: CorelDRAW 2021 (64 Bit) -->
<svg xmlns="http://www.w3.org/2000/svg" xml:space="preserve" width="149px" height="24px" version="1.1" style="shape-rendering:geometricPrecision; text-rendering:geometricPrecision; image-rendering:optimizeQuality; fill-rule:evenodd; clip-rule:evenodd"
viewBox="0 0 67.68 10.88"
 xmlns:xlink="http://www.w3.org/1999/xlink"
 xmlns:xodm="http://www.corel.com/coreldraw/odm/2003">
 <defs>
  <style type="text/css">
   <![CDATA[
    .fil1 {fill:#00CC83}
    .fil0 {fill:#373435;fill-rule:nonzero}
    .fil2 {fill:#00CC83;fill-rule:nonzero}
   ]]>
  </style>
 </defs>
 <g id="Camada_x0020_1">
  <metadata id="CorelCorpID_0Corel-Layer"/>
  <path class="fil0" d="M2.32 10.77l-2.14 0 0 -7.66 2.14 0 0 7.66zm3.14 -4.27l0 4.27 -2.13 0 0 -7.66 2.13 0 0 0.86 0 0 0 2.5c0,0.01 0,0.02 0,0.03zm0.57 -3.01c0.5,-0.34 1.03,-0.5 1.61,-0.5 0.8,0 1.48,0.28 2.02,0.85 0.55,0.57 0.82,1.33 0.82,2.28l0 4.65 -2.13 0 0 -4.33c0,-1.17 -0.43,-1.76 -1.3,-1.76 -0.38,0 -0.72,0.12 -1.02,0.38l0 -1.57zm8.44 7.39c-0.9,0 -1.71,-0.38 -2.42,-1.15 -0.71,-0.77 -1.07,-1.72 -1.07,-2.86 0,-1.14 0.35,-2.07 1.04,-2.8 0.69,-0.72 1.5,-1.08 2.43,-1.08 0.66,0 1.24,0.16 1.73,0.49l0 1.85c-0.34,-0.37 -0.74,-0.55 -1.22,-0.55 -0.5,0 -0.93,0.21 -1.29,0.62 -0.36,0.42 -0.54,0.94 -0.54,1.55 0,0.62 0.18,1.13 0.55,1.52 0.37,0.39 0.81,0.59 1.3,0.59 0.49,0 0.91,-0.2 1.26,-0.59 0.34,-0.39 0.52,-0.9 0.52,-1.52 0,-0.09 -0.01,-0.18 -0.01,-0.26l0 -5.32 -0.02 0 0 -1.16 2.13 0 0 10.56 -2.13 0 0 -1.01c-0.6,0.75 -1.35,1.12 -2.26,1.12zm12.03 -1.22c-0.86,0.81 -1.88,1.22 -3.04,1.22 -1.16,0 -2.12,-0.36 -2.88,-1.07 -0.76,-0.72 -1.13,-1.68 -1.13,-2.88 0,-1.21 0.38,-2.17 1.15,-2.88 0.78,-0.71 1.69,-1.06 2.74,-1.06 1.05,0 1.95,0.31 2.68,0.95 0.74,0.63 1.11,1.51 1.11,2.62l0 1.13 -5.03 0 0 -1.52 2.86 0c-0.04,-0.45 -0.21,-0.8 -0.51,-1.05 -0.29,-0.25 -0.65,-0.37 -1.07,-0.37 -0.42,0 -0.81,0.13 -1.16,0.38 -0.35,0.26 -0.56,0.61 -0.61,1.04 -0.12,0.77 -0.09,1.41 -0.06,1.52 0.07,0.42 0.28,0.76 0.65,1.03 0.37,0.26 0.79,0.4 1.26,0.4 0.75,0 1.36,-0.25 1.85,-0.76l1.19 1.3zm4.07 -4.56l1.39 -1.98 0 -0.01 2.51 0 -2.64 3.75 2.74 3.91 -2.55 0 -1.49 -2.11 -1.45 2.11 -2.46 0 3.95 -5.67zm10.54 5.67l-2.01 0 0 -0.93c-0.55,0.69 -1.23,1.04 -2.04,1.04 -0.81,0 -1.49,-0.23 -2.04,-0.7 -0.55,-0.47 -0.82,-1.1 -0.82,-1.88 0,-0.78 0.28,-1.37 0.85,-1.76 0.57,-0.39 1.35,-0.58 2.33,-0.58l1.02 0 0 1.52 -0.78 0c-0.85,0 -1.28,0.27 -1.28,0.8 0,0.27 0.11,0.48 0.31,0.63 0.2,0.15 0.5,0.22 0.87,0.22 0.38,0 0.72,-0.12 1.01,-0.35 0.29,-0.23 0.43,-0.54 0.43,-0.93l0.01 -0.34 0.01 -1.59c0,-0.82 -0.44,-1.23 -1.3,-1.23 -0.37,0 -0.76,0.08 -1.17,0.22 -0.41,0.15 -0.76,0.33 -1.05,0.55l-0.95 -1.38c1,-0.73 2.15,-1.09 3.44,-1.09 0.93,0 1.69,0.23 2.28,0.69 0.59,0.47 0.88,1.2 0.88,2.21l0 4.88z"/>
  <circle class="fil1" cx="1.25" cy="1.25" r="1.25"/>
  <circle class="fil1" cx="42.94" cy="9.63" r="1.25"/>
  <polygon class="fil1" points="29.03,6.49 30.3,4.67 29.3,3.11 26.76,3.11 "/>
  <path class="fil2" d="M47.39 3.13c1.37,0 2.42,0.34 3.15,1.01 0.73,0.66 1.09,1.59 1.09,2.79 0,1.19 -0.35,2.13 -1.06,2.82 -0.72,0.7 -1.8,1.04 -3.26,1.04l-2.62 0 0 -7.66 2.7 0zm0.09 6.15c0.78,0 1.38,-0.2 1.8,-0.59 0.42,-0.4 0.63,-0.97 0.63,-1.72 0,-0.75 -0.21,-1.33 -0.63,-1.74 -0.42,-0.4 -1.06,-0.61 -1.93,-0.61l-0.95 0 0 4.66 1.08 0zm10.89 -2.36c0,-0.68 -0.21,-1.27 -0.65,-1.75 -0.44,-0.48 -0.98,-0.72 -1.62,-0.72 -0.64,0 -1.18,0.24 -1.62,0.72 -0.43,0.48 -0.65,1.07 -0.65,1.75 0,0.68 0.22,1.26 0.65,1.74 0.44,0.48 0.98,0.72 1.62,0.72 0.64,0 1.18,-0.24 1.62,-0.72 0.44,-0.48 0.65,-1.06 0.65,-1.74zm0.58 2.82c-0.77,0.75 -1.72,1.13 -2.85,1.13 -1.14,0 -2.09,-0.38 -2.86,-1.13 -0.78,-0.76 -1.17,-1.7 -1.17,-2.83 0,-1.12 0.39,-2.06 1.17,-2.82 0.77,-0.75 1.72,-1.13 2.86,-1.13 1.13,0 2.08,0.38 2.85,1.13 0.78,0.76 1.17,1.7 1.17,2.82 0,1.13 -0.39,2.07 -1.17,2.83zm5.53 -0.46c0.84,0 1.53,-0.33 2.06,-1l1.09 1.13c-0.87,0.98 -1.89,1.47 -3.07,1.47 -1.18,0 -2.15,-0.37 -2.91,-1.12 -0.77,-0.74 -1.15,-1.68 -1.15,-2.82 0,-1.13 0.39,-2.08 1.17,-2.84 0.78,-0.76 1.73,-1.14 2.85,-1.14 1.26,0 2.31,0.48 3.16,1.43l-1.07 1.21c-0.54,-0.67 -1.21,-1.01 -2.01,-1.01 -0.64,0 -1.19,0.21 -1.65,0.63 -0.46,0.42 -0.68,0.99 -0.68,1.7 0,0.71 0.21,1.28 0.64,1.71 0.43,0.44 0.95,0.65 1.57,0.65z"/>
 </g>
</svg>
