<svg width="116" height="94" viewBox="0 0 116 94" fill="none" xmlns="http://www.w3.org/2000/svg">
<path d="M115.52 87.8489C115.468 87.7682 115.412 87.691 115.359 87.6107C115.667 87.2559 115.859 86.8081 115.878 86.3345C115.903 85.7794 115.673 85.2072 115.288 84.7878C114.926 84.3939 114.429 84.1338 113.876 84.1528C113.528 84.1624 113.18 84.1709 112.832 84.1788C112.672 83.9786 112.514 83.7755 112.354 83.5749C111.974 83.0972 111.59 82.6242 111.206 82.1509C111.211 82.1463 111.215 82.1428 111.221 82.1392C111.54 81.8952 111.716 81.4282 111.731 81.0449C111.75 80.6275 111.6 80.2172 111.318 79.9107C111.036 79.6033 110.64 79.4183 110.223 79.4015C110.089 79.4118 109.955 79.4241 109.822 79.4343C109.6 79.4843 109.406 79.5844 109.228 79.7156C109.206 79.69 109.187 79.6647 109.166 79.6401C107.062 77.0577 104.942 74.4917 102.826 71.9203C98.3293 66.4552 93.781 61.0307 89.2427 55.5986C89.2301 55.5848 89.2175 55.571 89.2058 55.5583C88.7027 55.0101 87.7802 55.0225 87.2448 55.5139C86.6562 56.0541 86.6654 56.9199 87.1572 57.5127C90.0969 61.0313 93.0232 64.5585 95.9474 68.0895C97.7652 70.285 99.5879 72.4741 101.386 74.6845C102.536 76.0994 103.68 77.5178 104.826 78.9343C104.75 78.9169 104.675 78.9006 104.601 78.8823C103.618 78.655 102.637 78.428 101.655 78.202C101.234 78.1066 100.808 78.0232 100.396 77.9054C99.7416 77.719 99.0882 77.5316 98.4339 77.3448C96.6045 76.8213 94.7748 76.2982 92.9429 75.7734C92.2258 75.5683 91.5283 75.309 90.8236 75.0636C87.2449 73.8164 83.6642 72.5694 80.0846 71.3213C78.2526 70.6826 76.466 69.9244 74.6631 69.2011C71.7216 68.0189 68.7806 66.8397 65.8371 65.6576C64.2127 65.0038 62.5789 64.3715 60.959 63.701C55.1462 61.0096 49.3228 58.339 43.507 55.6558C43.0609 55.4517 42.6177 55.2468 42.1716 55.0428C42.2335 55.071 42.2946 55.0981 42.3565 55.1264C41.4441 54.7024 40.5531 54.2261 39.6579 53.7737C38.6076 53.2464 37.5641 52.7148 36.5207 52.1757C34.4392 51.0964 32.3799 49.9749 30.3574 48.7889C28.4086 47.6439 26.5061 46.4183 24.6262 45.1612C22.6917 43.8638 20.8064 42.4921 19.015 41.0018C17.2394 39.4932 15.5662 37.8636 13.9762 36.1666C12.3865 34.4677 10.9052 32.6691 9.56384 30.7693C8.32428 28.9751 7.1851 27.1069 6.14207 25.1902C5.1177 23.3071 4.21724 21.3555 3.48167 19.3395C2.61428 16.8562 2.03103 14.2805 1.79401 11.6584C1.67134 9.98654 1.69107 8.31424 1.94586 6.65788C2.10031 5.8501 2.34419 5.07608 2.66694 4.32015C2.94747 3.72604 3.27331 3.16455 3.6605 2.63362C3.78266 2.50702 3.90619 2.39908 4.04577 2.29087C4.30257 2.11852 4.55969 1.94948 4.82585 1.79205C5.21216 1.56599 5.39645 1.10188 5.18387 0.687082C4.98857 0.307098 4.46229 0.104209 4.07779 0.332243C3.70715 0.549357 3.33577 0.781621 2.9897 1.03772C2.79801 1.17927 2.63902 1.31799 2.4793 1.49535C2.33309 1.65489 2.21025 1.83457 2.08201 2.00838C1.52292 2.78938 1.11284 3.6852 0.780663 4.5819C0.476575 5.40214 0.31698 6.26347 0.194177 7.12544C0.0665573 8.06242 0.0269466 9.00912 0.0279397 9.95293C0.0353647 13.696 0.886418 17.4069 2.19209 20.8959C3.55741 24.5564 5.50653 27.9978 7.64999 31.2536C9.9234 34.705 12.6779 37.8161 15.6535 40.6737C18.6853 43.5865 22.093 46.0529 25.5928 48.3679C27.3383 49.5203 29.1119 50.6199 30.924 51.6677C32.7353 52.7145 34.5804 53.705 36.4335 54.6772C38.2377 55.6238 40.0376 56.5851 41.8812 57.4539C43.2284 58.0851 44.5722 58.7158 45.9175 59.3488C49.5936 61.0766 53.2697 62.8025 56.9448 64.5313C57.8977 64.9779 58.8517 65.4234 59.8041 65.8759C60.4016 66.1563 61.0229 66.3933 61.633 66.6459C65.2108 68.1147 68.7865 69.5834 72.3635 71.0529C73.9196 71.6916 75.4719 72.3299 77.0273 72.9692C77.5298 73.174 78.0309 73.3926 78.5439 73.5787C81.923 74.7955 85.3019 76.0197 88.6806 77.2423C89.6721 77.6009 90.6677 77.9522 91.656 78.3174C92.0937 78.4785 92.5531 78.5925 92.9984 78.7286C93.968 79.024 94.9332 79.32 95.9017 79.6165C97.0158 79.9567 98.1318 80.297 99.2484 80.6385C99.8262 80.8158 100.413 80.9564 101 81.105C102.119 81.39 103.239 81.6755 104.359 81.9605C105.332 82.2088 106.302 82.4768 107.292 82.6637C107.509 82.7068 107.727 82.7504 107.945 82.7936C108.352 83.2971 108.759 83.8034 109.166 84.3076C108.932 84.3211 108.698 84.332 108.466 84.3492C107.303 84.4355 106.14 84.5224 104.979 84.6103C103.52 84.7189 102.064 84.8281 100.607 84.9373C100.104 84.9764 99.603 85.0132 99.1028 85.0506C98.7574 85.0762 98.391 85.0831 98.051 85.1346C95.8083 85.4755 93.5654 85.8202 91.3228 86.1629C90.7008 86.2578 90.0854 86.3882 89.4676 86.5155C88.8488 86.6437 88.2334 86.7959 87.6218 86.9554C86.828 87.161 86.0608 87.4435 85.2885 87.7198C84.0759 88.1541 82.851 88.5942 81.7223 89.2176C80.7141 89.7737 80.2682 91.0155 80.8039 92.0621C81.3231 93.0714 82.6345 93.522 83.6493 92.9778C84.6974 92.4158 85.8217 92.0119 86.9401 91.6098C89.1994 90.8356 91.5338 90.4249 93.8857 90.0598C95.5534 89.7979 97.2178 89.5353 98.8832 89.2772C100.855 89.125 102.827 88.9694 104.798 88.8142C105.961 88.7265 107.123 88.6354 108.286 88.5429C109.667 88.4358 111.053 88.4066 112.438 88.3717C112.716 88.7193 112.996 89.0654 113.274 89.4125C113.656 89.8872 114.401 89.974 114.921 89.7055C115.249 89.5384 115.502 89.2389 115.609 88.886C115.706 88.5718 115.704 88.1342 115.52 87.8489Z" fill="#00CC83"/>
</svg>
