<?xml version="1.0" encoding="UTF-8"?>
<!DOCTYPE svg PUBLIC "-//W3C//DTD SVG 1.1//EN" "http://www.w3.org/Graphics/SVG/1.1/DTD/svg11.dtd">
<!-- Creator: CorelDRAW 2021 (64 Bit) -->
<svg xmlns="http://www.w3.org/2000/svg" xml:space="preserve" width="50px" height="50px" version="1.1" style="shape-rendering:geometricPrecision; text-rendering:geometricPrecision; image-rendering:optimizeQuality; fill-rule:evenodd; clip-rule:evenodd"
viewBox="0 0 1.36 1.36"
 xmlns:xlink="http://www.w3.org/1999/xlink"
 xmlns:xodm="http://www.corel.com/coreldraw/odm/2003">
 <defs>
  <style type="text/css">
   <![CDATA[
    .fil0 {fill:#FEFEFE}
   ]]>
  </style>
 </defs>
 <g id="Camada_x0020_1">
  <metadata id="CorelCorpID_0Corel-Layer"/>
  <path class="fil0" d="M0.69 1.22c-0.11,0 -0.22,-0.03 -0.31,-0.09l-0.21 0.07 0.07 -0.21c-0.07,-0.09 -0.11,-0.21 -0.11,-0.33 0,-0.02 0,-0.03 0,-0.05 0.03,-0.28 0.27,-0.51 0.56,-0.51 0.3,0 0.54,0.23 0.56,0.52 0.01,0.01 0.01,0.03 0.01,0.04 0,0.31 -0.26,0.56 -0.57,0.56l0 0zm0.31 -0.42c-0.02,-0.01 -0.1,-0.05 -0.11,-0.06 -0.02,0 -0.03,-0.01 -0.04,0.01 -0.01,0.02 -0.04,0.05 -0.05,0.06 -0.01,0.02 -0.02,0.02 -0.04,0.01 -0.01,-0.01 -0.07,-0.03 -0.13,-0.08 -0.05,-0.05 -0.08,-0.1 -0.09,-0.11 -0.01,-0.02 0,-0.03 0.01,-0.04 0.01,0 0.01,-0.02 0.02,-0.03 0,0 0.01,0 0.01,0 0,-0.01 0,-0.02 0.01,-0.02 0,-0.01 0,-0.02 0,-0.03 -0.01,-0.01 -0.04,-0.09 -0.05,-0.12 -0.02,-0.03 -0.03,-0.03 -0.04,-0.03 -0.01,0 -0.02,0 -0.03,0 -0.01,0 -0.03,0 -0.04,0.02 -0.02,0.02 -0.06,0.05 -0.06,0.14 0,0.01 0,0.03 0.01,0.05 0.01,0.06 0.05,0.11 0.05,0.11 0.01,0.01 0.12,0.18 0.28,0.25 0.17,0.06 0.17,0.04 0.2,0.04 0.03,0 0.1,-0.04 0.11,-0.08 0.02,-0.04 0.02,-0.07 0.01,-0.08 0,0 -0.01,-0.01 -0.03,-0.01l0 0zm0.36 -0.15c-0.01,-0.36 -0.3,-0.65 -0.67,-0.65 -0.36,0 -0.65,0.28 -0.66,0.63 0,0.01 0,0.02 0,0.03 0,0.13 0.03,0.24 0.09,0.35l-0.12 0.35 0.37 -0.12c0.1,0.06 0.21,0.09 0.32,0.09 0.37,0 0.67,-0.3 0.67,-0.67 0,0 0,-0.01 0,-0.01l0 0z"/>
 </g>
</svg>
