<?xml version="1.0" encoding="UTF-8"?>
<!DOCTYPE svg PUBLIC "-//W3C//DTD SVG 1.1//EN" "http://www.w3.org/Graphics/SVG/1.1/DTD/svg11.dtd">
<!-- Creator: CorelDRAW 2021 (64 Bit) -->
<svg xmlns="http://www.w3.org/2000/svg" xml:space="preserve" width="30px" height="26px" version="1.1" style="shape-rendering:geometricPrecision; text-rendering:geometricPrecision; image-rendering:optimizeQuality; fill-rule:evenodd; clip-rule:evenodd"
viewBox="0 0 12.68 10.93"
 xmlns:xlink="http://www.w3.org/1999/xlink"
 xmlns:xodm="http://www.corel.com/coreldraw/odm/2003">
 <defs>
  <style type="text/css">
   <![CDATA[
    .fil0 {fill:#6D41A1}
   ]]>
  </style>
 </defs>
 <g id="Camada_x0020_1">
  <metadata id="CorelCorpID_0Corel-Layer"/>
  <g id="_2254702009232">
   <path class="fil0" d="M7.18 5.47l3.26 0c0.08,0.82 -0.41,1.76 -0.95,2.3 -0.26,0.26 -0.54,0.47 -0.96,0.67 -0.52,0.23 -0.76,0.19 -1.33,0.29l0 2.18c0.38,0.1 1.39,-0.15 1.74,-0.26 1.39,-0.46 2.61,-1.53 3.23,-2.93 0.56,-1.24 0.49,-2.15 0.49,-3.6 0,-1.35 0.04,-2.78 -0.01,-4.12l-5.47 0 0 5.47z"/>
   <path class="fil0" d="M3.16 6.3c-0.18,0.65 -0.58,1.29 -1.09,1.69 -0.65,0.49 -1.04,0.64 -2.05,0.74l0 2.19c0.61,0.07 1.61,-0.2 2.1,-0.4 0.62,-0.27 1.15,-0.63 1.56,-0.99 0.85,-0.77 1.65,-2.11 1.74,-3.31l0.05 -0.82 0 -5.4 -5.47 0 0 5.47 3.11 0 0.14 0.01c0.04,0.28 -0.05,0.56 -0.09,0.82z"/>
  </g>
 </g>
</svg>
