<?xml version="1.0" encoding="UTF-8"?>
<!DOCTYPE svg PUBLIC "-//W3C//DTD SVG 1.1//EN" "http://www.w3.org/Graphics/SVG/1.1/DTD/svg11.dtd">
<!-- Creator: CorelDRAW 2021 (64 Bit) -->
<svg xmlns="http://www.w3.org/2000/svg" xml:space="preserve" width="30px" height="26px" version="1.1" style="shape-rendering:geometricPrecision; text-rendering:geometricPrecision; image-rendering:optimizeQuality; fill-rule:evenodd; clip-rule:evenodd"
viewBox="0 0 12.68 10.93"
 xmlns:xlink="http://www.w3.org/1999/xlink"
 xmlns:xodm="http://www.corel.com/coreldraw/odm/2003">
 <defs>
  <style type="text/css">
   <![CDATA[
    .fil0 {fill:#41B97F}
   ]]>
  </style>
 </defs>
 <g id="Camada_x0020_1">
  <metadata id="CorelCorpID_0Corel-Layer"/>
  <g id="_2255034945264">
   <path class="fil0" d="M5.49 5.46l-3.25 0c-0.08,-0.81 0.4,-1.75 0.95,-2.29 0.26,-0.27 0.53,-0.48 0.95,-0.67 0.53,-0.24 0.76,-0.2 1.33,-0.3l0.01 -2.18c-0.39,-0.09 -1.39,0.15 -1.74,0.26 -1.39,0.46 -2.62,1.54 -3.24,2.93 -0.55,1.25 -0.48,2.15 -0.48,3.61 0,1.35 -0.04,2.77 0,4.11l5.47 0 0 -5.47z"/>
   <path class="fil0" d="M9.52 4.64c0.18,-0.65 0.57,-1.3 1.08,-1.69 0.65,-0.5 1.05,-0.65 2.06,-0.74l0 -2.2c-0.61,-0.07 -1.61,0.2 -2.1,0.41 -0.62,0.26 -1.16,0.62 -1.56,0.99 -0.86,0.76 -1.65,2.1 -1.74,3.31l-0.06 0.81 0 5.4 5.47 0 0.01 -5.47 -3.11 0 -0.14 0c-0.04,-0.28 0.04,-0.57 0.09,-0.82z"/>
  </g>
 </g>
</svg>
