<?xml version="1.0" encoding="UTF-8"?>
<!DOCTYPE svg PUBLIC "-//W3C//DTD SVG 1.1//EN" "http://www.w3.org/Graphics/SVG/1.1/DTD/svg11.dtd">
<!-- Creator: CorelDRAW 2021 (64 Bit) -->
<svg xmlns="http://www.w3.org/2000/svg" xml:space="preserve" width="11px" height="10px" version="1.1" style="shape-rendering:geometricPrecision; text-rendering:geometricPrecision; image-rendering:optimizeQuality; fill-rule:evenodd; clip-rule:evenodd"
viewBox="0 0 0.69 0.66"
 xmlns:xlink="http://www.w3.org/1999/xlink"
 xmlns:xodm="http://www.corel.com/coreldraw/odm/2003">
 <defs>
  <style type="text/css">
   <![CDATA[
    .fil0 {fill:#EFCE4A}
   ]]>
  </style>
 </defs>
 <g id="Camada_x0020_1">
  <metadata id="CorelCorpID_0Corel-Layer"/>
  <path class="fil0" d="M0.24 0.22c-0.03,0 -0.23,0.03 -0.24,0.03l0.04 0.04c0.01,0.01 0.01,0.01 0.02,0.02l0.11 0.1c0,0.01 0,0.01 0,0.02 -0.01,0.05 -0.02,0.11 -0.03,0.16 0,0.02 -0.01,0.05 -0.01,0.07 0.02,-0.01 0.04,-0.02 0.06,-0.03 0.02,-0.01 0.15,-0.08 0.16,-0.08 0,0 0.09,0.05 0.1,0.05 0.03,0.02 0.09,0.05 0.11,0.06 0,-0.03 -0.02,-0.1 -0.02,-0.13 -0.01,-0.03 -0.01,-0.05 -0.01,-0.07 0,-0.01 -0.01,-0.02 -0.01,-0.03 0,-0.01 0,-0.01 0.02,-0.02l0.02 -0.03c0.02,-0.02 0.04,-0.03 0.05,-0.05 0.02,-0.02 0.04,-0.04 0.05,-0.05 0.01,0 0.01,0 0.01,-0.01 0.01,0 0.02,-0.01 0.02,-0.02 0,0 -0.21,-0.03 -0.24,-0.03 0,-0.01 -0.01,-0.02 -0.01,-0.03 0,-0.01 -0.01,-0.02 -0.01,-0.03 -0.01,-0.02 -0.08,-0.15 -0.08,-0.16 -0.01,0.01 -0.05,0.09 -0.06,0.11l-0.04 0.08c0,0.01 -0.01,0.02 -0.01,0.03z"/>
 </g>
</svg>
