<?xml version="1.0" encoding="UTF-8"?>
<!DOCTYPE svg PUBLIC "-//W3C//DTD SVG 1.1//EN" "http://www.w3.org/Graphics/SVG/1.1/DTD/svg11.dtd">
<!-- Creator: CorelDRAW 2021 (64 Bit) -->
<svg xmlns="http://www.w3.org/2000/svg" xml:space="preserve" width="300px" height="314px" version="1.1" style="shape-rendering:geometricPrecision; text-rendering:geometricPrecision; image-rendering:optimizeQuality; fill-rule:evenodd; clip-rule:evenodd"
viewBox="0 0 127.96 133.9"
 xmlns:xlink="http://www.w3.org/1999/xlink"
 xmlns:xodm="http://www.corel.com/coreldraw/odm/2003">
 <defs>
  <style type="text/css">
   <![CDATA[
    .str14 {stroke:#FEFEFE;stroke-width:0.53;stroke-miterlimit:22.9256}
    .str21 {stroke:#E6E7E8;stroke-width:0.53;stroke-miterlimit:22.9256}
    .str12 {stroke:#6D41A1;stroke-width:0.53;stroke-miterlimit:22.9256}
    .str2 {stroke:#6D41A1;stroke-width:0.82;stroke-miterlimit:22.9256}
    .str4 {stroke:#6D41A1;stroke-width:0.05;stroke-miterlimit:22.9256}
    .str5 {stroke:#6D41A1;stroke-width:0.05;stroke-miterlimit:22.9256}
    .str6 {stroke:#6D41A1;stroke-width:0.05;stroke-miterlimit:22.9256}
    .str8 {stroke:#6D41A1;stroke-width:0.05;stroke-miterlimit:22.9256}
    .str10 {stroke:#6D41A1;stroke-width:0.05;stroke-miterlimit:22.9256}
    .str9 {stroke:#6D41A1;stroke-width:0.05;stroke-miterlimit:22.9256}
    .str1 {stroke:#6D41A1;stroke-width:0.38;stroke-miterlimit:22.9256}
    .str0 {stroke:#6D41A1;stroke-width:0.48;stroke-miterlimit:22.9256}
    .str3 {stroke:#6D41A1;stroke-width:0.48;stroke-miterlimit:22.9256}
    .str11 {stroke:#6D41A1;stroke-width:0.48;stroke-miterlimit:22.9256}
    .str13 {stroke:#6D41A1;stroke-width:0.48;stroke-miterlimit:22.9256}
    .str7 {stroke:#6D41A1;stroke-width:0.48;stroke-miterlimit:22.9256}
    .str16 {stroke:#6D41A1;stroke-width:0.6;stroke-linecap:round;stroke-linejoin:round;stroke-miterlimit:22.9256}
    .str18 {stroke:#6D41A1;stroke-width:0.6;stroke-linecap:round;stroke-linejoin:round;stroke-miterlimit:22.9256}
    .str20 {stroke:#6D41A1;stroke-width:0.6;stroke-linecap:round;stroke-linejoin:round;stroke-miterlimit:22.9256}
    .str15 {stroke:#6D41A1;stroke-width:0.6;stroke-linecap:round;stroke-linejoin:round;stroke-miterlimit:22.9256}
    .str19 {stroke:#6D41A1;stroke-width:0.6;stroke-linecap:round;stroke-linejoin:round;stroke-miterlimit:22.9256}
    .str17 {stroke:#6D41A1;stroke-width:0.6;stroke-linecap:round;stroke-linejoin:round;stroke-miterlimit:22.9256}
    .fil0 {fill:none}
    .fil7 {fill:#FEFEFE}
    .fil13 {fill:#E6E7E8}
    .fil11 {fill:#373435}
    .fil10 {fill:#537473}
    .fil12 {fill:#537473}
    .fil5 {fill:#9DD3AF}
    .fil4 {fill:#201E1E}
    .fil6 {fill:#00CC83}
    .fil9 {fill:#1A294A}
    .fil3 {fill:#6D41A1}
    .fil8 {fill:#FEFEFE}
    .fil17 {fill:#FEFEFE;fill-rule:nonzero}
    .fil14 {fill:#373435;fill-rule:nonzero}
    .fil15 {fill:#00CC83;fill-rule:nonzero}
    .fil16 {fill:#6D41A1;fill-rule:nonzero}
    .fil2 {fill:#C8C9CE;fill-opacity:0.450980}
    .fil1 {fill:#6D41A1;fill-opacity:0.501961}
   ]]>
  </style>
 </defs>
 <g id="Camada_x0020_1">
  <metadata id="CorelCorpID_0Corel-Layer"/>
  <g id="_2431852449248">
   <g>
    <path class="fil0 str0" d="M66.12 35.07l0.26 19.7c6.73,0.25 4.65,-0.32 15.02,0.68l4.46 -18.85c-5.9,-2.52 -12.56,-2.7 -19.74,-1.53z"/>
   </g>
   <path class="fil1" d="M58.3 34.87l-0.26 19.7c-6.73,0.25 -4.64,-0.32 -15.02,0.68l-4.46 -18.85c5.9,-2.52 12.66,-2.42 19.74,-1.53z"/>
   <g>
    <path class="fil0 str1" d="M58.3 34.87l-0.26 19.7c-6.73,0.25 -4.64,-0.32 -15.02,0.68l-4.46 -18.85c5.9,-2.52 12.66,-2.42 19.74,-1.53z"/>
   </g>
   <path class="fil2" d="M63.98 78.18c13.55,0 24.53,0.75 24.53,1.68 0,0.93 -10.98,1.68 -24.53,1.68 -13.55,0 -24.53,-0.75 -24.53,-1.68 0,-0.93 10.98,-1.68 24.53,-1.68z"/>
   <path class="fil1" d="M66.12 35.07l0.26 19.7c6.73,0.25 4.65,-0.32 15.02,0.68l4.46 -18.85c-5.9,-2.52 -12.56,-2.7 -19.74,-1.53z"/>
   <g>
    <polygon class="fil3" points="68.46,44.91 71.03,44.91 70.45,51.49 67.91,51.52 "/>
    <polygon class="fil3" points="74.33,42.52 76.97,42.6 75.56,51.28 73.18,51.39 "/>
    <polygon class="fil3" points="80.44,39.52 82.79,39.52 80.55,50.82 78.13,50.93 "/>
   </g>
   <path class="fil4" d="M75.12 65.93c-1.28,5 -5.83,8.63 -11.14,8.63 -5.44,0 -10.05,-3.8 -11.22,-8.95l-7.25 4.25 -0.07 -2c-0.01,-0.23 -0.02,-0.45 -0.02,-0.68 0,-10.25 8.31,-18.56 18.56,-18.56 10.25,0 18.56,8.31 18.56,18.56 0,0.35 -0.01,0.69 -0.03,1.04l-0.11 1.95 -7.28 -4.24z"/>
   <path class="fil5" d="M63.98 49.82c9.59,0 17.36,7.77 17.36,17.36 0,0.33 -0.01,0.65 -0.02,0.98l-7.07 -4.12c-0.5,5.23 -4.91,9.32 -10.27,9.32 -5.48,0 -9.97,-4.28 -10.29,-9.68l-7.06 4.14c-0.01,-0.21 -0.01,-0.43 -0.01,-0.64 0,-9.59 7.77,-17.36 17.36,-17.36z"/>
   <path class="fil6" d="M63.98 49.82c9.59,0 17.36,7.77 17.36,17.36 0,0.33 -0.01,0.65 -0.02,0.98l-7.07 -4.12c-0.5,5.17 -4.81,9.23 -10.1,9.32l0.27 -12.23 -12.44 -6.5c3.12,-2.98 7.34,-4.81 12,-4.81z"/>
   <g>
    <g id="_2431852465472">
     <rect class="fil7" x="58.8" y="53.07" width="11.96" height="14.97" rx="0.95" ry="0.95"/>
     <path class="fil4" d="M59.63 53.46c0.33,-0.13 7.97,-0.05 9.02,-0.05 0.76,0 1.56,-0.16 1.87,0.41 0.19,0.34 0.09,3.77 0.09,4.41 0,0.46 0.39,0.58 0.38,-0.12l0 -3.39c0,-0.82 -0.08,-1.3 -0.68,-1.58 -0.44,-0.2 -3.66,-0.1 -4.41,-0.1 -1.5,0 -3.01,0 -4.52,0 -1.93,0 -2.67,-0.28 -2.67,1.84l0 11.34c0,0.78 -0.05,1.4 0.5,1.77 0.47,0.31 1.42,0.2 2.05,0.2 0.38,0 0.76,0.01 1.13,0.01 0.44,-0.01 0.53,-0.39 -0.12,-0.38 -0.75,0.01 -1.51,0 -2.26,0 -0.87,0 -0.92,-0.5 -0.92,-1.32l0 -11.3c0,-0.85 -0.17,-1.45 0.54,-1.74z"/>
     <path class="fil8" d="M70.28 62.1c-0.27,-1.71 2.29,-2.02 2.52,-0.39 0.22,1.68 -2.27,2 -2.52,0.39zm-0.5 -2.26l-0.31 0.31 0.35 0.49 -0.4 0.9 -0.58 0.13 0 0.43 0.58 0.12 0.38 0.93 -0.32 0.49 0.29 0.32c0.56,-0.25 0.09,-0.54 1.42,0.04l0.12 0.6 0.45 0 0.1 -0.61c0.28,-0.1 0.51,-0.18 0.76,-0.3 0.3,-0.14 0.42,0.15 0.67,0.26l0.31 -0.31 -0.34 -0.48 0.4 -0.93 0.57 -0.11 0.01 -0.42 -0.59 -0.13 -0.37 -0.92 0.32 -0.51 -0.31 -0.3c-0.26,0.1 -0.36,0.41 -0.66,0.26 -0.89,-0.42 -0.7,-0.12 -0.87,-0.91l-0.45 0.01c-0.25,0.83 0.17,0.42 -0.63,0.78 -0.72,0.32 -0.34,0.11 -0.9,-0.14z"/>
     <path class="fil9" d="M69.78 59.84c0.56,0.25 0.18,0.46 0.9,0.14 0.8,-0.36 0.38,0.05 0.63,-0.78l0.45 -0.01c0.17,0.79 -0.02,0.49 0.87,0.91 0.3,0.15 0.4,-0.16 0.66,-0.26l0.31 0.3 -0.32 0.51 0.37 0.92 0.59 0.13 -0.01 0.42 -0.57 0.11 -0.4 0.93 0.34 0.48 -0.31 0.31c-0.25,-0.11 -0.37,-0.4 -0.67,-0.26 -0.25,0.12 -0.48,0.2 -0.76,0.3l-0.1 0.61 -0.45 0 -0.12 -0.6c-1.33,-0.58 -0.86,-0.29 -1.42,-0.04l-0.29 -0.32 0.32 -0.49 -0.38 -0.93 -0.58 -0.12 0 -0.43 0.58 -0.13 0.4 -0.9 -0.35 -0.49 0.31 -0.31zm-0.04 -0.44c-0.16,0.08 -0.75,0.6 -0.68,0.82 0.06,0.15 0.3,0.31 0.29,0.47 0,0.05 -0.16,0.41 -0.2,0.54l-0.68 0.16 0 1.02c0.02,0.06 0.57,0.13 0.67,0.14l0.24 0.57 -0.38 0.54c-0.02,0.07 0.65,0.65 0.74,0.74 0.54,-0.05 0.16,-0.6 1.15,-0.1 0.02,0.19 0.02,0.52 0.16,0.61l0 0.05c1.27,0.01 0.99,0.21 1.13,-0.66 1.07,-0.48 0.57,0.05 1.17,0.11 0.12,-0.12 0.7,-0.64 0.72,-0.75l-0.38 -0.5 0.25 -0.6 0.65 -0.13c0.05,-0.1 -0.01,-0.9 -0.01,-1.07l-0.66 -0.14 -0.21 -0.58c0.08,-0.11 0.35,-0.43 0.36,-0.55 -0.11,-0.11 -0.66,-0.7 -0.76,-0.73l-0.55 0.38 -0.57 -0.26 -0.16 -0.6c-0.14,-0.12 -0.86,-0.12 -0.99,0l-0.16 0.62 -0.58 0.23 -0.56 -0.33z"/>
     <path class="fil10" d="M65.76 66.87c0.1,1.22 2.04,1.08 1.91,-0.2 -0.11,-1.21 -2.02,-1.1 -1.91,0.2z"/>
     <path class="fil4" d="M60.38 59.4c-0.15,-1.34 1.87,-1.52 1.99,-0.23 0.13,1.34 -1.84,1.44 -1.99,0.23zm0.73 -1.46c-1.8,0.37 -1.21,3.07 0.57,2.68 1.7,-0.38 1.23,-3.05 -0.57,-2.68z"/>
     <path class="fil4" d="M61.1 54.7c1.3,-0.4 1.79,1.61 0.54,1.93 -1.26,0.32 -1.8,-1.53 -0.54,-1.93zm0.1 -0.39c-1.86,0.28 -1.38,3.02 0.42,2.71 1.73,-0.3 1.34,-2.98 -0.42,-2.71z"/>
     <path class="fil9" d="M65.76 66.87c-0.11,-1.3 1.8,-1.41 1.91,-0.2 0.13,1.28 -1.81,1.42 -1.91,0.2zm-0.36 0.08c0.2,1.68 2.87,1.44 2.64,-0.36 -0.21,-1.66 -2.86,-1.46 -2.64,0.36z"/>
     <path class="fil9" d="M71.29 61.03c1.15,-0.33 1.63,1.43 0.48,1.74 -1.19,0.32 -1.55,-1.44 -0.48,-1.74zm-1.01 1.07c0.25,1.61 2.74,1.29 2.52,-0.39 -0.23,-1.63 -2.79,-1.32 -2.52,0.39z"/>
     <path class="fil6" d="M71.29 61.03c-1.07,0.3 -0.71,2.06 0.48,1.74 1.15,-0.31 0.67,-2.07 -0.48,-1.74z"/>
     <path class="fil8" d="M61.26 55.92c0.16,-0.15 0.32,-0.32 0.48,-0.48 0.4,-0.4 0.5,-0.09 0.47,0.02 -0.02,0.08 -0.85,0.93 -0.95,0.93 0,0 -0.96,-0.64 -0.64,-0.88 0.22,-0.12 0.5,0.29 0.64,0.41zm-0.16 -1.22c-1.26,0.4 -0.72,2.25 0.54,1.93 1.25,-0.32 0.76,-2.33 -0.54,-1.93z"/>
     <path class="fil8" d="M61.26 59.53c0.39,-0.24 0.53,-0.71 0.9,-0.66 0.14,0.28 -0.09,0.41 -0.25,0.57 -0.62,0.63 -0.59,0.72 -1.02,0.29 -0.13,-0.14 -0.4,-0.32 -0.33,-0.54 0.25,-0.28 0.47,0.22 0.7,0.34zm-0.88 -0.13c0.15,1.21 2.12,1.11 1.99,-0.23 -0.12,-1.29 -2.14,-1.11 -1.99,0.23z"/>
     <path class="fil4" d="M63.11 55.34c0.29,0.11 3.84,0.05 4.45,0.05l1.25 -0.01c0.48,0 0.41,-0.32 0.15,-0.36l-5.32 -0.01c-0.35,0 -0.63,-0.08 -0.53,0.33z"/>
     <path class="fil4" d="M63.93 59l4.8 0c0.48,0 0.91,-0.37 -0.41,-0.37l-4.92 0c-0.34,0 -0.43,0.22 -0.22,0.34 0.12,0.06 0.58,0.03 0.75,0.03z"/>
     <path class="fil4" d="M60.17 63.55c0.53,0.94 1.93,0.96 2.43,-0.03 0.81,-1.6 -1.51,-2.46 -1.4,-1.78 0.04,0.24 0.87,0.05 1.13,0.83 0.43,1.29 -1.51,1.86 -1.9,0.65 -0.05,-0.14 -0.14,-0.8 -0.39,-0.44 -0.13,0.19 0.05,0.62 0.13,0.77z"/>
     <path class="fil4" d="M63.11 62.56c0.23,0.11 4.76,0.11 5.07,0l-0.02 -0.26c-0.25,-0.11 -4.75,-0.11 -5.06,-0.01l0.01 0.27z"/>
     <path class="fil4" d="M63.12 56.26c0.21,0.1 3.92,0.06 4.72,0.06 0.3,-0.01 0.38,-0.05 0.33,-0.33 -0.27,-0.11 -3.87,-0.05 -4.73,-0.05 -0.31,0 -0.41,0.02 -0.32,0.32z"/>
     <path class="fil4" d="M63.44 59.93l4.32 0c0.18,0 0.62,-0.04 0.39,-0.31 -0.12,-0.12 -0.6,-0.07 -0.79,-0.07 -0.41,0 -4.03,-0.02 -4.15,0.02 -0.23,0.08 -0.22,0.36 0.23,0.36z"/>
     <path class="fil6" d="M61.26 59.53c-0.23,-0.12 -0.45,-0.62 -0.7,-0.34 -0.07,0.22 0.2,0.4 0.33,0.54 0.43,0.43 0.4,0.34 1.02,-0.29 0.16,-0.16 0.39,-0.29 0.25,-0.57 -0.37,-0.05 -0.51,0.42 -0.9,0.66z"/>
     <path class="fil6" d="M61.26 55.92c-0.14,-0.12 -0.42,-0.53 -0.64,-0.41 -0.32,0.24 0.64,0.88 0.64,0.88 0.1,0 0.93,-0.85 0.95,-0.93 0.03,-0.11 -0.07,-0.42 -0.47,-0.02 -0.16,0.16 -0.32,0.33 -0.48,0.48z"/>
     <path class="fil4" d="M63.11 63.49c0.21,0.09 0.93,0.09 1.15,-0.01l-0.01 -0.25c-0.19,-0.1 -0.94,-0.1 -1.15,-0.01l0.01 0.27z"/>
    </g>
    <path class="fil8" d="M65.42 66.95c-0.22,-1.82 2.43,-2.02 2.64,-0.36 0.22,1.8 -2.44,2.04 -2.64,0.36zm0.73 2.45l1.18 -0.03 0.41 0.65 0.59 -0.22 -0.18 -0.8 0.85 -0.81 0.75 0.17 0.23 -0.6 -0.61 -0.38 -0.02 -1.22 0.64 -0.39 -0.22 -0.59 -0.79 0.18 -0.78 -0.84 0.13 -0.76 -0.6 -0.24 -0.4 0.62 -1.2 0.02 -0.39 -0.64 -0.6 0.22c0.19,0.97 0.33,0.55 -0.26,1.16 -0.61,0.62 -0.24,0.42 -1.16,0.28l-0.22 0.6 0.61 0.4 0.02 1.2 -0.66 0.37 0.27 0.6c0.99,-0.14 0.47,-0.35 1.13,0.29 0.68,0.65 0.38,0.21 0.28,1.15l0.59 0.22 0.41 -0.61z"/>
    <path class="fil9" d="M65.14 63.74l0.6 -0.22 0.39 0.64 1.2 -0.02 0.4 -0.62 0.6 0.24 -0.13 0.76 0.78 0.84 0.79 -0.18 0.22 0.59 -0.64 0.39 0.02 1.22 0.61 0.38 -0.23 0.6 -0.75 -0.17 -0.85 0.81 0.18 0.8 -0.59 0.22 -0.41 -0.65 -1.18 0.03 -0.41 0.61 -0.59 -0.22c0.1,-0.94 0.4,-0.5 -0.28,-1.15 -0.66,-0.64 -0.14,-0.43 -1.13,-0.29l-0.27 -0.6 0.66 -0.37 -0.02 -1.2 -0.61 -0.4 0.22 -0.6c0.92,0.14 0.55,0.34 1.16,-0.28 0.59,-0.61 0.45,-0.19 0.26,-1.16zm3.44 0.62c0.04,-0.4 0.34,-0.75 -0.04,-0.92 -0.21,-0.09 -0.75,-0.36 -0.98,-0.34l-0.43 0.66 -0.81 0 -0.39 -0.64c-0.3,-0.05 -1.14,0.41 -1.21,0.42l0.16 0.82 -0.57 0.57 -0.78 -0.18c-0.09,0.06 -0.44,0.99 -0.5,1.16 0.08,0.09 0.56,0.35 0.69,0.44l0.01 0.83 -0.71 0.46 0.48 1.13c0.1,0.04 0.67,-0.13 0.81,-0.17l0.58 0.61 -0.17 0.79c0.1,0.02 0.89,0.47 1.22,0.42l0.37 -0.64 0.83 -0.01 0.45 0.67c0.23,0 1.02,-0.33 1.15,-0.49l-0.15 -0.78 0.56 -0.56 0.81 0.14c0.11,-0.15 0.47,-0.92 0.44,-1.17l-0.65 -0.39 0 -0.84 0.65 -0.4c0.02,-0.23 -0.32,-1.04 -0.48,-1.19l-0.77 0.17 -0.57 -0.57z"/>
   </g>
   <g>
    <polyline class="fil0 str2" points="41.33,47.73 44.5,42.54 44.94,46.72 47.17,43.11 49.84,46.29 53.23,40.37 55.54,49.17 "/>
   </g>
   <g>
    <line class="fil0 str3" x1="97.62" y1="60.76" x2="101.19" y2= "42.78" />
   </g>
   <g>
    <g>
     <path class="fil0 str3" d="M90.49 53.38c1.08,-5.24 2.17,-10.47 3.26,-15.7 9.19,2.43 9.58,5.6 3.01,9.35l-3.65 19.26c6.02,-3.85 6.83,-8.04 -2.62,-12.91z"/>
    </g>
    <g>
     <path class="fil0 str4" d="M94.71 50.63c1.86,0.73 3.31,2.13 4.13,3.99l-0.15 0.75c-1.12,-1.81 -2.38,-3.4 -3.98,-4.17l0 -0.57z"/>
     <path id="_1" class="fil3" d="M94.71 50.63c1.86,0.73 3.31,2.13 4.13,3.99l-0.15 0.75c-1.12,-1.81 -2.38,-3.4 -3.98,-4.17l0 -0.57z"/>
    </g>
    <g>
     <path class="fil0 str5" d="M95.14 46.66c1.86,0.74 3.89,1.5 4.7,3.36l-0.15 0.76c-1.12,-1.82 -2.95,-2.78 -4.55,-3.54l0 -0.58z"/>
     <path id="_1_0" class="fil3" d="M95.14 46.66c1.86,0.74 3.89,1.5 4.7,3.36l-0.15 0.76c-1.12,-1.82 -2.95,-2.78 -4.55,-3.54l0 -0.58z"/>
    </g>
    <g>
     <path class="fil0 str6" d="M95.96 42.19c1.83,0.3 3.47,1.3 4.89,2.32l-0.14 0.72c-1.53,-1.16 -3.03,-2.09 -4.75,-2.25l0 -0.79z"/>
     <path id="_1_1" class="fil3" d="M95.96 42.19c1.83,0.3 3.47,1.3 4.89,2.32l-0.14 0.72c-1.53,-1.16 -3.03,-2.09 -4.75,-2.25l0 -0.79z"/>
    </g>
   </g>
   <path class="fil1" d="M90.49 53.38c1.08,-5.24 2.17,-10.47 3.26,-15.7 5.89,1.56 8.16,3.42 7.31,5.55l-3.44 17.29c0.04,2.03 -1.64,3.94 -4.51,5.77l1.9 -10.03 0 0c-1.11,-0.94 -2.61,-1.9 -4.52,-2.88z"/>
   <g>
    <line class="fil0 str7" x1="30.34" y1="60.76" x2="26.77" y2= "42.78" />
   </g>
   <g>
    <g>
     <path class="fil0 str7" d="M37.47 53.38c-1.08,-5.24 -2.17,-10.47 -3.26,-15.7 -9.19,2.43 -9.58,5.6 -3.01,9.35l3.65 19.26c-6.02,-3.85 -6.83,-8.04 2.62,-12.91z"/>
    </g>
    <g>
     <path class="fil0 str8" d="M33.25 50.63c-1.86,0.73 -3.31,2.13 -4.13,3.99l0.15 0.75c1.12,-1.81 2.38,-3.4 3.98,-4.17l0 -0.57z"/>
     <path id="_1_2" class="fil3" d="M33.25 50.63c-1.86,0.73 -3.31,2.13 -4.13,3.99l0.15 0.75c1.12,-1.81 2.38,-3.4 3.98,-4.17l0 -0.57z"/>
    </g>
    <g>
     <path class="fil0 str9" d="M32.82 46.66c-1.86,0.74 -3.89,1.5 -4.7,3.36l0.15 0.76c1.12,-1.82 2.95,-2.78 4.55,-3.54l0 -0.58z"/>
     <path id="_1_3" class="fil3" d="M32.82 46.66c-1.86,0.74 -3.89,1.5 -4.7,3.36l0.15 0.76c1.12,-1.82 2.95,-2.78 4.55,-3.54l0 -0.58z"/>
    </g>
    <g>
     <path class="fil0 str10" d="M32 42.19c-1.82,0.3 -3.47,1.3 -4.89,2.32l0.15 0.72c1.52,-1.16 3.02,-2.09 4.74,-2.25l0 -0.79z"/>
     <path id="_1_4" class="fil3" d="M32 42.19c-1.82,0.3 -3.47,1.3 -4.89,2.32l0.15 0.72c1.52,-1.16 3.02,-2.09 4.74,-2.25l0 -0.79z"/>
    </g>
   </g>
   <path class="fil1" d="M37.47 53.38c-1.08,-5.24 -2.17,-10.47 -3.26,-15.7 -5.89,1.56 -8.16,3.42 -7.31,5.55l3.44 17.29c-0.04,2.03 1.64,3.94 4.51,5.77l-1.9 -10.03 0 0c1.11,-0.94 2.61,-1.9 4.52,-2.88z"/>
   <g>
    <path class="fil0 str11" d="M66.81 70.42l0.28 -21.26c9.45,0.23 17.14,-0.6 23.33,-2.34l-3.84 20.51c-5.9,2.51 -12.59,3.34 -19.77,3.09z"/>
   </g>
   <g>
    <path class="fil3 str12" d="M86.29 53.61c-4.82,1.03 -9.7,1.53 -14.59,1.71 0,0.39 -0.01,0.83 -0.01,1.23 4.97,-0.26 9.84,-0.81 14.6,-1.71l0 -1.23z"/>
    <path class="fil3 str12" d="M85.42 58.82c-4.66,0.99 -9.29,1.51 -13.89,1.65 0,0.4 0,0.8 0,1.2 4.63,-0.21 9.26,-0.73 13.89,-1.66l0 -1.19z"/>
    <path class="fil3 str12" d="M84.75 63.44c-3.49,1.09 -7.66,1.91 -13.14,2l0 1.2c4.74,-0.16 9.11,-0.85 13.14,-2l0 -1.2z"/>
   </g>
   <path class="fil1" d="M66.81 70.42l0.28 -21.26c9.45,0.23 17.14,-0.6 23.33,-2.34l-3.84 20.51c-5.9,2.51 -12.59,3.34 -19.77,3.09z"/>
   <g>
    <path class="fil0 str13" d="M62.14 70.42l-0.28 -21.26c-9.44,0.23 -17.13,-0.6 -23.32,-2.34l3.84 20.51c5.9,2.51 12.58,3.34 19.76,3.09z"/>
   </g>
   <path class="fil1" d="M62.14 70.42l-0.28 -21.26c-9.44,0.23 -17.13,-0.6 -23.32,-2.34l3.84 20.51c5.9,2.51 12.58,3.34 19.76,3.09z"/>
   <path class="fil3" d="M54.36 58.64c0,2.27 -1.84,4.11 -4.12,4.11 -1.83,0 -3.38,-1.2 -3.91,-2.86l3.91 -1.25 -3.91 -1.26c0.53,-1.65 2.08,-2.85 3.91,-2.85 2.28,0 4.12,1.84 4.12,4.11z"/>
   <path class="fil11" d="M86.09 21.35c2.22,0.77 3.77,2.88 3.77,5.29l0 0.96c0,2.39 -1.53,4.5 -3.74,5.28 -1.45,6.52 -7.3,11.29 -14.06,11.29l-16.16 0c-6.76,0 -12.61,-4.77 -14.06,-11.29 -2.2,-0.78 -3.74,-2.89 -3.74,-5.28l0 -0.96c0,-2.41 1.55,-4.52 3.77,-5.29 1.49,-6.48 7.31,-11.18 14.03,-11.18l16.16 0c6.72,0 12.54,4.7 14.03,11.18z"/>
   <path class="fil5" d="M55.9 11.36l16.16 0c6.49,0 11.93,4.75 13.01,10.95 2.04,0.38 3.6,2.18 3.6,4.33l0 0.96c0,2.14 -1.55,3.93 -3.58,4.32 -1.04,6.25 -6.5,11.06 -13.03,11.06l-16.16 0c-6.53,0 -11.99,-4.81 -13.03,-11.06 -2.03,-0.39 -3.58,-2.18 -3.58,-4.32l0 -0.96c0,-2.15 1.56,-3.95 3.6,-4.33 1.08,-6.2 6.52,-10.95 13.01,-10.95z"/>
   <path class="fil6" d="M72.01 13.19c6.49,0 12,2.94 13.08,9.14 2.05,0.38 3.6,2.18 3.6,4.33l0 0.96c0,2.14 -1.54,3.93 -3.58,4.32 -1.03,6.25 -6.5,11.05 -13.03,11.05l-16.16 0c-6.53,0 -11.99,-4.8 -13.03,-11.05 -1.51,-7.4 4.92,-18.75 29.12,-18.75z"/>
   <path class="fil12" d="M83.22 17.83c0.93,1.24 1.59,2.73 1.9,4.48 2.04,0.38 3.6,2.18 3.6,4.32l0 0.96c0,2.14 -1.55,3.94 -3.58,4.33 -1.04,6.25 -6.5,11.05 -13.03,11.05l-2.63 0c8.87,-3.14 15.07,-10.3 15.07,-18.62 0,-2.28 -0.47,-4.47 -1.33,-6.52z"/>
   <path class="fil11" d="M57.9 18.22l12.16 0c4.93,0 8.96,4.02 8.96,8.95 0,4.93 -4.03,8.95 -8.96,8.95l-12.16 0c-4.93,0 -8.95,-4.02 -8.95,-8.95 0,-4.93 4.02,-8.95 8.95,-8.95z"/>
   <path class="fil7" d="M57.9 19.41l12.16 0c4.27,0 7.76,3.49 7.76,7.76l0 0c0,4.27 -3.49,7.76 -7.76,7.76l-12.16 0c-4.27,0 -7.76,-3.49 -7.76,-7.76l0 0c0,-4.27 3.49,-7.76 7.76,-7.76z"/>
   <path class="fil13" d="M73.91 20.32c2.39,1.33 4.01,3.88 4.01,6.79l0 0c0,4.27 -3.49,7.76 -7.76,7.76l-3.6 0c5.13,-1.08 8.93,-4.97 8.93,-9.6 0,-1.8 -0.58,-3.49 -1.58,-4.95z"/>
   <path class="fil4" d="M62.86 26.8c-0.06,-0.06 -0.13,-0.11 -0.19,-0.17 -0.09,0.34 -0.27,0.67 -0.54,0.93 -0.83,0.83 -2.17,0.83 -3,0 -0.36,-0.35 -0.56,-0.81 -0.61,-1.28 -0.24,0.14 -0.46,0.32 -0.67,0.52 -1.38,1.39 -1.38,3.63 0,5.01 1.38,1.38 3.62,1.38 5.01,0 1.38,-1.38 1.38,-3.62 0,-5.01z"/>
   <path class="fil4" d="M72.16 26.8c-0.06,-0.06 -0.12,-0.11 -0.19,-0.17 -0.09,0.34 -0.27,0.67 -0.54,0.93 -0.83,0.83 -2.17,0.83 -3,0 -0.36,-0.35 -0.56,-0.81 -0.61,-1.28 -0.23,0.14 -0.46,0.32 -0.67,0.52 -1.38,1.39 -1.38,3.63 0,5.01 1.39,1.38 3.63,1.38 5.01,0 1.38,-1.38 1.38,-3.62 0,-5.01z"/>
   <path class="fil7 str14" d="M67.97 38.12c-0.37,1.57 -2.23,2.76 -4.47,2.76 -2.23,0 -4.09,-1.19 -4.47,-2.76l8.94 0z"/>
   <g>
    <g>
     <path class="fil11" d="M63.98 3.85c1.37,0 2.48,1.11 2.48,2.48 0,1.37 -1.11,2.48 -2.48,2.48 -1.37,0 -2.48,-1.11 -2.48,-2.48 0,-1.37 1.11,-2.48 2.48,-2.48z"/>
    </g>
    <circle class="fil6" cx="63.98" cy="6.33" r="1.29"/>
    <polygon class="fil11" points="64.59,8.23 64.59,10.91 63.4,10.91 63.4,8.23 "/>
   </g>
   <g>
    <g>
     <line class="fil0 str15" x1="66.02" y1="3.42" x2="67.52" y2= "1.91" />
    </g>
    <g>
     <line class="fil0 str16" x1="61.9" y1="3.36" x2="60.46" y2= "1.91" />
    </g>
    <g>
     <line class="fil0 str17" x1="65.82" y1="0.3" x2="64.94" y2= "2.71" />
    </g>
    <g>
     <path class="fil0 str18" d="M62.13 0.44l0.83 2.26m1.02 -0.17l0 -2.23"/>
    </g>
    <g>
     <line class="fil0 str19" x1="66.71" y1="4.6" x2="68.59" y2= "3.97" />
    </g>
    <g>
     <polygon class="fil0 str20" points="61.16,4.56 59.37,3.97 "/>
     <polygon id="_1_5" class="fil7" points="61.16,4.56 59.37,3.97 "/>
    </g>
   </g>
  </g>
  <g>
   <rect class="fil0 str21" x="0.26" y="88.42" width="127.43" height="45.21"/>
   <path class="fil14" d="M16.91 113.37l-3.19 0 0 -11.43 3.19 0 0 11.43zm4.69 -6.37l0 6.37 -3.18 0 0 -11.43 3.18 0 0 1.28 0 0 0 3.73c0,0.01 0,0.03 0,0.05zm0.86 -4.5c0.73,-0.5 1.53,-0.75 2.39,-0.75 1.21,0 2.22,0.43 3.03,1.27 0.81,0.85 1.22,1.99 1.22,3.4l0 6.95 -3.18 0 0 -6.46c0,-1.75 -0.65,-2.63 -1.94,-2.63 -0.57,0 -1.08,0.19 -1.52,0.56l0 -2.34zm12.6 11.04c-1.35,0 -2.56,-0.58 -3.62,-1.72 -1.06,-1.15 -1.59,-2.57 -1.59,-4.27 0,-1.7 0.51,-3.09 1.55,-4.17 1.03,-1.09 2.24,-1.63 3.63,-1.63 0.99,0 1.84,0.25 2.57,0.74l0 2.76c-0.5,-0.55 -1.1,-0.82 -1.81,-0.82 -0.75,0 -1.39,0.31 -1.93,0.93 -0.54,0.62 -0.81,1.4 -0.81,2.32 0,0.92 0.28,1.67 0.83,2.26 0.55,0.59 1.2,0.88 1.94,0.88 0.73,0 1.36,-0.29 1.88,-0.88 0.51,-0.59 0.77,-1.35 0.77,-2.27 0,-0.14 -0.01,-0.27 -0.02,-0.39l0 -7.95 -0.02 0 0 -1.72 3.18 0 0 15.76 -3.18 0 0 -1.51c-0.89,1.12 -2.02,1.68 -3.37,1.68zm17.96 -1.83c-1.29,1.22 -2.8,1.83 -4.53,1.83 -1.74,0 -3.17,-0.54 -4.3,-1.61 -1.14,-1.06 -1.7,-2.5 -1.7,-4.3 0,-1.79 0.57,-3.22 1.73,-4.29 1.15,-1.06 2.51,-1.59 4.09,-1.59 1.57,0 2.9,0.48 4,1.42 1.1,0.95 1.65,2.25 1.65,3.91l0 1.7 -7.51 0 0 -2.27 4.28 0c-0.07,-0.68 -0.33,-1.21 -0.77,-1.57 -0.44,-0.37 -0.97,-0.56 -1.6,-0.56 -0.63,0 -1.21,0.2 -1.73,0.58 -0.53,0.38 -0.83,0.9 -0.92,1.55 -0.17,1.15 -0.12,2.1 -0.08,2.27 0.1,0.62 0.42,1.13 0.98,1.53 0.55,0.4 1.17,0.59 1.87,0.59 1.11,0 2.03,-0.37 2.76,-1.12l1.78 1.93zm6.08 -6.8l2.07 -2.96 0.01 -0.01 3.74 0 -3.93 5.59 4.08 5.84 -3.81 0 -2.23 -3.14 -2.16 3.14 -3.68 0 5.91 -8.46zm15.74 8.46l-3 0 0 -1.38c-0.82,1.03 -1.83,1.55 -3.04,1.55 -1.22,0 -2.23,-0.35 -3.05,-1.05 -0.82,-0.7 -1.23,-1.64 -1.23,-2.81 0,-1.16 0.42,-2.04 1.27,-2.62 0.85,-0.58 2.01,-0.87 3.48,-0.87l1.52 0 0 2.27 -1.16 0c-1.27,0 -1.91,0.4 -1.91,1.19 0,0.41 0.15,0.73 0.46,0.95 0.3,0.22 0.74,0.33 1.31,0.33 0.56,0 1.06,-0.18 1.49,-0.52 0.43,-0.35 0.65,-0.82 0.65,-1.4l0.01 -0.51 0.01 -2.37c0,-1.22 -0.64,-1.83 -1.93,-1.83 -0.55,0 -1.14,0.11 -1.75,0.33 -0.62,0.22 -1.14,0.49 -1.56,0.82l-1.43 -2.06c1.5,-1.09 3.22,-1.64 5.14,-1.64 1.39,0 2.52,0.35 3.4,1.04 0.88,0.7 1.32,1.79 1.32,3.29l0 7.29z"/>
   <circle class="fil6" cx="15.32" cy="99.16" r="1.87"/>
   <circle class="fil6" cx="77.57" cy="111.67" r="1.87"/>
   <polygon class="fil6" points="56.8,106.98 58.69,104.27 57.21,101.94 53.41,101.94 "/>
   <path class="fil15" d="M84.22 101.97c2.04,0 3.61,0.5 4.7,1.5 1.09,1 1.64,2.38 1.64,4.16 0,1.78 -0.54,3.19 -1.6,4.22 -1.06,1.04 -2.69,1.56 -4.87,1.56l-3.91 0 0 -11.44 4.04 0zm0.13 9.18c1.17,0 2.07,-0.3 2.7,-0.88 0.62,-0.59 0.94,-1.45 0.94,-2.57 0,-1.13 -0.32,-1.99 -0.94,-2.6 -0.63,-0.6 -1.59,-0.9 -2.89,-0.9l-1.42 0 0 6.95 1.61 0zm16.27 -3.53c0,-1.02 -0.33,-1.89 -0.98,-2.61 -0.66,-0.72 -1.46,-1.08 -2.41,-1.08 -0.96,0 -1.76,0.36 -2.42,1.08 -0.65,0.72 -0.98,1.59 -0.98,2.61 0,1.02 0.33,1.89 0.98,2.61 0.66,0.71 1.46,1.07 2.42,1.07 0.95,0 1.75,-0.36 2.41,-1.07 0.65,-0.72 0.98,-1.59 0.98,-2.61zm0.87 4.21c-1.16,1.13 -2.58,1.69 -4.27,1.69 -1.69,0 -3.12,-0.56 -4.27,-1.69 -1.16,-1.13 -1.74,-2.53 -1.74,-4.21 0,-1.68 0.58,-3.09 1.74,-4.22 1.15,-1.13 2.58,-1.69 4.27,-1.69 1.69,0 3.11,0.56 4.27,1.69 1.15,1.13 1.73,2.54 1.73,4.22 0,1.68 -0.58,3.08 -1.73,4.21zm8.25 -0.68c1.25,0 2.28,-0.5 3.07,-1.49l1.64 1.69c-1.3,1.46 -2.83,2.19 -4.59,2.19 -1.76,0 -3.21,-0.56 -4.35,-1.67 -1.14,-1.11 -1.71,-2.52 -1.71,-4.21 0,-1.7 0.58,-3.12 1.74,-4.25 1.16,-1.13 2.58,-1.7 4.26,-1.7 1.88,0 3.45,0.71 4.71,2.14l-1.58 1.8c-0.81,-1 -1.81,-1.5 -3.01,-1.5 -0.96,0 -1.78,0.31 -2.47,0.94 -0.68,0.62 -1.02,1.47 -1.02,2.53 0,1.07 0.32,1.92 0.97,2.56 0.64,0.65 1.42,0.97 2.34,0.97z"/>
   <path class="fil16" d="M12.95 124.62l-0.33 0 3.47 -9.69 0.41 0 3.46 9.69 -0.32 0 -3.33 -9.31 -0.03 0 -3.33 9.31zm1.09 -3.58l4.51 0 0 0.31 -4.51 0 0 -0.31z"/>
   <path id="_1_6" class="fil16" d="M21.91 124.62l0 -9.69 2.84 0c0.54,0 1.02,0.12 1.44,0.37 0.42,0.24 0.75,0.57 0.98,1 0.24,0.42 0.36,0.92 0.36,1.47 0,0.55 -0.12,1.03 -0.36,1.46 -0.23,0.42 -0.56,0.76 -0.98,1 -0.42,0.24 -0.9,0.36 -1.44,0.36l-2.69 0 0 -0.31 2.69 0c0.49,0 0.91,-0.1 1.29,-0.32 0.37,-0.21 0.66,-0.51 0.87,-0.88 0.21,-0.38 0.32,-0.82 0.32,-1.31 0,-0.49 -0.11,-0.93 -0.32,-1.32 -0.21,-0.38 -0.5,-0.68 -0.87,-0.89 -0.38,-0.22 -0.8,-0.32 -1.29,-0.32l-2.53 0 0 9.38 -0.31 0z"/>
   <polygon id="_2" class="fil16" points="30.29,114.93 30.29,124.62 29.99,124.62 29.99,114.93 "/>
   <path id="_3" class="fil16" d="M39.13 124.75c-0.51,0 -0.97,-0.11 -1.38,-0.34 -0.42,-0.23 -0.74,-0.54 -0.98,-0.92 -0.24,-0.39 -0.36,-0.82 -0.36,-1.29 0,-0.29 0.05,-0.57 0.16,-0.82 0.1,-0.25 0.28,-0.51 0.52,-0.78 0.24,-0.26 0.57,-0.55 0.98,-0.86l1.42 -1.06c0.46,-0.36 0.78,-0.68 0.98,-0.97 0.19,-0.28 0.29,-0.6 0.29,-0.94 0,-0.48 -0.16,-0.88 -0.46,-1.2 -0.31,-0.31 -0.69,-0.47 -1.15,-0.47 -0.32,0 -0.61,0.08 -0.88,0.24 -0.26,0.16 -0.47,0.38 -0.64,0.64 -0.16,0.27 -0.24,0.55 -0.24,0.86 0,0.21 0.04,0.42 0.13,0.61 0.1,0.2 0.24,0.43 0.43,0.69 0.18,0.25 0.43,0.56 0.72,0.94l4.39 5.54 -0.37 0 -4.24 -5.36c-0.3,-0.37 -0.55,-0.69 -0.75,-0.96 -0.2,-0.27 -0.35,-0.52 -0.46,-0.75 -0.1,-0.22 -0.16,-0.46 -0.16,-0.71 0,-0.36 0.1,-0.7 0.29,-1.01 0.19,-0.31 0.44,-0.56 0.75,-0.75 0.31,-0.19 0.66,-0.28 1.03,-0.28 0.36,0 0.69,0.08 0.98,0.26 0.29,0.16 0.52,0.4 0.68,0.69 0.17,0.3 0.25,0.64 0.25,1.02 0,0.39 -0.11,0.74 -0.32,1.08 -0.22,0.33 -0.57,0.69 -1.06,1.07l-1.42 1.06c-0.58,0.45 -0.98,0.83 -1.21,1.15 -0.23,0.32 -0.34,0.68 -0.34,1.07 0,0.41 0.1,0.79 0.32,1.13 0.21,0.33 0.5,0.6 0.87,0.81 0.37,0.2 0.77,0.3 1.23,0.31 0.47,-0.01 0.9,-0.1 1.28,-0.27 0.38,-0.16 0.7,-0.39 0.99,-0.69 0.28,-0.3 0.51,-0.65 0.7,-1.05 0.18,-0.41 0.31,-0.85 0.4,-1.34l0.3 0.04c-0.05,0.27 -0.11,0.54 -0.2,0.81 -0.08,0.26 -0.19,0.52 -0.31,0.76 -0.11,0.25 -0.24,0.46 -0.38,0.66 -0.03,0.05 -0.07,0.1 -0.11,0.15 -0.04,0.04 -0.08,0.09 -0.12,0.13 -0.32,0.34 -0.71,0.61 -1.16,0.81 -0.45,0.19 -0.92,0.29 -1.39,0.29z"/>
   <polygon id="_4" class="fil16" points="50.12,124.62 47.45,114.93 47.77,114.93 50.31,124.14 50.35,124.14 52.81,114.93 53.22,114.93 55.68,124.14 55.72,124.14 58.26,114.93 58.58,114.93 55.91,124.62 55.49,124.62 53.04,115.4 53,115.4 50.54,124.62 "/>
   <path id="_5" class="fil16" d="M62.28 124.77c-0.63,0 -1.18,-0.17 -1.66,-0.5 -0.47,-0.33 -0.84,-0.78 -1.1,-1.35 -0.27,-0.56 -0.39,-1.2 -0.39,-1.92 0,-0.71 0.13,-1.35 0.39,-1.92 0.26,-0.56 0.62,-1.01 1.08,-1.34 0.45,-0.33 0.96,-0.5 1.53,-0.5 0.43,0 0.82,0.09 1.18,0.27 0.36,0.18 0.67,0.43 0.94,0.75 0.27,0.32 0.48,0.68 0.63,1.1 0.15,0.41 0.22,0.85 0.22,1.32l0 0.31 -5.82 0 0 -0.31 5.52 0c0,-0.58 -0.12,-1.11 -0.36,-1.58 -0.24,-0.48 -0.56,-0.85 -0.96,-1.14 -0.41,-0.28 -0.86,-0.42 -1.35,-0.42 -0.5,0 -0.95,0.15 -1.35,0.45 -0.4,0.29 -0.73,0.7 -0.97,1.21 -0.24,0.51 -0.37,1.08 -0.38,1.73l0 0.04c0,0.63 0.11,1.21 0.33,1.74 0.22,0.54 0.55,0.96 0.97,1.28 0.43,0.32 0.95,0.48 1.55,0.48 0.45,0 0.83,-0.08 1.13,-0.24 0.31,-0.16 0.55,-0.34 0.73,-0.54 0.19,-0.21 0.33,-0.38 0.42,-0.53l0.24 0.17c-0.11,0.18 -0.27,0.39 -0.48,0.61 -0.22,0.23 -0.49,0.42 -0.83,0.58 -0.33,0.17 -0.73,0.25 -1.21,0.25z"/>
   <path id="_6" class="fil16" d="M67.47 124.62l0 -9.69 0.3 0 0 4.28 0.04 0c0.12,-0.41 0.31,-0.76 0.55,-1.05 0.23,-0.29 0.52,-0.52 0.84,-0.68 0.33,-0.16 0.68,-0.24 1.07,-0.24 0.56,0 1.06,0.17 1.48,0.5 0.42,0.33 0.74,0.78 0.97,1.34 0.23,0.57 0.35,1.21 0.35,1.92 0,0.72 -0.12,1.36 -0.35,1.93 -0.23,0.57 -0.55,1.02 -0.97,1.34 -0.41,0.33 -0.91,0.5 -1.48,0.5 -0.39,0 -0.75,-0.08 -1.07,-0.24 -0.32,-0.16 -0.6,-0.39 -0.84,-0.68 -0.24,-0.3 -0.42,-0.65 -0.55,-1.05l-0.04 0 0 1.82 -0.3 0zm0.3 -3.62c0,0.66 0.1,1.25 0.3,1.77 0.2,0.52 0.49,0.94 0.86,1.24 0.38,0.3 0.82,0.46 1.34,0.46 0.51,0 0.96,-0.16 1.33,-0.46 0.37,-0.3 0.66,-0.72 0.86,-1.24 0.2,-0.52 0.3,-1.11 0.3,-1.77 0,-0.65 -0.1,-1.24 -0.3,-1.76 -0.2,-0.52 -0.49,-0.94 -0.87,-1.24 -0.37,-0.31 -0.81,-0.46 -1.32,-0.46 -0.51,0 -0.96,0.15 -1.33,0.46 -0.37,0.3 -0.66,0.72 -0.86,1.24 -0.21,0.52 -0.31,1.11 -0.31,1.76z"/>
   <rect class="fil3" x="74.84" y="116.34" width="39.68" height="8.43" rx="40.82" ry="40.82"/>
   <path class="fil17" d="M79.44 123.34l0 -5.41 1.59 0c0.3,0 0.57,0.06 0.8,0.2 0.24,0.14 0.42,0.32 0.55,0.56 0.13,0.24 0.2,0.51 0.2,0.82 0,0.31 -0.07,0.58 -0.2,0.82 -0.13,0.24 -0.31,0.42 -0.55,0.56 -0.23,0.13 -0.5,0.2 -0.8,0.2l-1.51 0 0 -0.17 1.51 0c0.27,0 0.51,-0.06 0.72,-0.18 0.2,-0.12 0.37,-0.28 0.49,-0.5 0.11,-0.21 0.17,-0.45 0.17,-0.73 0,-0.27 -0.06,-0.52 -0.17,-0.73 -0.12,-0.21 -0.29,-0.38 -0.49,-0.5 -0.21,-0.12 -0.45,-0.18 -0.72,-0.18l-1.42 0 0 5.24 -0.17 0z"/>
   <polygon id="_1_7" class="fil17" points="84,117.93 84,123.34 83.83,123.34 83.83,117.93 "/>
   <path id="_2_8" class="fil17" d="M86.45 123.43c-0.22,0 -0.42,-0.05 -0.61,-0.14 -0.19,-0.09 -0.34,-0.22 -0.45,-0.4 -0.12,-0.18 -0.17,-0.39 -0.17,-0.65 0,-0.13 0.02,-0.26 0.06,-0.38 0.05,-0.12 0.12,-0.23 0.23,-0.33 0.12,-0.1 0.27,-0.19 0.47,-0.26 0.2,-0.07 0.46,-0.12 0.77,-0.16 0.19,-0.02 0.36,-0.04 0.53,-0.07 0.16,-0.03 0.3,-0.07 0.4,-0.13 0.11,-0.06 0.16,-0.14 0.16,-0.24l0 -0.25c0,-0.31 -0.11,-0.56 -0.31,-0.75 -0.21,-0.19 -0.5,-0.28 -0.84,-0.28 -0.29,0 -0.54,0.06 -0.75,0.19 -0.22,0.12 -0.37,0.3 -0.45,0.53l-0.16 -0.07c0.06,-0.17 0.16,-0.31 0.3,-0.44 0.13,-0.12 0.28,-0.22 0.47,-0.28 0.18,-0.07 0.37,-0.1 0.59,-0.1 0.2,0 0.39,0.03 0.55,0.09 0.16,0.06 0.3,0.14 0.42,0.25 0.11,0.11 0.2,0.24 0.26,0.38 0.06,0.15 0.09,0.31 0.09,0.48l0 2.92 -0.17 0 0 -0.82 -0.02 0c-0.09,0.18 -0.2,0.34 -0.33,0.48 -0.14,0.14 -0.29,0.24 -0.47,0.32 -0.17,0.07 -0.36,0.11 -0.57,0.11zm0 -0.17c0.26,0 0.49,-0.07 0.7,-0.21 0.21,-0.14 0.38,-0.33 0.5,-0.58 0.13,-0.25 0.19,-0.53 0.19,-0.86l0 -0.61c-0.05,0.03 -0.11,0.06 -0.18,0.09 -0.07,0.03 -0.15,0.06 -0.23,0.08 -0.09,0.02 -0.19,0.04 -0.29,0.05 -0.1,0.02 -0.21,0.04 -0.33,0.05 -0.36,0.04 -0.65,0.11 -0.85,0.19 -0.21,0.09 -0.36,0.2 -0.45,0.33 -0.08,0.13 -0.13,0.28 -0.13,0.45 0,0.31 0.11,0.56 0.31,0.74 0.21,0.19 0.46,0.28 0.76,0.28z"/>
   <path id="_3_9" class="fil17" d="M90.74 119.28l0 0.17 -1.61 0 0 -0.17 1.61 0zm-1.02 -0.97l0.17 0 0 4.18c0,0.16 0.04,0.29 0.11,0.41 0.07,0.11 0.16,0.2 0.28,0.26 0.11,0.06 0.24,0.09 0.37,0.09 0.05,0 0.1,-0.01 0.14,-0.01 0.05,-0.01 0.09,-0.03 0.14,-0.04l0.05 0.16c-0.05,0.01 -0.1,0.03 -0.15,0.04 -0.06,0.01 -0.11,0.02 -0.18,0.02 -0.16,0 -0.32,-0.04 -0.46,-0.12 -0.14,-0.07 -0.25,-0.18 -0.34,-0.32 -0.08,-0.14 -0.13,-0.3 -0.13,-0.49l0 -4.18z"/>
   <path id="_4_10" class="fil17" d="M93.08 123.43c-0.23,0 -0.43,-0.05 -0.62,-0.14 -0.19,-0.09 -0.34,-0.22 -0.45,-0.4 -0.12,-0.18 -0.17,-0.39 -0.17,-0.65 0,-0.13 0.02,-0.26 0.06,-0.38 0.05,-0.12 0.13,-0.23 0.24,-0.33 0.11,-0.1 0.26,-0.19 0.46,-0.26 0.2,-0.07 0.46,-0.12 0.77,-0.16 0.19,-0.02 0.37,-0.04 0.53,-0.07 0.17,-0.03 0.3,-0.07 0.41,-0.13 0.1,-0.06 0.15,-0.14 0.15,-0.24l0 -0.25c0,-0.31 -0.1,-0.56 -0.31,-0.75 -0.21,-0.19 -0.49,-0.28 -0.84,-0.28 -0.29,0 -0.54,0.06 -0.75,0.19 -0.21,0.12 -0.36,0.3 -0.45,0.53l-0.16 -0.07c0.07,-0.17 0.17,-0.31 0.3,-0.44 0.13,-0.12 0.29,-0.22 0.47,-0.28 0.18,-0.07 0.38,-0.1 0.59,-0.1 0.2,0 0.39,0.03 0.55,0.09 0.17,0.06 0.31,0.14 0.42,0.25 0.12,0.11 0.2,0.24 0.26,0.38 0.06,0.15 0.09,0.31 0.09,0.48l0 2.92 -0.17 0 0 -0.82 -0.02 0c-0.08,0.18 -0.19,0.34 -0.33,0.48 -0.13,0.14 -0.29,0.24 -0.46,0.32 -0.18,0.07 -0.37,0.11 -0.57,0.11zm0 -0.17c0.25,0 0.49,-0.07 0.7,-0.21 0.21,-0.14 0.37,-0.33 0.5,-0.58 0.12,-0.25 0.18,-0.53 0.18,-0.86l0 -0.61c-0.05,0.03 -0.11,0.06 -0.18,0.09 -0.07,0.03 -0.14,0.06 -0.23,0.08 -0.09,0.02 -0.18,0.04 -0.29,0.05 -0.1,0.02 -0.21,0.04 -0.32,0.05 -0.37,0.04 -0.65,0.11 -0.86,0.19 -0.21,0.09 -0.36,0.2 -0.44,0.33 -0.09,0.13 -0.13,0.28 -0.13,0.45 0,0.31 0.1,0.56 0.31,0.74 0.2,0.19 0.45,0.28 0.76,0.28z"/>
   <path id="_5_11" class="fil17" d="M97.49 119.28l0 0.17 -1.61 0 0 -0.17 1.61 0zm-1.05 4.06l0 -4.73c0,-0.19 0.04,-0.35 0.13,-0.49 0.08,-0.14 0.2,-0.25 0.34,-0.32 0.14,-0.08 0.3,-0.12 0.46,-0.12 0.07,0 0.12,0.01 0.17,0.02 0.05,0.01 0.1,0.02 0.15,0.04l-0.05 0.16c-0.04,-0.01 -0.09,-0.03 -0.13,-0.03 -0.04,-0.01 -0.09,-0.02 -0.14,-0.02 -0.2,0 -0.38,0.07 -0.53,0.21 -0.15,0.13 -0.23,0.32 -0.23,0.55l-0.01 4.73 -0.16 0z"/>
   <path id="_6_12" class="fil17" d="M99.83 123.43c-0.32,0 -0.61,-0.09 -0.86,-0.28 -0.26,-0.18 -0.46,-0.43 -0.61,-0.75 -0.14,-0.32 -0.22,-0.68 -0.22,-1.08 0,-0.4 0.08,-0.76 0.22,-1.07 0.15,-0.32 0.35,-0.57 0.61,-0.76 0.25,-0.18 0.54,-0.27 0.86,-0.27 0.32,0 0.6,0.09 0.85,0.28 0.26,0.18 0.46,0.43 0.61,0.75 0.14,0.32 0.22,0.67 0.22,1.07 0,0.4 -0.08,0.76 -0.22,1.08 -0.15,0.32 -0.35,0.57 -0.6,0.75 -0.26,0.19 -0.54,0.28 -0.86,0.28zm0 -0.17c0.28,0 0.54,-0.08 0.77,-0.25 0.23,-0.17 0.41,-0.4 0.54,-0.7 0.13,-0.29 0.2,-0.62 0.2,-0.99 0,-0.36 -0.07,-0.69 -0.2,-0.99 -0.13,-0.29 -0.31,-0.52 -0.54,-0.69 -0.23,-0.17 -0.49,-0.25 -0.77,-0.25 -0.29,0 -0.55,0.08 -0.77,0.25 -0.23,0.17 -0.41,0.4 -0.55,0.69 -0.13,0.3 -0.2,0.63 -0.2,0.99 0,0.37 0.07,0.7 0.2,0.99 0.13,0.3 0.31,0.53 0.54,0.7 0.23,0.17 0.49,0.25 0.78,0.25z"/>
   <path id="_7" class="fil17" d="M102.7 123.34l0 -4.06 0.17 0 0 0.65 0.02 0c0.1,-0.21 0.26,-0.38 0.47,-0.51 0.22,-0.13 0.47,-0.19 0.75,-0.19 0.02,0 0.04,0 0.04,0 0.01,0 0.02,0 0.04,0l0 0.17c-0.02,0 -0.03,0 -0.04,0 0,0 -0.02,0 -0.04,0 -0.24,0 -0.45,0.05 -0.64,0.15 -0.18,0.11 -0.33,0.25 -0.44,0.43 -0.1,0.19 -0.16,0.4 -0.16,0.63l0 2.73 -0.17 0z"/>
   <path id="_8" class="fil17" d="M105.13 123.34l0 -4.06 0.17 0 0 0.6 0.02 0c0.07,-0.19 0.2,-0.35 0.4,-0.47 0.19,-0.12 0.42,-0.18 0.69,-0.18 0.3,0 0.55,0.07 0.73,0.23 0.18,0.15 0.31,0.35 0.38,0.6l0.02 0c0.07,-0.25 0.2,-0.45 0.41,-0.6 0.2,-0.16 0.46,-0.23 0.76,-0.23 0.41,0 0.71,0.13 0.91,0.39 0.19,0.25 0.29,0.59 0.29,0.99l0 2.73 -0.17 0 0 -2.73c0,-0.36 -0.08,-0.65 -0.24,-0.87 -0.17,-0.23 -0.43,-0.34 -0.79,-0.34 -0.36,0 -0.63,0.11 -0.82,0.34 -0.19,0.23 -0.29,0.52 -0.29,0.87l0 2.73 -0.17 0 0 -2.73c0,-0.36 -0.08,-0.65 -0.24,-0.87 -0.16,-0.23 -0.42,-0.34 -0.78,-0.34 -0.24,0 -0.44,0.05 -0.61,0.15 -0.16,0.11 -0.29,0.25 -0.38,0.43 -0.08,0.19 -0.12,0.4 -0.12,0.63l0 2.73 -0.17 0z"/>
  </g>
 </g>
</svg>
