<?xml version="1.0" encoding="UTF-8"?>
<!DOCTYPE svg PUBLIC "-//W3C//DTD SVG 1.1//EN" "http://www.w3.org/Graphics/SVG/1.1/DTD/svg11.dtd">
<!-- Creator: CorelDRAW 2021 (64 Bit) -->
<svg xmlns="http://www.w3.org/2000/svg" xml:space="preserve" width="300px" height="309px" version="1.1" style="shape-rendering:geometricPrecision; text-rendering:geometricPrecision; image-rendering:optimizeQuality; fill-rule:evenodd; clip-rule:evenodd"
viewBox="0 0 127.96 131.93"
 xmlns:xlink="http://www.w3.org/1999/xlink"
 xmlns:xodm="http://www.corel.com/coreldraw/odm/2003">
 <defs>
  <style type="text/css">
   <![CDATA[
    .str0 {stroke:#FEFEFE;stroke-width:0.53;stroke-miterlimit:22.9256}
    .str8 {stroke:#E6E7E8;stroke-width:0.53;stroke-miterlimit:22.9256}
    .str7 {stroke:#201E1E;stroke-width:0.73;stroke-linecap:round;stroke-linejoin:round;stroke-miterlimit:22.9256}
    .str4 {stroke:#ED3237;stroke-width:0.58;stroke-linecap:round;stroke-linejoin:round;stroke-miterlimit:22.9256}
    .str5 {stroke:#ED3237;stroke-width:0.58;stroke-linecap:round;stroke-linejoin:round;stroke-miterlimit:22.9256}
    .str1 {stroke:#ED3237;stroke-width:0.58;stroke-linecap:round;stroke-linejoin:round;stroke-miterlimit:22.9256}
    .str3 {stroke:#ED3237;stroke-width:0.58;stroke-linecap:round;stroke-linejoin:round;stroke-miterlimit:22.9256}
    .str6 {stroke:#ED3237;stroke-width:0.58;stroke-linecap:round;stroke-linejoin:round;stroke-miterlimit:22.9256}
    .str2 {stroke:#ED3237;stroke-width:0.58;stroke-linecap:round;stroke-linejoin:round;stroke-miterlimit:22.9256}
    .fil8 {fill:none}
    .fil9 {fill:none;fill-rule:nonzero}
    .fil6 {fill:#FEFEFE}
    .fil7 {fill:#E6E7E8}
    .fil4 {fill:#373435}
    .fil2 {fill:#F7ADAF}
    .fil5 {fill:#ED3237}
    .fil1 {fill:#201E1E}
    .fil3 {fill:#00CC83}
    .fil15 {fill:#6D41A1}
    .fil0 {fill:#C8C9CE}
    .fil11 {fill:#FA0F00}
    .fil16 {fill:#FEFEFE;fill-rule:nonzero}
    .fil12 {fill:#373435;fill-rule:nonzero}
    .fil13 {fill:#00CC83;fill-rule:nonzero}
    .fil14 {fill:#6D41A1;fill-rule:nonzero}
    .fil10 {fill:white;fill-rule:nonzero}
   ]]>
  </style>
 </defs>
 <g id="Camada_x0020_1">
  <metadata id="CorelCorpID_0Corel-Layer"/>
  <g id="_2431770431200">
   <g>
    <ellipse class="fil0" cx="63.98" cy="77.93" rx="23.94" ry="1.64"/>
    <path class="fil1" d="M74.85 64.34c-1.25,4.88 -5.68,8.42 -10.87,8.42 -5.31,0 -9.81,-3.71 -10.95,-8.74l-7.07 4.15 -0.07 -1.95c-0.01,-0.22 -0.02,-0.44 -0.02,-0.66 0,-10.01 8.11,-18.11 18.11,-18.11 10,0 18.11,8.1 18.11,18.11 0,0.33 -0.01,0.67 -0.03,1.01l-0.11 1.9 -7.1 -4.13z"/>
    <path class="fil2" d="M63.98 48.61c9.36,0 16.94,7.59 16.94,16.95 0,0.32 -0.01,0.63 -0.02,0.95l-6.9 -4.02c-0.49,5.11 -4.79,9.1 -10.02,9.1 -5.35,0 -9.73,-4.18 -10.04,-9.45l-6.89 4.04c-0.01,-0.21 -0.01,-0.42 -0.01,-0.62 0,-9.36 7.58,-16.95 16.94,-16.95z"/>
    <path class="fil3" d="M63.98 48.61c9.36,0 16.94,7.59 16.94,16.95 0,0.32 -0.01,0.63 -0.02,0.95l-6.9 -4.02c-0.48,5.05 -4.69,9.01 -9.85,9.1l0.26 -11.93 -12.14 -6.35c3.04,-2.91 7.17,-4.7 11.71,-4.7z"/>
    <path class="fil4" d="M85.56 20.83c2.17,0.75 3.68,2.81 3.68,5.16l0 0.94c0,2.34 -1.5,4.39 -3.65,5.15 -1.42,6.37 -7.13,11.02 -13.73,11.02l-15.76 0c-6.6,0 -12.31,-4.65 -13.72,-11.02 -2.16,-0.76 -3.66,-2.81 -3.66,-5.15l0 -0.94c0,-2.35 1.52,-4.41 3.68,-5.16 1.46,-6.32 7.14,-10.91 13.7,-10.91l15.76 0c6.56,0 12.25,4.59 13.7,10.91z"/>
    <path class="fil2" d="M56.1 11.09l15.76 0c6.34,0 11.65,4.63 12.7,10.68 1.99,0.37 3.51,2.13 3.51,4.22l0 0.94c0,2.09 -1.51,3.84 -3.49,4.22 -1.01,6.1 -6.34,10.79 -12.72,10.79l-15.76 0c-6.38,0 -11.71,-4.69 -12.72,-10.79 -1.98,-0.38 -3.49,-2.13 -3.49,-4.22l0 -0.94c0,-2.09 1.52,-3.85 3.51,-4.22 1.05,-6.05 6.36,-10.68 12.7,-10.68z"/>
    <path class="fil3" d="M71.81 12.87c6.34,0 11.72,2.87 12.77,8.92 2,0.37 3.52,2.13 3.52,4.22l0 0.94c0,2.09 -1.51,3.84 -3.5,4.22 -1.01,6.1 -6.34,10.79 -12.71,10.79l-15.77 0c-6.37,0 -11.7,-4.69 -12.72,-10.79 -1.47,-7.22 4.8,-18.3 28.41,-18.3z"/>
    <path class="fil5" d="M82.76 17.4c0.91,1.2 1.55,2.66 1.85,4.37 1.99,0.37 3.51,2.12 3.51,4.22l0 0.93c0,2.09 -1.51,3.85 -3.49,4.23 -1.01,6.09 -6.35,10.78 -12.72,10.78l-2.56 0c8.65,-3.07 14.7,-10.05 14.7,-18.17 0,-2.22 -0.46,-4.36 -1.29,-6.36z"/>
    <path class="fil4" d="M58.05 17.78l11.87 0c4.8,0 8.73,3.93 8.73,8.73 0,4.81 -3.93,8.74 -8.73,8.74l-11.87 0c-4.81,0 -8.74,-3.93 -8.74,-8.74 0,-4.8 3.93,-8.73 8.74,-8.73z"/>
    <path class="fil6" d="M58.05 18.94l11.87 0c4.16,0 7.57,3.41 7.57,7.57l0 0c0,4.17 -3.41,7.58 -7.57,7.58l-11.87 0c-4.17,0 -7.58,-3.41 -7.58,-7.58l0 0c0,-4.16 3.41,-7.57 7.58,-7.57z"/>
    <path class="fil7" d="M73.67 19.83c2.33,1.3 3.92,3.78 3.92,6.63l0 0c0,4.16 -3.41,7.57 -7.58,7.57l-3.51 0c5,-1.06 8.71,-4.85 8.71,-9.37 0,-1.76 -0.56,-3.41 -1.54,-4.83z"/>
    <path class="fil1" d="M62.88 26.16c-0.06,-0.06 -0.12,-0.12 -0.18,-0.17 -0.09,0.33 -0.27,0.65 -0.53,0.91 -0.81,0.81 -2.12,0.81 -2.92,0 -0.35,-0.35 -0.55,-0.8 -0.6,-1.26 -0.23,0.14 -0.45,0.32 -0.65,0.52 -1.35,1.34 -1.35,3.53 0,4.88 1.35,1.35 3.53,1.35 4.88,0 1.35,-1.35 1.35,-3.54 0,-4.88z"/>
    <path class="fil6 str0" d="M67.88 37.2c-0.37,1.53 -2.18,2.69 -4.37,2.69 -2.18,0 -3.99,-1.16 -4.36,-2.69l8.73 0z"/>
    <g>
     <path class="fil4" d="M63.98 3.75c1.34,0 2.42,1.09 2.42,2.43 0,1.34 -1.08,2.42 -2.42,2.42 -1.34,0 -2.42,-1.08 -2.42,-2.42 0,-1.34 1.08,-2.43 2.42,-2.43z"/>
    </g>
    <circle class="fil5" cx="63.98" cy="6.18" r="1.26"/>
    <polygon class="fil1" points="64.57,8.03 64.57,10.65 63.41,10.65 63.41,8.03 "/>
    <g>
     <g>
      <line class="fil8 str1" x1="65.97" y1="3.34" x2="67.44" y2= "1.86" />
     </g>
     <g>
      <line class="fil8 str2" x1="61.95" y1="3.28" x2="60.55" y2= "1.86" />
     </g>
     <g>
      <line class="fil8 str3" x1="65.77" y1="0.29" x2="64.92" y2= "2.65" />
     </g>
     <g>
      <path class="fil8 str4" d="M62.18 0.43l0.8 2.21m1 -0.17l0 -2.18"/>
     </g>
     <g>
      <line class="fil8 str5" x1="66.65" y1="4.48" x2="68.48" y2= "3.87" />
     </g>
     <g>
      <polygon class="fil8 str6" points="61.23,4.45 59.49,3.87 "/>
      <polygon id="_1" class="fil6" points="61.23,4.45 59.49,3.87 "/>
     </g>
    </g>
    <path class="fil1" d="M71.79 26.16c-0.06,-0.06 -0.12,-0.12 -0.18,-0.17 -0.09,0.33 -0.27,0.65 -0.53,0.91 -0.81,0.81 -2.12,0.81 -2.93,0 -0.35,-0.35 -0.55,-0.8 -0.59,-1.26 -0.23,0.14 -0.45,0.32 -0.65,0.52 -1.35,1.34 -1.35,3.53 0,4.88 1.35,1.35 3.53,1.35 4.88,0 1.35,-1.35 1.35,-3.54 0,-4.88z"/>
    <g>
     <path id="Path_101552" class="fil9 str7" d="M58.8 64.21l0 -10.38c0,0 0,0 0,0 0,-0.68 0.55,-1.22 1.22,-1.22l6 0c0.36,0 0.7,0.14 0.95,0.39l1.79 1.78c0.26,0.26 0.4,0.6 0.4,0.96 0,0 0,0 0,0l0 8.47c0,0.01 0,0.01 0,0.01 0,0.67 -0.54,1.22 -1.22,1.22l-7.92 0c-0.67,0 -1.22,-0.55 -1.22,-1.22 0,0 0,0 0,-0.01l0 0z" data-name="Group 156101"/>
     <path id="_1_0" class="fil10" d="M58.8 64.21l0 -10.38c0,0 0,0 0,0 0,-0.68 0.55,-1.22 1.22,-1.22l6 0c0.36,0 0.7,0.14 0.95,0.39l1.79 1.78c0.26,0.26 0.4,0.6 0.4,0.96 0,0 0,0 0,0l0 8.47c0,0.01 0,0.01 0,0.01 0,0.67 -0.54,1.22 -1.22,1.22l-7.92 0c-0.67,0 -1.22,-0.55 -1.22,-1.22 0,0 0,0 0,-0.01l0 0z"/>
    </g>
    <path class="fil11" d="M62.6 60.39c-0.37,0.59 -0.74,0.97 -0.96,0.97 -0.04,0 -0.07,-0.01 -0.09,-0.04 -0.05,-0.04 -0.06,-0.08 -0.05,-0.13 0.04,-0.21 0.46,-0.52 1.1,-0.8l0 0zm1.8 -0.84c-0.16,0.03 -0.33,0.07 -0.5,0.11 -0.12,0.03 -0.24,0.07 -0.36,0.11 0.06,-0.13 0.12,-0.26 0.17,-0.39 0.07,-0.16 0.14,-0.32 0.19,-0.48 0.06,0.08 0.11,0.16 0.17,0.23 0.11,0.15 0.22,0.29 0.34,0.42l-0.01 0zm-0.83 -2.81c0.03,-0.05 0.07,-0.08 0.13,-0.08 0.14,0 0.17,0.16 0.17,0.3 0,0.23 -0.07,0.58 -0.19,0.98 -0.24,-0.62 -0.2,-1.05 -0.11,-1.2l0 0zm2.66 3.22c-0.02,0.11 -0.14,0.18 -0.29,0.18 -0.04,0 -0.08,-0.01 -0.12,-0.02 -0.28,-0.06 -0.55,-0.2 -0.82,-0.4 0.25,-0.04 0.46,-0.05 0.6,-0.05 0.16,0 0.31,0.01 0.4,0.03 0.12,0.03 0.26,0.09 0.23,0.26l0 0zm0.4 -0.27c-0.18,-0.19 -0.52,-0.29 -1.01,-0.29 -0.24,0 -0.51,0.03 -0.81,0.07 -0.16,-0.15 -0.32,-0.33 -0.47,-0.53 -0.11,-0.15 -0.21,-0.3 -0.29,-0.45 0.17,-0.53 0.26,-0.97 0.26,-1.29 0,-0.39 -0.16,-0.82 -0.61,-0.82 -0.15,0 -0.3,0.09 -0.37,0.22 -0.19,0.32 -0.12,0.98 0.19,1.66 -0.11,0.31 -0.23,0.61 -0.37,0.94 -0.12,0.28 -0.26,0.57 -0.41,0.84 -0.45,0.18 -1.42,0.61 -1.52,1.1 -0.02,0.14 0.02,0.28 0.14,0.38 0.03,0.04 0.16,0.14 0.39,0.14 0.59,0 1.17,-0.79 1.56,-1.48 0.22,-0.07 0.45,-0.14 0.68,-0.2 0.25,-0.06 0.49,-0.11 0.71,-0.15 0.62,0.53 1.17,0.61 1.45,0.61 0.37,0 0.52,-0.16 0.57,-0.3 0.07,-0.18 0,-0.36 -0.09,-0.45l0 0z"/>
   </g>
   <g>
    <g>
     <path class="fil12" d="M16.91 111.4l-3.19 0 0 -11.43 3.19 0 0 11.43zm4.69 -6.37l0 6.37 -3.18 0 0 -11.43 3.18 0 0 1.28 0 0 0 3.73c0,0.01 0,0.03 0,0.05zm0.86 -4.5c0.73,-0.5 1.53,-0.75 2.39,-0.75 1.21,0 2.22,0.43 3.03,1.27 0.81,0.85 1.22,1.99 1.22,3.4l0 6.95 -3.18 0 0 -6.46c0,-1.75 -0.65,-2.63 -1.94,-2.63 -0.57,0 -1.08,0.19 -1.52,0.56l0 -2.34zm12.6 11.04c-1.35,0 -2.56,-0.58 -3.62,-1.72 -1.06,-1.15 -1.59,-2.57 -1.59,-4.27 0,-1.7 0.51,-3.09 1.55,-4.17 1.03,-1.09 2.24,-1.63 3.63,-1.63 0.99,0 1.84,0.25 2.57,0.74l0 2.76c-0.5,-0.55 -1.1,-0.82 -1.81,-0.82 -0.75,0 -1.39,0.31 -1.93,0.93 -0.54,0.62 -0.81,1.4 -0.81,2.32 0,0.92 0.28,1.67 0.83,2.26 0.55,0.59 1.2,0.88 1.94,0.88 0.73,0 1.36,-0.29 1.88,-0.88 0.51,-0.59 0.77,-1.35 0.77,-2.27 0,-0.14 -0.01,-0.27 -0.02,-0.39l0 -7.95 -0.02 0 0 -1.72 3.18 0 0 15.76 -3.18 0 0 -1.51c-0.89,1.12 -2.02,1.68 -3.37,1.68zm17.96 -1.83c-1.29,1.22 -2.8,1.83 -4.53,1.83 -1.74,0 -3.17,-0.54 -4.3,-1.61 -1.14,-1.06 -1.7,-2.5 -1.7,-4.3 0,-1.79 0.57,-3.22 1.73,-4.29 1.15,-1.06 2.51,-1.59 4.09,-1.59 1.57,0 2.9,0.48 4,1.42 1.1,0.95 1.65,2.25 1.65,3.91l0 1.7 -7.51 0 0 -2.27 4.28 0c-0.07,-0.68 -0.33,-1.21 -0.77,-1.57 -0.44,-0.37 -0.97,-0.56 -1.6,-0.56 -0.63,0 -1.21,0.2 -1.73,0.58 -0.53,0.38 -0.83,0.9 -0.92,1.55 -0.17,1.15 -0.12,2.1 -0.08,2.27 0.1,0.62 0.42,1.13 0.98,1.53 0.55,0.4 1.17,0.59 1.87,0.59 1.11,0 2.03,-0.37 2.76,-1.12l1.78 1.93zm6.08 -6.8l2.07 -2.96 0.01 -0.01 3.74 0 -3.93 5.59 4.08 5.84 -3.81 0 -2.23 -3.14 -2.16 3.14 -3.68 0 5.91 -8.46zm15.74 8.46l-3 0 0 -1.38c-0.82,1.03 -1.83,1.55 -3.04,1.55 -1.22,0 -2.23,-0.35 -3.05,-1.05 -0.82,-0.7 -1.23,-1.64 -1.23,-2.81 0,-1.16 0.42,-2.04 1.27,-2.62 0.85,-0.58 2.01,-0.87 3.48,-0.87l1.52 0 0 2.27 -1.16 0c-1.27,0 -1.91,0.4 -1.91,1.19 0,0.41 0.15,0.73 0.46,0.95 0.3,0.22 0.74,0.33 1.31,0.33 0.56,0 1.06,-0.18 1.49,-0.52 0.43,-0.35 0.65,-0.82 0.65,-1.4l0.01 -0.51 0.01 -2.37c0,-1.22 -0.64,-1.83 -1.93,-1.83 -0.55,0 -1.14,0.11 -1.75,0.33 -0.62,0.22 -1.14,0.49 -1.56,0.82l-1.43 -2.06c1.5,-1.09 3.22,-1.64 5.14,-1.64 1.39,0 2.52,0.35 3.4,1.04 0.88,0.7 1.32,1.79 1.32,3.29l0 7.29z"/>
     <circle class="fil3" cx="15.32" cy="97.19" r="1.87"/>
     <circle class="fil3" cx="77.57" cy="109.7" r="1.87"/>
     <polygon class="fil3" points="56.8,105.01 58.69,102.3 57.21,99.97 53.41,99.97 "/>
     <path class="fil13" d="M84.22 100c2.04,0 3.61,0.5 4.7,1.5 1.09,1 1.64,2.38 1.64,4.16 0,1.78 -0.54,3.19 -1.6,4.22 -1.06,1.04 -2.69,1.56 -4.87,1.56l-3.91 0 0 -11.44 4.04 0zm0.13 9.18c1.17,0 2.07,-0.3 2.7,-0.88 0.62,-0.59 0.94,-1.45 0.94,-2.57 0,-1.13 -0.32,-1.99 -0.94,-2.6 -0.63,-0.6 -1.59,-0.9 -2.89,-0.9l-1.42 0 0 6.95 1.61 0zm16.27 -3.53c0,-1.02 -0.33,-1.89 -0.98,-2.61 -0.66,-0.72 -1.46,-1.08 -2.41,-1.08 -0.96,0 -1.76,0.36 -2.42,1.08 -0.65,0.72 -0.98,1.59 -0.98,2.61 0,1.02 0.33,1.89 0.98,2.61 0.66,0.71 1.46,1.07 2.42,1.07 0.95,0 1.75,-0.36 2.41,-1.07 0.65,-0.72 0.98,-1.59 0.98,-2.61zm0.87 4.21c-1.16,1.13 -2.58,1.69 -4.27,1.69 -1.69,0 -3.12,-0.56 -4.27,-1.69 -1.16,-1.13 -1.74,-2.53 -1.74,-4.21 0,-1.68 0.58,-3.09 1.74,-4.22 1.15,-1.13 2.58,-1.69 4.27,-1.69 1.69,0 3.11,0.56 4.27,1.69 1.15,1.13 1.73,2.54 1.73,4.22 0,1.68 -0.58,3.08 -1.73,4.21zm8.25 -0.68c1.25,0 2.28,-0.5 3.07,-1.49l1.64 1.69c-1.3,1.46 -2.83,2.19 -4.59,2.19 -1.76,0 -3.21,-0.56 -4.35,-1.67 -1.14,-1.11 -1.71,-2.52 -1.71,-4.21 0,-1.7 0.58,-3.12 1.74,-4.25 1.16,-1.13 2.58,-1.7 4.26,-1.7 1.88,0 3.45,0.71 4.71,2.14l-1.58 1.8c-0.81,-1 -1.81,-1.5 -3.01,-1.5 -0.96,0 -1.78,0.31 -2.47,0.94 -0.68,0.62 -1.02,1.47 -1.02,2.53 0,1.07 0.32,1.92 0.97,2.56 0.64,0.65 1.42,0.97 2.34,0.97z"/>
     <g>
      <path class="fil14" d="M13.7 122.65l0 -9.69 2.84 0c0.54,0 1.02,0.12 1.44,0.37 0.42,0.24 0.75,0.57 0.98,1 0.24,0.42 0.36,0.92 0.36,1.47 0,0.55 -0.12,1.03 -0.36,1.46 -0.23,0.42 -0.56,0.76 -0.98,1 -0.42,0.24 -0.9,0.36 -1.44,0.36l-2.69 0 0 -0.31 2.69 0c0.49,0 0.91,-0.1 1.29,-0.32 0.37,-0.21 0.66,-0.51 0.87,-0.88 0.21,-0.38 0.32,-0.82 0.32,-1.31 0,-0.49 -0.11,-0.93 -0.32,-1.32 -0.21,-0.38 -0.5,-0.68 -0.87,-0.89 -0.38,-0.22 -0.8,-0.32 -1.29,-0.32l-2.54 0 0 9.38 -0.3 0z"/>
      <path id="_1_1" class="fil14" d="M24.32 122.65l-2.54 0 0 -9.69 2.78 0c0.89,0 1.66,0.19 2.29,0.58 0.64,0.38 1.13,0.93 1.46,1.65 0.34,0.71 0.51,1.57 0.51,2.58 -0.01,1.03 -0.19,1.91 -0.54,2.63 -0.35,0.73 -0.87,1.29 -1.54,1.67 -0.67,0.38 -1.48,0.58 -2.42,0.58zm-2.24 -0.3l2.24 0c0.89,0 1.65,-0.19 2.28,-0.55 0.63,-0.37 1.1,-0.89 1.43,-1.57 0.33,-0.69 0.49,-1.51 0.48,-2.46 0,-0.95 -0.15,-1.75 -0.47,-2.42 -0.31,-0.68 -0.75,-1.19 -1.34,-1.55 -0.59,-0.36 -1.3,-0.53 -2.14,-0.53l-2.48 0 0 9.08z"/>
      <polygon id="_2" class="fil14" points="31.3,122.65 31.3,112.96 36.5,112.96 36.5,113.27 31.6,113.27 31.6,117.65 36.04,117.65 36.04,117.96 31.6,117.96 31.6,122.65 "/>
      <path id="_3" class="fil14" d="M46.96 116.92l-0.3 0.07c-0.1,-0.31 -0.24,-0.58 -0.41,-0.79 -0.18,-0.21 -0.39,-0.36 -0.64,-0.47 -0.25,-0.11 -0.55,-0.16 -0.88,-0.16 -0.58,0 -1.05,0.15 -1.41,0.45 -0.36,0.29 -0.54,0.68 -0.54,1.16 0,0.38 0.12,0.7 0.36,0.96 0.25,0.26 0.62,0.45 1.11,0.57l1.14 0.29c0.53,0.13 0.94,0.35 1.21,0.67 0.28,0.31 0.42,0.7 0.42,1.14 0,0.4 -0.11,0.74 -0.31,1.04 -0.21,0.3 -0.49,0.54 -0.86,0.7 -0.36,0.17 -0.78,0.25 -1.26,0.25 -0.64,0 -1.17,-0.16 -1.58,-0.47 -0.41,-0.32 -0.68,-0.77 -0.8,-1.35l0.3 -0.07c0.11,0.51 0.34,0.91 0.69,1.18 0.35,0.27 0.82,0.41 1.39,0.41 0.64,0 1.15,-0.16 1.54,-0.47 0.39,-0.31 0.58,-0.71 0.58,-1.22 0,-0.37 -0.11,-0.69 -0.35,-0.95 -0.23,-0.26 -0.58,-0.44 -1.05,-0.56l-1.13 -0.28c-0.56,-0.14 -0.98,-0.37 -1.27,-0.69 -0.29,-0.31 -0.43,-0.7 -0.43,-1.15 0,-0.38 0.09,-0.71 0.28,-1 0.19,-0.28 0.46,-0.51 0.8,-0.67 0.33,-0.16 0.73,-0.24 1.17,-0.24 0.56,0 1.03,0.14 1.4,0.41 0.38,0.28 0.65,0.69 0.83,1.24z"/>
      <path id="_4" class="fil14" d="M51.9 122.8c-0.64,0 -1.19,-0.17 -1.67,-0.5 -0.47,-0.33 -0.84,-0.78 -1.1,-1.35 -0.26,-0.56 -0.39,-1.2 -0.39,-1.92 0,-0.71 0.13,-1.35 0.39,-1.92 0.27,-0.56 0.62,-1.01 1.08,-1.34 0.45,-0.33 0.97,-0.5 1.54,-0.5 0.42,0 0.81,0.09 1.17,0.27 0.36,0.18 0.67,0.43 0.94,0.75 0.27,0.32 0.48,0.68 0.63,1.1 0.15,0.41 0.23,0.85 0.23,1.32l0 0.31 -5.83 0 0 -0.31 5.52 0c0,-0.58 -0.12,-1.11 -0.36,-1.58 -0.24,-0.48 -0.56,-0.86 -0.96,-1.14 -0.41,-0.28 -0.85,-0.42 -1.34,-0.42 -0.5,0 -0.95,0.15 -1.36,0.45 -0.4,0.29 -0.72,0.7 -0.97,1.21 -0.24,0.51 -0.37,1.08 -0.38,1.73l0 0.04c0,0.63 0.11,1.21 0.33,1.74 0.23,0.54 0.55,0.96 0.98,1.28 0.42,0.32 0.94,0.48 1.55,0.48 0.45,0 0.82,-0.08 1.12,-0.24 0.31,-0.16 0.55,-0.34 0.74,-0.54 0.18,-0.21 0.32,-0.38 0.41,-0.53l0.24 0.17c-0.1,0.18 -0.26,0.39 -0.48,0.61 -0.22,0.23 -0.49,0.42 -0.82,0.58 -0.34,0.17 -0.74,0.25 -1.21,0.25z"/>
      <path id="_5" class="fil14" d="M58.67 122.8c-0.4,0 -0.76,-0.08 -1.1,-0.25 -0.34,-0.16 -0.61,-0.4 -0.81,-0.71 -0.2,-0.32 -0.3,-0.71 -0.3,-1.16 0,-0.25 0.03,-0.48 0.11,-0.69 0.08,-0.22 0.22,-0.41 0.42,-0.59 0.2,-0.18 0.48,-0.33 0.83,-0.45 0.36,-0.13 0.82,-0.23 1.38,-0.29 0.33,-0.04 0.65,-0.09 0.95,-0.14 0.29,-0.05 0.53,-0.12 0.72,-0.22 0.18,-0.1 0.28,-0.25 0.28,-0.44l0 -0.43c0,-0.56 -0.19,-1.01 -0.57,-1.35 -0.37,-0.34 -0.87,-0.51 -1.5,-0.51 -0.51,0 -0.95,0.11 -1.33,0.34 -0.39,0.23 -0.65,0.54 -0.8,0.95l-0.29 -0.11c0.12,-0.31 0.29,-0.57 0.53,-0.79 0.23,-0.22 0.52,-0.39 0.84,-0.51 0.32,-0.12 0.68,-0.18 1.05,-0.18 0.37,0 0.7,0.06 1,0.16 0.29,0.11 0.54,0.26 0.74,0.46 0.21,0.19 0.36,0.42 0.47,0.68 0.1,0.26 0.16,0.55 0.16,0.86l0 5.22 -0.3 0 0 -1.48 -0.04 0c-0.15,0.33 -0.35,0.62 -0.59,0.86 -0.24,0.24 -0.52,0.43 -0.83,0.57 -0.32,0.13 -0.66,0.2 -1.02,0.2zm0 -0.3c0.46,0 0.88,-0.13 1.25,-0.37 0.38,-0.25 0.68,-0.6 0.9,-1.04 0.22,-0.44 0.33,-0.96 0.33,-1.55l0 -1.09c-0.09,0.06 -0.2,0.12 -0.32,0.17 -0.13,0.05 -0.27,0.1 -0.42,0.14 -0.16,0.04 -0.33,0.07 -0.51,0.1 -0.19,0.03 -0.38,0.05 -0.59,0.08 -0.65,0.08 -1.16,0.19 -1.53,0.35 -0.37,0.15 -0.64,0.34 -0.79,0.58 -0.15,0.23 -0.23,0.5 -0.23,0.81 0,0.55 0.18,0.99 0.55,1.32 0.37,0.33 0.82,0.5 1.36,0.5z"/>
      <path id="_6" class="fil14" d="M64.06 122.65l0 -7.27 0.3 0 0 1.16 0.04 0c0.17,-0.38 0.45,-0.68 0.84,-0.91 0.39,-0.23 0.83,-0.34 1.34,-0.34 0.03,0 0.06,0 0.07,0 0.01,0 0.04,0 0.08,0l0 0.3c-0.04,0 -0.07,0 -0.08,0 -0.01,0 -0.04,0 -0.07,0 -0.43,0 -0.81,0.09 -1.15,0.28 -0.33,0.19 -0.59,0.44 -0.78,0.77 -0.19,0.33 -0.29,0.71 -0.29,1.13l0 4.88 -0.3 0z"/>
      <path id="_7" class="fil14" d="M70.77 122.8c-0.58,0 -1.1,-0.17 -1.56,-0.5 -0.46,-0.32 -0.82,-0.77 -1.09,-1.34 -0.26,-0.57 -0.39,-1.21 -0.39,-1.93 0,-0.7 0.13,-1.34 0.39,-1.91 0.26,-0.57 0.62,-1.02 1.08,-1.35 0.46,-0.33 0.98,-0.5 1.57,-0.5 0.44,0 0.84,0.09 1.2,0.28 0.37,0.19 0.67,0.45 0.92,0.79 0.24,0.33 0.4,0.72 0.48,1.16l-0.33 0c-0.09,-0.57 -0.35,-1.03 -0.77,-1.39 -0.43,-0.36 -0.92,-0.54 -1.5,-0.54 -0.52,0 -0.98,0.15 -1.4,0.45 -0.41,0.31 -0.74,0.72 -0.98,1.24 -0.24,0.52 -0.36,1.11 -0.36,1.77 0,0.65 0.12,1.23 0.35,1.76 0.23,0.52 0.55,0.93 0.97,1.24 0.41,0.31 0.89,0.47 1.42,0.47 0.39,0 0.75,-0.09 1.07,-0.25 0.33,-0.16 0.6,-0.39 0.82,-0.69 0.21,-0.29 0.35,-0.64 0.4,-1.03l0.33 0c-0.07,0.46 -0.23,0.85 -0.48,1.2 -0.24,0.34 -0.55,0.6 -0.92,0.79 -0.37,0.19 -0.77,0.28 -1.22,0.28z"/>
      <path id="_8" class="fil14" d="M75.82 117.77l0 4.88 -0.3 0 0 -9.69 0.3 0 0 3.58 0.04 0c0.17,-0.38 0.45,-0.68 0.84,-0.91 0.39,-0.23 0.84,-0.34 1.34,-0.34 0.48,0 0.91,0.1 1.29,0.31 0.37,0.22 0.66,0.51 0.87,0.88 0.21,0.37 0.32,0.8 0.32,1.29l0 4.88 -0.31 0 0 -4.88c0,-0.65 -0.2,-1.17 -0.6,-1.57 -0.4,-0.41 -0.93,-0.61 -1.57,-0.61 -0.43,0 -0.81,0.09 -1.14,0.28 -0.34,0.19 -0.6,0.44 -0.79,0.77 -0.19,0.33 -0.29,0.71 -0.29,1.13z"/>
      <path id="_9" class="fil14" d="M84.91 122.8c-0.4,0 -0.77,-0.08 -1.11,-0.25 -0.33,-0.16 -0.6,-0.4 -0.8,-0.71 -0.21,-0.32 -0.31,-0.71 -0.31,-1.16 0,-0.25 0.04,-0.48 0.12,-0.69 0.08,-0.22 0.22,-0.41 0.42,-0.59 0.2,-0.18 0.47,-0.33 0.83,-0.45 0.36,-0.13 0.82,-0.23 1.37,-0.29 0.34,-0.04 0.65,-0.09 0.95,-0.14 0.3,-0.05 0.54,-0.12 0.72,-0.22 0.19,-0.1 0.28,-0.25 0.28,-0.44l0 -0.43c0,-0.56 -0.18,-1.01 -0.56,-1.35 -0.37,-0.34 -0.88,-0.51 -1.5,-0.51 -0.51,0 -0.96,0.11 -1.34,0.34 -0.38,0.23 -0.65,0.54 -0.8,0.95l-0.28 -0.11c0.11,-0.31 0.29,-0.57 0.53,-0.79 0.23,-0.22 0.51,-0.39 0.84,-0.51 0.32,-0.12 0.67,-0.18 1.05,-0.18 0.37,0 0.7,0.06 0.99,0.16 0.29,0.11 0.54,0.26 0.75,0.46 0.2,0.19 0.36,0.42 0.46,0.68 0.11,0.26 0.17,0.55 0.17,0.86l0 5.22 -0.31 0 0 -1.48 -0.03 0c-0.16,0.33 -0.35,0.62 -0.59,0.86 -0.25,0.24 -0.52,0.43 -0.84,0.57 -0.31,0.13 -0.65,0.2 -1.01,0.2zm0 -0.3c0.46,0 0.87,-0.13 1.25,-0.37 0.37,-0.25 0.67,-0.6 0.89,-1.04 0.22,-0.44 0.33,-0.96 0.33,-1.55l0 -1.09c-0.09,0.06 -0.19,0.12 -0.32,0.17 -0.12,0.05 -0.26,0.1 -0.42,0.14 -0.15,0.04 -0.32,0.07 -0.5,0.1 -0.19,0.03 -0.38,0.05 -0.59,0.08 -0.65,0.08 -1.16,0.19 -1.53,0.35 -0.38,0.15 -0.64,0.34 -0.79,0.58 -0.16,0.23 -0.24,0.5 -0.24,0.81 0,0.55 0.19,0.99 0.55,1.32 0.37,0.33 0.83,0.5 1.37,0.5z"/>
      <path id="_10" class="fil14" d="M90.52 122.65l0 -9.69 0.31 0 0 4.28 0.03 0c0.13,-0.41 0.31,-0.76 0.55,-1.05 0.24,-0.29 0.53,-0.52 0.85,-0.68 0.32,-0.16 0.68,-0.24 1.06,-0.24 0.57,0 1.06,0.17 1.48,0.5 0.42,0.33 0.75,0.78 0.98,1.34 0.23,0.57 0.34,1.21 0.34,1.92 0,0.72 -0.11,1.36 -0.34,1.93 -0.23,0.57 -0.55,1.02 -0.97,1.34 -0.42,0.33 -0.91,0.5 -1.49,0.5 -0.39,0 -0.74,-0.08 -1.06,-0.24 -0.33,-0.16 -0.61,-0.39 -0.84,-0.68 -0.24,-0.3 -0.42,-0.65 -0.56,-1.05l-0.03 0 0 1.82 -0.31 0zm0.31 -3.62c0,0.66 0.1,1.25 0.3,1.77 0.2,0.52 0.49,0.94 0.86,1.24 0.38,0.3 0.82,0.46 1.33,0.46 0.52,0 0.96,-0.16 1.33,-0.46 0.38,-0.3 0.67,-0.72 0.87,-1.24 0.2,-0.52 0.3,-1.11 0.3,-1.77 0,-0.65 -0.1,-1.24 -0.3,-1.76 -0.21,-0.52 -0.5,-0.94 -0.87,-1.24 -0.37,-0.31 -0.82,-0.46 -1.33,-0.46 -0.51,0 -0.95,0.15 -1.32,0.46 -0.38,0.3 -0.67,0.72 -0.87,1.24 -0.2,0.52 -0.3,1.11 -0.3,1.76z"/>
      <polygon id="_11" class="fil14" points="98.56,112.96 98.56,122.65 98.26,122.65 98.26,112.96 "/>
      <path id="_12" class="fil14" d="M103.86 122.8c-0.64,0 -1.19,-0.17 -1.66,-0.5 -0.48,-0.33 -0.85,-0.78 -1.11,-1.35 -0.26,-0.56 -0.39,-1.2 -0.39,-1.92 0,-0.71 0.13,-1.35 0.39,-1.92 0.27,-0.56 0.63,-1.01 1.08,-1.34 0.46,-0.33 0.97,-0.5 1.54,-0.5 0.42,0 0.81,0.09 1.17,0.27 0.36,0.18 0.68,0.43 0.95,0.75 0.26,0.32 0.47,0.68 0.62,1.1 0.15,0.41 0.23,0.85 0.23,1.32l0 0.31 -5.83 0 0 -0.31 5.52 0c0,-0.58 -0.12,-1.11 -0.36,-1.58 -0.24,-0.48 -0.55,-0.86 -0.96,-1.14 -0.4,-0.28 -0.85,-0.42 -1.34,-0.42 -0.5,0 -0.95,0.15 -1.36,0.45 -0.4,0.29 -0.72,0.7 -0.97,1.21 -0.24,0.51 -0.36,1.08 -0.38,1.73l0 0.04c0,0.63 0.11,1.21 0.34,1.74 0.22,0.54 0.54,0.96 0.97,1.28 0.42,0.32 0.94,0.48 1.55,0.48 0.45,0 0.82,-0.08 1.13,-0.24 0.3,-0.16 0.55,-0.34 0.73,-0.54 0.18,-0.21 0.32,-0.38 0.41,-0.53l0.24 0.17c-0.1,0.18 -0.26,0.39 -0.48,0.61 -0.21,0.23 -0.49,0.42 -0.82,0.58 -0.33,0.17 -0.74,0.25 -1.21,0.25z"/>
      <g>
       <rect class="fil15" transform="matrix(1.25703E-14 -0.47463 0.47463 1.25703E-14 110.63 122.799)" width="20.73" height="8.18" rx="1.56" ry="1.56"/>
       <path class="fil16" d="M113.73 121.81l-2.32 0 0 -0.88c0,-0.17 0.03,-0.31 0.08,-0.42 0.05,-0.11 0.13,-0.2 0.22,-0.25 0.09,-0.06 0.19,-0.09 0.3,-0.09 0.1,0 0.18,0.02 0.25,0.06 0.06,0.03 0.12,0.08 0.16,0.14 0.04,0.07 0.07,0.13 0.09,0.21l0.02 0c0.01,-0.08 0.03,-0.16 0.08,-0.24 0.04,-0.07 0.11,-0.14 0.19,-0.19 0.08,-0.04 0.18,-0.07 0.3,-0.07 0.12,0 0.23,0.03 0.32,0.09 0.1,0.06 0.18,0.15 0.23,0.26 0.06,0.12 0.08,0.27 0.08,0.44l0 0.94zm-0.35 -0.42l0 -0.45c0,-0.15 -0.03,-0.26 -0.09,-0.33 -0.05,-0.07 -0.13,-0.1 -0.22,-0.1 -0.07,0 -0.13,0.02 -0.19,0.05 -0.05,0.03 -0.1,0.08 -0.13,0.15 -0.03,0.06 -0.05,0.13 -0.05,0.22l0 0.46 0.68 0zm-0.98 0l0 -0.41c0,-0.07 -0.01,-0.14 -0.04,-0.2 -0.03,-0.06 -0.07,-0.1 -0.12,-0.14 -0.04,-0.03 -0.1,-0.05 -0.17,-0.05 -0.09,0 -0.17,0.03 -0.22,0.1 -0.06,0.06 -0.09,0.15 -0.09,0.28l0 0.42 0.64 0z"/>
       <polygon id="_1_2" class="fil16" points="113.73,119.72 111.41,119.72 111.41,118.21 111.76,118.21 111.76,119.3 112.4,119.3 112.4,118.28 112.75,118.28 112.75,119.3 113.38,119.3 113.38,118.2 113.73,118.2 "/>
       <polygon id="_2_3" class="fil16" points="111.76,117.88 111.41,117.88 111.41,116.03 111.76,116.03 111.76,116.74 113.73,116.74 113.73,117.16 111.76,117.16 "/>
       <path id="_3_4" class="fil16" d="M113.73 115.65l0 0.45 -2.32 -0.81 0 -0.52 2.32 -0.82 0 0.45 -1.84 0.62 0 0.01 1.84 0.62zm-0.91 -0.01l0 -1.23 0.34 0 0 1.23 -0.34 0z"/>
      </g>
     </g>
    </g>
    <rect class="fil8 str8" x="0.26" y="86.45" width="127.43" height="45.21"/>
   </g>
  </g>
 </g>
</svg>
