<?xml version="1.0" encoding="UTF-8"?>
<!DOCTYPE svg PUBLIC "-//W3C//DTD SVG 1.1//EN" "http://www.w3.org/Graphics/SVG/1.1/DTD/svg11.dtd">
<!-- Creator: CorelDRAW 2021 (64 Bit) -->
<svg xmlns="http://www.w3.org/2000/svg" xml:space="preserve" width="300px" height="314px" version="1.1" style="shape-rendering:geometricPrecision; text-rendering:geometricPrecision; image-rendering:optimizeQuality; fill-rule:evenodd; clip-rule:evenodd"
viewBox="0 0 127.96 133.63"
 xmlns:xlink="http://www.w3.org/1999/xlink"
 xmlns:xodm="http://www.corel.com/coreldraw/odm/2003">
 <defs>
  <style type="text/css">
   <![CDATA[
    .str0 {stroke:#FEFEFE;stroke-width:0.53;stroke-miterlimit:22.9256}
    .str7 {stroke:#E6E7E8;stroke-width:0.53;stroke-miterlimit:22.9256}
    .str4 {stroke:#6D41A1;stroke-width:0.58;stroke-linecap:round;stroke-linejoin:round;stroke-miterlimit:22.9256}
    .str5 {stroke:#6D41A1;stroke-width:0.58;stroke-linecap:round;stroke-linejoin:round;stroke-miterlimit:22.9256}
    .str1 {stroke:#6D41A1;stroke-width:0.58;stroke-linecap:round;stroke-linejoin:round;stroke-miterlimit:22.9256}
    .str3 {stroke:#6D41A1;stroke-width:0.58;stroke-linecap:round;stroke-linejoin:round;stroke-miterlimit:22.9256}
    .str6 {stroke:#6D41A1;stroke-width:0.58;stroke-linecap:round;stroke-linejoin:round;stroke-miterlimit:22.9256}
    .str2 {stroke:#6D41A1;stroke-width:0.58;stroke-linecap:round;stroke-linejoin:round;stroke-miterlimit:22.9256}
    .fil9 {fill:none}
    .fil6 {fill:#FEFEFE}
    .fil7 {fill:#E6E7E8}
    .fil4 {fill:#373435}
    .fil5 {fill:#537473}
    .fil2 {fill:#9DD3AF}
    .fil8 {fill:#A53692}
    .fil1 {fill:#201E1E}
    .fil3 {fill:#00CC83}
    .fil13 {fill:#6D41A1}
    .fil0 {fill:#C8C9CE}
    .fil14 {fill:#FEFEFE;fill-rule:nonzero}
    .fil10 {fill:#373435;fill-rule:nonzero}
    .fil11 {fill:#00CC83;fill-rule:nonzero}
    .fil12 {fill:#6D41A1;fill-rule:nonzero}
   ]]>
  </style>
 </defs>
 <g id="Camada_x0020_1">
  <metadata id="CorelCorpID_0Corel-Layer"/>
  <g id="_2431811783504">
   <g>
    <ellipse class="fil0" cx="63.98" cy="77.93" rx="23.94" ry="1.64"/>
    <path class="fil1" d="M74.85 64.34c-1.25,4.88 -5.68,8.42 -10.87,8.42 -5.31,0 -9.81,-3.71 -10.95,-8.74l-7.07 4.15 -0.07 -1.95c-0.01,-0.22 -0.02,-0.44 -0.02,-0.66 0,-10.01 8.11,-18.11 18.11,-18.11 10,0 18.11,8.1 18.11,18.11 0,0.33 -0.01,0.67 -0.03,1.01l-0.11 1.9 -7.1 -4.13z"/>
    <path class="fil2" d="M63.98 48.61c9.36,0 16.94,7.59 16.94,16.95 0,0.32 -0.01,0.63 -0.02,0.95l-6.9 -4.02c-0.49,5.11 -4.79,9.1 -10.02,9.1 -5.35,0 -9.73,-4.18 -10.04,-9.45l-6.89 4.04c-0.01,-0.21 -0.01,-0.42 -0.01,-0.62 0,-9.36 7.58,-16.95 16.94,-16.95z"/>
    <path class="fil3" d="M63.98 48.61c9.36,0 16.94,7.59 16.94,16.95 0,0.32 -0.01,0.63 -0.02,0.95l-6.9 -4.02c-0.48,5.05 -4.69,9.01 -9.85,9.1l0.26 -11.94 -12.14 -6.34c3.04,-2.91 7.17,-4.7 11.71,-4.7z"/>
    <path class="fil4" d="M85.56 20.83c2.17,0.75 3.68,2.81 3.68,5.16l0 0.94c0,2.34 -1.5,4.39 -3.65,5.15 -1.42,6.37 -7.13,11.02 -13.73,11.02l-15.76 0c-6.6,0 -12.31,-4.65 -13.72,-11.02 -2.16,-0.76 -3.66,-2.81 -3.66,-5.15l0 -0.94c0,-2.35 1.52,-4.41 3.68,-5.16 1.46,-6.32 7.14,-10.91 13.7,-10.91l15.76 0c6.56,0 12.25,4.59 13.7,10.91z"/>
    <path class="fil2" d="M56.1 11.09l15.76 0c6.34,0 11.65,4.63 12.7,10.68 1.99,0.37 3.52,2.13 3.52,4.22l0 0.94c0,2.09 -1.52,3.84 -3.5,4.22 -1.01,6.1 -6.34,10.79 -12.72,10.79l-15.76 0c-6.38,0 -11.71,-4.69 -12.72,-10.79 -1.98,-0.38 -3.49,-2.13 -3.49,-4.22l0 -0.94c0,-2.09 1.52,-3.85 3.51,-4.22 1.05,-6.05 6.36,-10.68 12.7,-10.68z"/>
    <path class="fil3" d="M71.81 12.87c6.34,0 11.72,2.87 12.78,8.92 1.99,0.37 3.51,2.13 3.51,4.22l0 0.94c0,2.09 -1.51,3.84 -3.5,4.22 -1.01,6.1 -6.34,10.79 -12.71,10.79l-15.77 0c-6.37,0 -11.7,-4.69 -12.72,-10.79 -1.47,-7.22 4.8,-18.3 28.41,-18.3z"/>
    <path class="fil5" d="M82.76 17.4c0.91,1.2 1.55,2.66 1.85,4.37 1.99,0.37 3.51,2.12 3.51,4.22l0 0.93c0,2.09 -1.51,3.85 -3.49,4.23 -1.01,6.09 -6.35,10.78 -12.72,10.78l-2.56 0c8.65,-3.07 14.7,-10.05 14.7,-18.17 0,-2.22 -0.46,-4.36 -1.29,-6.36z"/>
    <path class="fil4" d="M58.05 17.78l11.87 0c4.8,0 8.73,3.93 8.73,8.73 0,4.81 -3.93,8.74 -8.73,8.74l-11.87 0c-4.81,0 -8.74,-3.93 -8.74,-8.74 0,-4.8 3.93,-8.73 8.74,-8.73z"/>
    <path class="fil6" d="M58.05 18.94l11.87 0c4.16,0 7.57,3.41 7.57,7.57l0 0c0,4.17 -3.41,7.58 -7.57,7.58l-11.87 0c-4.17,0 -7.58,-3.41 -7.58,-7.58l0 0c0,-4.16 3.41,-7.57 7.58,-7.57z"/>
    <path class="fil7" d="M73.67 19.83c2.33,1.3 3.92,3.78 3.92,6.63l0 0c0,4.16 -3.41,7.57 -7.58,7.57l-3.51 0c5,-1.06 8.71,-4.85 8.71,-9.37 0,-1.76 -0.56,-3.41 -1.54,-4.83z"/>
    <path class="fil1" d="M68.34 28.19c-0.06,-0.06 -0.12,-0.11 -0.18,-0.17 -0.1,0.34 -0.27,0.65 -0.53,0.91 -0.81,0.81 -2.12,0.81 -2.93,0 -0.35,-0.35 -0.55,-0.79 -0.59,-1.25 -0.24,0.14 -0.46,0.31 -0.66,0.51 -1.35,1.35 -1.35,3.54 0,4.88 1.35,1.35 3.54,1.35 4.89,0 1.35,-1.34 1.35,-3.53 0,-4.88z"/>
    <path class="fil6 str0" d="M74.4 37.2c-0.36,1.53 -2.18,2.69 -4.36,2.69 -2.19,0 -4,-1.16 -4.36,-2.69l8.72 0z"/>
    <g>
     <path class="fil4" d="M63.98 3.75c1.34,0 2.42,1.09 2.42,2.43 0,1.34 -1.08,2.42 -2.42,2.42 -1.34,0 -2.42,-1.08 -2.42,-2.42 0,-1.34 1.08,-2.43 2.42,-2.43z"/>
    </g>
    <circle class="fil8" cx="63.98" cy="6.18" r="1.26"/>
    <polygon class="fil4" points="64.57,8.03 64.57,10.65 63.41,10.65 63.41,8.03 "/>
    <g>
     <g>
      <line class="fil9 str1" x1="65.97" y1="3.34" x2="67.44" y2= "1.86" />
     </g>
     <g>
      <line class="fil9 str2" x1="61.95" y1="3.28" x2="60.55" y2= "1.86" />
     </g>
     <g>
      <line class="fil9 str3" x1="65.78" y1="0.29" x2="64.92" y2= "2.65" />
     </g>
     <g>
      <path class="fil9 str4" d="M62.18 0.43l0.8 2.21m1 -0.17l0 -2.18"/>
     </g>
     <g>
      <line class="fil9 str5" x1="66.65" y1="4.48" x2="68.48" y2= "3.87" />
     </g>
     <g>
      <polygon class="fil9 str6" points="61.23,4.45 59.49,3.87 "/>
      <polygon id="_1" class="fil6" points="61.23,4.45 59.49,3.87 "/>
     </g>
    </g>
    <path class="fil1" d="M75.41 27.68c-0.05,-0.06 -0.11,-0.11 -0.18,-0.17 -0.09,0.34 -0.26,0.65 -0.53,0.92 -0.8,0.8 -2.11,0.8 -2.92,0 -0.35,-0.36 -0.55,-0.8 -0.6,-1.26 -0.23,0.14 -0.45,0.31 -0.65,0.51 -1.35,1.35 -1.35,3.54 0,4.89 1.35,1.35 3.54,1.35 4.88,0 1.35,-1.35 1.35,-3.54 0,-4.89z"/>
   </g>
   <g>
    <rect class="fil9 str7" x="0.26" y="88.16" width="127.43" height="45.21"/>
    <g>
     <path class="fil10" d="M8.86 117.48l-2.71 0 0 -9.7 2.71 0 0 9.7zm3.99 -5.41l0 5.41 -2.71 0 0 -9.7 2.71 0 0 1.08 0 0 0 3.17c0,0.01 0,0.03 0,0.04zm0.72 -3.82c0.62,-0.42 1.3,-0.63 2.03,-0.63 1.03,0 1.88,0.36 2.57,1.08 0.69,0.72 1.04,1.68 1.04,2.88l0 5.9 -2.7 0 0 -5.48c0,-1.49 -0.55,-2.24 -1.65,-2.24 -0.48,0 -0.92,0.16 -1.29,0.48l0 -1.99zm10.7 9.37c-1.15,0 -2.17,-0.48 -3.08,-1.46 -0.9,-0.97 -1.35,-2.18 -1.35,-3.62 0,-1.44 0.44,-2.62 1.32,-3.54 0.88,-0.92 1.9,-1.38 3.08,-1.38 0.84,0 1.57,0.21 2.19,0.63l0 2.33c-0.43,-0.46 -0.94,-0.69 -1.54,-0.69 -0.64,0 -1.18,0.26 -1.64,0.79 -0.46,0.53 -0.69,1.19 -0.69,1.97 0,0.78 0.24,1.42 0.71,1.92 0.47,0.5 1.01,0.74 1.64,0.74 0.62,0 1.16,-0.24 1.59,-0.74 0.44,-0.5 0.66,-1.15 0.66,-1.93 0,-0.12 0,-0.22 -0.01,-0.33l0 -6.74 -0.02 0 0 -1.47 2.7 0 0 13.38 -2.7 0 0 -1.28c-0.76,0.95 -1.71,1.42 -2.86,1.42zm15.24 -1.55c-1.09,1.04 -2.37,1.55 -3.85,1.55 -1.47,0 -2.69,-0.45 -3.65,-1.36 -0.96,-0.91 -1.44,-2.12 -1.44,-3.65 0,-1.53 0.49,-2.74 1.47,-3.64 0.98,-0.9 2.14,-1.35 3.47,-1.35 1.33,0 2.47,0.4 3.4,1.2 0.93,0.81 1.4,1.92 1.4,3.32l0 1.44 -6.37 0 0 -1.92 3.63 0c-0.06,-0.58 -0.28,-1.03 -0.65,-1.34 -0.38,-0.31 -0.83,-0.47 -1.36,-0.47 -0.54,0 -1.03,0.16 -1.47,0.49 -0.45,0.32 -0.71,0.76 -0.78,1.32 -0.15,0.97 -0.11,1.78 -0.07,1.92 0.08,0.53 0.36,0.97 0.83,1.3 0.47,0.34 1,0.51 1.59,0.51 0.94,0 1.73,-0.32 2.34,-0.96l1.51 1.64zm5.17 -5.77l1.75 -2.51 0.01 -0.01 3.17 0 -3.33 4.74 3.46 4.96 -3.23 0 -1.89 -2.67 -1.84 2.67 -3.12 0 5.02 -7.18zm13.35 7.18l-2.54 0 0 -1.17c-0.7,0.87 -1.56,1.31 -2.59,1.31 -1.02,0 -1.89,-0.29 -2.58,-0.89 -0.7,-0.59 -1.05,-1.39 -1.05,-2.38 0,-0.99 0.36,-1.73 1.08,-2.23 0.72,-0.49 1.71,-0.74 2.96,-0.74l1.28 0 0 1.93 -0.97 0c-1.09,0 -1.63,0.34 -1.63,1.01 0,0.35 0.13,0.62 0.39,0.81 0.26,0.18 0.63,0.27 1.11,0.27 0.48,0 0.9,-0.14 1.27,-0.44 0.37,-0.29 0.55,-0.68 0.55,-1.18l0.01 -0.43 0.01 -2.02c0,-1.03 -0.55,-1.55 -1.64,-1.55 -0.47,0 -0.97,0.09 -1.49,0.28 -0.52,0.19 -0.96,0.42 -1.33,0.69l-1.2 -1.75c1.27,-0.92 2.73,-1.38 4.36,-1.38 1.18,0 2.14,0.29 2.88,0.88 0.75,0.59 1.12,1.52 1.12,2.79l0 6.19z"/>
     <circle class="fil3" cx="7.51" cy="105.42" r="1.59"/>
     <circle class="fil3" cx="60.35" cy="116.04" r="1.59"/>
     <polygon class="fil3" points="42.72,112.05 44.33,109.75 43.07,107.78 39.84,107.78 "/>
     <path class="fil11" d="M66 107.8c1.73,0 3.06,0.43 3.99,1.27 0.92,0.85 1.38,2.03 1.38,3.54 0,1.51 -0.45,2.7 -1.35,3.58 -0.9,0.88 -2.28,1.32 -4.13,1.32l-3.32 0 0 -9.71 3.43 0zm0.11 7.79c0.99,0 1.75,-0.24 2.29,-0.75 0.53,-0.5 0.79,-1.22 0.79,-2.18 0,-0.95 -0.26,-1.68 -0.79,-2.2 -0.54,-0.51 -1.35,-0.77 -2.46,-0.77l-1.2 0 0 5.9 1.37 0zm13.81 -2.99c0,-0.86 -0.28,-1.6 -0.84,-2.21 -0.55,-0.61 -1.23,-0.92 -2.04,-0.92 -0.81,0 -1.5,0.31 -2.05,0.92 -0.56,0.61 -0.84,1.35 -0.84,2.21 0,0.87 0.28,1.6 0.84,2.21 0.55,0.61 1.24,0.91 2.05,0.91 0.81,0 1.49,-0.3 2.04,-0.91 0.56,-0.61 0.84,-1.34 0.84,-2.21zm0.73 3.57c-0.98,0.96 -2.19,1.44 -3.62,1.44 -1.44,0 -2.64,-0.48 -3.63,-1.44 -0.98,-0.96 -1.47,-2.15 -1.47,-3.57 0,-1.43 0.49,-2.62 1.47,-3.58 0.99,-0.96 2.19,-1.44 3.63,-1.44 1.43,0 2.64,0.48 3.62,1.44 0.99,0.96 1.48,2.15 1.48,3.58 0,1.42 -0.49,2.61 -1.48,3.57zm7.01 -0.58c1.06,0 1.93,-0.42 2.61,-1.26l1.39 1.43c-1.11,1.24 -2.4,1.86 -3.9,1.86 -1.5,0 -2.73,-0.47 -3.69,-1.41 -0.97,-0.95 -1.46,-2.14 -1.46,-3.58 0,-1.44 0.5,-2.64 1.48,-3.6 0.99,-0.97 2.2,-1.45 3.62,-1.45 1.59,0 2.93,0.61 4,1.82l-1.35 1.53c-0.68,-0.85 -1.53,-1.28 -2.55,-1.28 -0.82,0 -1.51,0.27 -2.09,0.8 -0.58,0.53 -0.87,1.25 -0.87,2.15 0,0.9 0.27,1.63 0.82,2.18 0.55,0.54 1.21,0.81 1.99,0.81z"/>
     <path class="fil12" d="M101.79 114.46l0 -6.6 0.41 0 0 9.83 -0.41 0 0 -1.56 -0.05 0c-0.23,0.51 -0.61,0.92 -1.14,1.23 -0.52,0.31 -1.13,0.46 -1.8,0.46 -0.66,0 -1.24,-0.14 -1.75,-0.43 -0.5,-0.29 -0.9,-0.68 -1.18,-1.18 -0.29,-0.51 -0.43,-1.09 -0.43,-1.75l0 -6.6 0.41 0 0 6.6c0,0.88 0.27,1.58 0.82,2.13 0.55,0.54 1.25,0.82 2.13,0.82 0.58,0 1.09,-0.13 1.54,-0.38 0.45,-0.25 0.81,-0.6 1.06,-1.04 0.26,-0.44 0.39,-0.96 0.39,-1.53zm-3.19 -8.04l1.8 -2.76 0.51 0 -1.89 2.76 -0.42 0z"/>
     <path id="_1_0" class="fil12" d="M108.76 107.86l0 0.41 -3.89 0 0 -0.41 3.89 0zm-2.46 -2.36l0.41 0 0 10.12c0,0.38 0.08,0.71 0.26,0.99 0.16,0.27 0.39,0.48 0.67,0.63 0.28,0.15 0.59,0.22 0.91,0.22 0.13,0 0.24,-0.01 0.34,-0.03 0.11,-0.02 0.22,-0.05 0.33,-0.1l0.13 0.39c-0.13,0.04 -0.26,0.08 -0.38,0.11 -0.13,0.03 -0.26,0.04 -0.42,0.04 -0.4,0 -0.77,-0.09 -1.12,-0.28 -0.34,-0.18 -0.61,-0.44 -0.82,-0.78 -0.21,-0.33 -0.31,-0.73 -0.31,-1.19l0 -10.12z"/>
     <path id="_2" class="fil12" d="M112.01 117.69l0 -9.83 0.41 0 0 9.83 -0.41 0zm0.21 -11.62c-0.12,0 -0.21,-0.05 -0.29,-0.13 -0.08,-0.08 -0.13,-0.18 -0.13,-0.29 0,-0.11 0.05,-0.2 0.13,-0.28 0.08,-0.09 0.17,-0.13 0.29,-0.13 0.11,0 0.2,0.04 0.28,0.13 0.08,0.08 0.12,0.17 0.12,0.28 0,0.11 -0.04,0.21 -0.12,0.29 -0.08,0.08 -0.17,0.13 -0.28,0.13z"/>
     <polygon id="_3" class="fil12" points="116.37,104.58 116.37,117.69 115.96,117.69 115.96,104.58 "/>
     <g>
      <rect class="fil13" transform="matrix(1.26739E-14 -0.478541 0.478541 1.26739E-14 118.124 117.766)" width="20.73" height="8.18" rx="1.56" ry="1.56"/>
      <path class="fil14" d="M121.25 116.77l-2.34 0 0 -0.89c0,-0.17 0.03,-0.31 0.08,-0.42 0.05,-0.12 0.13,-0.2 0.22,-0.26 0.09,-0.05 0.19,-0.08 0.31,-0.08 0.09,0 0.18,0.02 0.24,0.05 0.07,0.04 0.13,0.09 0.17,0.15 0.04,0.06 0.07,0.13 0.09,0.21l0.02 0c0.01,-0.09 0.03,-0.16 0.08,-0.24 0.04,-0.08 0.11,-0.14 0.19,-0.19 0.09,-0.05 0.19,-0.07 0.31,-0.07 0.12,0 0.23,0.03 0.32,0.09 0.1,0.05 0.17,0.14 0.23,0.26 0.06,0.12 0.08,0.27 0.08,0.45l0 0.94zm-0.35 -0.42l0 -0.46c0,-0.15 -0.03,-0.26 -0.09,-0.33 -0.06,-0.07 -0.13,-0.1 -0.23,-0.1 -0.07,0 -0.13,0.02 -0.19,0.05 -0.05,0.03 -0.1,0.08 -0.13,0.15 -0.03,0.06 -0.05,0.13 -0.05,0.22l0 0.47 0.69 0zm-0.99 0l0 -0.42c0,-0.07 -0.02,-0.14 -0.04,-0.2 -0.03,-0.06 -0.07,-0.1 -0.12,-0.14 -0.05,-0.03 -0.11,-0.05 -0.18,-0.05 -0.09,0 -0.16,0.03 -0.22,0.1 -0.06,0.06 -0.09,0.16 -0.09,0.28l0 0.43 0.65 0z"/>
      <polygon id="_1_1" class="fil14" points="121.25,114.66 118.91,114.66 118.91,113.14 119.27,113.14 119.27,114.23 119.9,114.23 119.9,113.21 120.26,113.21 120.26,114.23 120.9,114.23 120.9,113.13 121.25,113.13 "/>
      <polygon id="_2_2" class="fil14" points="119.27,112.81 118.91,112.81 118.91,110.94 119.27,110.94 119.27,111.66 121.25,111.66 121.25,112.08 119.27,112.08 "/>
      <path id="_3_3" class="fil14" d="M121.25 110.56l0 0.45 -2.34 -0.82 0 -0.52 2.34 -0.83 0 0.45 -1.86 0.63 0 0.02 1.86 0.62zm-0.91 -0.01l0 -1.24 0.34 0 0 1.24 -0.34 0z"/>
     </g>
    </g>
   </g>
  </g>
 </g>
</svg>
