<?xml version="1.0" encoding="UTF-8"?>
<!DOCTYPE svg PUBLIC "-//W3C//DTD SVG 1.1//EN" "http://www.w3.org/Graphics/SVG/1.1/DTD/svg11.dtd">
<!-- Creator: CorelDRAW 2021 (64 Bit) -->
<svg xmlns="http://www.w3.org/2000/svg" xml:space="preserve" width="300px" height="314px" version="1.1" style="shape-rendering:geometricPrecision; text-rendering:geometricPrecision; image-rendering:optimizeQuality; fill-rule:evenodd; clip-rule:evenodd"
viewBox="0 0 127.96 133.63"
 xmlns:xlink="http://www.w3.org/1999/xlink"
 xmlns:xodm="http://www.corel.com/coreldraw/odm/2003">
 <defs>
  <style type="text/css">
   <![CDATA[
    .str1 {stroke:#FEFEFE;stroke-width:0.53;stroke-miterlimit:22.9256}
    .str0 {stroke:#E6E7E8;stroke-width:0.53;stroke-miterlimit:22.9256}
    .str2 {stroke:#6D41A1;stroke-width:0.58;stroke-linecap:round;stroke-linejoin:round;stroke-miterlimit:22.9256}
    .str6 {stroke:#6D41A1;stroke-width:0.58;stroke-linecap:round;stroke-linejoin:round;stroke-miterlimit:22.9256}
    .str3 {stroke:#6D41A1;stroke-width:0.58;stroke-linecap:round;stroke-linejoin:round;stroke-miterlimit:22.9256}
    .str4 {stroke:#6D41A1;stroke-width:0.58;stroke-linecap:round;stroke-linejoin:round;stroke-miterlimit:22.9256}
    .str5 {stroke:#6D41A1;stroke-width:0.58;stroke-linecap:round;stroke-linejoin:round;stroke-miterlimit:22.9256}
    .str7 {stroke:#6D41A1;stroke-width:0.58;stroke-linecap:round;stroke-linejoin:round;stroke-miterlimit:22.9256}
    .fil0 {fill:none}
    .fil11 {fill:#FEFEFE}
    .fil12 {fill:#E6E7E8}
    .fil8 {fill:#373435}
    .fil10 {fill:#537473}
    .fil9 {fill:#9DD3AF}
    .fil13 {fill:#201E1E}
    .fil2 {fill:#00CC83}
    .fil5 {fill:#6D41A1}
    .fil7 {fill:#C8C9CE}
    .fil6 {fill:#FEFEFE;fill-rule:nonzero}
    .fil1 {fill:#373435;fill-rule:nonzero}
    .fil3 {fill:#00CC83;fill-rule:nonzero}
    .fil4 {fill:#6D41A1;fill-rule:nonzero}
   ]]>
  </style>
 </defs>
 <g id="Camada_x0020_1">
  <metadata id="CorelCorpID_0Corel-Layer"/>
  <g id="_2431813158304">
   <g>
    <rect class="fil0 str0" x="0.26" y="88.16" width="127.43" height="45.21"/>
    <path class="fil1" d="M16.91 113.1l-3.19 0 0 -11.42 3.19 0 0 11.42zm4.69 -6.37l0 6.37 -3.18 0 0 -11.42 3.18 0 0 1.27 0 0 0 3.73c0,0.02 0,0.03 0,0.05zm0.86 -4.5c0.73,-0.5 1.53,-0.75 2.39,-0.75 1.21,0 2.22,0.43 3.03,1.28 0.81,0.85 1.22,1.98 1.22,3.4l0 6.94 -3.18 0 0 -6.45c0,-1.76 -0.65,-2.64 -1.94,-2.64 -0.57,0 -1.08,0.19 -1.52,0.56l0 -2.34zm12.6 11.04c-1.35,0 -2.56,-0.57 -3.62,-1.72 -1.06,-1.15 -1.59,-2.57 -1.59,-4.27 0,-1.7 0.51,-3.09 1.55,-4.17 1.03,-1.08 2.24,-1.63 3.63,-1.63 0.99,0 1.84,0.25 2.57,0.75l0 2.75c-0.5,-0.55 -1.1,-0.82 -1.81,-0.82 -0.75,0 -1.39,0.31 -1.93,0.93 -0.54,0.63 -0.81,1.4 -0.81,2.32 0,0.92 0.28,1.67 0.83,2.26 0.55,0.59 1.2,0.88 1.94,0.88 0.73,0 1.36,-0.29 1.88,-0.88 0.51,-0.59 0.77,-1.34 0.77,-2.27 0,-0.13 -0.01,-0.26 -0.02,-0.39l0 -7.94 -0.02 0 0 -1.73 3.18 0 0 15.76 -3.18 0 0 -1.51c-0.89,1.12 -2.02,1.68 -3.37,1.68zm17.96 -1.82c-1.29,1.21 -2.8,1.82 -4.53,1.82 -1.74,0 -3.17,-0.53 -4.3,-1.6 -1.14,-1.07 -1.7,-2.5 -1.7,-4.3 0,-1.8 0.57,-3.23 1.73,-4.29 1.15,-1.06 2.51,-1.6 4.09,-1.6 1.57,0 2.9,0.48 4,1.43 1.1,0.95 1.65,2.25 1.65,3.91l0 1.69 -7.51 0 0 -2.27 4.28 0c-0.07,-0.68 -0.33,-1.2 -0.77,-1.57 -0.44,-0.37 -0.97,-0.55 -1.6,-0.55 -0.63,0 -1.21,0.19 -1.73,0.57 -0.53,0.38 -0.83,0.9 -0.92,1.55 -0.17,1.15 -0.12,2.1 -0.08,2.27 0.1,0.63 0.42,1.14 0.98,1.53 0.55,0.4 1.17,0.6 1.87,0.6 1.11,0 2.03,-0.38 2.76,-1.13l1.78 1.94zm6.08 -6.81l2.07 -2.95 0.01 -0.01 3.74 0 -3.93 5.58 4.08 5.84 -3.81 0 -2.23 -3.14 -2.16 3.14 -3.68 0 5.91 -8.46zm15.74 8.46l-3 0 0 -1.38c-0.82,1.03 -1.83,1.55 -3.04,1.55 -1.22,0 -2.23,-0.35 -3.05,-1.05 -0.82,-0.7 -1.23,-1.63 -1.23,-2.8 0,-1.17 0.42,-2.05 1.27,-2.63 0.85,-0.58 2.01,-0.87 3.48,-0.87l1.52 0 0 2.28 -1.16 0c-1.27,0 -1.91,0.39 -1.91,1.18 0,0.42 0.15,0.73 0.46,0.95 0.3,0.22 0.74,0.33 1.31,0.33 0.56,0 1.06,-0.17 1.49,-0.52 0.43,-0.35 0.65,-0.81 0.65,-1.39l0.01 -0.51 0.01 -2.38c0,-1.22 -0.64,-1.83 -1.93,-1.83 -0.55,0 -1.14,0.11 -1.75,0.33 -0.62,0.22 -1.14,0.49 -1.56,0.82l-1.43 -2.06c1.5,-1.09 3.22,-1.64 5.14,-1.64 1.39,0 2.52,0.35 3.4,1.04 0.88,0.7 1.32,1.8 1.32,3.3l0 7.28z"/>
    <circle class="fil2" cx="15.32" cy="98.89" r="1.87"/>
    <circle class="fil2" cx="77.57" cy="111.4" r="1.87"/>
    <polygon class="fil2" points="56.8,106.71 58.69,104 57.21,101.68 53.41,101.68 "/>
    <path class="fil3" d="M84.22 101.7c2.04,0 3.61,0.5 4.7,1.5 1.09,1 1.64,2.39 1.64,4.17 0,1.77 -0.54,3.18 -1.6,4.22 -1.06,1.03 -2.69,1.55 -4.87,1.55l-3.91 0 0 -11.44 4.04 0zm0.13 9.18c1.17,0 2.07,-0.29 2.7,-0.88 0.62,-0.59 0.94,-1.45 0.94,-2.57 0,-1.12 -0.32,-1.99 -0.94,-2.59 -0.63,-0.61 -1.59,-0.91 -2.89,-0.91l-1.42 0 0 6.95 1.61 0zm16.27 -3.52c0,-1.02 -0.33,-1.89 -0.98,-2.61 -0.66,-0.72 -1.46,-1.08 -2.41,-1.08 -0.96,0 -1.76,0.36 -2.42,1.08 -0.65,0.72 -0.98,1.59 -0.98,2.61 0,1.02 0.33,1.88 0.98,2.6 0.66,0.71 1.46,1.07 2.42,1.07 0.95,0 1.75,-0.36 2.41,-1.07 0.65,-0.72 0.98,-1.58 0.98,-2.6zm0.87 4.2c-1.16,1.13 -2.58,1.7 -4.27,1.7 -1.69,0 -3.12,-0.57 -4.27,-1.7 -1.16,-1.13 -1.74,-2.53 -1.74,-4.21 0,-1.68 0.58,-3.09 1.74,-4.21 1.15,-1.13 2.58,-1.7 4.27,-1.7 1.69,0 3.11,0.57 4.27,1.7 1.15,1.12 1.73,2.53 1.73,4.21 0,1.68 -0.58,3.08 -1.73,4.21zm8.25 -0.68c1.25,0 2.28,-0.49 3.07,-1.49l1.64 1.69c-1.3,1.46 -2.83,2.19 -4.59,2.19 -1.76,0 -3.21,-0.55 -4.35,-1.67 -1.14,-1.11 -1.71,-2.51 -1.71,-4.21 0,-1.7 0.58,-3.11 1.74,-4.25 1.16,-1.13 2.58,-1.7 4.26,-1.7 1.88,0 3.45,0.72 4.71,2.15l-1.58 1.8c-0.81,-1.01 -1.81,-1.51 -3.01,-1.51 -0.96,0 -1.78,0.31 -2.47,0.94 -0.68,0.63 -1.02,1.47 -1.02,2.54 0,1.06 0.32,1.91 0.97,2.56 0.64,0.64 1.42,0.96 2.34,0.96z"/>
    <g>
     <path class="fil4" d="M14.04 124.35l-0.32 0 3.46 -9.69 0.42 0 3.46 9.69 -0.32 0 -3.33 -9.31 -0.04 0 -3.33 9.31zm1.1 -3.57l4.5 0 0 0.3 -4.5 0 0 -0.3z"/>
     <polygon id="_1" class="fil4" points="23.31,114.66 23.31,124.35 23.01,124.35 23.01,114.66 "/>
     <path id="_2" class="fil4" d="M33.83 121.42l0 -0.55 0.12 0 3.86 -3.78 0.43 0 -3.31 3.25 -0.04 0.04 -1.06 1.04zm-0.22 2.93l0 -9.69 0.3 0 0 9.69 -0.3 0zm4.35 0l-3.18 -4.01 0.23 -0.19 3.35 4.2 -0.4 0z"/>
     <path id="_3" class="fil4" d="M42.52 124.5c-0.64,0 -1.19,-0.16 -1.66,-0.5 -0.48,-0.33 -0.85,-0.77 -1.11,-1.34 -0.26,-0.57 -0.39,-1.21 -0.39,-1.92 0,-0.71 0.13,-1.35 0.39,-1.92 0.27,-0.57 0.63,-1.02 1.08,-1.35 0.45,-0.33 0.97,-0.5 1.54,-0.5 0.42,0 0.81,0.09 1.17,0.27 0.36,0.18 0.68,0.43 0.94,0.75 0.27,0.32 0.48,0.69 0.63,1.1 0.15,0.41 0.23,0.86 0.23,1.33l0 0.3 -5.83 0 0 -0.3 5.52 0c0,-0.59 -0.12,-1.12 -0.36,-1.59 -0.24,-0.47 -0.56,-0.85 -0.96,-1.13 -0.4,-0.28 -0.85,-0.43 -1.34,-0.43 -0.5,0 -0.95,0.15 -1.36,0.45 -0.4,0.3 -0.72,0.7 -0.97,1.21 -0.24,0.51 -0.37,1.09 -0.38,1.73l0 0.04c0,0.63 0.11,1.22 0.33,1.75 0.23,0.53 0.55,0.95 0.98,1.27 0.42,0.32 0.94,0.48 1.55,0.48 0.45,0 0.82,-0.08 1.13,-0.24 0.3,-0.15 0.54,-0.33 0.73,-0.54 0.18,-0.21 0.32,-0.38 0.41,-0.53l0.24 0.17c-0.1,0.19 -0.26,0.39 -0.48,0.61 -0.21,0.23 -0.49,0.42 -0.82,0.59 -0.34,0.16 -0.74,0.24 -1.21,0.24z"/>
     <path id="_4" class="fil4" d="M47.58 127.07c-0.13,0 -0.26,-0.01 -0.39,-0.04 -0.14,-0.04 -0.28,-0.08 -0.43,-0.14l0.12 -0.27c0.31,0.13 0.59,0.18 0.85,0.15 0.26,-0.04 0.49,-0.16 0.68,-0.36 0.2,-0.2 0.36,-0.49 0.49,-0.85l0.39 -1.08 -2.65 -7.39 0.32 0 2.46 6.88 0.04 0 2.46 -6.88 0.32 0 -3.05 8.59c-0.11,0.3 -0.25,0.55 -0.41,0.76 -0.16,0.21 -0.34,0.37 -0.54,0.47 -0.21,0.11 -0.43,0.16 -0.66,0.16z"/>
     <polygon id="_5" class="fil4" points="59.5,124.35 57.35,117.09 57.67,117.09 59.7,123.93 59.73,123.93 61.78,117.09 62.08,117.09 64.12,123.93 64.16,123.93 66.18,117.09 66.51,117.09 64.35,124.35 63.93,124.35 61.95,117.65 61.91,117.65 59.92,124.35 "/>
     <path id="_6" class="fil4" d="M70.8 124.5c-0.57,0 -1.08,-0.16 -1.54,-0.49 -0.45,-0.33 -0.81,-0.78 -1.07,-1.35 -0.27,-0.57 -0.4,-1.21 -0.4,-1.92 0,-0.72 0.13,-1.36 0.4,-1.93 0.26,-0.57 0.62,-1.01 1.07,-1.34 0.46,-0.33 0.97,-0.5 1.54,-0.5 0.57,0 1.08,0.17 1.53,0.5 0.46,0.33 0.81,0.78 1.08,1.35 0.26,0.57 0.4,1.21 0.4,1.92 0,0.71 -0.14,1.35 -0.4,1.92 -0.26,0.57 -0.62,1.02 -1.07,1.35 -0.46,0.33 -0.97,0.49 -1.54,0.49zm0 -0.3c0.51,0 0.98,-0.15 1.38,-0.45 0.41,-0.31 0.73,-0.72 0.97,-1.24 0.24,-0.53 0.35,-1.12 0.35,-1.77 0,-0.66 -0.11,-1.25 -0.35,-1.77 -0.24,-0.52 -0.56,-0.93 -0.97,-1.24 -0.4,-0.3 -0.87,-0.46 -1.38,-0.46 -0.51,0 -0.97,0.16 -1.38,0.46 -0.41,0.31 -0.73,0.72 -0.97,1.24 -0.24,0.52 -0.36,1.11 -0.36,1.77 0,0.65 0.12,1.24 0.36,1.77 0.24,0.52 0.56,0.93 0.97,1.24 0.4,0.3 0.87,0.45 1.38,0.45z"/>
     <path id="_7" class="fil4" d="M75.95 124.35l0 -7.26 0.3 0 0 1.15 0.04 0c0.17,-0.38 0.45,-0.68 0.83,-0.91 0.39,-0.22 0.84,-0.34 1.34,-0.34 0.04,0 0.06,0 0.08,0 0.01,0 0.03,0 0.07,0l0 0.3c-0.04,0 -0.06,0 -0.07,0 -0.02,0 -0.04,0 -0.08,0 -0.43,0 -0.81,0.1 -1.14,0.28 -0.33,0.19 -0.6,0.45 -0.79,0.77 -0.19,0.33 -0.28,0.71 -0.28,1.13l0 4.88 -0.3 0z"/>
     <path id="_8" class="fil4" d="M82.41 124.5c-0.57,0 -1.07,-0.16 -1.49,-0.49 -0.42,-0.33 -0.74,-0.78 -0.97,-1.35 -0.22,-0.56 -0.34,-1.21 -0.34,-1.92 0,-0.71 0.12,-1.35 0.35,-1.92 0.23,-0.57 0.55,-1.02 0.97,-1.35 0.42,-0.33 0.92,-0.5 1.48,-0.5 0.39,0 0.74,0.08 1.07,0.24 0.32,0.16 0.61,0.39 0.85,0.68 0.23,0.3 0.42,0.65 0.54,1.05l0.04 0 0 -4.28 0.3 0 0 9.69 -0.3 0 0 -1.81 -0.04 0c-0.13,0.4 -0.31,0.74 -0.55,1.04 -0.24,0.29 -0.52,0.52 -0.84,0.68 -0.32,0.16 -0.68,0.24 -1.07,0.24zm0 -0.3c0.52,0 0.96,-0.15 1.34,-0.46 0.37,-0.3 0.66,-0.71 0.86,-1.24 0.2,-0.52 0.3,-1.11 0.3,-1.76 0,-0.66 -0.1,-1.25 -0.31,-1.77 -0.2,-0.52 -0.49,-0.93 -0.86,-1.24 -0.37,-0.3 -0.82,-0.46 -1.33,-0.46 -0.51,0 -0.95,0.16 -1.32,0.46 -0.38,0.31 -0.67,0.72 -0.87,1.24 -0.2,0.52 -0.3,1.11 -0.3,1.77 0,0.65 0.1,1.24 0.3,1.76 0.2,0.53 0.49,0.94 0.86,1.24 0.37,0.31 0.82,0.46 1.33,0.46z"/>
     <path id="_9" class="fil4" d="M92.36 118.62l-0.3 0.08c-0.1,-0.32 -0.23,-0.58 -0.41,-0.79 -0.17,-0.21 -0.39,-0.37 -0.64,-0.48 -0.25,-0.1 -0.54,-0.16 -0.88,-0.16 -0.58,0 -1.05,0.15 -1.41,0.45 -0.36,0.29 -0.54,0.68 -0.54,1.16 0,0.39 0.12,0.71 0.37,0.96 0.24,0.26 0.61,0.45 1.11,0.58l1.13 0.28c0.54,0.13 0.94,0.36 1.22,0.67 0.27,0.32 0.41,0.7 0.41,1.15 0,0.39 -0.1,0.74 -0.31,1.04 -0.2,0.3 -0.49,0.53 -0.85,0.69 -0.37,0.17 -0.78,0.25 -1.26,0.25 -0.65,0 -1.18,-0.16 -1.58,-0.47 -0.42,-0.32 -0.68,-0.76 -0.8,-1.34l0.3 -0.08c0.1,0.51 0.34,0.91 0.69,1.18 0.35,0.27 0.81,0.41 1.39,0.41 0.63,0 1.14,-0.16 1.53,-0.46 0.39,-0.31 0.59,-0.72 0.59,-1.22 0,-0.38 -0.12,-0.7 -0.35,-0.95 -0.24,-0.26 -0.58,-0.45 -1.05,-0.57l-1.14 -0.28c-0.55,-0.14 -0.98,-0.37 -1.27,-0.68 -0.29,-0.32 -0.43,-0.7 -0.43,-1.16 0,-0.38 0.1,-0.71 0.29,-1 0.19,-0.28 0.45,-0.51 0.79,-0.67 0.34,-0.16 0.73,-0.24 1.17,-0.24 0.56,0 1.03,0.14 1.41,0.42 0.37,0.27 0.65,0.68 0.82,1.23z"/>
     <g>
      <rect class="fil5" transform="matrix(1.25703E-14 -0.47463 0.47463 1.25703E-14 111.728 124.502)" width="20.73" height="8.18" rx="1.56" ry="1.56"/>
      <path class="fil6" d="M114.83 123.52l-2.32 0 0 -0.89c0,-0.17 0.03,-0.31 0.08,-0.42 0.05,-0.11 0.12,-0.19 0.21,-0.25 0.09,-0.06 0.2,-0.08 0.31,-0.08 0.1,0 0.18,0.01 0.24,0.05 0.07,0.04 0.12,0.09 0.17,0.15 0.04,0.06 0.07,0.13 0.09,0.2l0.02 0c0,-0.08 0.03,-0.16 0.07,-0.23 0.05,-0.08 0.11,-0.14 0.2,-0.19 0.08,-0.05 0.18,-0.07 0.3,-0.07 0.12,0 0.23,0.03 0.32,0.08 0.1,0.06 0.17,0.15 0.23,0.27 0.05,0.11 0.08,0.26 0.08,0.44l0 0.94zm-0.35 -0.42l0 -0.45c0,-0.16 -0.03,-0.27 -0.09,-0.34 -0.06,-0.06 -0.13,-0.1 -0.22,-0.1 -0.07,0 -0.14,0.02 -0.19,0.05 -0.06,0.04 -0.1,0.09 -0.13,0.15 -0.03,0.06 -0.05,0.14 -0.05,0.22l0 0.47 0.68 0zm-0.98 0l0 -0.42c0,-0.07 -0.02,-0.14 -0.04,-0.19 -0.03,-0.06 -0.07,-0.11 -0.12,-0.14 -0.05,-0.04 -0.11,-0.05 -0.17,-0.05 -0.09,0 -0.17,0.03 -0.23,0.09 -0.05,0.06 -0.08,0.16 -0.08,0.28l0 0.43 0.64 0z"/>
      <polygon id="_1_0" class="fil6" points="114.83,121.42 112.51,121.42 112.51,119.91 112.86,119.91 112.86,121 113.49,121 113.49,119.99 113.84,119.99 113.84,121 114.48,121 114.48,119.9 114.83,119.9 "/>
      <polygon id="_2_1" class="fil6" points="112.86,119.58 112.51,119.58 112.51,117.73 112.86,117.73 112.86,118.45 114.83,118.45 114.83,118.86 112.86,118.86 "/>
      <path id="_3_2" class="fil6" d="M114.83 117.36l0 0.45 -2.32 -0.82 0 -0.52 2.32 -0.82 0 0.45 -1.84 0.62 0 0.02 1.84 0.62zm-0.91 -0.02l0 -1.22 0.34 0 0 1.22 -0.34 0z"/>
     </g>
    </g>
   </g>
   <g>
    <ellipse class="fil7" cx="63.98" cy="77.36" rx="23.77" ry="1.63"/>
    <path class="fil8" d="M85.4 20.68c2.15,0.75 3.66,2.79 3.66,5.13l0 0.92c0,2.33 -1.5,4.37 -3.63,5.12 -1.4,6.32 -7.07,10.94 -13.62,10.94l-15.66 0c-6.55,0 -12.21,-4.62 -13.62,-10.94 -2.13,-0.75 -3.62,-2.79 -3.62,-5.12l0 -0.92c0,-2.34 1.5,-4.38 3.65,-5.13 1.44,-6.27 7.08,-10.83 13.59,-10.83l15.66 0c6.51,0 12.15,4.56 13.59,10.83z"/>
    <path class="fil9" d="M56.15 11.01l15.66 0c6.29,0 11.56,4.6 12.6,10.6 1.98,0.37 3.49,2.12 3.49,4.2l0 0.92c0,2.08 -1.5,3.82 -3.47,4.19 -1,6.06 -6.3,10.71 -12.62,10.71l-15.66 0c-6.32,0 -11.62,-4.65 -12.62,-10.71 -1.97,-0.37 -3.47,-2.11 -3.47,-4.19l0 -0.92c0,-2.08 1.51,-3.83 3.49,-4.2 1.05,-6 6.31,-10.6 12.6,-10.6z"/>
    <path class="fil2" d="M71.76 12.78c6.29,0 11.63,2.85 12.68,8.85 1.97,0.37 3.48,2.11 3.48,4.19l0 0.93c0,2.08 -1.5,3.82 -3.47,4.19 -1,6.06 -6.29,10.71 -12.62,10.71l-15.65 0c-6.33,0 -11.62,-4.65 -12.63,-10.71 -1.46,-7.17 4.76,-18.16 28.21,-18.16z"/>
    <path class="fil10" d="M82.62 17.27c0.9,1.2 1.54,2.64 1.84,4.34 1.98,0.37 3.49,2.11 3.49,4.19l0 0.93c0,2.07 -1.5,3.81 -3.47,4.19 -1.01,6.05 -6.3,10.71 -12.63,10.71l-2.54 0c8.59,-3.05 14.59,-9.98 14.59,-18.04 0,-2.21 -0.45,-4.34 -1.28,-6.32z"/>
    <path class="fil8" d="M58.09 17.65l11.78 0c4.78,0 8.68,3.9 8.68,8.67 0,4.77 -3.91,8.67 -8.68,8.67l-11.78 0c-4.77,0 -8.67,-3.9 -8.67,-8.67 0,-4.77 3.9,-8.67 8.67,-8.67z"/>
    <path class="fil11" d="M58.09 18.8l11.78 0c4.14,0 7.52,3.39 7.52,7.52l0 0c0,4.13 -3.38,7.52 -7.52,7.52l-11.78 0c-4.14,0 -7.52,-3.38 -7.52,-7.52l0 0c0,-4.13 3.38,-7.52 7.52,-7.52z"/>
    <path class="fil12" d="M73.6 19.69c2.31,1.28 3.89,3.75 3.89,6.57l0 0c0,4.14 -3.39,7.52 -7.52,7.52l-3.49 0c4.97,-1.05 8.65,-4.82 8.65,-9.3 0,-1.75 -0.56,-3.38 -1.53,-4.79z"/>
    <path class="fil13" d="M62.89 25.97c-0.06,-0.06 -0.12,-0.12 -0.18,-0.17 -0.09,0.33 -0.27,0.64 -0.53,0.9 -0.8,0.8 -2.1,0.8 -2.9,0 -0.35,-0.35 -0.54,-0.79 -0.59,-1.24 -0.23,0.14 -0.45,0.31 -0.65,0.51 -1.34,1.33 -1.34,3.51 0,4.84 1.34,1.34 3.51,1.34 4.85,0 1.34,-1.33 1.34,-3.51 0,-4.84z"/>
    <path class="fil13" d="M70.52 25.62c-0.06,-0.05 -0.12,-0.11 -0.18,-0.16 -0.09,0.33 -0.27,0.64 -0.53,0.9 -0.8,0.8 -2.1,0.8 -2.9,0 -0.35,-0.35 -0.55,-0.79 -0.59,-1.24 -0.24,0.14 -0.45,0.3 -0.65,0.5 -1.34,1.34 -1.34,3.51 0,4.85 1.34,1.34 3.51,1.34 4.85,0 1.33,-1.34 1.33,-3.51 0,-4.85z"/>
    <path class="fil11 str1" d="M68.31 38.17c-0.36,1.52 -2.16,2.67 -4.33,2.67 -2.17,0 -3.97,-1.15 -4.33,-2.67l8.66 0z"/>
    <path class="fil13" d="M74.77 63.87c-1.24,4.84 -5.64,8.36 -10.79,8.36 -5.27,0 -9.74,-3.68 -10.87,-8.68l-7.02 4.13 -0.07 -1.94c-0.01,-0.22 -0.02,-0.44 -0.02,-0.66 0,-9.93 8.05,-17.98 17.98,-17.98 9.93,0 17.98,8.05 17.98,17.98 0,0.34 -0.01,0.67 -0.03,1.01l-0.11 1.88 -7.05 -4.1z"/>
    <path class="fil9" d="M63.98 48.26c9.29,0 16.82,7.53 16.82,16.82 0,0.32 -0.01,0.63 -0.03,0.94l-6.84 -3.98c-0.49,5.07 -4.75,9.03 -9.95,9.03 -5.31,0 -9.66,-4.15 -9.97,-9.38l-6.84 4.01c0,-0.21 -0.01,-0.41 -0.01,-0.62 0,-9.29 7.53,-16.82 16.82,-16.82z"/>
    <path class="fil2" d="M63.98 48.26c9.29,0 16.82,7.53 16.82,16.82 0,0.32 -0.01,0.63 -0.03,0.94l-6.84 -3.98c-0.48,5.01 -4.66,8.94 -9.78,9.03l0.26 -11.85 -12.06 -6.29c3.02,-2.9 7.12,-4.67 11.63,-4.67z"/>
    <g>
     <g>
      <path class="fil8" d="M63.98 3.73c1.33,0 2.41,1.07 2.41,2.4 0,1.33 -1.08,2.41 -2.41,2.41 -1.33,0 -2.41,-1.08 -2.41,-2.41 0,-1.33 1.08,-2.4 2.41,-2.4z"/>
     </g>
     <circle class="fil2" cx="63.98" cy="6.13" r="1.25"/>
     <polygon class="fil8" points="64.57,7.98 64.57,10.57 63.41,10.57 63.41,7.98 "/>
    </g>
    <g>
     <g>
      <line class="fil0 str2" x1="65.84" y1="3.31" x2="67.29" y2= "1.85" />
     </g>
     <g>
      <line class="fil0 str3" x1="61.85" y1="3.25" x2="60.45" y2= "1.85" />
     </g>
     <g>
      <line class="fil0 str4" x1="65.65" y1="0.29" x2="64.79" y2= "2.63" />
     </g>
     <g>
      <path class="fil0 str5" d="M62.07 0.43l0.8 2.19m0.99 -0.17l0 -2.16"/>
     </g>
     <g>
      <line class="fil0 str6" x1="66.51" y1="4.45" x2="68.33" y2= "3.84" />
     </g>
     <g>
      <polygon class="fil0 str7" points="61.13,4.42 59.4,3.84 "/>
      <polygon id="_1_3" class="fil11" points="61.13,4.42 59.4,3.84 "/>
     </g>
    </g>
   </g>
  </g>
 </g>
</svg>
