<?xml version="1.0" encoding="UTF-8"?>
<!DOCTYPE svg PUBLIC "-//W3C//DTD SVG 1.1//EN" "http://www.w3.org/Graphics/SVG/1.1/DTD/svg11.dtd">
<!-- Creator: CorelDRAW 2021 (64 Bit) -->
<svg xmlns="http://www.w3.org/2000/svg" xml:space="preserve" width="1600px" height="900px" version="1.1" style="shape-rendering:geometricPrecision; text-rendering:geometricPrecision; image-rendering:optimizeQuality; fill-rule:evenodd; clip-rule:evenodd"
viewBox="0 0 1600.11 899.99"
 xmlns:xlink="http://www.w3.org/1999/xlink"
 xmlns:xodm="http://www.corel.com/coreldraw/odm/2003">
 <defs>
  <style type="text/css">
   <![CDATA[
    .str0 {stroke:#373435;stroke-width:0.91;stroke-miterlimit:22.9256}
    .fil2 {fill:none}
    .fil0 {fill:#00CC83}
    .fil5 {fill:#FEFEFE;fill-rule:nonzero}
    .fil11 {fill:#D2D3D5;fill-rule:nonzero}
    .fil7 {fill:#373435;fill-rule:nonzero}
    .fil6 {fill:#373435;fill-rule:nonzero}
    .fil8 {fill:#953735;fill-rule:nonzero}
    .fil10 {fill:#953735;fill-rule:nonzero}
    .fil9 {fill:#00CC83;fill-rule:nonzero}
    .fil12 {fill:#00CC83;fill-rule:nonzero}
    .fil4 {fill:#7F7F7F;fill-rule:nonzero}
    .fil3 {fill:#B0B0B0;fill-rule:nonzero}
    .fil13 {fill:#CACACA;fill-rule:nonzero}
    .fil1 {fill:#FEFEFE}
   ]]>
  </style>
    <clipPath id="id0">
     <path d="M0 0l1599.95 0 0 899.99 -1599.95 0 0 -899.99z"/>
    </clipPath>
     <mask id="id1">
  <linearGradient id="id2" gradientUnits="userSpaceOnUse" x1="880.7" y1="-259.36" x2="880.7" y2="823.05">
   <stop offset="0" style="stop-opacity:1; stop-color:white"/>
   <stop offset="1" style="stop-opacity:0; stop-color:white"/>
  </linearGradient>
      <rect style="fill:url(#id2)" width="1599.95" height="899.99"/>
     </mask>
    <clipPath id="id3">
     <path d="M0 0l1599.95 0 0 899.99 -1599.95 0 0 -899.99z"/>
    </clipPath>
 </defs>
 <g id="Camada_x0020_1">
  <metadata id="CorelCorpID_0Corel-Layer"/>
  <g id="_2759109419712">
   <g style="clip-path:url(#id0)">
    <polygon class="fil0" style="mask:url(#id1)" points="0,0 1599.95,0 1599.95,899.99 0,899.99 "/>
   </g>
   <g style="clip-path:url(#id3)">
    <g>
     <polygon id="_1" class="fil1 str0" points="-165.29,-38.43 1650.05,-38.43 1650.05,915.49 -165.29,915.49 "/>
    </g>
   </g>
   <polygon class="fil2" points="0,0 1599.95,0 1599.95,899.99 0,899.99 "/>
   <polygon class="fil3" points="1510.09,854.95 1600.11,854.95 1600.11,824.95 1510.09,824.95 "/>
   <polygon class="fil4" points="1465.92,854.95 1502.59,854.95 1502.59,824.95 1465.92,824.95 "/>
   <path class="fil5" d="M1472.93 839.95c0,-2.68 0.41,-4.68 1.23,-6 0.83,-1.31 2.17,-1.97 4.03,-1.97 1.87,0 3.21,0.66 4.04,1.97 0.82,1.31 1.24,3.31 1.24,6 0,2.69 -0.41,4.69 -1.24,6 -0.82,1.31 -2.17,1.97 -4.04,1.97 -1.86,0 -3.2,-0.66 -4.03,-1.97 -0.82,-1.31 -1.23,-3.31 -1.23,-6zm3.13 -1.51c-0.02,0.42 -0.03,0.92 -0.03,1.51 0,0.58 0.01,1.09 0.03,1.52 0.02,0.42 0.06,0.83 0.11,1.24 0.05,0.4 0.13,0.74 0.23,1.01 0.1,0.26 0.23,0.5 0.39,0.7 0.17,0.21 0.36,0.36 0.59,0.45 0.23,0.1 0.5,0.15 0.81,0.15 0.37,0 0.69,-0.08 0.95,-0.23 0.26,-0.15 0.47,-0.35 0.64,-0.61 0.16,-0.26 0.28,-0.61 0.37,-1.05 0.09,-0.44 0.15,-0.91 0.18,-1.39 0.03,-0.49 0.04,-1.09 0.04,-1.79 0,-0.59 -0.01,-1.09 -0.03,-1.51 -0.02,-0.42 -0.06,-0.84 -0.11,-1.24 -0.06,-0.4 -0.14,-0.74 -0.24,-1.01 -0.1,-0.27 -0.24,-0.5 -0.39,-0.71 -0.16,-0.21 -0.35,-0.36 -0.59,-0.45 -0.23,-0.1 -0.51,-0.15 -0.82,-0.15 -0.31,0 -0.58,0.05 -0.81,0.15 -0.23,0.09 -0.42,0.24 -0.58,0.45 -0.16,0.21 -0.29,0.44 -0.39,0.71 -0.11,0.27 -0.19,0.61 -0.24,1.01 -0.05,0.4 -0.09,0.82 -0.11,1.24z"/>
   <polygon id="_1_0" class="fil5" points="1485.1,835.01 1485.1,832.27 1495.24,832.27 1495.24,834.64 1490.21,847.63 1486.88,847.63 1491.97,835.01 "/>
  </g>
  <path class="fil6" d="M129.77 187.01c0,-4.65 0,-7.39 1.19,-9.35 1.09,-1.82 3.24,-2.92 5.79,-2.92 2.56,0 4.7,1.1 5.8,2.92 1.18,1.96 1.18,4.7 1.18,9.35 0,4.66 0,7.39 -1.18,9.36 -1.1,1.82 -3.24,2.91 -5.8,2.91 -2.55,0 -4.7,-1.09 -5.79,-2.91 -1.19,-1.97 -1.19,-4.7 -1.19,-9.36zm-3.37 0c0,5.39 0,8.26 1.64,10.95 1.69,2.79 4.88,4.52 8.71,4.52 3.83,0 7.03,-1.73 8.72,-4.52 1.64,-2.69 1.64,-5.56 1.64,-10.95 0,-5.38 0,-8.25 -1.64,-10.95 -1.69,-2.78 -4.89,-4.51 -8.72,-4.51 -3.83,0 -7.02,1.73 -8.71,4.51 -1.64,2.7 -1.64,5.57 -1.64,10.95z"/>
  <path id="_1_1" class="fil6" d="M172.06 183.14c1.64,0 3.19,0.59 4.06,1.64 1.1,1.28 1.1,3.19 1.1,5.61 0,3.38 0,5.88 -1.37,7.48 -0.82,0.96 -2.15,1.6 -3.88,1.6 -1.73,0 -3.06,-0.64 -3.88,-1.6 -1.37,-1.6 -1.37,-4.1 -1.37,-6.66 0,-2.6 0,-4.93 1.46,-6.57 0.83,-0.91 2.19,-1.5 3.88,-1.5zm0 -3.02c-2.74,0 -4.92,1.05 -6.34,2.61 -2.19,2.46 -2.19,5.65 -2.19,8.48 0,3.1 0,6.11 2.05,8.58 1.33,1.59 3.47,2.69 6.16,2.69 2.24,0 4.25,-1.05 5.48,-2.78l0 10.85 3.19 0 0 -19.7c0,-3.7 0,-5.84 -1.82,-7.99 -1.78,-2.1 -4.43,-2.74 -6.53,-2.74z"/>
  <path id="_2" class="fil6" d="M185.43 180.4l0 11.68c0,3.19 0,5.84 2.14,8.07 1.1,1.14 3.06,2.33 5.84,2.33 2.78,0 4.75,-1.19 5.84,-2.33 2.14,-2.23 2.14,-4.88 2.14,-8.07l0 -11.68 -3.19 0 0 11.68c0,2.83 0,4.74 -1.32,6.06 -0.78,0.78 -1.96,1.33 -3.47,1.33 -1.5,0 -2.69,-0.55 -3.47,-1.33 -1.32,-1.32 -1.32,-3.23 -1.32,-6.06l0 -11.68 -3.19 0z"/>
  <path id="_3" class="fil6" d="M210.25 197.55c-1.05,-1.41 -1.05,-4.1 -1.05,-5.29l4.19 0c3.24,0 5.2,0 7.12,-1.37 1.28,-0.91 2.28,-2.46 2.28,-4.47 -0.05,-1.78 -0.91,-3.47 -2.28,-4.61 -1.37,-1.09 -3.19,-1.69 -5.47,-1.69 -3.24,0 -5.98,1.19 -7.44,3.24 -1.64,2.28 -1.64,4.38 -1.64,7.94 0,2.97 0,5.7 1.73,8.08 1.46,1.96 3.97,3.1 7.12,3.1 2.37,0 4.74,-0.5 6.89,-1.6l-1.33 -2.74c-1.64,0.87 -3.6,1.33 -5.56,1.33 -2.19,0 -3.65,-0.69 -4.56,-1.92zm9.35 -11.13c0,1.05 -0.5,1.83 -1.1,2.28 -0.96,0.73 -2.23,0.73 -5.11,0.73l-4.19 0c0,-0.91 0,-3.19 1.14,-4.52 1,-1.18 2.64,-1.77 4.7,-1.77 1.41,0 2.6,0.32 3.37,0.95 0.69,0.55 1.14,1.46 1.19,2.33z"/>
  <path id="_4" class="fil6" d="M253.72 193.08l0 -3.38c0,-2.41 0,-5.1 -1.82,-7.16 -1.37,-1.55 -3.43,-2.42 -6.16,-2.42 -2.47,0 -4.79,0.55 -6.94,1.33l1.01 2.87c1.91,-0.73 3.92,-1.18 5.93,-1.18 1.73,0 2.92,0.45 3.69,1.32 1.1,1.23 1.1,3.06 1.1,4.47l-3.74 0c-1.78,0 -4.34,0 -6.48,1.55 -1.46,1.05 -2.69,2.83 -2.69,5.25 0,2.37 1.23,4.19 2.73,5.24 1.46,1.05 3.33,1.51 5.52,1.51 2.74,0 4.89,-0.78 6.25,-2.37 1.6,-1.87 1.6,-3.97 1.6,-7.03zm-3.19 0c0,2.69 0,4.11 -0.87,5.11 -0.77,0.91 -2.1,1.28 -3.79,1.28 -1.46,0 -2.73,-0.28 -3.6,-0.87 -0.82,-0.59 -1.46,-1.6 -1.46,-2.87 0,-1.42 0.69,-2.47 1.51,-3.06 1.27,-0.91 2.92,-0.91 4.47,-0.91l3.74 0 0 1.32z"/>
  <path id="_5" class="fil6" d="M271.74 181.63c-2.05,-0.96 -4.33,-1.51 -6.66,-1.51 -1.87,0 -3.47,0.42 -4.79,1.33 -1.32,0.91 -2.46,2.51 -2.46,4.61 0,1.96 1.05,3.6 2.41,4.65 1.37,1.05 3.02,1.46 4.48,1.78 1.46,0.32 2.6,0.59 3.6,1.32 0.73,0.55 1.28,1.42 1.28,2.46 0,0.78 -0.32,1.69 -1.19,2.33 -0.87,0.64 -2.01,0.87 -3.33,0.87 -2.1,0 -4.2,-0.46 -6.07,-1.33l-1.27 2.74c2.32,1.1 4.88,1.6 7.34,1.6 2.1,0 3.83,-0.46 5.25,-1.46 1.41,-1 2.46,-2.69 2.46,-4.75 0,-2.28 -1.28,-3.96 -2.69,-4.97 -1.28,-0.91 -2.78,-1.32 -4.43,-1.69 -1.64,-0.36 -2.6,-0.59 -3.51,-1.32 -0.64,-0.5 -1.14,-1.28 -1.14,-2.23 0,-1.01 0.55,-1.83 1.32,-2.29 0.78,-0.45 1.6,-0.63 2.74,-0.63 1.83,0 3.74,0.45 5.47,1.27l1.19 -2.78z"/>
  <path id="_6" class="fil6" d="M295.51 171.55c-2.56,0 -4.2,1.09 -5.25,2.51 -1.27,1.73 -1.27,3.69 -1.27,6.43l0 21.71 3.19 0 0 -18.97 5.47 0 0 -2.83 -5.47 0c0,-2.33 0,-3.65 0.68,-4.61 0.6,-0.82 1.46,-1.23 2.65,-1.23 0.77,0 1.69,0.18 2.78,0.46l0.73 -2.92c-1.09,-0.28 -2.23,-0.55 -3.51,-0.55z"/>
  <path id="_7" class="fil6" d="M304.82 197.55c-1.05,-1.41 -1.05,-4.1 -1.05,-5.29l4.19 0c3.24,0 5.2,0 7.12,-1.37 1.28,-0.91 2.28,-2.46 2.28,-4.47 -0.05,-1.78 -0.91,-3.47 -2.28,-4.61 -1.37,-1.09 -3.19,-1.69 -5.47,-1.69 -3.24,0 -5.98,1.19 -7.44,3.24 -1.64,2.28 -1.64,4.38 -1.64,7.94 0,2.97 0,5.7 1.73,8.08 1.46,1.96 3.97,3.1 7.12,3.1 2.37,0 4.74,-0.5 6.89,-1.6l-1.33 -2.74c-1.64,0.87 -3.6,1.33 -5.56,1.33 -2.19,0 -3.65,-0.69 -4.56,-1.92zm9.35 -11.13c0,1.05 -0.5,1.83 -1.1,2.28 -0.96,0.73 -2.23,0.73 -5.11,0.73l-4.19 0c0,-0.91 0,-3.19 1.14,-4.52 1,-1.18 2.64,-1.77 4.7,-1.77 1.41,0 2.6,0.32 3.37,0.95 0.69,0.55 1.14,1.46 1.19,2.33z"/>
  <path id="_8" class="fil6" d="M330.04 180.12c-2.1,0 -4.74,0.64 -6.52,2.74 -1.83,2.15 -1.83,4.29 -1.83,7.99l0 11.35 3.2 0 0 -11.35c0,-2.88 0,-4.79 1.09,-6.07 0.87,-1.05 2.42,-1.64 4.06,-1.64 0.78,0 1.51,0.13 2.15,0.36l0.96 -2.87c-0.92,-0.32 -1.97,-0.51 -3.11,-0.51z"/>
  <path id="_9" class="fil6" d="M344.55 180.12c-2.1,0 -4.74,0.64 -6.52,2.74 -1.83,2.15 -1.83,4.29 -1.83,7.99l0 11.35 3.19 0 0 -11.35c0,-2.88 0,-4.79 1.1,-6.07 0.87,-1.05 2.42,-1.64 4.06,-1.64 0.78,0 1.51,0.13 2.14,0.36l0.96 -2.87c-0.91,-0.32 -1.96,-0.51 -3.1,-0.51z"/>
  <path id="_10" class="fil6" d="M365.9 193.08l0 -3.38c0,-2.41 0,-5.1 -1.82,-7.16 -1.37,-1.55 -3.43,-2.42 -6.16,-2.42 -2.47,0 -4.79,0.55 -6.94,1.33l1.01 2.87c1.91,-0.73 3.92,-1.18 5.93,-1.18 1.73,0 2.92,0.45 3.69,1.32 1.1,1.23 1.1,3.06 1.1,4.47l-3.74 0c-1.78,0 -4.34,0 -6.48,1.55 -1.46,1.05 -2.69,2.83 -2.69,5.25 0,2.37 1.23,4.19 2.73,5.24 1.46,1.05 3.33,1.51 5.52,1.51 2.74,0 4.88,-0.78 6.25,-2.37 1.6,-1.87 1.6,-3.97 1.6,-7.03zm-3.19 0c0,2.69 0,4.11 -0.87,5.11 -0.78,0.91 -2.1,1.28 -3.79,1.28 -1.46,0 -2.73,-0.28 -3.6,-0.87 -0.82,-0.59 -1.46,-1.6 -1.46,-2.87 0,-1.42 0.68,-2.47 1.51,-3.06 1.27,-0.91 2.91,-0.91 4.47,-0.91l3.74 0 0 1.32z"/>
  <path id="_11" class="fil6" d="M378.22 180.12c-2.15,0 -4.02,0.78 -5.25,1.97 -2.28,2.19 -2.28,5.01 -2.28,8.44l0 11.67 3.19 0 0 -11.67c0,-3.01 0,-5.07 1.37,-6.34 0.69,-0.64 1.74,-1.05 2.97,-1.05 1.23,0 2.28,0.41 2.96,1.05 1.37,1.27 1.37,3.33 1.37,6.34l0 11.67 3.19 0 0 -11.67c0,-3.01 0,-5.07 1.37,-6.34 0.69,-0.64 1.74,-1.05 2.97,-1.05 1.23,0 2.28,0.41 2.96,1.05 1.37,1.27 1.37,3.33 1.37,6.34l0 11.67 3.2 0 0 -11.67c0,-3.43 0,-6.25 -2.29,-8.44 -1.23,-1.19 -3.1,-1.97 -5.24,-1.97 -2.6,0 -4.7,1.15 -5.93,3.2 -1.23,-2.05 -3.33,-3.2 -5.93,-3.2z"/>
  <path id="_12" class="fil6" d="M406.46 197.55c-1.05,-1.41 -1.05,-4.1 -1.05,-5.29l4.19 0c3.24,0 5.2,0 7.12,-1.37 1.28,-0.91 2.28,-2.46 2.28,-4.47 -0.04,-1.78 -0.91,-3.47 -2.28,-4.61 -1.37,-1.09 -3.19,-1.69 -5.47,-1.69 -3.24,0 -5.98,1.19 -7.44,3.24 -1.64,2.28 -1.64,4.38 -1.64,7.94 0,2.97 0,5.7 1.73,8.08 1.46,1.96 3.97,3.1 7.12,3.1 2.37,0 4.74,-0.5 6.89,-1.6l-1.33 -2.74c-1.64,0.87 -3.6,1.33 -5.56,1.33 -2.19,0 -3.65,-0.69 -4.56,-1.92zm9.35 -11.13c0,1.05 -0.5,1.83 -1.1,2.28 -0.96,0.73 -2.23,0.73 -5.11,0.73l-4.19 0c0,-0.91 0,-3.19 1.14,-4.52 1,-1.18 2.64,-1.77 4.7,-1.77 1.41,0 2.6,0.32 3.37,0.95 0.69,0.55 1.14,1.46 1.19,2.33z"/>
  <path id="_13" class="fil6" d="M431.32 180.12c-2.78,0 -4.75,1.19 -5.84,2.33 -2.14,2.24 -2.14,4.88 -2.14,8.08l0 11.67 3.19 0 0 -11.67c0,-2.83 0,-4.75 1.32,-6.07 0.78,-0.78 1.96,-1.32 3.47,-1.32 1.5,0 2.69,0.54 3.47,1.32 1.32,1.32 1.32,3.24 1.32,6.07l0 11.67 3.19 0 0 -11.67c0,-3.2 0,-5.84 -2.14,-8.08 -1.1,-1.14 -3.06,-2.33 -5.84,-2.33z"/>
  <path id="_14" class="fil6" d="M447.74 194.45l0 -11.22 5.48 0 0 -2.83 -5.48 0 0 -5.16 -3.19 0 0 19.21c0,2.6 0,4.33 1.28,5.93 1,1.28 2.69,2.1 4.69,2.1 1.65,0 3.11,-0.55 4.34,-1.19l-1.37 -2.69c-1.05,0.55 -2.1,0.87 -2.97,0.87 -1,0 -1.68,-0.37 -2.14,-0.91 -0.64,-0.83 -0.64,-1.65 -0.64,-4.11z"/>
  <path id="_15" class="fil6" d="M473.84 193.08l0 -3.38c0,-2.41 0,-5.1 -1.83,-7.16 -1.37,-1.55 -3.42,-2.42 -6.16,-2.42 -2.46,0 -4.79,0.55 -6.93,1.33l1 2.87c1.92,-0.73 3.93,-1.18 5.93,-1.18 1.74,0 2.92,0.45 3.7,1.32 1.09,1.23 1.09,3.06 1.09,4.47l-3.74 0c-1.78,0 -4.33,0 -6.48,1.55 -1.46,1.05 -2.69,2.83 -2.69,5.25 0,2.37 1.23,4.19 2.74,5.24 1.46,1.05 3.33,1.51 5.52,1.51 2.74,0 4.88,-0.78 6.25,-2.37 1.6,-1.87 1.6,-3.97 1.6,-7.03zm-3.2 0c0,2.69 0,4.11 -0.86,5.11 -0.78,0.91 -2.1,1.28 -3.79,1.28 -1.46,0 -2.74,-0.28 -3.6,-0.87 -0.83,-0.59 -1.46,-1.6 -1.46,-2.87 0,-1.42 0.68,-2.47 1.5,-3.06 1.28,-0.91 2.92,-0.91 4.47,-0.91l3.74 0 0 1.32z"/>
  <path id="_16" class="fil6" d="M491.86 181.63c-2.06,-0.96 -4.34,-1.51 -6.66,-1.51 -1.88,0 -3.47,0.42 -4.79,1.33 -1.33,0.91 -2.47,2.51 -2.47,4.61 0,1.96 1.05,3.6 2.42,4.65 1.37,1.05 3.01,1.46 4.47,1.78 1.46,0.32 2.6,0.59 3.6,1.32 0.73,0.55 1.28,1.42 1.28,2.46 0,0.78 -0.32,1.69 -1.18,2.33 -0.87,0.64 -2.01,0.87 -3.33,0.87 -2.1,0 -4.2,-0.46 -6.07,-1.33l-1.28 2.74c2.33,1.1 4.88,1.6 7.35,1.6 2.09,0 3.83,-0.46 5.24,-1.46 1.42,-1 2.46,-2.69 2.46,-4.75 0,-2.28 -1.27,-3.96 -2.69,-4.97 -1.27,-0.91 -2.78,-1.32 -4.42,-1.69 -1.64,-0.36 -2.6,-0.59 -3.51,-1.32 -0.64,-0.5 -1.14,-1.28 -1.14,-2.23 0,-1.01 0.54,-1.83 1.32,-2.29 0.77,-0.45 1.59,-0.63 2.74,-0.63 1.82,0 3.74,0.45 5.47,1.27l1.19 -2.78z"/>
  <path id="_17" class="fil6" d="M516.4 180.12c-2.69,0 -4.84,1.1 -6.16,2.7 -2.05,2.46 -2.05,5.47 -2.05,8.57 0,2.79 0,5.98 2.55,8.58 1.42,1.41 3.61,2.51 6.34,2.51 2.88,0 5.16,-1.23 6.44,-3.01 1.55,-2.15 1.55,-4.43 1.55,-7.85l0 -19.84 -3.2 0 0 11.13c-1.23,-1.74 -3.24,-2.79 -5.47,-2.79zm5.47 12.09c0,2.42 0,4.38 -1.09,5.71 -0.91,1.09 -2.28,1.55 -3.7,1.55 -1.55,0 -3.1,-0.55 -4.1,-1.64 -1.6,-1.74 -1.6,-4.11 -1.6,-6.44 0,-2.55 0,-5.06 1.37,-6.66 0.82,-0.96 2.14,-1.59 3.88,-1.59 1.73,0 3.05,0.63 3.88,1.59 1.36,1.6 1.36,4.11 1.36,7.48z"/>
  <path id="_18" class="fil6" d="M533.92 197.55c-1.05,-1.41 -1.05,-4.1 -1.05,-5.29l4.19 0c3.24,0 5.21,0 7.12,-1.37 1.28,-0.91 2.28,-2.46 2.28,-4.47 -0.04,-1.78 -0.91,-3.47 -2.28,-4.61 -1.37,-1.09 -3.19,-1.69 -5.47,-1.69 -3.24,0 -5.98,1.19 -7.44,3.24 -1.64,2.28 -1.64,4.38 -1.64,7.94 0,2.97 0,5.7 1.73,8.08 1.46,1.96 3.97,3.1 7.12,3.1 2.37,0 4.74,-0.5 6.89,-1.6l-1.33 -2.74c-1.64,0.87 -3.6,1.33 -5.56,1.33 -2.19,0 -3.65,-0.69 -4.56,-1.92zm9.35 -11.13c0,1.05 -0.5,1.83 -1.1,2.28 -0.95,0.73 -2.23,0.73 -5.11,0.73l-4.19 0c0,-0.91 0,-3.19 1.14,-4.52 1,-1.18 2.64,-1.77 4.7,-1.77 1.41,0 2.6,0.32 3.37,0.95 0.69,0.55 1.14,1.46 1.19,2.33z"/>
  <path id="_19" class="fil6" d="M570.28 183.14c1.64,0 3.19,0.59 4.06,1.64 1.09,1.28 1.09,3.19 1.09,5.61 0,3.38 0,5.88 -1.37,7.48 -0.82,0.96 -2.14,1.6 -3.88,1.6 -1.73,0 -3.05,-0.64 -3.87,-1.6 -1.37,-1.6 -1.37,-4.1 -1.37,-6.66 0,-2.6 0,-4.93 1.46,-6.57 0.82,-0.91 2.19,-1.5 3.88,-1.5zm0 -3.02c-2.74,0 -4.93,1.05 -6.34,2.61 -2.19,2.46 -2.19,5.65 -2.19,8.48 0,3.1 0,6.11 2.05,8.58 1.32,1.59 3.47,2.69 6.16,2.69 2.23,0 4.24,-1.05 5.47,-2.78l0 0.45c0,2.78 0,4.43 -1.09,5.8 -0.87,1.09 -2.38,1.87 -4.61,1.87 -1.92,0 -3.83,-0.55 -5.34,-1.37l-1.32 2.73c2.01,1.1 4.42,1.65 6.66,1.65 3.01,0 5.34,-1.05 6.8,-2.65 2.09,-2.28 2.09,-4.79 2.09,-8.03l0 -9.3c0,-3.7 0,-5.84 -1.82,-7.99 -1.78,-2.1 -4.43,-2.74 -6.52,-2.74z"/>
  <path id="_20" class="fil6" d="M587.47 197.55c-1.04,-1.41 -1.04,-4.1 -1.04,-5.29l4.19 0c3.24,0 5.2,0 7.12,-1.37 1.28,-0.91 2.28,-2.46 2.28,-4.47 -0.05,-1.78 -0.91,-3.47 -2.28,-4.61 -1.37,-1.09 -3.19,-1.69 -5.48,-1.69 -3.23,0 -5.97,1.19 -7.43,3.24 -1.64,2.28 -1.64,4.38 -1.64,7.94 0,2.97 0,5.7 1.73,8.08 1.46,1.96 3.97,3.1 7.12,3.1 2.37,0 4.74,-0.5 6.89,-1.6l-1.33 -2.74c-1.64,0.87 -3.6,1.33 -5.56,1.33 -2.19,0 -3.65,-0.69 -4.57,-1.92zm9.36 -11.13c0,1.05 -0.51,1.83 -1.1,2.28 -0.96,0.73 -2.23,0.73 -5.11,0.73l-4.19 0c0,-0.91 0,-3.19 1.14,-4.52 1,-1.18 2.64,-1.77 4.69,-1.77 1.42,0 2.61,0.32 3.38,0.95 0.68,0.55 1.14,1.46 1.19,2.33z"/>
  <path id="_21" class="fil6" d="M617.58 181.63c-2.05,-0.96 -4.33,-1.51 -6.66,-1.51 -1.87,0 -3.46,0.42 -4.79,1.33 -1.32,0.91 -2.46,2.51 -2.46,4.61 0,1.96 1.05,3.6 2.42,4.65 1.37,1.05 3.01,1.46 4.47,1.78 1.46,0.32 2.6,0.59 3.6,1.32 0.73,0.55 1.28,1.42 1.28,2.46 0,0.78 -0.32,1.69 -1.19,2.33 -0.86,0.64 -2,0.87 -3.33,0.87 -2.1,0 -4.19,-0.46 -6.06,-1.33l-1.28 2.74c2.32,1.1 4.88,1.6 7.34,1.6 2.1,0 3.84,-0.46 5.25,-1.46 1.41,-1 2.46,-2.69 2.46,-4.75 0,-2.28 -1.27,-3.96 -2.69,-4.97 -1.28,-0.91 -2.78,-1.32 -4.42,-1.69 -1.65,-0.36 -2.6,-0.59 -3.52,-1.32 -0.63,-0.5 -1.14,-1.28 -1.14,-2.23 0,-1.01 0.55,-1.83 1.33,-2.29 0.77,-0.45 1.59,-0.63 2.73,-0.63 1.83,0 3.74,0.45 5.48,1.27l1.18 -2.78z"/>
  <path id="_22" class="fil6" d="M626.39 194.45l0 -11.22 5.47 0 0 -2.83 -5.47 0 0 -5.16 -3.2 0 0 19.21c0,2.6 0,4.33 1.28,5.93 1.01,1.28 2.69,2.1 4.7,2.1 1.64,0 3.1,-0.55 4.34,-1.19l-1.37 -2.69c-1.05,0.55 -2.1,0.87 -2.97,0.87 -1,0 -1.69,-0.37 -2.14,-0.91 -0.64,-0.83 -0.64,-1.65 -0.64,-4.11z"/>
  <path id="_23" class="fil6" d="M647.46 177.11c2.24,0 4.02,-1.64 4.02,-3.83l-2.56 0c0,0.87 -0.63,1.46 -1.46,1.46 -0.82,0 -1.46,-0.41 -2.14,-0.73 -0.87,-0.45 -1.96,-1 -3.33,-1 -2.24,0 -4.01,1.64 -4.01,3.83l2.55 0c0,-0.87 0.64,-1.46 1.46,-1.46 0.82,0 1.46,0.41 2.14,0.73 0.87,0.46 2.01,1 3.33,1zm5.02 15.97l0 -3.38c0,-2.41 0,-5.1 -1.82,-7.16 -1.37,-1.55 -3.42,-2.42 -6.16,-2.42 -2.46,0 -4.79,0.55 -6.94,1.33l1.01 2.87c1.91,-0.73 3.92,-1.18 5.93,-1.18 1.73,0 2.92,0.45 3.69,1.32 1.1,1.23 1.1,3.06 1.1,4.47l-3.74 0c-1.78,0 -4.34,0 -6.48,1.55 -1.46,1.05 -2.69,2.83 -2.69,5.25 0,2.37 1.23,4.19 2.74,5.24 1.46,1.05 3.33,1.51 5.52,1.51 2.73,0 4.88,-0.78 6.25,-2.37 1.59,-1.87 1.59,-3.97 1.59,-7.03zm-3.19 0c0,2.69 0,4.11 -0.87,5.11 -0.77,0.91 -2.1,1.28 -3.78,1.28 -1.46,0 -2.74,-0.28 -3.61,-0.87 -0.82,-0.59 -1.46,-1.6 -1.46,-2.87 0,-1.42 0.69,-2.47 1.51,-3.06 1.28,-0.91 2.92,-0.91 4.47,-0.91l3.74 0 0 1.32z"/>
  <path id="_24" class="fil6" d="M665.48 183.14c2.01,0 3.56,0.82 4.47,2.19 1.01,1.5 1.01,3.65 1.01,5.97 0,2.33 0,4.47 -1.01,5.98 -0.91,1.37 -2.46,2.19 -4.47,2.19 -2,0 -3.55,-0.82 -4.47,-2.19 -1,-1.51 -1,-3.65 -1,-5.98 0,-2.32 0,-4.47 1,-5.97 0.92,-1.37 2.47,-2.19 4.47,-2.19zm0 -3.02c-3.24,0 -5.88,1.46 -7.34,3.88 -1.32,2.19 -1.32,4.7 -1.32,7.3 0,2.6 0,5.11 1.32,7.3 1.46,2.42 4.1,3.88 7.34,3.88 3.24,0 5.89,-1.46 7.35,-3.88 1.32,-2.19 1.32,-4.7 1.32,-7.3 0,-2.6 0,-5.11 -1.32,-7.3 -1.46,-2.42 -4.11,-3.88 -7.35,-3.88z"/>
  <path id="_25" class="fil6" d="M697.87 180.12c-2.69,0 -4.83,1.1 -6.15,2.7 -2.06,2.46 -2.06,5.47 -2.06,8.57 0,2.79 0,5.98 2.56,8.58 1.41,1.41 3.6,2.51 6.34,2.51 2.87,0 5.15,-1.23 6.43,-3.01 1.55,-2.15 1.55,-4.43 1.55,-7.85l0 -19.84 -3.19 0 0 11.13c-1.23,-1.74 -3.24,-2.79 -5.48,-2.79zm5.48 12.09c0,2.42 0,4.38 -1.1,5.71 -0.91,1.09 -2.28,1.55 -3.69,1.55 -1.55,0 -3.1,-0.55 -4.11,-1.64 -1.59,-1.74 -1.59,-4.11 -1.59,-6.44 0,-2.55 0,-5.06 1.36,-6.66 0.83,-0.96 2.15,-1.59 3.88,-1.59 1.74,0 3.06,0.63 3.88,1.59 1.37,1.6 1.37,4.11 1.37,7.48z"/>
  <path id="_26" class="fil6" d="M715.39 197.55c-1.05,-1.41 -1.05,-4.1 -1.05,-5.29l4.2 0c3.24,0 5.2,0 7.12,-1.37 1.27,-0.91 2.28,-2.46 2.28,-4.47 -0.05,-1.78 -0.92,-3.47 -2.28,-4.61 -1.37,-1.09 -3.2,-1.69 -5.48,-1.69 -3.24,0 -5.97,1.19 -7.43,3.24 -1.65,2.28 -1.65,4.38 -1.65,7.94 0,2.97 0,5.7 1.74,8.08 1.46,1.96 3.97,3.1 7.11,3.1 2.38,0 4.75,-0.5 6.89,-1.6l-1.32 -2.74c-1.64,0.87 -3.6,1.33 -5.57,1.33 -2.19,0 -3.65,-0.69 -4.56,-1.92zm9.35 -11.13c0,1.05 -0.5,1.83 -1.09,2.28 -0.96,0.73 -2.24,0.73 -5.11,0.73l-4.2 0c0,-0.91 0,-3.19 1.14,-4.52 1.01,-1.18 2.65,-1.77 4.7,-1.77 1.42,0 2.6,0.32 3.38,0.95 0.68,0.55 1.14,1.46 1.18,2.33z"/>
  <path id="_27" class="fil6" d="M751.43 180.12c-2.69,0 -4.83,1.1 -6.16,2.7 -2.05,2.46 -2.05,5.47 -2.05,8.57 0,2.79 0,5.98 2.55,8.58 1.42,1.41 3.61,2.51 6.35,2.51 2.87,0 5.15,-1.23 6.43,-3.01 1.55,-2.15 1.55,-4.43 1.55,-7.85l0 -19.84 -3.19 0 0 11.13c-1.24,-1.74 -3.24,-2.79 -5.48,-2.79zm5.48 12.09c0,2.42 0,4.38 -1.1,5.71 -0.91,1.09 -2.28,1.55 -3.69,1.55 -1.56,0 -3.11,-0.55 -4.11,-1.64 -1.6,-1.74 -1.6,-4.11 -1.6,-6.44 0,-2.55 0,-5.06 1.37,-6.66 0.82,-0.96 2.15,-1.59 3.88,-1.59 1.73,0 3.06,0.63 3.88,1.59 1.37,1.6 1.37,4.11 1.37,7.48z"/>
  <path id="_28" class="fil6" d="M773.33 183.14c2.01,0 3.56,0.82 4.47,2.19 1,1.5 1,3.65 1,5.97 0,2.33 0,4.47 -1,5.98 -0.91,1.37 -2.46,2.19 -4.47,2.19 -2.01,0 -3.56,-0.82 -4.47,-2.19 -1.01,-1.51 -1.01,-3.65 -1.01,-5.98 0,-2.32 0,-4.47 1.01,-5.97 0.91,-1.37 2.46,-2.19 4.47,-2.19zm0 -3.02c-3.24,0 -5.89,1.46 -7.35,3.88 -1.32,2.19 -1.32,4.7 -1.32,7.3 0,2.6 0,5.11 1.32,7.3 1.46,2.42 4.11,3.88 7.35,3.88 3.24,0 5.88,-1.46 7.34,-3.88 1.33,-2.19 1.33,-4.7 1.33,-7.3 0,-2.6 0,-5.11 -1.33,-7.3 -1.46,-2.42 -4.1,-3.88 -7.34,-3.88z"/>
  <path id="_29" class="fil6" d="M799.7 197.96c-1.46,1.01 -3.2,1.51 -4.93,1.51 -1.78,0 -3.15,-0.6 -4.01,-1.6 -1.46,-1.69 -1.46,-4.42 -1.46,-6.75 0,-2.01 0,-4.7 1.41,-6.34 1.09,-1.28 2.65,-1.64 4.06,-1.64 1.64,0 3.33,0.5 4.7,1.36l1.55 -2.6c-1.87,-1.18 -4.06,-1.78 -6.25,-1.78 -2.92,0 -5.11,1.1 -6.52,2.74 -2.15,2.47 -2.15,5.89 -2.15,8.26 0,2.69 0,6.2 2.19,8.67 1.42,1.59 3.56,2.69 6.48,2.69 2.33,0 4.65,-0.69 6.57,-1.96l-1.64 -2.56z"/>
  <path id="_30" class="fil6" d="M805.67 180.4l0 11.68c0,3.19 0,5.84 2.15,8.07 1.09,1.14 3.05,2.33 5.84,2.33 2.78,0 4.74,-1.19 5.84,-2.33 2.14,-2.23 2.14,-4.88 2.14,-8.07l0 -11.68 -3.19 0 0 11.68c0,2.83 0,4.74 -1.33,6.06 -0.77,0.78 -1.96,1.33 -3.46,1.33 -1.51,0 -2.7,-0.55 -3.47,-1.33 -1.32,-1.32 -1.32,-3.23 -1.32,-6.06l0 -11.68 -3.2 0z"/>
  <path id="_31" class="fil6" d="M834.19 180.12c-2.15,0 -4.02,0.78 -5.25,1.97 -2.28,2.19 -2.28,5.01 -2.28,8.44l0 11.67 3.19 0 0 -11.67c0,-3.01 0,-5.07 1.37,-6.34 0.68,-0.64 1.73,-1.05 2.97,-1.05 1.23,0 2.28,0.41 2.96,1.05 1.37,1.27 1.37,3.33 1.37,6.34l0 11.67 3.19 0 0 -11.67c0,-3.01 0,-5.07 1.37,-6.34 0.69,-0.64 1.73,-1.05 2.97,-1.05 1.23,0 2.28,0.41 2.96,1.05 1.37,1.27 1.37,3.33 1.37,6.34l0 11.67 3.19 0 0 -11.67c0,-3.43 0,-6.25 -2.28,-8.44 -1.23,-1.19 -3.1,-1.97 -5.24,-1.97 -2.6,0 -4.7,1.15 -5.93,3.2 -1.24,-2.05 -3.33,-3.2 -5.93,-3.2z"/>
  <path id="_32" class="fil6" d="M862.42 197.55c-1.05,-1.41 -1.05,-4.1 -1.05,-5.29l4.2 0c3.24,0 5.2,0 7.12,-1.37 1.28,-0.91 2.28,-2.46 2.28,-4.47 -0.05,-1.78 -0.91,-3.47 -2.28,-4.61 -1.37,-1.09 -3.2,-1.69 -5.48,-1.69 -3.24,0 -5.97,1.19 -7.43,3.24 -1.64,2.28 -1.64,4.38 -1.64,7.94 0,2.97 0,5.7 1.73,8.08 1.46,1.96 3.97,3.1 7.12,3.1 2.37,0 4.74,-0.5 6.88,-1.6l-1.32 -2.74c-1.64,0.87 -3.6,1.33 -5.56,1.33 -2.19,0 -3.65,-0.69 -4.57,-1.92zm9.36 -11.13c0,1.05 -0.51,1.83 -1.1,2.28 -0.96,0.73 -2.23,0.73 -5.11,0.73l-4.2 0c0,-0.91 0,-3.19 1.14,-4.52 1.01,-1.18 2.65,-1.77 4.7,-1.77 1.42,0 2.6,0.32 3.38,0.95 0.68,0.55 1.14,1.46 1.19,2.33z"/>
  <path id="_33" class="fil6" d="M887.29 180.12c-2.79,0 -4.75,1.19 -5.84,2.33 -2.15,2.24 -2.15,4.88 -2.15,8.08l0 11.67 3.2 0 0 -11.67c0,-2.83 0,-4.75 1.32,-6.07 0.77,-0.78 1.96,-1.32 3.47,-1.32 1.5,0 2.69,0.54 3.46,1.32 1.33,1.32 1.33,3.24 1.33,6.07l0 11.67 3.19 0 0 -11.67c0,-3.2 0,-5.84 -2.14,-8.08 -1.1,-1.14 -3.06,-2.33 -5.84,-2.33z"/>
  <path id="_34" class="fil6" d="M903.71 194.45l0 -11.22 5.47 0 0 -2.83 -5.47 0 0 -5.16 -3.19 0 0 19.21c0,2.6 0,4.33 1.27,5.93 1.01,1.28 2.7,2.1 4.7,2.1 1.64,0 3.1,-0.55 4.34,-1.19l-1.37 -2.69c-1.05,0.55 -2.1,0.87 -2.97,0.87 -1,0 -1.69,-0.37 -2.14,-0.91 -0.64,-0.83 -0.64,-1.65 -0.64,-4.11z"/>
  <path id="_35" class="fil6" d="M921.91 183.14c2.01,0 3.56,0.82 4.47,2.19 1.01,1.5 1.01,3.65 1.01,5.97 0,2.33 0,4.47 -1.01,5.98 -0.91,1.37 -2.46,2.19 -4.47,2.19 -2.01,0 -3.56,-0.82 -4.47,-2.19 -1,-1.51 -1,-3.65 -1,-5.98 0,-2.32 0,-4.47 1,-5.97 0.91,-1.37 2.46,-2.19 4.47,-2.19zm0 -3.02c-3.24,0 -5.88,1.46 -7.34,3.88 -1.33,2.19 -1.33,4.7 -1.33,7.3 0,2.6 0,5.11 1.33,7.3 1.46,2.42 4.1,3.88 7.34,3.88 3.24,0 5.89,-1.46 7.35,-3.88 1.32,-2.19 1.32,-4.7 1.32,-7.3 0,-2.6 0,-5.11 -1.32,-7.3 -1.46,-2.42 -4.11,-3.88 -7.35,-3.88z"/>
  <path id="_36" class="fil6" d="M948.37 181.63c-2.05,-0.96 -4.33,-1.51 -6.66,-1.51 -1.87,0 -3.47,0.42 -4.79,1.33 -1.32,0.91 -2.46,2.51 -2.46,4.61 0,1.96 1.05,3.6 2.41,4.65 1.37,1.05 3.02,1.46 4.48,1.78 1.46,0.32 2.6,0.59 3.6,1.32 0.73,0.55 1.28,1.42 1.28,2.46 0,0.78 -0.32,1.69 -1.19,2.33 -0.87,0.64 -2.01,0.87 -3.33,0.87 -2.1,0 -4.2,-0.46 -6.07,-1.33l-1.27 2.74c2.32,1.1 4.88,1.6 7.34,1.6 2.1,0 3.83,-0.46 5.25,-1.46 1.41,-1 2.46,-2.69 2.46,-4.75 0,-2.28 -1.28,-3.96 -2.69,-4.97 -1.28,-0.91 -2.78,-1.32 -4.43,-1.69 -1.64,-0.36 -2.6,-0.59 -3.51,-1.32 -0.64,-0.5 -1.14,-1.28 -1.14,-2.23 0,-1.01 0.55,-1.83 1.32,-2.29 0.78,-0.45 1.6,-0.63 2.74,-0.63 1.83,0 3.74,0.45 5.47,1.27l1.19 -2.78z"/>
  <path id="_37" class="fil6" d="M980.35 193.08l0 -3.38c0,-2.41 0,-5.1 -1.82,-7.16 -1.37,-1.55 -3.43,-2.42 -6.16,-2.42 -2.47,0 -4.79,0.55 -6.94,1.33l1.01 2.87c1.91,-0.73 3.92,-1.18 5.93,-1.18 1.73,0 2.92,0.45 3.69,1.32 1.1,1.23 1.1,3.06 1.1,4.47l-3.74 0c-1.78,0 -4.34,0 -6.48,1.55 -1.46,1.05 -2.69,2.83 -2.69,5.25 0,2.37 1.23,4.19 2.73,5.24 1.46,1.05 3.33,1.51 5.52,1.51 2.74,0 4.88,-0.78 6.25,-2.37 1.6,-1.87 1.6,-3.97 1.6,-7.03zm-3.19 0c0,2.69 0,4.11 -0.87,5.11 -0.78,0.91 -2.1,1.28 -3.79,1.28 -1.46,0 -2.73,-0.28 -3.6,-0.87 -0.82,-0.59 -1.46,-1.6 -1.46,-2.87 0,-1.42 0.68,-2.47 1.51,-3.06 1.27,-0.91 2.92,-0.91 4.47,-0.91l3.74 0 0 1.32z"/>
  <path id="_38" class="fil6" d="M988.56 194.45l0 -11.22 5.48 0 0 -2.83 -5.48 0 0 -5.16 -3.19 0 0 19.21c0,2.6 0,4.33 1.28,5.93 1,1.28 2.69,2.1 4.69,2.1 1.65,0 3.11,-0.55 4.34,-1.19l-1.37 -2.69c-1.05,0.55 -2.1,0.87 -2.97,0.87 -1,0 -1.68,-0.37 -2.14,-0.91 -0.64,-0.83 -0.64,-1.65 -0.64,-4.11z"/>
  <path id="_39" class="fil6" d="M999.01 180.4l0 11.68c0,3.19 0,5.84 2.14,8.07 1.1,1.14 3.06,2.33 5.84,2.33 2.79,0 4.75,-1.19 5.84,-2.33 2.15,-2.23 2.15,-4.88 2.15,-8.07l0 -11.68 -3.2 0 0 11.68c0,2.83 0,4.74 -1.32,6.06 -0.78,0.78 -1.96,1.33 -3.47,1.33 -1.5,0 -2.69,-0.55 -3.46,-1.33 -1.33,-1.32 -1.33,-3.23 -1.33,-6.06l0 -11.68 -3.19 0z"/>
  <path id="_40" class="fil6" d="M1035.19 193.08l0 -3.38c0,-2.41 0,-5.1 -1.83,-7.16 -1.37,-1.55 -3.42,-2.42 -6.16,-2.42 -2.46,0 -4.79,0.55 -6.93,1.33l1 2.87c1.92,-0.73 3.92,-1.18 5.93,-1.18 1.74,0 2.92,0.45 3.7,1.32 1.09,1.23 1.09,3.06 1.09,4.47l-3.74 0c-1.78,0 -4.33,0 -6.48,1.55 -1.46,1.05 -2.69,2.83 -2.69,5.25 0,2.37 1.23,4.19 2.74,5.24 1.46,1.05 3.33,1.51 5.52,1.51 2.74,0 4.88,-0.78 6.25,-2.37 1.6,-1.87 1.6,-3.97 1.6,-7.03zm-3.2 0c0,2.69 0,4.11 -0.86,5.11 -0.78,0.91 -2.1,1.28 -3.79,1.28 -1.46,0 -2.74,-0.28 -3.61,-0.87 -0.82,-0.59 -1.45,-1.6 -1.45,-2.87 0,-1.42 0.68,-2.47 1.5,-3.06 1.28,-0.91 2.92,-0.91 4.47,-0.91l3.74 0 0 1.32z"/>
  <path id="_41" class="fil6" d="M1042.03 172.6c-1.23,0 -2.15,0.86 -2.15,2.14 0,1.28 0.92,2.15 2.15,2.15 1.23,0 2.14,-0.87 2.14,-2.15 0,-1.28 -0.91,-2.14 -2.14,-2.14zm-1.6 29.6l3.2 0 0 -21.8 -3.2 0 0 21.8z"/>
  <path id="_42" class="fil6" d="M1062.33 181.63c-2.05,-0.96 -4.33,-1.51 -6.66,-1.51 -1.87,0 -3.47,0.42 -4.79,1.33 -1.32,0.91 -2.46,2.51 -2.46,4.61 0,1.96 1.04,3.6 2.41,4.65 1.37,1.05 3.01,1.46 4.47,1.78 1.46,0.32 2.6,0.59 3.61,1.32 0.73,0.55 1.27,1.42 1.27,2.46 0,0.78 -0.31,1.69 -1.18,2.33 -0.87,0.64 -2.01,0.87 -3.33,0.87 -2.1,0 -4.2,-0.46 -6.07,-1.33l-1.28 2.74c2.33,1.1 4.89,1.6 7.35,1.6 2.1,0 3.83,-0.46 5.24,-1.46 1.42,-1 2.47,-2.69 2.47,-4.75 0,-2.28 -1.28,-3.96 -2.69,-4.97 -1.28,-0.91 -2.79,-1.32 -4.43,-1.69 -1.64,-0.36 -2.6,-0.59 -3.51,-1.32 -0.64,-0.5 -1.14,-1.28 -1.14,-2.23 0,-1.01 0.55,-1.83 1.32,-2.29 0.78,-0.45 1.6,-0.63 2.74,-0.63 1.82,0 3.74,0.45 5.47,1.27l1.19 -2.78z"/>
  <path id="_43" class="fil6" d="M1087.33 183.14c2.01,0 3.56,0.82 4.47,2.19 1,1.5 1,3.65 1,5.97 0,2.33 0,4.47 -1,5.98 -0.91,1.37 -2.46,2.19 -4.47,2.19 -2.01,0 -3.56,-0.82 -4.47,-2.19 -1.01,-1.51 -1.01,-3.65 -1.01,-5.98 0,-2.32 0,-4.47 1.01,-5.97 0.91,-1.37 2.46,-2.19 4.47,-2.19zm0 -3.02c-3.24,0 -5.89,1.46 -7.35,3.88 -1.32,2.19 -1.32,4.7 -1.32,7.3 0,2.6 0,5.11 1.32,7.3 1.46,2.42 4.11,3.88 7.35,3.88 3.24,0 5.88,-1.46 7.34,-3.88 1.33,-2.19 1.33,-4.7 1.33,-7.3 0,-2.6 0,-5.11 -1.33,-7.3 -1.46,-2.42 -4.1,-3.88 -7.34,-3.88z"/>
  <path id="_44" class="fil6" d="M1107.54 171.55c-2.56,0 -4.2,1.09 -5.25,2.51 -1.28,1.73 -1.28,3.69 -1.28,6.43l0 21.71 3.2 0 0 -18.97 5.47 0 0 -2.83 -5.47 0c0,-2.33 0,-3.65 0.68,-4.61 0.6,-0.82 1.46,-1.23 2.65,-1.23 0.77,0 1.69,0.18 2.78,0.46l0.73 -2.92c-1.09,-0.28 -2.24,-0.55 -3.51,-0.55z"/>
  <path id="_45" class="fil6" d="M1116.84 197.55c-1.05,-1.41 -1.05,-4.1 -1.05,-5.29l4.2 0c3.24,0 5.2,0 7.12,-1.37 1.28,-0.91 2.28,-2.46 2.28,-4.47 -0.05,-1.78 -0.91,-3.47 -2.28,-4.61 -1.37,-1.09 -3.19,-1.69 -5.48,-1.69 -3.23,0 -5.97,1.19 -7.43,3.24 -1.64,2.28 -1.64,4.38 -1.64,7.94 0,2.97 0,5.7 1.73,8.08 1.46,1.96 3.97,3.1 7.12,3.1 2.37,0 4.74,-0.5 6.88,-1.6l-1.32 -2.74c-1.64,0.87 -3.6,1.33 -5.56,1.33 -2.19,0 -3.65,-0.69 -4.57,-1.92zm9.36 -11.13c0,1.05 -0.51,1.83 -1.1,2.28 -0.96,0.73 -2.23,0.73 -5.11,0.73l-4.2 0c0,-0.91 0,-3.19 1.15,-4.52 1,-1.18 2.64,-1.77 4.69,-1.77 1.42,0 2.6,0.32 3.38,0.95 0.68,0.55 1.14,1.46 1.19,2.33z"/>
  <path id="_46" class="fil6" d="M1142.07 180.12c-2.1,0 -4.74,0.64 -6.52,2.74 -1.83,2.15 -1.83,4.29 -1.83,7.99l0 11.35 3.2 0 0 -11.35c0,-2.88 0,-4.79 1.09,-6.07 0.87,-1.05 2.42,-1.64 4.06,-1.64 0.78,0 1.51,0.13 2.15,0.36l0.95 -2.87c-0.91,-0.32 -1.96,-0.51 -3.1,-0.51z"/>
  <path id="_47" class="fil6" d="M1152.06 197.55c-1.05,-1.41 -1.05,-4.1 -1.05,-5.29l4.2 0c3.24,0 5.2,0 7.12,-1.37 1.27,-0.91 2.28,-2.46 2.28,-4.47 -0.05,-1.78 -0.91,-3.47 -2.28,-4.61 -1.37,-1.09 -3.2,-1.69 -5.48,-1.69 -3.24,0 -5.97,1.19 -7.43,3.24 -1.65,2.28 -1.65,4.38 -1.65,7.94 0,2.97 0,5.7 1.74,8.08 1.46,1.96 3.97,3.1 7.11,3.1 2.38,0 4.75,-0.5 6.89,-1.6l-1.32 -2.74c-1.64,0.87 -3.6,1.33 -5.57,1.33 -2.19,0 -3.64,-0.69 -4.56,-1.92zm9.35 -11.13c0,1.05 -0.5,1.83 -1.09,2.28 -0.96,0.73 -2.24,0.73 -5.11,0.73l-4.2 0c0,-0.91 0,-3.19 1.14,-4.52 1.01,-1.18 2.65,-1.77 4.7,-1.77 1.42,0 2.6,0.32 3.38,0.95 0.68,0.55 1.14,1.46 1.18,2.33z"/>
  <path id="_48" class="fil6" d="M1182.08 197.96c-1.46,1.01 -3.19,1.51 -4.93,1.51 -1.78,0 -3.14,-0.6 -4.01,-1.6 -1.46,-1.69 -1.46,-4.42 -1.46,-6.75 0,-2.01 0,-4.7 1.41,-6.34 1.1,-1.28 2.65,-1.64 4.06,-1.64 1.65,0 3.33,0.5 4.7,1.36l1.55 -2.6c-1.87,-1.18 -4.06,-1.78 -6.25,-1.78 -2.92,0 -5.11,1.1 -6.52,2.74 -2.14,2.47 -2.14,5.89 -2.14,8.26 0,2.69 0,6.2 2.19,8.67 1.41,1.59 3.55,2.69 6.47,2.69 2.33,0 4.66,-0.69 6.57,-1.96l-1.64 -2.56z"/>
  <path id="_49" class="fil6" d="M1191.2 197.55c-1.05,-1.41 -1.05,-4.1 -1.05,-5.29l4.2 0c3.24,0 5.2,0 7.12,-1.37 1.28,-0.91 2.28,-2.46 2.28,-4.47 -0.05,-1.78 -0.91,-3.47 -2.28,-4.61 -1.37,-1.09 -3.19,-1.69 -5.48,-1.69 -3.23,0 -5.97,1.19 -7.43,3.24 -1.64,2.28 -1.64,4.38 -1.64,7.94 0,2.97 0,5.7 1.73,8.08 1.46,1.96 3.97,3.1 7.12,3.1 2.37,0 4.74,-0.5 6.88,-1.6l-1.32 -2.74c-1.64,0.87 -3.6,1.33 -5.56,1.33 -2.19,0 -3.65,-0.69 -4.57,-1.92zm9.36 -11.13c0,1.05 -0.51,1.83 -1.1,2.28 -0.96,0.73 -2.23,0.73 -5.11,0.73l-4.2 0c0,-0.91 0,-3.19 1.15,-4.52 1,-1.18 2.64,-1.77 4.69,-1.77 1.42,0 2.6,0.32 3.38,0.95 0.68,0.55 1.14,1.46 1.19,2.33z"/>
  <path id="_50" class="fil6" d="M1215.61 180.12c-2.14,0 -4.01,0.78 -5.25,1.97 -2.28,2.19 -2.28,5.01 -2.28,8.44l0 11.67 3.2 0 0 -11.67c0,-3.01 0,-5.07 1.37,-6.34 0.68,-0.64 1.73,-1.05 2.96,-1.05 1.23,0 2.28,0.41 2.97,1.05 1.36,1.27 1.36,3.33 1.36,6.34l0 11.67 3.2 0 0 -11.67c0,-3.01 0,-5.07 1.37,-6.34 0.68,-0.64 1.73,-1.05 2.96,-1.05 1.23,0 2.28,0.41 2.97,1.05 1.37,1.27 1.37,3.33 1.37,6.34l0 11.67 3.19 0 0 -11.67c0,-3.43 0,-6.25 -2.28,-8.44 -1.23,-1.19 -3.1,-1.97 -5.25,-1.97 -2.6,0 -4.7,1.15 -5.93,3.2 -1.23,-2.05 -3.33,-3.2 -5.93,-3.2z"/>
  <path id="_51" class="fil6" d="M1243.17 197.83c-1.37,0 -2.33,0.95 -2.33,2.32 0,1.37 0.96,2.33 2.33,2.33 1.36,0 2.32,-0.96 2.32,-2.33 0,-1.37 -0.96,-2.32 -2.32,-2.32zm-0.23 -26.28c-2.24,0 -5.02,0.59 -7.26,2.33l2.01 2.55c1.41,-1.14 3.38,-1.69 5.25,-1.69 1.64,0 2.96,0.37 3.97,1.19 1.18,0.96 1.78,2.46 1.78,3.92 0,1.78 -0.73,3.01 -1.88,4.02 -1.41,1.23 -4.1,2.64 -4.74,5.74 -0.18,0.87 -0.23,1.42 -0.23,2.38 0,0.82 0.09,2.5 0.09,2.5l2.47 0 0.09 -2.14c0.04,-1.09 0.18,-1.69 0.32,-2.1 0.68,-2 2.6,-2.69 4.24,-4.06 1.64,-1.37 3.01,-3.46 3.01,-6.34 0,-2.69 -1.28,-5.06 -3.06,-6.43 -1.55,-1.19 -3.46,-1.87 -6.06,-1.87l0 0z"/>
  <polygon class="fil3" points="358.16,110.51 1350.12,110.51 1350.12,105.78 358.16,105.78 "/>
  <g id="logo_x0020_dux-2022.eps">
   <path class="fil7" d="M1367.14 105.89c0.07,0 0.11,0.03 0.11,0.1l0 0.45c0,0.07 -0.04,0.11 -0.11,0.11l-2.38 0c-0.09,0 -0.16,0.02 -0.19,0.07 -0.04,0.05 -0.06,0.11 -0.06,0.19l0 0.17c0,0.17 0.08,0.26 0.25,0.26l1.78 0c0.27,0 0.48,0.07 0.62,0.21 0.14,0.14 0.21,0.35 0.21,0.61l0 0.38c0,0.23 -0.07,0.42 -0.2,0.56 -0.14,0.14 -0.35,0.21 -0.64,0.21l-2.63 0c-0.08,0 -0.11,-0.03 -0.11,-0.1l0 -0.45c0,-0.07 0.03,-0.11 0.11,-0.11l2.49 0c0.09,0 0.16,-0.02 0.2,-0.07 0.03,-0.04 0.05,-0.11 0.05,-0.19l0 -0.2c0,-0.17 -0.08,-0.26 -0.24,-0.26l-1.79 0c-0.27,0 -0.48,-0.07 -0.62,-0.21 -0.14,-0.15 -0.21,-0.35 -0.21,-0.61l0 -0.35c0,-0.23 0.07,-0.42 0.21,-0.56 0.13,-0.14 0.34,-0.21 0.63,-0.21l2.52 0z"/>
   <path class="fil7" d="M1373.17 107.91c0,0.12 0.01,0.23 0.03,0.31 0.02,0.08 0.05,0.15 0.1,0.2 0.05,0.05 0.11,0.08 0.19,0.1 0.09,0.02 0.19,0.03 0.31,0.03l1.41 0c0.13,0 0.23,-0.01 0.31,-0.03 0.08,-0.02 0.14,-0.05 0.19,-0.1 0.05,-0.05 0.08,-0.12 0.1,-0.2 0.02,-0.08 0.03,-0.19 0.03,-0.31l0 -0.72c0,-0.12 -0.01,-0.22 -0.03,-0.31 -0.02,-0.08 -0.05,-0.15 -0.1,-0.2 -0.05,-0.05 -0.11,-0.08 -0.19,-0.1 -0.08,-0.02 -0.18,-0.03 -0.31,-0.03l-1.41 0c-0.12,0 -0.22,0.01 -0.31,0.03 -0.08,0.02 -0.14,0.05 -0.19,0.1 -0.05,0.05 -0.08,0.12 -0.1,0.2 -0.02,0.09 -0.03,0.19 -0.03,0.31l0 0.72zm2.07 -2.02c0.24,0 0.45,0.02 0.62,0.07 0.17,0.04 0.3,0.12 0.41,0.21 0.11,0.1 0.18,0.23 0.23,0.39 0.05,0.16 0.07,0.35 0.07,0.58l0 0.82c0,0.23 -0.02,0.42 -0.07,0.58 -0.05,0.16 -0.12,0.29 -0.23,0.39 -0.11,0.1 -0.24,0.17 -0.41,0.22 -0.17,0.04 -0.38,0.06 -0.62,0.06l-1.47 0c-0.24,0 -0.44,-0.02 -0.61,-0.06 -0.17,-0.05 -0.31,-0.12 -0.41,-0.22 -0.11,-0.1 -0.19,-0.23 -0.23,-0.39 -0.05,-0.16 -0.08,-0.35 -0.08,-0.58l0 -0.82c0,-0.23 0.03,-0.42 0.08,-0.58 0.04,-0.16 0.12,-0.29 0.23,-0.39 0.1,-0.09 0.24,-0.17 0.41,-0.21 0.17,-0.05 0.37,-0.07 0.61,-0.07l1.47 0z"/>
   <path class="fil7" d="M1382.34 105.89c0.07,0 0.11,0.03 0.11,0.1l0 1.9c0,0.13 0.01,0.23 0.03,0.31 0.02,0.09 0.05,0.15 0.1,0.2 0.05,0.05 0.11,0.09 0.19,0.11 0.08,0.02 0.19,0.03 0.31,0.03l1.92 0c0.07,0 0.11,0.03 0.11,0.1l0 0.47c0,0.07 -0.04,0.1 -0.11,0.1l-1.95 0c-0.24,0 -0.44,-0.02 -0.61,-0.06 -0.17,-0.05 -0.31,-0.12 -0.41,-0.22 -0.11,-0.1 -0.19,-0.23 -0.24,-0.39 -0.05,-0.16 -0.07,-0.35 -0.07,-0.58l0 -1.97c0,-0.07 0.04,-0.1 0.11,-0.1l0.51 0z"/>
   <path class="fil7" d="M1390.65 105.89c0.07,0 0.11,0.03 0.11,0.1l0 1.9c0,0.13 0.01,0.23 0.03,0.31 0.02,0.09 0.05,0.15 0.1,0.2 0.05,0.05 0.11,0.09 0.19,0.11 0.08,0.02 0.18,0.03 0.31,0.03l1.31 0c0.13,0 0.23,-0.01 0.31,-0.03 0.08,-0.02 0.15,-0.06 0.19,-0.11 0.05,-0.05 0.08,-0.11 0.1,-0.2 0.02,-0.08 0.03,-0.18 0.03,-0.31l0 -1.9c0,-0.07 0.04,-0.1 0.11,-0.1l0.52 0c0.06,0 0.1,0.03 0.1,0.1l0 1.97c0,0.23 -0.02,0.42 -0.07,0.58 -0.05,0.16 -0.13,0.29 -0.23,0.39 -0.11,0.1 -0.25,0.17 -0.42,0.22 -0.17,0.04 -0.37,0.06 -0.61,0.06l-1.37 0c-0.24,0 -0.45,-0.02 -0.61,-0.06 -0.17,-0.05 -0.31,-0.12 -0.41,-0.22 -0.11,-0.1 -0.19,-0.23 -0.24,-0.39 -0.05,-0.16 -0.07,-0.35 -0.07,-0.58l0 -1.97c0,-0.07 0.04,-0.1 0.11,-0.1l0.51 0z"/>
   <path class="fil7" d="M1401.37 109.41c0.08,0 0.11,0.04 0.1,0.12l-0.21 0.87c-0.02,0.07 -0.06,0.11 -0.12,0.11l-0.27 0c-0.08,0 -0.12,-0.04 -0.11,-0.11l0.07 -0.88c0.01,-0.07 0.05,-0.11 0.12,-0.11l0.42 0zm1.32 -3.52c0.07,0 0.1,0.03 0.1,0.1l0 0.47c0,0.07 -0.03,0.11 -0.1,0.11l-2.12 0c-0.12,0 -0.22,0.01 -0.31,0.03 -0.08,0.02 -0.14,0.05 -0.19,0.1 -0.05,0.05 -0.08,0.12 -0.1,0.2 -0.02,0.08 -0.03,0.19 -0.03,0.31l0 0.68c0,0.13 0.01,0.23 0.03,0.31 0.02,0.09 0.05,0.15 0.1,0.2 0.05,0.05 0.11,0.09 0.19,0.11 0.09,0.02 0.19,0.03 0.31,0.03l2.12 0c0.07,0 0.1,0.03 0.1,0.1l0 0.47c0,0.07 -0.03,0.1 -0.1,0.1l-2.15 0c-0.24,0 -0.44,-0.02 -0.61,-0.06 -0.17,-0.05 -0.31,-0.12 -0.41,-0.22 -0.11,-0.1 -0.19,-0.23 -0.23,-0.39 -0.05,-0.16 -0.08,-0.35 -0.08,-0.58l0 -0.82c0,-0.23 0.03,-0.42 0.08,-0.58 0.04,-0.16 0.12,-0.29 0.23,-0.39 0.1,-0.09 0.24,-0.17 0.41,-0.21 0.17,-0.05 0.37,-0.07 0.61,-0.07l2.15 0z"/>
   <path class="fil7" d="M1408.76 105.68c-0.04,0 -0.06,-0.01 -0.07,-0.03 -0.01,-0.02 -0.01,-0.05 -0.01,-0.11 0,-0.12 0.01,-0.23 0.03,-0.32 0.02,-0.08 0.06,-0.15 0.1,-0.2 0.05,-0.05 0.11,-0.09 0.19,-0.11 0.07,-0.02 0.16,-0.03 0.27,-0.03 0.17,0 0.32,0.02 0.44,0.07 0.12,0.04 0.24,0.11 0.34,0.2 0.06,0.04 0.11,0.08 0.16,0.1 0.04,0.03 0.11,0.04 0.21,0.04 0.04,0 0.08,0 0.11,-0.01 0.03,-0.01 0.05,-0.03 0.06,-0.05 0.02,-0.03 0.03,-0.06 0.03,-0.11 0.01,-0.04 0.01,-0.09 0.01,-0.15 0.01,-0.07 0.05,-0.11 0.13,-0.11l0.27 0c0.04,0 0.06,0.01 0.07,0.03 0.01,0.02 0.02,0.06 0.02,0.11 0,0.13 -0.01,0.24 -0.03,0.32 -0.03,0.09 -0.06,0.16 -0.11,0.21 -0.05,0.05 -0.11,0.08 -0.19,0.1 -0.08,0.02 -0.17,0.03 -0.27,0.03 -0.17,0 -0.32,-0.02 -0.44,-0.06 -0.12,-0.05 -0.23,-0.12 -0.34,-0.2 -0.05,-0.05 -0.11,-0.08 -0.15,-0.11 -0.05,-0.03 -0.12,-0.04 -0.22,-0.04 -0.09,0 -0.15,0.02 -0.17,0.07 -0.03,0.04 -0.04,0.13 -0.04,0.26 0,0.07 -0.05,0.1 -0.13,0.1l-0.27 0zm-0.2 2.23c0,0.12 0.01,0.23 0.03,0.31 0.02,0.08 0.05,0.15 0.1,0.2 0.05,0.05 0.11,0.08 0.19,0.1 0.08,0.02 0.18,0.03 0.31,0.03l1.41 0c0.12,0 0.23,-0.01 0.31,-0.03 0.08,-0.02 0.14,-0.05 0.19,-0.1 0.05,-0.05 0.08,-0.12 0.1,-0.2 0.02,-0.08 0.03,-0.19 0.03,-0.31l0 -0.72c0,-0.12 -0.01,-0.22 -0.03,-0.31 -0.02,-0.08 -0.05,-0.15 -0.1,-0.2 -0.05,-0.05 -0.11,-0.08 -0.19,-0.1 -0.08,-0.02 -0.19,-0.03 -0.31,-0.03l-1.41 0c-0.13,0 -0.23,0.01 -0.31,0.03 -0.08,0.02 -0.14,0.05 -0.19,0.1 -0.05,0.05 -0.08,0.12 -0.1,0.2 -0.02,0.09 -0.03,0.19 -0.03,0.31l0 0.72zm2.07 -2.02c0.24,0 0.44,0.02 0.61,0.07 0.17,0.04 0.31,0.12 0.42,0.21 0.1,0.1 0.18,0.23 0.23,0.39 0.05,0.16 0.07,0.35 0.07,0.58l0 0.82c0,0.23 -0.02,0.42 -0.07,0.58 -0.05,0.16 -0.13,0.29 -0.23,0.39 -0.11,0.1 -0.25,0.17 -0.42,0.22 -0.17,0.04 -0.37,0.06 -0.61,0.06l-1.47 0c-0.24,0 -0.45,-0.02 -0.61,-0.06 -0.17,-0.05 -0.31,-0.12 -0.41,-0.22 -0.11,-0.1 -0.19,-0.23 -0.24,-0.39 -0.05,-0.16 -0.07,-0.35 -0.07,-0.58l0 -0.82c0,-0.23 0.02,-0.42 0.07,-0.58 0.05,-0.16 0.13,-0.29 0.24,-0.39 0.1,-0.09 0.24,-0.17 0.41,-0.21 0.16,-0.05 0.37,-0.07 0.61,-0.07l1.47 0z"/>
   <path class="fil7" d="M1420.5 105.89c0.07,0 0.11,0.03 0.11,0.1l0 0.45c0,0.07 -0.04,0.11 -0.11,0.11l-2.08 0c-0.12,0 -0.22,0.01 -0.3,0.03 -0.08,0.02 -0.15,0.05 -0.2,0.1 -0.05,0.05 -0.08,0.12 -0.1,0.2 -0.02,0.09 -0.03,0.19 -0.03,0.31l0 0.05 2.69 0c0.07,0 0.1,0.04 0.1,0.11l0 0.37c0,0.07 -0.03,0.11 -0.1,0.11l-2.69 0 0 0.08c0,0.12 0.01,0.23 0.03,0.31 0.02,0.08 0.05,0.15 0.1,0.2 0.05,0.05 0.12,0.08 0.2,0.1 0.08,0.02 0.18,0.03 0.3,0.03l2.08 0c0.07,0 0.11,0.04 0.11,0.11l0 0.45c0,0.07 -0.04,0.1 -0.11,0.1l-2.09 0c-0.24,0 -0.45,-0.02 -0.61,-0.06 -0.17,-0.05 -0.31,-0.12 -0.41,-0.22 -0.11,-0.1 -0.19,-0.23 -0.24,-0.39 -0.05,-0.16 -0.07,-0.35 -0.07,-0.58l0 -0.82c0,-0.23 0.02,-0.42 0.07,-0.58 0.05,-0.16 0.13,-0.29 0.24,-0.39 0.1,-0.09 0.24,-0.17 0.41,-0.21 0.16,-0.05 0.37,-0.07 0.61,-0.07l2.09 0z"/>
   <path class="fil7" d="M1429.03 105.89c0.07,0 0.1,0.03 0.1,0.1l0 0.45c0,0.07 -0.03,0.11 -0.1,0.11l-2.38 0c-0.09,0 -0.16,0.02 -0.2,0.07 -0.04,0.05 -0.05,0.11 -0.05,0.19l0 0.17c0,0.17 0.08,0.26 0.24,0.26l1.79 0c0.27,0 0.48,0.07 0.62,0.21 0.14,0.14 0.21,0.35 0.21,0.61l0 0.38c0,0.23 -0.07,0.42 -0.21,0.56 -0.13,0.14 -0.35,0.21 -0.63,0.21l-2.64 0c-0.07,0 -0.11,-0.03 -0.11,-0.1l0 -0.45c0,-0.07 0.04,-0.11 0.11,-0.11l2.5 0c0.09,0 0.15,-0.02 0.19,-0.07 0.04,-0.04 0.06,-0.11 0.06,-0.19l0 -0.2c0,-0.17 -0.08,-0.26 -0.25,-0.26l-1.78 0c-0.28,0 -0.48,-0.07 -0.62,-0.21 -0.14,-0.15 -0.21,-0.35 -0.21,-0.61l0 -0.35c0,-0.23 0.07,-0.42 0.2,-0.56 0.14,-0.14 0.35,-0.21 0.64,-0.21l2.52 0z"/>
   <path class="fil7" d="M1443.91 105.89c0.07,0 0.11,0.03 0.11,0.1l0 0.45c0,0.07 -0.04,0.11 -0.11,0.11l-2.08 0c-0.12,0 -0.22,0.01 -0.3,0.03 -0.08,0.02 -0.15,0.05 -0.2,0.1 -0.05,0.05 -0.08,0.12 -0.1,0.2 -0.02,0.09 -0.03,0.19 -0.03,0.31l0 0.05 2.69 0c0.07,0 0.1,0.04 0.1,0.11l0 0.37c0,0.07 -0.03,0.11 -0.1,0.11l-2.69 0 0 0.08c0,0.12 0.01,0.23 0.03,0.31 0.02,0.08 0.05,0.15 0.1,0.2 0.05,0.05 0.12,0.08 0.2,0.1 0.08,0.02 0.18,0.03 0.3,0.03l2.08 0c0.07,0 0.11,0.04 0.11,0.11l0 0.45c0,0.07 -0.04,0.1 -0.11,0.1l-2.09 0c-0.24,0 -0.45,-0.02 -0.61,-0.06 -0.17,-0.05 -0.31,-0.12 -0.41,-0.22 -0.11,-0.1 -0.19,-0.23 -0.24,-0.39 -0.05,-0.16 -0.07,-0.35 -0.07,-0.58l0 -0.82c0,-0.23 0.02,-0.42 0.07,-0.58 0.05,-0.16 0.13,-0.29 0.24,-0.39 0.1,-0.09 0.24,-0.17 0.41,-0.21 0.16,-0.05 0.37,-0.07 0.61,-0.07l2.09 0z"/>
   <path class="fil7" d="M1450.08 105.89c0.07,0 0.13,0 0.18,0.01 0.05,0.01 0.09,0.03 0.13,0.06 0.04,0.02 0.07,0.06 0.1,0.11 0.03,0.04 0.06,0.1 0.09,0.18l0.99 2.28c0.02,0.03 0.04,0.04 0.07,0.04l0.06 0c0.03,0 0.05,-0.01 0.06,-0.04l0.99 -2.28c0.03,-0.08 0.06,-0.14 0.09,-0.18 0.03,-0.05 0.07,-0.09 0.11,-0.11 0.03,-0.03 0.08,-0.05 0.13,-0.06 0.05,-0.01 0.11,-0.01 0.18,-0.01l0.5 0c0.17,0 0.28,0.03 0.34,0.11 0.05,0.07 0.08,0.2 0.08,0.38l0 2.73c0,0.07 -0.03,0.1 -0.11,0.1l-0.48 0c-0.07,0 -0.11,-0.03 -0.11,-0.1l0 -2.48c0,-0.03 -0.01,-0.05 -0.03,-0.05l-0.05 0c-0.03,0 -0.05,0.01 -0.06,0.04l-0.96 2.13c-0.04,0.08 -0.08,0.16 -0.12,0.21 -0.03,0.06 -0.08,0.11 -0.12,0.15 -0.05,0.04 -0.1,0.06 -0.16,0.08 -0.06,0.02 -0.13,0.02 -0.21,0.02l-0.23 0c-0.07,0 -0.14,0 -0.2,-0.02 -0.06,-0.02 -0.11,-0.04 -0.16,-0.08 -0.04,-0.04 -0.09,-0.09 -0.13,-0.15 -0.04,-0.05 -0.08,-0.13 -0.11,-0.21l-0.96 -2.13c-0.01,-0.03 -0.03,-0.04 -0.07,-0.04l-0.04 0c-0.02,0 -0.04,0.02 -0.04,0.05l0 2.48c0,0.07 -0.03,0.1 -0.1,0.1l-0.49 0c-0.07,0 -0.11,-0.03 -0.11,-0.1l0 -2.73c0,-0.18 0.03,-0.31 0.09,-0.38 0.06,-0.08 0.17,-0.11 0.34,-0.11l0.52 0z"/>
   <path class="fil7" d="M1469.16 105.89c0.07,0 0.1,0.03 0.1,0.1l0 0.47c0,0.07 -0.03,0.11 -0.1,0.11l-1.5 0 0 2.54c0,0.07 -0.03,0.1 -0.1,0.1l-0.52 0c-0.07,0 -0.1,-0.03 -0.1,-0.1l0 -2.54 -1.5 0c-0.07,0 -0.11,-0.04 -0.11,-0.11l0 -0.47c0,-0.07 0.04,-0.1 0.11,-0.1l3.72 0z"/>
   <path class="fil7" d="M1474.88 105.89c0.07,0 0.1,0.03 0.1,0.1l0 3.12c0,0.07 -0.03,0.1 -0.1,0.1l-0.52 0c-0.07,0 -0.11,-0.03 -0.11,-0.1l0 -3.12c0,-0.07 0.04,-0.1 0.11,-0.1l0.52 0z"/>
   <path class="fil7" d="M1367.34 85.06c0,-0.23 0.11,-0.35 0.32,-0.35l8.18 0c0.73,0 1.35,0.07 1.85,0.2 0.49,0.14 0.9,0.35 1.2,0.65 0.31,0.3 0.53,0.7 0.66,1.2 0.14,0.5 0.2,1.11 0.2,1.84l0 2.75c0,0.73 -0.06,1.34 -0.2,1.84 -0.13,0.5 -0.35,0.9 -0.66,1.2 -0.3,0.3 -0.71,0.51 -1.2,0.65 -0.5,0.13 -1.12,0.2 -1.85,0.2l-8.18 0c-0.21,0 -0.32,-0.11 -0.32,-0.33l0 -9.85zm-3.07 13.64l11.67 0c1.35,0 2.5,-0.14 3.46,-0.41 0.97,-0.28 1.76,-0.7 2.37,-1.27 0.62,-0.58 1.07,-1.31 1.36,-2.2 0.29,-0.89 0.44,-1.94 0.44,-3.15l0 -3.39c0,-1.21 -0.15,-2.26 -0.44,-3.15 -0.29,-0.89 -0.74,-1.62 -1.36,-2.2 -0.61,-0.57 -1.4,-1 -2.37,-1.27 -0.96,-0.27 -2.11,-0.41 -3.46,-0.41l-11.67 0c-0.5,0 -0.75,0.25 -0.75,0.75l0 15.95c0,0.5 0.25,0.75 0.75,0.75z"/>
   <path class="fil7" d="M1388.24 97.22c0.56,0.52 1.28,0.9 2.16,1.13 0.88,0.23 1.95,0.35 3.22,0.35l7.17 0c1.27,0 2.34,-0.12 3.23,-0.35 0.89,-0.23 1.62,-0.61 2.17,-1.13 0.56,-0.53 0.96,-1.21 1.21,-2.05 0.25,-0.84 0.38,-1.85 0.38,-3.05l0 -10.32c0,-0.37 -0.19,-0.55 -0.55,-0.55l-2.72 0c-0.37,0 -0.55,0.18 -0.55,0.55l0 9.94c0,0.67 -0.05,1.22 -0.15,1.66 -0.1,0.44 -0.27,0.79 -0.52,1.05 -0.25,0.26 -0.59,0.44 -1.01,0.55 -0.43,0.11 -0.96,0.16 -1.61,0.16l-6.91 0c-0.64,0 -1.18,-0.05 -1.6,-0.16 -0.43,-0.11 -0.76,-0.29 -1.01,-0.55 -0.25,-0.26 -0.43,-0.61 -0.54,-1.05 -0.11,-0.44 -0.16,-0.99 -0.16,-1.66l0 -9.94c0,-0.37 -0.18,-0.55 -0.55,-0.55l-2.69 0c-0.38,0 -0.58,0.18 -0.58,0.55l0 10.32c0,1.2 0.13,2.21 0.39,3.05 0.26,0.84 0.67,1.52 1.22,2.05z"/>
   <path class="fil7" d="M1431.76 77.03l-4.16 4.22 -0.38 0c-0.2,0 -0.36,0.03 -0.47,0.09 -0.12,0.05 -0.23,0.14 -0.33,0.26l-5.76 5.78 -5.43 -5.78c-0.1,-0.12 -0.21,-0.21 -0.33,-0.26 -0.11,-0.06 -0.27,-0.09 -0.47,-0.09l-3.41 0c-0.24,0 -0.36,0.08 -0.38,0.24 -0.02,0.15 0.03,0.29 0.13,0.41l7.4 7.63 -8.2 8.52c-0.12,0.12 -0.16,0.26 -0.14,0.41 0.03,0.16 0.15,0.24 0.36,0.24l0.22 0 -2.23 2.27 -44.65 -0.02 -0.01 1.8 45.41 0.03 4.02 -4.08 0.48 0c0.22,0 0.38,-0.02 0.49,-0.07 0.11,-0.05 0.22,-0.15 0.34,-0.28l6.18 -6.46 6.16 6.46c0.1,0.13 0.2,0.23 0.32,0.28 0.12,0.05 0.28,0.07 0.47,0.07l3.42 0c0.23,0 0.36,-0.08 0.39,-0.24 0.02,-0.15 -0.02,-0.29 -0.14,-0.41l-8 -8.4 7.65 -7.75c0.12,-0.12 0.16,-0.26 0.14,-0.41 -0.03,-0.16 -0.16,-0.24 -0.39,-0.24l-0.32 0 2.38 -2.42 42.57 0 0 -1.8 -43.33 0z"/>
   <path class="fil8" d="M1468.95 88.28l-9.55 0 0 -3.29c0,-0.2 0.11,-0.3 0.33,-0.3l9.22 0c0.85,0 1.45,0.18 1.8,0.55 0.28,0.29 0.44,0.71 0.5,1.25 -0.06,0.53 -0.22,0.95 -0.5,1.24 -0.35,0.37 -0.95,0.55 -1.8,0.55zm4.89 -5.73c-0.83,-0.87 -2.2,-1.3 -4.11,-1.3l-13.39 0c-0.5,0 -0.75,0.25 -0.75,0.75l0 6.28 -14.19 0c-0.36,0 -0.64,0.29 -0.64,0.64l0 1.79c0,0.35 0.28,0.64 0.64,0.64l7.24 0c0.18,0.01 0.27,0.11 0.27,0.32l0 2.02c0,0.56 -0.1,0.96 -0.3,1.18 -0.2,0.23 -0.51,0.34 -0.95,0.34l-8.22 0c-0.65,0 -1.19,-0.05 -1.61,-0.16 -0.43,-0.11 -0.76,-0.29 -1.01,-0.55 -0.25,-0.26 -0.43,-0.61 -0.54,-1.05 -0.11,-0.44 -0.16,-0.99 -0.16,-1.66l0 -3.59c0,-0.66 0.05,-1.21 0.16,-1.64 0.11,-0.43 0.29,-0.78 0.54,-1.04 0.25,-0.25 0.58,-0.44 1.01,-0.54 0.42,-0.11 0.96,-0.17 1.61,-0.17l12.49 0c0.36,0 0.54,-0.19 0.54,-0.57l0 -2.44c0,-0.37 -0.18,-0.55 -0.54,-0.55l-12.64 0c-1.27,0 -2.34,0.12 -3.22,0.36 -0.88,0.24 -1.6,0.62 -2.16,1.15 -0.55,0.52 -0.96,1.2 -1.22,2.03 -0.26,0.83 -0.38,1.84 -0.38,3.04l0 4.29c0,1.2 0.12,2.21 0.38,3.05 0.26,0.84 0.67,1.52 1.22,2.05 0.56,0.52 1.28,0.9 2.16,1.13 0.88,0.23 1.95,0.35 3.22,0.35l10.07 0c1,0 1.76,-0.29 2.29,-0.86 0.53,-0.57 0.8,-1.56 0.8,-2.95l0 -3.54 3.14 0 0 6.8c0,0.37 0.19,0.55 0.57,0.55l2.7 0c0.36,0 0.54,-0.18 0.54,-0.55l0 -6.8 10.33 0c1.91,0 3.28,-0.43 4.11,-1.3 0.83,-0.86 1.25,-2.14 1.25,-3.84l0 -0.05c0,-1.69 -0.42,-2.75 -1.25,-3.61z"/>
  </g>
  <g id="_2759109437904">
   <path class="fil7" d="M134.59 110.13l-7.12 0 0 -25.54 7.12 0 0 25.54zm10.49 -14.24l0 14.24 -7.12 0 0 -25.54 7.12 0 0 2.85 0 -0.01 0 8.34c0,0.04 0,0.08 0,0.12zm1.91 -10.05c1.65,-1.12 3.43,-1.68 5.36,-1.68 2.69,0 4.94,0.95 6.76,2.85 1.82,1.9 2.73,4.43 2.73,7.59l0 15.53 -7.12 0 0 -14.43c0,-3.93 -1.44,-5.89 -4.32,-5.89 -1.29,0 -2.42,0.42 -3.41,1.26l0 -5.23zm28.17 24.67c-3.02,0 -5.72,-1.28 -8.09,-3.85 -2.38,-2.56 -3.56,-5.74 -3.56,-9.54 0,-3.8 1.15,-6.91 3.46,-9.33 2.31,-2.42 5.02,-3.63 8.12,-3.63 2.21,0 4.12,0.55 5.75,1.66l0 6.15c-1.11,-1.22 -2.46,-1.83 -4.04,-1.83 -1.68,0 -3.12,0.7 -4.32,2.09 -1.2,1.39 -1.8,3.12 -1.8,5.17 0,2.06 0.61,3.75 1.85,5.06 1.23,1.31 2.67,1.97 4.32,1.97 1.64,0 3.04,-0.66 4.2,-1.97 1.15,-1.31 1.73,-3.01 1.73,-5.08 0,-0.3 -0.01,-0.58 -0.03,-0.87l0 -17.75 -0.06 0 0 -3.86 7.12 0 0 35.23 -7.12 0 0 -3.37c-2,2.5 -4.5,3.75 -7.53,3.75zm40.15 -4.09c-2.88,2.73 -6.26,4.09 -10.14,4.09 -3.88,0 -7.08,-1.2 -9.61,-3.59 -2.53,-2.39 -3.8,-5.59 -3.8,-9.61 0,-4.02 1.29,-7.22 3.87,-9.59 2.58,-2.37 5.62,-3.56 9.14,-3.56 3.51,0 6.49,1.06 8.95,3.18 2.45,2.12 3.67,5.03 3.67,8.74l0 3.79 -16.76 0 0 -5.08 9.55 0c-0.16,-1.52 -0.73,-2.69 -1.71,-3.51 -0.98,-0.82 -2.18,-1.23 -3.58,-1.23 -1.41,0 -2.7,0.42 -3.87,1.28 -1.17,0.85 -1.86,2.01 -2.04,3.46 -0.4,2.58 -0.28,4.7 -0.2,5.08 0.23,1.4 0.95,2.54 2.19,3.42 1.23,0.89 2.63,1.33 4.18,1.33 2.5,0 4.55,-0.84 6.17,-2.52l3.99 4.32zm13.59 -15.2l4.62 -6.61 0.02 -0.02 8.36 0 -8.79 12.48 9.12 13.06 -8.5 0 -4.98 -7.03 -4.85 7.03 -8.21 0 13.21 -18.91zm35.17 18.91l-6.69 0 0 -3.09c-1.84,2.31 -4.11,3.47 -6.82,3.47 -2.7,0 -4.97,-0.79 -6.81,-2.35 -1.83,-1.57 -2.75,-3.66 -2.75,-6.27 0,-2.61 0.95,-4.56 2.85,-5.86 1.9,-1.3 4.49,-1.95 7.78,-1.95l3.39 0 0 5.08 -2.58 0c-2.85,0 -4.27,0.89 -4.27,2.66 0,0.92 0.34,1.62 1.02,2.11 0.68,0.49 1.65,0.74 2.92,0.74 1.26,0 2.38,-0.39 3.34,-1.17 0.97,-0.77 1.45,-1.81 1.45,-3.1l0.02 -1.15 0.03 -5.31c0,-2.72 -1.44,-4.08 -4.32,-4.08 -1.23,0 -2.54,0.24 -3.92,0.73 -1.37,0.49 -2.54,1.1 -3.49,1.83l-3.18 -4.6c3.36,-2.44 7.19,-3.66 11.49,-3.66 3.1,0 5.63,0.78 7.6,2.33 1.96,1.55 2.94,4 2.94,7.35l0 16.29z"/>
   <circle class="fil0" cx="131.03" cy="78.36" r="4.17"/>
   <circle class="fil0" cx="270.18" cy="106.33" r="4.17"/>
   <polygon class="fil0" points="223.76,95.85 227.99,89.79 224.66,84.59 216.16,84.59 "/>
   <path class="fil9" d="M285.05 84.65c4.56,0 8.06,1.12 10.5,3.35 2.43,2.23 3.65,5.33 3.65,9.31 0,3.97 -1.18,7.11 -3.56,9.43 -2.38,2.32 -6.01,3.47 -10.88,3.47l-8.74 0 0 -25.56 9.03 0zm0.29 20.52c2.61,0 4.62,-0.66 6.02,-1.98 1.4,-1.31 2.1,-3.23 2.1,-5.74 0,-2.51 -0.7,-4.44 -2.1,-5.79 -1.4,-1.36 -3.55,-2.03 -6.46,-2.03l-3.18 0 0 15.54 3.62 0zm36.36 -7.88c0,-2.28 -0.73,-4.23 -2.19,-5.84 -1.47,-1.61 -3.26,-2.41 -5.4,-2.41 -2.13,0 -3.93,0.8 -5.39,2.41 -1.46,1.61 -2.2,3.56 -2.2,5.84 0,2.28 0.74,4.21 2.2,5.81 1.46,1.6 3.26,2.4 5.39,2.4 2.14,0 3.93,-0.8 5.4,-2.4 1.46,-1.6 2.19,-3.53 2.19,-5.81zm1.94 9.4c-2.59,2.52 -5.77,3.78 -9.55,3.78 -3.78,0 -6.96,-1.26 -9.54,-3.78 -2.59,-2.53 -3.88,-5.67 -3.88,-9.42 0,-3.76 1.29,-6.89 3.88,-9.42 2.58,-2.52 5.76,-3.78 9.54,-3.78 3.78,0 6.96,1.26 9.55,3.78 2.58,2.53 3.88,5.66 3.88,9.42 0,3.75 -1.3,6.89 -3.88,9.42zm18.44 -1.52c2.8,0 5.09,-1.11 6.87,-3.33l3.66 3.77c-2.9,3.26 -6.32,4.9 -10.26,4.9 -3.94,0 -7.18,-1.25 -9.73,-3.73 -2.55,-2.49 -3.82,-5.63 -3.82,-9.42 0,-3.79 1.3,-6.95 3.9,-9.49 2.59,-2.54 5.77,-3.8 9.52,-3.8 4.2,0 7.71,1.59 10.53,4.79l-3.54 4.02c-1.81,-2.24 -4.05,-3.36 -6.73,-3.36 -2.15,0 -3.98,0.7 -5.51,2.1 -1.52,1.4 -2.28,3.29 -2.28,5.67 0,2.37 0.72,4.28 2.16,5.72 1.43,1.44 3.18,2.16 5.23,2.16z"/>
  </g>
  <path class="fil10" d="M1058.43 505.5c0,-60.85 49.33,-110.18 110.17,-110.18 60.85,0 110.18,49.33 110.18,110.18l-38.2 0c0,-39.76 -32.22,-71.98 -71.98,-71.98 -39.75,0 -71.97,32.22 -71.97,71.98 0,60.84 -49.33,110.17 -110.18,110.17 -60.84,0 -110.18,-49.33 -110.18,-110.17 0,-39.76 -32.22,-71.98 -71.97,-71.98 -39.75,0 -71.97,32.22 -71.97,71.98 0,60.84 -49.34,110.17 -110.18,110.17 -60.84,0 -110.18,-49.33 -110.18,-110.17 0,-39.76 -32.22,-71.98 -71.97,-71.98 -39.76,0 -71.97,32.22 -71.97,71.98l-38.21 0c0,-60.85 49.33,-110.18 110.18,-110.18 60.84,0 110.18,49.33 110.18,110.18 0,39.75 32.22,71.97 71.97,71.97 39.75,0 71.98,-32.22 71.98,-71.97 0,-60.85 49.32,-110.18 110.17,-110.18 60.84,0 110.18,49.33 110.18,110.18 0,39.75 32.22,71.97 71.97,71.97 39.76,0 71.98,-32.22 71.98,-71.97z"/>
  <g id="_2759109439392">
   <path class="fil11" d="M876.24 505.5c0,-60.85 49.33,-110.18 110.18,-110.18 60.85,0 110.17,49.33 110.17,110.18l-38.2 0c0,-39.76 -32.22,-71.98 -71.97,-71.98 -39.75,0 -71.98,32.22 -71.98,71.98 0,60.84 -49.32,110.17 -110.17,110.17 -60.85,0 -110.18,-49.33 -110.18,-110.17 0,-39.76 -32.22,-71.98 -71.97,-71.98 -39.76,0 -71.98,32.22 -71.98,71.98 0,60.84 -49.33,110.17 -110.17,110.17 -60.85,0 -110.18,-49.33 -110.18,-110.17 0,-39.76 -32.22,-71.98 -71.97,-71.98 -39.76,0 -71.98,32.22 -71.98,71.98l-38.21 0c0,-60.85 49.34,-110.18 110.19,-110.18 60.84,0 110.17,49.33 110.17,110.18 0,39.75 32.22,71.97 71.98,71.97 39.75,0 71.97,-32.22 71.97,-71.97 0,-60.85 49.33,-110.18 110.18,-110.18 60.84,0 110.17,49.33 110.17,110.18 0,39.75 32.22,71.97 71.98,71.97 39.75,0 71.97,-32.22 71.97,-71.97z"/>
   <path class="fil11" d="M1240.61 505.5c0,-60.85 49.33,-110.18 110.18,-110.18 60.84,0 110.17,49.33 110.17,110.18l-38.2 0c0,-39.76 -32.22,-71.98 -71.97,-71.98 -39.76,0 -71.98,32.22 -71.98,71.98 0,60.84 -49.33,110.17 -110.17,110.17 -60.85,0 -110.18,-49.33 -110.18,-110.17 0,-39.76 -32.22,-71.98 -71.97,-71.98 -39.76,0 -71.98,32.22 -71.98,71.98 0,60.84 -49.33,110.17 -110.18,110.17 -60.84,0 -110.18,-49.33 -110.18,-110.17 0,-39.76 -32.21,-71.98 -71.96,-71.98 -39.76,0 -71.98,32.22 -71.98,71.98l-38.21 0c0,-60.85 49.34,-110.18 110.19,-110.18 60.84,0 110.17,49.33 110.17,110.18 0,39.75 32.22,71.97 71.97,71.97 39.76,0 71.98,-32.22 71.98,-71.97 0,-60.85 49.33,-110.18 110.18,-110.18 60.84,0 110.17,49.33 110.17,110.18 0,39.75 32.22,71.97 71.98,71.97 39.75,0 71.97,-32.22 71.97,-71.97z"/>
  </g>
  <g id="_2759109439920">
   <path class="fil12" d="M1096.59 505.5c0,60.84 -49.32,110.17 -110.17,110.17 -60.85,0 -110.18,-49.33 -110.18,-110.17 0,-39.76 -32.22,-71.98 -71.97,-71.98 -39.76,0 -71.98,32.22 -71.98,71.98 0,60.84 -49.33,110.17 -110.17,110.17 -60.85,0 -110.18,-49.33 -110.18,-110.17 0,-39.76 -32.22,-71.98 -71.97,-71.98 -39.76,0 -71.98,32.22 -71.98,71.98 0,60.84 -49.33,110.17 -110.17,110.17 -60.85,0 -110.19,-49.33 -110.19,-110.17l38.21 0c0,39.75 32.22,71.97 71.98,71.97 39.75,0 71.97,-32.22 71.97,-71.97 0,-60.85 49.33,-110.18 110.18,-110.18 60.84,0 110.17,49.33 110.17,110.18 0,39.75 32.22,71.97 71.98,71.97 39.75,0 71.97,-32.22 71.97,-71.97 0,-60.85 49.33,-110.18 110.18,-110.18 60.85,0 110.17,49.33 110.17,110.18 0,39.75 32.23,71.97 71.98,71.97 39.75,0 71.97,-32.22 71.97,-71.97l38.2 0z"/>
   <path class="fil12" d="M1460.9 505.5c0,60.84 -49.33,110.17 -110.18,110.17 -60.84,0 -110.17,-49.33 -110.17,-110.17 0,-39.76 -32.22,-71.98 -71.98,-71.98 -39.75,0 -71.97,32.22 -71.97,71.98 0,60.84 -49.34,110.17 -110.18,110.17 -60.85,0 -110.17,-49.33 -110.17,-110.17 0,-39.76 -32.23,-71.98 -71.98,-71.98 -39.75,0 -71.97,32.22 -71.97,71.98 0,60.84 -49.34,110.17 -110.18,110.17 -60.85,0 -110.18,-49.33 -110.18,-110.17l38.21 0c0,39.75 32.21,71.97 71.97,71.97 39.75,0 71.97,-32.22 71.97,-71.97 0,-60.85 49.34,-110.18 110.18,-110.18 60.84,0 110.18,49.33 110.18,110.18 0,39.75 32.22,71.97 71.97,71.97 39.75,0 71.97,-32.22 71.97,-71.97 0,-60.85 49.34,-110.18 110.18,-110.18 60.85,0 110.18,49.33 110.18,110.18 0,39.75 32.22,71.97 71.97,71.97 39.76,0 71.98,-32.22 71.98,-71.97l38.2 0z"/>
  </g>
  <path class="fil13" d="M71.35 502.38l21.8 -12.85 0 10.9 -5.51 3.24 45.23 0c2.16,-109.68 131.8,-162.58 210.97,-90.58l3.39 -3.67 4.05 12.16 -12.44 -3.09 3.39 -3.66c-78.15,-71.09 -206.72,-18.04 -207.04,91.2 -15.95,0 -31.46,0 -47.42,0l5.38 3.76 0 10.38 -21.8 -13.26 0 -4.53z"/>
  <path class="fil13" d="M533.05 599.69l3.43 -3.63c48.05,44.54 123.09,44.96 171.3,0.47l3.42 3.65 3.98 -12.18 -12.42 3.16 3.41 3.64c-47.1,43.55 -121.18,43.11 -168.06,-0.46l3.42 -3.63 -12.4 -3.22 3.92 12.2z"/>
  <path class="fil13" d="M896.78 599.69l3.43 -3.63c48.05,44.54 123.09,44.96 171.3,0.47l3.41 3.65 3.99 -12.18 -12.42 3.16 3.41 3.64c-47.1,43.55 -121.18,43.11 -168.06,-0.46l3.42 -3.63 -12.4 -3.22 3.92 12.2z"/>
  <path class="fil13" d="M1538.49 502.38l-21.8 -12.85 0 10.9 5.51 3.24 -45.23 0c-2.16,-109.68 -131.8,-162.58 -210.96,-90.58l-3.39 -3.67 -4.06 12.16 12.44 -3.09 -3.39 -3.66c78.16,-71.09 206.72,-18.04 207.04,91.2 15.95,0 31.46,0 47.42,0l-5.38 3.76 0 10.38 21.8 -13.26 0 -4.53z"/>
  <path class="fil6" d="M208.85 495.07c1.88,0 3.63,0.57 5.23,1.7l-1.12 1.68c-1.32,-0.94 -2.7,-1.42 -4.11,-1.42 -1.95,0 -3.27,0.8 -3.96,2.39 -0.3,0.68 -0.49,1.49 -0.58,2.42 -0.08,0.93 -0.12,2.08 -0.12,3.42 0,1.35 0.04,2.48 0.12,3.42 0.09,0.94 0.28,1.74 0.58,2.42 0.69,1.59 2.01,2.39 3.96,2.39 1.94,0 3.25,-0.8 3.95,-2.39 0.41,-0.93 0.64,-2.38 0.68,-4.36l-4.22 0 0 -1.96 6.42 0c0,1.18 -0.01,2.09 -0.03,2.73 -0.03,0.64 -0.1,1.38 -0.23,2.21 -0.13,0.83 -0.33,1.54 -0.59,2.13 -0.5,1.11 -1.25,1.99 -2.27,2.64 -1.02,0.64 -2.26,0.96 -3.71,0.96 -1.45,0 -2.69,-0.32 -3.71,-0.96 -1.03,-0.65 -1.79,-1.53 -2.28,-2.64 -0.25,-0.56 -0.45,-1.25 -0.58,-2.06 -0.14,-0.8 -0.22,-1.52 -0.24,-2.14 -0.03,-0.62 -0.04,-1.42 -0.04,-2.39 0,-1.5 0.06,-2.77 0.17,-3.83 0.1,-1.05 0.33,-1.97 0.69,-2.76 0.51,-1.12 1.28,-2 2.31,-2.64 1.02,-0.64 2.25,-0.96 3.68,-0.96z"/>
  <path id="_1_2" class="fil6" d="M225.21 515.41c-1.08,0 -2.04,-0.21 -2.87,-0.61 -0.83,-0.41 -1.49,-0.96 -1.97,-1.68 -0.35,-0.49 -0.61,-1.08 -0.78,-1.76 -0.18,-0.68 -0.28,-1.26 -0.3,-1.73 -0.02,-0.47 -0.03,-1.15 -0.03,-2.03 0,-0.72 0.01,-1.26 0.02,-1.63 0.01,-0.37 0.06,-0.82 0.14,-1.35 0.08,-0.53 0.19,-1 0.36,-1.43 0.39,-1.03 1.05,-1.86 1.96,-2.47 0.93,-0.62 1.99,-0.93 3.19,-0.93 1.19,0 2.25,0.31 3.18,0.94 0.93,0.62 1.59,1.44 2,2.47 0.23,0.59 0.37,1.18 0.42,1.76 0.05,0.58 0.08,1.46 0.08,2.63l0 0.46 -9.25 0c0,0.61 0.01,1.1 0.03,1.46 0.01,0.37 0.09,0.82 0.21,1.34 0.13,0.52 0.32,0.95 0.56,1.29 0.64,0.93 1.66,1.39 3.05,1.39 1.25,0 2.58,-0.34 4.01,-1.02l0.8 1.74c-1.65,0.77 -3.25,1.16 -4.81,1.16zm3.3 -9.1c-0.02,-1.06 -0.15,-1.91 -0.41,-2.54 -0.25,-0.64 -0.66,-1.15 -1.23,-1.53 -0.56,-0.38 -1.21,-0.57 -1.94,-0.57 -0.75,0 -1.41,0.19 -1.96,0.57 -0.55,0.38 -0.95,0.88 -1.19,1.52 -0.25,0.66 -0.39,1.51 -0.4,2.55l7.13 0z"/>
  <path id="_2_3" class="fil6" d="M236.64 501.62c1.02,-1.22 2.21,-1.83 3.57,-1.83 0.38,0 0.81,0.06 1.29,0.16l-0.31 1.85c-0.59,-0.08 -1.01,-0.13 -1.26,-0.13 -0.71,0 -1.33,0.17 -1.85,0.51 -0.52,0.34 -0.9,0.79 -1.13,1.36 -0.21,0.49 -0.31,1.37 -0.31,2.63l0 9.01 -2.1 0 0 -15.16 2.1 0 0 1.6z"/>
  <path id="_3_4" class="fil6" d="M249.49 515.41c-1.08,0 -2.04,-0.21 -2.87,-0.61 -0.84,-0.41 -1.5,-0.96 -1.98,-1.68 -0.35,-0.49 -0.61,-1.08 -0.78,-1.76 -0.17,-0.68 -0.27,-1.26 -0.29,-1.73 -0.03,-0.47 -0.04,-1.15 -0.04,-2.03 0,-0.72 0.01,-1.26 0.02,-1.63 0.02,-0.37 0.06,-0.82 0.14,-1.35 0.08,-0.53 0.2,-1 0.36,-1.43 0.39,-1.03 1.05,-1.86 1.97,-2.47 0.92,-0.62 1.98,-0.93 3.19,-0.93 1.19,0 2.24,0.31 3.17,0.94 0.93,0.62 1.6,1.44 2,2.47 0.24,0.59 0.37,1.18 0.43,1.76 0.05,0.58 0.07,1.46 0.07,2.63l0 0.46 -9.24 0c0,0.61 0.01,1.1 0.02,1.46 0.02,0.37 0.09,0.82 0.22,1.34 0.12,0.52 0.31,0.95 0.55,1.29 0.65,0.93 1.66,1.39 3.06,1.39 1.24,0 2.58,-0.34 4.01,-1.02l0.79 1.74c-1.65,0.77 -3.25,1.16 -4.8,1.16zm3.29 -9.1c-0.02,-1.06 -0.15,-1.91 -0.4,-2.54 -0.26,-0.64 -0.66,-1.15 -1.23,-1.53 -0.57,-0.38 -1.21,-0.57 -1.94,-0.57 -0.76,0 -1.41,0.19 -1.96,0.57 -0.56,0.38 -0.95,0.88 -1.19,1.52 -0.26,0.66 -0.39,1.51 -0.41,2.55l7.13 0z"/>
  <path id="_4_5" class="fil6" d="M264.77 499.79c1.04,0 1.97,0.28 2.82,0.83 0.85,0.54 1.46,1.31 1.86,2.29 0.14,0.33 0.24,0.72 0.31,1.15 0.06,0.43 0.1,0.79 0.11,1.08 0.01,0.29 0.01,0.72 0.01,1.28l0 8.76 -2.1 0 0 -8.62c0,-0.88 -0.02,-1.53 -0.06,-1.92 -0.03,-0.4 -0.14,-0.78 -0.3,-1.14 -0.27,-0.58 -0.67,-1.03 -1.22,-1.35 -0.54,-0.32 -1.16,-0.48 -1.85,-0.48 -0.7,0 -1.31,0.16 -1.86,0.48 -0.55,0.32 -0.95,0.77 -1.22,1.35 -0.16,0.36 -0.26,0.74 -0.3,1.14 -0.04,0.39 -0.06,1.04 -0.06,1.92l0 8.62 -2.1 0 0 -15.16 2.1 0 0 1.6c1.11,-1.22 2.39,-1.83 3.86,-1.83z"/>
  <path id="_5_6" class="fil6" d="M279.48 499.79c1.55,0 3.07,0.48 4.59,1.42l-1 1.66c-1.22,-0.8 -2.41,-1.2 -3.59,-1.2 -1.22,0 -2.17,0.49 -2.85,1.47 -0.25,0.36 -0.43,0.83 -0.55,1.4 -0.12,0.57 -0.19,1.05 -0.21,1.43 -0.02,0.39 -0.03,0.9 -0.03,1.55 0,0.73 0.01,1.29 0.02,1.67 0.02,0.39 0.08,0.86 0.19,1.4 0.11,0.54 0.28,1 0.51,1.37 0.32,0.54 0.75,0.94 1.27,1.19 0.52,0.25 1.07,0.38 1.65,0.38 0.64,0 1.3,-0.12 2,-0.36 0.7,-0.25 1.31,-0.55 1.83,-0.9l1.07 1.6c-0.67,0.44 -1.44,0.81 -2.32,1.1 -0.87,0.3 -1.73,0.44 -2.58,0.44 -1.06,0 -2.02,-0.24 -2.85,-0.71 -0.84,-0.47 -1.49,-1.09 -1.93,-1.86 -0.29,-0.52 -0.52,-1.1 -0.67,-1.73 -0.14,-0.63 -0.24,-1.17 -0.25,-1.64 -0.03,-0.46 -0.04,-1.11 -0.04,-1.95 0,-0.73 0.01,-1.32 0.04,-1.76 0.01,-0.45 0.11,-1 0.25,-1.66 0.15,-0.67 0.38,-1.24 0.67,-1.74 0.46,-0.77 1.1,-1.38 1.93,-1.86 0.83,-0.47 1.78,-0.71 2.85,-0.71z"/>
  <path id="_6_7" class="fil6" d="M287.91 495.44c0.25,-0.24 0.57,-0.37 0.95,-0.37 0.38,0 0.7,0.13 0.95,0.37 0.25,0.25 0.37,0.56 0.37,0.95 0,0.38 -0.12,0.7 -0.37,0.94 -0.25,0.25 -0.57,0.38 -0.95,0.38 -0.38,0 -0.7,-0.13 -0.95,-0.38 -0.24,-0.24 -0.37,-0.56 -0.37,-0.94 0,-0.39 0.13,-0.7 0.37,-0.95zm2 19.74l-2.1 0 0 -15.16 2.1 0 0 15.16z"/>
  <path id="_7_8" class="fil6" d="M295.73 510.69c0,0.79 0.26,1.46 0.79,2.01 0.53,0.56 1.27,0.83 2.22,0.83 0.76,0 1.45,-0.19 2.05,-0.56 0.59,-0.37 1.02,-0.94 1.26,-1.69 0.08,-0.28 0.15,-0.59 0.19,-0.95 0.04,-0.35 0.06,-0.69 0.07,-1 0,-0.31 0,-0.82 0,-1.53l-2.03 0c-1.34,0 -2.23,0.06 -2.66,0.19 -0.61,0.19 -1.08,0.53 -1.4,1.01 -0.33,0.48 -0.49,1.04 -0.49,1.69zm8.69 -4.63l0 9.12 -2.11 0 0 -1.61c-1.06,1.23 -2.35,1.84 -3.85,1.84 -1.42,0 -2.58,-0.45 -3.48,-1.35 -0.91,-0.9 -1.35,-2.03 -1.35,-3.37 0,-1.01 0.28,-1.91 0.86,-2.69 0.57,-0.78 1.38,-1.33 2.43,-1.65 0.31,-0.09 0.65,-0.16 1.02,-0.21 0.37,-0.04 0.7,-0.07 0.98,-0.07 0.28,-0.01 0.71,-0.01 1.28,-0.01l2.11 0c0,-0.75 -0.01,-1.28 -0.03,-1.61 -0.02,-0.32 -0.09,-0.61 -0.19,-0.89 -0.23,-0.62 -0.62,-1.09 -1.18,-1.41 -0.55,-0.32 -1.18,-0.48 -1.89,-0.48 -1.04,0 -2.27,0.34 -3.69,1.03l-0.8 -1.74c1.71,-0.78 3.2,-1.17 4.49,-1.17 1.25,0 2.33,0.31 3.27,0.9 0.93,0.6 1.57,1.45 1.9,2.57 0.15,0.49 0.23,1.43 0.23,2.8z"/>
  <path id="_8_9" class="fil6" d="M310.86 501.62c1.02,-1.22 2.21,-1.83 3.58,-1.83 0.38,0 0.81,0.06 1.29,0.16l-0.31 1.85c-0.59,-0.08 -1.01,-0.13 -1.26,-0.13 -0.71,0 -1.33,0.17 -1.85,0.51 -0.52,0.34 -0.91,0.79 -1.14,1.36 -0.2,0.49 -0.31,1.37 -0.31,2.63l0 9.01 -2.1 0 0 -15.16 2.1 0 0 1.6z"/>
  <path class="fil6" d="M385.14 496.04c1.03,-0.65 2.28,-0.97 3.74,-0.97 1.46,0 2.7,0.32 3.74,0.97 1.04,0.64 1.81,1.51 2.31,2.61 0.29,0.61 0.51,1.35 0.66,2.21 0.14,0.86 0.22,1.57 0.24,2.13 0.02,0.56 0.03,1.32 0.03,2.27 0,0.95 -0.01,1.71 -0.03,2.27 -0.02,0.56 -0.1,1.27 -0.24,2.13 -0.15,0.86 -0.37,1.6 -0.66,2.22 -0.5,1.09 -1.27,1.96 -2.31,2.61 -1.04,0.64 -2.28,0.96 -3.74,0.96 -1.46,0 -2.71,-0.32 -3.74,-0.96 -1.04,-0.65 -1.81,-1.52 -2.32,-2.61 -0.28,-0.62 -0.5,-1.36 -0.65,-2.22 -0.14,-0.86 -0.22,-1.57 -0.24,-2.13 -0.02,-0.56 -0.03,-1.32 -0.03,-2.27 0,-0.95 0.01,-1.71 0.03,-2.27 0.02,-0.56 0.1,-1.27 0.24,-2.13 0.15,-0.86 0.37,-1.6 0.65,-2.21 0.51,-1.1 1.28,-1.97 2.32,-2.61zm6.25 1.62c-0.68,-0.42 -1.52,-0.63 -2.51,-0.63 -0.99,0 -1.83,0.21 -2.51,0.63 -0.68,0.41 -1.19,0.99 -1.53,1.73 -0.23,0.49 -0.41,1.11 -0.52,1.85 -0.12,0.75 -0.19,1.38 -0.21,1.91 -0.02,0.53 -0.02,1.23 -0.02,2.11 0,0.88 0,1.58 0.02,2.11 0.02,0.53 0.09,1.16 0.21,1.91 0.11,0.74 0.29,1.36 0.52,1.85 0.34,0.74 0.85,1.32 1.53,1.73 0.68,0.42 1.52,0.63 2.51,0.63 0.99,0 1.83,-0.21 2.51,-0.63 0.68,-0.41 1.19,-0.99 1.53,-1.73 0.23,-0.49 0.4,-1.11 0.52,-1.85 0.12,-0.75 0.18,-1.38 0.2,-1.91 0.02,-0.53 0.03,-1.23 0.03,-2.11 0,-0.88 -0.01,-1.58 -0.03,-2.11 -0.02,-0.53 -0.08,-1.16 -0.2,-1.91 -0.12,-0.74 -0.29,-1.36 -0.52,-1.85 -0.34,-0.74 -0.85,-1.32 -1.53,-1.73z"/>
  <path id="_1_10" class="fil6" d="M402.03 501.62c1.01,-1.22 2.21,-1.83 3.57,-1.83 0.38,0 0.81,0.06 1.29,0.16l-0.31 1.85c-0.59,-0.08 -1.01,-0.13 -1.26,-0.13 -0.71,0 -1.33,0.17 -1.85,0.51 -0.52,0.34 -0.9,0.79 -1.13,1.36 -0.21,0.49 -0.31,1.37 -0.31,2.63l0 9.01 -2.1 0 0 -15.16 2.1 0 0 1.6z"/>
  <path id="_2_11" class="fil6" d="M414.46 499.79c1.56,0 2.89,0.62 3.99,1.84l0 -1.61 2.1 0 0 13.61c0,1.65 -0.07,2.76 -0.22,3.33 -0.35,1.38 -1.07,2.42 -2.14,3.14 -1.08,0.71 -2.32,1.07 -3.73,1.07 -1.5,0 -3.07,-0.34 -4.71,-1.02l0.7 -1.77c1.46,0.61 2.79,0.91 4.01,0.91 0.97,0 1.8,-0.24 2.48,-0.71 0.69,-0.48 1.14,-1.18 1.36,-2.1 0.1,-0.45 0.15,-1.42 0.15,-2.91 -1.1,1.23 -2.43,1.84 -3.99,1.84 -0.96,0 -1.82,-0.21 -2.6,-0.62 -0.77,-0.41 -1.38,-0.95 -1.82,-1.62 -0.46,-0.72 -0.77,-1.5 -0.91,-2.32 -0.14,-0.83 -0.21,-1.91 -0.21,-3.25 0,-1.33 0.07,-2.41 0.21,-3.24 0.14,-0.83 0.45,-1.61 0.91,-2.32 0.44,-0.68 1.05,-1.22 1.82,-1.63 0.78,-0.41 1.64,-0.62 2.6,-0.62zm3.15 3.26c-0.66,-0.92 -1.62,-1.38 -2.87,-1.38 -1.26,0 -2.21,0.46 -2.88,1.38 -0.35,0.48 -0.58,1.07 -0.68,1.76 -0.11,0.7 -0.16,1.62 -0.16,2.79 0,1.17 0.05,2.1 0.16,2.79 0.1,0.69 0.33,1.28 0.68,1.77 0.67,0.91 1.62,1.37 2.88,1.37 1.25,0 2.21,-0.46 2.87,-1.37 0.36,-0.49 0.59,-1.08 0.69,-1.77 0.1,-0.69 0.15,-1.62 0.15,-2.79 0,-1.17 -0.05,-2.09 -0.15,-2.79 -0.1,-0.69 -0.33,-1.28 -0.69,-1.76z"/>
  <path id="_3_12" class="fil6" d="M426.3 510.69c0,0.79 0.27,1.46 0.79,2.01 0.53,0.56 1.27,0.83 2.22,0.83 0.77,0 1.45,-0.19 2.05,-0.56 0.6,-0.37 1.02,-0.94 1.27,-1.69 0.08,-0.28 0.14,-0.59 0.18,-0.95 0.05,-0.35 0.07,-0.69 0.07,-1 0.01,-0.31 0.01,-0.82 0.01,-1.53l-2.03 0c-1.35,0 -2.23,0.06 -2.66,0.19 -0.61,0.19 -1.08,0.53 -1.41,1.01 -0.32,0.48 -0.49,1.04 -0.49,1.69zm8.69 -4.63l0 9.12 -2.1 0 0 -1.61c-1.06,1.23 -2.35,1.84 -3.85,1.84 -1.42,0 -2.59,-0.45 -3.49,-1.35 -0.9,-0.9 -1.35,-2.03 -1.35,-3.37 0,-1.01 0.29,-1.91 0.86,-2.69 0.58,-0.78 1.39,-1.33 2.43,-1.65 0.31,-0.09 0.65,-0.16 1.03,-0.21 0.37,-0.04 0.7,-0.07 0.98,-0.07 0.28,-0.01 0.7,-0.01 1.27,-0.01l2.12 0c0,-0.75 -0.01,-1.28 -0.03,-1.61 -0.03,-0.32 -0.09,-0.61 -0.19,-0.89 -0.24,-0.62 -0.63,-1.09 -1.18,-1.41 -0.55,-0.32 -1.18,-0.48 -1.89,-0.48 -1.04,0 -2.27,0.34 -3.69,1.03l-0.8 -1.74c1.7,-0.78 3.2,-1.17 4.49,-1.17 1.24,0 2.33,0.31 3.26,0.9 0.94,0.6 1.57,1.45 1.91,2.57 0.15,0.49 0.22,1.43 0.22,2.8z"/>
  <path id="_4_13" class="fil6" d="M445.29 499.79c1.04,0 1.98,0.28 2.83,0.83 0.84,0.54 1.46,1.31 1.85,2.29 0.15,0.33 0.25,0.72 0.31,1.15 0.07,0.43 0.1,0.79 0.11,1.08 0.01,0.29 0.02,0.72 0.02,1.28l0 8.76 -2.1 0 0 -8.62c0,-0.88 -0.02,-1.53 -0.06,-1.92 -0.04,-0.4 -0.14,-0.78 -0.31,-1.14 -0.26,-0.58 -0.67,-1.03 -1.21,-1.35 -0.55,-0.32 -1.17,-0.48 -1.86,-0.48 -0.69,0 -1.31,0.16 -1.85,0.48 -0.55,0.32 -0.96,0.77 -1.22,1.35 -0.17,0.36 -0.27,0.74 -0.3,1.14 -0.04,0.39 -0.06,1.04 -0.06,1.92l0 8.62 -2.1 0 0 -15.16 2.1 0 0 1.6c1.1,-1.22 2.38,-1.83 3.85,-1.83z"/>
  <path id="_5_14" class="fil6" d="M454.93 495.44c0.25,-0.24 0.56,-0.37 0.95,-0.37 0.38,0 0.69,0.13 0.94,0.37 0.25,0.25 0.38,0.56 0.38,0.95 0,0.38 -0.13,0.7 -0.38,0.94 -0.25,0.25 -0.56,0.38 -0.94,0.38 -0.39,0 -0.7,-0.13 -0.95,-0.38 -0.25,-0.24 -0.37,-0.56 -0.37,-0.94 0,-0.39 0.12,-0.7 0.37,-0.95zm2 19.74l-2.11 0 0 -15.16 2.11 0 0 15.16z"/>
  <polygon id="_6_15" class="fil6" points="470.45,513.3 470.45,515.18 460.36,515.18 460.36,513.67 467.73,501.9 460.46,501.9 460.46,500.02 470.32,500.02 470.32,501.53 462.95,513.3 "/>
  <path id="_7_16" class="fil6" d="M474.94 510.69c0,0.79 0.26,1.46 0.79,2.01 0.53,0.56 1.27,0.83 2.22,0.83 0.77,0 1.45,-0.19 2.05,-0.56 0.6,-0.37 1.02,-0.94 1.26,-1.69 0.08,-0.28 0.15,-0.59 0.19,-0.95 0.04,-0.35 0.06,-0.69 0.07,-1 0,-0.31 0,-0.82 0,-1.53l-2.02 0c-1.35,0 -2.24,0.06 -2.67,0.19 -0.61,0.19 -1.08,0.53 -1.4,1.01 -0.33,0.48 -0.49,1.04 -0.49,1.69zm8.69 -4.63l0 9.12 -2.11 0 0 -1.61c-1.06,1.23 -2.35,1.84 -3.85,1.84 -1.42,0 -2.58,-0.45 -3.48,-1.35 -0.9,-0.9 -1.35,-2.03 -1.35,-3.37 0,-1.01 0.28,-1.91 0.86,-2.69 0.57,-0.78 1.38,-1.33 2.43,-1.65 0.31,-0.09 0.65,-0.16 1.02,-0.21 0.37,-0.04 0.7,-0.07 0.98,-0.07 0.28,-0.01 0.71,-0.01 1.28,-0.01l2.11 0c0,-0.75 -0.01,-1.28 -0.03,-1.61 -0.02,-0.32 -0.09,-0.61 -0.19,-0.89 -0.23,-0.62 -0.62,-1.09 -1.18,-1.41 -0.55,-0.32 -1.18,-0.48 -1.89,-0.48 -1.04,0 -2.27,0.34 -3.69,1.03l-0.79 -1.74c1.7,-0.78 3.19,-1.17 4.48,-1.17 1.25,0 2.33,0.31 3.27,0.9 0.93,0.6 1.57,1.45 1.9,2.57 0.15,0.49 0.23,1.43 0.23,2.8z"/>
  <path id="_8_17" class="fil6" d="M490.07 501.62c1.02,-1.22 2.21,-1.83 3.58,-1.83 0.38,0 0.81,0.06 1.29,0.16l-0.31 1.85c-0.59,-0.08 -1.01,-0.13 -1.26,-0.13 -0.71,0 -1.33,0.17 -1.85,0.51 -0.52,0.34 -0.91,0.79 -1.14,1.36 -0.2,0.49 -0.31,1.37 -0.31,2.63l0 9.01 -2.1 0 0 -15.16 2.1 0 0 1.6z"/>
  <path class="fil6" d="M574.57 495.93c1.88,0 3.63,0.56 5.24,1.69l-1.12 1.69c-1.33,-0.95 -2.71,-1.42 -4.12,-1.42 -1.95,0 -3.27,0.79 -3.96,2.38 -0.3,0.69 -0.49,1.5 -0.57,2.43 -0.08,0.93 -0.13,2.07 -0.13,3.42 0,1.34 0.05,2.48 0.13,3.42 0.08,0.93 0.27,1.74 0.57,2.42 0.69,1.59 2.01,2.39 3.96,2.39 1.72,0 3.23,-0.56 4.54,-1.67l1.23 1.62c-1.7,1.34 -3.62,2.01 -5.77,2.01 -1.45,0 -2.69,-0.33 -3.71,-0.97 -1.02,-0.64 -1.78,-1.52 -2.28,-2.63 -0.25,-0.57 -0.45,-1.25 -0.58,-2.06 -0.13,-0.8 -0.22,-1.52 -0.24,-2.14 -0.02,-0.63 -0.03,-1.42 -0.03,-2.39 0,-1.5 0.05,-2.77 0.16,-3.83 0.1,-1.06 0.33,-1.97 0.69,-2.76 0.51,-1.12 1.29,-2 2.31,-2.64 1.02,-0.64 2.25,-0.96 3.68,-0.96z"/>
  <path id="_1_18" class="fil6" d="M591.17 503.64c-0.64,-0.74 -1.57,-1.11 -2.79,-1.11 -1.21,0 -2.14,0.37 -2.78,1.11 -0.25,0.29 -0.46,0.61 -0.61,0.97 -0.16,0.36 -0.27,0.78 -0.32,1.26 -0.06,0.48 -0.1,0.89 -0.12,1.21 -0.01,0.32 -0.02,0.78 -0.02,1.38 0,0.6 0.01,1.06 0.02,1.38 0.02,0.32 0.06,0.72 0.12,1.21 0.05,0.47 0.16,0.9 0.32,1.25 0.15,0.36 0.36,0.69 0.61,0.98 0.64,0.74 1.57,1.11 2.78,1.11 1.22,0 2.15,-0.37 2.79,-1.11 0.26,-0.29 0.46,-0.62 0.62,-0.98 0.15,-0.35 0.25,-0.78 0.32,-1.25 0.06,-0.49 0.1,-0.89 0.11,-1.21 0.02,-0.32 0.02,-0.78 0.02,-1.38 0,-0.6 0,-1.06 -0.02,-1.38 -0.01,-0.32 -0.05,-0.73 -0.11,-1.21 -0.07,-0.48 -0.17,-0.9 -0.32,-1.26 -0.16,-0.36 -0.36,-0.68 -0.62,-0.97zm-5.31 -2.51c0.76,-0.32 1.6,-0.48 2.52,-0.48 0.93,0 1.77,0.16 2.53,0.48 0.76,0.33 1.38,0.75 1.86,1.29 0.37,0.41 0.68,0.86 0.91,1.34 0.22,0.48 0.38,1.01 0.47,1.61 0.09,0.59 0.15,1.08 0.17,1.47 0.02,0.39 0.02,0.92 0.02,1.62 0,0.69 0,1.23 -0.02,1.62 -0.02,0.38 -0.08,0.88 -0.17,1.47 -0.09,0.59 -0.25,1.13 -0.47,1.61 -0.23,0.48 -0.54,0.93 -0.91,1.34 -0.48,0.53 -1.1,0.96 -1.86,1.28 -0.76,0.32 -1.6,0.49 -2.53,0.49 -0.92,0 -1.76,-0.17 -2.52,-0.49 -0.75,-0.32 -1.37,-0.75 -1.86,-1.28 -0.38,-0.41 -0.68,-0.86 -0.91,-1.34 -0.22,-0.48 -0.38,-1.02 -0.47,-1.61 -0.09,-0.59 -0.14,-1.09 -0.16,-1.47 -0.02,-0.39 -0.03,-0.93 -0.03,-1.62 0,-0.7 0.01,-1.23 0.03,-1.62 0.02,-0.39 0.07,-0.88 0.16,-1.47 0.09,-0.6 0.25,-1.13 0.47,-1.61 0.23,-0.48 0.53,-0.93 0.91,-1.34 0.49,-0.54 1.11,-0.96 1.86,-1.29z"/>
  <path id="_2_19" class="fil6" d="M604.3 500.65c1.03,0 1.97,0.27 2.82,0.82 0.85,0.55 1.46,1.31 1.86,2.29 0.14,0.34 0.24,0.72 0.31,1.15 0.06,0.43 0.1,0.79 0.11,1.09 0.01,0.29 0.01,0.72 0.01,1.28l0 8.76 -2.1 0 0 -8.62c0,-0.89 -0.02,-1.53 -0.06,-1.93 -0.04,-0.39 -0.14,-0.77 -0.3,-1.14 -0.27,-0.58 -0.67,-1.02 -1.22,-1.35 -0.54,-0.31 -1.17,-0.47 -1.85,-0.47 -0.7,0 -1.32,0.16 -1.86,0.47 -0.55,0.33 -0.95,0.77 -1.22,1.35 -0.16,0.37 -0.26,0.75 -0.3,1.14 -0.04,0.4 -0.06,1.04 -0.06,1.93l0 8.62 -2.1 0 0 -15.16 2.1 0 0 1.59c1.11,-1.21 2.39,-1.82 3.86,-1.82z"/>
  <path id="_3_20" class="fil6" d="M614.18 511.79l0 -9.18 -2.1 0 0 -1.73 2.1 0 0 -3.28 2.1 0 0 3.28 2.8 0 0 1.73 -2.8 0 0 9.18c0,1.01 0.04,1.62 0.12,1.83 0.22,0.51 0.62,0.77 1.21,0.77 0.49,0 1.02,-0.15 1.6,-0.45l0.81 1.74c-0.89,0.39 -1.74,0.59 -2.55,0.59 -0.79,0 -1.46,-0.2 -2.01,-0.58 -0.55,-0.38 -0.92,-0.93 -1.13,-1.64 -0.1,-0.35 -0.15,-1.1 -0.15,-2.26z"/>
  <path id="_4_21" class="fil6" d="M625 502.47c1.02,-1.21 2.21,-1.82 3.57,-1.82 0.38,0 0.81,0.05 1.29,0.15l-0.31 1.86c-0.59,-0.09 -1.01,-0.13 -1.26,-0.13 -0.71,0 -1.33,0.17 -1.85,0.5 -0.52,0.34 -0.9,0.79 -1.13,1.36 -0.21,0.5 -0.31,1.37 -0.31,2.64l0 9.01 -2.1 0 0 -15.16 2.1 0 0 1.59z"/>
  <path id="_5_22" class="fil6" d="M640.64 503.64c-0.64,-0.74 -1.58,-1.11 -2.79,-1.11 -1.22,0 -2.15,0.37 -2.79,1.11 -0.25,0.29 -0.46,0.61 -0.61,0.97 -0.15,0.36 -0.26,0.78 -0.32,1.26 -0.06,0.48 -0.1,0.89 -0.11,1.21 -0.02,0.32 -0.02,0.78 -0.02,1.38 0,0.6 0,1.06 0.02,1.38 0.01,0.32 0.05,0.72 0.11,1.21 0.06,0.47 0.17,0.9 0.32,1.25 0.15,0.36 0.36,0.69 0.61,0.98 0.64,0.74 1.57,1.11 2.79,1.11 1.21,0 2.15,-0.37 2.79,-1.11 0.25,-0.29 0.46,-0.62 0.61,-0.98 0.15,-0.35 0.26,-0.78 0.32,-1.25 0.06,-0.49 0.1,-0.89 0.11,-1.21 0.02,-0.32 0.02,-0.78 0.02,-1.38 0,-0.6 0,-1.06 -0.02,-1.38 -0.01,-0.32 -0.05,-0.73 -0.11,-1.21 -0.06,-0.48 -0.17,-0.9 -0.32,-1.26 -0.15,-0.36 -0.36,-0.68 -0.61,-0.97zm-5.31 -2.51c0.75,-0.32 1.59,-0.48 2.52,-0.48 0.93,0 1.76,0.16 2.52,0.48 0.76,0.33 1.38,0.75 1.86,1.29 0.38,0.41 0.68,0.86 0.91,1.34 0.23,0.48 0.39,1.01 0.48,1.61 0.08,0.59 0.14,1.08 0.16,1.47 0.02,0.39 0.02,0.92 0.02,1.62 0,0.69 0,1.23 -0.02,1.62 -0.02,0.38 -0.08,0.88 -0.16,1.47 -0.09,0.59 -0.25,1.13 -0.48,1.61 -0.23,0.48 -0.53,0.93 -0.91,1.34 -0.48,0.53 -1.1,0.96 -1.86,1.28 -0.76,0.32 -1.59,0.49 -2.52,0.49 -0.93,0 -1.77,-0.17 -2.52,-0.49 -0.76,-0.32 -1.38,-0.75 -1.87,-1.28 -0.37,-0.41 -0.67,-0.86 -0.9,-1.34 -0.23,-0.48 -0.39,-1.02 -0.48,-1.61 -0.09,-0.59 -0.14,-1.09 -0.16,-1.47 -0.02,-0.39 -0.03,-0.93 -0.03,-1.62 0,-0.7 0.01,-1.23 0.03,-1.62 0.02,-0.39 0.07,-0.88 0.16,-1.47 0.09,-0.6 0.25,-1.13 0.48,-1.61 0.23,-0.48 0.53,-0.93 0.9,-1.34 0.49,-0.54 1.11,-0.96 1.87,-1.29z"/>
  <path id="_6_23" class="fil6" d="M651.19 514.3l0.34 1.8c-0.37,0.11 -0.8,0.17 -1.29,0.17 -0.77,0 -1.4,-0.32 -1.91,-0.93 -0.35,-0.43 -0.53,-1.09 -0.53,-1.98l0 -18.29 2.1 0 0 18.29c0,0.42 0.06,0.7 0.16,0.83 0.1,0.13 0.26,0.2 0.49,0.2 0.21,0 0.42,-0.03 0.64,-0.09z"/>
  <path id="_7_24" class="fil6" d="M655.87 511.54c0,0.8 0.27,1.47 0.8,2.02 0.52,0.55 1.27,0.83 2.22,0.83 0.76,0 1.45,-0.19 2.05,-0.56 0.59,-0.38 1.01,-0.94 1.26,-1.7 0.08,-0.27 0.15,-0.58 0.19,-0.94 0.04,-0.35 0.06,-0.69 0.07,-1 0,-0.32 0,-0.83 0,-1.54l-2.03 0c-1.35,0 -2.23,0.07 -2.66,0.2 -0.61,0.19 -1.08,0.52 -1.4,1 -0.33,0.48 -0.5,1.05 -0.5,1.69zm8.7 -4.62l0 9.12 -2.11 0 0 -1.61c-1.06,1.22 -2.35,1.84 -3.85,1.84 -1.42,0 -2.58,-0.45 -3.48,-1.36 -0.91,-0.9 -1.36,-2.02 -1.36,-3.37 0,-1.01 0.29,-1.9 0.87,-2.68 0.57,-0.78 1.38,-1.33 2.43,-1.65 0.31,-0.09 0.65,-0.16 1.02,-0.21 0.37,-0.04 0.7,-0.07 0.98,-0.08 0.28,0 0.71,0 1.28,0l2.11 0c0,-0.75 -0.01,-1.28 -0.03,-1.61 -0.03,-0.32 -0.09,-0.62 -0.19,-0.89 -0.23,-0.63 -0.63,-1.09 -1.18,-1.42 -0.55,-0.31 -1.18,-0.47 -1.89,-0.47 -1.04,0 -2.27,0.34 -3.69,1.02l-0.8 -1.74c1.71,-0.77 3.2,-1.16 4.49,-1.16 1.24,0 2.33,0.3 3.27,0.9 0.93,0.6 1.57,1.45 1.9,2.56 0.15,0.5 0.23,1.43 0.23,2.81z"/>
  <path id="_8_25" class="fil6" d="M671.01 502.47c1.02,-1.21 2.21,-1.82 3.57,-1.82 0.39,0 0.82,0.05 1.3,0.15l-0.31 1.86c-0.59,-0.09 -1.01,-0.13 -1.26,-0.13 -0.72,0 -1.33,0.17 -1.85,0.5 -0.53,0.34 -0.91,0.79 -1.14,1.36 -0.2,0.5 -0.31,1.37 -0.31,2.64l0 9.01 -2.1 0 0 -15.16 2.1 0 0 1.59z"/>
  <path class="fil6" d="M766.1 508.43l-3.29 -10.13 -3.29 10.13 6.58 0zm-4.34 -13.09l2.1 0 6.73 19.84 -2.28 0 -1.56 -4.79 -7.88 0 -1.55 4.79 -2.29 0 6.73 -19.84z"/>
  <path id="_1_26" class="fil6" d="M775.49 501.62c1.02,-1.22 2.21,-1.83 3.57,-1.83 0.39,0 0.82,0.06 1.3,0.16l-0.31 1.85c-0.59,-0.08 -1.01,-0.13 -1.26,-0.13 -0.72,0 -1.33,0.17 -1.85,0.51 -0.53,0.34 -0.91,0.79 -1.14,1.36 -0.2,0.49 -0.31,1.37 -0.31,2.63l0 9.01 -2.1 0 0 -15.16 2.1 0 0 1.6z"/>
  <path id="_2_27" class="fil6" d="M787.92 499.79c1.56,0 2.89,0.62 4,1.84l0 -1.61 2.1 0 0 20.97 -2.1 0 0 -7.42c-1.11,1.23 -2.44,1.84 -4,1.84 -0.95,0 -1.81,-0.21 -2.59,-0.62 -0.78,-0.41 -1.39,-0.95 -1.82,-1.62 -0.47,-0.72 -0.78,-1.5 -0.91,-2.32 -0.14,-0.83 -0.21,-1.91 -0.21,-3.25 0,-1.33 0.07,-2.41 0.21,-3.24 0.13,-0.83 0.44,-1.61 0.91,-2.32 0.43,-0.68 1.04,-1.22 1.82,-1.63 0.78,-0.41 1.64,-0.62 2.59,-0.62zm3.16 3.26c-0.67,-0.92 -1.62,-1.38 -2.88,-1.38 -1.25,0 -2.21,0.46 -2.87,1.38 -0.36,0.48 -0.59,1.07 -0.69,1.76 -0.1,0.7 -0.15,1.62 -0.15,2.79 0,1.17 0.05,2.1 0.15,2.79 0.1,0.69 0.33,1.28 0.69,1.77 0.66,0.91 1.62,1.37 2.87,1.37 1.26,0 2.21,-0.46 2.88,-1.37 0.35,-0.49 0.58,-1.08 0.68,-1.77 0.11,-0.69 0.16,-1.62 0.16,-2.79 0,-1.17 -0.05,-2.09 -0.16,-2.79 -0.1,-0.69 -0.33,-1.28 -0.68,-1.76z"/>
  <path id="_3_28" class="fil6" d="M798.37 500.02l2.1 0 0 8.76c0,1.26 0.07,2.11 0.21,2.53 0.23,0.73 0.64,1.28 1.22,1.65 0.58,0.38 1.24,0.57 2,0.57 0.76,0 1.43,-0.19 2.01,-0.57 0.58,-0.37 0.98,-0.92 1.22,-1.65 0.14,-0.42 0.21,-1.27 0.21,-2.53l0 -8.76 2.1 0 0 8.9c0,0.49 -0.01,0.87 -0.02,1.14 0,0.27 -0.04,0.6 -0.09,0.99 -0.06,0.39 -0.15,0.75 -0.27,1.06 -0.39,1.07 -1.03,1.88 -1.93,2.45 -0.89,0.57 -1.97,0.85 -3.23,0.85 -1.26,0 -2.34,-0.28 -3.23,-0.85 -0.89,-0.57 -1.53,-1.38 -1.92,-2.45 -0.13,-0.31 -0.21,-0.67 -0.27,-1.06 -0.06,-0.39 -0.09,-0.72 -0.1,-0.99 -0.01,-0.27 -0.01,-0.65 -0.01,-1.14l0 -8.9z"/>
  <path id="_4_29" class="fil6" d="M813.96 495.44c0.24,-0.24 0.56,-0.37 0.94,-0.37 0.39,0 0.7,0.13 0.95,0.37 0.25,0.25 0.37,0.56 0.37,0.95 0,0.38 -0.12,0.7 -0.37,0.94 -0.25,0.25 -0.56,0.38 -0.95,0.38 -0.38,0 -0.7,-0.13 -0.94,-0.38 -0.25,-0.24 -0.37,-0.56 -0.37,-0.94 0,-0.39 0.12,-0.7 0.37,-0.95zm2 19.74l-2.11 0 0 -15.16 2.11 0 0 15.16z"/>
  <polygon id="_5_30" class="fil6" points="824.19,515.18 819.11,500.02 821.31,500.02 825.2,512.49 829.1,500.02 831.3,500.02 826.21,515.18 "/>
  <path id="_6_31" class="fil6" d="M835.36 510.69c0,0.79 0.27,1.46 0.8,2.01 0.53,0.56 1.27,0.83 2.22,0.83 0.76,0 1.45,-0.19 2.05,-0.56 0.59,-0.37 1.02,-0.94 1.26,-1.69 0.08,-0.28 0.15,-0.59 0.19,-0.95 0.04,-0.35 0.06,-0.69 0.07,-1 0,-0.31 0,-0.82 0,-1.53l-2.03 0c-1.35,0 -2.23,0.06 -2.66,0.19 -0.61,0.19 -1.08,0.53 -1.4,1.01 -0.33,0.48 -0.5,1.04 -0.5,1.69zm8.7 -4.63l0 9.12 -2.11 0 0 -1.61c-1.06,1.23 -2.35,1.84 -3.85,1.84 -1.42,0 -2.58,-0.45 -3.48,-1.35 -0.91,-0.9 -1.36,-2.03 -1.36,-3.37 0,-1.01 0.29,-1.91 0.87,-2.69 0.57,-0.78 1.38,-1.33 2.43,-1.65 0.31,-0.09 0.65,-0.16 1.02,-0.21 0.37,-0.04 0.7,-0.07 0.98,-0.07 0.28,-0.01 0.71,-0.01 1.28,-0.01l2.11 0c0,-0.75 -0.01,-1.28 -0.03,-1.61 -0.03,-0.32 -0.09,-0.61 -0.19,-0.89 -0.23,-0.62 -0.62,-1.09 -1.18,-1.41 -0.55,-0.32 -1.18,-0.48 -1.89,-0.48 -1.04,0 -2.27,0.34 -3.69,1.03l-0.8 -1.74c1.71,-0.78 3.2,-1.17 4.49,-1.17 1.25,0 2.33,0.31 3.27,0.9 0.93,0.6 1.57,1.45 1.9,2.57 0.15,0.49 0.23,1.43 0.23,2.8z"/>
  <path id="_7_32" class="fil6" d="M850.5 501.62c1.02,-1.22 2.21,-1.83 3.58,-1.83 0.38,0 0.81,0.06 1.29,0.16l-0.31 1.85c-0.59,-0.08 -1.01,-0.13 -1.26,-0.13 -0.72,0 -1.33,0.17 -1.85,0.51 -0.53,0.34 -0.91,0.79 -1.14,1.36 -0.2,0.49 -0.31,1.37 -0.31,2.63l0 9.01 -2.1 0 0 -15.16 2.1 0 0 1.6z"/>
  <path class="fil6" d="M930.86 497.03l0 15.93 2.84 0c0.48,0 0.86,-0.01 1.13,-0.02 0.28,-0.01 0.62,-0.05 1.03,-0.13 0.4,-0.08 0.74,-0.19 1,-0.35 0.33,-0.18 0.61,-0.42 0.87,-0.7 0.25,-0.28 0.46,-0.56 0.62,-0.83 0.16,-0.28 0.3,-0.63 0.42,-1.05 0.11,-0.43 0.19,-0.8 0.24,-1.11 0.06,-0.31 0.1,-0.73 0.13,-1.25 0.03,-0.53 0.05,-0.94 0.05,-1.23 0.01,-0.3 0.01,-0.73 0.01,-1.3 0,-0.57 0,-1 -0.01,-1.29 0,-0.3 -0.02,-0.71 -0.05,-1.23 -0.03,-0.52 -0.07,-0.94 -0.13,-1.25 -0.05,-0.32 -0.13,-0.68 -0.24,-1.11 -0.12,-0.43 -0.26,-0.78 -0.42,-1.05 -0.16,-0.28 -0.37,-0.56 -0.62,-0.84 -0.26,-0.28 -0.54,-0.51 -0.87,-0.7 -0.26,-0.15 -0.6,-0.26 -1,-0.34 -0.41,-0.08 -0.75,-0.12 -1.03,-0.13 -0.27,-0.01 -0.65,-0.02 -1.13,-0.02l-2.84 0zm-2.19 -1.96l5.03 0c1.41,0 2.48,0.11 3.21,0.32 0.87,0.26 1.6,0.68 2.21,1.27 0.61,0.59 1.09,1.28 1.44,2.05 0.25,0.58 0.44,1.28 0.57,2.08 0.13,0.81 0.21,1.48 0.23,2.02 0.02,0.53 0.03,1.26 0.03,2.18 0,0.93 -0.01,1.65 -0.03,2.19 -0.02,0.53 -0.1,1.2 -0.23,2.01 -0.13,0.81 -0.32,1.5 -0.57,2.08 -0.35,0.78 -0.83,1.46 -1.44,2.05 -0.61,0.6 -1.34,1.02 -2.21,1.28 -0.73,0.21 -1.8,0.32 -3.21,0.32l-5.03 0 0 -19.85z"/>
  <path id="_1_33" class="fil6" d="M950.91 515.14c-1.08,0 -2.04,-0.2 -2.87,-0.61 -0.83,-0.41 -1.49,-0.96 -1.97,-1.68 -0.35,-0.49 -0.61,-1.08 -0.78,-1.76 -0.18,-0.68 -0.28,-1.26 -0.3,-1.73 -0.02,-0.47 -0.03,-1.15 -0.03,-2.03 0,-0.71 0.01,-1.26 0.02,-1.63 0.01,-0.37 0.06,-0.82 0.14,-1.35 0.08,-0.52 0.2,-1 0.36,-1.43 0.39,-1.03 1.05,-1.85 1.96,-2.47 0.93,-0.61 1.99,-0.92 3.19,-0.92 1.19,0 2.25,0.31 3.18,0.93 0.93,0.62 1.59,1.44 2,2.47 0.23,0.59 0.37,1.18 0.42,1.76 0.05,0.59 0.08,1.46 0.08,2.63l0 0.46 -9.25 0c0,0.61 0.01,1.1 0.03,1.47 0.01,0.37 0.09,0.81 0.22,1.33 0.12,0.52 0.31,0.95 0.55,1.29 0.64,0.93 1.66,1.39 3.05,1.39 1.25,0 2.58,-0.34 4.01,-1.02l0.8 1.74c-1.65,0.77 -3.25,1.16 -4.81,1.16zm3.3 -9.09c-0.02,-1.07 -0.15,-1.92 -0.41,-2.54 -0.25,-0.65 -0.66,-1.16 -1.23,-1.54 -0.56,-0.38 -1.21,-0.56 -1.94,-0.56 -0.75,0 -1.41,0.18 -1.96,0.56 -0.55,0.38 -0.95,0.89 -1.19,1.52 -0.25,0.66 -0.39,1.51 -0.4,2.56l7.13 0z"/>
  <path id="_2_34" class="fil6" d="M964.69 499.53c1.39,0 3,0.38 4.81,1.14l-0.71 1.79c-1.65,-0.7 -3.01,-1.05 -4.1,-1.05 -0.54,0 -1.01,0.07 -1.42,0.24 -0.42,0.15 -0.73,0.36 -0.93,0.61 -0.21,0.25 -0.36,0.5 -0.46,0.76 -0.09,0.25 -0.15,0.5 -0.15,0.74 0,0.47 0.13,0.88 0.39,1.22 0.26,0.36 0.58,0.62 0.97,0.8 0.39,0.18 1.02,0.33 1.89,0.45 0.87,0.13 1.61,0.3 2.19,0.52 0.83,0.3 1.52,0.8 2.08,1.49 0.56,0.7 0.84,1.51 0.84,2.46 0,1.18 -0.48,2.22 -1.44,3.11 -0.97,0.89 -2.28,1.33 -3.96,1.33 -1.57,0 -3.33,-0.43 -5.29,-1.3l0.75 -1.76c1.74,0.79 3.25,1.18 4.54,1.18 0.58,0 1.09,-0.08 1.54,-0.24 0.44,-0.16 0.79,-0.37 1.03,-0.62 0.24,-0.27 0.42,-0.54 0.55,-0.83 0.11,-0.28 0.18,-0.57 0.18,-0.87 0,-0.53 -0.16,-1 -0.48,-1.39 -0.32,-0.39 -0.71,-0.68 -1.18,-0.86 -0.31,-0.12 -0.96,-0.25 -1.92,-0.4 -0.96,-0.15 -1.72,-0.36 -2.3,-0.62 -0.72,-0.34 -1.31,-0.82 -1.78,-1.46 -0.46,-0.63 -0.7,-1.37 -0.7,-2.21 0,-1.15 0.46,-2.14 1.38,-2.98 0.92,-0.83 2.15,-1.25 3.68,-1.25z"/>
  <path id="_3_35" class="fil6" d="M978.99 499.53c1.54,0 3.07,0.47 4.58,1.41l-1 1.66c-1.22,-0.8 -2.41,-1.19 -3.58,-1.19 -1.22,0 -2.18,0.48 -2.86,1.47 -0.24,0.35 -0.43,0.82 -0.55,1.39 -0.12,0.58 -0.19,1.05 -0.21,1.44 -0.02,0.38 -0.03,0.9 -0.03,1.54 0,0.73 0.01,1.29 0.02,1.68 0.02,0.38 0.08,0.85 0.2,1.39 0.11,0.54 0.27,1 0.5,1.37 0.32,0.54 0.75,0.94 1.28,1.19 0.52,0.26 1.07,0.38 1.65,0.38 0.63,0 1.3,-0.12 2,-0.36 0.69,-0.25 1.3,-0.54 1.82,-0.9l1.07 1.6c-0.67,0.45 -1.44,0.81 -2.32,1.11 -0.87,0.29 -1.73,0.43 -2.57,0.43 -1.07,0 -2.02,-0.23 -2.86,-0.71 -0.84,-0.47 -1.48,-1.09 -1.92,-1.85 -0.3,-0.53 -0.53,-1.1 -0.67,-1.73 -0.15,-0.64 -0.24,-1.18 -0.26,-1.65 -0.03,-0.46 -0.04,-1.11 -0.04,-1.95 0,-0.73 0.01,-1.31 0.04,-1.76 0.02,-0.44 0.11,-1 0.26,-1.66 0.14,-0.66 0.37,-1.24 0.67,-1.74 0.46,-0.77 1.1,-1.38 1.92,-1.86 0.83,-0.47 1.78,-0.7 2.86,-0.7z"/>
  <path id="_4_36" class="fil6" d="M988.5 510.42c0,0.79 0.27,1.46 0.8,2.01 0.52,0.56 1.26,0.83 2.22,0.83 0.76,0 1.45,-0.19 2.04,-0.56 0.6,-0.37 1.02,-0.94 1.27,-1.69 0.08,-0.27 0.14,-0.59 0.18,-0.94 0.05,-0.36 0.07,-0.69 0.07,-1 0.01,-0.32 0.01,-0.83 0.01,-1.54l-2.03 0c-1.35,0 -2.23,0.07 -2.66,0.2 -0.61,0.18 -1.08,0.52 -1.41,1 -0.32,0.48 -0.49,1.04 -0.49,1.69zm8.69 -4.63l0 9.13 -2.1 0 0 -1.62c-1.06,1.23 -2.35,1.84 -3.85,1.84 -1.42,0 -2.59,-0.45 -3.49,-1.35 -0.9,-0.9 -1.35,-2.03 -1.35,-3.37 0,-1.01 0.29,-1.9 0.86,-2.68 0.58,-0.79 1.39,-1.33 2.43,-1.66 0.31,-0.09 0.65,-0.16 1.03,-0.21 0.37,-0.04 0.7,-0.07 0.98,-0.07 0.28,-0.01 0.71,-0.01 1.27,-0.01l2.12 0c0,-0.75 -0.01,-1.28 -0.03,-1.6 -0.03,-0.32 -0.09,-0.62 -0.19,-0.89 -0.24,-0.63 -0.63,-1.1 -1.18,-1.42 -0.55,-0.32 -1.18,-0.47 -1.89,-0.47 -1.04,0 -2.27,0.34 -3.69,1.02l-0.8 -1.74c1.7,-0.78 3.2,-1.16 4.49,-1.16 1.24,0 2.33,0.3 3.27,0.9 0.93,0.59 1.56,1.45 1.9,2.56 0.15,0.49 0.22,1.43 0.22,2.8z"/>
  <path id="_5_37" class="fil6" d="M1003.64 501.35c1.02,-1.22 2.21,-1.82 3.57,-1.82 0.38,0 0.82,0.05 1.29,0.15l-0.31 1.85c-0.59,-0.08 -1.01,-0.12 -1.26,-0.12 -0.71,0 -1.33,0.16 -1.85,0.5 -0.52,0.34 -0.9,0.79 -1.13,1.36 -0.21,0.49 -0.31,1.37 -0.31,2.63l0 9.02 -2.1 0 0 -15.17 2.1 0 0 1.6z"/>
  <path id="_6_38" class="fil6" d="M1012.01 510.67l0 -9.18 -2.1 0 0 -1.74 2.1 0 0 -3.28 2.1 0 0 3.28 2.8 0 0 1.74 -2.8 0 0 9.18c0,1.01 0.04,1.62 0.12,1.82 0.22,0.52 0.62,0.77 1.21,0.77 0.49,0 1.02,-0.15 1.6,-0.45l0.81 1.74c-0.89,0.4 -1.74,0.59 -2.55,0.59 -0.79,0 -1.46,-0.19 -2.01,-0.57 -0.55,-0.39 -0.92,-0.94 -1.13,-1.64 -0.1,-0.36 -0.15,-1.11 -0.15,-2.26z"/>
  <path id="_7_39" class="fil6" d="M1021.99 510.42c0,0.79 0.26,1.46 0.79,2.01 0.53,0.56 1.27,0.83 2.22,0.83 0.76,0 1.45,-0.19 2.05,-0.56 0.59,-0.37 1.02,-0.94 1.26,-1.69 0.08,-0.27 0.15,-0.59 0.19,-0.94 0.04,-0.36 0.06,-0.69 0.07,-1 0,-0.32 0,-0.83 0,-1.54l-2.03 0c-1.34,0 -2.23,0.07 -2.66,0.2 -0.61,0.18 -1.08,0.52 -1.4,1 -0.33,0.48 -0.49,1.04 -0.49,1.69zm8.69 -4.63l0 9.13 -2.11 0 0 -1.62c-1.06,1.23 -2.35,1.84 -3.85,1.84 -1.42,0 -2.58,-0.45 -3.48,-1.35 -0.91,-0.9 -1.35,-2.03 -1.35,-3.37 0,-1.01 0.28,-1.9 0.86,-2.68 0.57,-0.79 1.38,-1.33 2.43,-1.66 0.31,-0.09 0.65,-0.16 1.02,-0.21 0.37,-0.04 0.7,-0.07 0.98,-0.07 0.28,-0.01 0.71,-0.01 1.28,-0.01l2.11 0c0,-0.75 -0.01,-1.28 -0.03,-1.6 -0.02,-0.32 -0.09,-0.62 -0.19,-0.89 -0.23,-0.63 -0.62,-1.1 -1.18,-1.42 -0.55,-0.32 -1.18,-0.47 -1.89,-0.47 -1.04,0 -2.27,0.34 -3.69,1.02l-0.8 -1.74c1.71,-0.78 3.2,-1.16 4.49,-1.16 1.25,0 2.33,0.3 3.27,0.9 0.93,0.59 1.57,1.45 1.9,2.56 0.15,0.49 0.23,1.43 0.23,2.8z"/>
  <path id="_8_40" class="fil6" d="M1037.12 501.35c1.02,-1.22 2.21,-1.82 3.58,-1.82 0.38,0 0.81,0.05 1.29,0.15l-0.31 1.85c-0.59,-0.08 -1.01,-0.12 -1.26,-0.12 -0.71,0 -1.33,0.16 -1.85,0.5 -0.52,0.34 -0.91,0.79 -1.14,1.36 -0.2,0.49 -0.31,1.37 -0.31,2.63l0 9.02 -2.1 0 0 -15.17 2.1 0 0 1.6z"/>
  <polygon class="fil6" points="1119.23,496.2 1121.42,496.2 1121.42,514.08 1129.33,514.08 1129.33,516.04 1119.23,516.04 "/>
  <path id="_1_41" class="fil6" d="M1140.67 503.64c-0.64,-0.74 -1.58,-1.11 -2.79,-1.11 -1.22,0 -2.15,0.37 -2.79,1.11 -0.25,0.29 -0.46,0.61 -0.61,0.97 -0.15,0.36 -0.26,0.78 -0.32,1.26 -0.06,0.48 -0.1,0.89 -0.11,1.21 -0.02,0.32 -0.02,0.78 -0.02,1.38 0,0.6 0,1.06 0.02,1.38 0.01,0.32 0.05,0.72 0.11,1.21 0.06,0.47 0.17,0.9 0.32,1.25 0.15,0.36 0.36,0.69 0.61,0.98 0.64,0.74 1.57,1.11 2.79,1.11 1.21,0 2.15,-0.37 2.79,-1.11 0.25,-0.29 0.46,-0.62 0.61,-0.98 0.15,-0.35 0.26,-0.78 0.32,-1.25 0.06,-0.49 0.1,-0.89 0.11,-1.21 0.02,-0.32 0.02,-0.78 0.02,-1.38 0,-0.6 0,-1.06 -0.02,-1.38 -0.01,-0.32 -0.05,-0.73 -0.11,-1.21 -0.06,-0.48 -0.17,-0.9 -0.32,-1.26 -0.15,-0.36 -0.36,-0.68 -0.61,-0.97zm-5.31 -2.51c0.75,-0.32 1.59,-0.48 2.52,-0.48 0.93,0 1.76,0.16 2.52,0.48 0.76,0.33 1.38,0.75 1.87,1.29 0.37,0.41 0.67,0.86 0.9,1.34 0.23,0.48 0.39,1.01 0.48,1.61 0.08,0.59 0.14,1.08 0.16,1.47 0.02,0.39 0.02,0.92 0.02,1.62 0,0.69 0,1.23 -0.02,1.62 -0.02,0.38 -0.08,0.88 -0.16,1.47 -0.09,0.59 -0.25,1.13 -0.48,1.61 -0.23,0.48 -0.53,0.93 -0.9,1.34 -0.49,0.53 -1.11,0.96 -1.87,1.28 -0.76,0.32 -1.59,0.49 -2.52,0.49 -0.93,0 -1.77,-0.17 -2.52,-0.49 -0.76,-0.32 -1.38,-0.75 -1.87,-1.28 -0.37,-0.41 -0.67,-0.86 -0.9,-1.34 -0.23,-0.48 -0.39,-1.02 -0.48,-1.61 -0.09,-0.59 -0.14,-1.09 -0.16,-1.47 -0.02,-0.39 -0.03,-0.93 -0.03,-1.62 0,-0.7 0.01,-1.23 0.03,-1.62 0.02,-0.39 0.07,-0.88 0.16,-1.47 0.09,-0.6 0.25,-1.13 0.48,-1.61 0.23,-0.48 0.53,-0.93 0.9,-1.34 0.49,-0.54 1.11,-0.96 1.87,-1.29z"/>
  <path id="_2_42" class="fil6" d="M1153.09 500.65c1.54,0 3.07,0.47 4.58,1.42l-0.99 1.65c-1.23,-0.79 -2.42,-1.19 -3.59,-1.19 -1.22,0 -2.18,0.49 -2.86,1.47 -0.24,0.36 -0.43,0.82 -0.55,1.4 -0.12,0.57 -0.19,1.05 -0.21,1.43 -0.01,0.38 -0.02,0.9 -0.02,1.54 0,0.73 0,1.29 0.02,1.68 0.01,0.39 0.07,0.85 0.19,1.39 0.11,0.54 0.27,1 0.5,1.38 0.32,0.54 0.75,0.93 1.28,1.19 0.52,0.25 1.07,0.38 1.65,0.38 0.63,0 1.3,-0.12 2,-0.37 0.69,-0.24 1.3,-0.54 1.82,-0.89l1.07 1.6c-0.66,0.44 -1.43,0.81 -2.31,1.1 -0.88,0.29 -1.74,0.44 -2.58,0.44 -1.07,0 -2.02,-0.24 -2.86,-0.71 -0.84,-0.48 -1.48,-1.09 -1.92,-1.86 -0.3,-0.52 -0.52,-1.1 -0.67,-1.73 -0.15,-0.63 -0.24,-1.18 -0.26,-1.64 -0.02,-0.47 -0.04,-1.12 -0.04,-1.96 0,-0.73 0.02,-1.31 0.04,-1.75 0.02,-0.45 0.11,-1 0.26,-1.66 0.15,-0.67 0.37,-1.25 0.67,-1.75 0.46,-0.76 1.1,-1.38 1.93,-1.85 0.82,-0.48 1.77,-0.71 2.85,-0.71z"/>
  <path id="_3_43" class="fil6" d="M1162.6 511.54c0,0.8 0.27,1.47 0.8,2.02 0.52,0.55 1.26,0.83 2.22,0.83 0.76,0 1.45,-0.19 2.04,-0.56 0.6,-0.38 1.02,-0.94 1.27,-1.7 0.08,-0.27 0.15,-0.58 0.18,-0.94 0.05,-0.35 0.07,-0.69 0.08,-1 0,-0.32 0,-0.83 0,-1.54l-2.03 0c-1.35,0 -2.23,0.07 -2.66,0.2 -0.61,0.19 -1.08,0.52 -1.4,1 -0.33,0.48 -0.5,1.05 -0.5,1.69zm8.7 -4.62l0 9.12 -2.11 0 0 -1.61c-1.06,1.22 -2.35,1.84 -3.85,1.84 -1.42,0 -2.58,-0.45 -3.48,-1.36 -0.91,-0.9 -1.36,-2.02 -1.36,-3.37 0,-1.01 0.29,-1.9 0.86,-2.68 0.58,-0.78 1.39,-1.33 2.43,-1.65 0.31,-0.09 0.65,-0.16 1.03,-0.21 0.37,-0.04 0.7,-0.07 0.98,-0.08 0.28,0 0.71,0 1.28,0l2.11 0c0,-0.75 -0.01,-1.28 -0.03,-1.61 -0.03,-0.32 -0.09,-0.62 -0.19,-0.89 -0.23,-0.63 -0.63,-1.09 -1.18,-1.42 -0.55,-0.31 -1.18,-0.47 -1.89,-0.47 -1.04,0 -2.27,0.34 -3.69,1.02l-0.8 -1.74c1.7,-0.77 3.2,-1.16 4.49,-1.16 1.24,0 2.33,0.3 3.27,0.9 0.93,0.6 1.57,1.45 1.9,2.56 0.15,0.5 0.23,1.43 0.23,2.81z"/>
  <path id="_4_44" class="fil6" d="M1179.03 514.3l0.34 1.8c-0.38,0.11 -0.81,0.17 -1.29,0.17 -0.77,0 -1.4,-0.32 -1.91,-0.93 -0.35,-0.43 -0.53,-1.09 -0.53,-1.98l0 -18.29 2.1 0 0 18.29c0,0.42 0.05,0.7 0.15,0.83 0.11,0.13 0.27,0.2 0.49,0.2 0.21,0 0.43,-0.03 0.65,-0.09z"/>
  <path id="_5_45" class="fil6" d="M1182.62 496.3c0.25,-0.25 0.57,-0.37 0.95,-0.37 0.38,0 0.7,0.12 0.95,0.37 0.25,0.25 0.37,0.56 0.37,0.94 0,0.39 -0.12,0.7 -0.37,0.95 -0.25,0.25 -0.57,0.37 -0.95,0.37 -0.38,0 -0.7,-0.12 -0.95,-0.37 -0.24,-0.25 -0.36,-0.56 -0.36,-0.95 0,-0.38 0.12,-0.69 0.36,-0.94zm2 19.74l-2.1 0 0 -15.16 2.1 0 0 15.16z"/>
  <polygon id="_6_46" class="fil6" points="1198.15,514.16 1198.15,516.04 1188.05,516.04 1188.05,514.53 1195.43,502.76 1188.15,502.76 1188.15,500.88 1198.02,500.88 1198.02,502.39 1190.65,514.16 "/>
  <path id="_7_47" class="fil6" d="M1202.63 511.54c0,0.8 0.27,1.47 0.8,2.02 0.52,0.55 1.26,0.83 2.22,0.83 0.76,0 1.45,-0.19 2.04,-0.56 0.6,-0.38 1.02,-0.94 1.27,-1.7 0.08,-0.27 0.14,-0.58 0.18,-0.94 0.05,-0.35 0.07,-0.69 0.07,-1 0.01,-0.32 0.01,-0.83 0.01,-1.54l-2.03 0c-1.35,0 -2.23,0.07 -2.66,0.2 -0.61,0.19 -1.08,0.52 -1.41,1 -0.32,0.48 -0.49,1.05 -0.49,1.69zm8.69 -4.62l0 9.12 -2.1 0 0 -1.61c-1.06,1.22 -2.35,1.84 -3.85,1.84 -1.42,0 -2.59,-0.45 -3.49,-1.36 -0.9,-0.9 -1.35,-2.02 -1.35,-3.37 0,-1.01 0.29,-1.9 0.86,-2.68 0.58,-0.78 1.39,-1.33 2.43,-1.65 0.31,-0.09 0.65,-0.16 1.03,-0.21 0.37,-0.04 0.7,-0.07 0.98,-0.08 0.28,0 0.71,0 1.27,0l2.12 0c0,-0.75 -0.01,-1.28 -0.03,-1.61 -0.03,-0.32 -0.09,-0.62 -0.19,-0.89 -0.24,-0.63 -0.63,-1.09 -1.18,-1.42 -0.55,-0.31 -1.18,-0.47 -1.89,-0.47 -1.04,0 -2.27,0.34 -3.69,1.02l-0.8 -1.74c1.7,-0.77 3.2,-1.16 4.49,-1.16 1.24,0 2.33,0.3 3.26,0.9 0.94,0.6 1.57,1.45 1.91,2.56 0.15,0.5 0.22,1.43 0.22,2.81z"/>
  <path id="_8_48" class="fil6" d="M1217.77 502.47c1.02,-1.21 2.21,-1.82 3.57,-1.82 0.38,0 0.81,0.05 1.29,0.15l-0.31 1.86c-0.59,-0.09 -1.01,-0.13 -1.26,-0.13 -0.71,0 -1.33,0.17 -1.85,0.5 -0.52,0.34 -0.9,0.79 -1.13,1.36 -0.21,0.5 -0.31,1.37 -0.31,2.64l0 9.01 -2.1 0 0 -15.16 2.1 0 0 1.59z"/>
  <path class="fil6" d="M1308.77 502.15l2.75 0c0.45,0 0.8,0 1.02,-0.01 0.22,0 0.48,-0.03 0.75,-0.07 0.28,-0.05 0.52,-0.11 0.72,-0.2 0.64,-0.28 1.11,-0.71 1.4,-1.29 0.3,-0.58 0.45,-1.19 0.45,-1.82 0,-0.25 -0.03,-0.51 -0.08,-0.78 -0.06,-0.27 -0.15,-0.55 -0.28,-0.87 -0.13,-0.31 -0.34,-0.6 -0.61,-0.88 -0.28,-0.26 -0.61,-0.47 -0.99,-0.63 -0.41,-0.15 -1.2,-0.23 -2.38,-0.23l-2.75 0 0 6.78zm0 1.96l0 7.18 3.17 0c0.47,0 0.83,0 1.06,-0.01 0.24,-0.01 0.5,-0.04 0.81,-0.09 0.3,-0.04 0.57,-0.12 0.8,-0.22 0.69,-0.31 1.18,-0.77 1.48,-1.38 0.29,-0.61 0.44,-1.24 0.44,-1.89 0,-0.31 -0.03,-0.61 -0.1,-0.92 -0.07,-0.3 -0.18,-0.61 -0.32,-0.92 -0.15,-0.32 -0.36,-0.6 -0.64,-0.87 -0.28,-0.25 -0.61,-0.46 -0.99,-0.61 -0.22,-0.08 -0.47,-0.15 -0.76,-0.19 -0.28,-0.04 -0.53,-0.07 -0.75,-0.07 -0.22,-0.01 -0.57,-0.01 -1.03,-0.01l-3.17 0zm7.15 -1.16c0.88,0.46 1.56,1.09 2.06,1.9 0.49,0.81 0.74,1.76 0.74,2.85 0,1.21 -0.33,2.3 -1,3.29 -0.67,0.98 -1.62,1.65 -2.85,1.99 -0.63,0.18 -1.6,0.27 -2.93,0.27l-5.36 0 0 -19.84 4.94 0c1.25,0 2.16,0.07 2.72,0.22 1.13,0.3 2.04,0.91 2.75,1.83 0.71,0.93 1.06,2.03 1.06,3.3 0,0.91 -0.19,1.72 -0.56,2.43 -0.36,0.71 -0.89,1.3 -1.57,1.76z"/>
  <path id="_1_49" class="fil6" d="M1323.9 508.76c0,0.79 0.27,1.46 0.8,2.01 0.53,0.55 1.27,0.83 2.22,0.83 0.76,0 1.45,-0.19 2.05,-0.56 0.59,-0.38 1.02,-0.94 1.26,-1.7 0.08,-0.27 0.15,-0.58 0.19,-0.94 0.04,-0.35 0.06,-0.69 0.07,-1 0,-0.31 0,-0.83 0,-1.53l-2.03 0c-1.34,0 -2.23,0.06 -2.66,0.19 -0.61,0.19 -1.08,0.52 -1.4,1.01 -0.33,0.47 -0.5,1.04 -0.5,1.69zm8.7 -4.63l0 9.12 -2.11 0 0 -1.61c-1.06,1.22 -2.35,1.84 -3.85,1.84 -1.42,0 -2.58,-0.45 -3.48,-1.36 -0.91,-0.9 -1.35,-2.02 -1.35,-3.36 0,-1.01 0.28,-1.91 0.86,-2.69 0.57,-0.78 1.38,-1.33 2.43,-1.65 0.31,-0.09 0.65,-0.16 1.02,-0.21 0.37,-0.04 0.7,-0.07 0.98,-0.08 0.28,0 0.71,0 1.28,0l2.11 0c0,-0.75 -0.01,-1.28 -0.03,-1.61 -0.02,-0.32 -0.09,-0.62 -0.19,-0.89 -0.23,-0.63 -0.62,-1.09 -1.18,-1.41 -0.55,-0.32 -1.18,-0.48 -1.89,-0.48 -1.04,0 -2.27,0.34 -3.69,1.03l-0.8 -1.75c1.71,-0.77 3.2,-1.16 4.49,-1.16 1.25,0 2.33,0.3 3.27,0.9 0.93,0.6 1.57,1.45 1.9,2.57 0.15,0.49 0.23,1.43 0.23,2.8z"/>
  <path id="_2_50" class="fil6" d="M1342.19 497.86c1.55,0 3.08,0.48 4.59,1.42l-1 1.65c-1.22,-0.79 -2.41,-1.19 -3.59,-1.19 -1.22,0 -2.17,0.49 -2.85,1.47 -0.25,0.36 -0.43,0.82 -0.55,1.4 -0.12,0.57 -0.19,1.05 -0.21,1.43 -0.02,0.39 -0.03,0.9 -0.03,1.54 0,0.73 0.01,1.29 0.02,1.68 0.02,0.39 0.08,0.85 0.19,1.39 0.11,0.55 0.28,1 0.51,1.38 0.32,0.54 0.75,0.94 1.27,1.19 0.53,0.25 1.08,0.38 1.65,0.38 0.64,0 1.31,-0.12 2,-0.37 0.7,-0.24 1.31,-0.54 1.83,-0.89l1.07 1.6c-0.67,0.44 -1.44,0.81 -2.32,1.1 -0.87,0.29 -1.73,0.44 -2.58,0.44 -1.06,0 -2.01,-0.24 -2.85,-0.71 -0.84,-0.47 -1.48,-1.09 -1.92,-1.86 -0.3,-0.52 -0.53,-1.1 -0.67,-1.73 -0.15,-0.63 -0.24,-1.18 -0.26,-1.64 -0.03,-0.46 -0.04,-1.11 -0.04,-1.96 0,-0.72 0.01,-1.31 0.04,-1.75 0.02,-0.45 0.11,-1 0.26,-1.66 0.14,-0.67 0.37,-1.25 0.67,-1.74 0.45,-0.77 1.1,-1.39 1.92,-1.86 0.83,-0.47 1.78,-0.71 2.85,-0.71z"/>
  <polygon id="_3_51" class="fil6" points="1350.45,492.28 1352.55,492.28 1352.55,506.4 1358.7,498.09 1361.17,498.09 1355.55,505.58 1361.31,513.25 1358.79,513.25 1354.24,507.04 1352.55,509.23 1352.55,513.25 1350.45,513.25 "/>
  <path id="_4_52" class="fil6" d="M1364.12 498.09l2.1 0 0 8.76c0,1.26 0.07,2.11 0.21,2.53 0.24,0.72 0.64,1.27 1.22,1.65 0.58,0.38 1.24,0.57 2.01,0.57 0.75,0 1.42,-0.19 2,-0.57 0.58,-0.38 0.99,-0.93 1.22,-1.65 0.14,-0.42 0.21,-1.27 0.21,-2.53l0 -8.76 2.1 0 0 8.9c0,0.49 0,0.87 -0.01,1.14 -0.01,0.27 -0.05,0.6 -0.1,0.99 -0.06,0.39 -0.15,0.75 -0.27,1.06 -0.39,1.07 -1.03,1.88 -1.93,2.45 -0.89,0.56 -1.97,0.85 -3.22,0.85 -1.27,0 -2.34,-0.29 -3.24,-0.85 -0.89,-0.57 -1.53,-1.38 -1.92,-2.45 -0.13,-0.31 -0.21,-0.67 -0.27,-1.06 -0.06,-0.39 -0.09,-0.72 -0.1,-0.99 -0.01,-0.27 -0.01,-0.65 -0.01,-1.14l0 -8.9z"/>
  <path id="_5_53" class="fil6" d="M1385.63 497.86c0.95,0 1.82,0.21 2.59,0.62 0.78,0.41 1.39,0.95 1.83,1.63 0.46,0.71 0.77,1.49 0.9,2.32 0.15,0.82 0.22,1.9 0.22,3.24 0,1.33 -0.07,2.42 -0.22,3.24 -0.13,0.83 -0.44,1.61 -0.9,2.32 -0.44,0.68 -1.05,1.22 -1.83,1.63 -0.77,0.41 -1.64,0.62 -2.59,0.62 -1.56,0 -2.89,-0.62 -3.99,-1.84l0 7.42 -2.11 0 0 -20.97 2.11 0 0 1.61c1.1,-1.23 2.43,-1.84 3.99,-1.84zm2.59 3.25c-0.66,-0.91 -1.62,-1.37 -2.87,-1.37 -1.25,0 -2.21,0.46 -2.87,1.37 -0.36,0.49 -0.59,1.08 -0.69,1.77 -0.1,0.69 -0.15,1.62 -0.15,2.79 0,1.17 0.05,2.1 0.15,2.79 0.1,0.69 0.33,1.28 0.69,1.76 0.66,0.92 1.62,1.38 2.87,1.38 1.25,0 2.21,-0.46 2.87,-1.38 0.36,-0.48 0.59,-1.07 0.69,-1.76 0.1,-0.69 0.15,-1.62 0.15,-2.79 0,-1.17 -0.05,-2.1 -0.15,-2.79 -0.1,-0.69 -0.33,-1.28 -0.69,-1.77z"/>
  <polygon class="fil3" points="1510.09,854.95 1600.11,854.95 1600.11,824.95 1510.09,824.95 "/>
  <polygon class="fil4" points="1465.92,854.95 1502.59,854.95 1502.59,824.95 1465.92,824.95 "/>
  <path class="fil5" d="M1474.59 839.95c0,-2.68 0.41,-4.68 1.23,-6 0.82,-1.31 2.17,-1.97 4.02,-1.97 1.87,0 3.22,0.66 4.05,1.97 0.82,1.31 1.23,3.31 1.23,6 0,2.69 -0.41,4.69 -1.23,6 -0.82,1.31 -2.17,1.97 -4.05,1.97 -1.85,0 -3.2,-0.66 -4.02,-1.97 -0.82,-1.31 -1.23,-3.31 -1.23,-6zm3.13 -1.51c-0.03,0.42 -0.04,0.92 -0.04,1.51 0,0.58 0.01,1.09 0.04,1.52 0.02,0.42 0.05,0.83 0.11,1.24 0.05,0.4 0.13,0.74 0.23,1.01 0.1,0.26 0.23,0.5 0.39,0.7 0.16,0.21 0.36,0.36 0.59,0.45 0.23,0.1 0.5,0.15 0.8,0.15 0.38,0 0.7,-0.08 0.96,-0.23 0.26,-0.15 0.47,-0.35 0.63,-0.61 0.16,-0.26 0.29,-0.61 0.38,-1.05 0.09,-0.44 0.14,-0.91 0.17,-1.39 0.03,-0.49 0.05,-1.09 0.05,-1.79 0,-0.59 -0.01,-1.09 -0.04,-1.51 -0.02,-0.42 -0.05,-0.84 -0.11,-1.24 -0.05,-0.4 -0.13,-0.74 -0.23,-1.01 -0.11,-0.27 -0.24,-0.5 -0.4,-0.71 -0.16,-0.21 -0.35,-0.36 -0.58,-0.45 -0.24,-0.1 -0.51,-0.15 -0.83,-0.15 -0.3,0 -0.57,0.05 -0.8,0.15 -0.23,0.09 -0.42,0.24 -0.58,0.45 -0.16,0.21 -0.29,0.44 -0.4,0.71 -0.1,0.27 -0.18,0.61 -0.23,1.01 -0.06,0.4 -0.09,0.82 -0.11,1.24z"/>
  <path id="_1_54" class="fil5" d="M1487 843.12c0,-0.87 0.21,-1.61 0.63,-2.24 0.42,-0.63 0.92,-1.1 1.49,-1.41 -0.46,-0.28 -0.86,-0.7 -1.19,-1.24 -0.34,-0.55 -0.51,-1.17 -0.51,-1.88 0,-1.28 0.46,-2.33 1.37,-3.14 0.91,-0.82 2.12,-1.23 3.63,-1.23 1.5,0 2.7,0.41 3.61,1.22 0.92,0.81 1.37,1.87 1.37,3.15 0,0.71 -0.17,1.33 -0.51,1.88 -0.34,0.54 -0.74,0.96 -1.2,1.24 0.59,0.32 1.09,0.79 1.51,1.41 0.41,0.63 0.62,1.37 0.62,2.24 0,1.44 -0.5,2.6 -1.49,3.48 -1,0.88 -2.31,1.32 -3.94,1.32 -1.65,0 -2.95,-0.44 -3.92,-1.31 -0.98,-0.87 -1.47,-2.03 -1.47,-3.49zm3.18 -0.04c0,0.59 0.2,1.09 0.6,1.47 0.39,0.38 0.94,0.58 1.64,0.58 0.7,0 1.25,-0.2 1.64,-0.58 0.39,-0.38 0.58,-0.88 0.58,-1.47 0,-0.62 -0.2,-1.12 -0.61,-1.5 -0.4,-0.39 -0.94,-0.58 -1.61,-0.58 -0.68,0 -1.22,0.2 -1.63,0.58 -0.4,0.38 -0.61,0.88 -0.61,1.5zm0.33 -6.54c0,0.53 0.18,0.96 0.53,1.29 0.36,0.33 0.82,0.49 1.38,0.49 0.55,0 1,-0.16 1.36,-0.5 0.35,-0.33 0.53,-0.76 0.53,-1.28 0,-0.51 -0.17,-0.93 -0.5,-1.27 -0.34,-0.33 -0.81,-0.5 -1.39,-0.5 -0.6,0 -1.07,0.17 -1.41,0.5 -0.33,0.33 -0.5,0.76 -0.5,1.27z"/>
 </g>
</svg>
