<?xml version="1.0" encoding="UTF-8"?>
<!DOCTYPE svg PUBLIC "-//W3C//DTD SVG 1.1//EN" "http://www.w3.org/Graphics/SVG/1.1/DTD/svg11.dtd">
<!-- Creator: CorelDRAW 2021 (64 Bit) -->
<svg xmlns="http://www.w3.org/2000/svg" xml:space="preserve" width="2000px" height="1125px" version="1.1" style="shape-rendering:geometricPrecision; text-rendering:geometricPrecision; image-rendering:optimizeQuality; fill-rule:evenodd; clip-rule:evenodd"
viewBox="0 0 2000.14 1124.99"
 xmlns:xlink="http://www.w3.org/1999/xlink"
 xmlns:xodm="http://www.corel.com/coreldraw/odm/2003">
 <defs>
  <style type="text/css">
   <![CDATA[
    .str0 {stroke:#373435;stroke-width:1.14;stroke-miterlimit:22.9256}
    .fil2 {fill:none}
    .fil0 {fill:#00CC83}
    .fil5 {fill:#FEFEFE;fill-rule:nonzero}
    .fil11 {fill:#D2D3D5;fill-rule:nonzero}
    .fil7 {fill:#373435;fill-rule:nonzero}
    .fil6 {fill:#373435;fill-rule:nonzero}
    .fil8 {fill:#953735;fill-rule:nonzero}
    .fil10 {fill:#953735;fill-rule:nonzero}
    .fil9 {fill:#00CC83;fill-rule:nonzero}
    .fil12 {fill:#00CC83;fill-rule:nonzero}
    .fil4 {fill:#7F7F7F;fill-rule:nonzero}
    .fil3 {fill:#B0B0B0;fill-rule:nonzero}
    .fil13 {fill:#CACACA;fill-rule:nonzero}
    .fil1 {fill:#FEFEFE}
   ]]>
  </style>
    <clipPath id="id0">
     <path d="M0 0l1999.94 0 0 1124.99 -1999.94 0 0 -1124.99z"/>
    </clipPath>
     <mask id="id1">
  <linearGradient id="id2" gradientUnits="userSpaceOnUse" x1="1100.88" y1="-324.2" x2="1100.88" y2="1028.82">
   <stop offset="0" style="stop-opacity:1; stop-color:white"/>
   <stop offset="1" style="stop-opacity:0; stop-color:white"/>
  </linearGradient>
      <rect style="fill:url(#id2)" width="1999.94" height="1124.99"/>
     </mask>
    <clipPath id="id3">
     <path d="M0 0l1999.94 0 0 1124.99 -1999.94 0 0 -1124.99z"/>
    </clipPath>
 </defs>
 <g id="Camada_x0020_1">
  <metadata id="CorelCorpID_0Corel-Layer"/>
  <g id="_1157505877072">
   <g style="clip-path:url(#id0)">
    <polygon class="fil0" style="mask:url(#id1)" points="0,0 1999.94,0 1999.94,1124.99 0,1124.99 "/>
   </g>
   <g style="clip-path:url(#id3)">
    <g>
     <polygon id="_1" class="fil1 str0" points="-206.62,-48.04 2062.57,-48.04 2062.57,1144.36 -206.62,1144.36 "/>
    </g>
   </g>
   <polygon class="fil2" points="0,0 1999.94,0 1999.94,1124.99 0,1124.99 "/>
   <polygon class="fil3" points="1887.61,1068.69 2000.14,1068.69 2000.14,1031.18 1887.61,1031.18 "/>
   <polygon class="fil4" points="1832.4,1068.69 1878.24,1068.69 1878.24,1031.18 1832.4,1031.18 "/>
   <path class="fil5" d="M1841.17 1049.94c0,-3.36 0.51,-5.85 1.54,-7.5 1.02,-1.64 2.7,-2.46 5.03,-2.46 2.33,0 4.01,0.82 5.05,2.46 1.03,1.63 1.54,4.14 1.54,7.5 0,3.36 -0.51,5.86 -1.54,7.5 -1.02,1.63 -2.71,2.45 -5.05,2.45 -2.33,0 -4.01,-0.82 -5.03,-2.45 -1.03,-1.64 -1.54,-4.14 -1.54,-7.5zm3.9 -1.89c-0.02,0.52 -0.04,1.15 -0.04,1.89 0,0.73 0.02,1.36 0.04,1.89 0.03,0.53 0.08,1.05 0.15,1.55 0.06,0.51 0.16,0.93 0.28,1.26 0.13,0.34 0.29,0.64 0.49,0.89 0.2,0.25 0.45,0.44 0.74,0.56 0.28,0.12 0.62,0.18 1.01,0.18 0.46,0 0.86,-0.09 1.18,-0.28 0.33,-0.19 0.6,-0.44 0.8,-0.76 0.2,-0.32 0.36,-0.76 0.47,-1.32 0.11,-0.55 0.18,-1.13 0.22,-1.74 0.04,-0.61 0.05,-1.35 0.05,-2.23 0,-0.74 -0.01,-1.37 -0.04,-1.89 -0.02,-0.53 -0.07,-1.05 -0.14,-1.55 -0.06,-0.51 -0.16,-0.93 -0.29,-1.26 -0.13,-0.33 -0.3,-0.63 -0.49,-0.89 -0.2,-0.26 -0.44,-0.45 -0.74,-0.57 -0.29,-0.12 -0.63,-0.18 -1.02,-0.18 -0.39,0 -0.73,0.06 -1.01,0.18 -0.29,0.12 -0.53,0.31 -0.73,0.57 -0.19,0.26 -0.36,0.56 -0.49,0.89 -0.13,0.33 -0.23,0.75 -0.29,1.26 -0.07,0.5 -0.12,1.02 -0.15,1.55z"/>
   <polygon id="_1_0" class="fil5" points="1856.38,1043.76 1856.38,1040.33 1869.05,1040.33 1869.05,1043.31 1862.77,1059.54 1858.6,1059.54 1864.96,1043.76 "/>
  </g>
  <path class="fil6" d="M162.22 233.77c0,-5.82 0,-9.24 1.48,-11.69 1.37,-2.28 4.05,-3.65 7.24,-3.65 3.19,0 5.87,1.37 7.24,3.65 1.48,2.45 1.48,5.87 1.48,11.69 0,5.81 0,9.23 -1.48,11.69 -1.37,2.28 -4.05,3.65 -7.24,3.65 -3.19,0 -5.87,-1.37 -7.24,-3.65 -1.48,-2.46 -1.48,-5.88 -1.48,-11.69zm-4.23 0c0,6.73 0,10.32 2.06,13.68 2.11,3.48 6.1,5.65 10.89,5.65 4.79,0 8.78,-2.17 10.89,-5.65 2.05,-3.36 2.05,-6.95 2.05,-13.68 0,-6.73 0,-10.32 -2.05,-13.69 -2.11,-3.48 -6.1,-5.64 -10.89,-5.64 -4.79,0 -8.78,2.16 -10.89,5.64 -2.06,3.37 -2.06,6.96 -2.06,13.69z"/>
  <path id="_1_1" class="fil6" d="M215.08 228.92c2.05,0 3.99,0.74 5.07,2.05 1.37,1.6 1.37,3.99 1.37,7.02 0,4.22 0,7.35 -1.71,9.35 -1.03,1.2 -2.68,1.99 -4.85,1.99 -2.16,0 -3.82,-0.79 -4.84,-1.99 -1.71,-2 -1.71,-5.13 -1.71,-8.33 0,-3.25 0,-6.16 1.82,-8.21 1.03,-1.14 2.74,-1.88 4.85,-1.88zm0 -3.76c-3.42,0 -6.16,1.31 -7.93,3.25 -2.74,3.08 -2.74,7.07 -2.74,10.6 0,3.88 0,7.64 2.57,10.72 1.65,2 4.33,3.37 7.7,3.37 2.79,0 5.3,-1.31 6.84,-3.48l0 13.57 3.99 0 0 -24.63c0,-4.62 0,-7.3 -2.28,-9.98 -2.22,-2.63 -5.53,-3.42 -8.15,-3.42z"/>
  <path id="_2" class="fil6" d="M231.79 225.5l0 14.6c0,3.99 0,7.3 2.68,10.09 1.36,1.43 3.82,2.91 7.29,2.91 3.48,0 5.94,-1.48 7.3,-2.91 2.68,-2.79 2.68,-6.1 2.68,-10.09l0 -14.6 -3.99 0 0 14.6c0,3.53 0,5.93 -1.65,7.58 -0.97,0.97 -2.45,1.65 -4.34,1.65 -1.88,0 -3.36,-0.68 -4.33,-1.65 -1.65,-1.65 -1.65,-4.05 -1.65,-7.58l0 -14.6 -3.99 0z"/>
  <path id="_3" class="fil6" d="M262.81 246.94c-1.32,-1.77 -1.32,-5.13 -1.32,-6.62l5.25 0c4.05,0 6.5,0 8.9,-1.71 1.59,-1.14 2.85,-3.08 2.85,-5.58 -0.06,-2.23 -1.14,-4.34 -2.85,-5.76 -1.71,-1.37 -3.99,-2.11 -6.85,-2.11 -4.04,0 -7.47,1.48 -9.29,4.05 -2.05,2.85 -2.05,5.47 -2.05,9.92 0,3.7 0,7.13 2.16,10.09 1.83,2.45 4.96,3.88 8.9,3.88 2.96,0 5.93,-0.63 8.61,-2l-1.65 -3.42c-2.06,1.08 -4.51,1.65 -6.96,1.65 -2.74,0 -4.56,-0.85 -5.7,-2.39zm11.69 -13.91c0,1.31 -0.63,2.28 -1.37,2.85 -1.2,0.91 -2.8,0.91 -6.39,0.91l-5.25 0c0,-1.14 0,-3.99 1.43,-5.65 1.26,-1.48 3.31,-2.22 5.87,-2.22 1.77,0 3.25,0.4 4.22,1.2 0.86,0.68 1.43,1.82 1.49,2.91z"/>
  <path id="_4" class="fil6" d="M317.15 241.35l0 -4.22c0,-3.02 0,-6.39 -2.28,-8.95 -1.71,-1.94 -4.28,-3.02 -7.7,-3.02 -3.08,0 -5.99,0.68 -8.67,1.65l1.26 3.59c2.39,-0.91 4.9,-1.48 7.41,-1.48 2.17,0 3.65,0.57 4.62,1.65 1.37,1.54 1.37,3.82 1.37,5.59l-4.68 0c-2.22,0 -5.41,0 -8.09,1.94 -1.83,1.31 -3.37,3.54 -3.37,6.56 0,2.96 1.54,5.25 3.42,6.56 1.83,1.31 4.17,1.88 6.9,1.88 3.42,0 6.1,-0.97 7.82,-2.97 1.99,-2.34 1.99,-4.96 1.99,-8.78zm-3.99 0c0,3.37 0,5.13 -1.08,6.39 -0.97,1.14 -2.63,1.59 -4.74,1.59 -1.82,0 -3.42,-0.34 -4.5,-1.08 -1.03,-0.74 -1.83,-1.99 -1.83,-3.59 0,-1.77 0.86,-3.08 1.89,-3.82 1.59,-1.14 3.65,-1.14 5.58,-1.14l4.68 0 0 1.65z"/>
  <path id="_5" class="fil6" d="M339.68 227.04c-2.57,-1.2 -5.42,-1.88 -8.33,-1.88 -2.34,0 -4.33,0.51 -5.99,1.65 -1.65,1.14 -3.08,3.14 -3.08,5.76 0,2.45 1.32,4.5 3.03,5.82 1.71,1.31 3.76,1.82 5.58,2.22 1.83,0.4 3.25,0.74 4.51,1.65 0.91,0.69 1.6,1.77 1.6,3.08 0,0.97 -0.4,2.11 -1.49,2.91 -1.08,0.8 -2.51,1.08 -4.16,1.08 -2.62,0 -5.25,-0.57 -7.58,-1.65l-1.6 3.42c2.91,1.37 6.1,2 9.18,2 2.62,0 4.79,-0.57 6.56,-1.83 1.77,-1.25 3.08,-3.36 3.08,-5.93 0,-2.85 -1.6,-4.96 -3.37,-6.21 -1.59,-1.14 -3.48,-1.66 -5.53,-2.11 -2.05,-0.46 -3.25,-0.74 -4.39,-1.66 -0.8,-0.62 -1.42,-1.59 -1.42,-2.79 0,-1.26 0.68,-2.28 1.65,-2.85 0.97,-0.57 1.99,-0.8 3.42,-0.8 2.28,0 4.68,0.57 6.84,1.6l1.49 -3.48z"/>
  <path id="_6" class="fil6" d="M369.39 214.44c-3.2,0 -5.25,1.36 -6.56,3.13 -1.6,2.17 -1.6,4.62 -1.6,8.04l0 27.15 3.99 0 0 -23.73 6.85 0 0 -3.53 -6.85 0c0,-2.91 0,-4.56 0.86,-5.76 0.74,-1.03 1.82,-1.54 3.31,-1.54 0.97,0 2.11,0.23 3.47,0.57l0.92 -3.65c-1.37,-0.34 -2.8,-0.68 -4.39,-0.68z"/>
  <path id="_7" class="fil6" d="M381.02 246.94c-1.31,-1.77 -1.31,-5.13 -1.31,-6.62l5.24 0c4.05,0 6.5,0 8.9,-1.71 1.6,-1.14 2.85,-3.08 2.85,-5.58 -0.06,-2.23 -1.14,-4.34 -2.85,-5.76 -1.71,-1.37 -3.99,-2.11 -6.84,-2.11 -4.05,0 -7.47,1.48 -9.3,4.05 -2.05,2.85 -2.05,5.47 -2.05,9.92 0,3.7 0,7.13 2.17,10.09 1.82,2.45 4.96,3.88 8.89,3.88 2.97,0 5.93,-0.63 8.61,-2l-1.65 -3.42c-2.05,1.08 -4.51,1.65 -6.96,1.65 -2.74,0 -4.56,-0.85 -5.7,-2.39zm11.69 -13.91c0,1.31 -0.63,2.28 -1.37,2.85 -1.2,0.91 -2.79,0.91 -6.39,0.91l-5.24 0c0,-1.14 0,-3.99 1.42,-5.65 1.26,-1.48 3.31,-2.22 5.88,-2.22 1.76,0 3.25,0.4 4.22,1.2 0.85,0.68 1.42,1.82 1.48,2.91z"/>
  <path id="_8" class="fil6" d="M412.55 225.16c-2.62,0 -5.93,0.79 -8.15,3.42 -2.28,2.68 -2.28,5.36 -2.28,9.98l0 14.2 3.99 0 0 -14.2c0,-3.6 0,-5.99 1.37,-7.59 1.08,-1.31 3.02,-2.05 5.07,-2.05 0.97,0 1.89,0.17 2.68,0.46l1.2 -3.6c-1.14,-0.4 -2.45,-0.62 -3.88,-0.62z"/>
  <path id="_9" class="fil6" d="M430.69 225.16c-2.63,0 -5.93,0.79 -8.16,3.42 -2.28,2.68 -2.28,5.36 -2.28,9.98l0 14.2 3.99 0 0 -14.2c0,-3.6 0,-5.99 1.37,-7.59 1.09,-1.31 3.02,-2.05 5.08,-2.05 0.97,0 1.88,0.17 2.68,0.46l1.2 -3.6c-1.15,-0.4 -2.46,-0.62 -3.88,-0.62z"/>
  <path id="_10" class="fil6" d="M457.38 241.35l0 -4.22c0,-3.02 0,-6.39 -2.29,-8.95 -1.71,-1.94 -4.27,-3.02 -7.69,-3.02 -3.08,0 -5.99,0.68 -8.67,1.65l1.25 3.59c2.4,-0.91 4.91,-1.48 7.42,-1.48 2.16,0 3.65,0.57 4.61,1.65 1.37,1.54 1.37,3.82 1.37,5.59l-4.67 0c-2.23,0 -5.42,0 -8.1,1.94 -1.83,1.31 -3.36,3.54 -3.36,6.56 0,2.96 1.53,5.25 3.42,6.56 1.82,1.31 4.16,1.88 6.9,1.88 3.42,0 6.1,-0.97 7.81,-2.97 2,-2.34 2,-4.96 2,-8.78zm-4 0c0,3.37 0,5.13 -1.08,6.39 -0.97,1.14 -2.62,1.59 -4.73,1.59 -1.83,0 -3.42,-0.34 -4.51,-1.08 -1.02,-0.74 -1.82,-1.99 -1.82,-3.59 0,-1.77 0.85,-3.08 1.88,-3.82 1.6,-1.14 3.65,-1.14 5.59,-1.14l4.67 0 0 1.65z"/>
  <path id="_11" class="fil6" d="M472.77 225.16c-2.68,0 -5.02,0.97 -6.56,2.45 -2.85,2.74 -2.85,6.27 -2.85,10.55l0 14.6 3.99 0 0 -14.6c0,-3.77 0,-6.33 1.71,-7.93 0.86,-0.8 2.17,-1.31 3.71,-1.31 1.54,0 2.85,0.51 3.71,1.31 1.71,1.6 1.71,4.16 1.71,7.93l0 14.6 3.99 0 0 -14.6c0,-3.77 0,-6.33 1.71,-7.93 0.86,-0.8 2.17,-1.31 3.71,-1.31 1.54,0 2.85,0.51 3.7,1.31 1.72,1.6 1.72,4.16 1.72,7.93l0 14.6 3.99 0 0 -14.6c0,-4.28 0,-7.81 -2.85,-10.55 -1.54,-1.48 -3.88,-2.45 -6.56,-2.45 -3.25,0 -5.88,1.42 -7.42,3.99 -1.54,-2.57 -4.16,-3.99 -7.41,-3.99z"/>
  <path id="_12" class="fil6" d="M508.07 246.94c-1.31,-1.77 -1.31,-5.13 -1.31,-6.62l5.24 0c4.05,0 6.51,0 8.9,-1.71 1.6,-1.14 2.85,-3.08 2.85,-5.58 -0.06,-2.23 -1.14,-4.34 -2.85,-5.76 -1.71,-1.37 -3.99,-2.11 -6.84,-2.11 -4.05,0 -7.47,1.48 -9.3,4.05 -2.05,2.85 -2.05,5.47 -2.05,9.92 0,3.7 0,7.13 2.17,10.09 1.82,2.45 4.96,3.88 8.89,3.88 2.97,0 5.93,-0.63 8.61,-2l-1.65 -3.42c-2.05,1.08 -4.51,1.65 -6.96,1.65 -2.74,0 -4.56,-0.85 -5.7,-2.39zm11.69 -13.91c0,1.31 -0.63,2.28 -1.37,2.85 -1.2,0.91 -2.79,0.91 -6.39,0.91l-5.24 0c0,-1.14 0,-3.99 1.42,-5.65 1.26,-1.48 3.31,-2.22 5.88,-2.22 1.76,0 3.25,0.4 4.22,1.2 0.85,0.68 1.42,1.82 1.48,2.91z"/>
  <path id="_13" class="fil6" d="M539.15 225.16c-3.48,0 -5.93,1.48 -7.3,2.9 -2.68,2.8 -2.68,6.11 -2.68,10.1l0 14.6 3.99 0 0 -14.6c0,-3.54 0,-5.93 1.65,-7.59 0.97,-0.97 2.46,-1.65 4.34,-1.65 1.88,0 3.36,0.68 4.33,1.65 1.66,1.66 1.66,4.05 1.66,7.59l0 14.6 3.99 0 0 -14.6c0,-3.99 0,-7.3 -2.68,-10.1 -1.37,-1.42 -3.82,-2.9 -7.3,-2.9z"/>
  <path id="_14" class="fil6" d="M559.68 243.06l0 -14.03 6.84 0 0 -3.53 -6.84 0 0 -6.45 -3.99 0 0 24.01c0,3.25 0,5.42 1.59,7.41 1.26,1.6 3.37,2.63 5.88,2.63 2.05,0 3.87,-0.69 5.41,-1.48l-1.71 -3.37c-1.31,0.69 -2.62,1.08 -3.7,1.08 -1.26,0 -2.11,-0.45 -2.68,-1.14 -0.8,-1.02 -0.8,-2.05 -0.8,-5.13z"/>
  <path id="_15" class="fil6" d="M592.3 241.35l0 -4.22c0,-3.02 0,-6.39 -2.29,-8.95 -1.71,-1.94 -4.27,-3.02 -7.69,-3.02 -3.08,0 -5.99,0.68 -8.67,1.65l1.25 3.59c2.4,-0.91 4.91,-1.48 7.42,-1.48 2.16,0 3.65,0.57 4.61,1.65 1.37,1.54 1.37,3.82 1.37,5.59l-4.67 0c-2.23,0 -5.42,0 -8.1,1.94 -1.83,1.31 -3.36,3.54 -3.36,6.56 0,2.96 1.53,5.25 3.42,6.56 1.82,1.31 4.16,1.88 6.9,1.88 3.42,0 6.1,-0.97 7.81,-2.97 2,-2.34 2,-4.96 2,-8.78zm-4 0c0,3.37 0,5.13 -1.08,6.39 -0.97,1.14 -2.62,1.59 -4.73,1.59 -1.83,0 -3.42,-0.34 -4.51,-1.08 -1.02,-0.74 -1.82,-1.99 -1.82,-3.59 0,-1.77 0.85,-3.08 1.88,-3.82 1.6,-1.14 3.65,-1.14 5.59,-1.14l4.67 0 0 1.65z"/>
  <path id="_16" class="fil6" d="M614.82 227.04c-2.57,-1.2 -5.42,-1.88 -8.33,-1.88 -2.33,0 -4.33,0.51 -5.98,1.65 -1.66,1.14 -3.08,3.14 -3.08,5.76 0,2.45 1.31,4.5 3.02,5.82 1.71,1.31 3.76,1.82 5.59,2.22 1.82,0.4 3.25,0.74 4.5,1.65 0.92,0.69 1.6,1.77 1.6,3.08 0,0.97 -0.4,2.11 -1.48,2.91 -1.09,0.8 -2.51,1.08 -4.17,1.08 -2.62,0 -5.24,-0.57 -7.58,-1.65l-1.6 3.42c2.91,1.37 6.11,2 9.18,2 2.63,0 4.79,-0.57 6.56,-1.83 1.77,-1.25 3.08,-3.36 3.08,-5.93 0,-2.85 -1.6,-4.96 -3.36,-6.21 -1.6,-1.14 -3.48,-1.66 -5.53,-2.11 -2.06,-0.46 -3.26,-0.74 -4.4,-1.66 -0.79,-0.62 -1.42,-1.59 -1.42,-2.79 0,-1.26 0.68,-2.28 1.65,-2.85 0.97,-0.57 2,-0.8 3.42,-0.8 2.28,0 4.68,0.57 6.85,1.6l1.48 -3.48z"/>
  <path id="_17" class="fil6" d="M645.5 225.16c-3.37,0 -6.05,1.36 -7.7,3.36 -2.57,3.08 -2.57,6.84 -2.57,10.72 0,3.48 0,7.47 3.2,10.72 1.77,1.77 4.5,3.14 7.92,3.14 3.6,0 6.45,-1.54 8.04,-3.77 1.94,-2.68 1.94,-5.53 1.94,-9.8l0 -24.81 -3.99 0 0 13.91c-1.54,-2.16 -4.05,-3.47 -6.84,-3.47zm6.84 15.11c0,3.02 0,5.47 -1.37,7.13 -1.14,1.36 -2.85,1.93 -4.62,1.93 -1.93,0 -3.87,-0.68 -5.13,-2.05 -1.99,-2.17 -1.99,-5.13 -1.99,-8.04 0,-3.19 0,-6.33 1.71,-8.32 1.02,-1.2 2.68,-2 4.84,-2 2.17,0 3.82,0.8 4.85,2 1.71,1.99 1.71,5.13 1.71,9.35z"/>
  <path id="_18" class="fil6" d="M667.4 246.94c-1.32,-1.77 -1.32,-5.13 -1.32,-6.62l5.25 0c4.05,0 6.5,0 8.9,-1.71 1.59,-1.14 2.85,-3.08 2.85,-5.58 -0.06,-2.23 -1.14,-4.34 -2.85,-5.76 -1.71,-1.37 -3.99,-2.11 -6.85,-2.11 -4.05,0 -7.47,1.48 -9.29,4.05 -2.05,2.85 -2.05,5.47 -2.05,9.92 0,3.7 0,7.13 2.16,10.09 1.83,2.45 4.96,3.88 8.9,3.88 2.96,0 5.93,-0.63 8.61,-2l-1.65 -3.42c-2.06,1.08 -4.51,1.65 -6.96,1.65 -2.74,0 -4.56,-0.85 -5.7,-2.39zm11.69 -13.91c0,1.31 -0.63,2.28 -1.37,2.85 -1.2,0.91 -2.8,0.91 -6.39,0.91l-5.25 0c0,-1.14 0,-3.99 1.43,-5.65 1.26,-1.48 3.31,-2.22 5.87,-2.22 1.77,0 3.25,0.4 4.22,1.2 0.86,0.68 1.43,1.82 1.49,2.91z"/>
  <path id="_19" class="fil6" d="M712.85 228.92c2.05,0 3.99,0.74 5.07,2.05 1.37,1.6 1.37,3.99 1.37,7.02 0,4.22 0,7.35 -1.71,9.35 -1.03,1.2 -2.68,1.99 -4.85,1.99 -2.17,0 -3.82,-0.79 -4.85,-1.99 -1.71,-2 -1.71,-5.13 -1.71,-8.33 0,-3.25 0,-6.16 1.83,-8.21 1.02,-1.14 2.74,-1.88 4.85,-1.88zm0 -3.76c-3.43,0 -6.16,1.31 -7.93,3.25 -2.74,3.08 -2.74,7.07 -2.74,10.6 0,3.88 0,7.64 2.57,10.72 1.65,2 4.33,3.37 7.7,3.37 2.79,0 5.3,-1.31 6.84,-3.48l0 0.57c0,3.48 0,5.53 -1.37,7.24 -1.08,1.37 -2.97,2.34 -5.76,2.34 -2.39,0 -4.79,-0.68 -6.67,-1.71l-1.65 3.42c2.5,1.37 5.53,2.05 8.32,2.05 3.76,0 6.67,-1.31 8.5,-3.3 2.62,-2.85 2.62,-5.99 2.62,-10.04l0 -11.63c0,-4.62 0,-7.3 -2.28,-9.98 -2.22,-2.63 -5.53,-3.42 -8.15,-3.42z"/>
  <path id="_20" class="fil6" d="M734.34 246.94c-1.31,-1.77 -1.31,-5.13 -1.31,-6.62l5.25 0c4.05,0 6.5,0 8.89,-1.71 1.6,-1.14 2.85,-3.08 2.85,-5.58 -0.05,-2.23 -1.14,-4.34 -2.85,-5.76 -1.71,-1.37 -3.99,-2.11 -6.84,-2.11 -4.05,0 -7.47,1.48 -9.29,4.05 -2.06,2.85 -2.06,5.47 -2.06,9.92 0,3.7 0,7.13 2.17,10.09 1.82,2.45 4.96,3.88 8.9,3.88 2.96,0 5.93,-0.63 8.61,-2l-1.66 -3.42c-2.05,1.08 -4.5,1.65 -6.95,1.65 -2.74,0 -4.57,-0.85 -5.71,-2.39zm11.69 -13.91c0,1.31 -0.62,2.28 -1.37,2.85 -1.19,0.91 -2.79,0.91 -6.38,0.91l-5.25 0c0,-1.14 0,-3.99 1.43,-5.65 1.25,-1.48 3.3,-2.22 5.87,-2.22 1.77,0 3.25,0.4 4.22,1.2 0.86,0.68 1.43,1.82 1.48,2.91z"/>
  <path id="_21" class="fil6" d="M771.98 227.04c-2.57,-1.2 -5.42,-1.88 -8.33,-1.88 -2.33,0 -4.33,0.51 -5.98,1.65 -1.66,1.14 -3.08,3.14 -3.08,5.76 0,2.45 1.31,4.5 3.02,5.82 1.71,1.31 3.76,1.82 5.59,2.22 1.82,0.4 3.25,0.74 4.5,1.65 0.92,0.69 1.6,1.77 1.6,3.08 0,0.97 -0.4,2.11 -1.48,2.91 -1.09,0.8 -2.51,1.08 -4.17,1.08 -2.62,0 -5.24,-0.57 -7.58,-1.65l-1.6 3.42c2.91,1.37 6.1,2 9.18,2 2.63,0 4.79,-0.57 6.56,-1.83 1.77,-1.25 3.08,-3.36 3.08,-5.93 0,-2.85 -1.6,-4.96 -3.36,-6.21 -1.6,-1.14 -3.48,-1.66 -5.53,-2.11 -2.06,-0.46 -3.26,-0.74 -4.4,-1.66 -0.79,-0.62 -1.42,-1.59 -1.42,-2.79 0,-1.26 0.68,-2.28 1.65,-2.85 0.97,-0.57 2,-0.8 3.42,-0.8 2.28,0 4.68,0.57 6.85,1.6l1.48 -3.48z"/>
  <path id="_22" class="fil6" d="M782.99 243.06l0 -14.03 6.84 0 0 -3.53 -6.84 0 0 -6.45 -4 0 0 24.01c0,3.25 0,5.42 1.6,7.41 1.25,1.6 3.36,2.63 5.87,2.63 2.06,0 3.88,-0.69 5.42,-1.48l-1.71 -3.37c-1.31,0.69 -2.62,1.08 -3.71,1.08 -1.25,0 -2.11,-0.45 -2.68,-1.14 -0.79,-1.02 -0.79,-2.05 -0.79,-5.13z"/>
  <path id="_23" class="fil6" d="M809.33 221.39c2.79,0 5.02,-2.05 5.02,-4.79l-3.19 0c0,1.09 -0.8,1.83 -1.83,1.83 -1.03,0 -1.82,-0.52 -2.68,-0.92 -1.08,-0.57 -2.45,-1.25 -4.16,-1.25 -2.8,0 -5.02,2.05 -5.02,4.79l3.19 0c0,-1.08 0.8,-1.82 1.83,-1.82 1.02,0 1.82,0.51 2.68,0.91 1.08,0.57 2.51,1.25 4.16,1.25zm6.27 19.96l0 -4.22c0,-3.02 0,-6.39 -2.28,-8.95 -1.71,-1.94 -4.27,-3.02 -7.7,-3.02 -3.08,0 -5.98,0.68 -8.66,1.65l1.25 3.59c2.4,-0.91 4.9,-1.48 7.41,-1.48 2.17,0 3.65,0.57 4.62,1.65 1.37,1.54 1.37,3.82 1.37,5.59l-4.67 0c-2.23,0 -5.42,0 -8.1,1.94 -1.83,1.31 -3.37,3.54 -3.37,6.56 0,2.96 1.54,5.25 3.42,6.56 1.83,1.31 4.17,1.88 6.9,1.88 3.43,0 6.11,-0.97 7.82,-2.97 1.99,-2.34 1.99,-4.96 1.99,-8.78zm-3.99 0c0,3.37 0,5.13 -1.08,6.39 -0.97,1.14 -2.63,1.59 -4.74,1.59 -1.82,0 -3.42,-0.34 -4.5,-1.08 -1.03,-0.74 -1.82,-1.99 -1.82,-3.59 0,-1.77 0.85,-3.08 1.88,-3.82 1.59,-1.14 3.65,-1.14 5.59,-1.14l4.67 0 0 1.65z"/>
  <path id="_24" class="fil6" d="M831.86 228.92c2.5,0 4.44,1.03 5.58,2.74 1.26,1.88 1.26,4.56 1.26,7.47 0,2.91 0,5.59 -1.26,7.47 -1.14,1.71 -3.08,2.73 -5.58,2.73 -2.51,0 -4.45,-1.02 -5.59,-2.73 -1.26,-1.88 -1.26,-4.56 -1.26,-7.47 0,-2.91 0,-5.59 1.26,-7.47 1.14,-1.71 3.08,-2.74 5.59,-2.74zm0 -3.76c-4.05,0 -7.36,1.82 -9.19,4.84 -1.65,2.74 -1.65,5.88 -1.65,9.13 0,3.25 0,6.38 1.65,9.12 1.83,3.02 5.14,4.85 9.19,4.85 4.04,0 7.35,-1.83 9.18,-4.85 1.65,-2.74 1.65,-5.87 1.65,-9.12 0,-3.25 0,-6.39 -1.65,-9.13 -1.83,-3.02 -5.14,-4.84 -9.18,-4.84z"/>
  <path id="_25" class="fil6" d="M872.34 225.16c-3.36,0 -6.04,1.36 -7.7,3.36 -2.56,3.08 -2.56,6.84 -2.56,10.72 0,3.48 0,7.47 3.19,10.72 1.77,1.77 4.51,3.14 7.93,3.14 3.59,0 6.44,-1.54 8.04,-3.77 1.94,-2.68 1.94,-5.53 1.94,-9.8l0 -24.81 -3.99 0 0 13.91c-1.54,-2.16 -4.05,-3.47 -6.85,-3.47zm6.85 15.11c0,3.02 0,5.47 -1.37,7.13 -1.14,1.36 -2.85,1.93 -4.62,1.93 -1.94,0 -3.88,-0.68 -5.13,-2.05 -2,-2.17 -2,-5.13 -2,-8.04 0,-3.19 0,-6.33 1.71,-8.32 1.03,-1.2 2.68,-2 4.85,-2 2.16,0 3.82,0.8 4.84,2 1.72,1.99 1.72,5.13 1.72,9.35z"/>
  <path id="_26" class="fil6" d="M894.24 246.94c-1.31,-1.77 -1.31,-5.13 -1.31,-6.62l5.24 0c4.05,0 6.51,0 8.9,-1.71 1.6,-1.14 2.85,-3.08 2.85,-5.58 -0.06,-2.23 -1.14,-4.34 -2.85,-5.76 -1.71,-1.37 -3.99,-2.11 -6.84,-2.11 -4.05,0 -7.47,1.48 -9.3,4.05 -2.05,2.85 -2.05,5.47 -2.05,9.92 0,3.7 0,7.13 2.17,10.09 1.82,2.45 4.96,3.88 8.89,3.88 2.97,0 5.93,-0.63 8.61,-2l-1.65 -3.42c-2.05,1.08 -4.51,1.65 -6.96,1.65 -2.74,0 -4.56,-0.85 -5.7,-2.39zm11.69 -13.91c0,1.31 -0.63,2.28 -1.37,2.85 -1.2,0.91 -2.79,0.91 -6.39,0.91l-5.24 0c0,-1.14 0,-3.99 1.42,-5.65 1.26,-1.48 3.31,-2.22 5.88,-2.22 1.76,0 3.25,0.4 4.22,1.2 0.85,0.68 1.42,1.82 1.48,2.91z"/>
  <path id="_27" class="fil6" d="M939.29 225.16c-3.37,0 -6.05,1.36 -7.7,3.36 -2.57,3.08 -2.57,6.84 -2.57,10.72 0,3.48 0,7.47 3.2,10.72 1.77,1.77 4.5,3.14 7.92,3.14 3.6,0 6.45,-1.54 8.05,-3.77 1.93,-2.68 1.93,-5.53 1.93,-9.8l0 -24.81 -3.99 0 0 13.91c-1.54,-2.16 -4.05,-3.47 -6.84,-3.47zm6.84 15.11c0,3.02 0,5.47 -1.37,7.13 -1.14,1.36 -2.85,1.93 -4.62,1.93 -1.93,0 -3.87,-0.68 -5.13,-2.05 -1.99,-2.17 -1.99,-5.13 -1.99,-8.04 0,-3.19 0,-6.33 1.71,-8.32 1.02,-1.2 2.68,-2 4.84,-2 2.17,0 3.82,0.8 4.85,2 1.71,1.99 1.71,5.13 1.71,9.35z"/>
  <path id="_28" class="fil6" d="M966.66 228.92c2.51,0 4.45,1.03 5.59,2.74 1.25,1.88 1.25,4.56 1.25,7.47 0,2.91 0,5.59 -1.25,7.47 -1.14,1.71 -3.08,2.73 -5.59,2.73 -2.51,0 -4.45,-1.02 -5.59,-2.73 -1.25,-1.88 -1.25,-4.56 -1.25,-7.47 0,-2.91 0,-5.59 1.25,-7.47 1.14,-1.71 3.08,-2.74 5.59,-2.74zm0 -3.76c-4.05,0 -7.36,1.82 -9.18,4.84 -1.65,2.74 -1.65,5.88 -1.65,9.13 0,3.25 0,6.38 1.65,9.12 1.82,3.02 5.13,4.85 9.18,4.85 4.05,0 7.36,-1.83 9.18,-4.85 1.66,-2.74 1.66,-5.87 1.66,-9.12 0,-3.25 0,-6.39 -1.66,-9.13 -1.82,-3.02 -5.13,-4.84 -9.18,-4.84z"/>
  <path id="_29" class="fil6" d="M999.62 247.45c-1.82,1.26 -3.99,1.88 -6.16,1.88 -2.22,0 -3.93,-0.74 -5.02,-1.99 -1.82,-2.11 -1.82,-5.53 -1.82,-8.44 0,-2.51 0,-5.87 1.77,-7.93 1.37,-1.59 3.3,-2.05 5.07,-2.05 2.06,0 4.16,0.63 5.88,1.71l1.93 -3.25c-2.33,-1.48 -5.07,-2.22 -7.81,-2.22 -3.65,0 -6.38,1.36 -8.15,3.42 -2.68,3.08 -2.68,7.35 -2.68,10.32 0,3.36 0,7.75 2.73,10.83 1.77,2 4.45,3.37 8.1,3.37 2.91,0 5.82,-0.86 8.21,-2.45l-2.05 -3.2z"/>
  <path id="_30" class="fil6" d="M1007.09 225.5l0 14.6c0,3.99 0,7.3 2.68,10.09 1.37,1.43 3.82,2.91 7.3,2.91 3.48,0 5.93,-1.48 7.3,-2.91 2.68,-2.79 2.68,-6.1 2.68,-10.09l0 -14.6 -3.99 0 0 14.6c0,3.53 0,5.93 -1.66,7.58 -0.97,0.97 -2.45,1.65 -4.33,1.65 -1.88,0 -3.36,-0.68 -4.33,-1.65 -1.66,-1.65 -1.66,-4.05 -1.66,-7.58l0 -14.6 -3.99 0z"/>
  <path id="_31" class="fil6" d="M1042.73 225.16c-2.68,0 -5.02,0.97 -6.56,2.45 -2.85,2.74 -2.85,6.27 -2.85,10.55l0 14.6 3.99 0 0 -14.6c0,-3.77 0,-6.33 1.71,-7.93 0.86,-0.8 2.17,-1.31 3.71,-1.31 1.54,0 2.85,0.51 3.71,1.31 1.71,1.6 1.71,4.16 1.71,7.93l0 14.6 3.99 0 0 -14.6c0,-3.77 0,-6.33 1.71,-7.93 0.86,-0.8 2.17,-1.31 3.71,-1.31 1.54,0 2.85,0.51 3.7,1.31 1.72,1.6 1.72,4.16 1.72,7.93l0 14.6 3.99 0 0 -14.6c0,-4.28 0,-7.81 -2.85,-10.55 -1.54,-1.48 -3.88,-2.45 -6.56,-2.45 -3.25,0 -5.88,1.42 -7.42,3.99 -1.54,-2.57 -4.16,-3.99 -7.41,-3.99z"/>
  <path id="_32" class="fil6" d="M1078.03 246.94c-1.31,-1.77 -1.31,-5.13 -1.31,-6.62l5.24 0c4.05,0 6.51,0 8.9,-1.71 1.6,-1.14 2.85,-3.08 2.85,-5.58 -0.06,-2.23 -1.14,-4.34 -2.85,-5.76 -1.71,-1.37 -3.99,-2.11 -6.84,-2.11 -4.05,0 -7.47,1.48 -9.3,4.05 -2.05,2.85 -2.05,5.47 -2.05,9.92 0,3.7 0,7.13 2.17,10.09 1.82,2.45 4.96,3.88 8.89,3.88 2.97,0 5.93,-0.63 8.61,-2l-1.65 -3.42c-2.05,1.08 -4.51,1.65 -6.96,1.65 -2.74,0 -4.56,-0.85 -5.7,-2.39zm11.69 -13.91c0,1.31 -0.63,2.28 -1.37,2.85 -1.2,0.91 -2.79,0.91 -6.39,0.91l-5.24 0c0,-1.14 0,-3.99 1.42,-5.65 1.26,-1.48 3.31,-2.22 5.88,-2.22 1.76,0 3.25,0.4 4.22,1.2 0.85,0.68 1.42,1.82 1.48,2.91z"/>
  <path id="_33" class="fil6" d="M1109.11 225.16c-3.48,0 -5.93,1.48 -7.3,2.9 -2.68,2.8 -2.68,6.11 -2.68,10.1l0 14.6 3.99 0 0 -14.6c0,-3.54 0,-5.93 1.65,-7.59 0.97,-0.97 2.46,-1.65 4.34,-1.65 1.88,0 3.36,0.68 4.33,1.65 1.66,1.66 1.66,4.05 1.66,7.59l0 14.6 3.99 0 0 -14.6c0,-3.99 0,-7.3 -2.68,-10.1 -1.37,-1.42 -3.82,-2.9 -7.3,-2.9z"/>
  <path id="_34" class="fil6" d="M1129.64 243.06l0 -14.03 6.84 0 0 -3.53 -6.84 0 0 -6.45 -3.99 0 0 24.01c0,3.25 0,5.42 1.59,7.41 1.26,1.6 3.37,2.63 5.88,2.63 2.05,0 3.87,-0.69 5.41,-1.48l-1.71 -3.37c-1.31,0.69 -2.62,1.08 -3.7,1.08 -1.26,0 -2.11,-0.45 -2.68,-1.14 -0.8,-1.02 -0.8,-2.05 -0.8,-5.13z"/>
  <path id="_35" class="fil6" d="M1152.39 228.92c2.51,0 4.45,1.03 5.59,2.74 1.25,1.88 1.25,4.56 1.25,7.47 0,2.91 0,5.59 -1.25,7.47 -1.14,1.71 -3.08,2.73 -5.59,2.73 -2.51,0 -4.45,-1.02 -5.59,-2.73 -1.25,-1.88 -1.25,-4.56 -1.25,-7.47 0,-2.91 0,-5.59 1.25,-7.47 1.14,-1.71 3.08,-2.74 5.59,-2.74zm0 -3.76c-4.05,0 -7.36,1.82 -9.18,4.84 -1.65,2.74 -1.65,5.88 -1.65,9.13 0,3.25 0,6.38 1.65,9.12 1.82,3.02 5.13,4.85 9.18,4.85 4.05,0 7.36,-1.83 9.18,-4.85 1.65,-2.74 1.65,-5.87 1.65,-9.12 0,-3.25 0,-6.39 -1.65,-9.13 -1.82,-3.02 -5.13,-4.84 -9.18,-4.84z"/>
  <path id="_36" class="fil6" d="M1185.46 227.04c-2.56,-1.2 -5.41,-1.88 -8.32,-1.88 -2.34,0 -4.34,0.51 -5.99,1.65 -1.65,1.14 -3.08,3.14 -3.08,5.76 0,2.45 1.31,4.5 3.02,5.82 1.71,1.31 3.77,1.82 5.59,2.22 1.83,0.4 3.25,0.74 4.51,1.65 0.91,0.69 1.59,1.77 1.59,3.08 0,0.97 -0.4,2.11 -1.48,2.91 -1.08,0.8 -2.51,1.08 -4.16,1.08 -2.63,0 -5.25,-0.57 -7.59,-1.65l-1.59 3.42c2.91,1.37 6.1,2 9.18,2 2.62,0 4.79,-0.57 6.56,-1.83 1.76,-1.25 3.07,-3.36 3.07,-5.93 0,-2.85 -1.59,-4.96 -3.36,-6.21 -1.6,-1.14 -3.48,-1.66 -5.53,-2.11 -2.05,-0.46 -3.25,-0.74 -4.39,-1.66 -0.8,-0.62 -1.43,-1.59 -1.43,-2.79 0,-1.26 0.69,-2.28 1.66,-2.85 0.97,-0.57 1.99,-0.8 3.42,-0.8 2.28,0 4.67,0.57 6.84,1.6l1.48 -3.48z"/>
  <path id="_37" class="fil6" d="M1225.44 241.35l0 -4.22c0,-3.02 0,-6.39 -2.28,-8.95 -1.71,-1.94 -4.28,-3.02 -7.7,-3.02 -3.08,0 -5.99,0.68 -8.67,1.65l1.26 3.59c2.39,-0.91 4.9,-1.48 7.41,-1.48 2.17,0 3.65,0.57 4.62,1.65 1.37,1.54 1.37,3.82 1.37,5.59l-4.68 0c-2.22,0 -5.42,0 -8.1,1.94 -1.82,1.31 -3.36,3.54 -3.36,6.56 0,2.96 1.54,5.25 3.42,6.56 1.82,1.31 4.16,1.88 6.9,1.88 3.42,0 6.1,-0.97 7.81,-2.97 2,-2.34 2,-4.96 2,-8.78zm-3.99 0c0,3.37 0,5.13 -1.09,6.39 -0.97,1.14 -2.62,1.59 -4.73,1.59 -1.82,0 -3.42,-0.34 -4.51,-1.08 -1.02,-0.74 -1.82,-1.99 -1.82,-3.59 0,-1.77 0.86,-3.08 1.88,-3.82 1.6,-1.14 3.65,-1.14 5.59,-1.14l4.68 0 0 1.65z"/>
  <path id="_38" class="fil6" d="M1235.7 243.06l0 -14.03 6.85 0 0 -3.53 -6.85 0 0 -6.45 -3.99 0 0 24.01c0,3.25 0,5.42 1.6,7.41 1.25,1.6 3.36,2.63 5.87,2.63 2.05,0 3.88,-0.69 5.42,-1.48l-1.71 -3.37c-1.31,0.69 -2.63,1.08 -3.71,1.08 -1.25,0 -2.11,-0.45 -2.68,-1.14 -0.8,-1.02 -0.8,-2.05 -0.8,-5.13z"/>
  <path id="_39" class="fil6" d="M1248.76 225.5l0 14.6c0,3.99 0,7.3 2.68,10.09 1.37,1.43 3.82,2.91 7.3,2.91 3.48,0 5.93,-1.48 7.3,-2.91 2.68,-2.79 2.68,-6.1 2.68,-10.09l0 -14.6 -3.99 0 0 14.6c0,3.53 0,5.93 -1.66,7.58 -0.96,0.97 -2.45,1.65 -4.33,1.65 -1.88,0 -3.36,-0.68 -4.33,-1.65 -1.66,-1.65 -1.66,-4.05 -1.66,-7.58l0 -14.6 -3.99 0z"/>
  <path id="_40" class="fil6" d="M1293.98 241.35l0 -4.22c0,-3.02 0,-6.39 -2.28,-8.95 -1.71,-1.94 -4.28,-3.02 -7.7,-3.02 -3.08,0 -5.99,0.68 -8.66,1.65l1.25 3.59c2.39,-0.91 4.9,-1.48 7.41,-1.48 2.17,0 3.65,0.57 4.62,1.65 1.37,1.54 1.37,3.82 1.37,5.59l-4.68 0c-2.22,0 -5.41,0 -8.09,1.94 -1.83,1.31 -3.37,3.54 -3.37,6.56 0,2.96 1.54,5.25 3.42,6.56 1.83,1.31 4.17,1.88 6.9,1.88 3.43,0 6.1,-0.97 7.82,-2.97 1.99,-2.34 1.99,-4.96 1.99,-8.78zm-3.99 0c0,3.37 0,5.13 -1.08,6.39 -0.97,1.14 -2.63,1.59 -4.74,1.59 -1.82,0 -3.42,-0.34 -4.5,-1.08 -1.03,-0.74 -1.83,-1.99 -1.83,-3.59 0,-1.77 0.86,-3.08 1.89,-3.82 1.59,-1.14 3.65,-1.14 5.58,-1.14l4.68 0 0 1.65z"/>
  <path id="_41" class="fil6" d="M1302.54 215.75c-1.54,0 -2.68,1.08 -2.68,2.68 0,1.59 1.14,2.68 2.68,2.68 1.54,0 2.68,-1.09 2.68,-2.68 0,-1.6 -1.14,-2.68 -2.68,-2.68zm-2 37.01l3.99 0 0 -27.26 -3.99 0 0 27.26z"/>
  <path id="_42" class="fil6" d="M1327.91 227.04c-2.57,-1.2 -5.42,-1.88 -8.32,-1.88 -2.34,0 -4.34,0.51 -5.99,1.65 -1.66,1.14 -3.08,3.14 -3.08,5.76 0,2.45 1.31,4.5 3.02,5.82 1.71,1.31 3.76,1.82 5.59,2.22 1.82,0.4 3.25,0.74 4.5,1.65 0.92,0.69 1.6,1.77 1.6,3.08 0,0.97 -0.4,2.11 -1.48,2.91 -1.08,0.8 -2.51,1.08 -4.16,1.08 -2.63,0 -5.25,-0.57 -7.59,-1.65l-1.6 3.42c2.91,1.37 6.11,2 9.19,2 2.62,0 4.79,-0.57 6.55,-1.83 1.77,-1.25 3.08,-3.36 3.08,-5.93 0,-2.85 -1.59,-4.96 -3.36,-6.21 -1.6,-1.14 -3.48,-1.66 -5.53,-2.11 -2.06,-0.46 -3.25,-0.74 -4.39,-1.66 -0.8,-0.62 -1.43,-1.59 -1.43,-2.79 0,-1.26 0.68,-2.28 1.65,-2.85 0.97,-0.57 2,-0.8 3.43,-0.8 2.28,0 4.67,0.57 6.84,1.6l1.48 -3.48z"/>
  <path id="_43" class="fil6" d="M1359.16 228.92c2.51,0 4.45,1.03 5.59,2.74 1.25,1.88 1.25,4.56 1.25,7.47 0,2.91 0,5.59 -1.25,7.47 -1.14,1.71 -3.08,2.73 -5.59,2.73 -2.51,0 -4.45,-1.02 -5.59,-2.73 -1.25,-1.88 -1.25,-4.56 -1.25,-7.47 0,-2.91 0,-5.59 1.25,-7.47 1.14,-1.71 3.08,-2.74 5.59,-2.74zm0 -3.76c-4.05,0 -7.36,1.82 -9.18,4.84 -1.65,2.74 -1.65,5.88 -1.65,9.13 0,3.25 0,6.38 1.65,9.12 1.82,3.02 5.13,4.85 9.18,4.85 4.05,0 7.36,-1.83 9.18,-4.85 1.66,-2.74 1.66,-5.87 1.66,-9.12 0,-3.25 0,-6.39 -1.66,-9.13 -1.82,-3.02 -5.13,-4.84 -9.18,-4.84z"/>
  <path id="_44" class="fil6" d="M1384.42 214.44c-3.19,0 -5.24,1.36 -6.56,3.13 -1.59,2.17 -1.59,4.62 -1.59,8.04l0 27.15 3.99 0 0 -23.73 6.84 0 0 -3.53 -6.84 0c0,-2.91 0,-4.56 0.85,-5.76 0.75,-1.03 1.83,-1.54 3.31,-1.54 0.97,0 2.11,0.23 3.48,0.57l0.91 -3.65c-1.37,-0.34 -2.79,-0.68 -4.39,-0.68z"/>
  <path id="_45" class="fil6" d="M1396.06 246.94c-1.32,-1.77 -1.32,-5.13 -1.32,-6.62l5.25 0c4.05,0 6.5,0 8.9,-1.71 1.59,-1.14 2.85,-3.08 2.85,-5.58 -0.06,-2.23 -1.14,-4.34 -2.85,-5.76 -1.71,-1.37 -4,-2.11 -6.85,-2.11 -4.05,0 -7.47,1.48 -9.29,4.05 -2.06,2.85 -2.06,5.47 -2.06,9.92 0,3.7 0,7.13 2.17,10.09 1.83,2.45 4.96,3.88 8.9,3.88 2.96,0 5.93,-0.63 8.61,-2l-1.66 -3.42c-2.05,1.08 -4.5,1.65 -6.95,1.65 -2.74,0 -4.56,-0.85 -5.7,-2.39zm11.69 -13.91c0,1.31 -0.63,2.28 -1.37,2.85 -1.2,0.91 -2.8,0.91 -6.39,0.91l-5.25 0c0,-1.14 0,-3.99 1.43,-5.65 1.25,-1.48 3.31,-2.22 5.87,-2.22 1.77,0 3.25,0.4 4.22,1.2 0.86,0.68 1.43,1.82 1.49,2.91z"/>
  <path id="_46" class="fil6" d="M1427.59 225.16c-2.62,0 -5.93,0.79 -8.15,3.42 -2.29,2.68 -2.29,5.36 -2.29,9.98l0 14.2 4 0 0 -14.2c0,-3.6 0,-5.99 1.36,-7.59 1.09,-1.31 3.03,-2.05 5.08,-2.05 0.97,0 1.88,0.17 2.68,0.46l1.2 -3.6c-1.14,-0.4 -2.45,-0.62 -3.88,-0.62z"/>
  <path id="_47" class="fil6" d="M1440.08 246.94c-1.31,-1.77 -1.31,-5.13 -1.31,-6.62l5.24 0c4.05,0 6.5,0 8.9,-1.71 1.6,-1.14 2.85,-3.08 2.85,-5.58 -0.06,-2.23 -1.14,-4.34 -2.85,-5.76 -1.71,-1.37 -3.99,-2.11 -6.84,-2.11 -4.05,0 -7.47,1.48 -9.3,4.05 -2.05,2.85 -2.05,5.47 -2.05,9.92 0,3.7 0,7.13 2.16,10.09 1.83,2.45 4.97,3.88 8.9,3.88 2.97,0 5.93,-0.63 8.61,-2l-1.65 -3.42c-2.05,1.08 -4.51,1.65 -6.96,1.65 -2.74,0 -4.56,-0.85 -5.7,-2.39zm11.69 -13.91c0,1.31 -0.63,2.28 -1.37,2.85 -1.2,0.91 -2.79,0.91 -6.39,0.91l-5.24 0c0,-1.14 0,-3.99 1.42,-5.65 1.26,-1.48 3.31,-2.22 5.88,-2.22 1.76,0 3.25,0.4 4.22,1.2 0.85,0.68 1.42,1.82 1.48,2.91z"/>
  <path id="_48" class="fil6" d="M1477.6 247.45c-1.82,1.26 -3.99,1.88 -6.16,1.88 -2.22,0 -3.93,-0.74 -5.02,-1.99 -1.82,-2.11 -1.82,-5.53 -1.82,-8.44 0,-2.51 0,-5.87 1.77,-7.93 1.37,-1.59 3.3,-2.05 5.07,-2.05 2.06,0 4.16,0.63 5.88,1.71l1.93 -3.25c-2.33,-1.48 -5.07,-2.22 -7.81,-2.22 -3.65,0 -6.38,1.36 -8.15,3.42 -2.68,3.08 -2.68,7.35 -2.68,10.32 0,3.36 0,7.75 2.73,10.83 1.77,2 4.45,3.37 8.1,3.37 2.91,0 5.82,-0.86 8.21,-2.45l-2.05 -3.2z"/>
  <path id="_49" class="fil6" d="M1489.01 246.94c-1.32,-1.77 -1.32,-5.13 -1.32,-6.62l5.25 0c4.05,0 6.5,0 8.9,-1.71 1.59,-1.14 2.85,-3.08 2.85,-5.58 -0.06,-2.23 -1.14,-4.34 -2.85,-5.76 -1.71,-1.37 -4,-2.11 -6.85,-2.11 -4.05,0 -7.47,1.48 -9.29,4.05 -2.06,2.85 -2.06,5.47 -2.06,9.92 0,3.7 0,7.13 2.17,10.09 1.83,2.45 4.96,3.88 8.9,3.88 2.96,0 5.93,-0.63 8.61,-2l-1.66 -3.42c-2.05,1.08 -4.5,1.65 -6.95,1.65 -2.74,0 -4.56,-0.85 -5.7,-2.39zm11.69 -13.91c0,1.31 -0.63,2.28 -1.37,2.85 -1.2,0.91 -2.8,0.91 -6.39,0.91l-5.25 0c0,-1.14 0,-3.99 1.43,-5.65 1.25,-1.48 3.31,-2.22 5.87,-2.22 1.77,0 3.25,0.4 4.22,1.2 0.86,0.68 1.43,1.82 1.49,2.91z"/>
  <path id="_50" class="fil6" d="M1519.51 225.16c-2.68,0 -5.01,0.97 -6.55,2.45 -2.86,2.74 -2.86,6.27 -2.86,10.55l0 14.6 4 0 0 -14.6c0,-3.77 0,-6.33 1.71,-7.93 0.85,-0.8 2.16,-1.31 3.7,-1.31 1.54,0 2.85,0.51 3.71,1.31 1.71,1.6 1.71,4.16 1.71,7.93l0 14.6 3.99 0 0 -14.6c0,-3.77 0,-6.33 1.71,-7.93 0.86,-0.8 2.17,-1.31 3.71,-1.31 1.54,0 2.85,0.51 3.71,1.31 1.71,1.6 1.71,4.16 1.71,7.93l0 14.6 3.99 0 0 -14.6c0,-4.28 0,-7.81 -2.85,-10.55 -1.54,-1.48 -3.88,-2.45 -6.56,-2.45 -3.25,0 -5.87,1.42 -7.41,3.99 -1.54,-2.57 -4.17,-3.99 -7.42,-3.99z"/>
  <path id="_51" class="fil6" d="M1553.96 247.28c-1.71,0 -2.91,1.2 -2.91,2.91 0,1.71 1.2,2.91 2.91,2.91 1.71,0 2.91,-1.2 2.91,-2.91 0,-1.71 -1.2,-2.91 -2.91,-2.91zm-0.29 -32.84c-2.79,0 -6.27,0.74 -9.07,2.9l2.51 3.2c1.77,-1.43 4.22,-2.11 6.56,-2.11 2.05,0 3.71,0.45 4.96,1.48 1.49,1.2 2.23,3.08 2.23,4.9 0,2.23 -0.92,3.77 -2.34,5.02 -1.77,1.54 -5.13,3.31 -5.93,7.19 -0.23,1.08 -0.29,1.77 -0.29,2.96 0,1.03 0.12,3.14 0.12,3.14l3.08 0 0.11 -2.68c0.06,-1.37 0.23,-2.11 0.4,-2.62 0.86,-2.51 3.25,-3.37 5.3,-5.08 2.06,-1.71 3.77,-4.33 3.77,-7.93 0,-3.36 -1.6,-6.33 -3.82,-8.04 -1.94,-1.48 -4.34,-2.33 -7.59,-2.33l0 0z"/>
  <polygon class="fil3" points="447.7,138.13 1687.65,138.13 1687.65,132.23 447.7,132.23 "/>
  <g id="logo_x0020_dux-2022.eps">
   <path class="fil7" d="M1708.93 132.36c0.08,0 0.13,0.04 0.13,0.13l0 0.56c0,0.09 -0.05,0.14 -0.13,0.14l-2.98 0c-0.11,0 -0.2,0.02 -0.24,0.08 -0.05,0.06 -0.07,0.14 -0.07,0.25l0 0.2c0,0.22 0.1,0.33 0.3,0.33l2.23 0c0.35,0 0.61,0.09 0.78,0.27 0.18,0.17 0.26,0.43 0.26,0.75l0 0.48c0,0.29 -0.08,0.52 -0.25,0.7 -0.17,0.18 -0.44,0.27 -0.8,0.27l-3.29 0c-0.09,0 -0.14,-0.05 -0.14,-0.13l0 -0.57c0,-0.08 0.05,-0.13 0.14,-0.13l3.12 0c0.11,0 0.19,-0.03 0.24,-0.09 0.05,-0.06 0.07,-0.14 0.07,-0.24l0 -0.24c0,-0.23 -0.1,-0.34 -0.31,-0.34l-2.22 0c-0.35,0 -0.61,-0.08 -0.78,-0.26 -0.18,-0.18 -0.26,-0.43 -0.26,-0.76l0 -0.43c0,-0.29 0.08,-0.53 0.25,-0.7 0.17,-0.18 0.44,-0.27 0.8,-0.27l3.15 0z"/>
   <path class="fil7" d="M1716.46 134.88c0,0.16 0.01,0.29 0.04,0.39 0.03,0.11 0.07,0.19 0.13,0.25 0.06,0.06 0.14,0.11 0.24,0.13 0.1,0.03 0.23,0.04 0.38,0.04l1.77 0c0.15,0 0.28,-0.01 0.38,-0.04 0.1,-0.02 0.18,-0.07 0.24,-0.13 0.06,-0.06 0.1,-0.14 0.13,-0.25 0.02,-0.1 0.04,-0.23 0.04,-0.39l0 -0.89c0,-0.15 -0.02,-0.28 -0.04,-0.39 -0.03,-0.1 -0.07,-0.18 -0.13,-0.25 -0.06,-0.06 -0.14,-0.1 -0.24,-0.13 -0.1,-0.02 -0.23,-0.03 -0.38,-0.03l-1.77 0c-0.15,0 -0.28,0.01 -0.38,0.03 -0.1,0.03 -0.18,0.07 -0.24,0.13 -0.06,0.07 -0.1,0.15 -0.13,0.25 -0.03,0.11 -0.04,0.24 -0.04,0.39l0 0.89zm2.59 -2.52c0.3,0 0.56,0.03 0.77,0.09 0.21,0.05 0.39,0.14 0.52,0.27 0.13,0.12 0.23,0.28 0.29,0.48 0.06,0.2 0.09,0.44 0.09,0.73l0 1.02c0,0.28 -0.03,0.53 -0.09,0.73 -0.06,0.2 -0.16,0.36 -0.29,0.48 -0.13,0.13 -0.31,0.22 -0.52,0.27 -0.21,0.06 -0.47,0.09 -0.77,0.09l-1.83 0c-0.31,0 -0.56,-0.03 -0.77,-0.09 -0.21,-0.05 -0.38,-0.14 -0.51,-0.27 -0.14,-0.12 -0.23,-0.28 -0.3,-0.48 -0.06,-0.2 -0.09,-0.45 -0.09,-0.73l0 -1.02c0,-0.29 0.03,-0.53 0.09,-0.73 0.07,-0.2 0.16,-0.36 0.3,-0.48 0.13,-0.13 0.3,-0.22 0.51,-0.27 0.21,-0.06 0.46,-0.09 0.77,-0.09l1.83 0z"/>
   <path class="fil7" d="M1727.93 132.36c0.09,0 0.13,0.04 0.13,0.13l0 2.37c0,0.16 0.01,0.29 0.04,0.4 0.02,0.1 0.07,0.18 0.13,0.24 0.05,0.07 0.14,0.11 0.24,0.14 0.1,0.02 0.22,0.03 0.38,0.03l2.41 0c0.08,0 0.13,0.05 0.13,0.14l0 0.58c0,0.08 -0.05,0.13 -0.13,0.13l-2.45 0c-0.3,0 -0.55,-0.03 -0.76,-0.09 -0.21,-0.05 -0.38,-0.14 -0.52,-0.27 -0.13,-0.12 -0.23,-0.28 -0.29,-0.48 -0.06,-0.2 -0.09,-0.45 -0.09,-0.73l0 -2.46c0,-0.09 0.05,-0.13 0.14,-0.13l0.64 0z"/>
   <path class="fil7" d="M1738.31 132.36c0.09,0 0.13,0.04 0.13,0.13l0 2.37c0,0.16 0.02,0.29 0.04,0.4 0.03,0.1 0.07,0.18 0.13,0.24 0.06,0.07 0.14,0.11 0.24,0.14 0.1,0.02 0.23,0.03 0.39,0.03l1.64 0c0.16,0 0.28,-0.01 0.38,-0.03 0.1,-0.03 0.18,-0.07 0.24,-0.14 0.06,-0.06 0.11,-0.14 0.13,-0.24 0.02,-0.11 0.04,-0.24 0.04,-0.4l0 -2.37c0,-0.09 0.04,-0.13 0.13,-0.13l0.64 0c0.09,0 0.13,0.04 0.13,0.13l0 2.46c0,0.28 -0.03,0.53 -0.09,0.73 -0.05,0.2 -0.15,0.36 -0.28,0.48 -0.14,0.13 -0.31,0.22 -0.52,0.27 -0.21,0.06 -0.47,0.09 -0.77,0.09l-1.71 0c-0.3,0 -0.56,-0.03 -0.77,-0.09 -0.21,-0.05 -0.38,-0.14 -0.51,-0.27 -0.13,-0.12 -0.23,-0.28 -0.29,-0.48 -0.06,-0.2 -0.09,-0.45 -0.09,-0.73l0 -2.46c0,-0.09 0.04,-0.13 0.13,-0.13l0.64 0z"/>
   <path class="fil7" d="M1751.72 136.76c0.1,0 0.13,0.05 0.11,0.16l-0.26 1.08c-0.02,0.09 -0.07,0.13 -0.15,0.13l-0.34 0c-0.1,0 -0.14,-0.04 -0.13,-0.13l0.09 -1.1c0.01,-0.09 0.06,-0.14 0.14,-0.14l0.54 0zm1.64 -4.4c0.09,0 0.13,0.04 0.13,0.13l0 0.58c0,0.09 -0.04,0.14 -0.13,0.14l-2.65 0c-0.15,0 -0.28,0.01 -0.38,0.04 -0.1,0.02 -0.18,0.07 -0.24,0.13 -0.06,0.06 -0.1,0.14 -0.13,0.24 -0.02,0.11 -0.04,0.24 -0.04,0.4l0 0.84c0,0.16 0.02,0.29 0.04,0.4 0.03,0.1 0.07,0.18 0.13,0.24 0.06,0.07 0.14,0.11 0.24,0.14 0.1,0.02 0.23,0.03 0.38,0.03l2.65 0c0.09,0 0.13,0.05 0.13,0.14l0 0.58c0,0.08 -0.04,0.13 -0.13,0.13l-2.68 0c-0.3,0 -0.56,-0.03 -0.77,-0.09 -0.21,-0.05 -0.38,-0.14 -0.51,-0.27 -0.13,-0.12 -0.23,-0.28 -0.29,-0.48 -0.06,-0.2 -0.1,-0.45 -0.1,-0.73l0 -1.02c0,-0.29 0.04,-0.53 0.1,-0.73 0.06,-0.2 0.16,-0.36 0.29,-0.48 0.13,-0.13 0.3,-0.22 0.51,-0.27 0.21,-0.06 0.47,-0.09 0.77,-0.09l2.68 0z"/>
   <path class="fil7" d="M1760.95 132.1c-0.05,0 -0.08,-0.01 -0.09,-0.03 -0.01,-0.03 -0.02,-0.08 -0.02,-0.14 0,-0.16 0.02,-0.3 0.05,-0.4 0.02,-0.11 0.07,-0.19 0.13,-0.26 0.06,-0.06 0.13,-0.11 0.23,-0.13 0.09,-0.03 0.21,-0.04 0.34,-0.04 0.21,0 0.39,0.03 0.55,0.09 0.15,0.05 0.29,0.13 0.43,0.24 0.06,0.06 0.13,0.1 0.19,0.14 0.06,0.03 0.14,0.05 0.26,0.05 0.06,0 0.11,-0.01 0.14,-0.02 0.04,-0.01 0.06,-0.04 0.08,-0.07 0.02,-0.03 0.03,-0.07 0.04,-0.12 0.01,-0.06 0.01,-0.12 0.01,-0.2 0.01,-0.09 0.06,-0.13 0.16,-0.13l0.34 0c0.04,0 0.07,0.01 0.09,0.03 0.01,0.03 0.02,0.07 0.02,0.14 0,0.16 -0.02,0.3 -0.04,0.4 -0.03,0.11 -0.08,0.19 -0.14,0.26 -0.06,0.06 -0.14,0.11 -0.23,0.13 -0.1,0.03 -0.21,0.04 -0.34,0.04 -0.21,0 -0.4,-0.03 -0.55,-0.09 -0.15,-0.05 -0.29,-0.14 -0.42,-0.24 -0.07,-0.06 -0.14,-0.1 -0.2,-0.14 -0.06,-0.03 -0.15,-0.05 -0.26,-0.05 -0.12,0 -0.19,0.03 -0.22,0.09 -0.03,0.06 -0.05,0.16 -0.05,0.32 0,0.09 -0.06,0.13 -0.17,0.13l-0.33 0zm-0.25 2.78c0,0.16 0.01,0.29 0.03,0.39 0.03,0.11 0.07,0.19 0.13,0.25 0.06,0.06 0.14,0.11 0.24,0.13 0.1,0.03 0.23,0.04 0.39,0.04l1.76 0c0.16,0 0.28,-0.01 0.38,-0.04 0.11,-0.02 0.19,-0.07 0.24,-0.13 0.06,-0.06 0.11,-0.14 0.13,-0.25 0.03,-0.1 0.04,-0.23 0.04,-0.39l0 -0.89c0,-0.15 -0.01,-0.28 -0.04,-0.39 -0.02,-0.1 -0.07,-0.18 -0.13,-0.25 -0.05,-0.06 -0.13,-0.1 -0.24,-0.13 -0.1,-0.02 -0.22,-0.03 -0.38,-0.03l-1.76 0c-0.16,0 -0.29,0.01 -0.39,0.03 -0.1,0.03 -0.18,0.07 -0.24,0.13 -0.06,0.07 -0.1,0.15 -0.13,0.25 -0.02,0.11 -0.03,0.24 -0.03,0.39l0 0.89zm2.59 -2.52c0.3,0 0.55,0.03 0.77,0.09 0.21,0.05 0.38,0.14 0.51,0.27 0.13,0.12 0.23,0.28 0.29,0.48 0.06,0.2 0.09,0.44 0.09,0.73l0 1.02c0,0.28 -0.03,0.53 -0.09,0.73 -0.06,0.2 -0.16,0.36 -0.29,0.48 -0.13,0.13 -0.3,0.22 -0.51,0.27 -0.22,0.06 -0.47,0.09 -0.77,0.09l-1.84 0c-0.3,0 -0.56,-0.03 -0.77,-0.09 -0.21,-0.05 -0.38,-0.14 -0.51,-0.27 -0.13,-0.12 -0.23,-0.28 -0.29,-0.48 -0.06,-0.2 -0.09,-0.45 -0.09,-0.73l0 -1.02c0,-0.29 0.03,-0.53 0.09,-0.73 0.06,-0.2 0.16,-0.36 0.29,-0.48 0.13,-0.13 0.3,-0.22 0.51,-0.27 0.21,-0.06 0.47,-0.09 0.77,-0.09l1.84 0z"/>
   <path class="fil7" d="M1775.63 132.36c0.09,0 0.13,0.04 0.13,0.13l0 0.56c0,0.09 -0.04,0.14 -0.13,0.14l-2.6 0c-0.15,0 -0.28,0.01 -0.38,0.03 -0.1,0.03 -0.19,0.07 -0.25,0.13 -0.06,0.07 -0.1,0.15 -0.12,0.25 -0.03,0.11 -0.04,0.24 -0.04,0.39l0 0.06 3.36 0c0.08,0 0.13,0.05 0.13,0.13l0 0.47c0,0.09 -0.05,0.13 -0.13,0.13l-3.36 0 0 0.1c0,0.16 0.01,0.29 0.04,0.39 0.02,0.11 0.06,0.19 0.12,0.25 0.06,0.06 0.15,0.11 0.25,0.13 0.1,0.03 0.23,0.04 0.38,0.04l2.6 0c0.09,0 0.13,0.05 0.13,0.13l0 0.57c0,0.08 -0.04,0.13 -0.13,0.13l-2.62 0c-0.3,0 -0.55,-0.03 -0.76,-0.09 -0.21,-0.05 -0.38,-0.14 -0.52,-0.27 -0.13,-0.12 -0.23,-0.28 -0.29,-0.48 -0.06,-0.2 -0.09,-0.45 -0.09,-0.73l0 -1.02c0,-0.29 0.03,-0.53 0.09,-0.73 0.06,-0.2 0.16,-0.36 0.29,-0.48 0.14,-0.13 0.31,-0.22 0.52,-0.27 0.21,-0.06 0.46,-0.09 0.76,-0.09l2.62 0z"/>
   <path class="fil7" d="M1786.29 132.36c0.08,0 0.13,0.04 0.13,0.13l0 0.56c0,0.09 -0.05,0.14 -0.13,0.14l-2.98 0c-0.12,0 -0.2,0.02 -0.24,0.08 -0.05,0.06 -0.08,0.14 -0.08,0.25l0 0.2c0,0.22 0.11,0.33 0.31,0.33l2.23 0c0.35,0 0.6,0.09 0.78,0.27 0.17,0.17 0.26,0.43 0.26,0.75l0 0.48c0,0.29 -0.08,0.52 -0.25,0.7 -0.18,0.18 -0.44,0.27 -0.8,0.27l-3.29 0c-0.09,0 -0.14,-0.05 -0.14,-0.13l0 -0.57c0,-0.08 0.05,-0.13 0.14,-0.13l3.12 0c0.11,0 0.19,-0.03 0.24,-0.09 0.05,-0.06 0.07,-0.14 0.07,-0.24l0 -0.24c0,-0.23 -0.1,-0.34 -0.31,-0.34l-2.23 0c-0.34,0 -0.6,-0.08 -0.77,-0.26 -0.18,-0.18 -0.27,-0.43 -0.27,-0.76l0 -0.43c0,-0.29 0.09,-0.53 0.26,-0.7 0.17,-0.18 0.44,-0.27 0.8,-0.27l3.15 0z"/>
   <path class="fil7" d="M1804.89 132.36c0.09,0 0.13,0.04 0.13,0.13l0 0.56c0,0.09 -0.04,0.14 -0.13,0.14l-2.6 0c-0.15,0 -0.28,0.01 -0.38,0.03 -0.1,0.03 -0.18,0.07 -0.25,0.13 -0.06,0.07 -0.1,0.15 -0.12,0.25 -0.03,0.11 -0.04,0.24 -0.04,0.39l0 0.06 3.36 0c0.09,0 0.13,0.05 0.13,0.13l0 0.47c0,0.09 -0.04,0.13 -0.13,0.13l-3.36 0 0 0.1c0,0.16 0.01,0.29 0.04,0.39 0.02,0.11 0.06,0.19 0.12,0.25 0.07,0.06 0.15,0.11 0.25,0.13 0.1,0.03 0.23,0.04 0.38,0.04l2.6 0c0.09,0 0.13,0.05 0.13,0.13l0 0.57c0,0.08 -0.04,0.13 -0.13,0.13l-2.62 0c-0.3,0 -0.55,-0.03 -0.76,-0.09 -0.21,-0.05 -0.38,-0.14 -0.52,-0.27 -0.13,-0.12 -0.23,-0.28 -0.29,-0.48 -0.06,-0.2 -0.09,-0.45 -0.09,-0.73l0 -1.02c0,-0.29 0.03,-0.53 0.09,-0.73 0.06,-0.2 0.16,-0.36 0.29,-0.48 0.14,-0.13 0.31,-0.22 0.52,-0.27 0.21,-0.06 0.46,-0.09 0.76,-0.09l2.62 0z"/>
   <path class="fil7" d="M1812.59 132.36c0.09,0 0.17,0 0.23,0.02 0.06,0.01 0.12,0.03 0.17,0.07 0.04,0.03 0.09,0.07 0.12,0.13 0.04,0.06 0.08,0.14 0.12,0.23l1.24 2.85c0.01,0.04 0.04,0.06 0.08,0.06l0.07 0c0.04,0 0.07,-0.02 0.08,-0.06l1.24 -2.85c0.04,-0.09 0.08,-0.17 0.12,-0.23 0.03,-0.06 0.08,-0.1 0.12,-0.13 0.05,-0.04 0.11,-0.06 0.17,-0.07 0.06,-0.02 0.13,-0.02 0.22,-0.02l0.63 0c0.21,0 0.35,0.05 0.42,0.14 0.07,0.09 0.11,0.25 0.11,0.48l0 3.41c0,0.08 -0.05,0.13 -0.14,0.13l-0.6 0c-0.09,0 -0.14,-0.05 -0.14,-0.13l0 -3.1c0,-0.04 -0.01,-0.06 -0.04,-0.06l-0.06 0c-0.04,0 -0.06,0.01 -0.07,0.04l-1.2 2.67c-0.05,0.1 -0.1,0.19 -0.15,0.27 -0.05,0.07 -0.1,0.13 -0.16,0.18 -0.06,0.04 -0.12,0.08 -0.2,0.1 -0.07,0.02 -0.16,0.03 -0.25,0.03l-0.29 0c-0.1,0 -0.18,-0.01 -0.26,-0.03 -0.07,-0.02 -0.14,-0.06 -0.19,-0.1 -0.06,-0.05 -0.12,-0.11 -0.16,-0.18 -0.05,-0.08 -0.1,-0.17 -0.15,-0.27l-1.2 -2.67c-0.01,-0.03 -0.04,-0.04 -0.08,-0.04l-0.05 0c-0.03,0 -0.05,0.02 -0.05,0.06l0 3.1c0,0.08 -0.04,0.13 -0.13,0.13l-0.61 0c-0.09,0 -0.13,-0.05 -0.13,-0.13l0 -3.41c0,-0.23 0.03,-0.39 0.11,-0.48 0.07,-0.09 0.21,-0.14 0.42,-0.14l0.64 0z"/>
   <path class="fil7" d="M1836.44 132.36c0.1,0 0.14,0.04 0.14,0.13l0 0.58c0,0.09 -0.04,0.14 -0.14,0.14l-1.86 0 0 3.18c0,0.08 -0.05,0.13 -0.13,0.13l-0.65 0c-0.09,0 -0.13,-0.05 -0.13,-0.13l0 -3.18 -1.87 0c-0.09,0 -0.13,-0.05 -0.13,-0.14l0 -0.58c0,-0.09 0.04,-0.13 0.13,-0.13l4.64 0z"/>
   <path class="fil7" d="M1843.6 132.36c0.08,0 0.13,0.04 0.13,0.13l0 3.9c0,0.08 -0.05,0.13 -0.13,0.13l-0.64 0c-0.1,0 -0.14,-0.05 -0.14,-0.13l0 -3.9c0,-0.09 0.04,-0.13 0.14,-0.13l0.64 0z"/>
   <path class="fil7" d="M1709.17 106.33c0,-0.29 0.14,-0.44 0.41,-0.44l10.22 0c0.91,0 1.68,0.09 2.31,0.25 0.62,0.17 1.12,0.44 1.51,0.81 0.38,0.38 0.66,0.88 0.82,1.5 0.17,0.62 0.25,1.39 0.25,2.3l0 3.43c0,0.92 -0.08,1.69 -0.25,2.31 -0.16,0.62 -0.44,1.12 -0.82,1.49 -0.39,0.38 -0.89,0.65 -1.51,0.81 -0.63,0.17 -1.4,0.25 -2.31,0.25l-10.22 0c-0.27,0 -0.41,-0.13 -0.41,-0.4l0 -12.31zm-3.83 17.05l14.58 0c1.69,0 3.13,-0.18 4.34,-0.52 1.2,-0.34 2.19,-0.87 2.96,-1.59 0.77,-0.72 1.33,-1.63 1.69,-2.74 0.37,-1.11 0.55,-2.43 0.55,-3.94l0 -4.24c0,-1.52 -0.18,-2.83 -0.55,-3.94 -0.36,-1.11 -0.92,-2.03 -1.69,-2.74 -0.77,-0.72 -1.76,-1.25 -2.96,-1.59 -1.21,-0.35 -2.65,-0.52 -4.34,-0.52l-14.58 0c-0.62,0 -0.93,0.31 -0.93,0.94l0 19.94c0,0.62 0.31,0.94 0.93,0.94z"/>
   <path class="fil7" d="M1735.3 121.52c0.7,0.66 1.6,1.13 2.7,1.42 1.1,0.29 2.44,0.44 4.02,0.44l8.97 0c1.58,0 2.93,-0.15 4.04,-0.44 1.11,-0.29 2.01,-0.76 2.71,-1.42 0.7,-0.65 1.2,-1.5 1.51,-2.55 0.31,-1.05 0.47,-2.33 0.47,-3.82l0 -12.9c0,-0.46 -0.23,-0.69 -0.69,-0.69l-3.39 0c-0.46,0 -0.69,0.23 -0.69,0.69l0 12.43c0,0.83 -0.06,1.52 -0.19,2.07 -0.12,0.55 -0.34,0.99 -0.65,1.31 -0.31,0.32 -0.73,0.55 -1.26,0.69 -0.53,0.13 -1.2,0.2 -2.01,0.2l-8.63 0c-0.81,0 -1.48,-0.07 -2.01,-0.2 -0.53,-0.14 -0.95,-0.37 -1.27,-0.69 -0.31,-0.32 -0.53,-0.76 -0.67,-1.31 -0.13,-0.55 -0.2,-1.24 -0.2,-2.07l0 -12.43c0,-0.46 -0.23,-0.69 -0.68,-0.69l-3.37 0c-0.48,0 -0.72,0.23 -0.72,0.69l0 12.9c0,1.49 0.16,2.77 0.49,3.82 0.32,1.05 0.83,1.9 1.52,2.55z"/>
   <path class="fil7" d="M1789.7 96.28l-5.2 5.28 -0.47 0c-0.25,0 -0.45,0.04 -0.6,0.11 -0.14,0.07 -0.28,0.18 -0.4,0.33l-7.2 7.23 -6.79 -7.23c-0.13,-0.15 -0.26,-0.26 -0.41,-0.33 -0.14,-0.07 -0.34,-0.11 -0.59,-0.11l-4.27 0c-0.29,0 -0.45,0.1 -0.47,0.3 -0.02,0.2 0.03,0.37 0.16,0.51l9.25 9.54 -10.25 10.66c-0.14,0.14 -0.2,0.31 -0.17,0.51 0.03,0.2 0.18,0.3 0.45,0.3l0.28 0 -2.8 2.83 -55.81 -0.02 -0.01 2.25 56.77 0.03 5.02 -5.09 0.6 0c0.27,0 0.47,-0.04 0.61,-0.1 0.14,-0.06 0.28,-0.17 0.42,-0.34l7.73 -8.07 7.7 8.07c0.12,0.17 0.26,0.28 0.4,0.34 0.15,0.06 0.34,0.1 0.59,0.1l4.27 0c0.29,0 0.45,-0.1 0.49,-0.3 0.03,-0.2 -0.03,-0.37 -0.18,-0.51l-10 -10.51 9.57 -9.69c0.14,-0.14 0.2,-0.31 0.17,-0.51 -0.03,-0.2 -0.19,-0.3 -0.48,-0.3l-0.41 0 2.98 -3.02 53.21 0 0 -2.26 -54.16 0z"/>
   <path class="fil8" d="M1836.19 110.35l-11.93 0 0 -4.11c0,-0.25 0.13,-0.38 0.4,-0.38l11.53 0c1.06,0 1.81,0.23 2.24,0.69 0.35,0.36 0.56,0.89 0.63,1.56 -0.07,0.67 -0.28,1.19 -0.63,1.56 -0.43,0.46 -1.18,0.68 -2.24,0.68zm6.11 -7.17c-1.04,-1.08 -2.75,-1.62 -5.14,-1.62l-16.74 0c-0.62,0 -0.93,0.31 -0.93,0.94l0 7.85 -17.74 0c-0.45,0 -0.8,0.36 -0.8,0.8l0 2.24c0,0.44 0.35,0.8 0.8,0.8l9.04 0c0.23,0.01 0.35,0.14 0.35,0.4l0 2.52c0,0.71 -0.13,1.2 -0.38,1.48 -0.25,0.28 -0.64,0.42 -1.18,0.42l-10.29 0c-0.81,0 -1.48,-0.06 -2.01,-0.2 -0.53,-0.13 -0.95,-0.36 -1.26,-0.69 -0.31,-0.32 -0.53,-0.75 -0.67,-1.3 -0.13,-0.55 -0.2,-1.25 -0.2,-2.08l0 -4.48c0,-0.84 0.07,-1.52 0.2,-2.06 0.14,-0.54 0.36,-0.97 0.67,-1.29 0.31,-0.33 0.73,-0.55 1.26,-0.69 0.53,-0.13 1.2,-0.2 2.01,-0.2l15.62 0c0.45,0 0.68,-0.24 0.68,-0.72l0 -3.05c0,-0.46 -0.23,-0.69 -0.68,-0.69l-15.8 0c-1.58,0 -2.92,0.15 -4.02,0.45 -1.1,0.3 -2,0.78 -2.7,1.44 -0.69,0.65 -1.2,1.5 -1.52,2.54 -0.33,1.04 -0.49,2.3 -0.49,3.8l0 5.36c0,1.49 0.16,2.77 0.49,3.82 0.32,1.05 0.83,1.9 1.52,2.55 0.7,0.66 1.6,1.13 2.7,1.42 1.1,0.29 2.44,0.44 4.02,0.44l12.59 0c1.24,0 2.2,-0.36 2.86,-1.08 0.67,-0.72 1,-1.95 1,-3.69l0 -4.42 3.93 0 0 8.5c0,0.46 0.24,0.69 0.71,0.69l3.37 0c0.46,0 0.69,-0.23 0.69,-0.69l0 -8.5 12.9 0c2.39,0 4.1,-0.54 5.14,-1.62 1.04,-1.08 1.56,-2.68 1.56,-4.8l0 -0.07c0,-2.12 -0.52,-3.44 -1.56,-4.52z"/>
  </g>
  <g id="_1157505886144">
   <path class="fil7" d="M168.23 137.66l-8.9 0 0 -31.93 8.9 0 0 31.93zm13.12 -17.8l0 17.8 -8.9 0 0 -31.93 8.9 0 0 3.56 0.01 0 0 10.43c-0.01,0.04 -0.01,0.09 -0.01,0.14zm2.38 -12.56c2.06,-1.4 4.3,-2.1 6.7,-2.1 3.37,0 6.19,1.19 8.46,3.56 2.27,2.37 3.41,5.54 3.41,9.49l0 19.41 -8.9 0 0 -18.04c0,-4.91 -1.8,-7.36 -5.4,-7.36 -1.61,0 -3.03,0.53 -4.27,1.58l0 -6.54zm35.22 30.83c-3.77,0 -7.15,-1.6 -10.11,-4.8 -2.97,-3.21 -4.46,-7.18 -4.46,-11.93 0,-4.75 1.45,-8.63 4.34,-11.66 2.88,-3.03 6.27,-4.54 10.14,-4.54 2.76,0 5.16,0.69 7.2,2.07l0 7.7c-1.4,-1.53 -3.08,-2.29 -5.06,-2.29 -2.1,0 -3.9,0.87 -5.4,2.61 -1.5,1.74 -2.25,3.89 -2.25,6.47 0,2.57 0.77,4.67 2.31,6.32 1.54,1.64 3.34,2.46 5.4,2.46 2.06,0 3.81,-0.82 5.25,-2.46 1.45,-1.65 2.17,-3.76 2.17,-6.35 0,-0.37 -0.02,-0.74 -0.05,-1.09l0 -22.19 -0.07 0 0 -4.82 8.9 0 0 44.03 -8.9 0 0 -4.21c-2.49,3.12 -5.63,4.68 -9.41,4.68zm50.18 -5.1c-3.6,3.4 -7.82,5.1 -12.67,5.1 -4.84,0 -8.85,-1.49 -12.01,-4.48 -3.17,-2.98 -4.75,-6.99 -4.75,-12.01 0,-5.03 1.61,-9.02 4.84,-11.99 3.22,-2.97 7.03,-4.45 11.42,-4.45 4.39,0 8.12,1.32 11.18,3.98 3.07,2.65 4.6,6.29 4.6,10.91l0 4.75 -20.96 0 0 -6.35 11.94 0c-0.19,-1.9 -0.91,-3.36 -2.13,-4.39 -1.23,-1.03 -2.72,-1.54 -4.48,-1.54 -1.76,0 -3.38,0.53 -4.84,1.6 -1.46,1.07 -2.31,2.51 -2.55,4.33 -0.49,3.22 -0.35,5.87 -0.24,6.35 0.28,1.74 1.19,3.17 2.73,4.27 1.54,1.11 3.29,1.67 5.22,1.67 3.13,0 5.7,-1.05 7.72,-3.15l4.98 5.4zm17 -19l5.77 -8.26 0.03 -0.04 10.44 0 -10.98 15.61 11.39 16.32 -10.62 0 -6.23 -8.78 -6.05 8.78 -10.26 0 16.51 -23.63zm43.96 23.63l-8.37 0 0 -3.86c-2.29,2.89 -5.13,4.33 -8.51,4.33 -3.39,0 -6.23,-0.98 -8.52,-2.93 -2.29,-1.96 -3.44,-4.57 -3.44,-7.84 0,-3.26 1.18,-5.7 3.56,-7.33 2.37,-1.62 5.62,-2.43 9.73,-2.43l4.23 0 0 6.35 -3.22 0c-3.56,0 -5.34,1.11 -5.34,3.32 0,1.15 0.42,2.03 1.27,2.65 0.86,0.61 2.07,0.92 3.65,0.92 1.59,0 2.98,-0.49 4.19,-1.46 1.2,-0.97 1.81,-2.26 1.81,-3.89l0.02 -1.42 0.04 -6.65c0,-3.4 -1.8,-5.1 -5.4,-5.1 -1.55,0 -3.18,0.31 -4.9,0.92 -1.72,0.61 -3.17,1.38 -4.36,2.28l-3.98 -5.75c4.2,-3.05 8.98,-4.57 14.36,-4.57 3.88,0 7.05,0.97 9.5,2.91 2.45,1.94 3.68,5 3.68,9.2l0 20.35z"/>
   <circle class="fil0" cx="163.78" cy="97.96" r="5.22"/>
   <circle class="fil0" cx="337.73" cy="132.92" r="5.22"/>
   <polygon class="fil0" points="279.7,119.81 284.98,112.24 280.83,105.73 270.21,105.73 "/>
   <path class="fil9" d="M356.31 105.81c5.7,0 10.08,1.4 13.12,4.19 3.05,2.79 4.58,6.66 4.58,11.63 0,4.97 -1.49,8.9 -4.46,11.8 -2.97,2.89 -7.51,4.34 -13.6,4.34l-10.93 0 0 -31.96 11.29 0zm0.37 25.65c3.26,0 5.77,-0.82 7.52,-2.47 1.75,-1.64 2.63,-4.04 2.63,-7.18 0,-3.13 -0.88,-5.55 -2.63,-7.24 -1.75,-1.69 -4.44,-2.54 -8.07,-2.54l-3.98 0 0 19.43 4.53 0zm45.45 -9.85c0,-2.85 -0.92,-5.28 -2.75,-7.29 -1.83,-2.01 -4.07,-3.02 -6.74,-3.02 -2.67,0 -4.91,1.01 -6.74,3.02 -1.83,2.01 -2.75,4.44 -2.75,7.29 0,2.85 0.92,5.27 2.75,7.27 1.83,1.99 4.07,2.99 6.74,2.99 2.67,0 4.91,-1 6.74,-2.99 1.83,-2 2.75,-4.42 2.75,-7.27zm2.42 11.75c-3.23,3.15 -7.21,4.73 -11.93,4.73 -4.73,0 -8.7,-1.58 -11.93,-4.73 -3.23,-3.16 -4.85,-7.08 -4.85,-11.77 0,-4.7 1.62,-8.62 4.85,-11.78 3.23,-3.15 7.2,-4.73 11.93,-4.73 4.72,0 8.7,1.58 11.93,4.73 3.23,3.16 4.84,7.08 4.84,11.78 0,4.69 -1.61,8.61 -4.84,11.77zm23.04 -1.9c3.51,0 6.37,-1.39 8.6,-4.16l4.57 4.71c-3.63,4.08 -7.9,6.12 -12.82,6.12 -4.92,0 -8.98,-1.55 -12.16,-4.66 -3.19,-3.11 -4.78,-7.03 -4.78,-11.77 0,-4.74 1.62,-8.69 4.87,-11.86 3.24,-3.17 7.21,-4.76 11.91,-4.76 5.24,0 9.63,2 13.16,5.99l-4.43 5.03c-2.26,-2.8 -5.06,-4.21 -8.41,-4.21 -2.68,0 -4.98,0.88 -6.88,2.63 -1.91,1.76 -2.86,4.12 -2.86,7.09 0,2.97 0.9,5.35 2.7,7.15 1.8,1.8 3.97,2.7 6.53,2.7z"/>
  </g>
  <path class="fil10" d="M1323.03 631.87c0,-76.06 61.67,-137.73 137.72,-137.73 76.06,0 137.72,61.67 137.72,137.73l-47.75 0c0,-49.7 -40.27,-89.97 -89.97,-89.97 -49.69,0 -89.96,40.27 -89.96,89.97 0,76.06 -61.67,137.72 -137.72,137.72 -76.06,0 -137.73,-61.66 -137.73,-137.72 0,-49.7 -40.27,-89.97 -89.96,-89.97 -49.7,0 -89.97,40.27 -89.97,89.97 0,76.06 -61.67,137.72 -137.72,137.72 -76.06,0 -137.73,-61.66 -137.73,-137.72 0,-49.7 -40.27,-89.97 -89.96,-89.97 -49.7,0 -89.97,40.27 -89.97,89.97l-47.76 0c0,-76.06 61.67,-137.73 137.73,-137.73 76.05,0 137.72,61.67 137.72,137.73 0,49.69 40.28,89.97 89.97,89.97 49.69,0 89.97,-40.28 89.97,-89.97 0,-76.06 61.66,-137.73 137.72,-137.73 76.05,0 137.72,61.67 137.72,137.73 0,49.69 40.27,89.97 89.97,89.97 49.69,0 89.96,-40.28 89.96,-89.97z"/>
  <g id="_1157505887920">
   <path class="fil11" d="M1095.3 631.87c0,-76.06 61.67,-137.73 137.72,-137.73 76.06,0 137.72,61.67 137.72,137.73l-47.75 0c0,-49.7 -40.27,-89.97 -89.97,-89.97 -49.69,0 -89.97,40.27 -89.97,89.97 0,76.06 -61.66,137.72 -137.72,137.72 -76.05,0 -137.72,-61.66 -137.72,-137.72 0,-49.7 -40.27,-89.97 -89.96,-89.97 -49.7,0 -89.97,40.27 -89.97,89.97 0,76.06 -61.67,137.72 -137.72,137.72 -76.06,0 -137.73,-61.66 -137.73,-137.72 0,-49.7 -40.27,-89.97 -89.96,-89.97 -49.7,0 -89.97,40.27 -89.97,89.97l-47.76 0c0,-76.06 61.67,-137.73 137.73,-137.73 76.05,0 137.72,61.67 137.72,137.73 0,49.69 40.28,89.97 89.97,89.97 49.69,0 89.97,-40.28 89.97,-89.97 0,-76.06 61.66,-137.73 137.72,-137.73 76.05,0 137.72,61.67 137.72,137.73 0,49.69 40.27,89.97 89.96,89.97 49.7,0 89.97,-40.28 89.97,-89.97z"/>
   <path class="fil11" d="M1550.76 631.87c0,-76.06 61.67,-137.73 137.72,-137.73 76.06,0 137.72,61.67 137.72,137.73l-47.75 0c0,-49.7 -40.27,-89.97 -89.97,-89.97 -49.69,0 -89.96,40.27 -89.96,89.97 0,76.06 -61.67,137.72 -137.72,137.72 -76.06,0 -137.73,-61.66 -137.73,-137.72 0,-49.7 -40.27,-89.97 -89.96,-89.97 -49.7,0 -89.97,40.27 -89.97,89.97 0,76.06 -61.67,137.72 -137.72,137.72 -76.06,0 -137.73,-61.66 -137.73,-137.72 0,-49.7 -40.27,-89.97 -89.96,-89.97 -49.7,0 -89.97,40.27 -89.97,89.97l-47.76 0c0,-76.06 61.67,-137.73 137.73,-137.73 76.05,0 137.72,61.67 137.72,137.73 0,49.69 40.28,89.97 89.97,89.97 49.69,0 89.97,-40.28 89.97,-89.97 0,-76.06 61.66,-137.73 137.72,-137.73 76.05,0 137.72,61.67 137.72,137.73 0,49.69 40.27,89.97 89.97,89.97 49.69,0 89.96,-40.28 89.96,-89.97z"/>
  </g>
  <g id="_1157505888880">
   <path class="fil12" d="M1370.74 631.87c0,76.06 -61.66,137.72 -137.72,137.72 -76.05,0 -137.72,-61.66 -137.72,-137.72 0,-49.7 -40.27,-89.97 -89.97,-89.97 -49.69,0 -89.96,40.27 -89.96,89.97 0,76.06 -61.67,137.72 -137.72,137.72 -76.06,0 -137.72,-61.66 -137.72,-137.72 0,-49.7 -40.28,-89.97 -89.97,-89.97 -49.69,0 -89.97,40.27 -89.97,89.97 0,76.06 -61.67,137.72 -137.72,137.72 -76.06,0 -137.73,-61.66 -137.73,-137.72l47.76 0c0,49.69 40.27,89.97 89.97,89.97 49.69,0 89.96,-40.28 89.96,-89.97 0,-76.06 61.67,-137.73 137.73,-137.73 76.05,0 137.72,61.67 137.72,137.73 0,49.69 40.27,89.97 89.97,89.97 49.69,0 89.96,-40.28 89.96,-89.97 0,-76.06 61.67,-137.73 137.72,-137.73 76.06,0 137.72,61.67 137.72,137.73 0,49.69 40.28,89.97 89.97,89.97 49.7,0 89.97,-40.28 89.97,-89.97l47.75 0z"/>
   <path class="fil12" d="M1826.12 631.87c0,76.06 -61.66,137.72 -137.72,137.72 -76.05,0 -137.72,-61.66 -137.72,-137.72 0,-49.7 -40.27,-89.97 -89.96,-89.97 -49.7,0 -89.97,40.27 -89.97,89.97 0,76.06 -61.67,137.72 -137.72,137.72 -76.06,0 -137.72,-61.66 -137.72,-137.72 0,-49.7 -40.28,-89.97 -89.97,-89.97 -49.69,0 -89.97,40.27 -89.97,89.97 0,76.06 -61.67,137.72 -137.72,137.72 -76.06,0 -137.73,-61.66 -137.73,-137.72l47.76 0c0,49.69 40.27,89.97 89.97,89.97 49.69,0 89.96,-40.28 89.96,-89.97 0,-76.06 61.67,-137.73 137.73,-137.73 76.05,0 137.72,61.67 137.72,137.73 0,49.69 40.27,89.97 89.97,89.97 49.69,0 89.96,-40.28 89.96,-89.97 0,-76.06 61.67,-137.73 137.73,-137.73 76.05,0 137.72,61.67 137.72,137.73 0,49.69 40.27,89.97 89.96,89.97 49.7,0 89.97,-40.28 89.97,-89.97l47.75 0z"/>
  </g>
  <path class="fil13" d="M89.19 627.98l27.24 -16.06 0 13.62 -6.88 4.05 56.54 0c2.7,-137.1 164.75,-203.22 263.7,-113.22l4.24 -4.59 5.07 15.19 -15.54 -3.86 4.23 -4.58c-97.69,-88.85 -258.4,-22.54 -258.81,114 -19.93,0 -39.32,0.01 -59.27,0.01l6.72 4.69 0 12.99 -27.24 -16.58 0 -5.66z"/>
  <path class="fil13" d="M666.31 749.61l4.29 -4.54c60.06,55.67 153.86,56.2 214.13,0.59l4.26 4.56 4.99 -15.22 -15.53 3.94 4.26 4.56c-58.87,54.43 -151.48,53.89 -210.08,-0.57l4.29 -4.54 -15.5 -4.02 4.89 15.24z"/>
  <path class="fil13" d="M1120.97 749.61l4.29 -4.54c60.07,55.67 153.86,56.2 214.13,0.59l4.26 4.56 4.99 -15.22 -15.53 3.94 4.26 4.56c-58.86,54.43 -151.47,53.89 -210.07,-0.57l4.28 -4.54 -15.51 -4.02 4.9 15.24z"/>
  <path class="fil13" d="M1923.11 627.98l-27.24 -16.06 0 13.62 6.88 4.05 -56.54 0c-2.7,-137.1 -164.75,-203.22 -263.7,-113.22l-4.24 -4.59 -5.07 15.19 15.55 -3.86 -4.24 -4.58c97.7,-88.85 258.41,-22.54 258.81,114 19.93,0 39.31,0.01 59.27,0.01l-6.72 4.69 0 12.99 27.24 -16.58 0 -5.66z"/>
  <path class="fil6" d="M261.06 618.84c2.35,0 4.54,0.71 6.55,2.12l-1.4 2.1c-1.66,-1.18 -3.38,-1.77 -5.15,-1.77 -2.44,0 -4.08,0.99 -4.95,2.98 -0.37,0.86 -0.61,1.87 -0.72,3.03 -0.1,1.17 -0.15,2.6 -0.15,4.28 0,1.68 0.05,3.1 0.15,4.27 0.11,1.17 0.35,2.18 0.72,3.03 0.87,1.98 2.51,2.98 4.95,2.98 2.43,0 4.07,-1 4.94,-2.98 0.51,-1.17 0.8,-2.98 0.85,-5.45l-5.27 0 0 -2.45 8.02 0c0,1.47 -0.01,2.61 -0.04,3.41 -0.03,0.8 -0.12,1.72 -0.29,2.75 -0.16,1.05 -0.41,1.94 -0.73,2.67 -0.62,1.39 -1.57,2.49 -2.84,3.3 -1.28,0.8 -2.83,1.21 -4.64,1.21 -1.81,0 -3.36,-0.41 -4.64,-1.21 -1.28,-0.81 -2.23,-1.91 -2.84,-3.3 -0.32,-0.7 -0.57,-1.56 -0.73,-2.57 -0.17,-1 -0.27,-1.9 -0.3,-2.68 -0.03,-0.78 -0.04,-1.77 -0.04,-2.98 0,-1.87 0.06,-3.46 0.2,-4.79 0.13,-1.32 0.42,-2.47 0.87,-3.45 0.64,-1.4 1.6,-2.5 2.88,-3.3 1.27,-0.8 2.81,-1.2 4.6,-1.2z"/>
  <path id="_1_2" class="fil6" d="M281.52 644.26c-1.36,0 -2.55,-0.26 -3.59,-0.76 -1.04,-0.51 -1.87,-1.21 -2.47,-2.1 -0.44,-0.61 -0.76,-1.35 -0.98,-2.2 -0.21,-0.85 -0.34,-1.58 -0.36,-2.17 -0.03,-0.58 -0.05,-1.43 -0.05,-2.53 0,-0.9 0.01,-1.58 0.03,-2.04 0.02,-0.46 0.07,-1.02 0.17,-1.68 0.1,-0.66 0.25,-1.26 0.45,-1.8 0.49,-1.28 1.31,-2.31 2.46,-3.08 1.15,-0.77 2.48,-1.16 3.99,-1.16 1.48,0 2.8,0.39 3.96,1.17 1.17,0.78 2,1.8 2.5,3.09 0.3,0.74 0.47,1.47 0.54,2.2 0.06,0.73 0.09,1.82 0.09,3.28l0 0.58 -11.56 0c0,0.76 0.01,1.37 0.04,1.83 0.01,0.46 0.11,1.02 0.27,1.67 0.15,0.65 0.38,1.19 0.69,1.62 0.8,1.16 2.07,1.73 3.82,1.73 1.55,0 3.22,-0.42 5.01,-1.28l0.99 2.18c-2.06,0.97 -4.06,1.45 -6,1.45zm4.12 -11.37c-0.03,-1.33 -0.2,-2.39 -0.51,-3.17 -0.32,-0.81 -0.83,-1.44 -1.54,-1.92 -0.71,-0.47 -1.51,-0.71 -2.42,-0.71 -0.95,0 -1.77,0.24 -2.45,0.71 -0.7,0.48 -1.19,1.1 -1.49,1.9 -0.32,0.82 -0.49,1.88 -0.51,3.19l8.92 0z"/>
  <path id="_2_3" class="fil6" d="M295.8 627.02c1.27,-1.52 2.76,-2.28 4.46,-2.28 0.48,0 1.02,0.07 1.62,0.19l-0.39 2.32c-0.74,-0.1 -1.26,-0.16 -1.57,-0.16 -0.89,0 -1.67,0.21 -2.32,0.63 -0.65,0.42 -1.13,0.99 -1.42,1.7 -0.25,0.62 -0.38,1.72 -0.38,3.29l0 11.27 -2.63 0 0 -18.96 2.63 0 0 2z"/>
  <path id="_3_4" class="fil6" d="M311.86 644.26c-1.35,0 -2.55,-0.26 -3.59,-0.76 -1.04,-0.51 -1.87,-1.21 -2.47,-2.1 -0.44,-0.61 -0.76,-1.35 -0.97,-2.2 -0.22,-0.85 -0.35,-1.58 -0.37,-2.17 -0.03,-0.58 -0.05,-1.43 -0.05,-2.53 0,-0.9 0.01,-1.58 0.03,-2.04 0.02,-0.46 0.08,-1.02 0.18,-1.68 0.09,-0.66 0.24,-1.26 0.45,-1.8 0.49,-1.28 1.3,-2.31 2.45,-3.08 1.16,-0.77 2.48,-1.16 3.99,-1.16 1.48,0 2.81,0.39 3.97,1.17 1.16,0.78 1.99,1.8 2.5,3.09 0.29,0.74 0.46,1.47 0.53,2.2 0.06,0.73 0.09,1.82 0.09,3.28l0 0.58 -11.56 0c0,0.76 0.02,1.37 0.04,1.83 0.02,0.46 0.11,1.02 0.27,1.67 0.15,0.65 0.39,1.19 0.69,1.62 0.8,1.16 2.08,1.73 3.82,1.73 1.55,0 3.22,-0.42 5.01,-1.28l1 2.18c-2.06,0.97 -4.07,1.45 -6.01,1.45zm4.12 -11.37c-0.03,-1.33 -0.19,-2.39 -0.51,-3.17 -0.32,-0.81 -0.82,-1.44 -1.54,-1.92 -0.7,-0.47 -1.51,-0.71 -2.42,-0.71 -0.94,0 -1.76,0.24 -2.45,0.71 -0.69,0.48 -1.19,1.1 -1.49,1.9 -0.32,0.82 -0.48,1.88 -0.51,3.19l8.92 0z"/>
  <path id="_4_5" class="fil6" d="M330.96 624.74c1.3,0 2.47,0.34 3.53,1.03 1.06,0.68 1.83,1.64 2.32,2.86 0.18,0.42 0.3,0.9 0.39,1.44 0.08,0.54 0.12,0.99 0.13,1.36 0.02,0.36 0.02,0.9 0.02,1.6l0 10.95 -2.62 0 0 -10.78c0,-1.1 -0.03,-1.91 -0.08,-2.41 -0.04,-0.49 -0.17,-0.96 -0.38,-1.42 -0.33,-0.72 -0.83,-1.28 -1.52,-1.69 -0.68,-0.39 -1.46,-0.59 -2.32,-0.59 -0.86,0 -1.64,0.2 -2.32,0.59 -0.68,0.41 -1.19,0.97 -1.52,1.69 -0.21,0.46 -0.33,0.93 -0.38,1.42 -0.05,0.5 -0.07,1.31 -0.07,2.41l0 10.78 -2.63 0 0 -18.96 2.63 0 0 2c1.38,-1.52 2.98,-2.28 4.82,-2.28z"/>
  <path id="_5_6" class="fil6" d="M349.35 624.74c1.94,0 3.84,0.59 5.73,1.77l-1.24 2.07c-1.53,-0.99 -3.02,-1.49 -4.49,-1.49 -1.52,0 -2.72,0.61 -3.57,1.84 -0.3,0.45 -0.53,1.03 -0.68,1.74 -0.15,0.72 -0.24,1.32 -0.26,1.8 -0.03,0.48 -0.04,1.12 -0.04,1.92 0,0.92 0.01,1.62 0.03,2.1 0.02,0.49 0.09,1.07 0.24,1.74 0.13,0.68 0.34,1.25 0.62,1.72 0.41,0.68 0.94,1.17 1.6,1.49 0.65,0.32 1.34,0.47 2.06,0.47 0.8,0 1.63,-0.15 2.5,-0.45 0.87,-0.31 1.64,-0.68 2.29,-1.12l1.33 2c-0.83,0.55 -1.79,1.01 -2.89,1.38 -1.1,0.36 -2.17,0.54 -3.23,0.54 -1.32,0 -2.52,-0.29 -3.57,-0.88 -1.05,-0.6 -1.85,-1.37 -2.4,-2.32 -0.37,-0.66 -0.65,-1.38 -0.84,-2.17 -0.18,-0.79 -0.3,-1.47 -0.32,-2.05 -0.03,-0.58 -0.05,-1.39 -0.05,-2.45 0,-0.91 0.02,-1.63 0.05,-2.19 0.02,-0.56 0.14,-1.25 0.32,-2.08 0.19,-0.83 0.47,-1.55 0.84,-2.17 0.57,-0.96 1.38,-1.73 2.41,-2.32 1.03,-0.59 2.22,-0.89 3.56,-0.89z"/>
  <path id="_6_7" class="fil6" d="M359.89 619.3c0.31,-0.3 0.71,-0.46 1.19,-0.46 0.47,0 0.87,0.16 1.18,0.46 0.31,0.31 0.47,0.71 0.47,1.18 0,0.48 -0.16,0.88 -0.47,1.19 -0.31,0.31 -0.71,0.46 -1.18,0.46 -0.48,0 -0.88,-0.15 -1.19,-0.46 -0.3,-0.31 -0.46,-0.71 -0.46,-1.19 0,-0.47 0.16,-0.87 0.46,-1.18zm2.5 24.68l-2.63 0 0 -18.96 2.63 0 0 18.96z"/>
  <path id="_7_8" class="fil6" d="M369.66 638.36c0,0.99 0.33,1.83 0.99,2.52 0.66,0.69 1.58,1.03 2.77,1.03 0.96,0 1.82,-0.23 2.56,-0.7 0.75,-0.47 1.28,-1.17 1.58,-2.12 0.1,-0.34 0.19,-0.72 0.24,-1.17 0.05,-0.45 0.08,-0.86 0.09,-1.25 0,-0.4 0,-1.04 0,-1.92l-2.53 0c-1.69,0 -2.8,0.08 -3.33,0.24 -0.76,0.24 -1.35,0.65 -1.76,1.26 -0.4,0.6 -0.61,1.3 -0.61,2.11zm10.86 -5.78l0 11.4 -2.63 0 0 -2.01c-1.33,1.53 -2.94,2.29 -4.81,2.29 -1.78,0 -3.23,-0.56 -4.36,-1.69 -1.13,-1.13 -1.69,-2.53 -1.69,-4.21 0,-1.26 0.36,-2.38 1.08,-3.36 0.72,-0.98 1.73,-1.66 3.04,-2.06 0.38,-0.11 0.81,-0.2 1.28,-0.26 0.46,-0.06 0.87,-0.09 1.22,-0.1 0.35,0 0.89,0 1.6,0l2.64 0c0,-0.94 -0.01,-1.61 -0.04,-2.01 -0.03,-0.4 -0.11,-0.77 -0.23,-1.12 -0.3,-0.78 -0.79,-1.36 -1.48,-1.77 -0.69,-0.39 -1.48,-0.59 -2.36,-0.59 -1.3,0 -2.84,0.43 -4.61,1.28l-1 -2.17c2.13,-0.97 3.99,-1.46 5.61,-1.46 1.55,0 2.91,0.38 4.08,1.13 1.17,0.74 1.96,1.81 2.38,3.2 0.19,0.62 0.28,1.79 0.28,3.51z"/>
  <path id="_8_9" class="fil6" d="M388.58 627.02c1.27,-1.52 2.76,-2.28 4.46,-2.28 0.48,0 1.02,0.07 1.62,0.19l-0.39 2.32c-0.73,-0.1 -1.26,-0.16 -1.57,-0.16 -0.89,0 -1.66,0.21 -2.32,0.63 -0.65,0.42 -1.13,0.99 -1.41,1.7 -0.26,0.62 -0.39,1.72 -0.39,3.29l0 11.27 -2.63 0 0 -18.96 2.63 0 0 2z"/>
  <path class="fil6" d="M481.42 620.05c1.29,-0.81 2.85,-1.21 4.68,-1.21 1.82,0 3.38,0.4 4.68,1.21 1.29,0.81 2.26,1.89 2.88,3.26 0.37,0.77 0.64,1.69 0.82,2.77 0.18,1.07 0.28,1.96 0.31,2.66 0.02,0.7 0.03,1.65 0.03,2.84 0,1.19 -0.01,2.13 -0.03,2.83 -0.03,0.71 -0.13,1.59 -0.31,2.67 -0.18,1.07 -0.45,2 -0.82,2.77 -0.62,1.36 -1.59,2.45 -2.88,3.26 -1.3,0.8 -2.86,1.21 -4.68,1.21 -1.83,0 -3.39,-0.41 -4.68,-1.21 -1.3,-0.81 -2.26,-1.9 -2.89,-3.26 -0.36,-0.77 -0.64,-1.7 -0.82,-2.77 -0.17,-1.08 -0.28,-1.96 -0.3,-2.67 -0.02,-0.7 -0.04,-1.64 -0.04,-2.83 0,-1.19 0.02,-2.14 0.04,-2.84 0.02,-0.7 0.13,-1.59 0.3,-2.66 0.18,-1.08 0.46,-2 0.82,-2.77 0.63,-1.37 1.59,-2.45 2.89,-3.26zm7.81 2.02c-0.85,-0.52 -1.89,-0.78 -3.13,-0.78 -1.24,0 -2.29,0.26 -3.14,0.78 -0.85,0.52 -1.49,1.24 -1.91,2.16 -0.29,0.63 -0.51,1.4 -0.66,2.32 -0.14,0.94 -0.22,1.73 -0.25,2.39 -0.02,0.66 -0.03,1.54 -0.03,2.64 0,1.09 0.01,1.97 0.03,2.64 0.03,0.65 0.11,1.45 0.25,2.37 0.15,0.93 0.37,1.71 0.66,2.32 0.42,0.93 1.06,1.65 1.91,2.17 0.85,0.52 1.9,0.78 3.14,0.78 1.24,0 2.28,-0.26 3.13,-0.78 0.86,-0.52 1.49,-1.24 1.92,-2.17 0.28,-0.61 0.5,-1.39 0.65,-2.32 0.15,-0.92 0.23,-1.72 0.26,-2.37 0.02,-0.67 0.03,-1.55 0.03,-2.64 0,-1.1 -0.01,-1.98 -0.03,-2.64 -0.03,-0.66 -0.11,-1.45 -0.26,-2.39 -0.15,-0.92 -0.37,-1.69 -0.65,-2.32 -0.43,-0.92 -1.06,-1.64 -1.92,-2.16z"/>
  <path id="_1_10" class="fil6" d="M502.53 627.02c1.28,-1.52 2.77,-2.28 4.47,-2.28 0.48,0 1.02,0.07 1.61,0.19l-0.38 2.32c-0.74,-0.1 -1.27,-0.16 -1.58,-0.16 -0.89,0 -1.66,0.21 -2.31,0.63 -0.65,0.42 -1.13,0.99 -1.42,1.7 -0.26,0.62 -0.39,1.72 -0.39,3.29l0 11.27 -2.62 0 0 -18.96 2.62 0 0 2z"/>
  <path id="_2_11" class="fil6" d="M518.07 624.74c1.95,0 3.62,0.77 4.99,2.3l0 -2.02 2.63 0 0 17.02c0,2.05 -0.09,3.44 -0.28,4.17 -0.44,1.71 -1.34,3.02 -2.68,3.91 -1.34,0.89 -2.9,1.34 -4.66,1.34 -1.87,0 -3.83,-0.42 -5.89,-1.28l0.88 -2.2c1.82,0.75 3.5,1.13 5.01,1.13 1.22,0 2.25,-0.29 3.11,-0.89 0.86,-0.6 1.42,-1.47 1.69,-2.63 0.13,-0.56 0.19,-1.77 0.19,-3.62 -1.37,1.53 -3.04,2.29 -4.99,2.29 -1.19,0 -2.27,-0.26 -3.24,-0.77 -0.97,-0.51 -1.73,-1.19 -2.27,-2.03 -0.59,-0.9 -0.97,-1.87 -1.15,-2.9 -0.17,-1.04 -0.26,-2.39 -0.26,-4.06 0,-1.67 0.09,-3.02 0.26,-4.05 0.18,-1.04 0.56,-2.01 1.15,-2.9 0.54,-0.85 1.3,-1.52 2.27,-2.04 0.97,-0.51 2.05,-0.77 3.24,-0.77zm3.95 4.07c-0.84,-1.15 -2.03,-1.72 -3.6,-1.72 -1.57,0 -2.76,0.57 -3.59,1.72 -0.45,0.6 -0.73,1.34 -0.86,2.21 -0.13,0.86 -0.19,2.02 -0.19,3.48 0,1.46 0.06,2.63 0.19,3.49 0.13,0.87 0.41,1.6 0.86,2.21 0.83,1.14 2.02,1.71 3.59,1.71 1.57,0 2.76,-0.57 3.6,-1.71 0.44,-0.61 0.73,-1.34 0.85,-2.21 0.13,-0.86 0.19,-2.03 0.19,-3.49 0,-1.46 -0.06,-2.62 -0.19,-3.48 -0.12,-0.87 -0.41,-1.61 -0.85,-2.21z"/>
  <path id="_3_12" class="fil6" d="M532.88 638.36c0,0.99 0.33,1.83 0.99,2.52 0.66,0.69 1.58,1.03 2.77,1.03 0.96,0 1.82,-0.23 2.56,-0.7 0.75,-0.47 1.28,-1.17 1.58,-2.12 0.1,-0.34 0.19,-0.72 0.24,-1.17 0.05,-0.45 0.08,-0.86 0.08,-1.25 0.01,-0.4 0.01,-1.04 0.01,-1.92l-2.53 0c-1.69,0 -2.8,0.08 -3.34,0.24 -0.76,0.24 -1.34,0.65 -1.75,1.26 -0.4,0.6 -0.61,1.3 -0.61,2.11zm10.86 -5.78l0 11.4 -2.63 0 0 -2.01c-1.33,1.53 -2.94,2.29 -4.81,2.29 -1.78,0 -3.23,-0.56 -4.36,-1.69 -1.13,-1.13 -1.69,-2.53 -1.69,-4.21 0,-1.26 0.36,-2.38 1.08,-3.36 0.71,-0.98 1.73,-1.66 3.03,-2.06 0.39,-0.11 0.82,-0.2 1.28,-0.26 0.47,-0.06 0.88,-0.09 1.23,-0.1 0.35,0 0.89,0 1.6,0l2.64 0c0,-0.94 -0.01,-1.61 -0.04,-2.01 -0.03,-0.4 -0.11,-0.77 -0.23,-1.12 -0.3,-0.78 -0.79,-1.36 -1.48,-1.77 -0.69,-0.39 -1.48,-0.59 -2.36,-0.59 -1.3,0 -2.84,0.43 -4.61,1.28l-1 -2.17c2.13,-0.97 3.99,-1.46 5.61,-1.46 1.55,0 2.91,0.38 4.08,1.13 1.17,0.74 1.96,1.81 2.38,3.2 0.19,0.62 0.28,1.79 0.28,3.51z"/>
  <path id="_4_13" class="fil6" d="M556.62 624.74c1.29,0 2.47,0.34 3.53,1.03 1.05,0.68 1.82,1.64 2.32,2.86 0.18,0.42 0.3,0.9 0.38,1.44 0.09,0.54 0.13,0.99 0.14,1.36 0.01,0.36 0.02,0.9 0.02,1.6l0 10.95 -2.63 0 0 -10.78c0,-1.1 -0.02,-1.91 -0.07,-2.41 -0.05,-0.49 -0.17,-0.96 -0.38,-1.42 -0.33,-0.72 -0.84,-1.28 -1.52,-1.69 -0.68,-0.39 -1.46,-0.59 -2.32,-0.59 -0.87,0 -1.64,0.2 -2.32,0.59 -0.68,0.41 -1.19,0.97 -1.52,1.69 -0.21,0.46 -0.33,0.93 -0.38,1.42 -0.05,0.5 -0.07,1.31 -0.07,2.41l0 10.78 -2.63 0 0 -18.96 2.63 0 0 2c1.38,-1.52 2.98,-2.28 4.82,-2.28z"/>
  <path id="_5_14" class="fil6" d="M568.66 619.3c0.31,-0.3 0.71,-0.46 1.19,-0.46 0.47,0 0.87,0.16 1.18,0.46 0.31,0.31 0.47,0.71 0.47,1.18 0,0.48 -0.16,0.88 -0.47,1.19 -0.31,0.31 -0.71,0.46 -1.18,0.46 -0.48,0 -0.88,-0.15 -1.19,-0.46 -0.3,-0.31 -0.46,-0.71 -0.46,-1.19 0,-0.47 0.16,-0.87 0.46,-1.18zm2.5 24.68l-2.63 0 0 -18.96 2.63 0 0 18.96z"/>
  <polygon id="_6_15" class="fil6" points="588.07,641.63 588.07,643.98 575.45,643.98 575.45,642.09 584.66,627.37 575.57,627.37 575.57,625.02 587.91,625.02 587.91,626.91 578.69,641.63 "/>
  <path id="_7_16" class="fil6" d="M593.67 638.36c0,0.99 0.34,1.83 0.99,2.52 0.66,0.69 1.59,1.03 2.78,1.03 0.95,0 1.81,-0.23 2.56,-0.7 0.74,-0.47 1.27,-1.17 1.58,-2.12 0.1,-0.34 0.18,-0.72 0.23,-1.17 0.05,-0.45 0.08,-0.86 0.09,-1.25 0.01,-0.4 0.01,-1.04 0.01,-1.92l-2.54 0c-1.69,0 -2.79,0.08 -3.33,0.24 -0.76,0.24 -1.35,0.65 -1.75,1.26 -0.41,0.6 -0.62,1.3 -0.62,2.11zm10.87 -5.78l0 11.4 -2.63 0 0 -2.01c-1.33,1.53 -2.94,2.29 -4.82,2.29 -1.78,0 -3.23,-0.56 -4.35,-1.69 -1.13,-1.13 -1.69,-2.53 -1.69,-4.21 0,-1.26 0.35,-2.38 1.07,-3.36 0.72,-0.98 1.74,-1.66 3.04,-2.06 0.39,-0.11 0.81,-0.2 1.28,-0.26 0.47,-0.06 0.88,-0.09 1.23,-0.1 0.35,0 0.88,0 1.59,0l2.65 0c0,-0.94 -0.02,-1.61 -0.05,-2.01 -0.03,-0.4 -0.1,-0.77 -0.23,-1.12 -0.29,-0.78 -0.78,-1.36 -1.48,-1.77 -0.69,-0.39 -1.47,-0.59 -2.36,-0.59 -1.3,0 -2.83,0.43 -4.61,1.28l-1 -2.17c2.13,-0.97 4,-1.46 5.61,-1.46 1.56,0 2.91,0.38 4.08,1.13 1.17,0.74 1.97,1.81 2.39,3.2 0.18,0.62 0.28,1.79 0.28,3.51z"/>
  <path id="_8_17" class="fil6" d="M612.59 627.02c1.27,-1.52 2.76,-2.28 4.47,-2.28 0.48,0 1.01,0.07 1.61,0.19l-0.39 2.32c-0.73,-0.1 -1.26,-0.16 -1.57,-0.16 -0.89,0 -1.66,0.21 -2.31,0.63 -0.65,0.42 -1.13,0.99 -1.42,1.7 -0.26,0.62 -0.39,1.72 -0.39,3.29l0 11.27 -2.62 0 0 -18.96 2.62 0 0 2z"/>
  <path class="fil6" d="M718.21 619.91c2.36,0 4.54,0.71 6.55,2.12l-1.4 2.1c-1.66,-1.18 -3.38,-1.77 -5.15,-1.77 -2.43,0 -4.08,1 -4.95,2.98 -0.37,0.86 -0.61,1.87 -0.71,3.03 -0.1,1.17 -0.16,2.6 -0.16,4.28 0,1.68 0.06,3.1 0.16,4.27 0.1,1.17 0.34,2.18 0.71,3.03 0.87,1.99 2.52,2.98 4.95,2.98 2.15,0 4.04,-0.7 5.68,-2.08l1.54 2.03c-2.13,1.67 -4.53,2.51 -7.22,2.51 -1.81,0 -3.35,-0.41 -4.63,-1.21 -1.28,-0.81 -2.24,-1.91 -2.85,-3.3 -0.32,-0.7 -0.56,-1.56 -0.73,-2.57 -0.17,-1 -0.27,-1.9 -0.3,-2.68 -0.03,-0.78 -0.04,-1.77 -0.04,-2.98 0,-1.87 0.06,-3.46 0.2,-4.79 0.13,-1.32 0.42,-2.47 0.87,-3.45 0.64,-1.4 1.6,-2.5 2.88,-3.3 1.27,-0.8 2.81,-1.2 4.6,-1.2z"/>
  <path id="_1_18" class="fil6" d="M738.97 629.54c-0.8,-0.92 -1.97,-1.38 -3.49,-1.38 -1.52,0 -2.68,0.46 -3.49,1.38 -0.31,0.37 -0.56,0.78 -0.76,1.22 -0.19,0.45 -0.32,0.98 -0.4,1.58 -0.07,0.6 -0.12,1.1 -0.14,1.5 -0.02,0.41 -0.02,0.99 -0.02,1.73 0,0.75 0,1.32 0.02,1.73 0.02,0.4 0.07,0.9 0.14,1.51 0.08,0.6 0.21,1.12 0.4,1.57 0.2,0.45 0.45,0.86 0.76,1.22 0.81,0.92 1.97,1.38 3.49,1.38 1.52,0 2.69,-0.46 3.49,-1.38 0.31,-0.36 0.57,-0.77 0.76,-1.22 0.19,-0.45 0.33,-0.97 0.4,-1.57 0.08,-0.61 0.13,-1.11 0.15,-1.51 0.01,-0.41 0.02,-0.98 0.02,-1.73 0,-0.74 -0.01,-1.32 -0.02,-1.73 -0.02,-0.4 -0.07,-0.9 -0.15,-1.5 -0.07,-0.6 -0.21,-1.13 -0.4,-1.58 -0.19,-0.44 -0.45,-0.85 -0.76,-1.22zm-6.64 -3.12c0.94,-0.4 2,-0.61 3.15,-0.61 1.16,0 2.21,0.21 3.16,0.61 0.94,0.4 1.72,0.94 2.32,1.6 0.47,0.51 0.85,1.08 1.13,1.67 0.29,0.61 0.49,1.28 0.6,2.02 0.11,0.74 0.18,1.36 0.21,1.84 0.02,0.49 0.03,1.16 0.03,2.02 0,0.87 -0.01,1.54 -0.03,2.02 -0.03,0.49 -0.1,1.1 -0.21,1.85 -0.11,0.74 -0.31,1.41 -0.6,2.01 -0.28,0.6 -0.66,1.16 -1.13,1.68 -0.6,0.66 -1.38,1.19 -2.32,1.6 -0.95,0.4 -2,0.6 -3.16,0.6 -1.15,0 -2.21,-0.2 -3.15,-0.6 -0.95,-0.41 -1.72,-0.94 -2.33,-1.6 -0.47,-0.52 -0.85,-1.08 -1.13,-1.68 -0.28,-0.6 -0.49,-1.27 -0.6,-2.01 -0.11,-0.75 -0.17,-1.36 -0.2,-1.85 -0.02,-0.48 -0.03,-1.15 -0.03,-2.02 0,-0.86 0.01,-1.53 0.03,-2.02 0.03,-0.48 0.09,-1.1 0.2,-1.84 0.11,-0.74 0.32,-1.41 0.6,-2.02 0.28,-0.59 0.66,-1.16 1.13,-1.67 0.61,-0.66 1.38,-1.2 2.33,-1.6z"/>
  <path id="_2_19" class="fil6" d="M755.37 625.81c1.3,0 2.47,0.34 3.53,1.03 1.06,0.68 1.83,1.64 2.32,2.87 0.18,0.41 0.3,0.89 0.39,1.43 0.08,0.54 0.12,0.99 0.14,1.36 0.01,0.36 0.01,0.9 0.01,1.6l0 10.95 -2.62 0 0 -10.78c0,-1.1 -0.03,-1.91 -0.07,-2.4 -0.05,-0.5 -0.18,-0.97 -0.39,-1.43 -0.33,-0.72 -0.83,-1.28 -1.52,-1.68 -0.68,-0.4 -1.45,-0.6 -2.32,-0.6 -0.86,0 -1.63,0.2 -2.32,0.6 -0.68,0.4 -1.19,0.96 -1.52,1.68 -0.2,0.46 -0.33,0.93 -0.38,1.43 -0.05,0.49 -0.07,1.3 -0.07,2.4l0 10.78 -2.63 0 0 -18.96 2.63 0 0 2c1.38,-1.52 2.98,-2.28 4.82,-2.28z"/>
  <path id="_3_20" class="fil6" d="M767.73 639.74l0 -11.47 -2.64 0 0 -2.18 2.64 0 0 -4.09 2.62 0 0 4.09 3.51 0 0 2.18 -3.51 0 0 11.47c0,1.26 0.05,2.02 0.16,2.28 0.27,0.64 0.77,0.96 1.5,0.96 0.61,0 1.28,-0.18 2,-0.56l1.02 2.18c-1.12,0.49 -2.19,0.73 -3.19,0.73 -0.99,0 -1.83,-0.24 -2.51,-0.72 -0.69,-0.47 -1.16,-1.16 -1.41,-2.05 -0.14,-0.44 -0.19,-1.38 -0.19,-2.82z"/>
  <path id="_4_21" class="fil6" d="M781.25 628.09c1.27,-1.52 2.76,-2.28 4.46,-2.28 0.48,0 1.02,0.07 1.62,0.19l-0.39 2.32c-0.74,-0.1 -1.26,-0.16 -1.57,-0.16 -0.89,0 -1.67,0.21 -2.32,0.63 -0.65,0.43 -1.13,0.99 -1.41,1.7 -0.26,0.62 -0.39,1.72 -0.39,3.29l0 11.27 -2.63 0 0 -18.96 2.63 0 0 2z"/>
  <path id="_5_22" class="fil6" d="M800.8 629.54c-0.81,-0.92 -1.97,-1.38 -3.49,-1.38 -1.52,0 -2.68,0.46 -3.49,1.38 -0.31,0.37 -0.57,0.78 -0.76,1.22 -0.19,0.45 -0.33,0.98 -0.4,1.58 -0.07,0.6 -0.12,1.1 -0.14,1.5 -0.02,0.41 -0.03,0.99 -0.03,1.73 0,0.75 0.01,1.32 0.03,1.73 0.02,0.4 0.07,0.9 0.14,1.51 0.07,0.6 0.21,1.12 0.4,1.57 0.19,0.45 0.45,0.86 0.76,1.22 0.81,0.92 1.97,1.38 3.49,1.38 1.52,0 2.68,-0.46 3.49,-1.38 0.31,-0.36 0.57,-0.77 0.76,-1.22 0.19,-0.45 0.32,-0.97 0.4,-1.57 0.08,-0.61 0.13,-1.11 0.15,-1.51 0.01,-0.41 0.02,-0.98 0.02,-1.73 0,-0.74 -0.01,-1.32 -0.02,-1.73 -0.02,-0.4 -0.07,-0.9 -0.15,-1.5 -0.08,-0.6 -0.21,-1.13 -0.4,-1.58 -0.19,-0.44 -0.45,-0.85 -0.76,-1.22zm-6.64 -3.12c0.94,-0.4 1.99,-0.61 3.15,-0.61 1.16,0 2.21,0.21 3.16,0.61 0.94,0.4 1.72,0.94 2.32,1.6 0.47,0.51 0.85,1.08 1.13,1.67 0.29,0.61 0.49,1.28 0.6,2.02 0.11,0.74 0.18,1.36 0.2,1.84 0.03,0.49 0.03,1.16 0.03,2.02 0,0.87 0,1.54 -0.03,2.02 -0.02,0.49 -0.09,1.1 -0.2,1.85 -0.11,0.74 -0.31,1.41 -0.6,2.01 -0.28,0.6 -0.66,1.16 -1.13,1.68 -0.6,0.66 -1.38,1.19 -2.32,1.6 -0.95,0.4 -2,0.6 -3.16,0.6 -1.16,0 -2.21,-0.2 -3.15,-0.6 -0.95,-0.41 -1.72,-0.94 -2.33,-1.6 -0.47,-0.52 -0.85,-1.08 -1.13,-1.68 -0.29,-0.6 -0.49,-1.27 -0.6,-2.01 -0.11,-0.75 -0.18,-1.36 -0.2,-1.85 -0.02,-0.48 -0.04,-1.15 -0.04,-2.02 0,-0.86 0.02,-1.53 0.04,-2.02 0.02,-0.48 0.09,-1.1 0.2,-1.84 0.11,-0.74 0.31,-1.41 0.6,-2.02 0.28,-0.59 0.66,-1.16 1.13,-1.67 0.61,-0.66 1.38,-1.2 2.33,-1.6z"/>
  <path id="_6_23" class="fil6" d="M813.99 642.88l0.42 2.24c-0.46,0.14 -1,0.21 -1.61,0.21 -0.96,0 -1.75,-0.39 -2.38,-1.16 -0.44,-0.53 -0.67,-1.36 -0.67,-2.47l0 -22.86 2.63 0 0 22.86c0,0.53 0.07,0.88 0.19,1.04 0.13,0.16 0.34,0.24 0.62,0.24 0.25,0 0.52,-0.03 0.8,-0.1z"/>
  <path id="_7_24" class="fil6" d="M819.84 639.43c0,0.99 0.34,1.83 1,2.52 0.65,0.69 1.58,1.03 2.77,1.03 0.96,0 1.81,-0.23 2.56,-0.7 0.75,-0.46 1.27,-1.17 1.58,-2.11 0.1,-0.35 0.18,-0.73 0.23,-1.18 0.06,-0.44 0.09,-0.86 0.09,-1.25 0.01,-0.4 0.01,-1.04 0.01,-1.92l-2.54 0c-1.68,0 -2.79,0.08 -3.33,0.24 -0.76,0.24 -1.34,0.66 -1.75,1.26 -0.41,0.6 -0.62,1.3 -0.62,2.11zm10.87 -5.78l0 11.4 -2.63 0 0 -2.01c-1.33,1.53 -2.94,2.29 -4.82,2.29 -1.77,0 -3.23,-0.56 -4.35,-1.69 -1.13,-1.12 -1.69,-2.53 -1.69,-4.21 0,-1.26 0.36,-2.38 1.07,-3.35 0.72,-0.99 1.74,-1.67 3.04,-2.07 0.39,-0.11 0.82,-0.2 1.28,-0.26 0.47,-0.05 0.88,-0.09 1.23,-0.1 0.35,0 0.88,0 1.59,0l2.65 0c0,-0.94 -0.01,-1.61 -0.04,-2.01 -0.03,-0.4 -0.11,-0.77 -0.24,-1.11 -0.29,-0.79 -0.78,-1.37 -1.48,-1.77 -0.68,-0.4 -1.47,-0.6 -2.36,-0.6 -1.29,0 -2.83,0.43 -4.61,1.28l-1 -2.17c2.13,-0.97 4,-1.46 5.61,-1.46 1.56,0 2.92,0.38 4.09,1.13 1.16,0.74 1.96,1.81 2.38,3.2 0.18,0.62 0.28,1.79 0.28,3.51z"/>
  <path id="_8_25" class="fil6" d="M838.76 628.09c1.28,-1.52 2.77,-2.28 4.47,-2.28 0.48,0 1.02,0.07 1.62,0.19l-0.39 2.32c-0.74,-0.1 -1.27,-0.16 -1.58,-0.16 -0.89,0 -1.66,0.21 -2.31,0.63 -0.65,0.43 -1.13,0.99 -1.42,1.7 -0.26,0.62 -0.39,1.72 -0.39,3.29l0 11.27 -2.62 0 0 -18.96 2.62 0 0 2z"/>
  <path class="fil6" d="M957.63 635.54l-4.12 -12.67 -4.11 12.67 8.23 0zm-5.43 -16.37l2.63 0 8.4 24.81 -2.85 0 -1.95 -5.99 -9.84 0 -1.94 5.99 -2.86 0 8.41 -24.81z"/>
  <path id="_1_26" class="fil6" d="M969.36 627.02c1.28,-1.52 2.77,-2.28 4.47,-2.28 0.48,0 1.02,0.07 1.62,0.19l-0.39 2.32c-0.74,-0.1 -1.27,-0.16 -1.58,-0.16 -0.89,0 -1.66,0.21 -2.31,0.63 -0.65,0.42 -1.13,0.99 -1.42,1.7 -0.25,0.62 -0.39,1.72 -0.39,3.29l0 11.27 -2.62 0 0 -18.96 2.62 0 0 2z"/>
  <path id="_2_27" class="fil6" d="M984.9 624.74c1.96,0 3.62,0.77 4.99,2.3l0 -2.02 2.63 0 0 26.21 -2.63 0 0 -9.26c-1.37,1.53 -3.03,2.29 -4.99,2.29 -1.19,0 -2.27,-0.26 -3.24,-0.77 -0.97,-0.51 -1.73,-1.19 -2.27,-2.03 -0.59,-0.9 -0.97,-1.87 -1.15,-2.9 -0.17,-1.04 -0.26,-2.39 -0.26,-4.06 0,-1.67 0.09,-3.02 0.26,-4.05 0.18,-1.04 0.56,-2.01 1.15,-2.9 0.54,-0.85 1.3,-1.52 2.27,-2.04 0.97,-0.51 2.05,-0.77 3.24,-0.77zm3.95 4.07c-0.83,-1.15 -2.03,-1.72 -3.6,-1.72 -1.56,0 -2.76,0.57 -3.59,1.72 -0.44,0.6 -0.73,1.34 -0.86,2.21 -0.13,0.86 -0.19,2.02 -0.19,3.48 0,1.46 0.06,2.63 0.19,3.49 0.13,0.87 0.42,1.6 0.86,2.21 0.83,1.14 2.03,1.71 3.59,1.71 1.57,0 2.77,-0.57 3.6,-1.71 0.44,-0.61 0.73,-1.34 0.85,-2.21 0.13,-0.86 0.19,-2.03 0.19,-3.49 0,-1.46 -0.06,-2.62 -0.19,-3.48 -0.12,-0.87 -0.41,-1.61 -0.85,-2.21z"/>
  <path id="_3_28" class="fil6" d="M997.96 625.02l2.63 0 0 10.95c0,1.58 0.09,2.64 0.26,3.17 0.29,0.91 0.8,1.59 1.52,2.07 0.73,0.47 1.56,0.7 2.51,0.7 0.95,0 1.78,-0.23 2.51,-0.7 0.72,-0.48 1.23,-1.16 1.52,-2.07 0.17,-0.53 0.26,-1.59 0.26,-3.17l0 -10.95 2.63 0 0 11.13c0,0.62 -0.01,1.09 -0.02,1.43 -0.01,0.33 -0.05,0.74 -0.12,1.23 -0.07,0.49 -0.18,0.94 -0.33,1.33 -0.49,1.33 -1.3,2.35 -2.41,3.06 -1.12,0.71 -2.47,1.06 -4.04,1.06 -1.58,0 -2.92,-0.35 -4.04,-1.06 -1.11,-0.71 -1.92,-1.73 -2.41,-3.06 -0.15,-0.39 -0.26,-0.84 -0.33,-1.33 -0.07,-0.49 -0.12,-0.9 -0.13,-1.23 -0.01,-0.34 -0.01,-0.81 -0.01,-1.43l0 -11.13z"/>
  <path id="_4_29" class="fil6" d="M1017.44 619.3c0.32,-0.3 0.71,-0.46 1.19,-0.46 0.48,0 0.87,0.16 1.18,0.46 0.31,0.31 0.47,0.71 0.47,1.18 0,0.48 -0.16,0.88 -0.47,1.19 -0.31,0.31 -0.7,0.46 -1.18,0.46 -0.48,0 -0.87,-0.15 -1.19,-0.46 -0.3,-0.31 -0.46,-0.71 -0.46,-1.19 0,-0.47 0.16,-0.87 0.46,-1.18zm2.5 24.68l-2.63 0 0 -18.96 2.63 0 0 18.96z"/>
  <polygon id="_5_30" class="fil6" points="1030.24,643.98 1023.89,625.02 1026.64,625.02 1031.5,640.61 1036.38,625.02 1039.13,625.02 1032.77,643.98 "/>
  <path id="_6_31" class="fil6" d="M1044.21 638.36c0,0.99 0.33,1.83 0.99,2.52 0.66,0.69 1.58,1.03 2.77,1.03 0.96,0 1.82,-0.23 2.56,-0.7 0.75,-0.47 1.28,-1.17 1.58,-2.12 0.1,-0.34 0.19,-0.72 0.24,-1.17 0.05,-0.45 0.08,-0.86 0.08,-1.25 0.01,-0.4 0.01,-1.04 0.01,-1.92l-2.54 0c-1.68,0 -2.79,0.08 -3.33,0.24 -0.76,0.24 -1.34,0.65 -1.75,1.26 -0.4,0.6 -0.61,1.3 -0.61,2.11zm10.86 -5.78l0 11.4 -2.63 0 0 -2.01c-1.33,1.53 -2.94,2.29 -4.81,2.29 -1.78,0 -3.23,-0.56 -4.36,-1.69 -1.13,-1.13 -1.69,-2.53 -1.69,-4.21 0,-1.26 0.36,-2.38 1.08,-3.36 0.71,-0.98 1.73,-1.66 3.03,-2.06 0.39,-0.11 0.82,-0.2 1.28,-0.26 0.47,-0.06 0.88,-0.09 1.23,-0.1 0.35,0 0.89,0 1.6,0l2.64 0c0,-0.94 -0.01,-1.61 -0.04,-2.01 -0.03,-0.4 -0.11,-0.77 -0.23,-1.12 -0.3,-0.78 -0.79,-1.36 -1.48,-1.77 -0.69,-0.39 -1.48,-0.59 -2.36,-0.59 -1.3,0 -2.84,0.43 -4.61,1.28l-1 -2.17c2.13,-0.97 3.99,-1.46 5.61,-1.46 1.55,0 2.91,0.38 4.08,1.13 1.17,0.74 1.96,1.81 2.38,3.2 0.19,0.62 0.28,1.79 0.28,3.51z"/>
  <path id="_7_32" class="fil6" d="M1063.13 627.02c1.27,-1.52 2.76,-2.28 4.46,-2.28 0.48,0 1.02,0.07 1.62,0.19l-0.39 2.32c-0.74,-0.1 -1.26,-0.16 -1.57,-0.16 -0.89,0 -1.67,0.21 -2.32,0.63 -0.65,0.42 -1.13,0.99 -1.41,1.7 -0.26,0.62 -0.39,1.72 -0.39,3.29l0 11.27 -2.63 0 0 -18.96 2.63 0 0 2z"/>
  <path class="fil6" d="M1163.57 621.29l0 19.9 3.56 0c0.6,0 1.06,0 1.41,-0.01 0.35,-0.02 0.77,-0.07 1.28,-0.17 0.51,-0.1 0.93,-0.24 1.25,-0.43 0.41,-0.24 0.77,-0.53 1.09,-0.88 0.32,-0.35 0.57,-0.69 0.78,-1.04 0.2,-0.34 0.37,-0.78 0.52,-1.31 0.13,-0.53 0.24,-0.99 0.31,-1.39 0.07,-0.39 0.12,-0.91 0.16,-1.57 0.04,-0.65 0.05,-1.16 0.06,-1.53 0,-0.37 0.01,-0.91 0.01,-1.62 0,-0.71 -0.01,-1.25 -0.01,-1.62 -0.01,-0.37 -0.02,-0.88 -0.06,-1.53 -0.04,-0.66 -0.09,-1.18 -0.16,-1.57 -0.07,-0.39 -0.18,-0.85 -0.31,-1.38 -0.15,-0.54 -0.32,-0.97 -0.52,-1.32 -0.21,-0.35 -0.46,-0.69 -0.78,-1.04 -0.32,-0.35 -0.68,-0.65 -1.09,-0.88 -0.32,-0.18 -0.74,-0.33 -1.25,-0.43 -0.51,-0.09 -0.93,-0.15 -1.28,-0.16 -0.35,-0.01 -0.81,-0.02 -1.41,-0.02l-3.56 0zm-2.73 -2.45l6.29 0c1.75,0 3.09,0.13 4.01,0.4 1.08,0.32 2,0.84 2.76,1.59 0.76,0.74 1.36,1.59 1.8,2.56 0.31,0.72 0.56,1.59 0.72,2.6 0.16,1.01 0.25,1.85 0.28,2.52 0.02,0.66 0.03,1.57 0.03,2.73 0,1.16 -0.01,2.07 -0.03,2.74 -0.03,0.66 -0.12,1.5 -0.28,2.51 -0.16,1.01 -0.41,1.88 -0.72,2.6 -0.44,0.97 -1.04,1.82 -1.8,2.56 -0.76,0.75 -1.68,1.28 -2.76,1.59 -0.92,0.27 -2.26,0.41 -4.01,0.41l-6.29 0 0 -24.81z"/>
  <path id="_1_33" class="fil6" d="M1188.64 643.93c-1.35,0 -2.55,-0.26 -3.59,-0.77 -1.04,-0.51 -1.86,-1.2 -2.47,-2.09 -0.43,-0.62 -0.76,-1.35 -0.97,-2.21 -0.22,-0.85 -0.34,-1.57 -0.37,-2.16 -0.03,-0.59 -0.04,-1.43 -0.04,-2.53 0,-0.9 0.01,-1.58 0.03,-2.04 0.01,-0.46 0.07,-1.02 0.17,-1.69 0.09,-0.66 0.24,-1.25 0.45,-1.79 0.49,-1.29 1.31,-2.32 2.46,-3.08 1.15,-0.77 2.48,-1.16 3.98,-1.16 1.49,0 2.81,0.39 3.97,1.16 1.16,0.78 2,1.81 2.5,3.1 0.29,0.73 0.46,1.47 0.53,2.2 0.07,0.73 0.1,1.82 0.1,3.28l0 0.58 -11.56 0c0,0.76 0.01,1.37 0.03,1.83 0.02,0.46 0.12,1.02 0.27,1.66 0.16,0.65 0.39,1.19 0.7,1.62 0.8,1.16 2.07,1.74 3.81,1.74 1.56,0 3.22,-0.43 5.01,-1.28l1 2.17c-2.06,0.97 -4.07,1.46 -6.01,1.46zm4.12 -11.37c-0.02,-1.34 -0.19,-2.39 -0.51,-3.18 -0.31,-0.8 -0.82,-1.44 -1.53,-1.92 -0.71,-0.47 -1.52,-0.7 -2.43,-0.7 -0.94,0 -1.76,0.23 -2.45,0.7 -0.69,0.48 -1.19,1.11 -1.49,1.91 -0.31,0.81 -0.48,1.88 -0.51,3.19l8.92 0z"/>
  <path id="_2_34" class="fil6" d="M1205.86 624.41c1.74,0 3.75,0.48 6.01,1.43l-0.89 2.23c-2.05,-0.88 -3.76,-1.31 -5.12,-1.31 -0.67,0 -1.26,0.09 -1.78,0.3 -0.51,0.19 -0.9,0.45 -1.16,0.76 -0.26,0.32 -0.44,0.64 -0.57,0.95 -0.12,0.31 -0.18,0.62 -0.18,0.93 0,0.59 0.16,1.09 0.48,1.53 0.33,0.44 0.73,0.77 1.22,0.99 0.47,0.23 1.26,0.42 2.35,0.57 1.1,0.16 2.01,0.37 2.75,0.64 1.03,0.38 1.89,1.01 2.59,1.87 0.7,0.87 1.05,1.89 1.05,3.07 0,1.48 -0.6,2.78 -1.8,3.89 -1.21,1.11 -2.85,1.67 -4.95,1.67 -1.96,0 -4.16,-0.55 -6.62,-1.64l0.95 -2.18c2.17,0.98 4.06,1.47 5.67,1.47 0.73,0 1.37,-0.1 1.92,-0.3 0.56,-0.2 0.99,-0.46 1.3,-0.79 0.29,-0.33 0.52,-0.67 0.68,-1.02 0.15,-0.36 0.22,-0.72 0.22,-1.1 0,-0.66 -0.19,-1.24 -0.59,-1.73 -0.4,-0.49 -0.89,-0.85 -1.48,-1.07 -0.39,-0.15 -1.19,-0.32 -2.39,-0.51 -1.21,-0.19 -2.16,-0.44 -2.88,-0.77 -0.9,-0.42 -1.64,-1.03 -2.22,-1.82 -0.58,-0.8 -0.88,-1.72 -0.88,-2.77 0,-1.44 0.58,-2.68 1.72,-3.73 1.16,-1.04 2.69,-1.56 4.6,-1.56z"/>
  <path id="_3_35" class="fil6" d="M1223.73 624.41c1.93,0 3.84,0.59 5.73,1.77l-1.24 2.07c-1.53,-1 -3.02,-1.49 -4.49,-1.49 -1.52,0 -2.72,0.61 -3.57,1.83 -0.3,0.45 -0.53,1.03 -0.69,1.75 -0.14,0.72 -0.23,1.32 -0.25,1.79 -0.03,0.48 -0.04,1.13 -0.04,1.93 0,0.91 0.01,1.61 0.03,2.1 0.01,0.48 0.09,1.06 0.23,1.74 0.14,0.67 0.35,1.25 0.63,1.72 0.41,0.67 0.94,1.17 1.6,1.48 0.65,0.32 1.34,0.48 2.06,0.48 0.8,0 1.63,-0.15 2.5,-0.46 0.87,-0.3 1.63,-0.67 2.29,-1.12l1.33 2c-0.83,0.56 -1.79,1.02 -2.89,1.38 -1.1,0.37 -2.18,0.55 -3.23,0.55 -1.33,0 -2.52,-0.3 -3.57,-0.89 -1.05,-0.59 -1.85,-1.36 -2.4,-2.32 -0.37,-0.66 -0.65,-1.37 -0.84,-2.16 -0.18,-0.79 -0.3,-1.47 -0.32,-2.05 -0.03,-0.58 -0.05,-1.4 -0.05,-2.45 0,-0.91 0.02,-1.64 0.05,-2.2 0.02,-0.55 0.14,-1.24 0.32,-2.07 0.19,-0.83 0.47,-1.56 0.84,-2.18 0.57,-0.95 1.37,-1.73 2.41,-2.32 1.03,-0.59 2.22,-0.88 3.56,-0.88z"/>
  <path id="_4_36" class="fil6" d="M1235.63 638.02c0,1 0.33,1.83 0.99,2.52 0.66,0.7 1.58,1.04 2.77,1.04 0.96,0 1.82,-0.24 2.56,-0.7 0.75,-0.47 1.28,-1.18 1.58,-2.12 0.1,-0.34 0.19,-0.73 0.24,-1.18 0.05,-0.44 0.08,-0.86 0.09,-1.25 0,-0.39 0,-1.03 0,-1.92l-2.53 0c-1.69,0 -2.8,0.09 -3.33,0.25 -0.76,0.23 -1.35,0.65 -1.76,1.25 -0.4,0.6 -0.61,1.31 -0.61,2.11zm10.86 -5.78l0 11.41 -2.63 0 0 -2.02c-1.33,1.53 -2.93,2.3 -4.81,2.3 -1.78,0 -3.23,-0.57 -4.36,-1.7 -1.13,-1.12 -1.69,-2.53 -1.69,-4.21 0,-1.26 0.36,-2.38 1.08,-3.35 0.72,-0.98 1.73,-1.66 3.04,-2.06 0.38,-0.12 0.81,-0.21 1.28,-0.27 0.46,-0.05 0.87,-0.09 1.22,-0.09 0.35,-0.01 0.89,-0.01 1.6,-0.01l2.64 0c0,-0.94 -0.01,-1.6 -0.04,-2.01 -0.03,-0.4 -0.11,-0.77 -0.23,-1.11 -0.3,-0.78 -0.79,-1.37 -1.48,-1.77 -0.69,-0.39 -1.48,-0.59 -2.36,-0.59 -1.3,0 -2.84,0.42 -4.61,1.28l-1 -2.18c2.13,-0.97 3.99,-1.45 5.61,-1.45 1.55,0 2.91,0.37 4.08,1.12 1.17,0.75 1.96,1.81 2.38,3.21 0.19,0.61 0.28,1.78 0.28,3.5z"/>
  <path id="_5_37" class="fil6" d="M1254.55 626.69c1.27,-1.52 2.76,-2.28 4.47,-2.28 0.47,0 1.01,0.06 1.61,0.19l-0.39 2.31c-0.73,-0.1 -1.26,-0.15 -1.57,-0.15 -0.89,0 -1.66,0.21 -2.32,0.63 -0.65,0.42 -1.13,0.98 -1.41,1.69 -0.26,0.63 -0.39,1.72 -0.39,3.3l0 11.27 -2.63 0 0 -18.96 2.63 0 0 2z"/>
  <path id="_6_38" class="fil6" d="M1265.01 638.33l0 -11.47 -2.63 0 0 -2.17 2.63 0 0 -4.1 2.63 0 0 4.1 3.5 0 0 2.17 -3.5 0 0 11.47c0,1.27 0.05,2.03 0.15,2.28 0.27,0.65 0.78,0.97 1.51,0.97 0.61,0 1.27,-0.19 2,-0.57l1.01 2.18c-1.11,0.49 -2.18,0.74 -3.18,0.74 -1,0 -1.83,-0.24 -2.51,-0.72 -0.69,-0.48 -1.16,-1.17 -1.42,-2.05 -0.13,-0.44 -0.19,-1.38 -0.19,-2.83z"/>
  <path id="_7_39" class="fil6" d="M1277.48 638.02c0,1 0.34,1.83 0.99,2.52 0.66,0.7 1.59,1.04 2.78,1.04 0.96,0 1.81,-0.24 2.56,-0.7 0.75,-0.47 1.27,-1.18 1.58,-2.12 0.1,-0.34 0.18,-0.73 0.23,-1.18 0.05,-0.44 0.08,-0.86 0.09,-1.25 0.01,-0.39 0.01,-1.03 0.01,-1.92l-2.54 0c-1.69,0 -2.79,0.09 -3.33,0.25 -0.76,0.23 -1.35,0.65 -1.75,1.25 -0.41,0.6 -0.62,1.31 -0.62,2.11zm10.87 -5.78l0 11.41 -2.63 0 0 -2.02c-1.33,1.53 -2.94,2.3 -4.82,2.3 -1.77,0 -3.23,-0.57 -4.35,-1.7 -1.13,-1.12 -1.69,-2.53 -1.69,-4.21 0,-1.26 0.36,-2.38 1.07,-3.35 0.72,-0.98 1.74,-1.66 3.04,-2.06 0.39,-0.12 0.81,-0.21 1.28,-0.27 0.47,-0.05 0.88,-0.09 1.23,-0.09 0.35,-0.01 0.88,-0.01 1.59,-0.01l2.65 0c0,-0.94 -0.02,-1.6 -0.05,-2.01 -0.03,-0.4 -0.1,-0.77 -0.23,-1.11 -0.29,-0.78 -0.78,-1.37 -1.48,-1.77 -0.68,-0.39 -1.47,-0.59 -2.36,-0.59 -1.3,0 -2.83,0.42 -4.61,1.28l-1 -2.18c2.13,-0.97 4,-1.45 5.61,-1.45 1.56,0 2.91,0.37 4.09,1.12 1.16,0.75 1.96,1.81 2.38,3.21 0.18,0.61 0.28,1.78 0.28,3.5z"/>
  <path id="_8_40" class="fil6" d="M1296.4 626.69c1.28,-1.52 2.77,-2.28 4.47,-2.28 0.48,0 1.02,0.06 1.61,0.19l-0.38 2.31c-0.74,-0.1 -1.27,-0.15 -1.58,-0.15 -0.89,0 -1.66,0.21 -2.31,0.63 -0.65,0.42 -1.13,0.98 -1.42,1.69 -0.26,0.63 -0.39,1.72 -0.39,3.3l0 11.27 -2.62 0 0 -18.96 2.62 0 0 2z"/>
  <polygon class="fil6" points="1399.04,620.25 1401.78,620.25 1401.78,642.6 1411.66,642.6 1411.66,645.05 1399.04,645.05 "/>
  <path id="_1_41" class="fil6" d="M1425.83 629.54c-0.8,-0.92 -1.96,-1.38 -3.48,-1.38 -1.52,0 -2.68,0.46 -3.49,1.38 -0.31,0.37 -0.57,0.78 -0.76,1.22 -0.19,0.45 -0.33,0.98 -0.4,1.58 -0.08,0.6 -0.12,1.1 -0.14,1.5 -0.02,0.41 -0.03,0.99 -0.03,1.73 0,0.75 0.01,1.32 0.03,1.73 0.02,0.4 0.06,0.9 0.14,1.51 0.07,0.6 0.21,1.12 0.4,1.57 0.19,0.45 0.45,0.86 0.76,1.22 0.81,0.92 1.97,1.38 3.49,1.38 1.52,0 2.68,-0.46 3.48,-1.38 0.32,-0.36 0.58,-0.77 0.77,-1.22 0.19,-0.45 0.32,-0.97 0.4,-1.57 0.08,-0.61 0.13,-1.11 0.14,-1.51 0.02,-0.41 0.03,-0.98 0.03,-1.73 0,-0.74 -0.01,-1.32 -0.03,-1.73 -0.01,-0.4 -0.06,-0.9 -0.14,-1.5 -0.08,-0.6 -0.21,-1.13 -0.4,-1.58 -0.19,-0.44 -0.45,-0.85 -0.77,-1.22zm-6.63 -3.12c0.94,-0.4 1.99,-0.61 3.15,-0.61 1.16,0 2.2,0.21 3.16,0.61 0.94,0.4 1.72,0.94 2.32,1.6 0.47,0.51 0.84,1.08 1.13,1.67 0.29,0.61 0.49,1.28 0.6,2.02 0.11,0.74 0.18,1.36 0.2,1.84 0.03,0.49 0.03,1.16 0.03,2.02 0,0.87 0,1.54 -0.03,2.02 -0.02,0.49 -0.09,1.1 -0.2,1.85 -0.11,0.74 -0.31,1.41 -0.6,2.01 -0.29,0.6 -0.66,1.16 -1.13,1.68 -0.6,0.66 -1.38,1.19 -2.32,1.6 -0.96,0.4 -2,0.6 -3.16,0.6 -1.16,0 -2.21,-0.2 -3.15,-0.6 -0.95,-0.41 -1.73,-0.94 -2.34,-1.6 -0.46,-0.52 -0.84,-1.08 -1.13,-1.68 -0.28,-0.6 -0.48,-1.27 -0.59,-2.01 -0.11,-0.75 -0.18,-1.36 -0.2,-1.85 -0.03,-0.48 -0.04,-1.15 -0.04,-2.02 0,-0.86 0.01,-1.53 0.04,-2.02 0.02,-0.48 0.09,-1.1 0.2,-1.84 0.11,-0.74 0.31,-1.41 0.59,-2.02 0.29,-0.59 0.67,-1.16 1.13,-1.67 0.61,-0.66 1.39,-1.2 2.34,-1.6z"/>
  <path id="_2_42" class="fil6" d="M1441.36 625.81c1.93,0 3.84,0.59 5.73,1.77l-1.25 2.07c-1.52,-0.99 -3.02,-1.49 -4.48,-1.49 -1.53,0 -2.72,0.61 -3.57,1.84 -0.31,0.45 -0.53,1.03 -0.69,1.75 -0.15,0.71 -0.24,1.31 -0.26,1.79 -0.02,0.48 -0.03,1.12 -0.03,1.93 0,0.91 0,1.61 0.02,2.09 0.02,0.49 0.1,1.07 0.24,1.74 0.14,0.68 0.35,1.25 0.63,1.72 0.41,0.68 0.94,1.17 1.6,1.49 0.65,0.32 1.33,0.47 2.06,0.47 0.79,0 1.62,-0.15 2.5,-0.45 0.87,-0.31 1.63,-0.68 2.28,-1.12l1.34 2c-0.84,0.55 -1.8,1.01 -2.9,1.38 -1.09,0.36 -2.17,0.54 -3.22,0.54 -1.33,0 -2.53,-0.29 -3.57,-0.88 -1.05,-0.59 -1.86,-1.37 -2.41,-2.32 -0.37,-0.66 -0.65,-1.38 -0.83,-2.17 -0.19,-0.79 -0.3,-1.47 -0.33,-2.05 -0.03,-0.58 -0.04,-1.39 -0.04,-2.44 0,-0.91 0.01,-1.64 0.04,-2.2 0.03,-0.56 0.14,-1.25 0.33,-2.07 0.18,-0.84 0.46,-1.56 0.83,-2.18 0.58,-0.96 1.38,-1.73 2.41,-2.32 1.04,-0.59 2.23,-0.89 3.57,-0.89z"/>
  <path id="_3_43" class="fil6" d="M1453.25 639.43c0,0.99 0.34,1.83 1,2.52 0.65,0.69 1.58,1.03 2.77,1.03 0.96,0 1.81,-0.23 2.56,-0.7 0.75,-0.46 1.27,-1.17 1.58,-2.11 0.1,-0.35 0.18,-0.73 0.23,-1.18 0.06,-0.44 0.09,-0.86 0.09,-1.25 0.01,-0.4 0.01,-1.04 0.01,-1.92l-2.54 0c-1.68,0 -2.79,0.08 -3.33,0.24 -0.76,0.24 -1.34,0.66 -1.75,1.26 -0.41,0.6 -0.62,1.3 -0.62,2.11zm10.87 -5.78l0 11.4 -2.63 0 0 -2.01c-1.33,1.53 -2.94,2.29 -4.82,2.29 -1.77,0 -3.23,-0.56 -4.35,-1.69 -1.13,-1.12 -1.69,-2.53 -1.69,-4.21 0,-1.26 0.36,-2.38 1.07,-3.35 0.72,-0.99 1.74,-1.67 3.04,-2.07 0.39,-0.11 0.82,-0.2 1.28,-0.26 0.47,-0.05 0.88,-0.09 1.23,-0.1 0.35,0 0.88,0 1.59,0l2.65 0c0,-0.94 -0.01,-1.61 -0.04,-2.01 -0.03,-0.4 -0.11,-0.77 -0.24,-1.11 -0.29,-0.79 -0.78,-1.37 -1.47,-1.77 -0.69,-0.4 -1.48,-0.6 -2.37,-0.6 -1.29,0 -2.83,0.43 -4.61,1.28l-1 -2.17c2.13,-0.97 4,-1.46 5.61,-1.46 1.56,0 2.92,0.38 4.09,1.13 1.16,0.74 1.96,1.81 2.38,3.2 0.18,0.62 0.28,1.79 0.28,3.51z"/>
  <path id="_4_44" class="fil6" d="M1473.79 642.88l0.42 2.24c-0.47,0.14 -1.01,0.21 -1.61,0.21 -0.96,0 -1.75,-0.39 -2.39,-1.16 -0.44,-0.53 -0.66,-1.36 -0.66,-2.47l0 -22.86 2.62 0 0 22.86c0,0.53 0.07,0.88 0.19,1.04 0.14,0.16 0.34,0.24 0.62,0.24 0.26,0 0.53,-0.03 0.81,-0.1z"/>
  <path id="_5_45" class="fil6" d="M1478.28 620.37c0.31,-0.3 0.71,-0.46 1.18,-0.46 0.48,0 0.88,0.16 1.19,0.46 0.31,0.31 0.46,0.71 0.46,1.18 0,0.48 -0.15,0.88 -0.46,1.19 -0.31,0.31 -0.71,0.47 -1.19,0.47 -0.47,0 -0.87,-0.16 -1.18,-0.47 -0.31,-0.31 -0.46,-0.71 -0.46,-1.19 0,-0.47 0.15,-0.87 0.46,-1.18zm2.5 24.68l-2.63 0 0 -18.96 2.63 0 0 18.96z"/>
  <polygon id="_6_46" class="fil6" points="1497.69,642.7 1497.69,645.05 1485.07,645.05 1485.07,643.16 1494.28,628.44 1485.19,628.44 1485.19,626.09 1497.52,626.09 1497.52,627.98 1488.31,642.7 "/>
  <path id="_7_47" class="fil6" d="M1503.29 639.43c0,0.99 0.33,1.83 0.99,2.52 0.66,0.69 1.59,1.03 2.78,1.03 0.95,0 1.81,-0.23 2.56,-0.7 0.74,-0.46 1.27,-1.17 1.57,-2.11 0.11,-0.35 0.19,-0.73 0.24,-1.18 0.05,-0.44 0.08,-0.86 0.09,-1.25 0,-0.4 0,-1.04 0,-1.92l-2.53 0c-1.69,0 -2.79,0.08 -3.33,0.24 -0.76,0.24 -1.35,0.66 -1.75,1.26 -0.41,0.6 -0.62,1.3 -0.62,2.11zm10.87 -5.78l0 11.4 -2.64 0 0 -2.01c-1.32,1.53 -2.93,2.29 -4.81,2.29 -1.78,0 -3.23,-0.56 -4.35,-1.69 -1.13,-1.12 -1.7,-2.53 -1.7,-4.21 0,-1.26 0.36,-2.38 1.08,-3.35 0.72,-0.99 1.73,-1.67 3.04,-2.07 0.39,-0.11 0.81,-0.2 1.28,-0.26 0.46,-0.05 0.88,-0.09 1.22,-0.1 0.36,0 0.89,0 1.6,0l2.64 0c0,-0.94 -0.01,-1.61 -0.04,-2.01 -0.03,-0.4 -0.11,-0.77 -0.23,-1.11 -0.29,-0.79 -0.78,-1.37 -1.48,-1.77 -0.69,-0.4 -1.48,-0.6 -2.36,-0.6 -1.3,0 -2.84,0.43 -4.61,1.28l-1 -2.17c2.13,-0.97 3.99,-1.46 5.61,-1.46 1.55,0 2.91,0.38 4.08,1.13 1.17,0.74 1.97,1.81 2.38,3.2 0.19,0.62 0.29,1.79 0.29,3.51z"/>
  <path id="_8_48" class="fil6" d="M1522.21 628.09c1.27,-1.52 2.76,-2.28 4.47,-2.28 0.48,0 1.01,0.07 1.61,0.19l-0.39 2.32c-0.73,-0.1 -1.26,-0.16 -1.57,-0.16 -0.89,0 -1.66,0.21 -2.31,0.63 -0.66,0.43 -1.13,0.99 -1.42,1.7 -0.26,0.62 -0.39,1.72 -0.39,3.29l0 11.27 -2.63 0 0 -18.96 2.63 0 0 2z"/>
  <path class="fil6" d="M1635.96 627.69l3.44 0c0.57,0 1,0 1.27,-0.01 0.28,-0.01 0.6,-0.04 0.94,-0.1 0.35,-0.06 0.65,-0.13 0.9,-0.24 0.8,-0.35 1.39,-0.89 1.76,-1.61 0.37,-0.73 0.56,-1.49 0.56,-2.28 0,-0.32 -0.04,-0.64 -0.11,-0.97 -0.06,-0.34 -0.18,-0.7 -0.35,-1.09 -0.16,-0.39 -0.41,-0.76 -0.76,-1.1 -0.34,-0.33 -0.76,-0.59 -1.23,-0.79 -0.52,-0.19 -1.51,-0.29 -2.98,-0.29l-3.44 0 0 8.48zm0 2.45l0 8.97 3.97 0c0.59,0 1.03,0 1.32,-0.01 0.3,-0.02 0.63,-0.05 1.01,-0.11 0.38,-0.06 0.71,-0.15 1.01,-0.28 0.85,-0.39 1.46,-0.96 1.84,-1.73 0.37,-0.76 0.56,-1.54 0.56,-2.35 0,-0.39 -0.05,-0.77 -0.14,-1.15 -0.08,-0.38 -0.22,-0.77 -0.4,-1.15 -0.18,-0.4 -0.45,-0.76 -0.79,-1.09 -0.35,-0.32 -0.77,-0.58 -1.25,-0.76 -0.26,-0.11 -0.58,-0.19 -0.93,-0.24 -0.36,-0.06 -0.67,-0.08 -0.95,-0.09 -0.27,-0.01 -0.7,-0.01 -1.28,-0.01l-3.97 0zm8.94 -1.45c1.09,0.57 1.96,1.36 2.57,2.37 0.62,1.01 0.93,2.2 0.93,3.57 0,1.51 -0.41,2.87 -1.25,4.11 -0.84,1.23 -2.02,2.06 -3.56,2.49 -0.79,0.22 -2.01,0.34 -3.66,0.34l-6.7 0 0 -24.81 6.17 0c1.56,0 2.7,0.09 3.4,0.27 1.41,0.38 2.56,1.15 3.44,2.3 0.88,1.16 1.32,2.53 1.32,4.12 0,1.13 -0.23,2.15 -0.69,3.04 -0.46,0.89 -1.12,1.63 -1.97,2.2z"/>
  <path id="_1_49" class="fil6" d="M1654.88 635.94c0,1 0.34,1.83 0.99,2.52 0.66,0.7 1.59,1.04 2.78,1.04 0.96,0 1.81,-0.24 2.56,-0.7 0.75,-0.47 1.27,-1.18 1.58,-2.12 0.1,-0.34 0.18,-0.73 0.23,-1.18 0.05,-0.44 0.08,-0.86 0.09,-1.25 0.01,-0.39 0.01,-1.03 0.01,-1.92l-2.54 0c-1.69,0 -2.79,0.09 -3.33,0.25 -0.76,0.23 -1.35,0.65 -1.75,1.25 -0.41,0.6 -0.62,1.31 -0.62,2.11zm10.87 -5.78l0 11.41 -2.63 0 0 -2.02c-1.33,1.53 -2.94,2.3 -4.82,2.3 -1.77,0 -3.23,-0.57 -4.35,-1.7 -1.13,-1.12 -1.69,-2.53 -1.69,-4.21 0,-1.26 0.35,-2.38 1.07,-3.35 0.72,-0.98 1.74,-1.66 3.04,-2.06 0.39,-0.12 0.81,-0.21 1.28,-0.27 0.47,-0.05 0.88,-0.09 1.23,-0.09 0.35,-0.01 0.88,-0.01 1.59,-0.01l2.65 0c0,-0.94 -0.02,-1.6 -0.05,-2.01 -0.03,-0.4 -0.1,-0.77 -0.23,-1.11 -0.29,-0.78 -0.78,-1.37 -1.48,-1.77 -0.68,-0.4 -1.47,-0.59 -2.36,-0.59 -1.3,0 -2.83,0.42 -4.61,1.28l-1 -2.18c2.13,-0.97 4,-1.45 5.61,-1.45 1.56,0 2.91,0.37 4.09,1.12 1.16,0.75 1.96,1.81 2.38,3.21 0.18,0.61 0.28,1.78 0.28,3.5z"/>
  <path id="_2_50" class="fil6" d="M1677.74 622.33c1.93,0 3.84,0.59 5.73,1.77l-1.24 2.07c-1.53,-1 -3.02,-1.49 -4.49,-1.49 -1.52,0 -2.72,0.61 -3.57,1.83 -0.3,0.45 -0.53,1.03 -0.68,1.75 -0.15,0.72 -0.24,1.32 -0.26,1.79 -0.03,0.48 -0.04,1.13 -0.04,1.93 0,0.91 0.01,1.61 0.03,2.1 0.01,0.48 0.09,1.06 0.24,1.74 0.13,0.67 0.34,1.25 0.62,1.71 0.41,0.68 0.94,1.18 1.6,1.49 0.65,0.32 1.34,0.48 2.06,0.48 0.8,0 1.63,-0.15 2.5,-0.46 0.87,-0.3 1.64,-0.67 2.29,-1.12l1.33 2c-0.83,0.56 -1.79,1.02 -2.89,1.38 -1.1,0.37 -2.17,0.55 -3.23,0.55 -1.32,0 -2.52,-0.3 -3.57,-0.89 -1.05,-0.59 -1.85,-1.36 -2.4,-2.32 -0.37,-0.66 -0.65,-1.37 -0.84,-2.16 -0.18,-0.79 -0.3,-1.47 -0.32,-2.06 -0.03,-0.58 -0.05,-1.39 -0.05,-2.44 0,-0.91 0.02,-1.64 0.05,-2.2 0.02,-0.55 0.14,-1.25 0.32,-2.07 0.19,-0.83 0.47,-1.56 0.84,-2.18 0.57,-0.95 1.37,-1.73 2.41,-2.32 1.03,-0.59 2.22,-0.88 3.56,-0.88z"/>
  <polygon id="_3_51" class="fil6" points="1688.06,615.35 1690.69,615.35 1690.69,633 1698.38,622.61 1701.47,622.61 1694.44,631.98 1701.64,641.57 1698.49,641.57 1692.8,633.8 1690.69,636.54 1690.69,641.57 1688.06,641.57 "/>
  <path id="_4_52" class="fil6" d="M1705.15 622.61l2.63 0 0 10.95c0,1.58 0.09,2.64 0.26,3.17 0.29,0.9 0.8,1.59 1.52,2.06 0.73,0.47 1.56,0.71 2.51,0.71 0.94,0 1.78,-0.24 2.51,-0.71 0.72,-0.47 1.23,-1.16 1.52,-2.06 0.17,-0.53 0.26,-1.59 0.26,-3.17l0 -10.95 2.63 0 0 11.12c0,0.62 -0.01,1.1 -0.02,1.43 -0.01,0.34 -0.05,0.75 -0.12,1.24 -0.07,0.49 -0.18,0.93 -0.33,1.33 -0.49,1.33 -1.3,2.35 -2.41,3.06 -1.12,0.7 -2.47,1.06 -4.04,1.06 -1.58,0 -2.92,-0.36 -4.04,-1.06 -1.12,-0.71 -1.92,-1.73 -2.41,-3.06 -0.15,-0.4 -0.26,-0.84 -0.33,-1.33 -0.07,-0.49 -0.12,-0.9 -0.13,-1.24 -0.01,-0.33 -0.01,-0.81 -0.01,-1.43l0 -11.12z"/>
  <path id="_5_53" class="fil6" d="M1732.04 622.33c1.19,0 2.27,0.25 3.24,0.77 0.97,0.51 1.73,1.19 2.28,2.03 0.58,0.9 0.96,1.87 1.13,2.9 0.18,1.04 0.27,2.39 0.27,4.06 0,1.67 -0.09,3.02 -0.27,4.05 -0.17,1.04 -0.55,2 -1.13,2.9 -0.55,0.84 -1.31,1.52 -2.28,2.03 -0.97,0.52 -2.05,0.78 -3.24,0.78 -1.95,0 -3.61,-0.77 -5,-2.3l0 9.27 -2.62 0 0 -26.21 2.62 0 0 2.01c1.39,-1.53 3.05,-2.29 5,-2.29zm3.24 4.06c-0.83,-1.14 -2.03,-1.71 -3.59,-1.71 -1.57,0 -2.76,0.57 -3.59,1.71 -0.45,0.61 -0.73,1.34 -0.86,2.21 -0.13,0.87 -0.2,2.03 -0.2,3.49 0,1.46 0.07,2.62 0.2,3.48 0.13,0.87 0.41,1.61 0.86,2.21 0.83,1.15 2.02,1.72 3.59,1.72 1.56,0 2.76,-0.57 3.59,-1.72 0.44,-0.6 0.73,-1.34 0.86,-2.21 0.13,-0.86 0.19,-2.02 0.19,-3.48 0,-1.46 -0.06,-2.62 -0.19,-3.49 -0.13,-0.87 -0.42,-1.6 -0.86,-2.21z"/>
  <polygon class="fil3" points="1887.61,1068.69 2000.14,1068.69 2000.14,1031.18 1887.61,1031.18 "/>
  <polygon class="fil4" points="1832.4,1068.69 1878.24,1068.69 1878.24,1031.18 1832.4,1031.18 "/>
  <path class="fil5" d="M1843.23 1049.94c0,-3.36 0.52,-5.85 1.55,-7.5 1.02,-1.64 2.7,-2.46 5.03,-2.46 2.33,0 4.01,0.82 5.05,2.46 1.03,1.63 1.54,4.14 1.54,7.5 0,3.36 -0.51,5.86 -1.54,7.5 -1.02,1.63 -2.71,2.45 -5.05,2.45 -2.33,0 -4.01,-0.82 -5.03,-2.45 -1.03,-1.64 -1.55,-4.14 -1.55,-7.5zm3.91 -1.89c-0.02,0.52 -0.04,1.15 -0.04,1.89 0,0.73 0.02,1.36 0.04,1.89 0.03,0.53 0.08,1.05 0.15,1.55 0.06,0.51 0.16,0.93 0.28,1.26 0.13,0.34 0.29,0.64 0.49,0.89 0.2,0.25 0.45,0.44 0.74,0.56 0.28,0.12 0.62,0.18 1.01,0.18 0.46,0 0.86,-0.09 1.18,-0.28 0.33,-0.19 0.6,-0.44 0.8,-0.76 0.2,-0.32 0.36,-0.76 0.47,-1.32 0.11,-0.55 0.18,-1.13 0.22,-1.74 0.04,-0.61 0.05,-1.35 0.05,-2.23 0,-0.74 -0.01,-1.37 -0.04,-1.89 -0.02,-0.53 -0.07,-1.05 -0.14,-1.55 -0.06,-0.51 -0.16,-0.93 -0.29,-1.26 -0.13,-0.33 -0.3,-0.63 -0.5,-0.89 -0.19,-0.26 -0.43,-0.45 -0.73,-0.57 -0.29,-0.12 -0.63,-0.18 -1.02,-0.18 -0.39,0 -0.73,0.06 -1.01,0.18 -0.29,0.12 -0.53,0.31 -0.73,0.57 -0.19,0.26 -0.36,0.56 -0.49,0.89 -0.13,0.33 -0.23,0.75 -0.29,1.26 -0.07,0.5 -0.12,1.02 -0.15,1.55z"/>
  <path id="_1_54" class="fil5" d="M1858.75 1053.9c0,-1.08 0.26,-2.02 0.79,-2.8 0.52,-0.79 1.14,-1.37 1.85,-1.76 -0.56,-0.36 -1.06,-0.88 -1.48,-1.55 -0.43,-0.68 -0.64,-1.47 -0.64,-2.35 0,-1.6 0.58,-2.91 1.72,-3.93 1.14,-1.02 2.65,-1.53 4.53,-1.53 1.87,0 3.38,0.5 4.52,1.52 1.14,1.01 1.72,2.33 1.72,3.94 0,0.88 -0.22,1.67 -0.64,2.35 -0.43,0.67 -0.93,1.19 -1.51,1.55 0.74,0.39 1.36,0.98 1.89,1.76 0.52,0.78 0.78,1.72 0.78,2.8 0,1.81 -0.63,3.25 -1.87,4.35 -1.24,1.09 -2.89,1.64 -4.93,1.64 -2.05,0 -3.68,-0.54 -4.9,-1.62 -1.22,-1.09 -1.83,-2.55 -1.83,-4.37zm3.98 -0.06c0,0.75 0.25,1.37 0.74,1.85 0.49,0.48 1.18,0.72 2.05,0.72 0.88,0 1.57,-0.24 2.05,-0.72 0.49,-0.48 0.73,-1.1 0.73,-1.85 0,-0.77 -0.25,-1.39 -0.76,-1.87 -0.51,-0.48 -1.18,-0.72 -2.02,-0.72 -0.84,0 -1.52,0.24 -2.03,0.72 -0.5,0.48 -0.76,1.11 -0.76,1.87zm0.41 -8.17c0,0.66 0.22,1.2 0.66,1.62 0.45,0.41 1.02,0.62 1.72,0.62 0.69,0 1.26,-0.21 1.7,-0.63 0.45,-0.42 0.67,-0.96 0.67,-1.61 0,-0.63 -0.21,-1.15 -0.63,-1.58 -0.42,-0.42 -1,-0.63 -1.74,-0.63 -0.75,0 -1.34,0.21 -1.75,0.63 -0.42,0.41 -0.63,0.94 -0.63,1.58z"/>
 </g>
</svg>
