<?xml version="1.0" encoding="UTF-8"?>
<!DOCTYPE svg PUBLIC "-//W3C//DTD SVG 1.1//EN" "http://www.w3.org/Graphics/SVG/1.1/DTD/svg11.dtd">
<!-- Creator: CorelDRAW 2021 (64 Bit) -->
<svg xmlns="http://www.w3.org/2000/svg" xml:space="preserve" width="2500px" height="1406px" version="1.1" style="shape-rendering:geometricPrecision; text-rendering:geometricPrecision; image-rendering:optimizeQuality; fill-rule:evenodd; clip-rule:evenodd"
viewBox="0 0 2500.17 1406.23"
 xmlns:xlink="http://www.w3.org/1999/xlink"
 xmlns:xodm="http://www.corel.com/coreldraw/odm/2003">
 <defs>
  <style type="text/css">
   <![CDATA[
    .str0 {stroke:#373435;stroke-width:1.43;stroke-miterlimit:22.9256}
    .fil2 {fill:none}
    .fil0 {fill:#00CC83}
    .fil5 {fill:#FEFEFE;fill-rule:nonzero}
    .fil11 {fill:#D2D3D5;fill-rule:nonzero}
    .fil7 {fill:#373435;fill-rule:nonzero}
    .fil6 {fill:#373435;fill-rule:nonzero}
    .fil8 {fill:#953735;fill-rule:nonzero}
    .fil10 {fill:#953735;fill-rule:nonzero}
    .fil9 {fill:#00CC83;fill-rule:nonzero}
    .fil12 {fill:#00CC83;fill-rule:nonzero}
    .fil4 {fill:#7F7F7F;fill-rule:nonzero}
    .fil3 {fill:#B0B0B0;fill-rule:nonzero}
    .fil13 {fill:#CACACA;fill-rule:nonzero}
    .fil1 {fill:#FEFEFE}
   ]]>
  </style>
    <clipPath id="id0">
     <path d="M0 0l2499.93 0 0 1406.23 -2499.93 0 0 -1406.23z"/>
    </clipPath>
     <mask id="id1">
  <linearGradient id="id2" gradientUnits="userSpaceOnUse" x1="1376.1" y1="-405.26" x2="1376.1" y2="1286.02">
   <stop offset="0" style="stop-opacity:1; stop-color:white"/>
   <stop offset="1" style="stop-opacity:0; stop-color:white"/>
  </linearGradient>
      <rect style="fill:url(#id2)" width="2499.93" height="1406.23"/>
     </mask>
    <clipPath id="id3">
     <path d="M0 0l2499.93 0 0 1406.23 -2499.93 0 0 -1406.23z"/>
    </clipPath>
 </defs>
 <g id="Camada_x0020_1">
  <metadata id="CorelCorpID_0Corel-Layer"/>
  <g id="_2386399486096">
   <g style="clip-path:url(#id0)">
    <polygon class="fil0" style="mask:url(#id1)" points="0,0 2499.93,0 2499.93,1406.23 0,1406.23 "/>
   </g>
   <g style="clip-path:url(#id3)">
    <g>
     <polygon id="_1" class="fil1 str0" points="-258.27,-60.04 2578.21,-60.04 2578.21,1430.45 -258.27,1430.45 "/>
    </g>
   </g>
   <polygon class="fil2" points="0,0 2499.93,0 2499.93,1406.23 0,1406.23 "/>
   <polygon class="fil3" points="2359.52,1335.86 2500.17,1335.86 2500.17,1288.98 2359.52,1288.98 "/>
   <polygon class="fil4" points="2290.5,1335.86 2347.8,1335.86 2347.8,1288.98 2290.5,1288.98 "/>
   <path class="fil5" d="M2301.46 1312.42c0,-4.19 0.64,-7.31 1.92,-9.37 1.29,-2.05 3.39,-3.08 6.29,-3.08 2.92,0 5.02,1.02 6.31,3.08 1.29,2.04 1.94,5.17 1.94,9.37 0,4.21 -0.64,7.33 -1.93,9.38 -1.28,2.04 -3.39,3.07 -6.32,3.07 -2.9,0 -5,-1.03 -6.29,-3.07 -1.28,-2.05 -1.92,-5.17 -1.92,-9.38zm4.88 -2.36c-0.03,0.66 -0.05,1.44 -0.05,2.36 0,0.91 0.02,1.7 0.05,2.37 0.04,0.66 0.09,1.31 0.18,1.94 0.08,0.63 0.21,1.16 0.36,1.58 0.15,0.41 0.36,0.78 0.61,1.1 0.25,0.32 0.56,0.55 0.92,0.7 0.36,0.16 0.78,0.23 1.26,0.23 0.58,0 1.08,-0.12 1.49,-0.35 0.41,-0.24 0.74,-0.55 0.99,-0.96 0.25,-0.4 0.44,-0.95 0.59,-1.64 0.14,-0.69 0.23,-1.42 0.27,-2.18 0.05,-0.76 0.07,-1.69 0.07,-2.79 0,-0.92 -0.02,-1.7 -0.05,-2.36 -0.03,-0.66 -0.09,-1.3 -0.18,-1.94 -0.08,-0.63 -0.2,-1.15 -0.36,-1.57 -0.17,-0.42 -0.38,-0.79 -0.62,-1.11 -0.25,-0.33 -0.55,-0.57 -0.92,-0.71 -0.36,-0.16 -0.79,-0.23 -1.28,-0.23 -0.48,0 -0.9,0.07 -1.26,0.23 -0.36,0.14 -0.66,0.38 -0.91,0.71 -0.24,0.32 -0.45,0.69 -0.61,1.11 -0.16,0.42 -0.29,0.94 -0.37,1.57 -0.09,0.64 -0.14,1.28 -0.18,1.94z"/>
   <polygon id="_1_0" class="fil5" points="2320.47,1304.7 2320.47,1300.42 2336.31,1300.42 2336.31,1304.13 2328.46,1324.42 2323.25,1324.42 2331.2,1304.7 "/>
  </g>
  <path class="fil6" d="M202.77 292.21c0,-7.27 0,-11.55 1.85,-14.61 1.71,-2.86 5.06,-4.57 9.05,-4.57 4,0 7.35,1.71 9.06,4.57 1.85,3.06 1.85,7.34 1.85,14.61 0,7.27 0,11.55 -1.85,14.61 -1.71,2.85 -5.06,4.56 -9.06,4.56 -3.99,0 -7.34,-1.71 -9.05,-4.56 -1.85,-3.06 -1.85,-7.34 -1.85,-14.61zm-5.28 0c0,8.41 0,12.9 2.57,17.11 2.64,4.34 7.63,7.05 13.61,7.05 5.99,0 10.98,-2.71 13.62,-7.05 2.57,-4.21 2.57,-8.7 2.57,-17.11 0,-8.41 0,-12.9 -2.57,-17.11 -2.64,-4.35 -7.63,-7.06 -13.62,-7.06 -5.98,0 -10.97,2.71 -13.61,7.06 -2.57,4.21 -2.57,8.7 -2.57,17.11z"/>
  <path id="_1_1" class="fil6" d="M268.85 286.15c2.56,0 4.99,0.93 6.34,2.57 1.71,1.99 1.71,4.99 1.71,8.76 0,5.28 0,9.2 -2.14,11.69 -1.28,1.5 -3.35,2.5 -6.06,2.5 -2.7,0 -4.77,-1 -6.05,-2.5 -2.14,-2.49 -2.14,-6.41 -2.14,-10.4 0,-4.07 0,-7.7 2.28,-10.27 1.28,-1.42 3.42,-2.35 6.06,-2.35zm0 -4.71c-4.28,0 -7.7,1.64 -9.91,4.07 -3.42,3.85 -3.42,8.84 -3.42,13.26 0,4.84 0,9.55 3.2,13.4 2.07,2.49 5.42,4.2 9.63,4.2 3.49,0 6.63,-1.64 8.55,-4.35l0 16.97 4.99 0 0 -30.79c0,-5.78 0,-9.13 -2.85,-12.48 -2.78,-3.28 -6.91,-4.28 -10.19,-4.28z"/>
  <path id="_2" class="fil6" d="M289.73 281.87l0 18.25c0,4.99 0,9.12 3.35,12.62 1.71,1.78 4.78,3.63 9.13,3.63 4.34,0 7.41,-1.85 9.12,-3.63 3.35,-3.5 3.35,-7.63 3.35,-12.62l0 -18.25 -4.99 0 0 18.25c0,4.42 0,7.41 -2.07,9.48 -1.21,1.21 -3.06,2.07 -5.41,2.07 -2.36,0 -4.21,-0.86 -5.42,-2.07 -2.07,-2.07 -2.07,-5.06 -2.07,-9.48l0 -18.25 -4.99 0z"/>
  <path id="_3" class="fil6" d="M328.51 308.67c-1.64,-2.21 -1.64,-6.41 -1.64,-8.26l6.56 0c5.06,0 8.12,0 11.12,-2.14 1.99,-1.43 3.56,-3.85 3.56,-6.99 -0.07,-2.78 -1.42,-5.42 -3.56,-7.2 -2.14,-1.71 -4.99,-2.64 -8.56,-2.64 -5.06,0 -9.34,1.86 -11.62,5.07 -2.56,3.56 -2.56,6.84 -2.56,12.4 0,4.63 0,8.91 2.71,12.62 2.28,3.06 6.2,4.84 11.12,4.84 3.7,0 7.41,-0.78 10.76,-2.49l-2.07 -4.28c-2.56,1.36 -5.63,2.07 -8.69,2.07 -3.43,0 -5.71,-1.07 -7.13,-3zm14.61 -17.39c0,1.64 -0.78,2.85 -1.71,3.57 -1.5,1.14 -3.49,1.14 -7.98,1.14l-6.56 0c0,-1.43 0,-4.99 1.78,-7.06 1.57,-1.85 4.14,-2.78 7.34,-2.78 2.21,0 4.07,0.5 5.28,1.5 1.07,0.85 1.78,2.28 1.85,3.63z"/>
  <path id="_4" class="fil6" d="M396.44 301.69l0 -5.28c0,-3.77 0,-7.98 -2.85,-11.19 -2.14,-2.42 -5.35,-3.78 -9.62,-3.78 -3.85,0 -7.49,0.86 -10.84,2.07l1.57 4.49c2.99,-1.14 6.13,-1.85 9.27,-1.85 2.7,0 4.56,0.71 5.77,2.07 1.71,1.92 1.71,4.77 1.71,6.98l-5.85 0c-2.78,0 -6.77,0 -10.12,2.43 -2.28,1.64 -4.2,4.42 -4.2,8.19 0,3.71 1.92,6.56 4.27,8.2 2.29,1.64 5.21,2.35 8.63,2.35 4.28,0 7.63,-1.21 9.76,-3.7 2.5,-2.93 2.5,-6.21 2.5,-10.98zm-4.99 0c0,4.2 0,6.41 -1.35,7.98 -1.22,1.43 -3.28,2 -5.92,2 -2.28,0 -4.28,-0.43 -5.63,-1.36 -1.29,-0.92 -2.28,-2.49 -2.28,-4.49 0,-2.21 1.07,-3.85 2.35,-4.77 2,-1.43 4.56,-1.43 6.98,-1.43l5.85 0 0 2.07z"/>
  <path id="_5" class="fil6" d="M424.6 283.8c-3.21,-1.5 -6.78,-2.36 -10.41,-2.36 -2.92,0 -5.42,0.65 -7.49,2.07 -2.06,1.43 -3.85,3.92 -3.85,7.2 0,3.07 1.64,5.63 3.78,7.27 2.14,1.64 4.71,2.28 6.99,2.78 2.28,0.5 4.06,0.93 5.63,2.07 1.14,0.85 2,2.21 2,3.85 0,1.21 -0.5,2.64 -1.86,3.63 -1.35,1 -3.13,1.36 -5.2,1.36 -3.28,0 -6.56,-0.71 -9.48,-2.07l-2 4.28c3.64,1.71 7.63,2.49 11.48,2.49 3.28,0 5.99,-0.71 8.2,-2.28 2.21,-1.57 3.84,-4.2 3.84,-7.41 0,-3.57 -1.99,-6.2 -4.2,-7.77 -2,-1.43 -4.35,-2.07 -6.92,-2.64 -2.56,-0.57 -4.06,-0.93 -5.48,-2.07 -1,-0.78 -1.79,-1.99 -1.79,-3.49 0,-1.57 0.86,-2.85 2.07,-3.56 1.21,-0.72 2.5,-1 4.28,-1 2.85,0 5.84,0.71 8.55,2l1.86 -4.35z"/>
  <path id="_6" class="fil6" d="M461.73 268.04c-3.99,0 -6.56,1.72 -8.19,3.92 -2,2.71 -2,5.78 -2,10.06l0 33.93 4.99 0 0 -29.66 8.55 0 0 -4.42 -8.55 0c0,-3.63 0,-5.7 1.07,-7.2 0.93,-1.28 2.28,-1.92 4.13,-1.92 1.21,0 2.64,0.28 4.35,0.71l1.14 -4.56c-1.71,-0.43 -3.49,-0.86 -5.49,-0.86z"/>
  <path id="_7" class="fil6" d="M476.27 308.67c-1.64,-2.21 -1.64,-6.41 -1.64,-8.26l6.56 0c5.06,0 8.13,0 11.12,-2.14 2,-1.43 3.57,-3.85 3.57,-6.99 -0.08,-2.78 -1.43,-5.42 -3.57,-7.2 -2.14,-1.71 -4.99,-2.64 -8.55,-2.64 -5.06,0 -9.34,1.86 -11.62,5.07 -2.57,3.56 -2.57,6.84 -2.57,12.4 0,4.63 0,8.91 2.71,12.62 2.28,3.06 6.2,4.84 11.12,4.84 3.71,0 7.42,-0.78 10.77,-2.49l-2.07 -4.28c-2.57,1.36 -5.63,2.07 -8.7,2.07 -3.42,0 -5.7,-1.07 -7.13,-3zm14.62 -17.39c0,1.64 -0.79,2.85 -1.71,3.57 -1.5,1.14 -3.5,1.14 -7.99,1.14l-6.56 0c0,-1.43 0,-4.99 1.79,-7.06 1.56,-1.85 4.13,-2.78 7.34,-2.78 2.21,0 4.06,0.5 5.27,1.5 1.07,0.85 1.79,2.28 1.86,3.63z"/>
  <path id="_8" class="fil6" d="M515.69 281.44c-3.28,0 -7.41,1 -10.19,4.28 -2.85,3.35 -2.85,6.7 -2.85,12.48l0 17.75 4.99 0 0 -17.75c0,-4.49 0,-7.49 1.71,-9.48 1.35,-1.64 3.78,-2.57 6.34,-2.57 1.21,0 2.35,0.21 3.35,0.57l1.5 -4.49c-1.43,-0.5 -3.07,-0.79 -4.85,-0.79z"/>
  <path id="_9" class="fil6" d="M538.36 281.44c-3.28,0 -7.41,1 -10.19,4.28 -2.85,3.35 -2.85,6.7 -2.85,12.48l0 17.75 4.98 0 0 -17.75c0,-4.49 0,-7.49 1.72,-9.48 1.35,-1.64 3.77,-2.57 6.34,-2.57 1.21,0 2.35,0.21 3.35,0.57l1.5 -4.49c-1.43,-0.5 -3.07,-0.79 -4.85,-0.79z"/>
  <path id="_10" class="fil6" d="M571.72 301.69l0 -5.28c0,-3.77 0,-7.98 -2.85,-11.19 -2.14,-2.42 -5.35,-3.78 -9.63,-3.78 -3.84,0 -7.48,0.86 -10.83,2.07l1.57 4.49c2.99,-1.14 6.13,-1.85 9.26,-1.85 2.71,0 4.57,0.71 5.78,2.07 1.71,1.92 1.71,4.77 1.71,6.98l-5.85 0c-2.78,0 -6.77,0 -10.12,2.43 -2.28,1.64 -4.2,4.42 -4.2,8.19 0,3.71 1.92,6.56 4.27,8.2 2.28,1.64 5.21,2.35 8.63,2.35 4.28,0 7.63,-1.21 9.76,-3.7 2.5,-2.93 2.5,-6.21 2.5,-10.98zm-4.99 0c0,4.2 0,6.41 -1.36,7.98 -1.21,1.43 -3.27,2 -5.91,2 -2.28,0 -4.28,-0.43 -5.63,-1.36 -1.29,-0.92 -2.28,-2.49 -2.28,-4.49 0,-2.21 1.07,-3.85 2.35,-4.77 1.99,-1.43 4.56,-1.43 6.98,-1.43l5.85 0 0 2.07z"/>
  <path id="_11" class="fil6" d="M590.96 281.44c-3.35,0 -6.27,1.22 -8.19,3.07 -3.57,3.42 -3.57,7.84 -3.57,13.19l0 18.25 4.99 0 0 -18.25c0,-4.71 0,-7.92 2.14,-9.91 1.07,-1 2.71,-1.64 4.63,-1.64 1.93,0 3.57,0.64 4.64,1.64 2.14,1.99 2.14,5.2 2.14,9.91l0 18.25 4.99 0 0 -18.25c0,-4.71 0,-7.92 2.13,-9.91 1.07,-1 2.71,-1.64 4.64,-1.64 1.92,0 3.56,0.64 4.63,1.64 2.14,1.99 2.14,5.2 2.14,9.91l0 18.25 4.99 0 0 -18.25c0,-5.35 0,-9.77 -3.57,-13.19 -1.92,-1.85 -4.84,-3.07 -8.19,-3.07 -4.07,0 -7.34,1.79 -9.27,4.99 -1.92,-3.2 -5.2,-4.99 -9.27,-4.99z"/>
  <path id="_12" class="fil6" d="M635.09 308.67c-1.64,-2.21 -1.64,-6.41 -1.64,-8.26l6.56 0c5.06,0 8.12,0 11.12,-2.14 1.99,-1.43 3.56,-3.85 3.56,-6.99 -0.07,-2.78 -1.43,-5.42 -3.56,-7.2 -2.14,-1.71 -4.99,-2.64 -8.56,-2.64 -5.06,0 -9.34,1.86 -11.62,5.07 -2.56,3.56 -2.56,6.84 -2.56,12.4 0,4.63 0,8.91 2.71,12.62 2.28,3.06 6.2,4.84 11.12,4.84 3.7,0 7.41,-0.78 10.76,-2.49l-2.07 -4.28c-2.56,1.36 -5.63,2.07 -8.69,2.07 -3.43,0 -5.71,-1.07 -7.13,-3zm14.61 -17.39c0,1.64 -0.78,2.85 -1.71,3.57 -1.5,1.14 -3.49,1.14 -7.98,1.14l-6.56 0c0,-1.43 0,-4.99 1.78,-7.06 1.57,-1.85 4.13,-2.78 7.34,-2.78 2.21,0 4.07,0.5 5.28,1.5 1.07,0.85 1.78,2.28 1.85,3.63z"/>
  <path id="_13" class="fil6" d="M673.94 281.44c-4.35,0 -7.42,1.86 -9.13,3.64 -3.35,3.49 -3.35,7.63 -3.35,12.62l0 18.25 4.99 0 0 -18.25c0,-4.42 0,-7.42 2.07,-9.48 1.21,-1.22 3.06,-2.07 5.42,-2.07 2.35,0 4.2,0.85 5.41,2.07 2.07,2.06 2.07,5.06 2.07,9.48l0 18.25 4.99 0 0 -18.25c0,-4.99 0,-9.13 -3.35,-12.62 -1.71,-1.78 -4.78,-3.64 -9.12,-3.64z"/>
  <path id="_14" class="fil6" d="M699.6 303.83l0 -17.54 8.55 0 0 -4.42 -8.55 0 0 -8.05 -4.99 0 0 30.01c0,4.06 0,6.77 1.99,9.26 1.57,2 4.21,3.28 7.34,3.28 2.57,0 4.85,-0.85 6.78,-1.85l-2.14 -4.21c-1.64,0.86 -3.28,1.36 -4.64,1.36 -1.56,0 -2.63,-0.57 -3.35,-1.43 -0.99,-1.28 -0.99,-2.56 -0.99,-6.41z"/>
  <path id="_15" class="fil6" d="M740.37 301.69l0 -5.28c0,-3.77 0,-7.98 -2.85,-11.19 -2.14,-2.42 -5.35,-3.78 -9.63,-3.78 -3.84,0 -7.48,0.86 -10.83,2.07l1.57 4.49c2.99,-1.14 6.13,-1.85 9.26,-1.85 2.71,0 4.57,0.71 5.78,2.07 1.71,1.92 1.71,4.77 1.71,6.98l-5.85 0c-2.78,0 -6.77,0 -10.12,2.43 -2.28,1.64 -4.2,4.42 -4.2,8.19 0,3.71 1.92,6.56 4.27,8.2 2.28,1.64 5.21,2.35 8.63,2.35 4.28,0 7.63,-1.21 9.76,-3.7 2.5,-2.93 2.5,-6.21 2.5,-10.98zm-4.99 0c0,4.2 0,6.41 -1.36,7.98 -1.21,1.43 -3.27,2 -5.91,2 -2.28,0 -4.28,-0.43 -5.63,-1.36 -1.29,-0.92 -2.28,-2.49 -2.28,-4.49 0,-2.21 1.07,-3.85 2.35,-4.77 1.99,-1.43 4.56,-1.43 6.98,-1.43l5.85 0 0 2.07z"/>
  <path id="_16" class="fil6" d="M768.52 283.8c-3.2,-1.5 -6.77,-2.36 -10.4,-2.36 -2.92,0 -5.42,0.65 -7.49,2.07 -2.06,1.43 -3.85,3.92 -3.85,7.2 0,3.07 1.64,5.63 3.78,7.27 2.14,1.64 4.71,2.28 6.99,2.78 2.28,0.5 4.06,0.93 5.63,2.07 1.14,0.85 1.99,2.21 1.99,3.85 0,1.21 -0.49,2.64 -1.85,3.63 -1.35,1 -3.14,1.36 -5.2,1.36 -3.28,0 -6.56,-0.71 -9.48,-2.07l-2 4.28c3.64,1.71 7.63,2.49 11.48,2.49 3.28,0 5.99,-0.71 8.19,-2.28 2.21,-1.57 3.85,-4.2 3.85,-7.41 0,-3.57 -1.99,-6.2 -4.2,-7.77 -2,-1.43 -4.35,-2.07 -6.92,-2.64 -2.56,-0.57 -4.06,-0.93 -5.48,-2.07 -1,-0.78 -1.79,-1.99 -1.79,-3.49 0,-1.57 0.86,-2.85 2.07,-3.56 1.21,-0.72 2.5,-1 4.28,-1 2.85,0 5.84,0.71 8.55,2l1.85 -4.35z"/>
  <path id="_17" class="fil6" d="M806.87 281.44c-4.2,0 -7.55,1.72 -9.62,4.21 -3.21,3.85 -3.21,8.55 -3.21,13.4 0,4.35 0,9.34 3.99,13.4 2.21,2.21 5.64,3.92 9.91,3.92 4.49,0 8.06,-1.92 10.05,-4.7 2.43,-3.35 2.43,-6.92 2.43,-12.26l0 -31.01 -4.99 0 0 17.39c-1.93,-2.71 -5.06,-4.35 -8.56,-4.35zm8.56 18.89c0,3.78 0,6.85 -1.71,8.91 -1.43,1.72 -3.57,2.43 -5.78,2.43 -2.42,0 -4.84,-0.86 -6.41,-2.57 -2.5,-2.71 -2.5,-6.41 -2.5,-10.05 0,-3.99 0,-7.91 2.14,-10.41 1.28,-1.49 3.35,-2.49 6.06,-2.49 2.71,0 4.78,1 6.06,2.49 2.14,2.5 2.14,6.42 2.14,11.69z"/>
  <path id="_18" class="fil6" d="M834.25 308.67c-1.64,-2.21 -1.64,-6.41 -1.64,-8.26l6.55 0c5.06,0 8.13,0 11.12,-2.14 2,-1.43 3.57,-3.85 3.57,-6.99 -0.07,-2.78 -1.43,-5.42 -3.57,-7.2 -2.13,-1.71 -4.99,-2.64 -8.55,-2.64 -5.06,0 -9.34,1.86 -11.62,5.07 -2.56,3.56 -2.56,6.84 -2.56,12.4 0,4.63 0,8.91 2.7,12.62 2.28,3.06 6.2,4.84 11.12,4.84 3.71,0 7.42,-0.78 10.77,-2.49l-2.07 -4.28c-2.57,1.36 -5.63,2.07 -8.7,2.07 -3.42,0 -5.7,-1.07 -7.12,-3zm14.61 -17.39c0,1.64 -0.79,2.85 -1.71,3.57 -1.5,1.14 -3.5,1.14 -7.99,1.14l-6.55 0c0,-1.43 0,-4.99 1.78,-7.06 1.57,-1.85 4.13,-2.78 7.34,-2.78 2.21,0 4.06,0.5 5.27,1.5 1.07,0.85 1.79,2.28 1.86,3.63z"/>
  <path id="_19" class="fil6" d="M891.06 286.15c2.56,0 4.99,0.93 6.34,2.57 1.71,1.99 1.71,4.99 1.71,8.76 0,5.28 0,9.2 -2.14,11.69 -1.28,1.5 -3.35,2.5 -6.06,2.5 -2.7,0 -4.77,-1 -6.05,-2.5 -2.14,-2.49 -2.14,-6.41 -2.14,-10.4 0,-4.07 0,-7.7 2.28,-10.27 1.28,-1.42 3.42,-2.35 6.06,-2.35zm0 -4.71c-4.28,0 -7.7,1.64 -9.91,4.07 -3.42,3.85 -3.42,8.84 -3.42,13.26 0,4.84 0,9.55 3.2,13.4 2.07,2.49 5.42,4.2 9.63,4.2 3.49,0 6.63,-1.64 8.55,-4.35l0 0.72c0,4.35 0,6.91 -1.71,9.05 -1.35,1.71 -3.71,2.92 -7.2,2.92 -2.99,0 -5.99,-0.85 -8.34,-2.14l-2.07 4.28c3.14,1.71 6.92,2.57 10.41,2.57 4.71,0 8.34,-1.64 10.62,-4.14 3.28,-3.56 3.28,-7.48 3.28,-12.54l0 -14.54c0,-5.78 0,-9.13 -2.85,-12.48 -2.78,-3.28 -6.91,-4.28 -10.19,-4.28z"/>
  <path id="_20" class="fil6" d="M917.93 308.67c-1.64,-2.21 -1.64,-6.41 -1.64,-8.26l6.56 0c5.06,0 8.12,0 11.12,-2.14 1.99,-1.43 3.56,-3.85 3.56,-6.99 -0.07,-2.78 -1.42,-5.42 -3.56,-7.2 -2.14,-1.71 -4.99,-2.64 -8.56,-2.64 -5.06,0 -9.33,1.86 -11.62,5.07 -2.56,3.56 -2.56,6.84 -2.56,12.4 0,4.63 0,8.91 2.71,12.62 2.28,3.06 6.2,4.84 11.12,4.84 3.7,0 7.41,-0.78 10.76,-2.49l-2.07 -4.28c-2.56,1.36 -5.63,2.07 -8.69,2.07 -3.42,0 -5.71,-1.07 -7.13,-3zm14.61 -17.39c0,1.64 -0.78,2.85 -1.71,3.57 -1.5,1.14 -3.49,1.14 -7.98,1.14l-6.56 0c0,-1.43 0,-4.99 1.78,-7.06 1.57,-1.85 4.14,-2.78 7.34,-2.78 2.21,0 4.07,0.5 5.28,1.5 1.07,0.85 1.78,2.28 1.85,3.63z"/>
  <path id="_21" class="fil6" d="M964.97 283.8c-3.2,-1.5 -6.77,-2.36 -10.4,-2.36 -2.93,0 -5.42,0.65 -7.49,2.07 -2.06,1.43 -3.85,3.92 -3.85,7.2 0,3.07 1.64,5.63 3.78,7.27 2.14,1.64 4.71,2.28 6.99,2.78 2.28,0.5 4.06,0.93 5.63,2.07 1.14,0.85 1.99,2.21 1.99,3.85 0,1.21 -0.49,2.64 -1.85,3.63 -1.35,1 -3.14,1.36 -5.2,1.36 -3.28,0 -6.56,-0.71 -9.48,-2.07l-2 4.28c3.64,1.71 7.63,2.49 11.48,2.49 3.28,0 5.99,-0.71 8.19,-2.28 2.21,-1.57 3.85,-4.2 3.85,-7.41 0,-3.57 -1.99,-6.2 -4.2,-7.77 -2,-1.43 -4.35,-2.07 -6.92,-2.64 -2.56,-0.57 -4.06,-0.93 -5.48,-2.07 -1,-0.78 -1.79,-1.99 -1.79,-3.49 0,-1.57 0.86,-2.85 2.07,-3.56 1.21,-0.72 2.5,-1 4.28,-1 2.85,0 5.84,0.71 8.55,2l1.85 -4.35z"/>
  <path id="_22" class="fil6" d="M978.73 303.83l0 -17.54 8.56 0 0 -4.42 -8.56 0 0 -8.05 -4.99 0 0 30.01c0,4.06 0,6.77 2,9.26 1.57,2 4.2,3.28 7.34,3.28 2.57,0 4.85,-0.85 6.77,-1.85l-2.14 -4.21c-1.64,0.86 -3.28,1.36 -4.63,1.36 -1.57,0 -2.64,-0.57 -3.35,-1.43 -1,-1.28 -1,-2.56 -1,-6.41z"/>
  <path id="_23" class="fil6" d="M1011.66 276.74c3.5,0 6.28,-2.57 6.28,-5.99l-4 0c0,1.36 -0.99,2.28 -2.28,2.28 -1.28,0 -2.28,-0.64 -3.35,-1.14 -1.35,-0.71 -3.06,-1.56 -5.2,-1.56 -3.49,0 -6.27,2.56 -6.27,5.98l3.99 0c0,-1.35 1,-2.28 2.28,-2.28 1.28,0 2.28,0.64 3.35,1.14 1.35,0.72 3.14,1.57 5.2,1.57zm7.84 24.95l0 -5.28c0,-3.77 0,-7.98 -2.85,-11.19 -2.14,-2.42 -5.34,-3.78 -9.62,-3.78 -3.85,0 -7.48,0.86 -10.83,2.07l1.56 4.49c3,-1.14 6.13,-1.85 9.27,-1.85 2.71,0 4.56,0.71 5.77,2.07 1.71,1.92 1.71,4.77 1.71,6.98l-5.84 0c-2.78,0 -6.77,0 -10.12,2.43 -2.28,1.64 -4.21,4.42 -4.21,8.19 0,3.71 1.93,6.56 4.28,8.2 2.28,1.64 5.2,2.35 8.62,2.35 4.28,0 7.63,-1.21 9.77,-3.7 2.49,-2.93 2.49,-6.21 2.49,-10.98zm-4.99 0c0,4.2 0,6.41 -1.35,7.98 -1.21,1.43 -3.28,2 -5.92,2 -2.28,0 -4.27,-0.43 -5.63,-1.36 -1.28,-0.92 -2.28,-2.49 -2.28,-4.49 0,-2.21 1.07,-3.85 2.35,-4.77 2,-1.43 4.57,-1.43 6.99,-1.43l5.84 0 0 2.07z"/>
  <path id="_24" class="fil6" d="M1039.82 286.15c3.14,0 5.56,1.28 6.98,3.42 1.57,2.35 1.57,5.7 1.57,9.34 0,3.63 0,6.98 -1.57,9.34 -1.42,2.14 -3.84,3.42 -6.98,3.42 -3.14,0 -5.56,-1.28 -6.99,-3.42 -1.56,-2.36 -1.56,-5.71 -1.56,-9.34 0,-3.64 0,-6.99 1.56,-9.34 1.43,-2.14 3.85,-3.42 6.99,-3.42zm0 -4.71c-5.06,0 -9.2,2.29 -11.48,6.06 -2.06,3.43 -2.06,7.35 -2.06,11.41 0,4.06 0,7.98 2.06,11.4 2.28,3.78 6.42,6.06 11.48,6.06 5.06,0 9.19,-2.28 11.47,-6.06 2.07,-3.42 2.07,-7.34 2.07,-11.4 0,-4.06 0,-7.98 -2.07,-11.41 -2.28,-3.77 -6.41,-6.06 -11.47,-6.06z"/>
  <path id="_25" class="fil6" d="M1090.43 281.44c-4.21,0 -7.56,1.72 -9.62,4.21 -3.21,3.85 -3.21,8.55 -3.21,13.4 0,4.35 0,9.34 3.99,13.4 2.21,2.21 5.63,3.92 9.91,3.92 4.49,0 8.05,-1.92 10.05,-4.7 2.42,-3.35 2.42,-6.92 2.42,-12.26l0 -31.01 -4.99 0 0 17.39c-1.92,-2.71 -5.06,-4.35 -8.55,-4.35zm8.55 18.89c0,3.78 0,6.85 -1.71,8.91 -1.42,1.72 -3.56,2.43 -5.77,2.43 -2.43,0 -4.85,-0.86 -6.42,-2.57 -2.49,-2.71 -2.49,-6.41 -2.49,-10.05 0,-3.99 0,-7.91 2.14,-10.41 1.28,-1.49 3.35,-2.49 6.05,-2.49 2.71,0 4.78,1 6.06,2.49 2.14,2.5 2.14,6.42 2.14,11.69z"/>
  <path id="_26" class="fil6" d="M1117.8 308.67c-1.64,-2.21 -1.64,-6.41 -1.64,-8.26l6.56 0c5.06,0 8.12,0 11.12,-2.14 1.99,-1.43 3.56,-3.85 3.56,-6.99 -0.07,-2.78 -1.42,-5.42 -3.56,-7.2 -2.14,-1.71 -4.99,-2.64 -8.56,-2.64 -5.06,0 -9.33,1.86 -11.61,5.07 -2.57,3.56 -2.57,6.84 -2.57,12.4 0,4.63 0,8.91 2.71,12.62 2.28,3.06 6.2,4.84 11.12,4.84 3.7,0 7.41,-0.78 10.76,-2.49l-2.07 -4.28c-2.56,1.36 -5.63,2.07 -8.69,2.07 -3.42,0 -5.71,-1.07 -7.13,-3zm14.61 -17.39c0,1.64 -0.78,2.85 -1.71,3.57 -1.5,1.14 -3.49,1.14 -7.98,1.14l-6.56 0c0,-1.43 0,-4.99 1.78,-7.06 1.57,-1.85 4.14,-2.78 7.34,-2.78 2.21,0 4.07,0.5 5.28,1.5 1.07,0.85 1.78,2.28 1.85,3.63z"/>
  <path id="_27" class="fil6" d="M1174.11 281.44c-4.2,0 -7.55,1.72 -9.62,4.21 -3.21,3.85 -3.21,8.55 -3.21,13.4 0,4.35 0,9.34 3.99,13.4 2.21,2.21 5.63,3.92 9.91,3.92 4.49,0 8.06,-1.92 10.05,-4.7 2.43,-3.35 2.43,-6.92 2.43,-12.26l0 -31.01 -4.99 0 0 17.39c-1.93,-2.71 -5.07,-4.35 -8.56,-4.35zm8.56 18.89c0,3.78 0,6.85 -1.72,8.91 -1.42,1.72 -3.56,2.43 -5.77,2.43 -2.42,0 -4.85,-0.86 -6.41,-2.57 -2.5,-2.71 -2.5,-6.41 -2.5,-10.05 0,-3.99 0,-7.91 2.14,-10.41 1.28,-1.49 3.35,-2.49 6.06,-2.49 2.71,0 4.77,1 6.06,2.49 2.14,2.5 2.14,6.42 2.14,11.69z"/>
  <path id="_28" class="fil6" d="M1208.33 286.15c3.13,0 5.56,1.28 6.98,3.42 1.57,2.35 1.57,5.7 1.57,9.34 0,3.63 0,6.98 -1.57,9.34 -1.42,2.14 -3.85,3.42 -6.98,3.42 -3.14,0 -5.56,-1.28 -6.99,-3.42 -1.57,-2.36 -1.57,-5.71 -1.57,-9.34 0,-3.64 0,-6.99 1.57,-9.34 1.43,-2.14 3.85,-3.42 6.99,-3.42zm0 -4.71c-5.07,0 -9.2,2.29 -11.48,6.06 -2.07,3.43 -2.07,7.35 -2.07,11.41 0,4.06 0,7.98 2.07,11.4 2.28,3.78 6.41,6.06 11.48,6.06 5.06,0 9.19,-2.28 11.47,-6.06 2.07,-3.42 2.07,-7.34 2.07,-11.4 0,-4.06 0,-7.98 -2.07,-11.41 -2.28,-3.77 -6.41,-6.06 -11.47,-6.06z"/>
  <path id="_29" class="fil6" d="M1249.53 309.32c-2.29,1.56 -4.99,2.35 -7.7,2.35 -2.78,0 -4.92,-0.93 -6.28,-2.5 -2.28,-2.63 -2.28,-6.91 -2.28,-10.55 0,-3.13 0,-7.34 2.21,-9.9 1.71,-2 4.14,-2.57 6.35,-2.57 2.56,0 5.2,0.78 7.34,2.14l2.42 -4.07c-2.92,-1.85 -6.34,-2.78 -9.76,-2.78 -4.56,0 -7.99,1.72 -10.2,4.28 -3.35,3.85 -3.35,9.2 -3.35,12.9 0,4.21 0,9.7 3.43,13.55 2.21,2.49 5.56,4.2 10.12,4.2 3.63,0 7.27,-1.07 10.26,-3.06l-2.56 -3.99z"/>
  <path id="_30" class="fil6" d="M1258.86 281.87l0 18.25c0,4.99 0,9.12 3.35,12.62 1.71,1.78 4.78,3.63 9.13,3.63 4.35,0 7.41,-1.85 9.12,-3.63 3.35,-3.5 3.35,-7.63 3.35,-12.62l0 -18.25 -4.99 0 0 18.25c0,4.42 0,7.41 -2.07,9.48 -1.21,1.21 -3.06,2.07 -5.41,2.07 -2.36,0 -4.21,-0.86 -5.42,-2.07 -2.07,-2.07 -2.07,-5.06 -2.07,-9.48l0 -18.25 -4.99 0z"/>
  <path id="_31" class="fil6" d="M1303.41 281.44c-3.35,0 -6.27,1.22 -8.19,3.07 -3.57,3.42 -3.57,7.84 -3.57,13.19l0 18.25 4.99 0 0 -18.25c0,-4.71 0,-7.92 2.14,-9.91 1.07,-1 2.71,-1.64 4.63,-1.64 1.93,0 3.57,0.64 4.64,1.64 2.14,1.99 2.14,5.2 2.14,9.91l0 18.25 4.99 0 0 -18.25c0,-4.71 0,-7.92 2.13,-9.91 1.07,-1 2.71,-1.64 4.64,-1.64 1.92,0 3.56,0.64 4.63,1.64 2.14,1.99 2.14,5.2 2.14,9.91l0 18.25 4.99 0 0 -18.25c0,-5.35 0,-9.77 -3.57,-13.19 -1.92,-1.85 -4.84,-3.07 -8.19,-3.07 -4.07,0 -7.35,1.79 -9.27,4.99 -1.92,-3.2 -5.2,-4.99 -9.27,-4.99z"/>
  <path id="_32" class="fil6" d="M1347.54 308.67c-1.64,-2.21 -1.64,-6.41 -1.64,-8.26l6.56 0c5.06,0 8.12,0 11.12,-2.14 1.99,-1.43 3.56,-3.85 3.56,-6.99 -0.07,-2.78 -1.43,-5.42 -3.56,-7.2 -2.14,-1.71 -4.99,-2.64 -8.56,-2.64 -5.06,0 -9.34,1.86 -11.62,5.07 -2.56,3.56 -2.56,6.84 -2.56,12.4 0,4.63 0,8.91 2.7,12.62 2.29,3.06 6.21,4.84 11.12,4.84 3.71,0 7.42,-0.78 10.77,-2.49l-2.07 -4.28c-2.56,1.36 -5.63,2.07 -8.7,2.07 -3.42,0 -5.7,-1.07 -7.12,-3zm14.61 -17.39c0,1.64 -0.78,2.85 -1.71,3.57 -1.5,1.14 -3.49,1.14 -7.98,1.14l-6.56 0c0,-1.43 0,-4.99 1.78,-7.06 1.57,-1.85 4.13,-2.78 7.34,-2.78 2.21,0 4.06,0.5 5.28,1.5 1.07,0.85 1.78,2.28 1.85,3.63z"/>
  <path id="_33" class="fil6" d="M1386.38 281.44c-4.34,0 -7.41,1.86 -9.12,3.64 -3.35,3.49 -3.35,7.63 -3.35,12.62l0 18.25 4.99 0 0 -18.25c0,-4.42 0,-7.42 2.07,-9.48 1.21,-1.22 3.06,-2.07 5.41,-2.07 2.36,0 4.21,0.85 5.42,2.07 2.07,2.06 2.07,5.06 2.07,9.48l0 18.25 4.99 0 0 -18.25c0,-4.99 0,-9.13 -3.35,-12.62 -1.71,-1.78 -4.78,-3.64 -9.13,-3.64z"/>
  <path id="_34" class="fil6" d="M1412.05 303.83l0 -17.54 8.55 0 0 -4.42 -8.55 0 0 -8.05 -4.99 0 0 30.01c0,4.06 0,6.77 1.99,9.26 1.57,2 4.21,3.28 7.34,3.28 2.57,0 4.85,-0.85 6.78,-1.85l-2.14 -4.21c-1.64,0.86 -3.28,1.36 -4.64,1.36 -1.56,0 -2.63,-0.57 -3.35,-1.43 -0.99,-1.28 -0.99,-2.56 -0.99,-6.41z"/>
  <path id="_35" class="fil6" d="M1440.49 286.15c3.13,0 5.56,1.28 6.98,3.42 1.57,2.35 1.57,5.7 1.57,9.34 0,3.63 0,6.98 -1.57,9.34 -1.42,2.14 -3.85,3.42 -6.98,3.42 -3.14,0 -5.56,-1.28 -6.99,-3.42 -1.57,-2.36 -1.57,-5.71 -1.57,-9.34 0,-3.64 0,-6.99 1.57,-9.34 1.43,-2.14 3.85,-3.42 6.99,-3.42zm0 -4.71c-5.06,0 -9.2,2.29 -11.48,6.06 -2.07,3.43 -2.07,7.35 -2.07,11.41 0,4.06 0,7.98 2.07,11.4 2.28,3.78 6.42,6.06 11.48,6.06 5.06,0 9.19,-2.28 11.47,-6.06 2.07,-3.42 2.07,-7.34 2.07,-11.4 0,-4.06 0,-7.98 -2.07,-11.41 -2.28,-3.77 -6.41,-6.06 -11.47,-6.06z"/>
  <path id="_36" class="fil6" d="M1481.83 283.8c-3.21,-1.5 -6.77,-2.36 -10.41,-2.36 -2.92,0 -5.41,0.65 -7.48,2.07 -2.07,1.43 -3.85,3.92 -3.85,7.2 0,3.07 1.64,5.63 3.78,7.27 2.14,1.64 4.7,2.28 6.98,2.78 2.28,0.5 4.07,0.93 5.63,2.07 1.14,0.85 2,2.21 2,3.85 0,1.21 -0.5,2.64 -1.85,3.63 -1.36,1 -3.14,1.36 -5.21,1.36 -3.28,0 -6.56,-0.71 -9.48,-2.07l-1.99 4.28c3.63,1.71 7.62,2.49 11.47,2.49 3.28,0 5.99,-0.71 8.2,-2.28 2.21,-1.57 3.85,-4.2 3.85,-7.41 0,-3.57 -2,-6.2 -4.21,-7.77 -1.99,-1.43 -4.34,-2.07 -6.91,-2.64 -2.57,-0.57 -4.06,-0.93 -5.49,-2.07 -1,-0.78 -1.78,-1.99 -1.78,-3.49 0,-1.57 0.85,-2.85 2.07,-3.56 1.21,-0.72 2.49,-1 4.27,-1 2.85,0 5.85,0.71 8.56,2l1.85 -4.35z"/>
  <path id="_37" class="fil6" d="M1531.8 301.69l0 -5.28c0,-3.77 0,-7.98 -2.85,-11.19 -2.14,-2.42 -5.35,-3.78 -9.63,-3.78 -3.85,0 -7.48,0.86 -10.83,2.07l1.57 4.49c2.99,-1.14 6.13,-1.85 9.26,-1.85 2.71,0 4.57,0.71 5.78,2.07 1.71,1.92 1.71,4.77 1.71,6.98l-5.85 0c-2.78,0 -6.77,0 -10.12,2.43 -2.28,1.64 -4.2,4.42 -4.2,8.19 0,3.71 1.92,6.56 4.27,8.2 2.28,1.64 5.21,2.35 8.63,2.35 4.27,0 7.62,-1.21 9.76,-3.7 2.5,-2.93 2.5,-6.21 2.5,-10.98zm-4.99 0c0,4.2 0,6.41 -1.36,7.98 -1.21,1.43 -3.28,2 -5.91,2 -2.28,0 -4.28,-0.43 -5.63,-1.36 -1.29,-0.92 -2.28,-2.49 -2.28,-4.49 0,-2.21 1.06,-3.85 2.35,-4.77 1.99,-1.43 4.56,-1.43 6.98,-1.43l5.85 0 0 2.07z"/>
  <path id="_38" class="fil6" d="M1544.63 303.83l0 -17.54 8.55 0 0 -4.42 -8.55 0 0 -8.05 -4.99 0 0 30.01c0,4.06 0,6.77 1.99,9.26 1.57,2 4.21,3.28 7.35,3.28 2.56,0 4.84,-0.85 6.77,-1.85l-2.14 -4.21c-1.64,0.86 -3.28,1.36 -4.63,1.36 -1.57,0 -2.64,-0.57 -3.35,-1.43 -1,-1.28 -1,-2.56 -1,-6.41z"/>
  <path id="_39" class="fil6" d="M1560.95 281.87l0 18.25c0,4.99 0,9.12 3.35,12.62 1.71,1.78 4.78,3.63 9.13,3.63 4.34,0 7.41,-1.85 9.12,-3.63 3.35,-3.5 3.35,-7.63 3.35,-12.62l0 -18.25 -4.99 0 0 18.25c0,4.42 0,7.41 -2.07,9.48 -1.21,1.21 -3.06,2.07 -5.41,2.07 -2.36,0 -4.21,-0.86 -5.42,-2.07 -2.07,-2.07 -2.07,-5.06 -2.07,-9.48l0 -18.25 -4.99 0z"/>
  <path id="_40" class="fil6" d="M1617.48 301.69l0 -5.28c0,-3.77 0,-7.98 -2.85,-11.19 -2.14,-2.42 -5.35,-3.78 -9.63,-3.78 -3.85,0 -7.48,0.86 -10.83,2.07l1.57 4.49c2.99,-1.14 6.13,-1.85 9.26,-1.85 2.71,0 4.57,0.71 5.78,2.07 1.71,1.92 1.71,4.77 1.71,6.98l-5.85 0c-2.78,0 -6.77,0 -10.12,2.43 -2.28,1.64 -4.21,4.42 -4.21,8.19 0,3.71 1.93,6.56 4.28,8.2 2.28,1.64 5.21,2.35 8.63,2.35 4.27,0 7.62,-1.21 9.76,-3.7 2.5,-2.93 2.5,-6.21 2.5,-10.98zm-4.99 0c0,4.2 0,6.41 -1.36,7.98 -1.21,1.43 -3.28,2 -5.91,2 -2.28,0 -4.28,-0.43 -5.63,-1.36 -1.29,-0.92 -2.29,-2.49 -2.29,-4.49 0,-2.21 1.07,-3.85 2.36,-4.77 1.99,-1.43 4.56,-1.43 6.98,-1.43l5.85 0 0 2.07z"/>
  <path id="_41" class="fil6" d="M1628.17 269.68c-1.93,0 -3.35,1.36 -3.35,3.35 0,2 1.42,3.35 3.35,3.35 1.92,0 3.35,-1.35 3.35,-3.35 0,-1.99 -1.43,-3.35 -3.35,-3.35zm-2.5 46.27l4.99 0 0 -34.08 -4.99 0 0 34.08z"/>
  <path id="_42" class="fil6" d="M1659.89 283.8c-3.21,-1.5 -6.77,-2.36 -10.41,-2.36 -2.92,0 -5.42,0.65 -7.48,2.07 -2.07,1.43 -3.85,3.92 -3.85,7.2 0,3.07 1.64,5.63 3.78,7.27 2.13,1.64 4.7,2.28 6.98,2.78 2.28,0.5 4.06,0.93 5.63,2.07 1.14,0.85 2,2.21 2,3.85 0,1.21 -0.5,2.64 -1.85,3.63 -1.36,1 -3.14,1.36 -5.21,1.36 -3.28,0 -6.56,-0.71 -9.48,-2.07l-1.99 4.28c3.63,1.71 7.62,2.49 11.47,2.49 3.28,0 5.99,-0.71 8.2,-2.28 2.21,-1.57 3.85,-4.2 3.85,-7.41 0,-3.57 -2,-6.2 -4.21,-7.77 -1.99,-1.43 -4.35,-2.07 -6.91,-2.64 -2.57,-0.57 -4.06,-0.93 -5.49,-2.07 -1,-0.78 -1.78,-1.99 -1.78,-3.49 0,-1.57 0.85,-2.85 2.07,-3.56 1.21,-0.72 2.49,-1 4.27,-1 2.85,0 5.85,0.71 8.56,2l1.85 -4.35z"/>
  <path id="_43" class="fil6" d="M1698.95 286.15c3.14,0 5.56,1.28 6.99,3.42 1.56,2.35 1.56,5.7 1.56,9.34 0,3.63 0,6.98 -1.56,9.34 -1.43,2.14 -3.85,3.42 -6.99,3.42 -3.14,0 -5.56,-1.28 -6.98,-3.42 -1.57,-2.36 -1.57,-5.71 -1.57,-9.34 0,-3.64 0,-6.99 1.57,-9.34 1.42,-2.14 3.84,-3.42 6.98,-3.42zm0 -4.71c-5.06,0 -9.19,2.29 -11.48,6.06 -2.06,3.43 -2.06,7.35 -2.06,11.41 0,4.06 0,7.98 2.06,11.4 2.29,3.78 6.42,6.06 11.48,6.06 5.06,0 9.2,-2.28 11.48,-6.06 2.06,-3.42 2.06,-7.34 2.06,-11.4 0,-4.06 0,-7.98 -2.06,-11.41 -2.28,-3.77 -6.42,-6.06 -11.48,-6.06z"/>
  <path id="_44" class="fil6" d="M1730.53 268.04c-3.99,0 -6.56,1.72 -8.2,3.92 -2,2.71 -2,5.78 -2,10.06l0 33.93 4.99 0 0 -29.66 8.56 0 0 -4.42 -8.56 0c0,-3.63 0,-5.7 1.07,-7.2 0.93,-1.28 2.28,-1.92 4.14,-1.92 1.21,0 2.63,0.28 4.35,0.71l1.14 -4.56c-1.71,-0.43 -3.5,-0.86 -5.49,-0.86z"/>
  <path id="_45" class="fil6" d="M1745.07 308.67c-1.64,-2.21 -1.64,-6.41 -1.64,-8.26l6.56 0c5.06,0 8.12,0 11.12,-2.14 1.99,-1.43 3.56,-3.85 3.56,-6.99 -0.07,-2.78 -1.42,-5.42 -3.56,-7.2 -2.14,-1.71 -4.99,-2.64 -8.56,-2.64 -5.06,0 -9.33,1.86 -11.62,5.07 -2.56,3.56 -2.56,6.84 -2.56,12.4 0,4.63 0,8.91 2.71,12.62 2.28,3.06 6.2,4.84 11.12,4.84 3.7,0 7.41,-0.78 10.76,-2.49l-2.07 -4.28c-2.56,1.36 -5.63,2.07 -8.69,2.07 -3.42,0 -5.71,-1.07 -7.13,-3zm14.61 -17.39c0,1.64 -0.78,2.85 -1.71,3.57 -1.5,1.14 -3.49,1.14 -7.98,1.14l-6.56 0c0,-1.43 0,-4.99 1.78,-7.06 1.57,-1.85 4.14,-2.78 7.34,-2.78 2.21,0 4.07,0.5 5.28,1.5 1.07,0.85 1.78,2.28 1.85,3.63z"/>
  <path id="_46" class="fil6" d="M1784.49 281.44c-3.28,0 -7.42,1 -10.2,4.28 -2.85,3.35 -2.85,6.7 -2.85,12.48l0 17.75 4.99 0 0 -17.75c0,-4.49 0,-7.49 1.71,-9.48 1.36,-1.64 3.78,-2.57 6.35,-2.57 1.21,0 2.35,0.21 3.35,0.57l1.49 -4.49c-1.42,-0.5 -3.06,-0.79 -4.84,-0.79z"/>
  <path id="_47" class="fil6" d="M1800.1 308.67c-1.64,-2.21 -1.64,-6.41 -1.64,-8.26l6.56 0c5.06,0 8.12,0 11.12,-2.14 1.99,-1.43 3.56,-3.85 3.56,-6.99 -0.07,-2.78 -1.43,-5.42 -3.56,-7.2 -2.14,-1.71 -4.99,-2.64 -8.56,-2.64 -5.06,0 -9.34,1.86 -11.62,5.07 -2.56,3.56 -2.56,6.84 -2.56,12.4 0,4.63 0,8.91 2.71,12.62 2.28,3.06 6.2,4.84 11.12,4.84 3.7,0 7.41,-0.78 10.76,-2.49l-2.07 -4.28c-2.56,1.36 -5.63,2.07 -8.69,2.07 -3.43,0 -5.71,-1.07 -7.13,-3zm14.61 -17.39c0,1.64 -0.78,2.85 -1.71,3.57 -1.5,1.14 -3.49,1.14 -7.98,1.14l-6.56 0c0,-1.43 0,-4.99 1.78,-7.06 1.57,-1.85 4.14,-2.78 7.34,-2.78 2.21,0 4.07,0.5 5.28,1.5 1.07,0.85 1.78,2.28 1.85,3.63z"/>
  <path id="_48" class="fil6" d="M1847 309.32c-2.28,1.56 -4.99,2.35 -7.7,2.35 -2.78,0 -4.92,-0.93 -6.27,-2.5 -2.28,-2.63 -2.28,-6.91 -2.28,-10.55 0,-3.13 0,-7.34 2.21,-9.9 1.71,-2 4.13,-2.57 6.34,-2.57 2.57,0 5.21,0.78 7.34,2.14l2.43 -4.07c-2.92,-1.85 -6.35,-2.78 -9.77,-2.78 -4.56,0 -7.98,1.72 -10.19,4.28 -3.35,3.85 -3.35,9.2 -3.35,12.9 0,4.21 0,9.7 3.42,13.55 2.21,2.49 5.56,4.2 10.12,4.2 3.64,0 7.27,-1.07 10.27,-3.06l-2.57 -3.99z"/>
  <path id="_49" class="fil6" d="M1861.26 308.67c-1.64,-2.21 -1.64,-6.41 -1.64,-8.26l6.56 0c5.06,0 8.12,0 11.12,-2.14 1.99,-1.43 3.56,-3.85 3.56,-6.99 -0.07,-2.78 -1.43,-5.42 -3.56,-7.2 -2.14,-1.71 -4.99,-2.64 -8.56,-2.64 -5.06,0 -9.34,1.86 -11.62,5.07 -2.56,3.56 -2.56,6.84 -2.56,12.4 0,4.63 0,8.91 2.7,12.62 2.29,3.06 6.21,4.84 11.12,4.84 3.71,0 7.42,-0.78 10.77,-2.49l-2.07 -4.28c-2.56,1.36 -5.63,2.07 -8.7,2.07 -3.42,0 -5.7,-1.07 -7.12,-3zm14.61 -17.39c0,1.64 -0.78,2.85 -1.71,3.57 -1.5,1.14 -3.49,1.14 -7.98,1.14l-6.56 0c0,-1.43 0,-4.99 1.78,-7.06 1.57,-1.85 4.13,-2.78 7.34,-2.78 2.21,0 4.06,0.5 5.28,1.5 1.07,0.85 1.78,2.28 1.85,3.63z"/>
  <path id="_50" class="fil6" d="M1899.39 281.44c-3.35,0 -6.27,1.22 -8.2,3.07 -3.56,3.42 -3.56,7.84 -3.56,13.19l0 18.25 4.99 0 0 -18.25c0,-4.71 0,-7.92 2.14,-9.91 1.07,-1 2.71,-1.64 4.63,-1.64 1.93,0 3.57,0.64 4.64,1.64 2.13,1.99 2.13,5.2 2.13,9.91l0 18.25 4.99 0 0 -18.25c0,-4.71 0,-7.92 2.14,-9.91 1.07,-1 2.71,-1.64 4.63,-1.64 1.93,0 3.57,0.64 4.64,1.64 2.14,1.99 2.14,5.2 2.14,9.91l0 18.25 4.99 0 0 -18.25c0,-5.35 0,-9.77 -3.57,-13.19 -1.92,-1.85 -4.84,-3.07 -8.2,-3.07 -4.06,0 -7.34,1.79 -9.26,4.99 -1.93,-3.2 -5.2,-4.99 -9.27,-4.99z"/>
  <path id="_51" class="fil6" d="M1942.45 309.1c-2.14,0 -3.64,1.5 -3.64,3.64 0,2.14 1.5,3.63 3.64,3.63 2.13,0 3.63,-1.49 3.63,-3.63 0,-2.14 -1.5,-3.64 -3.63,-3.64zm-0.36 -41.06c-3.49,0 -7.84,0.93 -11.33,3.64l3.13 3.99c2.21,-1.78 5.28,-2.64 8.2,-2.64 2.57,0 4.63,0.57 6.2,1.86 1.85,1.49 2.78,3.85 2.78,6.13 0,2.78 -1.14,4.7 -2.92,6.27 -2.21,1.92 -6.42,4.13 -7.41,8.98 -0.29,1.36 -0.36,2.21 -0.36,3.71 0,1.28 0.14,3.92 0.14,3.92l3.85 0 0.14 -3.35c0.07,-1.71 0.29,-2.64 0.5,-3.28 1.07,-3.14 4.07,-4.21 6.63,-6.34 2.57,-2.14 4.71,-5.42 4.71,-9.91 0,-4.21 -2,-7.91 -4.78,-10.05 -2.42,-1.86 -5.42,-2.93 -9.48,-2.93l0 0z"/>
  <polygon class="fil3" points="559.63,172.67 2109.57,172.67 2109.57,165.28 559.63,165.28 "/>
  <g id="logo_x0020_dux-2022.eps">
   <path class="fil7" d="M2136.16 165.45c0.11,0 0.16,0.05 0.16,0.16l0 0.71c0,0.11 -0.05,0.16 -0.16,0.16l-3.72 0c-0.14,0 -0.25,0.04 -0.31,0.11 -0.06,0.08 -0.08,0.18 -0.08,0.31l0 0.25c0,0.28 0.12,0.42 0.38,0.42l2.79 0c0.43,0 0.75,0.11 0.97,0.33 0.22,0.22 0.33,0.53 0.33,0.94l0 0.6c0,0.36 -0.11,0.65 -0.32,0.87 -0.22,0.23 -0.55,0.34 -1,0.34l-4.11 0c-0.12,0 -0.17,-0.06 -0.17,-0.17l0 -0.7c0,-0.11 0.05,-0.16 0.17,-0.16l3.9 0c0.14,0 0.24,-0.04 0.3,-0.12 0.06,-0.07 0.09,-0.17 0.09,-0.3l0 -0.3c0,-0.28 -0.13,-0.42 -0.39,-0.42l-2.78 0c-0.43,0 -0.76,-0.11 -0.97,-0.33 -0.22,-0.22 -0.33,-0.54 -0.33,-0.95l0 -0.54c0,-0.36 0.1,-0.65 0.32,-0.88 0.21,-0.22 0.54,-0.33 0.99,-0.33l3.94 0z"/>
   <path class="fil7" d="M2145.58 168.61c0,0.19 0.01,0.35 0.04,0.48 0.04,0.13 0.09,0.24 0.16,0.31 0.08,0.08 0.18,0.14 0.31,0.17 0.12,0.03 0.28,0.05 0.47,0.05l2.21 0c0.19,0 0.35,-0.02 0.48,-0.05 0.13,-0.03 0.23,-0.09 0.3,-0.17 0.07,-0.07 0.13,-0.18 0.16,-0.31 0.03,-0.13 0.05,-0.29 0.05,-0.48l0 -1.12c0,-0.19 -0.02,-0.35 -0.05,-0.49 -0.03,-0.13 -0.09,-0.23 -0.16,-0.31 -0.07,-0.07 -0.17,-0.13 -0.3,-0.16 -0.13,-0.03 -0.29,-0.05 -0.48,-0.05l-2.21 0c-0.19,0 -0.35,0.02 -0.47,0.05 -0.13,0.03 -0.23,0.09 -0.31,0.16 -0.07,0.08 -0.12,0.18 -0.16,0.31 -0.03,0.14 -0.04,0.3 -0.04,0.49l0 1.12zm3.23 -3.16c0.38,0 0.7,0.03 0.97,0.11 0.26,0.07 0.48,0.18 0.64,0.34 0.17,0.15 0.29,0.36 0.36,0.6 0.08,0.25 0.11,0.55 0.11,0.91l0 1.28c0,0.35 -0.03,0.66 -0.11,0.91 -0.07,0.25 -0.19,0.45 -0.36,0.61 -0.16,0.15 -0.38,0.26 -0.64,0.33 -0.27,0.07 -0.59,0.11 -0.97,0.11l-2.29 0c-0.38,0 -0.7,-0.04 -0.96,-0.11 -0.26,-0.07 -0.47,-0.18 -0.64,-0.33 -0.17,-0.16 -0.29,-0.36 -0.37,-0.61 -0.07,-0.25 -0.11,-0.56 -0.11,-0.91l0 -1.28c0,-0.36 0.04,-0.66 0.11,-0.91 0.08,-0.24 0.2,-0.45 0.37,-0.6 0.17,-0.16 0.38,-0.27 0.64,-0.34 0.26,-0.08 0.58,-0.11 0.96,-0.11l2.29 0z"/>
   <path class="fil7" d="M2159.91 165.45c0.11,0 0.16,0.05 0.16,0.16l0 2.97c0,0.19 0.02,0.36 0.05,0.49 0.03,0.13 0.09,0.23 0.16,0.31 0.08,0.08 0.18,0.13 0.3,0.16 0.13,0.04 0.29,0.05 0.48,0.05l3.01 0c0.11,0 0.16,0.06 0.16,0.17l0 0.72c0,0.11 -0.05,0.17 -0.16,0.17l-3.05 0c-0.38,0 -0.7,-0.04 -0.96,-0.11 -0.26,-0.07 -0.48,-0.18 -0.64,-0.33 -0.17,-0.16 -0.29,-0.36 -0.37,-0.61 -0.07,-0.25 -0.11,-0.56 -0.11,-0.91l0 -3.08c0,-0.11 0.05,-0.16 0.17,-0.16l0.8 0z"/>
   <path class="fil7" d="M2172.89 165.45c0.11,0 0.17,0.05 0.17,0.16l0 2.97c0,0.19 0.01,0.36 0.04,0.49 0.04,0.13 0.09,0.23 0.16,0.31 0.08,0.08 0.18,0.13 0.3,0.16 0.13,0.04 0.29,0.05 0.48,0.05l2.06 0c0.19,0 0.35,-0.01 0.48,-0.05 0.13,-0.03 0.23,-0.08 0.3,-0.16 0.08,-0.08 0.13,-0.18 0.16,-0.31 0.03,-0.13 0.04,-0.3 0.04,-0.49l0 -2.97c0,-0.11 0.06,-0.16 0.16,-0.16l0.81 0c0.11,0 0.17,0.05 0.17,0.16l0 3.08c0,0.35 -0.04,0.66 -0.11,0.91 -0.08,0.25 -0.2,0.45 -0.36,0.61 -0.17,0.15 -0.38,0.26 -0.65,0.33 -0.27,0.07 -0.59,0.11 -0.96,0.11l-2.14 0c-0.38,0 -0.7,-0.04 -0.96,-0.11 -0.26,-0.07 -0.48,-0.18 -0.64,-0.33 -0.17,-0.16 -0.29,-0.36 -0.36,-0.61 -0.08,-0.25 -0.12,-0.56 -0.12,-0.91l0 -3.08c0,-0.11 0.06,-0.16 0.17,-0.16l0.8 0z"/>
   <path class="fil7" d="M2189.65 170.95c0.12,0 0.17,0.07 0.14,0.2l-0.33 1.35c-0.03,0.11 -0.09,0.17 -0.18,0.17l-0.43 0c-0.12,0 -0.18,-0.06 -0.17,-0.17l0.12 -1.38c0.01,-0.11 0.07,-0.17 0.18,-0.17l0.67 0zm2.05 -5.5c0.11,0 0.16,0.05 0.16,0.16l0 0.73c0,0.11 -0.05,0.17 -0.16,0.17l-3.31 0c-0.19,0 -0.35,0.02 -0.48,0.05 -0.12,0.03 -0.22,0.09 -0.3,0.16 -0.07,0.08 -0.13,0.18 -0.16,0.31 -0.03,0.13 -0.05,0.29 -0.05,0.49l0 1.06c0,0.19 0.02,0.36 0.05,0.49 0.03,0.13 0.09,0.23 0.16,0.31 0.08,0.08 0.18,0.13 0.3,0.16 0.13,0.04 0.29,0.05 0.48,0.05l3.31 0c0.11,0 0.16,0.06 0.16,0.17l0 0.72c0,0.11 -0.05,0.17 -0.16,0.17l-3.35 0c-0.38,0 -0.7,-0.04 -0.96,-0.11 -0.26,-0.07 -0.48,-0.18 -0.64,-0.33 -0.17,-0.16 -0.29,-0.36 -0.37,-0.61 -0.07,-0.25 -0.11,-0.56 -0.11,-0.91l0 -1.28c0,-0.36 0.04,-0.66 0.11,-0.91 0.08,-0.24 0.2,-0.45 0.37,-0.6 0.16,-0.16 0.38,-0.27 0.64,-0.34 0.26,-0.08 0.58,-0.11 0.96,-0.11l3.35 0z"/>
   <path class="fil7" d="M2201.19 165.13c-0.06,0 -0.1,-0.02 -0.11,-0.05 -0.02,-0.03 -0.02,-0.09 -0.02,-0.17 0,-0.2 0.01,-0.37 0.05,-0.5 0.03,-0.14 0.09,-0.24 0.16,-0.32 0.07,-0.08 0.17,-0.13 0.29,-0.17 0.12,-0.03 0.26,-0.05 0.42,-0.05 0.27,0 0.5,0.04 0.69,0.11 0.19,0.07 0.37,0.18 0.54,0.31 0.08,0.07 0.16,0.13 0.24,0.17 0.07,0.04 0.18,0.06 0.32,0.06 0.08,0 0.14,-0.01 0.18,-0.02 0.05,-0.02 0.08,-0.04 0.1,-0.08 0.02,-0.04 0.04,-0.1 0.05,-0.16 0.01,-0.07 0.01,-0.15 0.01,-0.25 0.01,-0.11 0.08,-0.17 0.21,-0.17l0.42 0c0.05,0 0.09,0.02 0.11,0.05 0.01,0.04 0.02,0.09 0.02,0.17 0,0.2 -0.02,0.37 -0.05,0.51 -0.03,0.13 -0.09,0.24 -0.17,0.31 -0.07,0.08 -0.17,0.14 -0.29,0.17 -0.12,0.03 -0.26,0.05 -0.42,0.05 -0.27,0 -0.5,-0.04 -0.69,-0.11 -0.18,-0.07 -0.36,-0.17 -0.53,-0.31 -0.09,-0.07 -0.17,-0.12 -0.24,-0.16 -0.08,-0.05 -0.19,-0.07 -0.33,-0.07 -0.15,0 -0.24,0.04 -0.28,0.11 -0.04,0.07 -0.06,0.21 -0.06,0.41 0,0.1 -0.07,0.16 -0.2,0.16l-0.42 0zm-0.32 3.48c0,0.19 0.02,0.35 0.05,0.48 0.03,0.13 0.08,0.24 0.16,0.31 0.07,0.08 0.17,0.14 0.3,0.17 0.12,0.03 0.28,0.05 0.48,0.05l2.2 0c0.2,0 0.36,-0.02 0.48,-0.05 0.13,-0.03 0.23,-0.09 0.3,-0.17 0.08,-0.07 0.13,-0.18 0.16,-0.31 0.04,-0.13 0.05,-0.29 0.05,-0.48l0 -1.12c0,-0.19 -0.01,-0.35 -0.05,-0.49 -0.03,-0.13 -0.08,-0.23 -0.16,-0.31 -0.07,-0.07 -0.17,-0.13 -0.3,-0.16 -0.12,-0.03 -0.28,-0.05 -0.48,-0.05l-2.2 0c-0.2,0 -0.36,0.02 -0.48,0.05 -0.13,0.03 -0.23,0.09 -0.3,0.16 -0.08,0.08 -0.13,0.18 -0.16,0.31 -0.03,0.14 -0.05,0.3 -0.05,0.49l0 1.12zm3.24 -3.16c0.37,0 0.69,0.03 0.96,0.11 0.26,0.07 0.48,0.18 0.65,0.34 0.16,0.15 0.28,0.36 0.36,0.6 0.07,0.25 0.11,0.55 0.11,0.91l0 1.28c0,0.35 -0.04,0.66 -0.11,0.91 -0.08,0.25 -0.2,0.45 -0.36,0.61 -0.17,0.15 -0.39,0.26 -0.65,0.33 -0.27,0.07 -0.59,0.11 -0.96,0.11l-2.3 0c-0.37,0 -0.69,-0.04 -0.96,-0.11 -0.26,-0.07 -0.47,-0.18 -0.64,-0.33 -0.16,-0.16 -0.29,-0.36 -0.36,-0.61 -0.08,-0.25 -0.12,-0.56 -0.12,-0.91l0 -1.28c0,-0.36 0.04,-0.66 0.12,-0.91 0.07,-0.24 0.2,-0.45 0.36,-0.6 0.17,-0.16 0.38,-0.27 0.64,-0.34 0.27,-0.08 0.59,-0.11 0.96,-0.11l2.3 0z"/>
   <path class="fil7" d="M2219.53 165.45c0.12,0 0.17,0.05 0.17,0.16l0 0.71c0,0.11 -0.05,0.16 -0.17,0.16l-3.24 0c-0.2,0 -0.35,0.02 -0.48,0.05 -0.13,0.03 -0.23,0.09 -0.31,0.16 -0.07,0.08 -0.13,0.18 -0.16,0.31 -0.03,0.14 -0.04,0.3 -0.04,0.49l0 0.08 4.2 0c0.1,0 0.16,0.05 0.16,0.16l0 0.59c0,0.1 -0.06,0.16 -0.16,0.16l-4.2 0 0 0.13c0,0.19 0.01,0.35 0.04,0.48 0.03,0.13 0.09,0.24 0.16,0.31 0.08,0.08 0.18,0.14 0.31,0.17 0.13,0.03 0.28,0.05 0.48,0.05l3.24 0c0.12,0 0.17,0.05 0.17,0.16l0 0.7c0,0.11 -0.05,0.17 -0.17,0.17l-3.26 0c-0.38,0 -0.7,-0.04 -0.96,-0.11 -0.26,-0.07 -0.48,-0.18 -0.64,-0.33 -0.17,-0.16 -0.29,-0.36 -0.37,-0.61 -0.08,-0.25 -0.11,-0.56 -0.11,-0.91l0 -1.28c0,-0.36 0.03,-0.66 0.11,-0.91 0.08,-0.24 0.2,-0.45 0.37,-0.6 0.16,-0.16 0.38,-0.27 0.64,-0.34 0.26,-0.08 0.58,-0.11 0.96,-0.11l3.26 0z"/>
   <path class="fil7" d="M2232.86 165.45c0.11,0 0.16,0.05 0.16,0.16l0 0.71c0,0.11 -0.05,0.16 -0.16,0.16l-3.72 0c-0.15,0 -0.25,0.04 -0.31,0.11 -0.06,0.08 -0.09,0.18 -0.09,0.31l0 0.25c0,0.28 0.13,0.42 0.39,0.42l2.78 0c0.43,0 0.76,0.11 0.98,0.33 0.21,0.22 0.32,0.53 0.32,0.94l0 0.6c0,0.36 -0.1,0.65 -0.32,0.87 -0.21,0.23 -0.54,0.34 -0.99,0.34l-4.12 0c-0.11,0 -0.17,-0.06 -0.17,-0.17l0 -0.7c0,-0.11 0.06,-0.16 0.17,-0.16l3.9 0c0.15,0 0.25,-0.04 0.31,-0.12 0.06,-0.07 0.09,-0.17 0.09,-0.3l0 -0.3c0,-0.28 -0.13,-0.42 -0.39,-0.42l-2.78 0c-0.43,0 -0.76,-0.11 -0.98,-0.33 -0.22,-0.22 -0.32,-0.54 -0.32,-0.95l0 -0.54c0,-0.36 0.1,-0.65 0.32,-0.88 0.21,-0.22 0.54,-0.33 0.99,-0.33l3.94 0z"/>
   <path class="fil7" d="M2256.11 165.45c0.11,0 0.17,0.05 0.17,0.16l0 0.71c0,0.11 -0.06,0.16 -0.17,0.16l-3.25 0c-0.19,0 -0.35,0.02 -0.47,0.05 -0.13,0.03 -0.23,0.09 -0.31,0.16 -0.08,0.08 -0.13,0.18 -0.16,0.31 -0.03,0.14 -0.04,0.3 -0.04,0.49l0 0.08 4.19 0c0.11,0 0.17,0.05 0.17,0.16l0 0.59c0,0.1 -0.06,0.16 -0.17,0.16l-4.19 0 0 0.13c0,0.19 0.01,0.35 0.04,0.48 0.03,0.13 0.08,0.24 0.16,0.31 0.08,0.08 0.18,0.14 0.31,0.17 0.12,0.03 0.28,0.05 0.47,0.05l3.25 0c0.11,0 0.17,0.05 0.17,0.16l0 0.7c0,0.11 -0.06,0.17 -0.17,0.17l-3.27 0c-0.37,0 -0.69,-0.04 -0.96,-0.11 -0.26,-0.07 -0.47,-0.18 -0.64,-0.33 -0.16,-0.16 -0.28,-0.36 -0.36,-0.61 -0.08,-0.25 -0.12,-0.56 -0.12,-0.91l0 -1.28c0,-0.36 0.04,-0.66 0.12,-0.91 0.08,-0.24 0.2,-0.45 0.36,-0.6 0.17,-0.16 0.38,-0.27 0.64,-0.34 0.27,-0.08 0.59,-0.11 0.96,-0.11l3.27 0z"/>
   <path class="fil7" d="M2265.74 165.45c0.11,0 0.21,0.01 0.29,0.02 0.07,0.02 0.14,0.04 0.2,0.09 0.06,0.04 0.12,0.1 0.16,0.17 0.05,0.07 0.1,0.16 0.15,0.28l1.54 3.57c0.02,0.04 0.06,0.07 0.11,0.07l0.09 0c0.05,0 0.08,-0.03 0.1,-0.07l1.54 -3.57c0.05,-0.12 0.1,-0.21 0.15,-0.28 0.05,-0.07 0.1,-0.13 0.16,-0.17 0.06,-0.05 0.13,-0.07 0.2,-0.09 0.08,-0.01 0.17,-0.02 0.28,-0.02l0.8 0c0.25,0 0.43,0.06 0.52,0.17 0.09,0.12 0.13,0.32 0.13,0.6l0 4.26c0,0.11 -0.06,0.17 -0.17,0.17l-0.76 0c-0.11,0 -0.16,-0.06 -0.16,-0.17l0 -3.87c0,-0.05 -0.02,-0.08 -0.06,-0.08l-0.07 0c-0.05,0 -0.08,0.02 -0.09,0.06l-1.51 3.33c-0.05,0.13 -0.11,0.25 -0.18,0.34 -0.06,0.09 -0.13,0.17 -0.2,0.22 -0.07,0.06 -0.15,0.11 -0.24,0.13 -0.09,0.03 -0.2,0.04 -0.33,0.04l-0.35 0c-0.13,0 -0.23,-0.01 -0.32,-0.04 -0.1,-0.02 -0.18,-0.07 -0.25,-0.13 -0.07,-0.05 -0.14,-0.13 -0.2,-0.22 -0.06,-0.09 -0.12,-0.21 -0.18,-0.34l-1.5 -3.33c-0.02,-0.04 -0.05,-0.06 -0.1,-0.06l-0.07 0c-0.04,0 -0.06,0.03 -0.06,0.08l0 3.87c0,0.11 -0.05,0.17 -0.16,0.17l-0.76 0c-0.11,0 -0.17,-0.06 -0.17,-0.17l0 -4.26c0,-0.28 0.05,-0.48 0.14,-0.6 0.09,-0.11 0.26,-0.17 0.52,-0.17l0.81 0z"/>
   <path class="fil7" d="M2295.55 165.45c0.12,0 0.18,0.05 0.18,0.16l0 0.73c0,0.11 -0.06,0.17 -0.18,0.17l-2.33 0 0 3.97c0,0.11 -0.05,0.17 -0.16,0.17l-0.81 0c-0.11,0 -0.16,-0.06 -0.16,-0.17l0 -3.97 -2.34 0c-0.11,0 -0.17,-0.06 -0.17,-0.17l0 -0.73c0,-0.11 0.06,-0.16 0.17,-0.16l5.8 0z"/>
   <path class="fil7" d="M2304.5 165.45c0.11,0 0.16,0.05 0.16,0.16l0 4.87c0,0.11 -0.05,0.17 -0.16,0.17l-0.8 0c-0.12,0 -0.18,-0.06 -0.18,-0.17l0 -4.87c0,-0.11 0.06,-0.16 0.18,-0.16l0.8 0z"/>
   <path class="fil7" d="M2136.47 132.91c0,-0.36 0.17,-0.54 0.5,-0.54l12.78 0c1.14,0 2.1,0.1 2.88,0.31 0.78,0.21 1.41,0.54 1.89,1.01 0.48,0.47 0.83,1.09 1.03,1.87 0.21,0.78 0.32,1.74 0.32,2.88l0 4.29c0,1.14 -0.11,2.1 -0.32,2.88 -0.2,0.78 -0.55,1.4 -1.03,1.87 -0.48,0.47 -1.11,0.81 -1.89,1.01 -0.78,0.21 -1.74,0.32 -2.88,0.32l-12.78 0c-0.33,0 -0.5,-0.17 -0.5,-0.51l0 -15.39zm-4.79 21.31l18.23 0c2.1,0 3.9,-0.22 5.41,-0.64 1.51,-0.43 2.74,-1.09 3.7,-1.99 0.96,-0.9 1.67,-2.04 2.12,-3.43 0.46,-1.39 0.69,-3.03 0.69,-4.93l0 -5.29c0,-1.9 -0.23,-3.54 -0.69,-4.93 -0.45,-1.39 -1.16,-2.53 -2.12,-3.43 -0.96,-0.89 -2.19,-1.56 -3.7,-1.99 -1.51,-0.42 -3.31,-0.64 -5.41,-0.64l-18.23 0c-0.78,0 -1.17,0.39 -1.17,1.17l0 24.93c0,0.78 0.39,1.17 1.17,1.17z"/>
   <path class="fil7" d="M2169.13 151.9c0.87,0.82 1.99,1.41 3.37,1.77 1.37,0.37 3.05,0.55 5.02,0.55l11.22 0c1.98,0 3.66,-0.18 5.05,-0.55 1.39,-0.36 2.52,-0.95 3.39,-1.77 0.86,-0.82 1.5,-1.88 1.88,-3.19 0.39,-1.31 0.59,-2.9 0.59,-4.77l0 -16.13c0,-0.57 -0.29,-0.86 -0.86,-0.86l-4.24 0c-0.58,0 -0.86,0.29 -0.86,0.86l0 15.54c0,1.04 -0.08,1.9 -0.23,2.59 -0.16,0.69 -0.43,1.24 -0.82,1.64 -0.39,0.4 -0.92,0.69 -1.58,0.85 -0.66,0.17 -1.5,0.26 -2.51,0.26l-10.79 0c-1.02,0 -1.85,-0.09 -2.52,-0.26 -0.66,-0.16 -1.18,-0.45 -1.57,-0.85 -0.39,-0.4 -0.67,-0.95 -0.84,-1.64 -0.17,-0.69 -0.25,-1.55 -0.25,-2.59l0 -15.54c0,-0.57 -0.29,-0.86 -0.86,-0.86l-4.21 0c-0.6,0 -0.89,0.29 -0.89,0.86l0 16.13c0,1.87 0.2,3.46 0.6,4.77 0.4,1.31 1.04,2.37 1.91,3.19z"/>
   <path class="fil7" d="M2237.13 120.36l-6.5 6.59 -0.6 0c-0.31,0 -0.56,0.05 -0.74,0.14 -0.18,0.09 -0.35,0.23 -0.51,0.41l-8.99 9.03 -8.49 -9.03c-0.16,-0.18 -0.33,-0.32 -0.51,-0.41 -0.18,-0.09 -0.43,-0.14 -0.74,-0.14l-5.34 0c-0.36,0 -0.56,0.13 -0.58,0.37 -0.03,0.25 0.04,0.46 0.19,0.64l11.57 11.92 -12.81 13.33c-0.19,0.18 -0.26,0.39 -0.22,0.64 0.04,0.25 0.23,0.37 0.57,0.37l0.34 0 -3.49 3.54 -69.77 -0.03 0 2.82 70.95 0.04 6.27 -6.37 0.76 0c0.34,0 0.59,-0.04 0.76,-0.12 0.17,-0.08 0.34,-0.22 0.53,-0.43l9.66 -10.09 9.62 10.09c0.15,0.21 0.32,0.35 0.5,0.43 0.19,0.08 0.43,0.12 0.74,0.12l5.34 0c0.36,0 0.57,-0.12 0.6,-0.37 0.04,-0.25 -0.03,-0.46 -0.21,-0.64l-12.5 -13.13 11.96 -12.12c0.18,-0.18 0.25,-0.39 0.21,-0.64 -0.04,-0.24 -0.24,-0.37 -0.6,-0.37l-0.51 0 3.72 -3.77 66.51 0 0 -2.82 -67.69 0z"/>
   <path class="fil8" d="M2295.24 137.94l-14.92 0 0 -5.15c0,-0.31 0.17,-0.46 0.51,-0.46l14.41 0c1.32,0 2.26,0.28 2.8,0.85 0.44,0.46 0.7,1.11 0.79,1.96 -0.09,0.84 -0.35,1.49 -0.79,1.95 -0.54,0.57 -1.48,0.85 -2.8,0.85zm7.63 -8.96c-1.3,-1.35 -3.44,-2.03 -6.42,-2.03l-20.92 0c-0.78,0 -1.17,0.39 -1.17,1.17l0 9.82 -22.18 0c-0.55,0 -1,0.45 -1,1l0 2.79c0,0.56 0.45,1 1,1l11.31 0c0.29,0.02 0.43,0.18 0.43,0.5l0 3.16c0,0.88 -0.16,1.5 -0.47,1.85 -0.31,0.35 -0.8,0.53 -1.48,0.53l-12.85 0c-1.01,0 -1.85,-0.09 -2.51,-0.26 -0.67,-0.17 -1.19,-0.45 -1.58,-0.85 -0.39,-0.41 -0.67,-0.95 -0.84,-1.64 -0.17,-0.69 -0.25,-1.55 -0.25,-2.59l0 -5.61c0,-1.04 0.08,-1.9 0.25,-2.57 0.17,-0.68 0.45,-1.22 0.84,-1.62 0.39,-0.4 0.91,-0.69 1.58,-0.85 0.66,-0.17 1.5,-0.26 2.51,-0.26l19.51 0c0.58,0 0.86,-0.3 0.86,-0.89l0 -3.82c0,-0.57 -0.28,-0.86 -0.86,-0.86l-19.74 0c-1.98,0 -3.65,0.19 -5.03,0.57 -1.38,0.37 -2.5,0.97 -3.37,1.79 -0.87,0.82 -1.51,1.88 -1.91,3.17 -0.4,1.3 -0.6,2.89 -0.6,4.76l0 6.7c0,1.87 0.2,3.46 0.6,4.77 0.4,1.31 1.04,2.37 1.91,3.19 0.87,0.82 1.99,1.41 3.37,1.77 1.38,0.37 3.05,0.55 5.03,0.55l15.73 0c1.56,0 2.75,-0.45 3.59,-1.35 0.83,-0.89 1.24,-2.43 1.24,-4.61l0 -5.53 4.91 0 0 10.63c0,0.57 0.3,0.86 0.9,0.86l4.2 0c0.57,0 0.86,-0.29 0.86,-0.86l0 -10.63 16.13 0c2.98,0 5.12,-0.67 6.42,-2.02 1.3,-1.35 1.95,-3.35 1.95,-6l0 -0.08c0,-2.65 -0.65,-4.3 -1.95,-5.65z"/>
  </g>
  <g id="_2386399497280">
   <path class="fil7" d="M210.29 172.07l-11.12 0 0 -39.9 11.12 0 0 39.9zm16.4 -22.25l0 22.25 -11.12 0 0 -39.9 11.12 0 0 4.45 0 0 0 13.03c0,0.05 0,0.11 0,0.17zm2.98 -15.7c2.57,-1.75 5.36,-2.62 8.37,-2.62 4.21,0 7.73,1.48 10.57,4.45 2.85,2.97 4.27,6.92 4.27,11.87l0 24.25 -11.13 0 0 -22.55c0,-6.13 -2.25,-9.19 -6.75,-9.19 -2.01,0 -3.79,0.65 -5.33,1.96l0 -8.17zm44.02 38.55c-4.72,0 -8.94,-2.01 -12.65,-6.01 -3.7,-4.01 -5.56,-8.98 -5.56,-14.91 0,-5.93 1.81,-10.79 5.42,-14.58 3.61,-3.78 7.83,-5.67 12.68,-5.67 3.45,0 6.44,0.86 8.99,2.59l0 9.62c-1.75,-1.91 -3.85,-2.86 -6.32,-2.86 -2.62,0 -4.87,1.08 -6.75,3.26 -1.88,2.18 -2.82,4.87 -2.82,8.08 0,3.22 0.97,5.85 2.89,7.9 1.93,2.06 4.18,3.08 6.75,3.08 2.58,0 4.76,-1.02 6.57,-3.08 1.8,-2.05 2.71,-4.69 2.71,-7.93 0,-0.47 -0.02,-0.92 -0.06,-1.36l0 -27.74 -0.09 0 0 -6.02 11.13 0 0 55.03 -11.13 0 0 -5.26c-3.12,3.9 -7.04,5.86 -11.76,5.86zm62.73 -6.38c-4.5,4.25 -9.78,6.38 -15.84,6.38 -6.06,0 -11.07,-1.87 -15.02,-5.6 -3.96,-3.74 -5.94,-8.74 -5.94,-15.02 0,-6.28 2.02,-11.28 6.05,-14.99 4.03,-3.71 8.79,-5.56 14.28,-5.56 5.49,0 10.15,1.66 13.98,4.97 3.83,3.31 5.75,7.86 5.75,13.65l0 5.93 -26.2 0 0 -7.93 14.92 0c-0.24,-2.38 -1.13,-4.21 -2.67,-5.49 -1.53,-1.29 -3.4,-1.93 -5.6,-1.93 -2.2,0 -4.21,0.67 -6.04,2 -1.83,1.34 -2.89,3.14 -3.19,5.42 -0.61,4.02 -0.44,7.33 -0.3,7.93 0.35,2.18 1.49,3.96 3.41,5.34 1.93,1.39 4.11,2.08 6.53,2.08 3.91,0 7.12,-1.31 9.64,-3.93l6.24 6.75zm21.24 -23.75l7.22 -10.33 0.03 -0.04 13.05 0 -13.72 19.51 14.24 20.39 -13.28 0 -7.78 -10.97 -7.57 10.97 -12.83 0 20.64 -29.53zm54.95 29.53l-10.46 0 0 -4.82c-2.87,3.61 -6.42,5.42 -10.64,5.42 -4.23,0 -7.78,-1.23 -10.65,-3.67 -2.87,-2.45 -4.3,-5.72 -4.3,-9.79 0,-4.08 1.48,-7.14 4.45,-9.17 2.97,-2.02 7.02,-3.04 12.17,-3.04l5.28 0 0 7.94 -4.02 0c-4.45,0 -6.68,1.38 -6.68,4.15 0,1.44 0.53,2.54 1.6,3.3 1.06,0.77 2.58,1.15 4.56,1.15 1.98,0 3.72,-0.6 5.23,-1.81 1.5,-1.21 2.26,-2.83 2.26,-4.86l0.02 -1.78 0.05 -8.31c0,-4.25 -2.25,-6.38 -6.75,-6.38 -1.92,0 -3.96,0.38 -6.12,1.15 -2.15,0.77 -3.96,1.72 -5.45,2.86l-4.97 -7.2c5.24,-3.81 11.23,-5.71 17.95,-5.71 4.85,0 8.81,1.21 11.87,3.63 3.07,2.43 4.6,6.26 4.6,11.5l0 25.44z"/>
   <circle class="fil0" cx="204.73" cy="122.44" r="6.52"/>
   <circle class="fil0" cx="422.16" cy="166.15" r="6.52"/>
   <polygon class="fil0" points="349.62,149.76 356.23,140.3 351.04,132.17 337.76,132.17 "/>
   <path class="fil9" d="M445.39 132.27c7.13,0 12.59,1.74 16.4,5.23 3.81,3.48 5.72,8.33 5.72,14.54 0,6.21 -1.86,11.12 -5.58,14.74 -3.71,3.62 -9.38,5.43 -16.99,5.43l-13.66 0 0 -39.94 14.11 0zm0.46 32.06c4.08,0 7.21,-1.03 9.4,-3.09 2.19,-2.06 3.28,-5.05 3.28,-8.97 0,-3.93 -1.09,-6.94 -3.28,-9.06 -2.19,-2.11 -5.55,-3.17 -10.09,-3.17l-4.97 0 0 24.29 5.66 0zm56.81 -12.32c0,-3.56 -1.15,-6.6 -3.43,-9.11 -2.29,-2.52 -5.1,-3.77 -8.43,-3.77 -3.33,0 -6.14,1.25 -8.43,3.77 -2.28,2.51 -3.43,5.55 -3.43,9.11 0,3.56 1.15,6.59 3.43,9.09 2.29,2.49 5.1,3.74 8.43,3.74 3.33,0 6.14,-1.25 8.43,-3.74 2.28,-2.5 3.43,-5.53 3.43,-9.09zm3.03 14.69c-4.04,3.94 -9.01,5.91 -14.92,5.91 -5.9,0 -10.87,-1.97 -14.91,-5.91 -4.04,-3.95 -6.06,-8.85 -6.06,-14.72 0,-5.86 2.02,-10.77 6.06,-14.71 4.04,-3.94 9.01,-5.92 14.91,-5.92 5.91,0 10.88,1.98 14.92,5.92 4.03,3.94 6.05,8.85 6.05,14.71 0,5.87 -2.02,10.77 -6.05,14.72zm28.8 -2.37c4.38,0 7.97,-1.74 10.75,-5.2l5.71 5.88c-4.53,5.11 -9.88,7.66 -16.03,7.66 -6.15,0 -11.22,-1.95 -15.2,-5.83 -3.98,-3.89 -5.97,-8.79 -5.97,-14.71 0,-5.93 2.03,-10.87 6.09,-14.83 4.05,-3.96 9.02,-5.95 14.88,-5.95 6.55,0 12.04,2.5 16.46,7.49l-5.54 6.29c-2.82,-3.51 -6.33,-5.26 -10.52,-5.26 -3.35,0 -6.22,1.09 -8.6,3.28 -2.38,2.19 -3.57,5.15 -3.57,8.86 0,3.72 1.12,6.7 3.37,8.94 2.25,2.25 4.97,3.38 8.17,3.38z"/>
  </g>
  <path class="fil10" d="M1653.79 789.84c0,-95.07 77.08,-172.16 172.15,-172.16 95.08,0 172.15,77.09 172.15,172.16l-59.69 0c0,-62.12 -50.34,-112.46 -112.46,-112.46 -62.11,0 -112.46,50.34 -112.46,112.46 0,95.07 -77.08,172.15 -172.15,172.15 -95.07,0 -172.15,-77.08 -172.15,-172.15 0,-62.12 -50.34,-112.46 -112.46,-112.46 -62.11,0 -112.46,50.34 -112.46,112.46 0,95.07 -77.08,172.15 -172.15,172.15 -95.07,0 -172.16,-77.08 -172.16,-172.15 0,-62.12 -50.34,-112.46 -112.45,-112.46 -62.12,0 -112.46,50.34 -112.46,112.46l-59.7 0c0,-95.07 77.09,-172.16 172.16,-172.16 95.07,0 172.15,77.09 172.15,172.16 0,62.11 50.35,112.46 112.46,112.46 62.11,0 112.46,-50.35 112.46,-112.46 0,-95.07 77.08,-172.16 172.15,-172.16 95.07,0 172.15,77.09 172.15,172.16 0,62.11 50.35,112.46 112.46,112.46 62.12,0 112.46,-50.35 112.46,-112.46z"/>
  <g id="_2386399495888">
   <path class="fil11" d="M1369.13 789.84c0,-95.07 77.08,-172.16 172.15,-172.16 95.07,0 172.15,77.09 172.15,172.16l-59.69 0c0,-62.12 -50.34,-112.46 -112.46,-112.46 -62.11,0 -112.46,50.34 -112.46,112.46 0,95.07 -77.08,172.15 -172.15,172.15 -95.07,0 -172.16,-77.08 -172.16,-172.15 0,-62.12 -50.34,-112.46 -112.45,-112.46 -62.12,0 -112.46,50.34 -112.46,112.46 0,95.07 -77.09,172.15 -172.15,172.15 -95.07,0 -172.16,-77.08 -172.16,-172.15 0,-62.12 -50.34,-112.46 -112.45,-112.46 -62.12,0 -112.46,50.34 -112.46,112.46l-59.7 0c0,-95.07 77.09,-172.16 172.16,-172.16 95.06,0 172.15,77.09 172.15,172.16 0,62.11 50.35,112.46 112.46,112.46 62.11,0 112.46,-50.35 112.46,-112.46 0,-95.07 77.08,-172.16 172.15,-172.16 95.06,0 172.15,77.09 172.15,172.16 0,62.11 50.34,112.46 112.46,112.46 62.11,0 112.46,-50.35 112.46,-112.46z"/>
   <path class="fil11" d="M1938.45 789.84c0,-95.07 77.08,-172.16 172.15,-172.16 95.08,0 172.15,77.09 172.15,172.16l-59.69 0c0,-62.12 -50.34,-112.46 -112.46,-112.46 -62.11,0 -112.46,50.34 -112.46,112.46 0,95.07 -77.07,172.15 -172.15,172.15 -95.07,0 -172.15,-77.08 -172.15,-172.15 0,-62.12 -50.34,-112.46 -112.46,-112.46 -62.11,0 -112.46,50.34 -112.46,112.46 0,95.07 -77.08,172.15 -172.15,172.15 -95.07,0 -172.15,-77.08 -172.15,-172.15 0,-62.12 -50.34,-112.46 -112.45,-112.46 -62.13,0 -112.47,50.34 -112.47,112.46l-59.7 0c0,-95.07 77.09,-172.16 172.17,-172.16 95.06,0 172.14,77.09 172.14,172.16 0,62.11 50.35,112.46 112.46,112.46 62.12,0 112.46,-50.35 112.46,-112.46 0,-95.07 77.08,-172.16 172.15,-172.16 95.07,0 172.15,77.09 172.15,172.16 0,62.11 50.35,112.46 112.46,112.46 62.12,0 112.46,-50.35 112.46,-112.46z"/>
  </g>
  <g id="_2386399496752">
   <path class="fil12" d="M1713.43 789.84c0,95.07 -77.08,172.15 -172.15,172.15 -95.07,0 -172.15,-77.08 -172.15,-172.15 0,-62.12 -50.35,-112.46 -112.46,-112.46 -62.12,0 -112.46,50.34 -112.46,112.46 0,95.07 -77.09,172.15 -172.15,172.15 -95.07,0 -172.15,-77.08 -172.15,-172.15 0,-62.12 -50.35,-112.46 -112.46,-112.46 -62.11,0 -112.46,50.34 -112.46,112.46 0,95.07 -77.09,172.15 -172.15,172.15 -95.07,0 -172.16,-77.08 -172.16,-172.15l59.7 0c0,62.11 50.34,112.46 112.46,112.46 62.11,0 112.45,-50.35 112.45,-112.46 0,-95.07 77.09,-172.16 172.16,-172.16 95.06,0 172.15,77.09 172.15,172.16 0,62.11 50.34,112.46 112.46,112.46 62.11,0 112.45,-50.35 112.45,-112.46 0,-95.07 77.09,-172.16 172.16,-172.16 95.07,0 172.15,77.09 172.15,172.16 0,62.11 50.35,112.46 112.46,112.46 62.12,0 112.46,-50.35 112.46,-112.46l59.69 0z"/>
   <path class="fil12" d="M2282.65 789.84c0,95.07 -77.07,172.15 -172.15,172.15 -95.07,0 -172.15,-77.08 -172.15,-172.15 0,-62.12 -50.34,-112.46 -112.46,-112.46 -62.11,0 -112.46,50.34 -112.46,112.46 0,95.07 -77.08,172.15 -172.15,172.15 -95.07,0 -172.15,-77.08 -172.15,-172.15 0,-62.12 -50.34,-112.46 -112.46,-112.46 -62.11,0 -112.46,50.34 -112.46,112.46 0,95.07 -77.08,172.15 -172.15,172.15 -95.07,0 -172.16,-77.08 -172.16,-172.15l59.7 0c0,62.11 50.34,112.46 112.46,112.46 62.12,0 112.46,-50.35 112.46,-112.46 0,-95.07 77.08,-172.16 172.15,-172.16 95.07,0 172.15,77.09 172.15,172.16 0,62.11 50.35,112.46 112.46,112.46 62.12,0 112.46,-50.35 112.46,-112.46 0,-95.07 77.08,-172.16 172.15,-172.16 95.08,0 172.15,77.09 172.15,172.16 0,62.11 50.35,112.46 112.46,112.46 62.12,0 112.46,-50.35 112.46,-112.46l59.69 0z"/>
  </g>
  <path class="fil13" d="M111.48 784.97l34.06 -20.07 0 17.03 -8.61 5.05 70.68 0c3.38,-171.37 205.94,-254.02 329.63,-141.52l5.3 -5.73 6.33 18.99 -19.43 -4.83 5.29 -5.72c-122.11,-111.07 -323,-28.19 -323.5,142.5 -24.92,0 -49.15,0 -74.09,0l8.4 5.87 0 16.23 -34.06 -20.73 0 -7.07z"/>
  <path class="fil13" d="M832.89 937.02l5.36 -5.68c75.08,69.59 192.32,70.25 267.66,0.73l5.33 5.71 6.23 -19.03 -19.41 4.93 5.33 5.69c-73.59,68.05 -189.35,67.36 -262.6,-0.71l5.36 -5.67 -19.38 -5.03 6.12 19.06z"/>
  <path class="fil13" d="M1401.21 937.02l5.37 -5.68c75.08,69.59 192.32,70.25 267.66,0.73l5.33 5.71 6.23 -19.03 -19.41 4.93 5.32 5.69c-73.58,68.05 -189.34,67.36 -262.59,-0.71l5.36 -5.67 -19.39 -5.03 6.12 19.06z"/>
  <path class="fil13" d="M2403.89 784.97l-34.06 -20.07 0 17.03 8.61 5.05 -70.68 0c-3.37,-171.37 -205.94,-254.02 -329.62,-141.52l-5.3 -5.73 -6.34 18.99 19.43 -4.83 -5.29 -5.72c122.12,-111.07 323.01,-28.19 323.51,142.5 24.91,0 49.14,0 74.08,0l-8.4 5.87 0 16.23 34.06 -20.73 0 -7.07z"/>
  <path class="fil6" d="M326.32 773.55c2.95,0 5.67,0.88 8.19,2.65l-1.75 2.63c-2.07,-1.48 -4.23,-2.22 -6.44,-2.22 -3.04,0 -5.1,1.25 -6.18,3.73 -0.46,1.07 -0.76,2.33 -0.9,3.79 -0.12,1.45 -0.19,3.24 -0.19,5.34 0,2.1 0.07,3.88 0.19,5.35 0.14,1.45 0.44,2.72 0.9,3.78 1.08,2.48 3.14,3.73 6.18,3.73 3.04,0 5.09,-1.25 6.18,-3.73 0.64,-1.46 1,-3.73 1.07,-6.81l-6.6 0 0 -3.07 10.03 0c0,1.84 -0.01,3.26 -0.05,4.27 -0.04,1 -0.16,2.15 -0.36,3.44 -0.21,1.3 -0.51,2.42 -0.92,3.33 -0.77,1.74 -1.96,3.11 -3.55,4.12 -1.59,1.01 -3.53,1.51 -5.8,1.51 -2.26,0 -4.19,-0.5 -5.79,-1.51 -1.6,-1.01 -2.79,-2.38 -3.56,-4.12 -0.4,-0.88 -0.7,-1.95 -0.91,-3.21 -0.21,-1.25 -0.34,-2.38 -0.38,-3.35 -0.03,-0.97 -0.05,-2.21 -0.05,-3.73 0,-2.34 0.08,-4.33 0.26,-5.98 0.16,-1.65 0.52,-3.09 1.08,-4.31 0.8,-1.76 2,-3.13 3.6,-4.13 1.59,-1 3.52,-1.5 5.75,-1.5z"/>
  <path id="_1_2" class="fil6" d="M351.89 805.33c-1.69,0 -3.18,-0.32 -4.48,-0.96 -1.3,-0.64 -2.33,-1.5 -3.09,-2.62 -0.54,-0.77 -0.95,-1.69 -1.22,-2.75 -0.27,-1.07 -0.42,-1.97 -0.45,-2.71 -0.04,-0.73 -0.06,-1.79 -0.06,-3.16 0,-1.12 0.01,-1.98 0.03,-2.55 0.03,-0.58 0.09,-1.28 0.22,-2.11 0.12,-0.82 0.31,-1.57 0.56,-2.24 0.62,-1.61 1.64,-2.9 3.07,-3.85 1.45,-0.97 3.11,-1.45 4.99,-1.45 1.85,0 3.51,0.48 4.96,1.46 1.45,0.97 2.49,2.25 3.12,3.86 0.37,0.92 0.58,1.84 0.67,2.75 0.08,0.91 0.12,2.28 0.12,4.1l0 0.73 -14.45 0c0,0.95 0.01,1.71 0.04,2.29 0.02,0.57 0.14,1.27 0.34,2.08 0.19,0.81 0.48,1.48 0.86,2.02 1.01,1.45 2.6,2.17 4.77,2.17 1.95,0 4.03,-0.53 6.27,-1.6l1.25 2.72c-2.58,1.21 -5.09,1.82 -7.52,1.82zm5.15 -14.21c-0.03,-1.67 -0.23,-2.99 -0.63,-3.97 -0.4,-1.01 -1.03,-1.8 -1.92,-2.4 -0.88,-0.59 -1.89,-0.88 -3.03,-0.88 -1.18,0 -2.2,0.29 -3.06,0.88 -0.87,0.6 -1.49,1.38 -1.87,2.37 -0.39,1.03 -0.6,2.36 -0.63,4l11.14 0z"/>
  <path id="_2_3" class="fil6" d="M369.74 783.78c1.6,-1.9 3.46,-2.85 5.59,-2.85 0.6,0 1.27,0.08 2.02,0.24l-0.49 2.89c-0.92,-0.13 -1.58,-0.19 -1.96,-0.19 -1.12,0 -2.08,0.26 -2.9,0.78 -0.81,0.53 -1.41,1.23 -1.77,2.12 -0.32,0.78 -0.49,2.15 -0.49,4.12l0 14.09 -3.28 0 0 -23.7 3.28 0 0 2.5z"/>
  <path id="_3_4" class="fil6" d="M389.82 805.33c-1.69,0 -3.18,-0.32 -4.48,-0.96 -1.3,-0.64 -2.33,-1.5 -3.09,-2.62 -0.55,-0.77 -0.95,-1.69 -1.22,-2.75 -0.27,-1.07 -0.42,-1.97 -0.45,-2.71 -0.04,-0.73 -0.06,-1.79 -0.06,-3.16 0,-1.12 0.01,-1.98 0.03,-2.55 0.03,-0.58 0.09,-1.28 0.22,-2.11 0.12,-0.82 0.31,-1.57 0.56,-2.24 0.61,-1.61 1.64,-2.9 3.07,-3.85 1.45,-0.97 3.11,-1.45 4.99,-1.45 1.85,0 3.51,0.48 4.96,1.46 1.45,0.97 2.49,2.25 3.12,3.86 0.37,0.92 0.58,1.84 0.67,2.75 0.08,0.91 0.12,2.28 0.12,4.1l0 0.73 -14.45 0c0,0.95 0.01,1.71 0.04,2.29 0.02,0.57 0.14,1.27 0.34,2.08 0.19,0.81 0.48,1.48 0.86,2.02 1.01,1.45 2.6,2.17 4.77,2.17 1.95,0 4.03,-0.53 6.27,-1.6l1.25 2.72c-2.58,1.21 -5.09,1.82 -7.52,1.82zm5.15 -14.21c-0.03,-1.67 -0.24,-2.99 -0.63,-3.97 -0.4,-1.01 -1.03,-1.8 -1.92,-2.4 -0.89,-0.59 -1.89,-0.88 -3.03,-0.88 -1.18,0 -2.21,0.29 -3.06,0.88 -0.87,0.6 -1.49,1.38 -1.87,2.37 -0.39,1.03 -0.6,2.36 -0.63,4l11.14 0z"/>
  <path id="_4_5" class="fil6" d="M413.7 780.93c1.62,0 3.09,0.42 4.41,1.28 1.32,0.86 2.29,2.05 2.9,3.58 0.22,0.53 0.38,1.13 0.49,1.8 0.1,0.67 0.15,1.23 0.17,1.7 0.01,0.45 0.02,1.12 0.02,2l0 13.69 -3.28 0 0 -13.47c0,-1.39 -0.03,-2.4 -0.09,-3.02 -0.06,-0.62 -0.22,-1.21 -0.48,-1.78 -0.41,-0.9 -1.05,-1.6 -1.9,-2.1 -0.85,-0.5 -1.82,-0.74 -2.9,-0.74 -1.08,0 -2.05,0.24 -2.9,0.74 -0.85,0.5 -1.49,1.2 -1.9,2.1 -0.26,0.57 -0.42,1.16 -0.48,1.78 -0.06,0.62 -0.09,1.63 -0.09,3.02l0 13.47 -3.28 0 0 -23.7 3.28 0 0 2.5c1.73,-1.9 3.73,-2.85 6.03,-2.85z"/>
  <path id="_5_6" class="fil6" d="M436.69 780.93c2.42,0 4.8,0.74 7.16,2.21l-1.55 2.59c-1.91,-1.24 -3.78,-1.86 -5.61,-1.86 -1.9,0 -3.4,0.76 -4.46,2.29 -0.38,0.56 -0.67,1.29 -0.86,2.18 -0.19,0.9 -0.3,1.65 -0.32,2.25 -0.03,0.59 -0.05,1.4 -0.05,2.4 0,1.15 0.01,2.02 0.03,2.63 0.03,0.6 0.12,1.33 0.3,2.17 0.17,0.85 0.44,1.56 0.79,2.15 0.51,0.84 1.17,1.46 1.99,1.86 0.82,0.39 1.68,0.59 2.58,0.59 1,0 2.04,-0.19 3.13,-0.57 1.08,-0.38 2.04,-0.84 2.85,-1.4l1.67 2.5c-1.04,0.69 -2.24,1.27 -3.62,1.73 -1.37,0.45 -2.71,0.68 -4.03,0.68 -1.66,0 -3.15,-0.37 -4.46,-1.11 -1.32,-0.74 -2.32,-1.7 -3.01,-2.9 -0.46,-0.82 -0.81,-1.72 -1.04,-2.71 -0.23,-0.98 -0.38,-1.83 -0.41,-2.56 -0.03,-0.73 -0.05,-1.74 -0.05,-3.06 0,-1.13 0.02,-2.05 0.05,-2.74 0.03,-0.7 0.18,-1.56 0.41,-2.59 0.23,-1.04 0.58,-1.95 1.04,-2.73 0.72,-1.19 1.72,-2.16 3.02,-2.9 1.29,-0.74 2.78,-1.1 4.45,-1.1z"/>
  <path id="_6_7" class="fil6" d="M449.86 774.13c0.39,-0.39 0.89,-0.58 1.48,-0.58 0.6,0 1.09,0.19 1.48,0.58 0.39,0.38 0.59,0.88 0.59,1.48 0,0.59 -0.2,1.09 -0.59,1.48 -0.39,0.38 -0.88,0.58 -1.48,0.58 -0.59,0 -1.09,-0.2 -1.48,-0.58 -0.38,-0.39 -0.57,-0.89 -0.57,-1.48 0,-0.6 0.19,-1.1 0.57,-1.48zm3.13 30.85l-3.29 0 0 -23.7 3.29 0 0 23.7z"/>
  <path id="_7_8" class="fil6" d="M462.07 797.95c0,1.24 0.42,2.29 1.24,3.15 0.82,0.86 1.98,1.29 3.47,1.29 1.2,0 2.27,-0.29 3.2,-0.88 0.93,-0.58 1.59,-1.46 1.97,-2.64 0.13,-0.43 0.23,-0.91 0.29,-1.47 0.07,-0.56 0.11,-1.08 0.12,-1.57 0,-0.49 0,-1.29 0,-2.4l-3.17 0c-2.1,0 -3.49,0.11 -4.16,0.31 -0.95,0.29 -1.68,0.82 -2.19,1.57 -0.51,0.75 -0.77,1.63 -0.77,2.64zm13.58 -7.23l0 14.26 -3.29 0 0 -2.52c-1.66,1.91 -3.67,2.87 -6.01,2.87 -2.22,0 -4.04,-0.71 -5.45,-2.12 -1.41,-1.4 -2.11,-3.16 -2.11,-5.26 0,-1.58 0.45,-2.98 1.34,-4.19 0.9,-1.23 2.17,-2.08 3.8,-2.58 0.49,-0.15 1.02,-0.26 1.6,-0.33 0.58,-0.07 1.1,-0.11 1.53,-0.12 0.44,-0.01 1.11,-0.01 2,-0.01l3.3 0c0,-1.17 -0.01,-2 -0.05,-2.51 -0.04,-0.5 -0.13,-0.97 -0.29,-1.39 -0.37,-0.98 -0.98,-1.71 -1.85,-2.21 -0.86,-0.5 -1.84,-0.74 -2.95,-0.74 -1.62,0 -3.54,0.53 -5.76,1.6l-1.25 -2.73c2.66,-1.21 4.99,-1.81 7.01,-1.81 1.95,0 3.64,0.47 5.11,1.4 1.45,0.94 2.45,2.27 2.97,4.01 0.23,0.77 0.35,2.23 0.35,4.38z"/>
  <path id="_8_9" class="fil6" d="M485.72 783.78c1.59,-1.9 3.46,-2.85 5.59,-2.85 0.59,0 1.27,0.08 2.01,0.24l-0.48 2.89c-0.92,-0.13 -1.58,-0.19 -1.97,-0.19 -1.11,0 -2.08,0.26 -2.89,0.78 -0.82,0.53 -1.41,1.23 -1.77,2.12 -0.32,0.78 -0.49,2.15 -0.49,4.12l0 14.09 -3.28 0 0 -23.7 3.28 0 0 2.5z"/>
  <path class="fil6" d="M601.78 775.06c1.61,-1.01 3.56,-1.51 5.84,-1.51 2.28,0 4.23,0.5 5.85,1.51 1.62,1.01 2.82,2.36 3.61,4.07 0.46,0.97 0.79,2.12 1.02,3.46 0.23,1.34 0.36,2.46 0.39,3.33 0.02,0.88 0.04,2.06 0.04,3.55 0,1.49 -0.02,2.67 -0.04,3.55 -0.03,0.88 -0.16,1.98 -0.39,3.33 -0.23,1.34 -0.56,2.5 -1.02,3.46 -0.79,1.7 -1.99,3.06 -3.61,4.07 -1.62,1.01 -3.57,1.51 -5.85,1.51 -2.28,0 -4.23,-0.5 -5.84,-1.51 -1.62,-1.01 -2.83,-2.37 -3.62,-4.07 -0.45,-0.96 -0.79,-2.12 -1.02,-3.46 -0.22,-1.35 -0.35,-2.45 -0.38,-3.33 -0.03,-0.88 -0.04,-2.06 -0.04,-3.55 0,-1.49 0.01,-2.67 0.04,-3.55 0.03,-0.87 0.16,-1.99 0.38,-3.33 0.23,-1.34 0.57,-2.49 1.02,-3.46 0.79,-1.71 2,-3.06 3.62,-4.07zm9.76 2.53c-1.06,-0.65 -2.37,-0.98 -3.92,-0.98 -1.54,0 -2.85,0.33 -3.92,0.98 -1.06,0.65 -1.86,1.55 -2.39,2.7 -0.36,0.78 -0.63,1.74 -0.82,2.9 -0.18,1.17 -0.28,2.16 -0.31,2.99 -0.03,0.82 -0.05,1.92 -0.05,3.29 0,1.37 0.02,2.47 0.05,3.3 0.03,0.82 0.13,1.81 0.31,2.97 0.19,1.16 0.46,2.13 0.82,2.9 0.53,1.16 1.33,2.06 2.39,2.71 1.07,0.65 2.38,0.98 3.92,0.98 1.55,0 2.86,-0.33 3.92,-0.98 1.07,-0.65 1.86,-1.55 2.39,-2.71 0.36,-0.77 0.64,-1.74 0.82,-2.9 0.18,-1.16 0.29,-2.15 0.32,-2.97 0.03,-0.83 0.04,-1.93 0.04,-3.3 0,-1.37 -0.01,-2.47 -0.04,-3.29 -0.03,-0.83 -0.14,-1.82 -0.32,-2.99 -0.18,-1.16 -0.46,-2.12 -0.82,-2.9 -0.53,-1.15 -1.32,-2.05 -2.39,-2.7z"/>
  <path id="_1_10" class="fil6" d="M628.17 783.78c1.59,-1.9 3.45,-2.85 5.58,-2.85 0.6,0 1.27,0.08 2.02,0.24l-0.49 2.89c-0.92,-0.13 -1.58,-0.19 -1.96,-0.19 -1.12,0 -2.08,0.26 -2.9,0.78 -0.81,0.53 -1.41,1.23 -1.77,2.12 -0.32,0.78 -0.48,2.15 -0.48,4.12l0 14.09 -3.29 0 0 -23.7 3.29 0 0 2.5z"/>
  <path id="_2_11" class="fil6" d="M647.59 780.93c2.44,0 4.52,0.95 6.24,2.87l0 -2.52 3.29 0 0 21.27c0,2.57 -0.12,4.3 -0.35,5.21 -0.56,2.14 -1.68,3.77 -3.35,4.89 -1.68,1.12 -3.63,1.68 -5.83,1.68 -2.34,0 -4.79,-0.53 -7.36,-1.6l1.1 -2.76c2.27,0.95 4.36,1.42 6.26,1.42 1.52,0 2.81,-0.37 3.88,-1.11 1.08,-0.75 1.78,-1.84 2.12,-3.29 0.16,-0.7 0.24,-2.21 0.24,-4.53 -1.72,1.91 -3.8,2.87 -6.24,2.87 -1.49,0 -2.84,-0.32 -4.06,-0.97 -1.21,-0.64 -2.16,-1.49 -2.84,-2.54 -0.73,-1.12 -1.21,-2.33 -1.42,-3.62 -0.22,-1.3 -0.33,-2.99 -0.33,-5.07 0,-2.09 0.11,-3.78 0.33,-5.07 0.21,-1.29 0.69,-2.51 1.42,-3.63 0.68,-1.05 1.63,-1.9 2.84,-2.54 1.22,-0.64 2.57,-0.96 4.06,-0.96zm4.93 5.08c-1.04,-1.43 -2.53,-2.14 -4.49,-2.14 -1.96,0 -3.46,0.71 -4.5,2.14 -0.55,0.76 -0.91,1.68 -1.06,2.76 -0.17,1.08 -0.24,2.53 -0.24,4.36 0,1.82 0.07,3.28 0.24,4.36 0.15,1.08 0.51,2 1.06,2.75 1.04,1.44 2.54,2.15 4.5,2.15 1.96,0 3.45,-0.71 4.49,-2.15 0.55,-0.75 0.91,-1.67 1.07,-2.75 0.16,-1.08 0.24,-2.54 0.24,-4.36 0,-1.83 -0.08,-3.28 -0.24,-4.36 -0.16,-1.08 -0.52,-2 -1.07,-2.76z"/>
  <path id="_3_12" class="fil6" d="M666.09 797.95c0,1.24 0.42,2.29 1.25,3.15 0.82,0.86 1.98,1.29 3.46,1.29 1.2,0 2.27,-0.29 3.2,-0.88 0.94,-0.58 1.6,-1.46 1.98,-2.64 0.12,-0.43 0.23,-0.91 0.29,-1.47 0.07,-0.56 0.1,-1.08 0.11,-1.57 0.01,-0.49 0.01,-1.29 0.01,-2.4l-3.17 0c-2.11,0 -3.49,0.11 -4.16,0.31 -0.95,0.29 -1.69,0.82 -2.2,1.57 -0.5,0.75 -0.77,1.63 -0.77,2.64zm13.59 -7.23l0 14.26 -3.29 0 0 -2.52c-1.66,1.91 -3.67,2.87 -6.02,2.87 -2.22,0 -4.04,-0.71 -5.44,-2.12 -1.41,-1.4 -2.12,-3.16 -2.12,-5.26 0,-1.58 0.45,-2.98 1.35,-4.19 0.9,-1.23 2.17,-2.08 3.8,-2.58 0.48,-0.15 1.01,-0.26 1.6,-0.33 0.58,-0.07 1.1,-0.11 1.53,-0.12 0.44,-0.01 1.11,-0.01 1.99,-0.01l3.31 0c0,-1.17 -0.02,-2 -0.05,-2.51 -0.04,-0.5 -0.14,-0.97 -0.3,-1.39 -0.36,-0.98 -0.97,-1.71 -1.84,-2.21 -0.86,-0.5 -1.85,-0.74 -2.95,-0.74 -1.63,0 -3.55,0.53 -5.77,1.6l-1.25 -2.73c2.66,-1.21 5,-1.81 7.02,-1.81 1.94,0 3.64,0.47 5.1,1.4 1.46,0.94 2.45,2.27 2.98,4.01 0.23,0.77 0.35,2.23 0.35,4.38z"/>
  <path id="_4_13" class="fil6" d="M695.77 780.93c1.62,0 3.09,0.42 4.41,1.28 1.32,0.86 2.29,2.05 2.9,3.58 0.23,0.53 0.38,1.13 0.49,1.8 0.1,0.67 0.15,1.23 0.17,1.7 0.01,0.45 0.02,1.12 0.02,2l0 13.69 -3.28 0 0 -13.47c0,-1.39 -0.03,-2.4 -0.09,-3.02 -0.06,-0.62 -0.22,-1.21 -0.48,-1.78 -0.41,-0.9 -1.04,-1.6 -1.9,-2.1 -0.85,-0.5 -1.82,-0.74 -2.9,-0.74 -1.08,0 -2.05,0.24 -2.9,0.74 -0.85,0.5 -1.48,1.2 -1.9,2.1 -0.26,0.57 -0.41,1.16 -0.47,1.78 -0.06,0.62 -0.09,1.63 -0.09,3.02l0 13.47 -3.29 0 0 -23.7 3.29 0 0 2.5c1.72,-1.9 3.73,-2.85 6.02,-2.85z"/>
  <path id="_5_14" class="fil6" d="M710.83 774.13c0.39,-0.39 0.88,-0.58 1.48,-0.58 0.59,0 1.09,0.19 1.48,0.58 0.39,0.38 0.58,0.88 0.58,1.48 0,0.59 -0.19,1.09 -0.58,1.48 -0.39,0.38 -0.89,0.58 -1.48,0.58 -0.6,0 -1.09,-0.2 -1.48,-0.58 -0.39,-0.39 -0.58,-0.89 -0.58,-1.48 0,-0.6 0.19,-1.1 0.58,-1.48zm3.12 30.85l-3.29 0 0 -23.7 3.29 0 0 23.7z"/>
  <polygon id="_6_15" class="fil6" points="735.08,802.04 735.08,804.98 719.31,804.98 719.31,802.61 730.83,784.22 719.47,784.22 719.47,781.28 734.88,781.28 734.88,783.64 723.36,802.04 "/>
  <path id="_7_16" class="fil6" d="M742.09 797.95c0,1.24 0.42,2.29 1.24,3.15 0.82,0.86 1.98,1.29 3.47,1.29 1.19,0 2.26,-0.29 3.2,-0.88 0.93,-0.58 1.59,-1.46 1.97,-2.64 0.13,-0.43 0.23,-0.91 0.29,-1.47 0.07,-0.56 0.11,-1.08 0.11,-1.57 0.01,-0.49 0.01,-1.29 0.01,-2.4l-3.17 0c-2.11,0 -3.49,0.11 -4.16,0.31 -0.95,0.29 -1.68,0.82 -2.19,1.57 -0.51,0.75 -0.77,1.63 -0.77,2.64zm13.58 -7.23l0 14.26 -3.29 0 0 -2.52c-1.66,1.91 -3.67,2.87 -6.02,2.87 -2.22,0 -4.03,-0.71 -5.44,-2.12 -1.41,-1.4 -2.11,-3.16 -2.11,-5.26 0,-1.58 0.44,-2.98 1.34,-4.19 0.9,-1.23 2.17,-2.08 3.8,-2.58 0.48,-0.15 1.02,-0.26 1.6,-0.33 0.58,-0.07 1.1,-0.11 1.53,-0.12 0.44,-0.01 1.11,-0.01 2,-0.01l3.3 0c0,-1.17 -0.01,-2 -0.05,-2.51 -0.04,-0.5 -0.14,-0.97 -0.29,-1.39 -0.37,-0.98 -0.98,-1.71 -1.85,-2.21 -0.86,-0.5 -1.85,-0.74 -2.95,-0.74 -1.62,0 -3.55,0.53 -5.77,1.6l-1.24 -2.73c2.66,-1.21 4.99,-1.81 7.01,-1.81 1.94,0 3.64,0.47 5.1,1.4 1.46,0.94 2.46,2.27 2.98,4.01 0.23,0.77 0.35,2.23 0.35,4.38z"/>
  <path id="_8_17" class="fil6" d="M765.74 783.78c1.59,-1.9 3.45,-2.85 5.58,-2.85 0.6,0 1.27,0.08 2.02,0.24l-0.48 2.89c-0.92,-0.13 -1.58,-0.19 -1.97,-0.19 -1.11,0 -2.08,0.26 -2.89,0.78 -0.82,0.53 -1.42,1.23 -1.78,2.12 -0.32,0.78 -0.48,2.15 -0.48,4.12l0 14.09 -3.28 0 0 -23.7 3.28 0 0 2.5z"/>
  <path class="fil6" d="M897.76 774.89c2.95,0 5.68,0.88 8.19,2.64l-1.75 2.64c-2.07,-1.48 -4.22,-2.22 -6.44,-2.22 -3.04,0 -5.1,1.24 -6.18,3.73 -0.46,1.07 -0.76,2.33 -0.9,3.79 -0.12,1.45 -0.19,3.24 -0.19,5.34 0,2.1 0.07,3.88 0.19,5.34 0.14,1.46 0.44,2.73 0.9,3.79 1.08,2.48 3.14,3.73 6.18,3.73 2.69,0 5.05,-0.88 7.1,-2.61l1.93 2.54c-2.67,2.09 -5.67,3.13 -9.03,3.13 -2.26,0 -4.19,-0.51 -5.79,-1.51 -1.6,-1.01 -2.79,-2.38 -3.56,-4.12 -0.39,-0.88 -0.7,-1.95 -0.91,-3.21 -0.21,-1.26 -0.34,-2.38 -0.37,-3.35 -0.04,-0.97 -0.06,-2.21 -0.06,-3.73 0,-2.34 0.09,-4.33 0.26,-5.98 0.16,-1.65 0.52,-3.09 1.08,-4.31 0.8,-1.76 2,-3.14 3.6,-4.13 1.6,-1 3.52,-1.5 5.75,-1.5z"/>
  <path id="_1_18" class="fil6" d="M923.71 786.93c-1,-1.15 -2.46,-1.73 -4.36,-1.73 -1.9,0 -3.35,0.58 -4.36,1.73 -0.39,0.46 -0.71,0.97 -0.95,1.53 -0.24,0.56 -0.41,1.21 -0.5,1.96 -0.09,0.76 -0.15,1.38 -0.18,1.89 -0.02,0.5 -0.03,1.22 -0.03,2.16 0,0.93 0.01,1.65 0.03,2.16 0.03,0.5 0.09,1.13 0.18,1.88 0.09,0.75 0.26,1.41 0.5,1.97 0.24,0.56 0.56,1.06 0.95,1.52 1.01,1.15 2.46,1.73 4.36,1.73 1.9,0 3.36,-0.58 4.36,-1.73 0.39,-0.46 0.72,-0.96 0.96,-1.52 0.23,-0.56 0.4,-1.22 0.5,-1.97 0.09,-0.75 0.15,-1.38 0.18,-1.88 0.02,-0.51 0.03,-1.23 0.03,-2.16 0,-0.94 -0.01,-1.66 -0.03,-2.16 -0.03,-0.51 -0.09,-1.13 -0.18,-1.89 -0.1,-0.75 -0.27,-1.4 -0.5,-1.96 -0.24,-0.56 -0.57,-1.07 -0.96,-1.53zm-8.3 -3.91c1.18,-0.5 2.5,-0.75 3.94,-0.75 1.45,0 2.76,0.25 3.95,0.75 1.18,0.51 2.15,1.17 2.91,2.01 0.58,0.64 1.05,1.34 1.41,2.09 0.36,0.75 0.6,1.59 0.75,2.52 0.13,0.92 0.22,1.69 0.25,2.3 0.03,0.6 0.04,1.44 0.04,2.53 0,1.08 -0.01,1.92 -0.04,2.52 -0.03,0.61 -0.12,1.38 -0.25,2.31 -0.15,0.92 -0.39,1.76 -0.75,2.51 -0.36,0.75 -0.83,1.45 -1.41,2.1 -0.76,0.83 -1.73,1.49 -2.91,2 -1.19,0.5 -2.5,0.76 -3.95,0.76 -1.44,0 -2.76,-0.26 -3.94,-0.76 -1.18,-0.51 -2.15,-1.17 -2.91,-2 -0.59,-0.65 -1.06,-1.35 -1.42,-2.1 -0.35,-0.75 -0.6,-1.59 -0.74,-2.51 -0.14,-0.93 -0.22,-1.7 -0.25,-2.31 -0.03,-0.6 -0.05,-1.44 -0.05,-2.52 0,-1.09 0.02,-1.93 0.05,-2.53 0.03,-0.61 0.11,-1.38 0.25,-2.3 0.14,-0.93 0.39,-1.77 0.74,-2.52 0.36,-0.75 0.83,-1.45 1.42,-2.09 0.76,-0.84 1.73,-1.5 2.91,-2.01z"/>
  <path id="_2_19" class="fil6" d="M944.21 782.27c1.62,0 3.09,0.42 4.41,1.28 1.33,0.85 2.29,2.05 2.9,3.58 0.23,0.53 0.38,1.12 0.49,1.8 0.1,0.67 0.16,1.23 0.17,1.69 0.02,0.46 0.02,1.13 0.02,2.01l0 13.68 -3.28 0 0 -13.47c0,-1.38 -0.03,-2.39 -0.09,-3.01 -0.06,-0.62 -0.21,-1.21 -0.48,-1.78 -0.41,-0.9 -1.04,-1.6 -1.89,-2.11 -0.86,-0.49 -1.83,-0.74 -2.91,-0.74 -1.08,0 -2.04,0.25 -2.9,0.74 -0.85,0.51 -1.48,1.21 -1.89,2.11 -0.27,0.57 -0.42,1.16 -0.48,1.78 -0.06,0.62 -0.09,1.63 -0.09,3.01l0 13.47 -3.28 0 0 -23.69 3.28 0 0 2.49c1.72,-1.89 3.73,-2.84 6.02,-2.84z"/>
  <path id="_3_20" class="fil6" d="M959.66 799.68l0 -14.35 -3.29 0 0 -2.71 3.29 0 0 -5.12 3.28 0 0 5.12 4.38 0 0 2.71 -4.38 0 0 14.35c0,1.57 0.07,2.52 0.19,2.84 0.34,0.81 0.97,1.21 1.89,1.21 0.76,0 1.59,-0.23 2.49,-0.71l1.27 2.73c-1.39,0.61 -2.72,0.92 -3.98,0.92 -1.24,0 -2.29,-0.3 -3.14,-0.9 -0.86,-0.6 -1.44,-1.46 -1.76,-2.57 -0.17,-0.55 -0.24,-1.72 -0.24,-3.52z"/>
  <path id="_4_21" class="fil6" d="M976.56 785.11c1.59,-1.89 3.45,-2.84 5.58,-2.84 0.6,0 1.27,0.08 2.02,0.24l-0.49 2.89c-0.91,-0.13 -1.57,-0.2 -1.96,-0.2 -1.12,0 -2.08,0.27 -2.89,0.79 -0.82,0.53 -1.42,1.23 -1.78,2.12 -0.32,0.78 -0.48,2.15 -0.48,4.12l0 14.08 -3.28 0 0 -23.69 3.28 0 0 2.49z"/>
  <path id="_5_22" class="fil6" d="M1000.99 786.93c-1,-1.15 -2.46,-1.73 -4.35,-1.73 -1.9,0 -3.35,0.58 -4.36,1.73 -0.39,0.46 -0.71,0.97 -0.95,1.53 -0.24,0.56 -0.41,1.21 -0.5,1.96 -0.1,0.76 -0.16,1.38 -0.18,1.89 -0.02,0.5 -0.03,1.22 -0.03,2.16 0,0.93 0.01,1.65 0.03,2.16 0.02,0.5 0.08,1.13 0.18,1.88 0.09,0.75 0.26,1.41 0.5,1.97 0.24,0.56 0.56,1.06 0.95,1.52 1.01,1.15 2.46,1.73 4.36,1.73 1.89,0 3.35,-0.58 4.35,-1.73 0.4,-0.46 0.72,-0.96 0.96,-1.52 0.24,-0.56 0.41,-1.22 0.5,-1.97 0.1,-0.75 0.16,-1.38 0.18,-1.88 0.02,-0.51 0.03,-1.23 0.03,-2.16 0,-0.94 -0.01,-1.66 -0.03,-2.16 -0.02,-0.51 -0.08,-1.13 -0.18,-1.89 -0.09,-0.75 -0.26,-1.4 -0.5,-1.96 -0.24,-0.56 -0.56,-1.07 -0.96,-1.53zm-8.29 -3.91c1.18,-0.5 2.49,-0.75 3.94,-0.75 1.45,0 2.75,0.25 3.94,0.75 1.18,0.51 2.16,1.17 2.91,2.01 0.58,0.64 1.06,1.34 1.41,2.09 0.36,0.75 0.61,1.59 0.75,2.52 0.14,0.92 0.23,1.69 0.26,2.3 0.03,0.6 0.03,1.44 0.03,2.53 0,1.08 0,1.92 -0.03,2.52 -0.03,0.61 -0.12,1.38 -0.26,2.31 -0.14,0.92 -0.39,1.76 -0.75,2.51 -0.35,0.75 -0.83,1.45 -1.41,2.1 -0.75,0.83 -1.73,1.49 -2.91,2 -1.19,0.5 -2.49,0.76 -3.94,0.76 -1.45,0 -2.76,-0.26 -3.94,-0.76 -1.18,-0.51 -2.16,-1.17 -2.92,-2 -0.58,-0.65 -1.05,-1.35 -1.41,-2.1 -0.35,-0.75 -0.61,-1.59 -0.74,-2.51 -0.14,-0.93 -0.22,-1.7 -0.26,-2.31 -0.03,-0.6 -0.04,-1.44 -0.04,-2.52 0,-1.09 0.01,-1.93 0.04,-2.53 0.04,-0.61 0.12,-1.38 0.26,-2.3 0.13,-0.93 0.39,-1.77 0.74,-2.52 0.36,-0.75 0.83,-1.45 1.41,-2.09 0.76,-0.84 1.74,-1.5 2.92,-2.01z"/>
  <path id="_6_23" class="fil6" d="M1017.49 803.6l0.53 2.8c-0.59,0.18 -1.26,0.27 -2.01,0.27 -1.21,0 -2.2,-0.49 -2.99,-1.45 -0.55,-0.67 -0.83,-1.7 -0.83,-3.09l0 -28.58 3.28 0 0 28.58c0,0.66 0.09,1.09 0.24,1.29 0.17,0.21 0.42,0.31 0.77,0.31 0.32,0 0.66,-0.05 1.01,-0.13z"/>
  <path id="_7_24" class="fil6" d="M1024.8 799.29c0,1.24 0.42,2.29 1.24,3.14 0.83,0.87 1.98,1.3 3.47,1.3 1.2,0 2.27,-0.29 3.2,-0.88 0.94,-0.58 1.59,-1.46 1.98,-2.64 0.12,-0.43 0.23,-0.91 0.29,-1.48 0.06,-0.55 0.1,-1.07 0.11,-1.56 0.01,-0.49 0.01,-1.29 0.01,-2.4l-3.17 0c-2.11,0 -3.49,0.11 -4.17,0.31 -0.95,0.29 -1.68,0.81 -2.19,1.57 -0.51,0.75 -0.77,1.63 -0.77,2.64zm13.59 -7.23l0 14.25 -3.29 0 0 -2.51c-1.66,1.91 -3.67,2.87 -6.02,2.87 -2.22,0 -4.04,-0.71 -5.44,-2.12 -1.42,-1.41 -2.12,-3.16 -2.12,-5.26 0,-1.58 0.45,-2.98 1.35,-4.2 0.89,-1.22 2.17,-2.07 3.79,-2.58 0.49,-0.14 1.02,-0.25 1.6,-0.32 0.59,-0.07 1.1,-0.12 1.54,-0.12 0.44,-0.01 1.1,-0.01 1.99,-0.01l3.31 0c0,-1.17 -0.02,-2 -0.06,-2.51 -0.03,-0.5 -0.13,-0.97 -0.29,-1.39 -0.36,-0.98 -0.98,-1.71 -1.84,-2.22 -0.86,-0.49 -1.85,-0.74 -2.96,-0.74 -1.62,0 -3.54,0.53 -5.76,1.6l-1.25 -2.72c2.66,-1.21 5,-1.81 7.01,-1.81 1.95,0 3.64,0.47 5.11,1.4 1.46,0.94 2.45,2.27 2.97,4.01 0.24,0.77 0.36,2.23 0.36,4.38z"/>
  <path id="_8_25" class="fil6" d="M1048.45 785.11c1.6,-1.89 3.46,-2.84 5.59,-2.84 0.6,0 1.27,0.08 2.02,0.24l-0.49 2.89c-0.92,-0.13 -1.58,-0.2 -1.96,-0.2 -1.12,0 -2.08,0.27 -2.9,0.79 -0.81,0.53 -1.41,1.23 -1.77,2.12 -0.32,0.78 -0.49,2.15 -0.49,4.12l0 14.08 -3.28 0 0 -23.69 3.28 0 0 2.49z"/>
  <path class="fil6" d="M1197.04 794.42l-5.15 -15.83 -5.15 15.83 10.3 0zm-6.8 -20.45l3.29 0 10.51 31.01 -3.56 0 -2.44 -7.49 -12.3 0 -2.43 7.49 -3.58 0 10.51 -31.01z"/>
  <path id="_1_26" class="fil6" d="M1211.7 783.78c1.6,-1.9 3.46,-2.85 5.59,-2.85 0.6,0 1.27,0.08 2.02,0.24l-0.49 2.89c-0.92,-0.13 -1.58,-0.19 -1.96,-0.19 -1.12,0 -2.08,0.26 -2.9,0.78 -0.81,0.53 -1.41,1.23 -1.77,2.12 -0.32,0.78 -0.49,2.15 -0.49,4.12l0 14.09 -3.28 0 0 -23.7 3.28 0 0 2.5z"/>
  <path id="_2_27" class="fil6" d="M1231.13 780.93c2.44,0 4.52,0.95 6.24,2.87l0 -2.52 3.29 0 0 32.76 -3.29 0 0 -11.58c-1.72,1.91 -3.8,2.87 -6.24,2.87 -1.49,0 -2.84,-0.32 -4.06,-0.97 -1.21,-0.64 -2.16,-1.49 -2.84,-2.54 -0.73,-1.12 -1.21,-2.33 -1.42,-3.62 -0.22,-1.3 -0.33,-2.99 -0.33,-5.07 0,-2.09 0.11,-3.78 0.33,-5.07 0.21,-1.29 0.69,-2.51 1.42,-3.63 0.68,-1.05 1.63,-1.9 2.84,-2.54 1.22,-0.64 2.57,-0.96 4.06,-0.96zm4.93 5.08c-1.04,-1.43 -2.54,-2.14 -4.49,-2.14 -1.96,0 -3.46,0.71 -4.5,2.14 -0.55,0.76 -0.91,1.68 -1.06,2.76 -0.17,1.08 -0.24,2.53 -0.24,4.36 0,1.82 0.07,3.28 0.24,4.36 0.15,1.08 0.51,2 1.06,2.75 1.04,1.44 2.54,2.15 4.5,2.15 1.95,0 3.45,-0.71 4.49,-2.15 0.55,-0.75 0.91,-1.67 1.07,-2.75 0.16,-1.08 0.24,-2.54 0.24,-4.36 0,-1.83 -0.08,-3.28 -0.24,-4.36 -0.16,-1.08 -0.52,-2 -1.07,-2.76z"/>
  <path id="_3_28" class="fil6" d="M1247.45 781.28l3.28 0 0 13.69c0,1.97 0.12,3.29 0.33,3.96 0.37,1.13 1,1.99 1.91,2.58 0.9,0.59 1.94,0.88 3.13,0.88 1.18,0 2.23,-0.29 3.13,-0.88 0.91,-0.59 1.54,-1.45 1.91,-2.58 0.22,-0.67 0.33,-1.99 0.33,-3.96l0 -13.69 3.28 0 0 13.9c0,0.78 -0.01,1.37 -0.02,1.79 -0.02,0.42 -0.07,0.93 -0.15,1.55 -0.09,0.61 -0.23,1.16 -0.42,1.66 -0.61,1.66 -1.62,2.93 -3.01,3.82 -1.4,0.89 -3.08,1.33 -5.05,1.33 -1.97,0 -3.66,-0.44 -5.05,-1.33 -1.39,-0.89 -2.4,-2.16 -3.01,-3.82 -0.19,-0.5 -0.33,-1.05 -0.42,-1.66 -0.09,-0.62 -0.14,-1.13 -0.15,-1.55 -0.02,-0.42 -0.02,-1.01 -0.02,-1.79l0 -13.9z"/>
  <path id="_4_29" class="fil6" d="M1271.81 774.13c0.38,-0.39 0.88,-0.58 1.48,-0.58 0.59,0 1.09,0.19 1.48,0.58 0.39,0.38 0.58,0.88 0.58,1.48 0,0.59 -0.19,1.09 -0.58,1.48 -0.39,0.38 -0.89,0.58 -1.48,0.58 -0.6,0 -1.1,-0.2 -1.48,-0.58 -0.39,-0.39 -0.58,-0.89 -0.58,-1.48 0,-0.6 0.19,-1.1 0.58,-1.48zm3.12 30.85l-3.29 0 0 -23.7 3.29 0 0 23.7z"/>
  <polygon id="_5_30" class="fil6" points="1287.8,804.98 1279.86,781.28 1283.3,781.28 1289.38,800.77 1295.47,781.28 1298.91,781.28 1290.96,804.98 "/>
  <path id="_6_31" class="fil6" d="M1305.26 797.95c0,1.24 0.42,2.29 1.24,3.15 0.82,0.86 1.98,1.29 3.47,1.29 1.19,0 2.26,-0.29 3.2,-0.88 0.93,-0.58 1.59,-1.46 1.97,-2.64 0.13,-0.43 0.23,-0.91 0.29,-1.47 0.07,-0.56 0.11,-1.08 0.11,-1.57 0.01,-0.49 0.01,-1.29 0.01,-2.4l-3.17 0c-2.11,0 -3.49,0.11 -4.16,0.31 -0.95,0.29 -1.68,0.82 -2.19,1.57 -0.51,0.75 -0.77,1.63 -0.77,2.64zm13.58 -7.23l0 14.26 -3.29 0 0 -2.52c-1.66,1.91 -3.67,2.87 -6.02,2.87 -2.22,0 -4.03,-0.71 -5.44,-2.12 -1.41,-1.4 -2.11,-3.16 -2.11,-5.26 0,-1.58 0.44,-2.98 1.34,-4.19 0.9,-1.23 2.17,-2.08 3.8,-2.58 0.48,-0.15 1.02,-0.26 1.6,-0.33 0.58,-0.07 1.1,-0.11 1.53,-0.12 0.44,-0.01 1.11,-0.01 2,-0.01l3.3 0c0,-1.17 -0.01,-2 -0.05,-2.51 -0.04,-0.5 -0.14,-0.97 -0.29,-1.39 -0.37,-0.98 -0.98,-1.71 -1.85,-2.21 -0.86,-0.5 -1.85,-0.74 -2.95,-0.74 -1.62,0 -3.55,0.53 -5.77,1.6l-1.24 -2.73c2.66,-1.21 4.99,-1.81 7.01,-1.81 1.94,0 3.64,0.47 5.1,1.4 1.46,0.94 2.46,2.27 2.98,4.01 0.23,0.77 0.35,2.23 0.35,4.38z"/>
  <path id="_7_32" class="fil6" d="M1328.91 783.78c1.59,-1.9 3.45,-2.85 5.58,-2.85 0.6,0 1.27,0.08 2.02,0.24l-0.49 2.89c-0.91,-0.13 -1.57,-0.19 -1.96,-0.19 -1.11,0 -2.08,0.26 -2.89,0.78 -0.82,0.53 -1.42,1.23 -1.78,2.12 -0.32,0.78 -0.48,2.15 -0.48,4.12l0 14.09 -3.28 0 0 -23.7 3.28 0 0 2.5z"/>
  <path class="fil6" d="M1454.46 776.61l0 24.88 4.45 0c0.75,0 1.33,-0.01 1.77,-0.02 0.43,-0.02 0.96,-0.08 1.6,-0.21 0.63,-0.13 1.15,-0.3 1.56,-0.54 0.51,-0.29 0.96,-0.66 1.36,-1.09 0.4,-0.44 0.72,-0.87 0.97,-1.31 0.25,-0.42 0.47,-0.97 0.65,-1.63 0.17,-0.67 0.31,-1.25 0.39,-1.74 0.09,-0.48 0.16,-1.14 0.2,-1.96 0.05,-0.81 0.07,-1.45 0.08,-1.91 0,-0.46 0.01,-1.14 0.01,-2.03 0,-0.89 -0.01,-1.57 -0.01,-2.02 -0.01,-0.47 -0.03,-1.1 -0.08,-1.92 -0.04,-0.82 -0.11,-1.47 -0.2,-1.96 -0.08,-0.49 -0.22,-1.06 -0.39,-1.73 -0.18,-0.66 -0.4,-1.21 -0.65,-1.64 -0.25,-0.44 -0.57,-0.87 -0.97,-1.3 -0.4,-0.45 -0.85,-0.81 -1.36,-1.1 -0.41,-0.23 -0.93,-0.41 -1.56,-0.54 -0.64,-0.12 -1.17,-0.19 -1.6,-0.2 -0.44,-0.02 -1.02,-0.03 -1.77,-0.03l-4.45 0zm-3.41 -3.06l7.86 0c2.19,0 3.87,0.16 5.02,0.5 1.34,0.4 2.49,1.06 3.44,1.98 0.96,0.93 1.71,2 2.25,3.21 0.39,0.9 0.7,1.99 0.9,3.25 0.2,1.26 0.32,2.31 0.35,3.15 0.03,0.83 0.05,1.96 0.05,3.41 0,1.45 -0.02,2.58 -0.05,3.42 -0.03,0.83 -0.15,1.88 -0.35,3.14 -0.2,1.26 -0.51,2.35 -0.9,3.25 -0.54,1.21 -1.29,2.28 -2.25,3.21 -0.95,0.92 -2.1,1.59 -3.44,1.99 -1.15,0.33 -2.83,0.5 -5.02,0.5l-7.86 0 0 -31.01z"/>
  <path id="_1_33" class="fil6" d="M1485.8 804.91c-1.69,0 -3.18,-0.32 -4.48,-0.96 -1.3,-0.63 -2.34,-1.5 -3.09,-2.61 -0.55,-0.77 -0.95,-1.69 -1.22,-2.76 -0.27,-1.06 -0.43,-1.97 -0.46,-2.71 -0.03,-0.73 -0.06,-1.79 -0.06,-3.16 0,-1.12 0.02,-1.97 0.04,-2.55 0.02,-0.58 0.09,-1.28 0.22,-2.11 0.12,-0.82 0.31,-1.57 0.56,-2.24 0.61,-1.61 1.64,-2.89 3.07,-3.85 1.44,-0.97 3.1,-1.45 4.99,-1.45 1.85,0 3.5,0.48 4.95,1.46 1.46,0.97 2.5,2.25 3.13,3.86 0.36,0.92 0.58,1.84 0.66,2.75 0.09,0.91 0.12,2.28 0.12,4.11l0 0.72 -14.45 0c0,0.95 0.02,1.71 0.05,2.29 0.02,0.57 0.14,1.27 0.33,2.08 0.2,0.81 0.49,1.48 0.87,2.02 1,1.45 2.6,2.17 4.77,2.17 1.94,0 4.03,-0.53 6.27,-1.6l1.24 2.72c-2.58,1.21 -5.08,1.82 -7.51,1.82zm5.15 -14.21c-0.03,-1.67 -0.24,-2.99 -0.63,-3.97 -0.4,-1.01 -1.04,-1.8 -1.93,-2.4 -0.88,-0.59 -1.89,-0.88 -3.02,-0.88 -1.18,0 -2.21,0.29 -3.07,0.88 -0.86,0.6 -1.48,1.38 -1.86,2.38 -0.4,1.02 -0.6,2.35 -0.63,3.99l11.14 0z"/>
  <path id="_2_34" class="fil6" d="M1507.33 780.51c2.17,0 4.68,0.6 7.51,1.79l-1.11 2.79c-2.57,-1.1 -4.7,-1.64 -6.4,-1.64 -0.85,0 -1.59,0.12 -2.23,0.37 -0.64,0.25 -1.13,0.57 -1.45,0.96 -0.32,0.39 -0.55,0.79 -0.71,1.19 -0.15,0.39 -0.23,0.77 -0.23,1.15 0,0.74 0.2,1.37 0.61,1.92 0.4,0.55 0.9,0.96 1.51,1.24 0.6,0.28 1.59,0.52 2.95,0.71 1.37,0.19 2.51,0.46 3.43,0.8 1.28,0.48 2.36,1.26 3.24,2.34 0.88,1.08 1.31,2.36 1.31,3.83 0,1.86 -0.75,3.48 -2.25,4.87 -1.51,1.38 -3.56,2.08 -6.18,2.08 -2.45,0 -5.21,-0.68 -8.28,-2.04l1.19 -2.74c2.71,1.23 5.08,1.84 7.09,1.84 0.91,0 1.7,-0.12 2.4,-0.37 0.69,-0.25 1.23,-0.58 1.61,-0.98 0.38,-0.41 0.66,-0.84 0.86,-1.29 0.18,-0.44 0.28,-0.9 0.28,-1.37 0,-0.83 -0.25,-1.55 -0.75,-2.16 -0.49,-0.62 -1.1,-1.07 -1.84,-1.34 -0.49,-0.19 -1.49,-0.4 -2.99,-0.64 -1.51,-0.23 -2.7,-0.55 -3.6,-0.96 -1.12,-0.52 -2.05,-1.28 -2.78,-2.27 -0.73,-1 -1.09,-2.15 -1.09,-3.47 0,-1.79 0.72,-3.34 2.15,-4.65 1.44,-1.3 3.36,-1.96 5.75,-1.96z"/>
  <path id="_3_35" class="fil6" d="M1529.67 780.51c2.41,0 4.79,0.74 7.16,2.21l-1.56 2.59c-1.9,-1.24 -3.77,-1.86 -5.6,-1.86 -1.91,0 -3.41,0.76 -4.47,2.29 -0.38,0.56 -0.66,1.29 -0.86,2.18 -0.18,0.9 -0.3,1.65 -0.32,2.25 -0.03,0.6 -0.04,1.4 -0.04,2.4 0,1.15 0,2.02 0.03,2.63 0.02,0.6 0.12,1.33 0.3,2.17 0.17,0.85 0.43,1.57 0.78,2.15 0.51,0.84 1.17,1.46 2,1.86 0.81,0.4 1.67,0.59 2.58,0.59 0.99,0 2.03,-0.19 3.12,-0.57 1.08,-0.38 2.04,-0.84 2.86,-1.4l1.66 2.5c-1.04,0.7 -2.24,1.27 -3.62,1.73 -1.36,0.45 -2.71,0.68 -4.02,0.68 -1.66,0 -3.16,-0.37 -4.47,-1.11 -1.31,-0.74 -2.31,-1.7 -3,-2.9 -0.47,-0.82 -0.82,-1.72 -1.05,-2.7 -0.23,-0.99 -0.37,-1.84 -0.4,-2.57 -0.04,-0.72 -0.06,-1.74 -0.06,-3.06 0,-1.13 0.02,-2.04 0.06,-2.74 0.03,-0.69 0.17,-1.56 0.4,-2.59 0.23,-1.04 0.58,-1.95 1.05,-2.72 0.72,-1.2 1.72,-2.16 3.01,-2.9 1.29,-0.74 2.78,-1.11 4.46,-1.11z"/>
  <path id="_4_36" class="fil6" d="M1544.53 797.53c0,1.24 0.42,2.29 1.24,3.15 0.83,0.86 1.99,1.29 3.47,1.29 1.2,0 2.27,-0.29 3.2,-0.87 0.94,-0.59 1.59,-1.47 1.98,-2.65 0.12,-0.43 0.23,-0.91 0.29,-1.47 0.06,-0.56 0.1,-1.08 0.11,-1.57 0.01,-0.49 0.01,-1.29 0.01,-2.39l-3.17 0c-2.11,0 -3.49,0.1 -4.17,0.3 -0.95,0.29 -1.68,0.82 -2.19,1.57 -0.51,0.75 -0.77,1.63 -0.77,2.64zm13.59 -7.23l0 14.26 -3.29 0 0 -2.52c-1.66,1.91 -3.67,2.87 -6.02,2.87 -2.22,0 -4.04,-0.7 -5.44,-2.12 -1.42,-1.4 -2.12,-3.16 -2.12,-5.26 0,-1.58 0.45,-2.97 1.35,-4.19 0.89,-1.23 2.17,-2.08 3.79,-2.58 0.49,-0.14 1.02,-0.26 1.6,-0.33 0.59,-0.07 1.1,-0.11 1.54,-0.12 0.44,-0.01 1.1,-0.01 1.99,-0.01l3.31 0c0,-1.17 -0.02,-2 -0.06,-2.51 -0.03,-0.5 -0.13,-0.96 -0.29,-1.39 -0.36,-0.98 -0.98,-1.71 -1.84,-2.21 -0.86,-0.5 -1.85,-0.74 -2.96,-0.74 -1.62,0 -3.54,0.53 -5.76,1.6l-1.25 -2.72c2.66,-1.22 5,-1.82 7.01,-1.82 1.95,0 3.64,0.47 5.11,1.41 1.46,0.93 2.45,2.26 2.97,4 0.24,0.77 0.36,2.24 0.36,4.38z"/>
  <path id="_5_37" class="fil6" d="M1568.18 783.36c1.6,-1.9 3.46,-2.85 5.59,-2.85 0.6,0 1.27,0.08 2.02,0.24l-0.49 2.89c-0.92,-0.13 -1.58,-0.19 -1.96,-0.19 -1.12,0 -2.08,0.26 -2.9,0.78 -0.81,0.53 -1.41,1.24 -1.77,2.13 -0.32,0.77 -0.49,2.14 -0.49,4.11l0 14.09 -3.28 0 0 -23.7 3.28 0 0 2.5z"/>
  <path id="_6_38" class="fil6" d="M1581.27 797.92l0 -14.35 -3.29 0 0 -2.71 3.29 0 0 -5.12 3.28 0 0 5.12 4.38 0 0 2.71 -4.38 0 0 14.35c0,1.58 0.06,2.53 0.19,2.85 0.34,0.8 0.97,1.2 1.89,1.2 0.76,0 1.59,-0.23 2.49,-0.7l1.27 2.72c-1.39,0.61 -2.72,0.92 -3.98,0.92 -1.24,0 -2.29,-0.3 -3.14,-0.9 -0.86,-0.6 -1.44,-1.46 -1.76,-2.56 -0.17,-0.56 -0.24,-1.73 -0.24,-3.53z"/>
  <path id="_7_39" class="fil6" d="M1596.85 797.53c0,1.24 0.42,2.29 1.24,3.15 0.83,0.86 1.98,1.29 3.47,1.29 1.2,0 2.27,-0.29 3.2,-0.87 0.94,-0.59 1.59,-1.47 1.97,-2.65 0.13,-0.43 0.24,-0.91 0.3,-1.47 0.06,-0.56 0.1,-1.08 0.11,-1.57 0.01,-0.49 0.01,-1.29 0.01,-2.39l-3.17 0c-2.11,0 -3.49,0.1 -4.17,0.3 -0.95,0.29 -1.68,0.82 -2.19,1.57 -0.51,0.75 -0.77,1.63 -0.77,2.64zm13.59 -7.23l0 14.26 -3.29 0 0 -2.52c-1.66,1.91 -3.67,2.87 -6.02,2.87 -2.22,0 -4.04,-0.7 -5.44,-2.12 -1.42,-1.4 -2.12,-3.16 -2.12,-5.26 0,-1.58 0.45,-2.97 1.35,-4.19 0.89,-1.23 2.16,-2.08 3.79,-2.58 0.49,-0.14 1.02,-0.26 1.6,-0.33 0.59,-0.07 1.1,-0.11 1.54,-0.12 0.44,-0.01 1.1,-0.01 1.99,-0.01l3.31 0c0,-1.17 -0.02,-2 -0.06,-2.51 -0.03,-0.5 -0.13,-0.96 -0.29,-1.39 -0.36,-0.98 -0.98,-1.71 -1.84,-2.21 -0.86,-0.5 -1.85,-0.74 -2.96,-0.74 -1.62,0 -3.54,0.53 -5.76,1.6l-1.25 -2.72c2.66,-1.22 4.99,-1.82 7.01,-1.82 1.95,0 3.64,0.47 5.11,1.41 1.46,0.93 2.45,2.26 2.97,4 0.24,0.77 0.36,2.24 0.36,4.38z"/>
  <path id="_8_40" class="fil6" d="M1620.5 783.36c1.6,-1.9 3.46,-2.85 5.59,-2.85 0.6,0 1.27,0.08 2.02,0.24l-0.49 2.89c-0.92,-0.13 -1.58,-0.19 -1.97,-0.19 -1.11,0 -2.07,0.26 -2.89,0.78 -0.81,0.53 -1.41,1.24 -1.77,2.13 -0.32,0.77 -0.49,2.14 -0.49,4.11l0 14.09 -3.28 0 0 -23.7 3.28 0 0 2.5z"/>
  <polygon class="fil6" points="1748.8,775.31 1752.22,775.31 1752.22,803.25 1764.58,803.25 1764.58,806.31 1748.8,806.31 "/>
  <path id="_1_41" class="fil6" d="M1782.29 786.93c-1,-1.15 -2.46,-1.73 -4.36,-1.73 -1.89,0 -3.34,0.58 -4.35,1.73 -0.39,0.46 -0.71,0.97 -0.95,1.53 -0.24,0.56 -0.41,1.21 -0.5,1.96 -0.1,0.76 -0.16,1.38 -0.18,1.89 -0.03,0.5 -0.03,1.22 -0.03,2.16 0,0.93 0,1.65 0.03,2.16 0.02,0.5 0.08,1.13 0.18,1.88 0.09,0.75 0.26,1.41 0.5,1.97 0.24,0.56 0.56,1.06 0.95,1.52 1.01,1.15 2.46,1.73 4.35,1.73 1.9,0 3.36,-0.58 4.36,-1.73 0.4,-0.46 0.72,-0.96 0.96,-1.52 0.24,-0.56 0.4,-1.22 0.5,-1.97 0.1,-0.75 0.16,-1.38 0.18,-1.88 0.02,-0.51 0.03,-1.23 0.03,-2.16 0,-0.94 -0.01,-1.66 -0.03,-2.16 -0.02,-0.51 -0.08,-1.13 -0.18,-1.89 -0.1,-0.75 -0.26,-1.4 -0.5,-1.96 -0.24,-0.56 -0.56,-1.07 -0.96,-1.53zm-8.29 -3.91c1.18,-0.5 2.49,-0.75 3.93,-0.75 1.46,0 2.76,0.25 3.95,0.75 1.18,0.51 2.15,1.17 2.91,2.01 0.58,0.64 1.05,1.34 1.41,2.09 0.36,0.75 0.61,1.59 0.75,2.52 0.13,0.92 0.22,1.69 0.25,2.3 0.03,0.6 0.04,1.44 0.04,2.53 0,1.08 -0.01,1.92 -0.04,2.52 -0.03,0.61 -0.12,1.38 -0.25,2.31 -0.14,0.92 -0.39,1.76 -0.75,2.51 -0.36,0.75 -0.83,1.45 -1.41,2.1 -0.76,0.83 -1.73,1.49 -2.91,2 -1.19,0.5 -2.49,0.76 -3.95,0.76 -1.44,0 -2.75,-0.26 -3.93,-0.76 -1.19,-0.51 -2.16,-1.17 -2.92,-2 -0.58,-0.65 -1.05,-1.35 -1.41,-2.1 -0.35,-0.75 -0.61,-1.59 -0.74,-2.51 -0.15,-0.93 -0.23,-1.7 -0.26,-2.31 -0.03,-0.6 -0.04,-1.44 -0.04,-2.52 0,-1.09 0.01,-1.93 0.04,-2.53 0.03,-0.61 0.11,-1.38 0.26,-2.3 0.13,-0.93 0.39,-1.77 0.74,-2.52 0.36,-0.75 0.83,-1.45 1.41,-2.09 0.76,-0.84 1.73,-1.5 2.92,-2.01z"/>
  <path id="_2_42" class="fil6" d="M1801.7 782.27c2.41,0 4.8,0.74 7.16,2.21l-1.56 2.59c-1.9,-1.25 -3.77,-1.87 -5.6,-1.87 -1.91,0 -3.4,0.77 -4.46,2.3 -0.39,0.56 -0.67,1.28 -0.86,2.18 -0.19,0.9 -0.3,1.65 -0.33,2.24 -0.03,0.6 -0.04,1.41 -0.04,2.41 0,1.14 0.01,2.02 0.03,2.62 0.02,0.61 0.12,1.34 0.3,2.18 0.17,0.85 0.43,1.56 0.78,2.15 0.51,0.84 1.18,1.46 2,1.86 0.81,0.39 1.67,0.59 2.58,0.59 0.99,0 2.03,-0.19 3.12,-0.57 1.09,-0.38 2.04,-0.84 2.86,-1.4l1.67 2.5c-1.04,0.69 -2.25,1.27 -3.62,1.72 -1.37,0.46 -2.72,0.69 -4.03,0.69 -1.66,0 -3.16,-0.37 -4.46,-1.11 -1.32,-0.74 -2.32,-1.71 -3.01,-2.9 -0.46,-0.82 -0.81,-1.72 -1.05,-2.71 -0.23,-0.98 -0.37,-1.84 -0.4,-2.56 -0.04,-0.73 -0.06,-1.74 -0.06,-3.06 0,-1.14 0.02,-2.05 0.06,-2.74 0.03,-0.7 0.17,-1.56 0.4,-2.6 0.24,-1.04 0.59,-1.94 1.05,-2.72 0.72,-1.19 1.72,-2.16 3.01,-2.9 1.3,-0.74 2.78,-1.1 4.46,-1.1z"/>
  <path id="_3_43" class="fil6" d="M1816.57 799.29c0,1.24 0.41,2.29 1.24,3.14 0.82,0.87 1.98,1.3 3.47,1.3 1.19,0 2.26,-0.29 3.19,-0.88 0.94,-0.58 1.6,-1.46 1.98,-2.64 0.12,-0.43 0.23,-0.91 0.29,-1.48 0.07,-0.55 0.1,-1.07 0.11,-1.56 0.01,-0.49 0.01,-1.29 0.01,-2.4l-3.17 0c-2.11,0 -3.49,0.11 -4.16,0.31 -0.95,0.29 -1.69,0.81 -2.19,1.57 -0.51,0.75 -0.77,1.63 -0.77,2.64zm13.58 -7.23l0 14.25 -3.29 0 0 -2.51c-1.66,1.91 -3.67,2.87 -6.02,2.87 -2.22,0 -4.03,-0.71 -5.44,-2.12 -1.41,-1.41 -2.12,-3.16 -2.12,-5.26 0,-1.58 0.45,-2.98 1.35,-4.2 0.9,-1.22 2.17,-2.07 3.8,-2.58 0.48,-0.14 1.01,-0.25 1.6,-0.32 0.58,-0.07 1.1,-0.12 1.53,-0.12 0.44,-0.01 1.11,-0.01 2,-0.01l3.3 0c0,-1.17 -0.02,-2 -0.05,-2.51 -0.04,-0.5 -0.14,-0.97 -0.29,-1.39 -0.37,-0.98 -0.98,-1.71 -1.85,-2.22 -0.86,-0.49 -1.85,-0.74 -2.95,-0.74 -1.63,0 -3.55,0.53 -5.77,1.6l-1.24 -2.72c2.66,-1.21 4.99,-1.81 7.01,-1.81 1.94,0 3.64,0.47 5.1,1.4 1.46,0.94 2.45,2.27 2.98,4.01 0.23,0.77 0.35,2.23 0.35,4.38z"/>
  <path id="_4_44" class="fil6" d="M1842.24 803.6l0.52 2.8c-0.58,0.18 -1.26,0.27 -2.01,0.27 -1.21,0 -2.19,-0.49 -2.98,-1.45 -0.56,-0.67 -0.83,-1.7 -0.83,-3.09l0 -28.58 3.28 0 0 28.58c0,0.66 0.08,1.09 0.24,1.29 0.16,0.21 0.41,0.31 0.77,0.31 0.32,0 0.65,-0.05 1.01,-0.13z"/>
  <path id="_5_45" class="fil6" d="M1847.85 775.46c0.39,-0.38 0.88,-0.57 1.48,-0.57 0.6,0 1.09,0.19 1.48,0.57 0.39,0.39 0.58,0.89 0.58,1.48 0,0.6 -0.19,1.1 -0.58,1.48 -0.39,0.39 -0.88,0.59 -1.48,0.59 -0.6,0 -1.09,-0.2 -1.48,-0.59 -0.38,-0.38 -0.58,-0.88 -0.58,-1.48 0,-0.59 0.2,-1.09 0.58,-1.48zm3.12 30.85l-3.28 0 0 -23.69 3.28 0 0 23.69z"/>
  <polygon id="_6_46" class="fil6" points="1872.11,803.38 1872.11,806.31 1856.33,806.31 1856.33,803.95 1867.85,785.56 1856.49,785.56 1856.49,782.62 1871.91,782.62 1871.91,784.98 1860.39,803.38 "/>
  <path id="_7_47" class="fil6" d="M1879.11 799.29c0,1.24 0.42,2.29 1.24,3.14 0.82,0.87 1.98,1.3 3.47,1.3 1.2,0 2.27,-0.29 3.2,-0.88 0.93,-0.58 1.59,-1.46 1.97,-2.64 0.13,-0.43 0.24,-0.91 0.3,-1.48 0.06,-0.55 0.1,-1.07 0.11,-1.56 0,-0.49 0,-1.29 0,-2.4l-3.16 0c-2.11,0 -3.5,0.11 -4.17,0.31 -0.95,0.29 -1.68,0.81 -2.19,1.57 -0.51,0.75 -0.77,1.63 -0.77,2.64zm13.58 -7.23l0 14.25 -3.29 0 0 -2.51c-1.65,1.91 -3.67,2.87 -6.01,2.87 -2.22,0 -4.04,-0.71 -5.45,-2.12 -1.41,-1.41 -2.11,-3.16 -2.11,-5.26 0,-1.58 0.45,-2.98 1.35,-4.2 0.89,-1.22 2.16,-2.07 3.79,-2.58 0.49,-0.14 1.02,-0.25 1.6,-0.32 0.59,-0.07 1.1,-0.12 1.54,-0.12 0.44,-0.01 1.1,-0.01 1.99,-0.01l3.3 0c0,-1.17 -0.01,-2 -0.05,-2.51 -0.04,-0.5 -0.13,-0.97 -0.29,-1.39 -0.37,-0.98 -0.98,-1.71 -1.85,-2.22 -0.86,-0.49 -1.84,-0.74 -2.95,-0.74 -1.62,0 -3.54,0.53 -5.76,1.6l-1.25 -2.72c2.66,-1.21 4.99,-1.81 7.01,-1.81 1.95,0 3.64,0.47 5.11,1.4 1.46,0.94 2.45,2.27 2.97,4.01 0.23,0.77 0.35,2.23 0.35,4.38z"/>
  <path id="_8_48" class="fil6" d="M1902.76 785.11c1.59,-1.89 3.46,-2.84 5.59,-2.84 0.59,0 1.27,0.08 2.01,0.24l-0.48 2.89c-0.92,-0.13 -1.58,-0.2 -1.97,-0.2 -1.11,0 -2.08,0.27 -2.89,0.79 -0.81,0.53 -1.41,1.23 -1.77,2.12 -0.32,0.78 -0.49,2.15 -0.49,4.12l0 14.08 -3.28 0 0 -23.69 3.28 0 0 2.49z"/>
  <path class="fil6" d="M2044.95 784.61l4.3 0c0.71,0 1.25,0 1.59,-0.01 0.35,-0.01 0.75,-0.05 1.17,-0.12 0.44,-0.08 0.81,-0.17 1.13,-0.31 1,-0.44 1.73,-1.1 2.19,-2.01 0.47,-0.91 0.71,-1.86 0.71,-2.85 0,-0.39 -0.05,-0.8 -0.14,-1.21 -0.08,-0.42 -0.23,-0.87 -0.43,-1.37 -0.21,-0.48 -0.53,-0.94 -0.96,-1.36 -0.43,-0.42 -0.94,-0.75 -1.54,-0.99 -0.64,-0.25 -1.88,-0.37 -3.72,-0.37l-4.3 0 0 10.6zm0 3.07l0 11.21 4.96 0c0.74,0 1.29,-0.01 1.66,-0.02 0.36,-0.02 0.78,-0.06 1.26,-0.14 0.47,-0.06 0.89,-0.18 1.25,-0.35 1.07,-0.47 1.84,-1.19 2.31,-2.15 0.46,-0.96 0.69,-1.94 0.69,-2.95 0,-0.48 -0.05,-0.96 -0.16,-1.43 -0.11,-0.48 -0.28,-0.96 -0.5,-1.44 -0.23,-0.5 -0.56,-0.94 -1,-1.36 -0.44,-0.4 -0.95,-0.72 -1.55,-0.95 -0.34,-0.14 -0.73,-0.23 -1.18,-0.3 -0.44,-0.07 -0.83,-0.11 -1.18,-0.11 -0.34,-0.01 -0.88,-0.01 -1.6,-0.01l-4.96 0zm11.18 -1.82c1.36,0.71 2.44,1.71 3.21,2.97 0.78,1.26 1.17,2.74 1.17,4.45 0,1.89 -0.53,3.6 -1.57,5.14 -1.05,1.54 -2.53,2.58 -4.46,3.12 -0.98,0.27 -2.5,0.42 -4.57,0.42l-8.38 0 0 -31.01 7.72 0c1.95,0 3.37,0.11 4.24,0.34 1.77,0.47 3.2,1.43 4.31,2.87 1.1,1.45 1.65,3.17 1.65,5.15 0,1.42 -0.29,2.69 -0.87,3.8 -0.57,1.12 -1.39,2.03 -2.45,2.75z"/>
  <path id="_1_49" class="fil6" d="M2068.6 794.93c0,1.24 0.42,2.29 1.24,3.15 0.83,0.86 1.98,1.29 3.47,1.29 1.2,0 2.27,-0.29 3.2,-0.87 0.93,-0.59 1.59,-1.47 1.97,-2.65 0.13,-0.43 0.24,-0.91 0.3,-1.47 0.06,-0.56 0.1,-1.08 0.11,-1.57 0.01,-0.49 0.01,-1.29 0.01,-2.4l-3.17 0c-2.11,0 -3.49,0.11 -4.17,0.31 -0.95,0.29 -1.68,0.82 -2.19,1.57 -0.51,0.75 -0.77,1.63 -0.77,2.64zm13.58 -7.23l0 14.26 -3.28 0 0 -2.52c-1.66,1.91 -3.68,2.87 -6.02,2.87 -2.22,0 -4.04,-0.7 -5.44,-2.12 -1.42,-1.4 -2.12,-3.16 -2.12,-5.26 0,-1.58 0.45,-2.98 1.35,-4.19 0.89,-1.23 2.16,-2.08 3.79,-2.58 0.49,-0.14 1.02,-0.26 1.6,-0.33 0.59,-0.07 1.1,-0.11 1.54,-0.12 0.44,-0.01 1.1,-0.01 1.99,-0.01l3.31 0c0,-1.17 -0.02,-2 -0.06,-2.51 -0.03,-0.5 -0.13,-0.96 -0.29,-1.39 -0.37,-0.98 -0.98,-1.71 -1.85,-2.21 -0.85,-0.5 -1.84,-0.74 -2.95,-0.74 -1.62,0 -3.54,0.53 -5.76,1.6l-1.25 -2.72c2.66,-1.22 4.99,-1.82 7.01,-1.82 1.95,0 3.64,0.47 5.11,1.4 1.46,0.94 2.45,2.27 2.97,4.01 0.24,0.77 0.35,2.24 0.35,4.38z"/>
  <path id="_2_50" class="fil6" d="M2097.18 777.91c2.41,0 4.8,0.74 7.16,2.21l-1.55 2.59c-1.91,-1.24 -3.78,-1.86 -5.61,-1.86 -1.91,0 -3.4,0.76 -4.46,2.29 -0.38,0.56 -0.67,1.29 -0.86,2.18 -0.19,0.9 -0.3,1.65 -0.32,2.25 -0.03,0.59 -0.05,1.4 -0.05,2.4 0,1.15 0.01,2.02 0.03,2.63 0.02,0.6 0.12,1.33 0.3,2.17 0.17,0.85 0.43,1.57 0.78,2.15 0.51,0.84 1.18,1.46 2,1.86 0.82,0.4 1.67,0.59 2.58,0.59 0.99,0 2.03,-0.19 3.12,-0.57 1.09,-0.38 2.04,-0.84 2.86,-1.4l1.67 2.5c-1.04,0.7 -2.25,1.27 -3.62,1.73 -1.37,0.45 -2.72,0.68 -4.03,0.68 -1.66,0 -3.16,-0.37 -4.46,-1.11 -1.32,-0.74 -2.32,-1.7 -3.01,-2.9 -0.46,-0.82 -0.81,-1.72 -1.05,-2.7 -0.23,-0.99 -0.37,-1.84 -0.4,-2.57 -0.04,-0.72 -0.06,-1.74 -0.06,-3.06 0,-1.13 0.02,-2.04 0.06,-2.74 0.03,-0.69 0.17,-1.56 0.4,-2.59 0.24,-1.04 0.59,-1.95 1.05,-2.72 0.72,-1.2 1.72,-2.17 3.01,-2.91 1.3,-0.74 2.78,-1.1 4.46,-1.1z"/>
  <polygon id="_3_51" class="fil6" points="2110.08,769.19 2113.36,769.19 2113.36,791.24 2122.98,778.26 2126.83,778.26 2118.05,789.97 2127.05,801.96 2123.11,801.96 2115.99,792.25 2113.36,795.67 2113.36,801.96 2110.08,801.96 "/>
  <path id="_4_52" class="fil6" d="M2131.44 778.26l3.28 0 0 13.69c0,1.97 0.11,3.29 0.33,3.96 0.36,1.13 1,1.99 1.9,2.58 0.91,0.59 1.95,0.88 3.14,0.88 1.18,0 2.22,-0.29 3.13,-0.88 0.9,-0.59 1.54,-1.45 1.9,-2.58 0.22,-0.67 0.33,-1.99 0.33,-3.96l0 -13.69 3.29 0 0 13.9c0,0.78 -0.01,1.37 -0.03,1.79 -0.01,0.42 -0.06,0.93 -0.15,1.55 -0.09,0.61 -0.23,1.16 -0.42,1.66 -0.61,1.66 -1.61,2.93 -3.01,3.82 -1.4,0.89 -3.08,1.33 -5.04,1.33 -1.98,0 -3.66,-0.44 -5.06,-1.33 -1.39,-0.89 -2.39,-2.16 -3,-3.82 -0.2,-0.5 -0.33,-1.05 -0.42,-1.66 -0.09,-0.62 -0.14,-1.13 -0.16,-1.55 -0.01,-0.42 -0.01,-1.01 -0.01,-1.79l0 -13.9z"/>
  <path id="_5_53" class="fil6" d="M2165.05 777.91c1.48,0 2.84,0.32 4.05,0.96 1.21,0.65 2.16,1.49 2.85,2.55 0.73,1.12 1.2,2.33 1.42,3.62 0.22,1.29 0.33,2.98 0.33,5.07 0,2.08 -0.11,3.77 -0.33,5.07 -0.22,1.29 -0.69,2.5 -1.42,3.62 -0.69,1.06 -1.64,1.9 -2.85,2.54 -1.21,0.65 -2.57,0.97 -4.05,0.97 -2.44,0 -4.52,-0.96 -6.25,-2.87l0 11.58 -3.28 0 0 -32.76 3.28 0 0 2.52c1.73,-1.91 3.81,-2.87 6.25,-2.87zm4.05 5.08c-1.04,-1.43 -2.54,-2.14 -4.49,-2.14 -1.96,0 -3.45,0.71 -4.49,2.14 -0.55,0.76 -0.91,1.68 -1.08,2.76 -0.15,1.08 -0.24,2.53 -0.24,4.36 0,1.82 0.09,3.28 0.24,4.36 0.17,1.08 0.53,2 1.08,2.75 1.04,1.44 2.53,2.15 4.49,2.15 1.95,0 3.45,-0.71 4.49,-2.15 0.55,-0.75 0.91,-1.67 1.07,-2.75 0.16,-1.08 0.24,-2.54 0.24,-4.36 0,-1.83 -0.08,-3.28 -0.24,-4.36 -0.16,-1.08 -0.52,-2 -1.07,-2.76z"/>
  <polygon class="fil3" points="2359.52,1335.86 2500.17,1335.86 2500.17,1288.98 2359.52,1288.98 "/>
  <polygon class="fil4" points="2290.5,1335.86 2347.8,1335.86 2347.8,1288.98 2290.5,1288.98 "/>
  <path class="fil5" d="M2304.04 1312.42c0,-4.19 0.64,-7.31 1.93,-9.37 1.29,-2.05 3.38,-3.08 6.29,-3.08 2.92,0 5.02,1.02 6.31,3.08 1.29,2.04 1.93,5.17 1.93,9.37 0,4.21 -0.64,7.33 -1.92,9.38 -1.28,2.04 -3.39,3.07 -6.32,3.07 -2.91,0 -5,-1.03 -6.29,-3.07 -1.29,-2.05 -1.93,-5.17 -1.93,-9.38zm4.89 -2.36c-0.03,0.66 -0.05,1.44 -0.05,2.36 0,0.91 0.02,1.7 0.05,2.37 0.03,0.66 0.09,1.31 0.18,1.94 0.08,0.63 0.2,1.16 0.36,1.58 0.15,0.41 0.36,0.78 0.61,1.1 0.25,0.32 0.56,0.55 0.92,0.7 0.35,0.16 0.78,0.23 1.26,0.23 0.58,0 1.08,-0.12 1.48,-0.35 0.41,-0.24 0.74,-0.55 1,-0.96 0.25,-0.4 0.44,-0.95 0.59,-1.64 0.13,-0.69 0.22,-1.42 0.27,-2.18 0.04,-0.76 0.07,-1.69 0.07,-2.79 0,-0.92 -0.02,-1.7 -0.05,-2.36 -0.04,-0.66 -0.09,-1.3 -0.18,-1.94 -0.08,-0.63 -0.21,-1.15 -0.37,-1.57 -0.16,-0.42 -0.37,-0.79 -0.61,-1.11 -0.25,-0.33 -0.55,-0.57 -0.92,-0.71 -0.36,-0.16 -0.79,-0.23 -1.28,-0.23 -0.48,0 -0.91,0.07 -1.26,0.23 -0.36,0.14 -0.66,0.38 -0.91,0.71 -0.25,0.32 -0.45,0.69 -0.62,1.11 -0.16,0.42 -0.28,0.94 -0.36,1.57 -0.09,0.64 -0.15,1.28 -0.18,1.94z"/>
  <path id="_1_54" class="fil5" d="M2323.58 1308.45c0,-2.54 0.73,-4.59 2.2,-6.14 1.47,-1.56 3.42,-2.34 5.83,-2.34 1.6,0 2.96,0.26 4.09,0.8 1.13,0.53 2,1.3 2.63,2.3 0.62,1.02 1.07,2.15 1.34,3.42 0.27,1.25 0.4,2.72 0.4,4.38 0,1.57 -0.1,3.01 -0.28,4.33 -0.19,1.32 -0.52,2.59 -0.99,3.8 -0.48,1.21 -1.08,2.24 -1.81,3.09 -0.74,0.85 -1.67,1.52 -2.82,2.02 -1.15,0.51 -2.46,0.76 -3.94,0.76 -2.06,0 -3.93,-0.53 -5.61,-1.59l1.88 -3.91c0.97,0.65 2.11,0.97 3.43,0.97 0.77,0 1.46,-0.13 2.06,-0.38 0.6,-0.25 1.07,-0.56 1.42,-0.93 0.35,-0.38 0.64,-0.82 0.87,-1.34 0.23,-0.52 0.39,-1.01 0.48,-1.46 0.09,-0.45 0.15,-0.91 0.17,-1.39 -1.2,1.01 -2.64,1.52 -4.31,1.52 -2.12,0 -3.82,-0.69 -5.1,-2.09 -1.3,-1.4 -1.94,-3.35 -1.94,-5.82zm4.73 -0.16c0,1.13 0.29,2.04 0.87,2.74 0.59,0.7 1.42,1.05 2.5,1.05 1.37,0 2.53,-0.63 3.48,-1.9 0,-0.56 -0.01,-1.05 -0.04,-1.46 -0.03,-0.4 -0.08,-0.84 -0.16,-1.32 -0.08,-0.47 -0.2,-0.87 -0.36,-1.19 -0.16,-0.32 -0.38,-0.61 -0.63,-0.89 -0.26,-0.28 -0.59,-0.48 -1,-0.62 -0.4,-0.13 -0.87,-0.2 -1.39,-0.2 -1.05,0 -1.85,0.33 -2.42,0.99 -0.56,0.67 -0.85,1.6 -0.85,2.8z"/>
 </g>
</svg>
