<?xml version="1.0" encoding="UTF-8"?>
<!DOCTYPE svg PUBLIC "-//W3C//DTD SVG 1.1//EN" "http://www.w3.org/Graphics/SVG/1.1/DTD/svg11.dtd">
<!-- Creator: CorelDRAW 2021 (64 Bit) -->
<svg xmlns="http://www.w3.org/2000/svg" xml:space="preserve" width="2001px" height="1125px" version="1.1" style="shape-rendering:geometricPrecision; text-rendering:geometricPrecision; image-rendering:optimizeQuality; fill-rule:evenodd; clip-rule:evenodd"
viewBox="0 0 2000.21 1124.51"
 xmlns:xlink="http://www.w3.org/1999/xlink"
 xmlns:xodm="http://www.corel.com/coreldraw/odm/2003">
 <defs>
  <style type="text/css">
   <![CDATA[
    .str0 {stroke:#373435;stroke-width:1.14;stroke-miterlimit:22.9256}
    .fil2 {fill:none}
    .fil19 {fill:#FEFEFE}
    .fil21 {fill:#373435}
    .fil12 {fill:#953735}
    .fil0 {fill:#00CC83}
    .fil13 {fill:#32343F}
    .fil11 {fill:#465545}
    .fil14 {fill:#CACACA}
    .fil6 {fill:#F0F4F7}
    .fil20 {fill:#FEFEFE;fill-rule:nonzero}
    .fil5 {fill:#FEFEFE;fill-rule:nonzero}
    .fil7 {fill:#373435;fill-rule:nonzero}
    .fil10 {fill:#373435;fill-rule:nonzero}
    .fil8 {fill:#953735;fill-rule:nonzero}
    .fil17 {fill:#953735;fill-rule:nonzero}
    .fil9 {fill:#00CC83;fill-rule:nonzero}
    .fil18 {fill:#32343F;fill-rule:nonzero}
    .fil16 {fill:#465545;fill-rule:nonzero}
    .fil4 {fill:#7F7F7F;fill-rule:nonzero}
    .fil3 {fill:#B0B0B0;fill-rule:nonzero}
    .fil15 {fill:#F0F4F7;fill-rule:nonzero}
    .fil1 {fill:#FEFEFE}
   ]]>
  </style>
    <clipPath id="id0">
     <path d="M0.92 0l1999.1 0 0 1124.51 -1999.1 0 0 -1124.51z"/>
    </clipPath>
     <mask id="id1">
  <linearGradient id="id2" gradientUnits="userSpaceOnUse" x1="1101.34" y1="-324.07" x2="1101.34" y2="1028.38">
   <stop offset="0" style="stop-opacity:1; stop-color:white"/>
   <stop offset="1" style="stop-opacity:0; stop-color:white"/>
  </linearGradient>
      <rect style="fill:url(#id2)" x="0.92" width="1999.1" height="1124.51"/>
     </mask>
    <clipPath id="id3">
     <path d="M0.92 0l1999.1 0 0 1124.51 -1999.1 0 0 -1124.51z"/>
    </clipPath>
 </defs>
 <g id="Camada_x0020_1">
  <metadata id="CorelCorpID_0Corel-Layer"/>
  <g id="_1157619465600">
   <g style="clip-path:url(#id0)">
    <polygon class="fil0" style="mask:url(#id1)" points="0.92,0 2000.02,0 2000.02,1124.51 0.92,1124.51 "/>
   </g>
   <g style="clip-path:url(#id3)">
    <g>
     <polygon id="_1" class="fil1 str0" points="-205.61,-48.02 2062.62,-48.02 2062.62,1143.88 -205.61,1143.88 "/>
    </g>
   </g>
   <polygon class="fil2" points="0.92,0 2000.02,0 2000.02,1124.51 0.92,1124.51 "/>
   <polygon class="fil3" points="1887.74,1068.24 2000.21,1068.24 2000.21,1030.75 1887.74,1030.75 "/>
   <polygon class="fil4" points="1832.55,1068.24 1878.37,1068.24 1878.37,1030.75 1832.55,1030.75 "/>
   <path class="fil5" d="M1841.31 1049.49c0,-3.35 0.51,-5.84 1.54,-7.49 1.03,-1.64 2.71,-2.46 5.03,-2.46 2.33,0 4.02,0.82 5.05,2.46 1.03,1.63 1.54,4.13 1.54,7.49 0,3.37 -0.51,5.87 -1.54,7.5 -1.02,1.64 -2.71,2.46 -5.05,2.46 -2.32,0 -4,-0.82 -5.03,-2.46 -1.03,-1.63 -1.54,-4.13 -1.54,-7.5zm3.91 -1.89c-0.03,0.53 -0.04,1.16 -0.04,1.89 0,0.73 0.01,1.36 0.04,1.9 0.03,0.53 0.07,1.05 0.14,1.55 0.06,0.51 0.16,0.93 0.29,1.26 0.12,0.33 0.29,0.63 0.49,0.88 0.2,0.26 0.44,0.45 0.73,0.56 0.29,0.13 0.62,0.19 1.01,0.19 0.46,0 0.86,-0.1 1.19,-0.29 0.32,-0.18 0.59,-0.44 0.79,-0.76 0.2,-0.32 0.36,-0.76 0.47,-1.31 0.11,-0.55 0.18,-1.13 0.22,-1.74 0.04,-0.61 0.06,-1.36 0.06,-2.24 0,-0.73 -0.02,-1.36 -0.05,-1.89 -0.02,-0.52 -0.07,-1.04 -0.14,-1.54 -0.06,-0.51 -0.16,-0.93 -0.29,-1.26 -0.13,-0.33 -0.3,-0.63 -0.49,-0.89 -0.2,-0.26 -0.44,-0.45 -0.73,-0.57 -0.3,-0.12 -0.64,-0.18 -1.03,-0.18 -0.39,0 -0.72,0.06 -1.01,0.18 -0.29,0.12 -0.53,0.31 -0.72,0.57 -0.2,0.26 -0.37,0.56 -0.5,0.89 -0.13,0.33 -0.23,0.75 -0.29,1.26 -0.07,0.5 -0.11,1.02 -0.14,1.54z"/>
   <polygon id="_1_0" class="fil5" points="1856.51,1043.32 1856.51,1039.89 1869.18,1039.89 1869.18,1042.87 1862.9,1059.09 1858.74,1059.09 1865.1,1043.32 "/>
  </g>
  <polygon class="fil6" points="0,589.44 1999.63,589.44 1999.63,1124.51 0,1124.51 "/>
  <polygon class="fil3" points="448.43,138.08 1687.86,138.08 1687.86,132.17 448.43,132.17 "/>
  <g id="logo_x0020_dux-2022.eps">
   <path class="fil7" d="M1709.13 132.3c0.09,0 0.13,0.05 0.13,0.13l0 0.57c0,0.09 -0.04,0.13 -0.13,0.13l-2.98 0c-0.11,0 -0.19,0.03 -0.24,0.09 -0.05,0.06 -0.07,0.14 -0.07,0.24l0 0.2c0,0.23 0.1,0.34 0.31,0.34l2.22 0c0.35,0 0.61,0.08 0.78,0.26 0.18,0.18 0.26,0.43 0.26,0.76l0 0.47c0,0.29 -0.08,0.53 -0.25,0.7 -0.17,0.18 -0.44,0.27 -0.8,0.27l-3.29 0c-0.09,0 -0.13,-0.04 -0.13,-0.13l0 -0.56c0,-0.09 0.04,-0.14 0.13,-0.14l3.12 0c0.12,0 0.2,-0.02 0.24,-0.08 0.05,-0.06 0.07,-0.14 0.07,-0.25l0 -0.24c0,-0.22 -0.1,-0.33 -0.3,-0.33l-2.23 0c-0.35,0 -0.6,-0.09 -0.78,-0.27 -0.17,-0.17 -0.26,-0.43 -0.26,-0.76l0 -0.43c0,-0.29 0.08,-0.52 0.25,-0.7 0.18,-0.18 0.44,-0.27 0.8,-0.27l3.15 0z"/>
   <path class="fil7" d="M1716.66 134.83c0,0.15 0.01,0.28 0.04,0.39 0.02,0.1 0.07,0.18 0.13,0.25 0.05,0.06 0.14,0.1 0.24,0.13 0.1,0.02 0.22,0.03 0.38,0.03l1.76 0c0.16,0 0.29,-0.01 0.39,-0.03 0.1,-0.03 0.18,-0.07 0.24,-0.13 0.06,-0.07 0.1,-0.15 0.12,-0.25 0.03,-0.11 0.04,-0.24 0.04,-0.39l0 -0.89c0,-0.16 -0.01,-0.29 -0.04,-0.39 -0.02,-0.11 -0.06,-0.19 -0.12,-0.25 -0.06,-0.06 -0.14,-0.11 -0.24,-0.13 -0.1,-0.03 -0.23,-0.04 -0.39,-0.04l-1.76 0c-0.16,0 -0.28,0.01 -0.38,0.04 -0.1,0.02 -0.19,0.07 -0.24,0.13 -0.06,0.06 -0.11,0.14 -0.13,0.25 -0.03,0.1 -0.04,0.23 -0.04,0.39l0 0.89zm2.59 -2.53c0.3,0 0.56,0.03 0.77,0.09 0.21,0.06 0.38,0.15 0.51,0.27 0.14,0.13 0.23,0.29 0.29,0.49 0.06,0.19 0.09,0.44 0.09,0.72l0 1.02c0,0.29 -0.03,0.53 -0.09,0.73 -0.06,0.2 -0.15,0.36 -0.29,0.49 -0.13,0.12 -0.3,0.21 -0.51,0.27 -0.21,0.05 -0.47,0.08 -0.77,0.08l-1.84 0c-0.3,0 -0.55,-0.03 -0.76,-0.08 -0.21,-0.06 -0.38,-0.15 -0.52,-0.27 -0.13,-0.13 -0.23,-0.29 -0.29,-0.49 -0.06,-0.2 -0.09,-0.44 -0.09,-0.73l0 -1.02c0,-0.28 0.03,-0.53 0.09,-0.72 0.06,-0.2 0.16,-0.36 0.29,-0.49 0.14,-0.12 0.31,-0.21 0.52,-0.27 0.21,-0.06 0.46,-0.09 0.76,-0.09l1.84 0z"/>
   <path class="fil7" d="M1728.12 132.3c0.09,0 0.13,0.05 0.13,0.13l0 2.37c0,0.16 0.01,0.29 0.04,0.4 0.03,0.1 0.07,0.19 0.13,0.25 0.06,0.06 0.14,0.1 0.24,0.13 0.1,0.02 0.23,0.04 0.38,0.04l2.41 0c0.08,0 0.13,0.04 0.13,0.13l0 0.58c0,0.09 -0.05,0.13 -0.13,0.13l-2.44 0c-0.3,0 -0.56,-0.03 -0.77,-0.08 -0.21,-0.06 -0.38,-0.15 -0.51,-0.27 -0.14,-0.13 -0.23,-0.29 -0.29,-0.49 -0.07,-0.2 -0.1,-0.44 -0.1,-0.73l0 -2.46c0,-0.08 0.05,-0.13 0.14,-0.13l0.64 0z"/>
   <path class="fil7" d="M1738.5 132.3c0.09,0 0.13,0.05 0.13,0.13l0 2.37c0,0.16 0.02,0.29 0.04,0.4 0.03,0.1 0.07,0.19 0.13,0.25 0.06,0.06 0.14,0.1 0.24,0.13 0.1,0.02 0.23,0.04 0.38,0.04l1.65 0c0.15,0 0.28,-0.02 0.38,-0.04 0.1,-0.03 0.18,-0.07 0.24,-0.13 0.06,-0.06 0.1,-0.15 0.13,-0.25 0.02,-0.11 0.03,-0.24 0.03,-0.4l0 -2.37c0,-0.08 0.05,-0.13 0.13,-0.13l0.65 0c0.09,0 0.13,0.05 0.13,0.13l0 2.46c0,0.29 -0.03,0.53 -0.09,0.73 -0.06,0.2 -0.15,0.36 -0.29,0.49 -0.13,0.12 -0.3,0.21 -0.51,0.27 -0.21,0.05 -0.47,0.08 -0.77,0.08l-1.71 0c-0.3,0 -0.56,-0.03 -0.77,-0.08 -0.21,-0.06 -0.38,-0.15 -0.51,-0.27 -0.13,-0.13 -0.23,-0.29 -0.29,-0.49 -0.06,-0.2 -0.1,-0.44 -0.1,-0.73l0 -2.46c0,-0.08 0.05,-0.13 0.14,-0.13l0.64 0z"/>
   <path class="fil7" d="M1751.9 136.7c0.1,0 0.14,0.06 0.11,0.16l-0.26 1.08c-0.02,0.09 -0.07,0.14 -0.15,0.14l-0.33 0c-0.1,0 -0.15,-0.05 -0.14,-0.14l0.09 -1.1c0.01,-0.09 0.06,-0.14 0.15,-0.14l0.53 0zm1.64 -4.4c0.09,0 0.13,0.05 0.13,0.13l0 0.59c0,0.09 -0.04,0.13 -0.13,0.13l-2.64 0c-0.16,0 -0.28,0.02 -0.39,0.04 -0.1,0.03 -0.18,0.07 -0.24,0.13 -0.06,0.06 -0.1,0.15 -0.12,0.25 -0.03,0.1 -0.04,0.23 -0.04,0.39l0 0.84c0,0.16 0.01,0.29 0.04,0.4 0.02,0.1 0.06,0.19 0.12,0.25 0.06,0.06 0.14,0.1 0.24,0.13 0.11,0.02 0.23,0.04 0.39,0.04l2.64 0c0.09,0 0.13,0.04 0.13,0.13l0 0.58c0,0.09 -0.04,0.13 -0.13,0.13l-2.68 0c-0.3,0 -0.55,-0.03 -0.76,-0.08 -0.21,-0.06 -0.39,-0.15 -0.52,-0.27 -0.13,-0.13 -0.23,-0.29 -0.29,-0.49 -0.06,-0.2 -0.09,-0.44 -0.09,-0.73l0 -1.02c0,-0.28 0.03,-0.53 0.09,-0.72 0.06,-0.2 0.16,-0.36 0.29,-0.49 0.13,-0.12 0.31,-0.21 0.52,-0.27 0.21,-0.06 0.46,-0.09 0.76,-0.09l2.68 0z"/>
   <path class="fil7" d="M1761.13 132.05c-0.05,0 -0.08,-0.01 -0.09,-0.04 -0.01,-0.03 -0.02,-0.07 -0.02,-0.13 0,-0.17 0.02,-0.3 0.05,-0.41 0.02,-0.11 0.07,-0.19 0.13,-0.25 0.06,-0.07 0.13,-0.11 0.23,-0.14 0.09,-0.02 0.2,-0.04 0.34,-0.04 0.21,0 0.39,0.03 0.55,0.09 0.15,0.06 0.29,0.14 0.43,0.25 0.06,0.05 0.13,0.1 0.19,0.13 0.06,0.03 0.14,0.05 0.26,0.05 0.06,0 0.1,0 0.14,-0.02 0.04,-0.01 0.06,-0.03 0.08,-0.06 0.02,-0.03 0.03,-0.08 0.04,-0.13 0.01,-0.05 0.01,-0.12 0.01,-0.2 0,-0.09 0.06,-0.13 0.16,-0.13l0.34 0c0.04,0 0.07,0.01 0.09,0.04 0.01,0.03 0.02,0.07 0.02,0.13 0,0.17 -0.02,0.3 -0.05,0.41 -0.02,0.1 -0.07,0.19 -0.13,0.25 -0.06,0.07 -0.14,0.11 -0.23,0.14 -0.1,0.02 -0.21,0.03 -0.34,0.03 -0.22,0 -0.4,-0.02 -0.55,-0.08 -0.15,-0.06 -0.29,-0.14 -0.43,-0.25 -0.06,-0.05 -0.13,-0.1 -0.19,-0.13 -0.06,-0.04 -0.15,-0.05 -0.26,-0.05 -0.12,0 -0.19,0.03 -0.22,0.08 -0.04,0.06 -0.05,0.17 -0.05,0.33 0,0.08 -0.06,0.13 -0.17,0.13l-0.33 0zm-0.26 2.78c0,0.15 0.02,0.28 0.04,0.39 0.03,0.1 0.07,0.18 0.13,0.25 0.06,0.06 0.14,0.1 0.24,0.13 0.1,0.02 0.23,0.03 0.39,0.03l1.76 0c0.15,0 0.28,-0.01 0.38,-0.03 0.1,-0.03 0.18,-0.07 0.24,-0.13 0.06,-0.07 0.1,-0.15 0.13,-0.25 0.03,-0.11 0.04,-0.24 0.04,-0.39l0 -0.89c0,-0.16 -0.01,-0.29 -0.04,-0.39 -0.03,-0.11 -0.07,-0.19 -0.13,-0.25 -0.06,-0.06 -0.14,-0.11 -0.24,-0.13 -0.1,-0.03 -0.23,-0.04 -0.38,-0.04l-1.76 0c-0.16,0 -0.29,0.01 -0.39,0.04 -0.1,0.02 -0.18,0.07 -0.24,0.13 -0.06,0.06 -0.1,0.14 -0.13,0.25 -0.02,0.1 -0.04,0.23 -0.04,0.39l0 0.89zm2.59 -2.53c0.3,0 0.56,0.03 0.77,0.09 0.22,0.06 0.39,0.15 0.52,0.27 0.13,0.13 0.23,0.29 0.29,0.49 0.06,0.19 0.09,0.44 0.09,0.72l0 1.02c0,0.29 -0.03,0.53 -0.09,0.73 -0.06,0.2 -0.16,0.36 -0.29,0.49 -0.13,0.12 -0.3,0.21 -0.52,0.27 -0.21,0.05 -0.47,0.08 -0.77,0.08l-1.83 0c-0.3,0 -0.56,-0.03 -0.77,-0.08 -0.21,-0.06 -0.38,-0.15 -0.51,-0.27 -0.13,-0.13 -0.23,-0.29 -0.29,-0.49 -0.06,-0.2 -0.09,-0.44 -0.09,-0.73l0 -1.02c0,-0.28 0.03,-0.53 0.09,-0.72 0.06,-0.2 0.16,-0.36 0.29,-0.49 0.13,-0.12 0.3,-0.21 0.51,-0.27 0.21,-0.06 0.47,-0.09 0.77,-0.09l1.83 0z"/>
   <path class="fil7" d="M1775.8 132.3c0.09,0 0.14,0.05 0.14,0.13l0 0.57c0,0.09 -0.05,0.13 -0.14,0.13l-2.6 0c-0.15,0 -0.28,0.01 -0.38,0.04 -0.1,0.02 -0.18,0.07 -0.24,0.13 -0.06,0.06 -0.11,0.14 -0.13,0.25 -0.02,0.1 -0.04,0.23 -0.04,0.39l0 0.06 3.36 0c0.09,0 0.13,0.04 0.13,0.13l0 0.47c0,0.08 -0.04,0.13 -0.13,0.13l-3.36 0 0 0.1c0,0.15 0.02,0.28 0.04,0.39 0.02,0.1 0.07,0.18 0.13,0.25 0.06,0.06 0.14,0.1 0.24,0.13 0.1,0.02 0.23,0.03 0.38,0.03l2.6 0c0.09,0 0.14,0.05 0.14,0.14l0 0.56c0,0.09 -0.05,0.13 -0.14,0.13l-2.61 0c-0.3,0 -0.56,-0.03 -0.77,-0.08 -0.21,-0.06 -0.38,-0.15 -0.51,-0.27 -0.14,-0.13 -0.23,-0.29 -0.29,-0.49 -0.07,-0.2 -0.1,-0.44 -0.1,-0.73l0 -1.02c0,-0.28 0.03,-0.53 0.1,-0.72 0.06,-0.2 0.15,-0.36 0.29,-0.49 0.13,-0.12 0.3,-0.21 0.51,-0.27 0.21,-0.06 0.47,-0.09 0.77,-0.09l2.61 0z"/>
   <path class="fil7" d="M1786.45 132.3c0.09,0 0.13,0.05 0.13,0.13l0 0.57c0,0.09 -0.04,0.13 -0.13,0.13l-2.97 0c-0.12,0 -0.2,0.03 -0.24,0.09 -0.05,0.06 -0.08,0.14 -0.08,0.24l0 0.2c0,0.23 0.11,0.34 0.31,0.34l2.23 0c0.34,0 0.6,0.08 0.78,0.26 0.17,0.18 0.26,0.43 0.26,0.76l0 0.47c0,0.29 -0.09,0.53 -0.26,0.7 -0.17,0.18 -0.43,0.27 -0.79,0.27l-3.29 0c-0.09,0 -0.14,-0.04 -0.14,-0.13l0 -0.56c0,-0.09 0.05,-0.14 0.14,-0.14l3.12 0c0.11,0 0.19,-0.02 0.24,-0.08 0.05,-0.06 0.07,-0.14 0.07,-0.25l0 -0.24c0,-0.22 -0.1,-0.33 -0.31,-0.33l-2.23 0c-0.34,0 -0.6,-0.09 -0.77,-0.27 -0.18,-0.17 -0.26,-0.43 -0.26,-0.76l0 -0.43c0,-0.29 0.08,-0.52 0.25,-0.7 0.17,-0.18 0.44,-0.27 0.8,-0.27l3.14 0z"/>
   <path class="fil7" d="M1805.05 132.3c0.09,0 0.14,0.05 0.14,0.13l0 0.57c0,0.09 -0.05,0.13 -0.14,0.13l-2.6 0c-0.15,0 -0.28,0.01 -0.38,0.04 -0.1,0.02 -0.18,0.07 -0.24,0.13 -0.06,0.06 -0.11,0.14 -0.13,0.25 -0.02,0.1 -0.04,0.23 -0.04,0.39l0 0.06 3.36 0c0.09,0 0.13,0.04 0.13,0.13l0 0.47c0,0.08 -0.04,0.13 -0.13,0.13l-3.36 0 0 0.1c0,0.15 0.02,0.28 0.04,0.39 0.02,0.1 0.07,0.18 0.13,0.25 0.06,0.06 0.14,0.1 0.24,0.13 0.1,0.02 0.23,0.03 0.38,0.03l2.6 0c0.09,0 0.14,0.05 0.14,0.14l0 0.56c0,0.09 -0.05,0.13 -0.14,0.13l-2.61 0c-0.3,0 -0.56,-0.03 -0.77,-0.08 -0.21,-0.06 -0.38,-0.15 -0.51,-0.27 -0.14,-0.13 -0.23,-0.29 -0.29,-0.49 -0.07,-0.2 -0.1,-0.44 -0.1,-0.73l0 -1.02c0,-0.28 0.03,-0.53 0.1,-0.72 0.06,-0.2 0.15,-0.36 0.29,-0.49 0.13,-0.12 0.3,-0.21 0.51,-0.27 0.21,-0.06 0.47,-0.09 0.77,-0.09l2.61 0z"/>
   <path class="fil7" d="M1812.75 132.3c0.09,0 0.16,0.01 0.23,0.02 0.06,0.01 0.12,0.04 0.16,0.07 0.05,0.03 0.09,0.08 0.13,0.14 0.04,0.05 0.08,0.13 0.12,0.22l1.23 2.86c0.02,0.03 0.05,0.05 0.09,0.05l0.07 0c0.04,0 0.06,-0.02 0.08,-0.05l1.24 -2.86c0.03,-0.09 0.07,-0.17 0.11,-0.22 0.04,-0.06 0.08,-0.11 0.13,-0.14 0.05,-0.03 0.1,-0.06 0.16,-0.07 0.06,-0.01 0.14,-0.02 0.23,-0.02l0.63 0c0.21,0 0.34,0.05 0.42,0.14 0.07,0.1 0.1,0.26 0.1,0.48l0 3.41c0,0.09 -0.04,0.13 -0.13,0.13l-0.61 0c-0.09,0 -0.13,-0.04 -0.13,-0.13l0 -3.1c0,-0.04 -0.02,-0.06 -0.05,-0.06l-0.05 0c-0.04,0 -0.07,0.02 -0.08,0.05l-1.2 2.66c-0.05,0.11 -0.09,0.2 -0.14,0.27 -0.05,0.07 -0.11,0.13 -0.16,0.18 -0.06,0.05 -0.13,0.08 -0.2,0.1 -0.07,0.02 -0.16,0.03 -0.26,0.03l-0.28 0c-0.1,0 -0.19,-0.01 -0.26,-0.03 -0.07,-0.02 -0.14,-0.05 -0.2,-0.1 -0.05,-0.05 -0.11,-0.11 -0.16,-0.18 -0.05,-0.07 -0.1,-0.16 -0.14,-0.27l-1.2 -2.66c-0.01,-0.03 -0.04,-0.05 -0.08,-0.05l-0.05 0c-0.04,0 -0.05,0.02 -0.05,0.06l0 3.1c0,0.09 -0.04,0.13 -0.13,0.13l-0.61 0c-0.09,0 -0.13,-0.04 -0.13,-0.13l0 -3.41c0,-0.22 0.03,-0.38 0.1,-0.48 0.07,-0.09 0.21,-0.14 0.42,-0.14l0.65 0z"/>
   <path class="fil7" d="M1836.59 132.3c0.09,0 0.14,0.05 0.14,0.13l0 0.59c0,0.09 -0.05,0.13 -0.14,0.13l-1.86 0 0 3.18c0,0.09 -0.05,0.13 -0.13,0.13l-0.65 0c-0.09,0 -0.13,-0.04 -0.13,-0.13l0 -3.18 -1.87 0c-0.09,0 -0.13,-0.04 -0.13,-0.13l0 -0.59c0,-0.08 0.04,-0.13 0.13,-0.13l4.64 0z"/>
   <path class="fil7" d="M1843.74 132.3c0.09,0 0.13,0.05 0.13,0.13l0 3.9c0,0.09 -0.04,0.13 -0.13,0.13l-0.64 0c-0.09,0 -0.14,-0.04 -0.14,-0.13l0 -3.9c0,-0.08 0.05,-0.13 0.14,-0.13l0.64 0z"/>
   <path class="fil7" d="M1709.37 106.28c0,-0.29 0.14,-0.43 0.41,-0.43l10.22 0c0.91,0 1.68,0.08 2.3,0.25 0.62,0.16 1.13,0.43 1.51,0.81 0.39,0.37 0.66,0.87 0.83,1.49 0.16,0.63 0.25,1.39 0.25,2.31l0 3.42c0,0.92 -0.09,1.69 -0.25,2.31 -0.17,0.62 -0.44,1.12 -0.83,1.49 -0.38,0.38 -0.89,0.65 -1.51,0.81 -0.62,0.17 -1.39,0.25 -2.3,0.25l-10.22 0c-0.27,0 -0.41,-0.13 -0.41,-0.4l0 -12.31zm-3.83 17.04l14.58 0c1.68,0 3.13,-0.17 4.33,-0.51 1.21,-0.34 2.19,-0.87 2.96,-1.59 0.77,-0.72 1.33,-1.63 1.7,-2.74 0.36,-1.11 0.54,-2.42 0.54,-3.94l0 -4.24c0,-1.51 -0.18,-2.83 -0.54,-3.94 -0.37,-1.11 -0.93,-2.02 -1.7,-2.74 -0.77,-0.72 -1.75,-1.24 -2.96,-1.59 -1.2,-0.34 -2.65,-0.51 -4.33,-0.51l-14.58 0c-0.62,0 -0.93,0.31 -0.93,0.93l0 19.94c0,0.62 0.31,0.93 0.93,0.93z"/>
   <path class="fil7" d="M1735.49 121.47c0.7,0.65 1.6,1.13 2.7,1.42 1.1,0.29 2.44,0.43 4.02,0.43l8.97 0c1.57,0 2.92,-0.14 4.03,-0.43 1.11,-0.29 2.02,-0.77 2.71,-1.42 0.7,-0.65 1.2,-1.51 1.51,-2.55 0.31,-1.05 0.47,-2.32 0.47,-3.82l0 -12.9c0,-0.45 -0.23,-0.68 -0.69,-0.68l-3.39 0c-0.46,0 -0.69,0.23 -0.69,0.68l0 12.43c0,0.83 -0.06,1.52 -0.18,2.07 -0.13,0.55 -0.35,0.99 -0.66,1.31 -0.31,0.32 -0.73,0.55 -1.26,0.69 -0.53,0.13 -1.2,0.2 -2.01,0.2l-8.63 0c-0.81,0 -1.48,-0.07 -2.01,-0.2 -0.53,-0.14 -0.95,-0.37 -1.26,-0.69 -0.31,-0.32 -0.53,-0.76 -0.67,-1.31 -0.13,-0.55 -0.2,-1.24 -0.2,-2.07l0 -12.43c0,-0.45 -0.23,-0.68 -0.69,-0.68l-3.36 0c-0.48,0 -0.72,0.23 -0.72,0.68l0 12.9c0,1.5 0.16,2.77 0.49,3.82 0.32,1.04 0.83,1.9 1.52,2.55z"/>
   <path class="fil7" d="M1789.87 96.24l-5.2 5.28 -0.48 0c-0.24,0 -0.44,0.04 -0.59,0.11 -0.14,0.07 -0.28,0.18 -0.4,0.32l-7.2 7.23 -6.79 -7.23c-0.12,-0.14 -0.26,-0.25 -0.4,-0.32 -0.15,-0.07 -0.35,-0.11 -0.6,-0.11l-4.26 0c-0.29,0 -0.45,0.1 -0.47,0.29 -0.02,0.2 0.03,0.37 0.16,0.52l9.25 9.53 -10.25 10.65c-0.15,0.15 -0.2,0.32 -0.17,0.52 0.03,0.2 0.18,0.29 0.45,0.29l0.28 0 -2.8 2.84 -55.79 -0.03 0 2.26 56.74 0.03 5.01 -5.1 0.61 0c0.27,0 0.47,-0.03 0.61,-0.09 0.13,-0.06 0.27,-0.18 0.42,-0.34l7.72 -8.07 7.7 8.07c0.12,0.16 0.26,0.28 0.4,0.34 0.15,0.06 0.34,0.09 0.59,0.09l4.27 0c0.29,0 0.45,-0.09 0.48,-0.29 0.03,-0.2 -0.02,-0.37 -0.17,-0.52l-10 -10.49 9.57 -9.69c0.14,-0.15 0.2,-0.32 0.17,-0.52 -0.03,-0.19 -0.19,-0.29 -0.49,-0.29l-0.4 0 2.97 -3.02 53.19 0 0 -2.26 -54.13 0z"/>
   <path class="fil8" d="M1836.34 110.31l-11.93 0 0 -4.12c0,-0.25 0.13,-0.37 0.4,-0.37l11.53 0c1.06,0 1.81,0.23 2.24,0.68 0.35,0.37 0.56,0.89 0.63,1.56 -0.07,0.67 -0.28,1.2 -0.63,1.56 -0.43,0.46 -1.18,0.69 -2.24,0.69zm6.1 -7.17c-1.04,-1.08 -2.75,-1.62 -5.14,-1.62l-16.72 0c-0.63,0 -0.94,0.31 -0.94,0.93l0 7.86 -17.73 0c-0.44,0 -0.8,0.36 -0.8,0.8l0 2.23c0,0.44 0.36,0.8 0.8,0.8l9.04 0c0.23,0.01 0.34,0.14 0.34,0.4l0 2.52c0,0.71 -0.12,1.2 -0.37,1.48 -0.25,0.28 -0.64,0.42 -1.18,0.42l-10.28 0c-0.81,0 -1.48,-0.07 -2.01,-0.2 -0.53,-0.14 -0.95,-0.36 -1.26,-0.69 -0.31,-0.32 -0.54,-0.75 -0.67,-1.3 -0.14,-0.55 -0.2,-1.24 -0.2,-2.08l0 -4.48c0,-0.83 0.06,-1.52 0.2,-2.06 0.13,-0.54 0.36,-0.97 0.67,-1.29 0.31,-0.32 0.73,-0.55 1.26,-0.68 0.53,-0.14 1.2,-0.21 2.01,-0.21l15.6 0c0.46,0 0.69,-0.24 0.69,-0.71l0 -3.06c0,-0.45 -0.23,-0.68 -0.69,-0.68l-15.79 0c-1.58,0 -2.92,0.15 -4.02,0.45 -1.1,0.3 -2,0.78 -2.69,1.43 -0.7,0.66 -1.21,1.5 -1.53,2.54 -0.32,1.04 -0.48,2.31 -0.48,3.8l0 5.36c0,1.5 0.16,2.77 0.48,3.82 0.32,1.04 0.83,1.9 1.53,2.55 0.69,0.65 1.59,1.13 2.69,1.42 1.1,0.29 2.44,0.43 4.02,0.43l12.59 0c1.24,0 2.2,-0.35 2.86,-1.07 0.67,-0.72 1,-1.95 1,-3.69l0 -4.42 3.92 0 0 8.5c0,0.46 0.24,0.68 0.72,0.68l3.36 0c0.46,0 0.69,-0.22 0.69,-0.68l0 -8.5 12.89 0c2.39,0 4.1,-0.54 5.14,-1.62 1.04,-1.08 1.56,-2.68 1.56,-4.8l0 -0.06c0,-2.12 -0.52,-3.44 -1.56,-4.52z"/>
  </g>
  <g id="_1157619454416">
   <path class="fil7" d="M169.08 137.6l-8.89 0 0 -31.91 8.89 0 0 31.91zm13.12 -17.79l0 17.79 -8.9 0 0 -31.91 8.9 0 0 3.56 0 0 0 10.42c0,0.04 0,0.09 0,0.14zm2.38 -12.56c2.06,-1.4 4.29,-2.09 6.69,-2.09 3.37,0 6.18,1.18 8.46,3.55 2.27,2.38 3.41,5.54 3.41,9.49l0 19.4 -8.9 0 0 -18.03c0,-4.9 -1.8,-7.36 -5.4,-7.36 -1.6,0 -3.03,0.53 -4.26,1.58l0 -6.54zm35.2 30.83c-3.77,0 -7.14,-1.61 -10.11,-4.81 -2.97,-3.2 -4.45,-7.18 -4.45,-11.92 0,-4.75 1.44,-8.63 4.33,-11.66 2.89,-3.02 6.27,-4.53 10.14,-4.53 2.76,0 5.16,0.69 7.19,2.07l0 7.69c-1.39,-1.53 -3.08,-2.29 -5.05,-2.29 -2.1,0 -3.9,0.87 -5.4,2.61 -1.5,1.74 -2.25,3.89 -2.25,6.46 0,2.57 0.77,4.68 2.31,6.32 1.54,1.64 3.34,2.46 5.4,2.46 2.05,0 3.8,-0.82 5.25,-2.46 1.44,-1.64 2.16,-3.75 2.16,-6.35 0,-0.37 -0.01,-0.73 -0.04,-1.08l0 -22.18 -0.08 0 0 -4.82 8.9 0 0 44.01 -8.9 0 0 -4.21c-2.49,3.12 -5.62,4.69 -9.4,4.69zm50.16 -5.11c-3.6,3.41 -7.82,5.11 -12.66,5.11 -4.85,0 -8.85,-1.5 -12.02,-4.48 -3.16,-2.99 -4.74,-6.99 -4.74,-12.01 0,-5.03 1.61,-9.02 4.83,-11.99 3.23,-2.96 7.03,-4.44 11.42,-4.44 4.39,0 8.12,1.32 11.18,3.97 3.07,2.65 4.6,6.29 4.6,10.91l0 4.75 -20.95 0 0 -6.35 11.93 0c-0.19,-1.9 -0.91,-3.36 -2.13,-4.39 -1.23,-1.03 -2.72,-1.54 -4.48,-1.54 -1.76,0 -3.37,0.53 -4.83,1.6 -1.47,1.07 -2.32,2.51 -2.55,4.33 -0.49,3.22 -0.35,5.87 -0.24,6.35 0.28,1.74 1.19,3.16 2.73,4.27 1.54,1.11 3.28,1.66 5.22,1.66 3.12,0 5.69,-1.05 7.71,-3.14l4.98 5.39zm16.99 -18.99l5.77 -8.26 0.03 -0.03 10.43 0 -10.97 15.6 11.39 16.31 -10.62 0 -6.23 -8.78 -6.05 8.78 -10.26 0 16.51 -23.62zm43.94 23.62l-8.36 0 0 -3.85c-2.3,2.88 -5.13,4.33 -8.51,4.33 -3.39,0 -6.22,-0.98 -8.52,-2.94 -2.29,-1.96 -3.44,-4.57 -3.44,-7.83 0,-3.26 1.19,-5.7 3.56,-7.33 2.37,-1.62 5.62,-2.43 9.73,-2.43l4.23 0 0 6.35 -3.22 0c-3.56,0 -5.34,1.11 -5.34,3.32 0,1.15 0.42,2.03 1.27,2.64 0.86,0.61 2.07,0.92 3.65,0.92 1.58,0 2.98,-0.48 4.18,-1.45 1.21,-0.97 1.81,-2.27 1.81,-3.89l0.02 -1.42 0.04 -6.65c0,-3.4 -1.8,-5.1 -5.4,-5.1 -1.54,0 -3.17,0.31 -4.89,0.92 -1.72,0.62 -3.17,1.38 -4.36,2.29l-3.97 -5.76c4.19,-3.04 8.97,-4.56 14.35,-4.56 3.88,0 7.04,0.96 9.49,2.9 2.45,1.94 3.68,5 3.68,9.2l0 20.34z"/>
   <circle class="fil0" cx="164.64" cy="97.91" r="5.22"/>
   <circle class="fil0" cx="338.51" cy="132.86" r="5.22"/>
   <polygon class="fil0" points="280.5,119.76 285.79,112.19 281.63,105.69 271.01,105.69 "/>
   <path class="fil9" d="M357.09 105.77c5.69,0 10.06,1.39 13.11,4.18 3.05,2.79 4.57,6.66 4.57,11.63 0,4.97 -1.49,8.9 -4.46,11.79 -2.97,2.89 -7.5,4.34 -13.59,4.34l-10.92 0 0 -31.94 11.29 0zm0.36 25.63c3.26,0 5.77,-0.82 7.52,-2.46 1.75,-1.65 2.62,-4.04 2.62,-7.18 0,-3.13 -0.87,-5.55 -2.62,-7.24 -1.75,-1.69 -4.44,-2.54 -8.07,-2.54l-3.97 0 0 19.42 4.52 0zm45.43 -9.84c0,-2.85 -0.92,-5.28 -2.74,-7.29 -1.83,-2.01 -4.08,-3.02 -6.74,-3.02 -2.67,0 -4.92,1.01 -6.74,3.02 -1.83,2.01 -2.75,4.44 -2.75,7.29 0,2.85 0.92,5.27 2.75,7.26 1.82,2 4.07,3 6.74,3 2.66,0 4.91,-1 6.74,-3 1.82,-1.99 2.74,-4.41 2.74,-7.26zm2.42 11.74c-3.23,3.15 -7.21,4.73 -11.93,4.73 -4.72,0 -8.69,-1.58 -11.92,-4.73 -3.23,-3.15 -4.85,-7.07 -4.85,-11.77 0,-4.69 1.62,-8.61 4.85,-11.76 3.23,-3.15 7.2,-4.73 11.92,-4.73 4.72,0 8.7,1.58 11.93,4.73 3.23,3.15 4.84,7.07 4.84,11.76 0,4.7 -1.61,8.62 -4.84,11.77zm23.04 -1.9c3.5,0 6.36,-1.38 8.59,-4.15l4.57 4.7c-3.63,4.08 -7.9,6.13 -12.82,6.13 -4.92,0 -8.97,-1.56 -12.16,-4.66 -3.18,-3.11 -4.77,-7.03 -4.77,-11.77 0,-4.74 1.62,-8.69 4.87,-11.86 3.24,-3.17 7.21,-4.75 11.9,-4.75 5.24,0 9.63,1.99 13.16,5.98l-4.43 5.03c-2.26,-2.8 -5.06,-4.2 -8.41,-4.2 -2.68,0 -4.97,0.87 -6.88,2.63 -1.9,1.75 -2.85,4.11 -2.85,7.08 0,2.97 0.89,5.35 2.69,7.15 1.8,1.8 3.98,2.69 6.54,2.69z"/>
  </g>
  <polygon class="fil3" points="1887.74,1068.24 2000.21,1068.24 2000.21,1030.75 1887.74,1030.75 "/>
  <polygon class="fil4" points="1832.55,1068.24 1878.37,1068.24 1878.37,1030.75 1832.55,1030.75 "/>
  <polygon class="fil5" points="1842.72,1041.19 1846.33,1039.89 1849.47,1039.89 1849.47,1059.09 1845.68,1059.09 1845.68,1043.71 1843.69,1044.39 "/>
  <polygon id="_1_1" class="fil5" points="1852.14,1043.32 1852.14,1039.89 1864.81,1039.89 1864.81,1042.87 1858.53,1059.09 1854.37,1059.09 1860.73,1043.32 "/>
  <path class="fil10" d="M168.51 245.87c-6.55,0 -10.46,4.02 -10.46,9.04 0,2.7 1.48,5.23 3.27,6.71 2.17,1.8 4.23,2.38 6.19,2.96 2.43,0.74 4.6,1.38 6.03,2.6 1.48,1.21 2.32,3.06 2.32,4.7 0,2.86 -2.06,6.13 -7.35,6.13 -2.96,0 -6.02,-0.95 -8.3,-2.96l-2.48 2.86c2.96,2.54 6.87,3.8 10.78,3.8 7.62,0 11.27,-5.02 11.27,-9.83 0,-3.07 -1.64,-5.76 -3.49,-7.35 -2.22,-1.9 -4.82,-2.64 -7.14,-3.33 -1.75,-0.53 -3.81,-1.16 -5.08,-2.22 -1.32,-1.06 -2.11,-2.59 -2.11,-4.18 0,-2.53 1.85,-5.23 6.55,-5.23 2.96,0 5.71,1 7.51,2.43l2.33 -2.96c-2.54,-1.96 -6.08,-3.17 -9.84,-3.17z"/>
  <path id="_1_2" class="fil10" d="M194.84 259.3c2.33,0 4.13,0.95 5.18,2.54 1.17,1.74 1.17,4.22 1.17,6.92 0,2.7 0,5.18 -1.17,6.93 -1.05,1.58 -2.85,2.53 -5.18,2.53 -2.32,0 -4.12,-0.95 -5.18,-2.53 -1.16,-1.75 -1.16,-4.23 -1.16,-6.93 0,-2.7 0,-5.18 1.16,-6.92 1.06,-1.59 2.86,-2.54 5.18,-2.54zm0 -3.49c-3.75,0 -6.82,1.69 -8.51,4.49 -1.53,2.54 -1.53,5.45 -1.53,8.46 0,3.01 0,5.92 1.53,8.46 1.69,2.8 4.76,4.49 8.51,4.49 3.76,0 6.82,-1.69 8.52,-4.49 1.53,-2.54 1.53,-5.45 1.53,-8.46 0,-3.01 0,-5.92 -1.53,-8.46 -1.7,-2.8 -4.76,-4.49 -8.52,-4.49z"/>
  <polygon id="_2" class="fil10" points="210.71,246.13 210.71,281.4 214.41,281.4 214.41,246.13 "/>
  <path id="_3" class="fil10" d="M220.75 256.12l0 13.54c0,3.7 0,6.77 2.49,9.36 1.26,1.32 3.54,2.69 6.76,2.69 3.23,0 5.5,-1.37 6.77,-2.69 2.49,-2.59 2.49,-5.66 2.49,-9.36l0 -13.54 -3.7 0 0 13.54c0,3.28 0,5.5 -1.54,7.03 -0.9,0.9 -2.27,1.53 -4.02,1.53 -1.74,0 -3.12,-0.63 -4.01,-1.53 -1.54,-1.53 -1.54,-3.75 -1.54,-7.03l0 -13.54 -3.7 0z"/>
  <path id="_4" class="fil10" d="M251.26 288.16l-0.85 2.65c1.01,0.42 2.06,0.58 3.02,0.58 1.79,0 3.33,-0.58 4.28,-1.37 0.84,-0.75 1.64,-1.91 1.64,-3.39 0,-1.06 -0.43,-2.01 -1.22,-2.59 -1,-0.69 -1.85,-0.69 -2.96,-0.69l0.5 -1.68c2.33,-0.18 4.6,-0.94 6.53,-2.23l-1.9 -2.96c-1.69,1.16 -3.7,1.74 -5.71,1.74 -2.06,0 -3.65,-0.68 -4.65,-1.85 -1.7,-1.95 -1.7,-5.12 -1.7,-7.82 0,-2.33 0,-5.45 1.64,-7.35 1.27,-1.48 3.07,-1.9 4.71,-1.9 1.9,0 3.86,0.58 5.44,1.58l1.8 -3.01c-2.17,-1.38 -4.7,-2.06 -7.24,-2.06 -3.39,0 -5.92,1.27 -7.56,3.17 -2.49,2.86 -2.49,6.82 -2.49,9.57 0,3.12 0,7.19 2.54,10.05 1.43,1.61 3.51,2.79 6.27,3.05l-1.09 3.45 1.96 0c0.47,0 0.9,0 1.32,0.21 0.58,0.32 0.85,0.85 0.85,1.37 0,0.69 -0.43,1.22 -1.06,1.59 -0.74,0.37 -1.43,0.37 -1.9,0.37 -0.64,0 -1.43,-0.16 -2.17,-0.48z"/>
  <path id="_5" class="fil10" d="M279.01 252.32c2.6,0 4.66,-1.91 4.66,-4.44l-2.96 0c0,1 -0.74,1.69 -1.7,1.69 -0.95,0 -1.69,-0.48 -2.48,-0.85 -1,-0.53 -2.27,-1.16 -3.86,-1.16 -2.59,0 -4.65,1.9 -4.65,4.44l2.96 0c0,-1 0.74,-1.69 1.69,-1.69 0.95,0 1.69,0.47 2.48,0.84 1.01,0.53 2.33,1.17 3.86,1.17zm5.82 18.5l0 -3.91c0,-2.8 0,-5.92 -2.11,-8.3 -1.59,-1.8 -3.97,-2.8 -7.14,-2.8 -2.86,0 -5.55,0.63 -8.04,1.53l1.16 3.33c2.23,-0.84 4.55,-1.37 6.88,-1.37 2.01,0 3.38,0.53 4.28,1.53 1.27,1.43 1.27,3.54 1.27,5.18l-4.34 0c-2.06,0 -5.02,0 -7.5,1.8 -1.7,1.22 -3.12,3.28 -3.12,6.08 0,2.75 1.42,4.86 3.17,6.08 1.69,1.22 3.86,1.74 6.4,1.74 3.17,0 5.65,-0.89 7.24,-2.75 1.85,-2.16 1.85,-4.59 1.85,-8.14zm-3.7 0c0,3.12 0,4.76 -1.01,5.92 -0.89,1.06 -2.43,1.48 -4.38,1.48 -1.7,0 -3.18,-0.31 -4.18,-1 -0.95,-0.69 -1.69,-1.85 -1.69,-3.33 0,-1.64 0.79,-2.86 1.74,-3.54 1.48,-1.06 3.39,-1.06 5.18,-1.06l4.34 0 0 1.53z"/>
  <path id="_6" class="fil10" d="M299.9 259.3c2.32,0 4.12,0.95 5.18,2.54 1.16,1.74 1.16,4.22 1.16,6.92 0,2.7 0,5.18 -1.16,6.93 -1.06,1.58 -2.86,2.53 -5.18,2.53 -2.33,0 -4.13,-0.95 -5.18,-2.53 -1.17,-1.75 -1.17,-4.23 -1.17,-6.93 0,-2.7 0,-5.18 1.17,-6.92 1.05,-1.59 2.85,-2.54 5.18,-2.54zm0 -3.49c-3.76,0 -6.82,1.69 -8.51,4.49 -1.54,2.54 -1.54,5.45 -1.54,8.46 0,3.01 0,5.92 1.54,8.46 1.69,2.8 4.75,4.49 8.51,4.49 3.75,0 6.82,-1.69 8.51,-4.49 1.53,-2.54 1.53,-5.45 1.53,-8.46 0,-3.01 0,-5.92 -1.53,-8.46 -1.69,-2.8 -4.76,-4.49 -8.51,-4.49z"/>
  <path id="_7" class="fil10" d="M332.89 276c-1.22,-1.63 -1.22,-4.75 -1.22,-6.13l4.87 0c3.75,0 6.03,0 8.25,-1.58 1.48,-1.06 2.64,-2.86 2.64,-5.19 -0.05,-2.06 -1.06,-4.01 -2.64,-5.34 -1.59,-1.27 -3.7,-1.95 -6.35,-1.95 -3.75,0 -6.92,1.37 -8.62,3.75 -1.9,2.65 -1.9,5.08 -1.9,9.2 0,3.44 0,6.61 2.01,9.36 1.69,2.27 4.6,3.59 8.25,3.59 2.75,0 5.5,-0.58 7.98,-1.85l-1.53 -3.17c-1.91,1.01 -4.18,1.53 -6.45,1.53 -2.54,0 -4.23,-0.79 -5.29,-2.22zm10.84 -12.9c0,1.22 -0.58,2.12 -1.27,2.65 -1.11,0.84 -2.59,0.84 -5.92,0.84l-4.87 0c0,-1.05 0,-3.7 1.33,-5.23 1.16,-1.38 3.06,-2.06 5.44,-2.06 1.64,0 3.01,0.37 3.91,1.11 0.8,0.63 1.33,1.69 1.38,2.69z"/>
  <path id="_8" class="fil10" d="M361.18 255.81c-2.49,0 -4.66,0.9 -6.08,2.27 -2.65,2.54 -2.65,5.82 -2.65,9.78l0 13.54 3.7 0 0 -13.54c0,-3.49 0,-5.87 1.59,-7.35 0.79,-0.74 2.01,-1.21 3.44,-1.21 1.42,0 2.64,0.47 3.43,1.21 1.59,1.48 1.59,3.86 1.59,7.35l0 13.54 3.7 0 0 -13.54c0,-3.49 0,-5.87 1.59,-7.35 0.79,-0.74 2,-1.21 3.43,-1.21 1.43,0 2.65,0.47 3.44,1.21 1.58,1.48 1.58,3.86 1.58,7.35l0 13.54 3.71 0 0 -13.54c0,-3.96 0,-7.24 -2.65,-9.78 -1.42,-1.37 -3.59,-2.27 -6.08,-2.27 -3.01,0 -5.44,1.32 -6.87,3.7 -1.43,-2.38 -3.86,-3.7 -6.87,-3.7z"/>
  <path id="_9" class="fil10" d="M415.1 245.87c-4.41,0 -7.49,1.85 -9.35,4.23 -2.54,3.33 -2.54,6.87 -2.54,13.69 0,6.82 0,10.36 2.54,13.7 1.86,2.37 4.94,4.22 9.35,4.22 3.65,0 7.19,-1.26 9.84,-3.59l-2.38 -2.91c-1.96,1.8 -4.71,2.8 -7.46,2.8 -2.72,0 -4.84,-1 -6.13,-2.64 -1.85,-2.43 -1.85,-4.97 -1.85,-11.58 0,-6.61 0,-9.15 1.85,-11.58 1.29,-1.64 3.41,-2.64 6.13,-2.64 2.54,0 5.08,0.9 6.98,2.48l2.28 -2.96c-2.59,-2.11 -5.98,-3.22 -9.26,-3.22z"/>
  <path id="_10" class="fil10" d="M438.95 259.3c2.33,0 4.12,0.95 5.18,2.54 1.16,1.74 1.16,4.22 1.16,6.92 0,2.7 0,5.18 -1.16,6.93 -1.06,1.58 -2.85,2.53 -5.18,2.53 -2.33,0 -4.12,-0.95 -5.18,-2.53 -1.17,-1.75 -1.17,-4.23 -1.17,-6.93 0,-2.7 0,-5.18 1.17,-6.92 1.06,-1.59 2.85,-2.54 5.18,-2.54zm0 -3.49c-3.75,0 -6.82,1.69 -8.51,4.49 -1.54,2.54 -1.54,5.45 -1.54,8.46 0,3.01 0,5.92 1.54,8.46 1.69,2.8 4.76,4.49 8.51,4.49 3.75,0 6.82,-1.69 8.51,-4.49 1.54,-2.54 1.54,-5.45 1.54,-8.46 0,-3.01 0,-5.92 -1.54,-8.46 -1.69,-2.8 -4.76,-4.49 -8.51,-4.49z"/>
  <path id="_11" class="fil10" d="M463.01 255.81c-2.49,0 -4.66,0.9 -6.08,2.27 -2.65,2.54 -2.65,5.82 -2.65,9.78l0 13.54 3.7 0 0 -13.54c0,-3.49 0,-5.87 1.59,-7.35 0.79,-0.74 2.01,-1.21 3.44,-1.21 1.42,0 2.64,0.47 3.43,1.21 1.59,1.48 1.59,3.86 1.59,7.35l0 13.54 3.7 0 0 -13.54c0,-3.49 0,-5.87 1.59,-7.35 0.79,-0.74 2,-1.21 3.43,-1.21 1.43,0 2.65,0.47 3.44,1.21 1.58,1.48 1.58,3.86 1.58,7.35l0 13.54 3.71 0 0 -13.54c0,-3.96 0,-7.24 -2.65,-9.78 -1.42,-1.37 -3.59,-2.27 -6.08,-2.27 -3.01,0 -5.44,1.32 -6.87,3.7 -1.43,-2.38 -3.86,-3.7 -6.87,-3.7z"/>
  <path id="_12" class="fil10" d="M500.97 259.3c1.95,0 3.54,0.68 4.49,1.74 1.69,1.91 1.69,4.6 1.69,7.62 0,2.96 0,5.86 -1.58,7.71 -0.95,1.12 -2.49,1.85 -4.5,1.85 -2.01,0 -3.54,-0.73 -4.49,-1.85 -1.59,-1.85 -1.59,-4.75 -1.59,-8.67 0,-2.8 0,-5.02 1.27,-6.5 1.01,-1.22 2.8,-1.9 4.71,-1.9zm0 -3.49c-2.44,0 -5.5,0.74 -7.56,3.17 -2.12,2.48 -2.12,4.97 -2.12,9.25l0 22.84 3.7 0 0 -12.58c1.43,2.01 3.76,3.22 6.35,3.22 3.12,0 5.6,-1.26 7.14,-3.11 2.37,-2.86 2.37,-6.35 2.37,-9.94 0,-3.28 0,-6.98 -2.53,-9.84 -1.64,-1.8 -4.18,-3.01 -7.35,-3.01z"/>
  <polygon id="_13" class="fil10" points="516.67,246.13 516.67,281.4 520.37,281.4 520.37,246.13 "/>
  <path id="_14" class="fil10" d="M529.09 247.08c-1.42,0 -2.48,1.01 -2.48,2.49 0,1.48 1.06,2.48 2.48,2.48 1.43,0 2.49,-1 2.49,-2.48 0,-1.48 -1.06,-2.49 -2.49,-2.49zm-1.85 34.32l3.71 0 0 -25.28 -3.71 0 0 25.28z"/>
  <path id="_15" class="fil10" d="M554.9 270.82l0 -3.91c0,-2.8 0,-5.92 -2.12,-8.3 -1.58,-1.8 -3.96,-2.8 -7.14,-2.8 -2.85,0 -5.55,0.63 -8.03,1.53l1.16 3.33c2.22,-0.84 4.55,-1.37 6.87,-1.37 2.01,0 3.39,0.53 4.29,1.53 1.27,1.43 1.27,3.54 1.27,5.18l-4.34 0c-2.06,0 -5.02,0 -7.51,1.8 -1.69,1.22 -3.12,3.28 -3.12,6.08 0,2.75 1.43,4.86 3.18,6.08 1.69,1.22 3.86,1.74 6.39,1.74 3.17,0 5.66,-0.89 7.25,-2.75 1.85,-2.16 1.85,-4.59 1.85,-8.14zm-3.7 0c0,3.12 0,4.76 -1.01,5.92 -0.9,1.06 -2.43,1.48 -4.39,1.48 -1.69,0 -3.17,-0.31 -4.17,-1 -0.96,-0.69 -1.7,-1.85 -1.7,-3.33 0,-1.64 0.8,-2.86 1.75,-3.54 1.48,-1.06 3.38,-1.06 5.18,-1.06l4.34 0 0 1.53z"/>
  <path id="_16" class="fil10" d="M569.7 255.81c-3.23,0 -5.5,1.37 -6.77,2.69 -2.48,2.59 -2.48,5.66 -2.48,9.36l0 13.54 3.7 0 0 -13.54c0,-3.28 0,-5.5 1.53,-7.03 0.9,-0.9 2.28,-1.53 4.02,-1.53 1.74,0 3.12,0.63 4.02,1.53 1.53,1.53 1.53,3.75 1.53,7.03l0 13.54 3.7 0 0 -13.54c0,-3.7 0,-6.77 -2.48,-9.36 -1.27,-1.32 -3.54,-2.69 -6.77,-2.69z"/>
  <path id="_17" class="fil10" d="M600 276.48c-1.7,1.16 -3.71,1.74 -5.72,1.74 -2.06,0 -3.64,-0.68 -4.65,-1.85 -1.69,-1.95 -1.69,-5.12 -1.69,-7.82 0,-2.33 0,-5.45 1.64,-7.35 1.27,-1.48 3.07,-1.9 4.7,-1.9 1.91,0 3.86,0.58 5.45,1.58l1.8 -3.01c-2.17,-1.38 -4.71,-2.06 -7.25,-2.06 -3.38,0 -5.92,1.27 -7.56,3.17 -2.48,2.86 -2.48,6.82 -2.48,9.57 0,3.12 0,7.19 2.54,10.05 1.64,1.85 4.12,3.11 7.5,3.11 2.7,0 5.4,-0.79 7.62,-2.27l-1.9 -2.96z"/>
  <path id="_18" class="fil10" d="M610.57 276c-1.22,-1.63 -1.22,-4.75 -1.22,-6.13l4.87 0c3.75,0 6.02,0 8.24,-1.58 1.49,-1.06 2.65,-2.86 2.65,-5.19 -0.05,-2.06 -1.06,-4.01 -2.65,-5.34 -1.58,-1.27 -3.7,-1.95 -6.34,-1.95 -3.75,0 -6.93,1.37 -8.62,3.75 -1.9,2.65 -1.9,5.08 -1.9,9.2 0,3.44 0,6.61 2.01,9.36 1.69,2.27 4.6,3.59 8.25,3.59 2.75,0 5.49,-0.58 7.98,-1.85l-1.53 -3.17c-1.91,1.01 -4.18,1.53 -6.45,1.53 -2.54,0 -4.23,-0.79 -5.29,-2.22zm10.84 -12.9c0,1.22 -0.58,2.12 -1.27,2.65 -1.11,0.84 -2.59,0.84 -5.92,0.84l-4.87 0c0,-1.05 0,-3.7 1.32,-5.23 1.17,-1.38 3.07,-2.06 5.45,-2.06 1.64,0 3.01,0.37 3.91,1.11 0.8,0.63 1.32,1.69 1.38,2.69z"/>
  <path class="fil11" d="M923.19 636.03c-35.96,4.53 -72.31,-39.59 -57.16,-72.45 22.98,-39.94 18.43,-91.78 -14.55,-127.3 -40.59,-43.71 -108.95,-46.24 -152.62,-5.63 -43.72,40.58 -46.21,108.92 -5.62,152.63 34.04,36.65 87.58,44.31 129.74,21.89 32.56,-9.94 71.89,28.44 65.43,62.81 9.91,-12.65 21.71,-23.38 34.78,-31.95z"/>
  <path class="fil12" d="M1033.34 614.36c-27.74,-22.38 -22.83,-78.11 10.52,-90.95 44.27,-12.69 77.15,-53 78.21,-101.49 1.27,-59.65 -46,-109.03 -105.65,-110.33 -59.6,-1.29 -109.02,46 -110.29,105.64 -1.09,50.01 32.01,92.82 77.86,106.08 29.54,15.11 31.71,67.79 5.29,89.07 14.5,-1.55 29.36,-0.93 44.06,1.98z"/>
  <path class="fil13" d="M1095.58 642.72c35.71,10.59 78.56,-30.44 66.69,-65.44 -18.65,-42.15 -8.7,-93.2 27.86,-125.06 44.95,-39.2 113.2,-34.5 152.35,10.46 39.2,44.97 34.54,113.2 -10.45,152.37 -37.72,32.87 -91.79,34.87 -131.38,8.12 -31.44,-13.39 -74.97,21.09 -71.57,56.16 -8.91,-13.82 -20.13,-26.23 -33.5,-36.61z"/>
  <path class="fil14" d="M870.62 696.85c34.67,-74.05 122.8,-105.98 196.84,-71.31 74.05,34.66 105.97,122.8 71.3,196.85 -34.67,74.05 -122.8,105.98 -196.85,71.31 -74.04,-34.66 -105.96,-122.8 -71.29,-196.85z"/>
  <path class="fil15" d="M879.22 793.07c-6.77,-25.57 -5.54,-53.12 3.54,-77.99l32.51 11.94c-6.77,18.48 -7.68,38.18 -2.63,57.21l-33.42 8.84z"/>
  <path class="fil15" d="M939.52 872.06c-22.87,-13.32 -41.04,-33.15 -52.3,-57.14l31.24 -14.66c8.16,17.47 21.65,32.22 38.34,41.94l-17.28 29.86z"/>
  <path class="fil16" d="M964.63 673.17c-17.85,8.32 -32.38,21.6 -42.25,38.66l-29.99 -17.32c13.29,-22.91 33.66,-41.49 57.64,-52.68l14.6 31.34z"/>
  <path class="fil17" d="M1037.44 669.96c-18.15,-6.6 -38.12,-7.5 -56.77,-2.59l-8.74 -33.38c25.64,-6.71 52.5,-5.46 77.37,3.58l-11.86 32.39z"/>
  <path class="fil15" d="M1044.74 846.08c17.85,-8.32 32.4,-21.62 42.26,-38.67l29.98 17.33c-13.28,22.91 -33.61,41.51 -57.63,52.67l-14.61 -31.33z"/>
  <path class="fil15" d="M971.94 849.28c18.15,6.6 38.12,7.51 56.81,2.61l8.7 33.36c-25.64,6.72 -52.51,5.47 -77.38,-3.57l11.87 -32.4z"/>
  <path class="fil15" d="M1130.16 726.17c6.81,25.6 5.54,53.12 -3.54,78l-32.52 -11.94c6.78,-18.49 7.68,-38.18 2.64,-57.21l33.42 -8.85z"/>
  <path class="fil18" d="M1069.86 647.19c22.87,13.32 41.03,33.14 52.3,57.13l-31.19 14.69c-8.22,-17.49 -21.7,-32.25 -38.4,-41.96l17.29 -29.86z"/>
  <g id="_1157546464352">
   <path class="fil19" d="M1024.4 737.51c0,8.41 -6.83,17.14 -15.23,17.14 -8.41,0 -15.23,-8.73 -15.23,-17.14 0,-8.4 6.82,-15.22 15.23,-15.22 8.4,0 15.23,6.82 15.23,15.22z"/>
   <path class="fil19" d="M1030.67 792.78c2.82,0 5.09,-2.27 5.09,-5.06l0 -3.52c0,-10.87 -7.85,-26.95 -26.59,-26.95 -18.05,0 -26.6,15.48 -26.6,26.48l0 3.99c0,2.79 2.28,5.06 5.03,5.06l43.07 0z"/>
   <path class="fil19" d="M988.16 742.63c0,6.14 -5.03,13.02 -11.17,13.02 -6.13,0 -11.09,-6.88 -11.09,-13.02 0,-6.14 4.96,-11.12 11.09,-11.12 6.14,0 11.17,4.98 11.17,11.12z"/>
   <path class="fil19" d="M989.81 761.81c-3.38,-2.93 -7.92,-4.76 -12.82,-4.76 -10.12,0 -18.39,7.74 -19.29,17.63l-0.14 0c0,4.59 3.72,8.31 8.34,8.31l14.19 0c-0.13,-8.84 3.93,-16.3 9.72,-21.18z"/>
   <path class="fil19" d="M1030.05 742.63c0,6.14 5.02,13.02 11.16,13.02 6.13,0 11.09,-6.88 11.09,-13.02 0,-6.14 -4.96,-11.12 -11.09,-11.12 -6.14,0 -11.16,4.98 -11.16,11.12z"/>
   <path class="fil19" d="M1028.39 761.81c3.38,-2.93 7.92,-4.76 12.82,-4.76 10.13,0 18.39,7.74 19.36,17.63l0.07 0c0,4.59 -3.72,8.31 -8.34,8.31l-14.19 0c0.13,-8.84 -3.86,-16.3 -9.72,-21.18z"/>
  </g>
  <path class="fil20" d="M733.32 497.71l0 17.03c0,1.59 0,3.06 1.33,4.22 1.09,0.93 2.42,0.93 3.89,0.93l6.41 0 0 -2.33 -6.41 0c-1.23,0 -1.8,0 -2.2,-0.3 -0.56,-0.43 -0.56,-1.16 -0.56,-2.52l0 -17.03 -2.46 0z"/>
  <path id="_1_3" class="fil20" d="M755.43 497.55c-2.78,0 -4.72,1.16 -5.89,2.66 -1.59,2.09 -1.59,4.32 -1.59,8.61 0,4.29 0,6.52 1.59,8.61 1.17,1.5 3.11,2.66 5.89,2.66 2.77,0 4.72,-1.16 5.88,-2.66 1.6,-2.09 1.6,-4.32 1.6,-8.61l0 -0.8 -7.05 0 0 2.33 4.59 0c-0.02,3.05 -0.15,4.43 -1.16,5.75 -0.81,1.03 -2.15,1.66 -3.86,1.66 -1.71,0 -3.05,-0.63 -3.86,-1.66 -1.16,-1.53 -1.16,-3.12 -1.16,-7.28 0,-4.16 0,-5.75 1.16,-7.28 0.81,-1.03 2.15,-1.66 3.86,-1.66 1.59,0 3.2,0.56 4.39,1.56l1.43 -1.86c-1.63,-1.33 -3.75,-2.03 -5.82,-2.03z"/>
  <path id="_2_4" class="fil20" d="M772.35 497.71c-1.13,0 -2.36,0 -3.45,0.93 -1.34,1.17 -1.34,2.63 -1.34,4.24l0 17.01 2.47 0 0 -7.85 1.82 0c2.63,0 5.09,0 7.12,-1.82 1.63,-1.47 2.23,-3.57 2.23,-5.34 0,-1.77 -0.6,-3.87 -2.23,-5.34 -2.03,-1.83 -4.32,-1.83 -6.62,-1.83zm0 2.33c2.13,0 3.59,0 4.89,1.16 0.9,0.81 1.5,2.08 1.5,3.68 0,1.6 -0.6,2.87 -1.5,3.67 -1.3,1.17 -2.93,1.17 -5.39,1.17l-1.82 0 0 -6.84c0,-1.37 0,-2.11 0.56,-2.54 0.4,-0.3 0.87,-0.3 1.76,-0.3z"/>
  <path id="_3_5" class="fil20" d="M789.91 497.71c-0.8,0 -2.13,0 -3.23,0.93 -1.33,1.17 -1.33,2.63 -1.33,4.23l0 11.86c0,1.6 0,3.07 1.33,4.23 1.1,0.93 2.43,0.93 3.23,0.93 2.16,0 5.52,0 7.81,-2.29 2.26,-2.26 2.26,-5.4 2.26,-8.8 0,-3.39 0,-6.53 -2.26,-8.79 -2.29,-2.3 -5.65,-2.3 -7.81,-2.3zm0 2.33c1.86,0 4.45,0 6.02,1.56 1.59,1.61 1.59,4.01 1.59,7.2 0,3.2 0,5.6 -1.59,7.2 -1.57,1.56 -4.16,1.56 -6.02,1.56 -0.57,0 -1.13,0 -1.53,-0.3 -0.57,-0.43 -0.57,-1.16 -0.57,-2.53l0 -11.86c0,-1.37 0,-2.1 0.57,-2.53 0.4,-0.3 0.96,-0.3 1.53,-0.3z"/>
  <path class="fil20" d="M948.01 401.63c-1.13,0 -2.36,0 -3.46,0.93 -1.33,1.17 -1.33,2.63 -1.33,4.24l0 17.01 2.46 0 0 -7.85 1.83 0c2.63,0 5.09,0 7.12,-1.83 1.62,-1.46 2.22,-3.57 2.22,-5.33 0,-1.77 -0.6,-3.88 -2.22,-5.34 -2.03,-1.83 -4.33,-1.83 -6.62,-1.83zm0 2.33c2.13,0 3.59,0 4.89,1.16 0.89,0.81 1.49,2.08 1.49,3.68 0,1.6 -0.6,2.87 -1.49,3.67 -1.3,1.16 -2.93,1.16 -5.39,1.16l-1.83 0 0 -6.83c0,-1.37 0,-2.11 0.57,-2.54 0.39,-0.3 0.86,-0.3 1.76,-0.3z"/>
  <path id="_1_6" class="fil20" d="M966.43 407.72c-1.53,0 -3.46,0.46 -4.76,1.99 -1.33,1.56 -1.33,3.13 -1.33,5.82l0 8.28 2.33 0 0 -8.28c0,-2.09 0,-3.49 0.8,-4.42 0.63,-0.77 1.76,-1.2 2.96,-1.2 0.56,0 1.1,0.1 1.56,0.27l0.7 -2.1c-0.67,-0.23 -1.43,-0.36 -2.26,-0.36z"/>
  <path id="_2_7" class="fil20" d="M976.9 409.91c1.47,0 2.6,0.6 3.26,1.6 0.73,1.09 0.73,2.66 0.73,4.35 0,1.7 0,3.26 -0.73,4.36 -0.66,1 -1.79,1.59 -3.26,1.59 -1.46,0 -2.59,-0.59 -3.26,-1.59 -0.73,-1.1 -0.73,-2.66 -0.73,-4.36 0,-1.69 0,-3.26 0.73,-4.35 0.67,-1 1.8,-1.6 3.26,-1.6zm0 -2.19c-2.36,0 -4.29,1.06 -5.35,2.82 -0.96,1.6 -0.96,3.43 -0.96,5.32 0,1.9 0,3.73 0.96,5.32 1.06,1.77 2.99,2.83 5.35,2.83 2.36,0 4.29,-1.06 5.36,-2.83 0.96,-1.59 0.96,-3.42 0.96,-5.32 0,-1.89 0,-3.72 -0.96,-5.32 -1.07,-1.76 -3,-2.82 -5.36,-2.82z"/>
  <path id="_3_8" class="fil20" d="M987.28 407.92l-2.4 0 2.96 12.2c0.37,1.53 0.53,2.39 1.47,3.16 0.53,0.43 1.26,0.73 2.09,0.73 0.83,0 1.56,-0.3 2.1,-0.73 0.93,-0.77 1.09,-1.63 1.46,-3.16l2.96 -12.2 -2.4 0 -2.89 11.97c-0.2,0.86 -0.33,1.36 -0.53,1.59 -0.17,0.2 -0.43,0.33 -0.7,0.33 -0.27,0 -0.53,-0.13 -0.7,-0.33 -0.2,-0.23 -0.33,-0.73 -0.53,-1.59l-2.89 -11.97z"/>
  <path id="_4_9" class="fil20" d="M1001.74 402.23c-0.9,0 -1.56,0.63 -1.56,1.56 0,0.93 0.66,1.57 1.56,1.57 0.9,0 1.56,-0.64 1.56,-1.57 0,-0.93 -0.66,-1.56 -1.56,-1.56zm-1.16 21.58l2.32 0 0 -15.89 -2.32 0 0 15.89z"/>
  <path id="_5_10" class="fil20" d="M1012.38 407.72c-1.56,0 -2.93,0.56 -3.82,1.43 -1.67,1.59 -1.67,3.65 -1.67,6.15l0 8.51 2.33 0 0 -8.51c0,-2.2 0,-3.69 1,-4.62 0.5,-0.47 1.26,-0.77 2.16,-0.77 0.9,0 1.66,0.3 2.16,0.77 1,0.93 1,2.42 1,4.62l0 8.51 2.33 0 0 -8.51c0,-2.2 0,-3.69 0.99,-4.62 0.5,-0.47 1.27,-0.77 2.17,-0.77 0.89,0 1.66,0.3 2.16,0.77 1,0.93 1,2.42 1,4.62l0 8.51 2.32 0 0 -8.51c0,-2.5 0,-4.56 -1.66,-6.15 -0.9,-0.87 -2.26,-1.43 -3.82,-1.43 -1.9,0 -3.43,0.83 -4.33,2.32 -0.89,-1.49 -2.42,-2.32 -4.32,-2.32z"/>
  <path id="_6_11" class="fil20" d="M1032.96 420.42c-0.76,-1.03 -0.76,-2.99 -0.76,-3.86l3.06 0c2.36,0 3.79,0 5.18,-1 0.93,-0.66 1.67,-1.79 1.67,-3.26 -0.04,-1.29 -0.67,-2.52 -1.67,-3.35 -0.99,-0.8 -2.32,-1.23 -3.99,-1.23 -2.36,0 -4.35,0.86 -5.42,2.36 -1.19,1.66 -1.19,3.19 -1.19,5.78 0,2.16 0,4.16 1.26,5.89 1.06,1.43 2.89,2.26 5.19,2.26 1.73,0 3.46,-0.37 5.02,-1.16l-0.97 -2c-1.19,0.63 -2.62,0.96 -4.05,0.96 -1.6,0 -2.66,-0.49 -3.33,-1.39zm6.82 -8.12c0,0.77 -0.37,1.33 -0.8,1.67 -0.7,0.53 -1.63,0.53 -3.72,0.53l-3.06 0c0,-0.67 0,-2.33 0.83,-3.29 0.73,-0.87 1.93,-1.3 3.42,-1.3 1.03,0 1.9,0.23 2.46,0.7 0.5,0.4 0.84,1.06 0.87,1.69z"/>
  <path id="_7_12" class="fil20" d="M1051.08 407.72c-2.02,0 -3.45,0.86 -4.25,1.69 -1.56,1.63 -1.56,3.56 -1.56,5.89l0 8.51 2.32 0 0 -8.51c0,-2.06 0,-3.46 0.97,-4.42 0.56,-0.57 1.43,-0.97 2.52,-0.97 1.1,0 1.97,0.4 2.53,0.97 0.97,0.96 0.97,2.36 0.97,4.42l0 8.51 2.32 0 0 -8.51c0,-2.33 0,-4.26 -1.56,-5.89 -0.8,-0.83 -2.23,-1.69 -4.26,-1.69z"/>
  <path id="_8_13" class="fil20" d="M1063.05 418.16l0 -8.18 3.99 0 0 -2.06 -3.99 0 0 -3.76 -2.32 0 0 14c0,1.89 0,3.16 0.93,4.32 0.73,0.93 1.96,1.53 3.42,1.53 1.2,0 2.26,-0.4 3.16,-0.87l-1 -1.96c-0.76,0.4 -1.53,0.63 -2.16,0.63 -0.73,0 -1.23,-0.26 -1.56,-0.66 -0.47,-0.6 -0.47,-1.2 -0.47,-2.99z"/>
  <path id="_9_14" class="fil20" d="M1076.32 409.91c1.46,0 2.59,0.6 3.26,1.6 0.73,1.09 0.73,2.66 0.73,4.35 0,1.7 0,3.26 -0.73,4.36 -0.67,1 -1.8,1.59 -3.26,1.59 -1.46,0 -2.59,-0.59 -3.26,-1.59 -0.73,-1.1 -0.73,-2.66 -0.73,-4.36 0,-1.69 0,-3.26 0.73,-4.35 0.67,-1 1.8,-1.6 3.26,-1.6zm0 -2.19c-2.36,0 -4.29,1.06 -5.35,2.82 -0.97,1.6 -0.97,3.43 -0.97,5.32 0,1.9 0,3.73 0.97,5.32 1.06,1.77 2.99,2.83 5.35,2.83 2.36,0 4.29,-1.06 5.35,-2.83 0.97,-1.59 0.97,-3.42 0.97,-5.32 0,-1.89 0,-3.72 -0.97,-5.32 -1.06,-1.76 -2.99,-2.82 -5.35,-2.82z"/>
  <path id="_10_15" class="fil20" d="M1000.48 459.52l2.69 0 7.35 -15.12c0.73,-1.5 1.3,-2.64 1.3,-3.77 0,-1.03 -0.4,-1.76 -0.97,-2.32 -0.96,-0.97 -2.26,-0.97 -3.59,-0.97l-8.38 0 0 2.33 8.05 0c1.43,0 1.83,0 2.09,0.2 0.2,0.17 0.34,0.4 0.34,0.76 0,0.57 -0.3,1.2 -1.07,2.77l-7.81 16.12z"/>
  <path id="_11_16" class="fil20" d="M1021.39 437.34l-2.76 0 -5.32 9.9c-0.64,1.19 -1.26,2.3 -1.26,3.5 0,1.43 0.8,2.4 1.79,2.89 0.8,0.4 1.57,0.4 3.16,0.4l4.76 0 0 5.49 2.33 0 0 -5.49 1.89 0 0 -2.32 -1.89 0 0 -5.6 -2.33 0 0 5.6 -5.09 0c-1.26,0 -1.73,0 -1.99,-0.4 -0.14,-0.2 -0.17,-0.37 -0.17,-0.57 0,-0.6 0.26,-1.04 1.13,-2.66l5.75 -10.74z"/>
  <path class="fil20" d="M1211.06 499.19c-2.78,0 -4.72,1.17 -5.89,2.66 -1.59,2.1 -1.59,4.33 -1.59,8.62 0,4.29 0,6.51 1.59,8.61 1.17,1.49 3.11,2.66 5.89,2.66 2.29,0 4.52,-0.8 6.18,-2.26l-1.49 -1.83c-1.23,1.13 -2.96,1.76 -4.69,1.76 -1.71,0 -3.05,-0.63 -3.86,-1.66 -1.16,-1.53 -1.16,-3.13 -1.16,-7.28 0,-4.16 0,-5.76 1.16,-7.29 0.81,-1.03 2.15,-1.66 3.86,-1.66 1.59,0 3.19,0.57 4.39,1.56l1.43 -1.86c-1.63,-1.33 -3.76,-2.03 -5.82,-2.03z"/>
  <path id="_1_17" class="fil20" d="M1229.94 499.36l-2.59 0 -2.49 3.99 2.19 0 2.89 -3.99zm-3.89 8.28c1.47,0 2.6,0.6 3.26,1.6 0.73,1.09 0.73,2.66 0.73,4.35 0,1.7 0,3.26 -0.73,4.36 -0.66,1 -1.79,1.59 -3.26,1.59 -1.46,0 -2.59,-0.59 -3.25,-1.59 -0.74,-1.1 -0.74,-2.66 -0.74,-4.36 0,-1.69 0,-3.26 0.74,-4.35 0.66,-1 1.79,-1.6 3.25,-1.6zm0 -2.19c-2.36,0 -4.29,1.06 -5.35,2.82 -0.96,1.6 -0.96,3.43 -0.96,5.32 0,1.9 0,3.73 0.96,5.32 1.06,1.76 2.99,2.83 5.35,2.83 2.36,0 4.29,-1.07 5.36,-2.83 0.96,-1.59 0.96,-3.42 0.96,-5.32 0,-1.89 0,-3.72 -0.96,-5.32 -1.07,-1.76 -3,-2.82 -5.36,-2.82z"/>
  <path id="_2_18" class="fil20" d="M1241.35 505.45c-1.96,0 -3.53,0.79 -4.49,1.96 -1.5,1.79 -1.5,3.99 -1.5,6.25 0,2.03 0,4.35 1.87,6.25 1.03,1.03 2.62,1.83 4.62,1.83 2.09,0 3.76,-0.9 4.69,-2.2 1.13,-1.56 1.13,-3.22 1.13,-5.72l0 -14.46 -2.33 0 0 8.11c-0.9,-1.26 -2.36,-2.02 -3.99,-2.02zm3.99 8.81c0,1.76 0,3.19 -0.8,4.15 -0.66,0.8 -1.66,1.13 -2.69,1.13 -1.13,0 -2.26,-0.4 -2.99,-1.19 -1.17,-1.27 -1.17,-3 -1.17,-4.69 0,-1.86 0,-3.69 1,-4.86 0.6,-0.69 1.56,-1.16 2.83,-1.16 1.26,0 2.22,0.47 2.82,1.16 1,1.17 1,3 1,5.46z"/>
  <path id="_3_19" class="fil20" d="M1252.82 499.96c-0.9,0 -1.56,0.63 -1.56,1.56 0,0.93 0.66,1.56 1.56,1.56 0.9,0 1.56,-0.63 1.56,-1.56 0,-0.93 -0.66,-1.56 -1.56,-1.56zm-1.16 21.58l2.32 0 0 -15.9 -2.32 0 0 15.9z"/>
  <path id="_4_20" class="fil20" d="M1263.86 507.64c1.2,0 2.33,0.43 2.96,1.2 0.8,0.93 0.8,2.32 0.8,4.09 0,2.46 0,4.29 -1,5.45 -0.6,0.7 -1.56,1.16 -2.83,1.16 -1.26,0 -2.22,-0.46 -2.82,-1.16 -1,-1.16 -1,-2.99 -1,-4.85 0,-1.9 0,-3.6 1.06,-4.79 0.6,-0.67 1.6,-1.1 2.83,-1.1zm0 -2.19c-1.99,0 -3.59,0.76 -4.62,1.89 -1.6,1.8 -1.6,4.12 -1.6,6.19 0,2.26 0,4.45 1.5,6.25 0.96,1.16 2.53,1.96 4.49,1.96 1.63,0 3.09,-0.77 3.99,-2.03l0 0.33c0,2.03 0,3.23 -0.8,4.23 -0.63,0.79 -1.73,1.36 -3.36,1.36 -1.4,0 -2.79,-0.4 -3.89,-1l-0.96 2c1.46,0.79 3.22,1.19 4.85,1.19 2.2,0 3.89,-0.76 4.96,-1.93 1.52,-1.66 1.52,-3.49 1.52,-5.85l0 -6.78c0,-2.69 0,-4.26 -1.33,-5.82 -1.29,-1.53 -3.22,-1.99 -4.75,-1.99z"/>
  <path id="_5_21" class="fil20" d="M1279.59 507.64c1.46,0 2.59,0.6 3.26,1.6 0.73,1.09 0.73,2.66 0.73,4.35 0,1.7 0,3.26 -0.73,4.36 -0.67,1 -1.8,1.59 -3.26,1.59 -1.47,0 -2.6,-0.59 -3.26,-1.59 -0.73,-1.1 -0.73,-2.66 -0.73,-4.36 0,-1.69 0,-3.26 0.73,-4.35 0.66,-1 1.79,-1.6 3.26,-1.6zm0 -2.19c-2.36,0 -4.29,1.06 -5.36,2.82 -0.96,1.6 -0.96,3.43 -0.96,5.32 0,1.9 0,3.73 0.96,5.32 1.07,1.76 3,2.83 5.36,2.83 2.36,0 4.29,-1.07 5.35,-2.83 0.96,-1.59 0.96,-3.42 0.96,-5.32 0,-1.89 0,-3.72 -0.96,-5.32 -1.06,-1.76 -2.99,-2.82 -5.35,-2.82z"/>
  <path id="_6_22" class="fil20" d="M1303.2 505.45c-1.97,0 -3.53,0.79 -4.49,1.96 -1.5,1.79 -1.5,3.99 -1.5,6.25 0,2.03 0,4.35 1.86,6.25 1.03,1.03 2.63,1.83 4.62,1.83 2.1,0 3.76,-0.9 4.69,-2.2 1.13,-1.56 1.13,-3.22 1.13,-5.72l0 -14.46 -2.32 0 0 8.11c-0.9,-1.26 -2.37,-2.02 -3.99,-2.02zm3.99 8.81c0,1.76 0,3.19 -0.8,4.15 -0.67,0.8 -1.67,1.13 -2.7,1.13 -1.13,0 -2.26,-0.4 -2.99,-1.19 -1.16,-1.27 -1.16,-3 -1.16,-4.69 0,-1.86 0,-3.69 0.99,-4.86 0.6,-0.69 1.57,-1.16 2.83,-1.16 1.26,0 2.23,0.47 2.83,1.16 1,1.17 1,3 1,5.46z"/>
  <path id="_7_23" class="fil20" d="M1315.96 518.15c-0.76,-1.03 -0.76,-3 -0.76,-3.86l3.06 0c2.36,0 3.79,0 5.19,-1 0.93,-0.66 1.66,-1.79 1.66,-3.26 -0.04,-1.29 -0.67,-2.52 -1.66,-3.35 -1,-0.8 -2.33,-1.23 -4,-1.23 -2.36,0 -4.35,0.86 -5.41,2.36 -1.2,1.66 -1.2,3.19 -1.2,5.78 0,2.16 0,4.16 1.26,5.89 1.07,1.43 2.89,2.26 5.19,2.26 1.73,0 3.46,-0.37 5.02,-1.17l-0.97 -1.99c-1.19,0.63 -2.62,0.96 -4.05,0.96 -1.6,0 -2.66,-0.5 -3.33,-1.39zm6.82 -8.12c0,0.77 -0.37,1.33 -0.8,1.67 -0.7,0.53 -1.63,0.53 -3.72,0.53l-3.06 0c0,-0.67 0,-2.33 0.83,-3.29 0.73,-0.87 1.93,-1.3 3.42,-1.3 1.04,0 1.9,0.23 2.47,0.7 0.49,0.4 0.83,1.06 0.86,1.69z"/>
  <path id="_8_24" class="fil20" d="M1225.12 534.9c-2.06,0 -3.95,0.77 -5.15,2.13 -1.73,1.96 -1.73,4.36 -1.73,7.35l0 12.87 2.46 0 0 -12.87c0,-2.69 0,-4.55 1.13,-5.82 0.8,-0.9 2,-1.33 3.29,-1.33 1.3,0 2.5,0.43 3.29,1.33 1.14,1.27 1.14,3.13 1.14,5.82l0 12.87 2.46 0 0 -12.87c0,-2.99 0,-5.39 -1.73,-7.35 -1.2,-1.36 -3.1,-2.13 -5.16,-2.13z"/>
  <path id="_9_25" class="fil20" d="M1242.15 543.35c1.46,0 2.59,0.6 3.26,1.6 0.73,1.09 0.73,2.66 0.73,4.35 0,1.7 0,3.26 -0.73,4.36 -0.67,1 -1.8,1.59 -3.26,1.59 -1.47,0 -2.6,-0.59 -3.26,-1.59 -0.73,-1.1 -0.73,-2.66 -0.73,-4.36 0,-1.69 0,-3.26 0.73,-4.35 0.66,-1 1.79,-1.6 3.26,-1.6zm0 -2.19c-2.36,0 -4.29,1.06 -5.36,2.82 -0.96,1.6 -0.96,3.43 -0.96,5.32 0,1.9 0,3.73 0.96,5.32 1.07,1.76 3,2.83 5.36,2.83 2.36,0 4.29,-1.07 5.35,-2.83 0.97,-1.59 0.97,-3.42 0.97,-5.32 0,-1.89 0,-3.72 -0.97,-5.32 -1.06,-1.76 -2.99,-2.82 -5.35,-2.82z"/>
  <path id="_10_26" class="fil20" d="M1257.88 541.16c-1.53,0 -3.46,0.46 -4.76,1.99 -1.33,1.56 -1.33,3.13 -1.33,5.82l0 8.28 2.33 0 0 -8.28c0,-2.09 0,-3.49 0.8,-4.42 0.63,-0.77 1.76,-1.2 2.96,-1.2 0.56,0 1.09,0.1 1.56,0.27l0.7 -2.1c-0.67,-0.23 -1.43,-0.36 -2.26,-0.36z"/>
  <path id="_11_27" class="fil20" d="M1267.85 541.16c-1.56,0 -2.93,0.56 -3.82,1.43 -1.67,1.59 -1.67,3.65 -1.67,6.15l0 8.51 2.33 0 0 -8.51c0,-2.2 0,-3.69 1,-4.63 0.5,-0.46 1.26,-0.76 2.16,-0.76 0.9,0 1.66,0.3 2.16,0.76 1,0.94 1,2.43 1,4.63l0 8.51 2.33 0 0 -8.51c0,-2.2 0,-3.69 0.99,-4.63 0.5,-0.46 1.27,-0.76 2.17,-0.76 0.89,0 1.66,0.3 2.16,0.76 0.99,0.94 0.99,2.43 0.99,4.63l0 8.51 2.33 0 0 -8.51c0,-2.5 0,-4.56 -1.66,-6.15 -0.9,-0.87 -2.26,-1.43 -3.82,-1.43 -1.9,0 -3.43,0.83 -4.33,2.32 -0.89,-1.49 -2.42,-2.32 -4.32,-2.32z"/>
  <path id="_12_28" class="fil20" d="M1296.71 550.6l0 -2.46c0,-1.76 0,-3.73 -1.33,-5.22 -1,-1.13 -2.49,-1.76 -4.49,-1.76 -1.79,0 -3.49,0.39 -5.05,0.96l0.73 2.1c1.4,-0.54 2.86,-0.87 4.32,-0.87 1.27,0 2.13,0.33 2.7,0.96 0.79,0.9 0.79,2.23 0.79,3.26l-2.72 0c-1.3,0 -3.16,0 -4.72,1.13 -1.07,0.77 -1.97,2.07 -1.97,3.83 0,1.73 0.9,3.06 2,3.82 1.06,0.77 2.43,1.1 4.02,1.1 2,0 3.56,-0.57 4.56,-1.73 1.16,-1.36 1.16,-2.89 1.16,-5.12zm-2.33 0c0,1.96 0,2.99 -0.63,3.72 -0.56,0.67 -1.53,0.93 -2.76,0.93 -1.06,0 -1.99,-0.2 -2.62,-0.63 -0.6,-0.43 -1.07,-1.16 -1.07,-2.09 0,-1.03 0.5,-1.8 1.1,-2.23 0.93,-0.67 2.13,-0.67 3.26,-0.67l2.72 0 0 0.97z"/>
  <path id="_13_29" class="fil20" d="M1309.85 542.25c-1.5,-0.7 -3.16,-1.09 -4.86,-1.09 -1.36,0 -2.53,0.29 -3.49,0.96 -0.97,0.67 -1.8,1.83 -1.8,3.36 0,1.43 0.77,2.63 1.77,3.39 0.99,0.76 2.19,1.06 3.25,1.3 1.07,0.23 1.9,0.43 2.63,0.96 0.53,0.4 0.93,1.03 0.93,1.8 0,0.56 -0.23,1.23 -0.86,1.69 -0.63,0.47 -1.46,0.63 -2.43,0.63 -1.53,0 -3.06,-0.33 -4.42,-0.96l-0.93 1.99c1.69,0.8 3.55,1.17 5.35,1.17 1.53,0 2.79,-0.33 3.82,-1.07 1.04,-0.73 1.8,-1.96 1.8,-3.45 0,-1.67 -0.93,-2.9 -1.96,-3.63 -0.93,-0.66 -2.03,-0.96 -3.23,-1.23 -1.19,-0.26 -1.89,-0.43 -2.56,-0.96 -0.46,-0.37 -0.83,-0.93 -0.83,-1.63 0,-0.73 0.4,-1.33 0.97,-1.66 0.56,-0.34 1.16,-0.47 1.99,-0.47 1.33,0 2.73,0.33 3.99,0.93l0.87 -2.03z"/>
  <path class="fil21" d="M1361.56 392.33c7.6,0 13.76,6.16 13.76,13.76 0,7.6 -6.16,13.76 -13.76,13.76 -7.6,0 -13.76,-6.16 -13.76,-13.76 0,-7.6 6.16,-13.76 13.76,-13.76l0 0z"/>
  <path class="fil12" d="M1117.67 296.53c7.6,0 13.76,6.16 13.76,13.77 0,7.6 -6.16,13.75 -13.76,13.75 -7.6,0 -13.75,-6.15 -13.75,-13.75 0,-7.61 6.15,-13.77 13.75,-13.77l0 0z"/>
  <path class="fil11" d="M663.26 306.26c7.6,0 13.76,6.16 13.76,13.76 0,7.6 -6.16,13.76 -13.76,13.76 -7.6,0 -13.76,-6.16 -13.76,-13.76 0,-7.6 6.16,-13.76 13.76,-13.76l0 0z"/>
  <path class="fil10" d="M1400.29 387.58c-2.38,0 -4.04,1 -5.04,2.29 -1.37,1.79 -1.37,3.7 -1.37,7.38 0,3.67 0,5.58 1.37,7.38 1,1.28 2.66,2.28 5.04,2.28 1.97,0 3.88,-0.69 5.3,-1.94l-1.28 -1.57c-1.05,0.97 -2.53,1.51 -4.02,1.51 -1.46,0 -2.61,-0.54 -3.3,-1.42 -1,-1.31 -1,-2.68 -1,-6.24 0,-3.57 0,-4.93 1,-6.25 0.69,-0.88 1.84,-1.42 3.3,-1.42 1.37,0 2.74,0.48 3.77,1.34l1.22 -1.6c-1.4,-1.14 -3.22,-1.74 -4.99,-1.74z"/>
  <path id="_1_30" class="fil10" d="M1416.48 387.73l-2.22 0 -2.14 3.42 1.88 0 2.48 -3.42zm-3.33 7.09c1.25,0 2.22,0.52 2.79,1.37 0.63,0.94 0.63,2.28 0.63,3.74 0,1.45 0,2.79 -0.63,3.73 -0.57,0.85 -1.54,1.37 -2.79,1.37 -1.26,0 -2.23,-0.52 -2.8,-1.37 -0.62,-0.94 -0.62,-2.28 -0.62,-3.73 0,-1.46 0,-2.8 0.62,-3.74 0.57,-0.85 1.54,-1.37 2.8,-1.37zm0 -1.88c-2.03,0 -3.68,0.91 -4.59,2.43 -0.83,1.36 -0.83,2.93 -0.83,4.56 0,1.62 0,3.19 0.83,4.56 0.91,1.51 2.56,2.42 4.59,2.42 2.02,0 3.67,-0.91 4.59,-2.42 0.82,-1.37 0.82,-2.94 0.82,-4.56 0,-1.63 0,-3.2 -0.82,-4.56 -0.92,-1.52 -2.57,-2.43 -4.59,-2.43z"/>
  <path id="_2_31" class="fil10" d="M1426.26 392.94c-1.68,0 -3.02,0.69 -3.85,1.68 -1.28,1.54 -1.28,3.42 -1.28,5.36 0,1.74 0,3.74 1.59,5.36 0.89,0.88 2.25,1.57 3.96,1.57 1.8,0 3.23,-0.77 4.02,-1.88 0.97,-1.34 0.97,-2.77 0.97,-4.9l0 -12.4 -1.99 0 0 6.95c-0.77,-1.08 -2.03,-1.74 -3.42,-1.74zm3.42 7.56c0,1.51 0,2.73 -0.69,3.56 -0.57,0.68 -1.42,0.97 -2.31,0.97 -0.96,0 -1.93,-0.35 -2.56,-1.03 -1,-1.08 -1,-2.56 -1,-4.02 0,-1.59 0,-3.16 0.86,-4.16 0.51,-0.6 1.34,-1 2.42,-1 1.08,0 1.91,0.4 2.42,1 0.86,1 0.86,2.57 0.86,4.68z"/>
  <path id="_3_32" class="fil10" d="M1436.09 388.24c-0.77,0 -1.34,0.54 -1.34,1.34 0,0.8 0.57,1.34 1.34,1.34 0.77,0 1.34,-0.54 1.34,-1.34 0,-0.8 -0.57,-1.34 -1.34,-1.34zm-1 18.5l2 0 0 -13.63 -2 0 0 13.63z"/>
  <path id="_4_33" class="fil10" d="M1445.55 394.82c1.03,0 2,0.37 2.54,1.03 0.68,0.8 0.68,1.99 0.68,3.51 0,2.1 0,3.67 -0.85,4.67 -0.52,0.6 -1.34,1 -2.42,1 -1.09,0 -1.91,-0.4 -2.43,-1 -0.85,-1 -0.85,-2.57 -0.85,-4.16 0,-1.63 0,-3.08 0.91,-4.11 0.51,-0.57 1.37,-0.94 2.42,-0.94zm0 -1.88c-1.71,0 -3.08,0.66 -3.96,1.63 -1.37,1.54 -1.37,3.53 -1.37,5.3 0,1.94 0,3.82 1.29,5.36 0.82,0.99 2.16,1.68 3.84,1.68 1.4,0 2.65,-0.66 3.42,-1.74l0 0.28c0,1.74 0,2.77 -0.68,3.62 -0.54,0.69 -1.48,1.17 -2.88,1.17 -1.2,0 -2.39,-0.34 -3.33,-0.85l-0.83 1.71c1.25,0.68 2.76,1.02 4.16,1.02 1.88,0 3.33,-0.65 4.25,-1.65 1.31,-1.42 1.31,-2.99 1.31,-5.02l0 -5.81c0,-2.31 0,-3.65 -1.14,-4.99 -1.11,-1.31 -2.77,-1.71 -4.08,-1.71z"/>
  <path id="_5_34" class="fil10" d="M1459.03 394.82c1.26,0 2.23,0.52 2.8,1.37 0.62,0.94 0.62,2.28 0.62,3.74 0,1.45 0,2.79 -0.62,3.73 -0.57,0.85 -1.54,1.37 -2.8,1.37 -1.25,0 -2.22,-0.52 -2.79,-1.37 -0.63,-0.94 -0.63,-2.28 -0.63,-3.73 0,-1.46 0,-2.8 0.63,-3.74 0.57,-0.85 1.54,-1.37 2.79,-1.37zm0 -1.88c-2.02,0 -3.67,0.91 -4.59,2.43 -0.82,1.36 -0.82,2.93 -0.82,4.56 0,1.62 0,3.19 0.82,4.56 0.92,1.51 2.57,2.42 4.59,2.42 2.03,0 3.68,-0.91 4.59,-2.42 0.83,-1.37 0.83,-2.94 0.83,-4.56 0,-1.63 0,-3.2 -0.83,-4.56 -0.91,-1.52 -2.56,-2.43 -4.59,-2.43z"/>
  <path id="_6_35" class="fil10" d="M1479.27 392.94c-1.68,0 -3.02,0.69 -3.85,1.68 -1.28,1.54 -1.28,3.42 -1.28,5.36 0,1.74 0,3.74 1.59,5.36 0.89,0.88 2.26,1.57 3.97,1.57 1.79,0 3.22,-0.77 4.01,-1.88 0.97,-1.34 0.97,-2.77 0.97,-4.9l0 -12.4 -1.99 0 0 6.95c-0.77,-1.08 -2.03,-1.74 -3.42,-1.74zm3.42 7.56c0,1.51 0,2.73 -0.69,3.56 -0.57,0.68 -1.42,0.97 -2.3,0.97 -0.97,0 -1.94,-0.35 -2.57,-1.03 -1,-1.08 -1,-2.56 -1,-4.02 0,-1.59 0,-3.16 0.86,-4.16 0.51,-0.6 1.34,-1 2.42,-1 1.08,0 1.91,0.4 2.42,1 0.86,1 0.86,2.57 0.86,4.68z"/>
  <path id="_7_36" class="fil10" d="M1490.21 403.83c-0.65,-0.88 -0.65,-2.57 -0.65,-3.31l2.62 0c2.02,0 3.25,0 4.44,-0.85 0.8,-0.57 1.43,-1.54 1.43,-2.79 -0.03,-1.12 -0.57,-2.17 -1.43,-2.88 -0.85,-0.69 -1.99,-1.06 -3.42,-1.06 -2.02,0 -3.73,0.74 -4.64,2.03 -1.03,1.42 -1.03,2.73 -1.03,4.96 0,1.85 0,3.56 1.09,5.04 0.91,1.23 2.48,1.94 4.44,1.94 1.48,0 2.97,-0.32 4.31,-1l-0.83 -1.71c-1.03,0.54 -2.25,0.83 -3.48,0.83 -1.37,0 -2.28,-0.43 -2.85,-1.2zm5.85 -6.95c0,0.65 -0.32,1.14 -0.69,1.42 -0.6,0.46 -1.4,0.46 -3.19,0.46l-2.62 0c0,-0.57 0,-2 0.71,-2.82 0.63,-0.75 1.65,-1.12 2.93,-1.12 0.89,0 1.63,0.2 2.11,0.6 0.43,0.34 0.72,0.91 0.75,1.46z"/>
  <path id="_8_37" class="fil10" d="M1512.87 392.94c-1.74,0 -2.96,0.74 -3.65,1.46 -1.34,1.39 -1.34,3.05 -1.34,5.04l0 7.3 2 0 0 -7.3c0,-1.77 0,-2.96 0.82,-3.79 0.49,-0.48 1.23,-0.83 2.17,-0.83 0.94,0 1.68,0.35 2.17,0.83 0.82,0.83 0.82,2.02 0.82,3.79l0 7.3 2 0 0 -7.3c0,-1.99 0,-3.65 -1.34,-5.04 -0.69,-0.72 -1.91,-1.46 -3.65,-1.46z"/>
  <path id="_9_38" class="fil10" d="M1526.12 394.82c1.26,0 2.22,0.52 2.8,1.37 0.62,0.94 0.62,2.28 0.62,3.74 0,1.45 0,2.79 -0.62,3.73 -0.58,0.85 -1.54,1.37 -2.8,1.37 -1.25,0 -2.22,-0.52 -2.79,-1.37 -0.63,-0.94 -0.63,-2.28 -0.63,-3.73 0,-1.46 0,-2.8 0.63,-3.74 0.57,-0.85 1.54,-1.37 2.79,-1.37zm0 -1.88c-2.02,0 -3.67,0.91 -4.59,2.43 -0.82,1.36 -0.82,2.93 -0.82,4.56 0,1.62 0,3.19 0.82,4.56 0.92,1.51 2.57,2.42 4.59,2.42 2.03,0 3.68,-0.91 4.59,-2.42 0.83,-1.37 0.83,-2.94 0.83,-4.56 0,-1.63 0,-3.2 -0.83,-4.56 -0.91,-1.52 -2.56,-2.43 -4.59,-2.43z"/>
  <path id="_10_39" class="fil10" d="M1539.6 392.94c-1.31,0 -2.96,0.4 -4.07,1.71 -1.14,1.34 -1.14,2.68 -1.14,4.99l0 7.1 1.99 0 0 -7.1c0,-1.8 0,-2.99 0.69,-3.79 0.54,-0.66 1.51,-1.03 2.53,-1.03 0.49,0 0.94,0.09 1.34,0.23l0.6 -1.79c-0.57,-0.2 -1.22,-0.32 -1.94,-0.32z"/>
  <path id="_11_40" class="fil10" d="M1548.15 392.94c-1.34,0 -2.51,0.49 -3.27,1.23 -1.43,1.37 -1.43,3.13 -1.43,5.27l0 7.3 2 0 0 -7.3c0,-1.88 0,-3.16 0.85,-3.96 0.43,-0.4 1.08,-0.66 1.85,-0.66 0.77,0 1.43,0.26 1.86,0.66 0.85,0.8 0.85,2.08 0.85,3.96l0 7.3 2 0 0 -7.3c0,-1.88 0,-3.16 0.85,-3.96 0.43,-0.4 1.08,-0.66 1.85,-0.66 0.77,0 1.43,0.26 1.85,0.66 0.86,0.8 0.86,2.08 0.86,3.96l0 7.3 2 0 0 -7.3c0,-2.14 0,-3.9 -1.43,-5.27 -0.77,-0.74 -1.94,-1.23 -3.28,-1.23 -1.62,0 -2.93,0.72 -3.7,2 -0.77,-1.28 -2.08,-2 -3.71,-2z"/>
  <path id="_12_41" class="fil10" d="M1572.89 401.04l0 -2.11c0,-1.51 0,-3.19 -1.14,-4.48 -0.85,-0.97 -2.14,-1.51 -3.85,-1.51 -1.54,0 -2.99,0.35 -4.33,0.83l0.63 1.79c1.2,-0.45 2.45,-0.74 3.7,-0.74 1.09,0 1.83,0.29 2.31,0.83 0.69,0.77 0.69,1.91 0.69,2.79l-2.34 0c-1.11,0 -2.71,0 -4.05,0.97 -0.91,0.66 -1.68,1.77 -1.68,3.28 0,1.48 0.77,2.62 1.71,3.28 0.91,0.65 2.08,0.94 3.45,0.94 1.71,0 3.05,-0.49 3.9,-1.48 1,-1.17 1,-2.48 1,-4.39zm-1.99 0c0,1.68 0,2.56 -0.55,3.19 -0.48,0.57 -1.31,0.8 -2.36,0.8 -0.91,0 -1.71,-0.17 -2.25,-0.54 -0.52,-0.38 -0.91,-1 -0.91,-1.8 0,-0.88 0.42,-1.54 0.94,-1.91 0.79,-0.57 1.82,-0.57 2.79,-0.57l2.34 0 0 0.83z"/>
  <path id="_13_42" class="fil10" d="M1584.15 393.88c-1.28,-0.59 -2.71,-0.94 -4.16,-0.94 -1.17,0 -2.17,0.26 -3,0.83 -0.82,0.57 -1.53,1.57 -1.53,2.88 0,1.22 0.65,2.25 1.51,2.9 0.85,0.66 1.88,0.92 2.79,1.12 0.91,0.2 1.62,0.37 2.25,0.82 0.46,0.35 0.8,0.89 0.8,1.54 0,0.49 -0.2,1.06 -0.74,1.46 -0.54,0.39 -1.26,0.54 -2.08,0.54 -1.31,0 -2.62,-0.29 -3.79,-0.83l-0.8 1.71c1.45,0.68 3.05,1 4.59,1 1.31,0 2.39,-0.29 3.28,-0.91 0.88,-0.63 1.53,-1.69 1.53,-2.97 0,-1.42 -0.79,-2.48 -1.68,-3.1 -0.8,-0.57 -1.74,-0.83 -2.76,-1.06 -1.03,-0.23 -1.63,-0.37 -2.2,-0.83 -0.4,-0.31 -0.71,-0.79 -0.71,-1.39 0,-0.63 0.34,-1.14 0.83,-1.43 0.48,-0.28 0.99,-0.4 1.71,-0.4 1.14,0 2.33,0.29 3.42,0.8l0.74 -1.74z"/>
  <path id="_14_43" class="fil10" d="M1401.86 424.49c-1.28,-0.6 -2.71,-0.94 -4.16,-0.94 -1.17,0 -2.17,0.26 -2.99,0.83 -0.83,0.57 -1.54,1.57 -1.54,2.88 0,1.22 0.65,2.25 1.51,2.9 0.85,0.66 1.88,0.92 2.79,1.12 0.91,0.19 1.63,0.37 2.25,0.82 0.46,0.34 0.8,0.89 0.8,1.54 0,0.49 -0.2,1.06 -0.74,1.45 -0.54,0.4 -1.25,0.55 -2.08,0.55 -1.31,0 -2.62,-0.29 -3.79,-0.83l-0.8 1.71c1.46,0.68 3.05,1 4.59,1 1.31,0 2.39,-0.29 3.28,-0.92 0.88,-0.62 1.54,-1.68 1.54,-2.96 0,-1.42 -0.8,-2.48 -1.68,-3.11 -0.8,-0.57 -1.74,-0.82 -2.77,-1.05 -1.03,-0.23 -1.62,-0.37 -2.19,-0.83 -0.4,-0.31 -0.72,-0.79 -0.72,-1.39 0,-0.63 0.35,-1.14 0.83,-1.43 0.48,-0.28 1,-0.4 1.71,-0.4 1.14,0 2.34,0.29 3.42,0.8l0.74 -1.74z"/>
  <path id="_15_44" class="fil10" d="M1407.33 434.44c-0.65,-0.88 -0.65,-2.57 -0.65,-3.31l2.62 0c2.02,0 3.25,0 4.45,-0.85 0.79,-0.57 1.42,-1.54 1.42,-2.79 -0.03,-1.12 -0.57,-2.17 -1.42,-2.88 -0.86,-0.69 -2,-1.06 -3.42,-1.06 -2.03,0 -3.74,0.74 -4.65,2.03 -1.03,1.42 -1.03,2.73 -1.03,4.95 0,1.86 0,3.57 1.09,5.05 0.91,1.22 2.48,1.94 4.44,1.94 1.49,0 2.97,-0.32 4.31,-1l-0.83 -1.71c-1.03,0.54 -2.25,0.83 -3.48,0.83 -1.36,0 -2.28,-0.43 -2.85,-1.2zm5.85 -6.95c0,0.65 -0.32,1.14 -0.69,1.42 -0.6,0.46 -1.39,0.46 -3.19,0.46l-2.62 0c0,-0.57 0,-2 0.71,-2.83 0.63,-0.74 1.65,-1.11 2.94,-1.11 0.88,0 1.62,0.2 2.1,0.6 0.43,0.34 0.72,0.91 0.75,1.46z"/>
  <path id="_16_45" class="fil10" d="M1421.21 440.99l-0.45 1.43c0.54,0.23 1.11,0.31 1.62,0.31 0.97,0 1.8,-0.31 2.31,-0.74 0.46,-0.4 0.88,-1.02 0.88,-1.82 0,-0.57 -0.22,-1.09 -0.65,-1.4 -0.54,-0.37 -1,-0.37 -1.6,-0.37l0.27 -0.91c1.26,-0.09 2.48,-0.5 3.52,-1.2l-1.02 -1.59c-0.92,0.62 -2,0.94 -3.08,0.94 -1.11,0 -1.97,-0.37 -2.51,-1 -0.91,-1.06 -0.91,-2.77 -0.91,-4.22 0,-1.25 0,-2.93 0.88,-3.96 0.69,-0.8 1.65,-1.03 2.54,-1.03 1.02,0 2.08,0.32 2.93,0.86l0.97 -1.63c-1.17,-0.74 -2.53,-1.11 -3.9,-1.11 -1.83,0 -3.19,0.69 -4.08,1.71 -1.34,1.54 -1.34,3.68 -1.34,5.16 0,1.68 0,3.88 1.37,5.42 0.77,0.87 1.89,1.5 3.38,1.64l-0.59 1.86 1.06 0c0.26,0 0.48,0 0.71,0.12 0.31,0.17 0.46,0.45 0.46,0.74 0,0.37 -0.23,0.65 -0.57,0.85 -0.4,0.2 -0.77,0.2 -1.03,0.2 -0.34,0 -0.77,-0.08 -1.17,-0.26z"/>
  <path id="_17_46" class="fil10" d="M1436.18 421.67c1.39,0 2.5,-1.02 2.5,-2.39l-1.59 0c0,0.54 -0.4,0.91 -0.91,0.91 -0.52,0 -0.92,-0.26 -1.34,-0.46 -0.55,-0.28 -1.23,-0.62 -2.08,-0.62 -1.4,0 -2.51,1.02 -2.51,2.39l1.59 0c0,-0.54 0.4,-0.91 0.92,-0.91 0.51,0 0.91,0.25 1.33,0.45 0.55,0.29 1.26,0.63 2.09,0.63zm3.13 9.98l0 -2.11c0,-1.51 0,-3.2 -1.14,-4.48 -0.85,-0.97 -2.14,-1.51 -3.85,-1.51 -1.54,0 -2.99,0.34 -4.33,0.83l0.63 1.79c1.2,-0.45 2.45,-0.74 3.7,-0.74 1.09,0 1.83,0.29 2.31,0.83 0.69,0.77 0.69,1.91 0.69,2.79l-2.34 0c-1.11,0 -2.71,0 -4.05,0.97 -0.91,0.66 -1.68,1.77 -1.68,3.28 0,1.48 0.77,2.62 1.71,3.28 0.91,0.65 2.08,0.94 3.45,0.94 1.71,0 3.05,-0.49 3.9,-1.48 1,-1.17 1,-2.48 1,-4.39zm-1.99 0c0,1.68 0,2.56 -0.55,3.19 -0.48,0.57 -1.31,0.8 -2.36,0.8 -0.91,0 -1.71,-0.17 -2.25,-0.55 -0.52,-0.37 -0.91,-0.99 -0.91,-1.79 0,-0.88 0.42,-1.54 0.94,-1.91 0.79,-0.57 1.82,-0.57 2.79,-0.57l2.34 0 0 0.83z"/>
  <path id="_18_47" class="fil10" d="M1447.43 425.43c1.26,0 2.23,0.52 2.8,1.37 0.62,0.94 0.62,2.28 0.62,3.73 0,1.46 0,2.8 -0.62,3.74 -0.57,0.85 -1.54,1.37 -2.8,1.37 -1.25,0 -2.22,-0.52 -2.79,-1.37 -0.63,-0.94 -0.63,-2.28 -0.63,-3.74 0,-1.45 0,-2.79 0.63,-3.73 0.57,-0.85 1.54,-1.37 2.79,-1.37zm0 -1.88c-2.02,0 -3.67,0.91 -4.59,2.42 -0.82,1.37 -0.82,2.94 -0.82,4.56 0,1.63 0,3.2 0.82,4.56 0.92,1.51 2.57,2.43 4.59,2.43 2.03,0 3.68,-0.92 4.59,-2.43 0.83,-1.36 0.83,-2.93 0.83,-4.56 0,-1.62 0,-3.19 -0.83,-4.56 -0.91,-1.51 -2.56,-2.42 -4.59,-2.42z"/>
  <path id="_19" class="fil10" d="M1468.87 420.19c0.85,0 2.05,0.26 2.79,1.17 0.85,1.05 0.85,2.36 0.85,4.44l0 4.11c0,2.08 0,3.39 -0.85,4.44 -0.74,0.92 -1.94,1.17 -2.79,1.17 -0.86,0 -2.06,-0.25 -2.8,-1.17 -0.85,-1.05 -0.85,-2.36 -0.85,-4.44l0 -4.11c0,-2.08 0,-3.39 0.85,-4.44 0.74,-0.91 1.94,-1.17 2.8,-1.17zm0 -2c-1.63,0 -3.37,0.57 -4.51,2 -1.25,1.57 -1.25,3.36 -1.25,5.61l0 4.11c0,2.25 0,4.04 1.25,5.61 1.14,1.43 2.88,2 4.51,2 1.62,0 3.36,-0.57 4.5,-2 1.25,-1.57 1.25,-3.36 1.25,-5.61l0 -4.11c0,-2.25 0,-4.04 -1.25,-5.61 -1.14,-1.43 -2.88,-2 -4.5,-2z"/>
  <path id="_20" class="fil10" d="M1482.35 418.19c-1.4,0 -3.14,0.37 -4.54,1.46l1.26 1.59c0.88,-0.71 2.11,-1.05 3.28,-1.05 1.02,0 1.85,0.23 2.48,0.74 0.74,0.6 1.11,1.57 1.11,2.45 0,1.4 -0.66,2.14 -2.08,3.59l-4.34 4.36c-1.25,1.26 -2.08,2.11 -2.08,3.39 0,1.09 0.63,1.88 1.43,2.28 0.68,0.35 1.31,0.35 2.42,0.35l7.3 0 0 -2 -7.01 0c-1.23,0 -1.51,0 -1.71,-0.11 -0.17,-0.09 -0.32,-0.26 -0.32,-0.52 0,-0.57 0.43,-0.94 1.51,-2.02l4.34 -4.36c1.59,-1.6 2.65,-2.82 2.65,-4.96 0,-1.65 -0.8,-3.16 -1.91,-4.02 -0.97,-0.74 -2.17,-1.17 -3.79,-1.17z"/>
  <polygon id="_21" class="fil10" points="1499.27,418.34 1499.27,437.35 1501.27,437.35 1501.27,418.34 "/>
  <path id="_22" class="fil10" d="M1505.97 418.85c-0.77,0 -1.34,0.54 -1.34,1.34 0,0.8 0.57,1.34 1.34,1.34 0.77,0 1.34,-0.54 1.34,-1.34 0,-0.8 -0.57,-1.34 -1.34,-1.34zm-1 18.5l2 0 0 -13.63 -2 0 0 13.63z"/>
  <path id="_23" class="fil10" d="M1511.3 423.72l-2.05 0 2.54 10.46c0.31,1.31 0.45,2.05 1.25,2.71 0.46,0.37 1.08,0.63 1.8,0.63 0.71,0 1.34,-0.26 1.79,-0.63 0.8,-0.66 0.94,-1.4 1.26,-2.71l2.53 -10.46 -2.05 0 -2.48 10.26c-0.17,0.74 -0.28,1.17 -0.46,1.37 -0.14,0.17 -0.37,0.29 -0.59,0.29 -0.23,0 -0.46,-0.12 -0.6,-0.29 -0.17,-0.2 -0.29,-0.63 -0.46,-1.37l-2.48 -10.26z"/>
  <path id="_24" class="fil10" d="M1527.06 423.55c-1.31,0 -2.96,0.4 -4.07,1.71 -1.14,1.34 -1.14,2.68 -1.14,4.99l0 7.1 1.99 0 0 -7.1c0,-1.8 0,-2.99 0.69,-3.79 0.54,-0.66 1.51,-1.03 2.53,-1.03 0.49,0 0.94,0.09 1.34,0.23l0.6 -1.79c-0.57,-0.2 -1.22,-0.32 -1.94,-0.32z"/>
  <path id="_25" class="fil10" d="M1536.04 425.43c1.25,0 2.22,0.52 2.79,1.37 0.63,0.94 0.63,2.28 0.63,3.73 0,1.46 0,2.8 -0.63,3.74 -0.57,0.85 -1.54,1.37 -2.79,1.37 -1.25,0 -2.22,-0.52 -2.79,-1.37 -0.63,-0.94 -0.63,-2.28 -0.63,-3.74 0,-1.45 0,-2.79 0.63,-3.73 0.57,-0.85 1.54,-1.37 2.79,-1.37zm0 -1.88c-2.02,0 -3.68,0.91 -4.59,2.42 -0.82,1.37 -0.82,2.94 -0.82,4.56 0,1.63 0,3.2 0.82,4.56 0.91,1.51 2.57,2.43 4.59,2.43 2.02,0 3.68,-0.92 4.59,-2.43 0.83,-1.36 0.83,-2.93 0.83,-4.56 0,-1.62 0,-3.19 -0.83,-4.56 -0.91,-1.51 -2.57,-2.42 -4.59,-2.42z"/>
  <path id="_26" class="fil10" d="M1552.57 424.49c-1.28,-0.6 -2.71,-0.94 -4.16,-0.94 -1.17,0 -2.17,0.26 -2.99,0.83 -0.83,0.57 -1.54,1.57 -1.54,2.88 0,1.22 0.65,2.25 1.51,2.9 0.85,0.66 1.88,0.92 2.79,1.12 0.91,0.19 1.63,0.37 2.25,0.82 0.46,0.34 0.8,0.89 0.8,1.54 0,0.49 -0.2,1.06 -0.74,1.45 -0.54,0.4 -1.25,0.55 -2.08,0.55 -1.31,0 -2.62,-0.29 -3.79,-0.83l-0.8 1.71c1.45,0.68 3.05,1 4.59,1 1.31,0 2.39,-0.29 3.28,-0.92 0.88,-0.62 1.54,-1.68 1.54,-2.96 0,-1.42 -0.8,-2.48 -1.69,-3.11 -0.79,-0.57 -1.73,-0.82 -2.76,-1.05 -1.03,-0.23 -1.62,-0.37 -2.19,-0.83 -0.4,-0.31 -0.72,-0.79 -0.72,-1.39 0,-0.63 0.35,-1.14 0.83,-1.43 0.48,-0.28 1,-0.4 1.71,-0.4 1.14,0 2.34,0.29 3.42,0.8l0.74 -1.74z"/>
  <path id="_27" class="fil10" d="M1565.45 434.44c-0.65,-0.88 -0.65,-2.57 -0.65,-3.31l2.62 0c2.02,0 3.25,0 4.44,-0.85 0.8,-0.57 1.43,-1.54 1.43,-2.79 -0.03,-1.12 -0.57,-2.17 -1.43,-2.88 -0.85,-0.69 -1.99,-1.06 -3.42,-1.06 -2.02,0 -3.73,0.74 -4.64,2.03 -1.03,1.42 -1.03,2.73 -1.03,4.95 0,1.86 0,3.57 1.09,5.05 0.91,1.22 2.48,1.94 4.44,1.94 1.48,0 2.97,-0.32 4.31,-1l-0.83 -1.71c-1.03,0.54 -2.25,0.83 -3.48,0.83 -1.37,0 -2.28,-0.43 -2.85,-1.2zm5.85 -6.95c0,0.65 -0.32,1.14 -0.69,1.42 -0.6,0.46 -1.4,0.46 -3.19,0.46l-2.62 0c0,-0.57 0,-2 0.71,-2.83 0.63,-0.74 1.65,-1.11 2.93,-1.11 0.89,0 1.63,0.2 2.11,0.6 0.43,0.34 0.72,0.91 0.75,1.46z"/>
  <path id="_28" class="fil10" d="M1403.09 462.26l0 -2.11c0,-1.51 0,-3.2 -1.14,-4.48 -0.86,-0.97 -2.14,-1.51 -3.85,-1.51 -1.54,0 -2.99,0.34 -4.33,0.83l0.62 1.79c1.2,-0.45 2.45,-0.74 3.71,-0.74 1.08,0 1.82,0.29 2.31,0.83 0.68,0.77 0.68,1.91 0.68,2.79l-2.34 0c-1.11,0 -2.7,0 -4.04,0.97 -0.91,0.66 -1.68,1.77 -1.68,3.28 0,1.48 0.77,2.62 1.71,3.28 0.91,0.65 2.08,0.94 3.44,0.94 1.71,0 3.05,-0.49 3.91,-1.49 1,-1.16 1,-2.47 1,-4.38zm-2 0c0,1.68 0,2.56 -0.54,3.19 -0.48,0.57 -1.31,0.8 -2.37,0.8 -0.91,0 -1.71,-0.18 -2.25,-0.55 -0.51,-0.37 -0.91,-0.99 -0.91,-1.79 0,-0.89 0.43,-1.54 0.94,-1.91 0.8,-0.57 1.83,-0.57 2.79,-0.57l2.34 0 0 0.83z"/>
  <path id="_29" class="fil10" d="M1411.29 454.16c-1.31,0 -2.96,0.4 -4.07,1.71 -1.14,1.34 -1.14,2.68 -1.14,4.99l0 7.1 1.99 0 0 -7.1c0,-1.8 0,-2.99 0.69,-3.79 0.54,-0.66 1.51,-1.03 2.53,-1.03 0.49,0 0.95,0.09 1.34,0.23l0.6 -1.8c-0.57,-0.19 -1.22,-0.31 -1.94,-0.31z"/>
  <path id="_30" class="fil10" d="M1420.19 456.04c1.02,0 1.99,0.37 2.53,1.03 0.69,0.8 0.69,1.99 0.69,3.5 0,2.11 0,3.68 -0.86,4.68 -0.51,0.6 -1.34,1 -2.42,1 -1.08,0 -1.91,-0.4 -2.42,-1 -0.86,-1 -0.86,-2.57 -0.86,-4.16 0,-1.63 0,-3.08 0.91,-4.11 0.52,-0.57 1.37,-0.94 2.43,-0.94zm0 -1.88c-1.71,0 -3.08,0.66 -3.96,1.63 -1.37,1.54 -1.37,3.53 -1.37,5.3 0,1.93 0,3.82 1.28,5.35 0.83,1 2.17,1.69 3.85,1.69 1.39,0 2.65,-0.66 3.42,-1.74l0 6.78 1.99 0 0 -12.31c0,-2.31 0,-3.65 -1.14,-4.99 -1.11,-1.31 -2.76,-1.71 -4.07,-1.71z"/>
  <path id="_31" class="fil10" d="M1428.54 454.33l0 7.3c0,1.99 0,3.65 1.34,5.04 0.68,0.72 1.91,1.46 3.65,1.46 1.73,0 2.96,-0.74 3.64,-1.46 1.34,-1.39 1.34,-3.05 1.34,-5.04l0 -7.3 -1.99 0 0 7.3c0,1.77 0,2.96 -0.83,3.79 -0.48,0.48 -1.22,0.83 -2.16,0.83 -0.95,0 -1.69,-0.35 -2.17,-0.83 -0.83,-0.83 -0.83,-2.02 -0.83,-3.79l0 -7.3 -1.99 0z"/>
  <path id="_32" class="fil10" d="M1442.93 449.46c-0.77,0 -1.34,0.54 -1.34,1.34 0,0.8 0.57,1.34 1.34,1.34 0.77,0 1.34,-0.54 1.34,-1.34 0,-0.8 -0.57,-1.34 -1.34,-1.34zm-1 18.5l2 0 0 -13.63 -2 0 0 13.63z"/>
  <path id="_33" class="fil10" d="M1448.26 454.33l-2.05 0 2.53 10.46c0.32,1.31 0.46,2.05 1.26,2.71 0.45,0.37 1.08,0.63 1.79,0.63 0.72,0 1.34,-0.26 1.8,-0.63 0.8,-0.66 0.94,-1.4 1.25,-2.71l2.54 -10.46 -2.05 0 -2.48 10.26c-0.17,0.74 -0.29,1.17 -0.46,1.37 -0.14,0.17 -0.37,0.29 -0.6,0.29 -0.22,0 -0.45,-0.12 -0.59,-0.29 -0.18,-0.2 -0.29,-0.63 -0.46,-1.37l-2.48 -10.26z"/>
  <path id="_34" class="fil10" d="M1464.22 456.04c1.25,0 2.22,0.52 2.79,1.37 0.63,0.94 0.63,2.28 0.63,3.73 0,1.46 0,2.8 -0.63,3.74 -0.57,0.85 -1.54,1.37 -2.79,1.37 -1.25,0 -2.22,-0.52 -2.79,-1.37 -0.63,-0.94 -0.63,-2.28 -0.63,-3.74 0,-1.45 0,-2.79 0.63,-3.73 0.57,-0.85 1.54,-1.37 2.79,-1.37zm0 -1.88c-2.02,0 -3.68,0.91 -4.59,2.42 -0.83,1.37 -0.83,2.94 -0.83,4.56 0,1.63 0,3.2 0.83,4.56 0.91,1.51 2.57,2.43 4.59,2.43 2.02,0 3.68,-0.92 4.59,-2.43 0.82,-1.36 0.82,-2.93 0.82,-4.56 0,-1.62 0,-3.19 -0.82,-4.56 -0.91,-1.51 -2.57,-2.42 -4.59,-2.42z"/>
  <path id="_35" class="fil10" d="M1480.75 455.1c-1.28,-0.6 -2.71,-0.94 -4.16,-0.94 -1.17,0 -2.17,0.26 -2.99,0.83 -0.83,0.57 -1.54,1.57 -1.54,2.88 0,1.22 0.65,2.25 1.51,2.9 0.85,0.66 1.88,0.92 2.79,1.11 0.91,0.2 1.63,0.38 2.25,0.83 0.46,0.34 0.8,0.88 0.8,1.54 0,0.48 -0.2,1.05 -0.74,1.45 -0.54,0.4 -1.25,0.55 -2.08,0.55 -1.31,0 -2.62,-0.29 -3.79,-0.83l-0.8 1.71c1.45,0.68 3.05,1 4.59,1 1.31,0 2.39,-0.29 3.28,-0.92 0.88,-0.62 1.54,-1.68 1.54,-2.96 0,-1.42 -0.8,-2.48 -1.69,-3.11 -0.79,-0.57 -1.73,-0.82 -2.76,-1.05 -1.03,-0.23 -1.62,-0.37 -2.2,-0.83 -0.39,-0.31 -0.71,-0.8 -0.71,-1.39 0,-0.63 0.34,-1.14 0.83,-1.43 0.48,-0.28 1,-0.4 1.71,-0.4 1.14,0 2.34,0.29 3.42,0.8l0.74 -1.74z"/>
  <path id="_36" class="fil7" d="M1403.58 493.22l-3.27 -10.06 -3.27 10.06 6.54 0zm-4.32 -13l2.09 0 6.68 19.7 -2.26 0 -1.55 -4.76 -7.82 0 -1.55 4.76 -2.27 0 6.68 -19.7z"/>
  <path id="_37" class="fil7" d="M1412.9 486.45c1.01,-1.2 2.19,-1.81 3.55,-1.81 0.38,0 0.81,0.05 1.28,0.15l-0.31 1.84c-0.58,-0.08 -1,-0.12 -1.25,-0.12 -0.71,0 -1.32,0.17 -1.84,0.5 -0.51,0.34 -0.89,0.78 -1.12,1.35 -0.21,0.49 -0.31,1.36 -0.31,2.61l0 8.95 -2.09 0 0 -15.05 2.09 0 0 1.58z"/>
  <path id="_38" class="fil7" d="M1421.21 495.71l0 -9.12 -2.09 0 0 -1.72 2.09 0 0 -3.26 2.09 0 0 3.26 2.78 0 0 1.72 -2.78 0 0 9.12c0,1 0.04,1.6 0.12,1.8 0.21,0.52 0.61,0.77 1.2,0.77 0.48,0 1.01,-0.15 1.58,-0.45l0.81 1.73c-0.89,0.39 -1.73,0.59 -2.53,0.59 -0.79,0 -1.45,-0.19 -1.99,-0.57 -0.55,-0.38 -0.92,-0.93 -1.13,-1.63 -0.1,-0.35 -0.15,-1.1 -0.15,-2.24z"/>
  <path id="_39" class="fil7" d="M1430.01 497.51c0.28,-0.29 0.65,-0.43 1.11,-0.43 0.45,0 0.82,0.14 1.1,0.43 0.29,0.28 0.43,0.65 0.43,1.11 0,0.45 -0.14,0.82 -0.43,1.1 -0.28,0.28 -0.65,0.43 -1.1,0.43 -0.46,0 -0.83,-0.15 -1.11,-0.43 -0.28,-0.28 -0.42,-0.65 -0.42,-1.1 0,-0.46 0.14,-0.83 0.42,-1.11z"/>
  <path id="_40" class="fil7" d="M1449.94 479.95c1.66,0 3.02,0.53 4.08,1.57 1.06,1.04 1.59,2.35 1.59,3.93 0,0.75 -0.14,1.47 -0.42,2.16 -0.29,0.69 -0.73,1.43 -1.33,2.24l-6.12 8.13 8.46 0 0 1.94 -11.36 0 0 -1.5 7.2 -9.63c0.49,-0.66 0.85,-1.23 1.07,-1.71 0.22,-0.49 0.33,-1.03 0.33,-1.63 0,-1.04 -0.32,-1.89 -0.96,-2.55 -0.64,-0.67 -1.48,-1 -2.54,-1 -1.25,0 -2.43,0.53 -3.55,1.6l-1.42 -1.47c1.44,-1.39 3.09,-2.08 4.97,-2.08z"/>
  <polygon id="_41" class="fil7" points="1471.2,493.1 1471.2,495.05 1469.53,495.05 1469.53,499.92 1467.36,499.92 1467.36,495.05 1458.93,495.05 1458.93,493.65 1464.69,480.22 1466.87,480.22 1461.34,493.1 1467.36,493.1 1467.36,488.23 1469.53,488.23 1469.53,493.1 "/>
  <path id="_42" class="fil7" d="M1403.58 526.31l-3.27 -10.06 -3.27 10.06 6.54 0zm-4.32 -13l2.09 0 6.68 19.71 -2.26 0 -1.55 -4.76 -7.82 0 -1.55 4.76 -2.27 0 6.68 -19.71z"/>
  <path id="_43" class="fil7" d="M1412.9 519.55c1.01,-1.21 2.19,-1.81 3.55,-1.81 0.38,0 0.81,0.05 1.28,0.15l-0.31 1.84c-0.58,-0.08 -1,-0.13 -1.25,-0.13 -0.71,0 -1.32,0.17 -1.84,0.5 -0.51,0.34 -0.89,0.78 -1.12,1.35 -0.21,0.49 -0.31,1.36 -0.31,2.62l0 8.95 -2.09 0 0 -15.06 2.09 0 0 1.59z"/>
  <path id="_44" class="fil7" d="M1421.21 528.8l0 -9.12 -2.09 0 0 -1.72 2.09 0 0 -3.25 2.09 0 0 3.25 2.78 0 0 1.72 -2.78 0 0 9.12c0,1 0.04,1.6 0.12,1.81 0.21,0.51 0.61,0.76 1.2,0.76 0.48,0 1.01,-0.14 1.58,-0.44l0.81 1.73c-0.89,0.38 -1.73,0.58 -2.53,0.58 -0.79,0 -1.45,-0.19 -1.99,-0.57 -0.55,-0.38 -0.92,-0.93 -1.13,-1.63 -0.1,-0.35 -0.15,-1.1 -0.15,-2.24z"/>
  <path id="_45" class="fil7" d="M1430.01 530.6c0.28,-0.28 0.65,-0.42 1.11,-0.42 0.45,0 0.82,0.14 1.1,0.42 0.29,0.28 0.43,0.65 0.43,1.11 0,0.45 -0.14,0.82 -0.43,1.11 -0.28,0.28 -0.65,0.42 -1.1,0.42 -0.46,0 -0.83,-0.14 -1.11,-0.42 -0.28,-0.29 -0.42,-0.66 -0.42,-1.11 0,-0.46 0.14,-0.83 0.42,-1.11z"/>
  <path id="_46" class="fil7" d="M1449.94 513.05c1.66,0 3.02,0.52 4.08,1.56 1.06,1.05 1.59,2.36 1.59,3.93 0,0.75 -0.14,1.48 -0.42,2.16 -0.29,0.69 -0.73,1.43 -1.33,2.24l-6.12 8.13 8.46 0 0 1.95 -11.36 0 0 -1.5 7.2 -9.64c0.49,-0.65 0.85,-1.23 1.07,-1.71 0.22,-0.48 0.33,-1.02 0.33,-1.63 0,-1.04 -0.32,-1.89 -0.96,-2.55 -0.64,-0.66 -1.48,-1 -2.54,-1 -1.25,0 -2.43,0.54 -3.55,1.61l-1.42 -1.48c1.44,-1.38 3.09,-2.07 4.97,-2.07z"/>
  <path id="_47" class="fil7" d="M1468.04 523.61c-0.7,-0.79 -1.59,-1.18 -2.66,-1.18 -1.07,0 -1.95,0.39 -2.65,1.18 -0.71,0.79 -1.06,1.88 -1.06,3.27 0,1.39 0.35,2.48 1.06,3.27 0.7,0.79 1.58,1.18 2.65,1.18 1.07,0 1.96,-0.39 2.66,-1.18 0.71,-0.79 1.06,-1.88 1.06,-3.27 0,-1.39 -0.35,-2.48 -1.06,-3.27zm-2.24 -2.99c1.07,0 2.02,0.28 2.86,0.85 0.85,0.57 1.5,1.33 1.94,2.28 0.44,0.95 0.67,2 0.67,3.13 0,1.81 -0.54,3.33 -1.62,4.56 -1.08,1.23 -2.5,1.84 -4.27,1.84 -1.17,0 -2.2,-0.29 -3.11,-0.87 -0.9,-0.58 -1.59,-1.36 -2.06,-2.32 -0.48,-0.97 -0.71,-2.05 -0.71,-3.22 0,-0.64 0.08,-1.27 0.25,-1.9 0.17,-0.63 0.33,-1.13 0.5,-1.5 0.16,-0.37 0.42,-0.88 0.76,-1.53l4.47 -8.63 2.31 0 -4.04 7.68c0.6,-0.25 1.28,-0.37 2.05,-0.37z"/>
  <path id="_48" class="fil7" d="M1487.8 539.12c-2.06,-1.67 -3.48,-3.88 -4.25,-6.6 -0.48,-1.71 -0.72,-4.05 -0.72,-7.03 0,-2.94 0.24,-5.28 0.72,-7.03 0.75,-2.71 2.17,-4.91 4.25,-6.61l1.06 1.23c-1.65,1.53 -2.78,3.41 -3.39,5.66 -0.46,1.68 -0.69,3.93 -0.69,6.75 0,2.82 0.23,5.07 0.69,6.75 0.61,2.24 1.74,4.13 3.39,5.66l-1.06 1.22z"/>
  <polygon id="_49" class="fil7" points="1495.07,513.31 1495.07,533.02 1492.89,533.02 1492.89,513.31 "/>
  <path id="_50" class="fil7" d="M1499.95 530.6c0.28,-0.28 0.65,-0.42 1.1,-0.42 0.46,0 0.83,0.14 1.11,0.42 0.28,0.28 0.42,0.65 0.42,1.11 0,0.26 -0.11,0.69 -0.33,1.31l-1.27 3.47 -1.36 0 0.79 -3.37c-0.26,-0.11 -0.47,-0.28 -0.64,-0.54 -0.16,-0.25 -0.25,-0.54 -0.25,-0.87 0,-0.46 0.14,-0.83 0.43,-1.11z"/>
  <polygon id="_51" class="fil7" points="1517.42,513.31 1517.42,533.02 1515.25,533.02 1515.25,513.31 "/>
  <polygon id="_52" class="fil7" points="1524.6,513.31 1524.6,533.02 1522.43,533.02 1522.43,513.31 "/>
  <path id="_53" class="fil7" d="M1529.48 530.6c0.28,-0.28 0.65,-0.42 1.11,-0.42 0.45,0 0.82,0.14 1.1,0.42 0.29,0.28 0.43,0.65 0.43,1.11 0,0.26 -0.11,0.69 -0.34,1.31l-1.26 3.47 -1.36 0 0.79 -3.37c-0.26,-0.11 -0.48,-0.28 -0.64,-0.54 -0.17,-0.25 -0.25,-0.54 -0.25,-0.87 0,-0.46 0.14,-0.83 0.42,-1.11z"/>
  <polygon id="_54" class="fil7" points="1546.95,513.31 1546.95,533.02 1544.78,533.02 1544.78,513.31 "/>
  <polygon id="_55" class="fil7" points="1554.14,513.31 1554.14,533.02 1551.97,533.02 1551.97,513.31 "/>
  <polygon id="_56" class="fil7" points="1561.32,513.31 1561.32,533.02 1559.15,533.02 1559.15,513.31 "/>
  <path id="_57" class="fil7" d="M1566.2 530.6c0.28,-0.28 0.65,-0.42 1.1,-0.42 0.46,0 0.83,0.14 1.11,0.42 0.29,0.28 0.43,0.65 0.43,1.11 0,0.26 -0.12,0.69 -0.34,1.31l-1.26 3.47 -1.37 0 0.8 -3.37c-0.26,-0.11 -0.48,-0.28 -0.64,-0.54 -0.17,-0.25 -0.26,-0.54 -0.26,-0.87 0,-0.46 0.15,-0.83 0.43,-1.11z"/>
  <polygon id="_58" class="fil7" points="1583.67,513.31 1583.67,533.02 1581.5,533.02 1581.5,513.31 "/>
  <polygon id="_59" class="fil7" points="1586.73,513.31 1589.01,513.31 1594.46,530.08 1599.92,513.31 1602.18,513.31 1595.5,533.02 1593.41,533.02 "/>
  <polygon id="_60" class="fil7" points="1613.45,513.31 1624.31,513.31 1624.31,515.26 1615.62,515.26 1615.62,522 1623.06,522 1623.06,523.94 1615.62,523.94 1615.62,531.07 1624.31,531.07 1624.31,533.02 1613.45,533.02 "/>
  <polygon id="_61" class="fil7" points="1635.03,513.31 1637.3,513.31 1642.75,530.08 1648.21,513.31 1650.48,513.31 1643.8,533.02 1641.71,533.02 "/>
  <path id="_62" class="fil7" d="M1653.62 511.85c2.07,1.68 3.49,3.88 4.26,6.61 0.47,1.75 0.71,4.09 0.71,7.03 0,2.94 -0.24,5.28 -0.71,7.03 -0.77,2.72 -2.19,4.93 -4.26,6.6l-1.06 -1.22c1.65,-1.53 2.78,-3.42 3.4,-5.66 0.45,-1.68 0.68,-3.93 0.68,-6.75 0,-2.82 -0.23,-5.07 -0.68,-6.75 -0.62,-2.25 -1.75,-4.13 -3.4,-5.66l1.06 -1.23z"/>
  <path id="_63" class="fil7" d="M1403.58 559.4l-3.27 -10.06 -3.27 10.06 6.54 0zm-4.32 -12.99l2.09 0 6.68 19.7 -2.26 0 -1.55 -4.76 -7.82 0 -1.55 4.76 -2.27 0 6.68 -19.7z"/>
  <path id="_64" class="fil7" d="M1412.9 552.64c1.01,-1.21 2.19,-1.81 3.55,-1.81 0.38,0 0.81,0.05 1.28,0.15l-0.31 1.84c-0.58,-0.08 -1,-0.12 -1.25,-0.12 -0.71,0 -1.32,0.16 -1.84,0.49 -0.51,0.34 -0.89,0.79 -1.12,1.35 -0.21,0.5 -0.31,1.37 -0.31,2.62l0 8.95 -2.09 0 0 -15.06 2.09 0 0 1.59z"/>
  <path id="_65" class="fil7" d="M1421.21 561.89l0 -9.11 -2.09 0 0 -1.73 2.09 0 0 -3.25 2.09 0 0 3.25 2.78 0 0 1.73 -2.78 0 0 9.11c0,1 0.04,1.61 0.12,1.81 0.21,0.51 0.61,0.77 1.2,0.77 0.48,0 1.01,-0.15 1.58,-0.45l0.81 1.73c-0.89,0.39 -1.73,0.58 -2.53,0.58 -0.79,0 -1.45,-0.19 -1.99,-0.57 -0.55,-0.38 -0.92,-0.92 -1.13,-1.63 -0.1,-0.35 -0.15,-1.09 -0.15,-2.24z"/>
  <path id="_66" class="fil7" d="M1430.01 563.7c0.28,-0.29 0.65,-0.43 1.11,-0.43 0.45,0 0.82,0.14 1.1,0.43 0.29,0.28 0.43,0.65 0.43,1.1 0,0.46 -0.14,0.83 -0.43,1.11 -0.28,0.28 -0.65,0.42 -1.1,0.42 -0.46,0 -0.83,-0.14 -1.11,-0.42 -0.28,-0.28 -0.42,-0.65 -0.42,-1.11 0,-0.45 0.14,-0.82 0.42,-1.1z"/>
  <path id="_67" class="fil7" d="M1449.94 546.14c1.66,0 3.02,0.52 4.08,1.56 1.06,1.05 1.59,2.36 1.59,3.94 0,0.75 -0.14,1.47 -0.42,2.15 -0.29,0.69 -0.73,1.44 -1.33,2.25l-6.12 8.12 8.46 0 0 1.95 -11.36 0 0 -1.5 7.2 -9.63c0.49,-0.66 0.85,-1.23 1.07,-1.71 0.22,-0.49 0.33,-1.03 0.33,-1.63 0,-1.04 -0.32,-1.89 -0.96,-2.55 -0.64,-0.67 -1.48,-1 -2.54,-1 -1.25,0 -2.43,0.53 -3.55,1.6l-1.42 -1.48c1.44,-1.38 3.09,-2.07 4.97,-2.07z"/>
  <polygon id="_68" class="fil7" points="1459.15,548.35 1459.15,546.41 1471.06,546.41 1471.06,547.71 1463.47,566.11 1461.15,566.11 1468.48,548.35 "/>
  <path class="fil10" d="M1156.41 291.79c-2.38,0 -4.05,0.99 -5.05,2.28 -1.37,1.79 -1.37,3.7 -1.37,7.38 0,3.67 0,5.58 1.37,7.38 1,1.28 2.67,2.28 5.05,2.28 1.96,0 3.87,-0.69 5.3,-1.94l-1.28 -1.57c-1.06,0.97 -2.54,1.51 -4.02,1.51 -1.47,0 -2.62,-0.54 -3.31,-1.42 -1,-1.31 -1,-2.68 -1,-6.24 0,-3.57 0,-4.93 1,-6.24 0.69,-0.89 1.84,-1.43 3.31,-1.43 1.37,0 2.73,0.49 3.76,1.34l1.22 -1.6c-1.39,-1.14 -3.22,-1.73 -4.98,-1.73z"/>
  <path id="_1_48" class="fil10" d="M1164.42 297.32l0 7.29c0,2 0,3.65 1.34,5.05 0.68,0.71 1.9,1.45 3.64,1.45 1.74,0 2.97,-0.74 3.65,-1.45 1.34,-1.4 1.34,-3.05 1.34,-5.05l0 -7.29 -1.99 0 0 7.29c0,1.77 0,2.97 -0.83,3.79 -0.49,0.49 -1.23,0.83 -2.17,0.83 -0.94,0 -1.68,-0.34 -2.16,-0.83 -0.83,-0.82 -0.83,-2.02 -0.83,-3.79l0 -7.29 -1.99 0z"/>
  <path id="_2_49" class="fil10" d="M1182.23 297.14c-1.34,0 -2.51,0.49 -3.28,1.23 -1.42,1.37 -1.42,3.13 -1.42,5.27l0 7.3 1.99 0 0 -7.3c0,-1.88 0,-3.16 0.86,-3.96 0.42,-0.4 1.08,-0.65 1.85,-0.65 0.77,0 1.42,0.25 1.85,0.65 0.86,0.8 0.86,2.08 0.86,3.96l0 7.3 1.99 0 0 -7.3c0,-1.88 0,-3.16 0.86,-3.96 0.42,-0.4 1.08,-0.65 1.85,-0.65 0.77,0 1.42,0.25 1.85,0.65 0.86,0.8 0.86,2.08 0.86,3.96l0 7.3 1.99 0 0 -7.3c0,-2.14 0,-3.9 -1.42,-5.27 -0.77,-0.74 -1.94,-1.23 -3.28,-1.23 -1.63,0 -2.94,0.72 -3.71,2 -0.77,-1.28 -2.08,-2 -3.7,-2z"/>
  <path id="_3_50" class="fil10" d="M1202.69 299.03c1.06,0 1.91,0.37 2.42,0.94 0.92,1.02 0.92,2.48 0.92,4.1 0,1.6 0,3.16 -0.86,4.16 -0.51,0.6 -1.34,1 -2.42,1 -1.09,0 -1.91,-0.4 -2.42,-1 -0.86,-1 -0.86,-2.56 -0.86,-4.67 0,-1.51 0,-2.71 0.68,-3.51 0.55,-0.65 1.51,-1.02 2.54,-1.02zm0 -1.89c-1.31,0 -2.96,0.4 -4.07,1.71 -1.14,1.34 -1.14,2.68 -1.14,4.99l0 12.31 1.99 0 0 -6.78c0.77,1.08 2.02,1.74 3.42,1.74 1.68,0 3.02,-0.69 3.85,-1.68 1.28,-1.54 1.28,-3.42 1.28,-5.36 0,-1.77 0,-3.76 -1.37,-5.3 -0.88,-0.97 -2.25,-1.63 -3.96,-1.63z"/>
  <path id="_4_51" class="fil10" d="M1216.09 297.14c-1.31,0 -2.97,0.4 -4.08,1.71 -1.14,1.34 -1.14,2.68 -1.14,4.99l0 7.1 2 0 0 -7.1c0,-1.79 0,-2.99 0.68,-3.79 0.54,-0.65 1.51,-1.02 2.54,-1.02 0.48,0 0.94,0.08 1.34,0.22l0.59 -1.79c-0.57,-0.2 -1.22,-0.32 -1.93,-0.32z"/>
  <path id="_5_52" class="fil10" d="M1221.79 292.44c-0.77,0 -1.34,0.54 -1.34,1.34 0,0.8 0.57,1.34 1.34,1.34 0.77,0 1.34,-0.54 1.34,-1.34 0,-0.8 -0.57,-1.34 -1.34,-1.34zm-1 18.5l1.99 0 0 -13.62 -1.99 0 0 13.62z"/>
  <path id="_6_53" class="fil10" d="M1238.46 299.03c1.25,0 2.22,0.51 2.79,1.36 0.63,0.94 0.63,2.28 0.63,3.74 0,1.45 0,2.79 -0.63,3.73 -0.57,0.85 -1.54,1.37 -2.79,1.37 -1.25,0 -2.22,-0.52 -2.79,-1.37 -0.63,-0.94 -0.63,-2.28 -0.63,-3.73 0,-1.46 0,-2.8 0.63,-3.74 0.57,-0.85 1.54,-1.36 2.79,-1.36zm0 -1.89c-2.02,0 -3.68,0.92 -4.59,2.43 -0.83,1.36 -0.83,2.93 -0.83,4.56 0,1.62 0,3.19 0.83,4.56 0.91,1.51 2.57,2.42 4.59,2.42 2.02,0 3.68,-0.91 4.59,-2.42 0.82,-1.37 0.82,-2.94 0.82,-4.56 0,-1.63 0,-3.2 -0.82,-4.56 -0.91,-1.51 -2.57,-2.43 -4.59,-2.43z"/>
  <path id="_7_54" class="fil10" d="M1154.38 322.54c-0.97,0 -2.02,0 -2.96,0.8 -1.14,0.99 -1.14,2.25 -1.14,3.62l0 14.59 2.11 0 0 -6.73 1.57 0c2.25,0 4.36,0 6.09,-1.57 1.4,-1.25 1.91,-3.06 1.91,-4.57 0,-1.52 -0.51,-3.32 -1.91,-4.57 -1.73,-1.57 -3.7,-1.57 -5.67,-1.57zm0 1.99c1.83,0 3.08,0 4.19,1 0.77,0.69 1.29,1.78 1.29,3.15 0,1.37 -0.52,2.46 -1.29,3.15 -1.11,1 -2.5,1 -4.61,1l-1.57 0 0 -5.87c0,-1.17 0,-1.8 0.48,-2.17 0.34,-0.26 0.74,-0.26 1.51,-0.26z"/>
  <path id="_8_55" class="fil10" d="M1170.17 327.75c-1.31,0 -2.96,0.4 -4.07,1.71 -1.14,1.34 -1.14,2.68 -1.14,4.99l0 7.1 1.99 0 0 -7.1c0,-1.79 0,-2.99 0.69,-3.79 0.54,-0.66 1.51,-1.03 2.53,-1.03 0.49,0 0.94,0.09 1.34,0.23l0.6 -1.79c-0.57,-0.2 -1.22,-0.32 -1.94,-0.32z"/>
  <path id="_9_56" class="fil10" d="M1179.15 329.63c1.25,0 2.22,0.52 2.79,1.37 0.63,0.94 0.63,2.28 0.63,3.74 0,1.45 0,2.79 -0.63,3.73 -0.57,0.85 -1.54,1.37 -2.79,1.37 -1.25,0 -2.22,-0.52 -2.79,-1.37 -0.63,-0.94 -0.63,-2.28 -0.63,-3.73 0,-1.46 0,-2.8 0.63,-3.74 0.57,-0.85 1.54,-1.37 2.79,-1.37zm0 -1.88c-2.02,0 -3.68,0.91 -4.59,2.43 -0.83,1.36 -0.83,2.93 -0.83,4.56 0,1.62 0,3.19 0.83,4.56 0.91,1.51 2.57,2.42 4.59,2.42 2.02,0 3.68,-0.91 4.59,-2.42 0.83,-1.37 0.83,-2.94 0.83,-4.56 0,-1.63 0,-3.2 -0.83,-4.56 -0.91,-1.52 -2.57,-2.43 -4.59,-2.43z"/>
  <path id="_10_57" class="fil10" d="M1188.04 327.92l-2.05 0 2.54 10.46c0.31,1.31 0.45,2.06 1.25,2.71 0.46,0.37 1.08,0.63 1.8,0.63 0.71,0 1.34,-0.26 1.79,-0.63 0.8,-0.65 0.94,-1.4 1.26,-2.71l2.53 -10.46 -2.05 0 -2.48 10.26c-0.17,0.74 -0.28,1.17 -0.46,1.37 -0.14,0.17 -0.37,0.29 -0.59,0.29 -0.23,0 -0.46,-0.12 -0.6,-0.29 -0.17,-0.2 -0.29,-0.63 -0.46,-1.37l-2.48 -10.26z"/>
  <path id="_11_58" class="fil10" d="M1200.44 323.05c-0.77,0 -1.34,0.54 -1.34,1.34 0,0.8 0.57,1.34 1.34,1.34 0.77,0 1.34,-0.54 1.34,-1.34 0,-0.8 -0.57,-1.34 -1.34,-1.34zm-1 18.5l2 0 0 -13.63 -2 0 0 13.63z"/>
  <path id="_12_59" class="fil10" d="M1209.56 327.75c-1.34,0 -2.51,0.49 -3.28,1.23 -1.42,1.37 -1.42,3.13 -1.42,5.27l0 7.3 1.99 0 0 -7.3c0,-1.88 0,-3.16 0.86,-3.96 0.43,-0.4 1.08,-0.66 1.85,-0.66 0.77,0 1.42,0.26 1.85,0.66 0.86,0.8 0.86,2.08 0.86,3.96l0 7.3 1.99 0 0 -7.3c0,-1.88 0,-3.16 0.86,-3.96 0.42,-0.4 1.08,-0.66 1.85,-0.66 0.77,0 1.42,0.26 1.85,0.66 0.86,0.8 0.86,2.08 0.86,3.96l0 7.3 1.99 0 0 -7.3c0,-2.14 0,-3.9 -1.42,-5.27 -0.77,-0.74 -1.94,-1.23 -3.28,-1.23 -1.62,0 -2.94,0.72 -3.7,2 -0.77,-1.28 -2.09,-2 -3.71,-2z"/>
  <path id="_13_60" class="fil10" d="M1227.2 338.64c-0.65,-0.88 -0.65,-2.56 -0.65,-3.31l2.62 0c2.02,0 3.25,0 4.44,-0.85 0.8,-0.57 1.43,-1.54 1.43,-2.79 -0.03,-1.12 -0.57,-2.17 -1.43,-2.88 -0.85,-0.69 -1.99,-1.06 -3.42,-1.06 -2.02,0 -3.73,0.74 -4.64,2.03 -1.03,1.42 -1.03,2.73 -1.03,4.96 0,1.85 0,3.56 1.09,5.04 0.91,1.23 2.47,1.94 4.44,1.94 1.48,0 2.97,-0.32 4.3,-1l-0.82 -1.71c-1.03,0.54 -2.25,0.83 -3.48,0.83 -1.37,0 -2.28,-0.43 -2.85,-1.2zm5.84 -6.95c0,0.65 -0.31,1.14 -0.68,1.42 -0.6,0.46 -1.4,0.46 -3.19,0.46l-2.62 0c0,-0.57 0,-2 0.71,-2.82 0.63,-0.75 1.65,-1.12 2.93,-1.12 0.89,0 1.63,0.2 2.11,0.6 0.43,0.34 0.72,0.91 0.74,1.46z"/>
  <path id="_14_61" class="fil10" d="M1242.73 327.75c-1.74,0 -2.96,0.74 -3.64,1.46 -1.34,1.39 -1.34,3.05 -1.34,5.04l0 7.3 1.99 0 0 -7.3c0,-1.77 0,-2.96 0.83,-3.79 0.48,-0.48 1.22,-0.83 2.16,-0.83 0.94,0 1.68,0.35 2.17,0.83 0.83,0.83 0.83,2.02 0.83,3.79l0 7.3 1.99 0 0 -7.3c0,-1.99 0,-3.65 -1.34,-5.04 -0.68,-0.72 -1.91,-1.46 -3.65,-1.46z"/>
  <path id="_15_62" class="fil10" d="M1252.99 336.7l0 -7.01 3.42 0 0 -1.77 -3.42 0 0 -3.22 -1.99 0 0 12c0,1.63 0,2.71 0.8,3.71 0.62,0.8 1.68,1.31 2.93,1.31 1.03,0 1.94,-0.34 2.71,-0.74l-0.86 -1.68c-0.65,0.34 -1.31,0.54 -1.85,0.54 -0.63,0 -1.05,-0.23 -1.34,-0.57 -0.4,-0.52 -0.4,-1.03 -0.4,-2.57z"/>
  <path id="_16_63" class="fil10" d="M1264.36 329.63c1.26,0 2.23,0.52 2.8,1.37 0.62,0.94 0.62,2.28 0.62,3.74 0,1.45 0,2.79 -0.62,3.73 -0.57,0.85 -1.54,1.37 -2.8,1.37 -1.25,0 -2.22,-0.52 -2.79,-1.37 -0.63,-0.94 -0.63,-2.28 -0.63,-3.73 0,-1.46 0,-2.8 0.63,-3.74 0.57,-0.85 1.54,-1.37 2.79,-1.37zm0 -1.88c-2.02,0 -3.67,0.91 -4.58,2.43 -0.83,1.36 -0.83,2.93 -0.83,4.56 0,1.62 0,3.19 0.83,4.56 0.91,1.51 2.56,2.42 4.58,2.42 2.03,0 3.68,-0.91 4.59,-2.42 0.83,-1.37 0.83,-2.94 0.83,-4.56 0,-1.63 0,-3.2 -0.83,-4.56 -0.91,-1.52 -2.56,-2.43 -4.59,-2.43z"/>
  <path class="fil10" d="M702.19 301.51c-0.74,0 -1.51,0.26 -2.08,0.8 -0.48,0.46 -0.71,0.86 -1.31,3.14l-4.08 15.22 2.17 0 1.48 -5.56 7.64 0 1.48 5.56 2.17 0 -4.08 -15.22c-0.6,-2.28 -0.82,-2.68 -1.31,-3.14 -0.57,-0.54 -1.34,-0.8 -2.08,-0.8zm-3.28 11.6l1.94 -7.21c0.4,-1.54 0.54,-1.96 0.74,-2.16 0.15,-0.15 0.37,-0.23 0.6,-0.23 0.23,0 0.46,0.08 0.6,0.23 0.2,0.2 0.34,0.62 0.74,2.16l1.94 7.21 -6.56 0z"/>
  <path id="_1_64" class="fil10" d="M716.78 306.87c-1.68,0 -3.02,0.69 -3.84,1.68 -1.29,1.54 -1.29,3.42 -1.29,5.36 0,1.74 0,3.74 1.6,5.36 0.88,0.88 2.25,1.57 3.96,1.57 1.8,0 3.22,-0.77 4.02,-1.88 0.97,-1.34 0.97,-2.77 0.97,-4.91l0 -12.39 -2 0 0 6.95c-0.77,-1.08 -2.02,-1.74 -3.42,-1.74zm3.42 7.55c0,1.52 0,2.74 -0.68,3.57 -0.57,0.68 -1.43,0.97 -2.31,0.97 -0.97,0 -1.94,-0.35 -2.56,-1.03 -1,-1.08 -1,-2.56 -1,-4.02 0,-1.59 0,-3.16 0.85,-4.16 0.52,-0.6 1.34,-1 2.43,-1 1.08,0 1.9,0.4 2.42,1 0.85,1 0.85,2.57 0.85,4.67z"/>
  <path id="_2_65" class="fil10" d="M727.73 317.76c-0.66,-0.88 -0.66,-2.57 -0.66,-3.31l2.62 0c2.03,0 3.25,0 4.45,-0.85 0.8,-0.57 1.42,-1.54 1.42,-2.79 -0.02,-1.12 -0.57,-2.17 -1.42,-2.88 -0.86,-0.69 -2,-1.06 -3.42,-1.06 -2.02,0 -3.73,0.74 -4.65,2.03 -1.02,1.42 -1.02,2.73 -1.02,4.95 0,1.86 0,3.57 1.08,5.05 0.91,1.22 2.48,1.94 4.45,1.94 1.48,0 2.96,-0.32 4.3,-1l-0.83 -1.71c-1.02,0.54 -2.25,0.83 -3.47,0.83 -1.37,0 -2.28,-0.43 -2.85,-1.2zm5.84 -6.95c0,0.65 -0.31,1.14 -0.68,1.42 -0.6,0.46 -1.4,0.46 -3.2,0.46l-2.62 0c0,-0.57 0,-2 0.71,-2.83 0.63,-0.74 1.66,-1.11 2.94,-1.11 0.88,0 1.62,0.2 2.11,0.6 0.43,0.34 0.71,0.91 0.74,1.46z"/>
  <path id="_3_66" class="fil10" d="M743.32 308.75c1.02,0 1.99,0.37 2.53,1.03 0.69,0.8 0.69,1.99 0.69,3.5 0,2.11 0,3.68 -0.86,4.68 -0.51,0.6 -1.34,1 -2.42,1 -1.08,0 -1.91,-0.4 -2.42,-1 -0.86,-1 -0.86,-2.57 -0.86,-4.16 0,-1.63 0,-3.08 0.91,-4.11 0.52,-0.57 1.37,-0.94 2.43,-0.94zm0 -1.88c-1.71,0 -3.08,0.66 -3.96,1.63 -1.37,1.54 -1.37,3.53 -1.37,5.3 0,1.94 0,3.82 1.28,5.36 0.83,0.99 2.17,1.68 3.85,1.68 1.39,0 2.65,-0.66 3.42,-1.74l0 6.78 1.99 0 0 -12.31c0,-2.31 0,-3.65 -1.14,-4.99 -1.11,-1.31 -2.76,-1.71 -4.07,-1.71z"/>
  <path id="_4_67" class="fil10" d="M751.67 307.04l0 7.3c0,1.99 0,3.65 1.34,5.04 0.68,0.72 1.91,1.46 3.65,1.46 1.73,0 2.96,-0.74 3.64,-1.46 1.34,-1.39 1.34,-3.05 1.34,-5.04l0 -7.3 -1.99 0 0 7.3c0,1.77 0,2.96 -0.83,3.79 -0.48,0.48 -1.22,0.83 -2.16,0.83 -0.95,0 -1.69,-0.35 -2.17,-0.83 -0.83,-0.83 -0.83,-2.02 -0.83,-3.79l0 -7.3 -1.99 0z"/>
  <path id="_5_68" class="fil10" d="M774.27 314.97l0 -2.11c0,-1.51 0,-3.2 -1.14,-4.48 -0.86,-0.97 -2.14,-1.51 -3.85,-1.51 -1.54,0 -2.99,0.34 -4.33,0.83l0.63 1.79c1.19,-0.45 2.45,-0.74 3.7,-0.74 1.08,0 1.82,0.29 2.31,0.83 0.68,0.77 0.68,1.91 0.68,2.79l-2.33 0c-1.12,0 -2.71,0 -4.05,0.97 -0.91,0.66 -1.68,1.77 -1.68,3.28 0,1.48 0.77,2.62 1.71,3.28 0.91,0.65 2.08,0.94 3.45,0.94 1.71,0 3.05,-0.49 3.9,-1.48 1,-1.17 1,-2.48 1,-4.39zm-2 0c0,1.68 0,2.56 -0.54,3.19 -0.48,0.57 -1.31,0.8 -2.36,0.8 -0.92,0 -1.71,-0.17 -2.26,-0.55 -0.51,-0.37 -0.91,-0.99 -0.91,-1.79 0,-0.88 0.43,-1.54 0.94,-1.91 0.8,-0.57 1.83,-0.57 2.8,-0.57l2.33 0 0 0.83z"/>
  <path id="_6_69" class="fil10" d="M782.11 306.87c-1.69,0 -3.03,0.69 -3.85,1.68 -1.28,1.54 -1.28,3.42 -1.28,5.36 0,1.74 0,3.74 1.59,5.36 0.88,0.88 2.25,1.57 3.96,1.57 1.8,0 3.22,-0.77 4.02,-1.88 0.97,-1.34 0.97,-2.77 0.97,-4.91l0 -12.39 -1.99 0 0 6.95c-0.77,-1.08 -2.03,-1.74 -3.42,-1.74zm3.42 7.55c0,1.52 0,2.74 -0.69,3.57 -0.57,0.68 -1.42,0.97 -2.31,0.97 -0.97,0 -1.94,-0.35 -2.56,-1.03 -1,-1.08 -1,-2.56 -1,-4.02 0,-1.59 0,-3.16 0.86,-4.16 0.51,-0.6 1.33,-1 2.42,-1 1.08,0 1.91,0.4 2.42,1 0.86,1 0.86,2.57 0.86,4.67z"/>
  <path id="_7_70" class="fil10" d="M795.79 308.75c1.25,0 2.22,0.52 2.79,1.37 0.63,0.94 0.63,2.28 0.63,3.73 0,1.46 0,2.8 -0.63,3.74 -0.57,0.85 -1.54,1.37 -2.79,1.37 -1.26,0 -2.23,-0.52 -2.8,-1.37 -0.62,-0.94 -0.62,-2.28 -0.62,-3.74 0,-1.45 0,-2.79 0.62,-3.73 0.57,-0.85 1.54,-1.37 2.8,-1.37zm0 -1.88c-2.03,0 -3.68,0.91 -4.59,2.42 -0.83,1.37 -0.83,2.94 -0.83,4.56 0,1.63 0,3.2 0.83,4.56 0.91,1.51 2.56,2.43 4.59,2.43 2.02,0 3.67,-0.92 4.58,-2.43 0.83,-1.36 0.83,-2.93 0.83,-4.56 0,-1.62 0,-3.19 -0.83,-4.56 -0.91,-1.51 -2.56,-2.42 -4.58,-2.42z"/>
  <path id="_8_71" class="fil10" d="M813.57 317.76c-0.66,-0.88 -0.66,-2.57 -0.66,-3.31l2.63 0c2.02,0 3.25,0 4.44,-0.85 0.8,-0.57 1.43,-1.54 1.43,-2.79 -0.03,-1.12 -0.57,-2.17 -1.43,-2.88 -0.85,-0.69 -1.99,-1.06 -3.42,-1.06 -2.02,0 -3.73,0.74 -4.64,2.03 -1.03,1.42 -1.03,2.73 -1.03,4.95 0,1.86 0,3.57 1.08,5.05 0.92,1.22 2.48,1.94 4.45,1.94 1.48,0 2.96,-0.32 4.3,-1l-0.82 -1.71c-1.03,0.54 -2.25,0.83 -3.48,0.83 -1.37,0 -2.28,-0.43 -2.85,-1.2zm5.84 -6.95c0,0.65 -0.31,1.14 -0.68,1.42 -0.6,0.46 -1.4,0.46 -3.19,0.46l-2.63 0c0,-0.57 0,-2 0.72,-2.83 0.62,-0.74 1.65,-1.11 2.93,-1.11 0.89,0 1.63,0.2 2.11,0.6 0.43,0.34 0.71,0.91 0.74,1.46z"/>
  <polygon id="_9_72" class="fil10" points="831.52,301.66 831.52,320.67 833.52,320.67 833.52,301.66 "/>
  <path id="_10_73" class="fil10" d="M839.33 317.76c-0.65,-0.88 -0.65,-2.57 -0.65,-3.31l2.62 0c2.02,0 3.25,0 4.45,-0.85 0.79,-0.57 1.42,-1.54 1.42,-2.79 -0.03,-1.12 -0.57,-2.17 -1.42,-2.88 -0.86,-0.69 -2,-1.06 -3.42,-1.06 -2.03,0 -3.74,0.74 -4.65,2.03 -1.03,1.42 -1.03,2.73 -1.03,4.95 0,1.86 0,3.57 1.09,5.05 0.91,1.22 2.48,1.94 4.44,1.94 1.49,0 2.97,-0.32 4.31,-1l-0.83 -1.71c-1.03,0.54 -2.25,0.83 -3.48,0.83 -1.36,0 -2.28,-0.43 -2.85,-1.2zm5.85 -6.95c0,0.65 -0.32,1.14 -0.69,1.42 -0.6,0.46 -1.39,0.46 -3.19,0.46l-2.62 0c0,-0.57 0,-2 0.71,-2.83 0.63,-0.74 1.65,-1.11 2.94,-1.11 0.88,0 1.62,0.2 2.11,0.6 0.42,0.34 0.71,0.91 0.74,1.46z"/>
  <path id="_11_74" class="fil10" d="M851.16 302.17c-0.77,0 -1.34,0.54 -1.34,1.34 0,0.8 0.57,1.34 1.34,1.34 0.77,0 1.34,-0.54 1.34,-1.34 0,-0.8 -0.57,-1.34 -1.34,-1.34zm-1 18.5l2 0 0 -13.63 -2 0 0 13.63z"/>
  <path id="_12_75" class="fil10" d="M700.14 337.48c-1.68,0 -3.02,0.69 -3.85,1.68 -1.28,1.54 -1.28,3.42 -1.28,5.36 0,1.74 0,3.73 1.6,5.36 0.88,0.88 2.25,1.57 3.96,1.57 1.79,0 3.22,-0.77 4.02,-1.88 0.96,-1.34 0.96,-2.77 0.96,-4.91l0 -12.39 -1.99 0 0 6.95c-0.77,-1.08 -2.02,-1.74 -3.42,-1.74zm3.42 7.55c0,1.51 0,2.74 -0.68,3.57 -0.57,0.68 -1.43,0.97 -2.31,0.97 -0.97,0 -1.94,-0.35 -2.57,-1.03 -1,-1.08 -1,-2.57 -1,-4.02 0,-1.6 0,-3.16 0.86,-4.16 0.51,-0.6 1.34,-1 2.42,-1 1.08,0 1.91,0.4 2.42,1 0.86,1 0.86,2.56 0.86,4.67z"/>
  <path id="_13_76" class="fil10" d="M711.08 348.37c-0.65,-0.88 -0.65,-2.57 -0.65,-3.31l2.62 0c2.02,0 3.25,0 4.45,-0.85 0.79,-0.57 1.42,-1.54 1.42,-2.8 -0.03,-1.11 -0.57,-2.16 -1.42,-2.87 -0.86,-0.69 -2,-1.06 -3.42,-1.06 -2.03,0 -3.74,0.74 -4.65,2.02 -1.03,1.43 -1.03,2.74 -1.03,4.96 0,1.86 0,3.57 1.09,5.05 0.91,1.22 2.48,1.94 4.44,1.94 1.49,0 2.97,-0.32 4.31,-1l-0.83 -1.71c-1.03,0.54 -2.25,0.83 -3.48,0.83 -1.36,0 -2.28,-0.43 -2.85,-1.2zm5.85 -6.96c0,0.66 -0.32,1.14 -0.69,1.43 -0.6,0.46 -1.39,0.46 -3.19,0.46l-2.62 0c0,-0.57 0,-2 0.71,-2.83 0.63,-0.74 1.65,-1.11 2.94,-1.11 0.88,0 1.62,0.2 2.11,0.6 0.42,0.34 0.71,0.91 0.74,1.45z"/>
  <path id="_14_77" class="fil10" d="M733.97 339.36c1.05,0 1.91,0.37 2.42,0.94 0.91,1.03 0.91,2.48 0.91,4.11 0,1.59 0,3.16 -0.85,4.16 -0.52,0.6 -1.34,1 -2.42,1 -1.09,0 -1.91,-0.4 -2.43,-1 -0.85,-1 -0.85,-2.57 -0.85,-4.68 0,-1.51 0,-2.7 0.68,-3.5 0.54,-0.66 1.51,-1.03 2.54,-1.03zm0 -1.88c-1.31,0 -2.97,0.4 -4.08,1.71 -1.14,1.34 -1.14,2.68 -1.14,4.99l0 12.31 2 0 0 -6.78c0.77,1.08 2.02,1.74 3.42,1.74 1.68,0 3.02,-0.69 3.85,-1.69 1.28,-1.53 1.28,-3.42 1.28,-5.35 0,-1.77 0,-3.76 -1.37,-5.3 -0.88,-0.97 -2.25,-1.63 -3.96,-1.63z"/>
  <path id="_15_78" class="fil10" d="M747.36 337.48c-1.31,0 -2.96,0.4 -4.07,1.71 -1.14,1.34 -1.14,2.68 -1.14,4.99l0 7.1 1.99 0 0 -7.1c0,-1.8 0,-2.99 0.69,-3.79 0.54,-0.66 1.51,-1.03 2.53,-1.03 0.49,0 0.94,0.09 1.34,0.23l0.6 -1.8c-0.57,-0.19 -1.22,-0.31 -1.94,-0.31z"/>
  <path id="_16_79" class="fil10" d="M756.34 339.36c1.26,0 2.22,0.52 2.79,1.37 0.63,0.94 0.63,2.28 0.63,3.73 0,1.46 0,2.8 -0.63,3.74 -0.57,0.85 -1.53,1.37 -2.79,1.37 -1.25,0 -2.22,-0.52 -2.79,-1.37 -0.63,-0.94 -0.63,-2.28 -0.63,-3.74 0,-1.45 0,-2.79 0.63,-3.73 0.57,-0.85 1.54,-1.37 2.79,-1.37zm0 -1.88c-2.02,0 -3.68,0.91 -4.59,2.42 -0.82,1.37 -0.82,2.94 -0.82,4.56 0,1.63 0,3.2 0.82,4.56 0.91,1.51 2.57,2.43 4.59,2.43 2.03,0 3.68,-0.92 4.59,-2.43 0.83,-1.36 0.83,-2.93 0.83,-4.56 0,-1.62 0,-3.19 -0.83,-4.56 -0.91,-1.51 -2.56,-2.42 -4.59,-2.42z"/>
  <path id="_17_80" class="fil10" d="M766.74 346.43l0 -7.01 3.42 0 0 -1.77 -3.42 0 0 -3.22 -1.99 0 0 12c0,1.62 0,2.71 0.8,3.71 0.62,0.79 1.68,1.31 2.93,1.31 1.03,0 1.94,-0.35 2.71,-0.74l-0.85 -1.69c-0.66,0.35 -1.32,0.55 -1.86,0.55 -0.62,0 -1.05,-0.23 -1.34,-0.57 -0.4,-0.52 -0.4,-1.03 -0.4,-2.57z"/>
  <path id="_18_81" class="fil10" d="M775.38 348.37c-0.66,-0.88 -0.66,-2.57 -0.66,-3.31l2.63 0c2.02,0 3.25,0 4.44,-0.85 0.8,-0.57 1.43,-1.54 1.43,-2.8 -0.03,-1.11 -0.57,-2.16 -1.43,-2.87 -0.85,-0.69 -1.99,-1.06 -3.42,-1.06 -2.02,0 -3.73,0.74 -4.64,2.02 -1.03,1.43 -1.03,2.74 -1.03,4.96 0,1.86 0,3.57 1.08,5.05 0.92,1.22 2.48,1.94 4.45,1.94 1.48,0 2.96,-0.32 4.3,-1l-0.82 -1.71c-1.03,0.54 -2.25,0.83 -3.48,0.83 -1.37,0 -2.28,-0.43 -2.85,-1.2zm5.84 -6.96c0,0.66 -0.31,1.14 -0.68,1.43 -0.6,0.46 -1.4,0.46 -3.19,0.46l-2.63 0c0,-0.57 0,-2 0.72,-2.83 0.62,-0.74 1.65,-1.11 2.93,-1.11 0.89,0 1.63,0.2 2.11,0.6 0.43,0.34 0.71,0.91 0.74,1.45z"/>
  <path id="_19_82" class="fil10" d="M789.26 354.92l-0.46 1.43c0.54,0.23 1.11,0.31 1.63,0.31 0.97,0 1.79,-0.31 2.31,-0.74 0.45,-0.4 0.88,-1.03 0.88,-1.82 0,-0.57 -0.23,-1.09 -0.66,-1.4 -0.54,-0.37 -0.99,-0.37 -1.59,-0.37l0.27 -0.91c1.25,-0.09 2.48,-0.51 3.52,-1.2l-1.03 -1.6c-0.91,0.63 -1.99,0.95 -3.08,0.95 -1.11,0 -1.96,-0.37 -2.5,-1 -0.92,-1.06 -0.92,-2.77 -0.92,-4.22 0,-1.25 0,-2.94 0.89,-3.96 0.68,-0.8 1.65,-1.03 2.53,-1.03 1.03,0 2.09,0.32 2.94,0.86l0.97 -1.63c-1.17,-0.74 -2.54,-1.11 -3.91,-1.11 -1.82,0 -3.19,0.69 -4.07,1.71 -1.34,1.54 -1.34,3.68 -1.34,5.16 0,1.68 0,3.88 1.37,5.41 0.77,0.87 1.89,1.51 3.37,1.65l-0.58 1.86 1.06 0c0.25,0 0.48,0 0.71,0.11 0.31,0.18 0.45,0.46 0.45,0.75 0,0.37 -0.22,0.65 -0.57,0.85 -0.4,0.2 -0.77,0.2 -1.02,0.2 -0.34,0 -0.77,-0.09 -1.17,-0.26z"/>
  <path id="_20_83" class="fil10" d="M804.22 335.6c1.4,0 2.51,-1.03 2.51,-2.39l-1.6 0c0,0.54 -0.39,0.91 -0.91,0.91 -0.51,0 -0.91,-0.26 -1.34,-0.46 -0.54,-0.28 -1.22,-0.62 -2.08,-0.62 -1.39,0 -2.51,1.02 -2.51,2.39l1.6 0c0,-0.54 0.4,-0.91 0.91,-0.91 0.52,0 0.91,0.25 1.34,0.45 0.54,0.29 1.26,0.63 2.08,0.63zm3.14 9.98l0 -2.11c0,-1.51 0,-3.2 -1.14,-4.48 -0.86,-0.97 -2.14,-1.51 -3.85,-1.51 -1.54,0 -2.99,0.34 -4.33,0.83l0.62 1.79c1.2,-0.45 2.46,-0.74 3.71,-0.74 1.08,0 1.82,0.29 2.31,0.83 0.68,0.77 0.68,1.91 0.68,2.79l-2.33 0c-1.12,0 -2.71,0 -4.05,0.97 -0.91,0.66 -1.68,1.77 -1.68,3.28 0,1.48 0.77,2.62 1.71,3.28 0.91,0.65 2.08,0.94 3.45,0.94 1.71,0 3.04,-0.49 3.9,-1.49 1,-1.16 1,-2.47 1,-4.38zm-2 0c0,1.68 0,2.56 -0.54,3.19 -0.48,0.57 -1.31,0.8 -2.36,0.8 -0.92,0 -1.71,-0.18 -2.26,-0.55 -0.51,-0.37 -0.91,-0.99 -0.91,-1.79 0,-0.89 0.43,-1.54 0.94,-1.91 0.8,-0.57 1.83,-0.57 2.8,-0.57l2.33 0 0 0.83z"/>
  <path id="_21_84" class="fil10" d="M815.48 339.36c1.25,0 2.22,0.52 2.79,1.37 0.63,0.94 0.63,2.28 0.63,3.73 0,1.46 0,2.8 -0.63,3.74 -0.57,0.85 -1.54,1.37 -2.79,1.37 -1.25,0 -2.22,-0.52 -2.79,-1.37 -0.63,-0.94 -0.63,-2.28 -0.63,-3.74 0,-1.45 0,-2.79 0.63,-3.73 0.57,-0.85 1.54,-1.37 2.79,-1.37zm0 -1.88c-2.02,0 -3.68,0.91 -4.59,2.42 -0.83,1.37 -0.83,2.94 -0.83,4.56 0,1.63 0,3.2 0.83,4.56 0.91,1.51 2.57,2.43 4.59,2.43 2.02,0 3.68,-0.92 4.59,-2.43 0.82,-1.36 0.82,-2.93 0.82,-4.56 0,-1.62 0,-3.19 -0.82,-4.56 -0.91,-1.51 -2.57,-2.42 -4.59,-2.42z"/>
  <path id="_22_85" class="fil10" d="M835.71 337.48c-1.68,0 -3.02,0.69 -3.84,1.68 -1.29,1.54 -1.29,3.42 -1.29,5.36 0,1.74 0,3.73 1.6,5.36 0.88,0.88 2.25,1.57 3.96,1.57 1.8,0 3.22,-0.77 4.02,-1.88 0.97,-1.34 0.97,-2.77 0.97,-4.91l0 -12.39 -2 0 0 6.95c-0.76,-1.08 -2.02,-1.74 -3.42,-1.74zm3.42 7.55c0,1.51 0,2.74 -0.68,3.57 -0.57,0.68 -1.42,0.97 -2.31,0.97 -0.97,0 -1.94,-0.35 -2.56,-1.03 -1,-1.08 -1,-2.57 -1,-4.02 0,-1.6 0,-3.16 0.85,-4.16 0.52,-0.6 1.34,-1 2.43,-1 1.08,0 1.91,0.4 2.42,1 0.85,1 0.85,2.56 0.85,4.67z"/>
  <path id="_23_86" class="fil10" d="M846.66 348.37c-0.66,-0.88 -0.66,-2.57 -0.66,-3.31l2.63 0c2.02,0 3.24,0 4.44,-0.85 0.8,-0.57 1.43,-1.54 1.43,-2.8 -0.03,-1.11 -0.57,-2.16 -1.43,-2.87 -0.85,-0.69 -1.99,-1.06 -3.42,-1.06 -2.02,0 -3.73,0.74 -4.64,2.02 -1.03,1.43 -1.03,2.74 -1.03,4.96 0,1.86 0,3.57 1.08,5.05 0.91,1.22 2.48,1.94 4.45,1.94 1.48,0 2.96,-0.32 4.3,-1l-0.82 -1.71c-1.03,0.54 -2.26,0.83 -3.48,0.83 -1.37,0 -2.28,-0.43 -2.85,-1.2zm5.84 -6.96c0,0.66 -0.31,1.14 -0.68,1.43 -0.6,0.46 -1.4,0.46 -3.19,0.46l-2.63 0c0,-0.57 0,-2 0.72,-2.83 0.62,-0.74 1.65,-1.11 2.93,-1.11 0.89,0 1.63,0.2 2.11,0.6 0.43,0.34 0.71,0.91 0.74,1.45z"/>
  <path id="_24_87" class="fil10" d="M700.14 368.09c-1.68,0 -3.02,0.68 -3.85,1.68 -1.28,1.54 -1.28,3.42 -1.28,5.36 0,1.74 0,3.73 1.6,5.36 0.88,0.88 2.25,1.57 3.96,1.57 1.79,0 3.22,-0.77 4.02,-1.89 0.96,-1.34 0.96,-2.76 0.96,-4.9l0 -12.39 -1.99 0 0 6.95c-0.77,-1.08 -2.02,-1.74 -3.42,-1.74zm3.42 7.55c0,1.51 0,2.74 -0.68,3.57 -0.57,0.68 -1.43,0.96 -2.31,0.96 -0.97,0 -1.94,-0.34 -2.57,-1.02 -1,-1.08 -1,-2.57 -1,-4.02 0,-1.6 0,-3.16 0.86,-4.16 0.51,-0.6 1.34,-1 2.42,-1 1.08,0 1.91,0.4 2.42,1 0.86,1 0.86,2.56 0.86,4.67z"/>
  <path id="_25_88" class="fil10" d="M718.18 376.18l0 -2.1c0,-1.51 0,-3.2 -1.14,-4.48 -0.85,-0.97 -2.14,-1.51 -3.85,-1.51 -1.54,0 -2.99,0.34 -4.33,0.83l0.63 1.79c1.19,-0.45 2.45,-0.74 3.7,-0.74 1.09,0 1.83,0.29 2.31,0.83 0.69,0.77 0.69,1.91 0.69,2.79l-2.34 0c-1.11,0 -2.71,0 -4.05,0.97 -0.91,0.66 -1.68,1.77 -1.68,3.28 0,1.48 0.77,2.62 1.71,3.28 0.91,0.65 2.08,0.94 3.45,0.94 1.71,0 3.05,-0.49 3.9,-1.49 1,-1.16 1,-2.48 1,-4.39zm-1.99 0c0,1.69 0,2.57 -0.55,3.2 -0.48,0.57 -1.31,0.79 -2.36,0.79 -0.91,0 -1.71,-0.17 -2.25,-0.54 -0.52,-0.37 -0.92,-0.99 -0.92,-1.79 0,-0.89 0.43,-1.54 0.95,-1.91 0.79,-0.57 1.82,-0.57 2.79,-0.57l2.34 0 0 0.82z"/>
  <path id="_26_89" class="fil10" d="M726.02 368.09c-1.68,0 -3.02,0.68 -3.85,1.68 -1.28,1.54 -1.28,3.42 -1.28,5.36 0,1.74 0,3.73 1.59,5.36 0.89,0.88 2.26,1.57 3.97,1.57 1.79,0 3.22,-0.77 4.01,-1.89 0.97,-1.34 0.97,-2.76 0.97,-4.9l0 -12.39 -1.99 0 0 6.95c-0.77,-1.08 -2.03,-1.74 -3.42,-1.74zm3.42 7.55c0,1.51 0,2.74 -0.69,3.57 -0.57,0.68 -1.42,0.96 -2.3,0.96 -0.97,0 -1.94,-0.34 -2.57,-1.02 -1,-1.08 -1,-2.57 -1,-4.02 0,-1.6 0,-3.16 0.86,-4.16 0.51,-0.6 1.34,-1 2.42,-1 1.08,0 1.91,0.4 2.42,1 0.86,1 0.86,2.56 0.86,4.67z"/>
  <path id="_27_90" class="fil10" d="M739.7 369.97c1.25,0 2.22,0.51 2.79,1.37 0.63,0.94 0.63,2.28 0.63,3.73 0,1.46 0,2.8 -0.63,3.74 -0.57,0.85 -1.54,1.36 -2.79,1.36 -1.26,0 -2.23,-0.51 -2.79,-1.36 -0.63,-0.94 -0.63,-2.28 -0.63,-3.74 0,-1.45 0,-2.79 0.63,-3.73 0.56,-0.86 1.53,-1.37 2.79,-1.37zm0 -1.88c-2.03,0 -3.68,0.91 -4.59,2.42 -0.83,1.37 -0.83,2.94 -0.83,4.56 0,1.63 0,3.2 0.83,4.56 0.91,1.51 2.56,2.43 4.59,2.43 2.02,0 3.67,-0.92 4.59,-2.43 0.82,-1.36 0.82,-2.93 0.82,-4.56 0,-1.62 0,-3.19 -0.82,-4.56 -0.92,-1.51 -2.57,-2.42 -4.59,-2.42z"/>
  <path id="_28_91" class="fil10" d="M756.23 369.03c-1.28,-0.6 -2.71,-0.94 -4.16,-0.94 -1.17,0 -2.17,0.26 -3,0.83 -0.82,0.57 -1.53,1.56 -1.53,2.88 0,1.22 0.65,2.25 1.51,2.9 0.85,0.66 1.88,0.91 2.79,1.11 0.91,0.2 1.62,0.37 2.25,0.83 0.46,0.34 0.8,0.88 0.8,1.54 0,0.48 -0.2,1.05 -0.74,1.45 -0.54,0.4 -1.26,0.54 -2.08,0.54 -1.31,0 -2.62,-0.28 -3.79,-0.82l-0.8 1.71c1.45,0.68 3.05,1 4.59,1 1.31,0 2.39,-0.29 3.27,-0.92 0.89,-0.62 1.54,-1.68 1.54,-2.96 0,-1.43 -0.79,-2.48 -1.68,-3.11 -0.8,-0.57 -1.74,-0.82 -2.76,-1.05 -1.03,-0.23 -1.63,-0.37 -2.2,-0.83 -0.4,-0.31 -0.71,-0.8 -0.71,-1.39 0,-0.63 0.34,-1.14 0.83,-1.43 0.48,-0.28 0.99,-0.4 1.71,-0.4 1.14,0 2.33,0.29 3.42,0.8l0.74 -1.74z"/>
 </g>
</svg>
