<?xml version="1.0" encoding="UTF-8"?>
<!DOCTYPE svg PUBLIC "-//W3C//DTD SVG 1.1//EN" "http://www.w3.org/Graphics/SVG/1.1/DTD/svg11.dtd">
<!-- Creator: CorelDRAW 2021 (64 Bit) -->
<svg xmlns="http://www.w3.org/2000/svg" xml:space="preserve" width="1601px" height="900px" version="1.1" style="shape-rendering:geometricPrecision; text-rendering:geometricPrecision; image-rendering:optimizeQuality; fill-rule:evenodd; clip-rule:evenodd"
viewBox="0 0 1600.37 899.72"
 xmlns:xlink="http://www.w3.org/1999/xlink"
 xmlns:xodm="http://www.corel.com/coreldraw/odm/2003">
 <defs>
  <style type="text/css">
   <![CDATA[
    .str0 {stroke:#373435;stroke-width:0.91;stroke-miterlimit:22.9256}
    .fil2 {fill:none}
    .fil19 {fill:#FEFEFE}
    .fil21 {fill:#373435}
    .fil12 {fill:#953735}
    .fil0 {fill:#00CC83}
    .fil13 {fill:#32343F}
    .fil11 {fill:#465545}
    .fil14 {fill:#CACACA}
    .fil6 {fill:#F0F4F7}
    .fil20 {fill:#FEFEFE;fill-rule:nonzero}
    .fil5 {fill:#FEFEFE;fill-rule:nonzero}
    .fil7 {fill:#373435;fill-rule:nonzero}
    .fil10 {fill:#373435;fill-rule:nonzero}
    .fil8 {fill:#953735;fill-rule:nonzero}
    .fil17 {fill:#953735;fill-rule:nonzero}
    .fil9 {fill:#00CC83;fill-rule:nonzero}
    .fil18 {fill:#32343F;fill-rule:nonzero}
    .fil16 {fill:#465545;fill-rule:nonzero}
    .fil4 {fill:#7F7F7F;fill-rule:nonzero}
    .fil3 {fill:#B0B0B0;fill-rule:nonzero}
    .fil15 {fill:#F0F4F7;fill-rule:nonzero}
    .fil1 {fill:#FEFEFE}
   ]]>
  </style>
    <clipPath id="id0">
     <path d="M0.74 0l1599.48 0 0 899.72 -1599.48 0 0 -899.72z"/>
    </clipPath>
     <mask id="id1">
  <linearGradient id="id2" gradientUnits="userSpaceOnUse" x1="881.18" y1="-259.29" x2="881.18" y2="822.81">
   <stop offset="0" style="stop-opacity:1; stop-color:white"/>
   <stop offset="1" style="stop-opacity:0; stop-color:white"/>
  </linearGradient>
      <rect style="fill:url(#id2)" x="0.74" width="1599.48" height="899.72"/>
     </mask>
    <clipPath id="id3">
     <path d="M0.74 0l1599.48 0 0 899.72 -1599.48 0 0 -899.72z"/>
    </clipPath>
 </defs>
 <g id="Camada_x0020_1">
  <metadata id="CorelCorpID_0Corel-Layer"/>
  <g id="_2759303250816">
   <g style="clip-path:url(#id0)">
    <polygon class="fil0" style="mask:url(#id1)" points="0.74,0 1600.22,0 1600.22,899.72 0.74,899.72 "/>
   </g>
   <g style="clip-path:url(#id3)">
    <g>
     <polygon id="_1" class="fil1 str0" points="-164.51,-38.42 1650.3,-38.42 1650.3,915.22 -164.51,915.22 "/>
    </g>
   </g>
   <polygon class="fil2" points="0.74,0 1600.22,0 1600.22,899.72 0.74,899.72 "/>
   <polygon class="fil3" points="1510.38,854.7 1600.37,854.7 1600.37,824.7 1510.38,824.7 "/>
   <polygon class="fil4" points="1466.22,854.7 1502.88,854.7 1502.88,824.7 1466.22,824.7 "/>
   <path class="fil5" d="M1473.23 839.7c0,-2.68 0.41,-4.68 1.23,-5.99 0.83,-1.32 2.17,-1.98 4.03,-1.98 1.87,0 3.21,0.66 4.04,1.97 0.82,1.31 1.23,3.31 1.23,6 0,2.69 -0.41,4.69 -1.23,6 -0.82,1.31 -2.17,1.96 -4.04,1.96 -1.86,0 -3.2,-0.65 -4.03,-1.96 -0.82,-1.31 -1.23,-3.31 -1.23,-6zm3.13 -1.51c-0.02,0.42 -0.03,0.92 -0.03,1.51 0,0.58 0.01,1.09 0.03,1.52 0.02,0.42 0.06,0.83 0.11,1.24 0.05,0.4 0.13,0.74 0.23,1.01 0.1,0.26 0.23,0.5 0.39,0.7 0.16,0.21 0.36,0.36 0.59,0.45 0.23,0.1 0.5,0.15 0.81,0.15 0.37,0 0.69,-0.08 0.95,-0.23 0.26,-0.15 0.47,-0.35 0.63,-0.61 0.16,-0.26 0.29,-0.61 0.38,-1.05 0.09,-0.44 0.15,-0.91 0.18,-1.39 0.03,-0.49 0.04,-1.09 0.04,-1.79 0,-0.59 -0.01,-1.09 -0.03,-1.51 -0.02,-0.42 -0.06,-0.83 -0.12,-1.24 -0.05,-0.4 -0.13,-0.74 -0.23,-1.01 -0.11,-0.26 -0.24,-0.5 -0.4,-0.71 -0.15,-0.21 -0.35,-0.36 -0.58,-0.45 -0.23,-0.1 -0.51,-0.15 -0.82,-0.15 -0.31,0 -0.58,0.05 -0.81,0.15 -0.23,0.09 -0.42,0.24 -0.58,0.45 -0.16,0.21 -0.29,0.45 -0.39,0.71 -0.11,0.27 -0.19,0.61 -0.24,1.01 -0.05,0.41 -0.09,0.82 -0.11,1.24z"/>
   <polygon id="_1_0" class="fil5" points="1485.4,834.76 1485.4,832.02 1495.53,832.02 1495.53,834.4 1490.51,847.38 1487.18,847.38 1492.26,834.76 "/>
  </g>
  <polygon class="fil6" points="0,471.61 1599.9,471.61 1599.9,899.72 0,899.72 "/>
  <polygon class="fil3" points="358.79,110.47 1350.46,110.47 1350.46,105.75 358.79,105.75 "/>
  <g id="logo_x0020_dux-2022.eps">
   <path class="fil7" d="M1367.47 105.86c0.07,0 0.11,0.03 0.11,0.1l0 0.45c0,0.07 -0.04,0.11 -0.11,0.11l-2.38 0c-0.09,0 -0.15,0.02 -0.19,0.07 -0.04,0.05 -0.06,0.11 -0.06,0.19l0 0.16c0,0.18 0.08,0.27 0.25,0.27l1.78 0c0.28,0 0.48,0.07 0.62,0.21 0.14,0.14 0.21,0.34 0.21,0.61l0 0.38c0,0.23 -0.07,0.42 -0.2,0.56 -0.14,0.14 -0.35,0.21 -0.64,0.21l-2.63 0c-0.07,0 -0.11,-0.03 -0.11,-0.1l0 -0.45c0,-0.07 0.04,-0.11 0.11,-0.11l2.49 0c0.09,0 0.16,-0.02 0.2,-0.07 0.04,-0.05 0.05,-0.11 0.05,-0.19l0 -0.2c0,-0.18 -0.08,-0.27 -0.24,-0.27l-1.78 0c-0.28,0 -0.49,-0.07 -0.63,-0.21 -0.14,-0.14 -0.21,-0.34 -0.21,-0.6l0 -0.35c0,-0.23 0.07,-0.42 0.21,-0.56 0.13,-0.14 0.35,-0.21 0.64,-0.21l2.51 0z"/>
   <path class="fil7" d="M1373.5 107.88c0,0.12 0.01,0.22 0.03,0.31 0.02,0.08 0.05,0.15 0.1,0.2 0.05,0.05 0.11,0.08 0.19,0.1 0.09,0.02 0.19,0.03 0.31,0.03l1.41 0c0.13,0 0.23,-0.01 0.31,-0.03 0.08,-0.02 0.14,-0.05 0.19,-0.1 0.05,-0.05 0.08,-0.12 0.1,-0.2 0.02,-0.09 0.03,-0.19 0.03,-0.31l0 -0.72c0,-0.12 -0.01,-0.22 -0.03,-0.31 -0.02,-0.08 -0.05,-0.15 -0.1,-0.2 -0.05,-0.05 -0.11,-0.08 -0.19,-0.1 -0.08,-0.02 -0.18,-0.03 -0.31,-0.03l-1.41 0c-0.12,0 -0.22,0.01 -0.31,0.03 -0.08,0.02 -0.14,0.05 -0.19,0.1 -0.05,0.05 -0.08,0.12 -0.1,0.2 -0.02,0.09 -0.03,0.19 -0.03,0.31l0 0.72zm2.07 -2.02c0.24,0 0.45,0.02 0.62,0.06 0.17,0.05 0.3,0.12 0.41,0.22 0.11,0.1 0.18,0.23 0.23,0.39 0.05,0.16 0.07,0.35 0.07,0.58l0 0.82c0,0.23 -0.02,0.42 -0.07,0.58 -0.05,0.16 -0.12,0.29 -0.23,0.39 -0.11,0.1 -0.24,0.17 -0.41,0.22 -0.17,0.04 -0.38,0.06 -0.62,0.06l-1.47 0c-0.24,0 -0.44,-0.02 -0.61,-0.06 -0.17,-0.05 -0.31,-0.12 -0.41,-0.22 -0.11,-0.1 -0.19,-0.23 -0.23,-0.39 -0.05,-0.16 -0.08,-0.35 -0.08,-0.58l0 -0.82c0,-0.23 0.03,-0.42 0.08,-0.58 0.04,-0.16 0.12,-0.29 0.23,-0.39 0.1,-0.1 0.24,-0.17 0.41,-0.22 0.17,-0.04 0.37,-0.06 0.61,-0.06l1.47 0z"/>
   <path class="fil7" d="M1382.67 105.86c0.07,0 0.1,0.03 0.1,0.1l0 1.9c0,0.12 0.01,0.23 0.04,0.31 0.02,0.09 0.05,0.15 0.1,0.2 0.04,0.05 0.11,0.09 0.19,0.11 0.08,0.02 0.18,0.03 0.31,0.03l1.92 0c0.07,0 0.11,0.03 0.11,0.1l0 0.47c0,0.07 -0.04,0.1 -0.11,0.1l-1.95 0c-0.24,0 -0.45,-0.02 -0.61,-0.06 -0.17,-0.05 -0.31,-0.12 -0.42,-0.22 -0.1,-0.1 -0.18,-0.23 -0.23,-0.39 -0.05,-0.16 -0.07,-0.35 -0.07,-0.58l0 -1.97c0,-0.07 0.03,-0.1 0.11,-0.1l0.51 0z"/>
   <path class="fil7" d="M1390.98 105.86c0.07,0 0.1,0.03 0.1,0.1l0 1.9c0,0.12 0.01,0.23 0.03,0.31 0.02,0.09 0.06,0.15 0.1,0.2 0.05,0.05 0.12,0.09 0.2,0.11 0.08,0.02 0.18,0.03 0.3,0.03l1.32 0c0.12,0 0.22,-0.01 0.31,-0.03 0.08,-0.02 0.14,-0.06 0.19,-0.11 0.05,-0.05 0.08,-0.11 0.1,-0.2 0.02,-0.08 0.03,-0.19 0.03,-0.31l0 -1.9c0,-0.07 0.03,-0.1 0.1,-0.1l0.52 0c0.07,0 0.1,0.03 0.1,0.1l0 1.97c0,0.23 -0.02,0.42 -0.07,0.58 -0.05,0.16 -0.12,0.29 -0.23,0.39 -0.11,0.1 -0.24,0.17 -0.41,0.22 -0.17,0.04 -0.38,0.06 -0.62,0.06l-1.37 0c-0.24,0 -0.44,-0.02 -0.61,-0.06 -0.17,-0.05 -0.3,-0.12 -0.41,-0.22 -0.11,-0.1 -0.18,-0.23 -0.23,-0.39 -0.05,-0.16 -0.08,-0.35 -0.08,-0.58l0 -1.97c0,-0.07 0.04,-0.1 0.11,-0.1l0.52 0z"/>
   <path class="fil7" d="M1401.7 109.38c0.08,0 0.11,0.04 0.09,0.12l-0.21 0.87c-0.02,0.07 -0.06,0.1 -0.12,0.1l-0.27 0c-0.08,0 -0.12,-0.03 -0.11,-0.1l0.07 -0.88c0.01,-0.08 0.05,-0.11 0.12,-0.11l0.43 0zm1.31 -3.52c0.07,0 0.1,0.03 0.1,0.1l0 0.47c0,0.07 -0.03,0.11 -0.1,0.11l-2.12 0c-0.12,0 -0.22,0.01 -0.3,0.03 -0.08,0.02 -0.15,0.05 -0.2,0.1 -0.04,0.05 -0.08,0.12 -0.1,0.2 -0.02,0.08 -0.03,0.18 -0.03,0.31l0 0.68c0,0.12 0.01,0.23 0.03,0.31 0.02,0.09 0.06,0.15 0.1,0.2 0.05,0.05 0.12,0.09 0.2,0.11 0.08,0.02 0.18,0.03 0.3,0.03l2.12 0c0.07,0 0.1,0.03 0.1,0.1l0 0.47c0,0.07 -0.03,0.1 -0.1,0.1l-2.15 0c-0.24,0 -0.44,-0.02 -0.61,-0.06 -0.17,-0.05 -0.3,-0.12 -0.41,-0.22 -0.11,-0.1 -0.18,-0.23 -0.23,-0.39 -0.05,-0.16 -0.08,-0.35 -0.08,-0.58l0 -0.82c0,-0.23 0.03,-0.42 0.08,-0.58 0.05,-0.16 0.12,-0.29 0.23,-0.39 0.11,-0.1 0.24,-0.17 0.41,-0.22 0.17,-0.04 0.37,-0.06 0.61,-0.06l2.15 0z"/>
   <path class="fil7" d="M1409.08 105.65c-0.04,0 -0.06,-0.01 -0.07,-0.03 -0.01,-0.02 -0.02,-0.06 -0.02,-0.11 0,-0.13 0.02,-0.23 0.04,-0.32 0.02,-0.09 0.06,-0.15 0.1,-0.2 0.05,-0.05 0.11,-0.09 0.19,-0.11 0.07,-0.02 0.16,-0.03 0.27,-0.03 0.17,0 0.32,0.02 0.44,0.07 0.12,0.04 0.23,0.11 0.34,0.19 0.06,0.05 0.11,0.08 0.15,0.11 0.05,0.03 0.12,0.04 0.21,0.04 0.05,0 0.09,0 0.12,-0.01 0.03,-0.01 0.05,-0.03 0.06,-0.05 0.02,-0.03 0.03,-0.06 0.03,-0.11 0.01,-0.04 0.01,-0.09 0.01,-0.16 0.01,-0.07 0.05,-0.1 0.13,-0.1l0.27 0c0.04,0 0.06,0.01 0.07,0.03 0.01,0.02 0.02,0.06 0.02,0.11 0,0.13 -0.01,0.23 -0.04,0.32 -0.02,0.09 -0.05,0.15 -0.1,0.2 -0.05,0.06 -0.11,0.09 -0.19,0.11 -0.08,0.02 -0.17,0.03 -0.27,0.03 -0.17,0 -0.32,-0.02 -0.44,-0.07 -0.12,-0.04 -0.23,-0.11 -0.34,-0.19 -0.05,-0.05 -0.11,-0.08 -0.16,-0.11 -0.04,-0.03 -0.11,-0.04 -0.21,-0.04 -0.09,0 -0.15,0.02 -0.17,0.07 -0.03,0.04 -0.04,0.13 -0.04,0.26 0,0.07 -0.05,0.1 -0.13,0.1l-0.27 0zm-0.2 2.23c0,0.12 0.01,0.22 0.03,0.31 0.02,0.08 0.05,0.15 0.1,0.2 0.05,0.05 0.11,0.08 0.19,0.1 0.08,0.02 0.18,0.03 0.31,0.03l1.41 0c0.12,0 0.23,-0.01 0.31,-0.03 0.08,-0.02 0.14,-0.05 0.19,-0.1 0.05,-0.05 0.08,-0.12 0.1,-0.2 0.02,-0.09 0.03,-0.19 0.03,-0.31l0 -0.72c0,-0.12 -0.01,-0.22 -0.03,-0.31 -0.02,-0.08 -0.05,-0.15 -0.1,-0.2 -0.05,-0.05 -0.11,-0.08 -0.19,-0.1 -0.08,-0.02 -0.19,-0.03 -0.31,-0.03l-1.41 0c-0.13,0 -0.23,0.01 -0.31,0.03 -0.08,0.02 -0.14,0.05 -0.19,0.1 -0.05,0.05 -0.08,0.12 -0.1,0.2 -0.02,0.09 -0.03,0.19 -0.03,0.31l0 0.72zm2.07 -2.02c0.24,0 0.44,0.02 0.61,0.06 0.17,0.05 0.31,0.12 0.42,0.22 0.1,0.1 0.18,0.23 0.23,0.39 0.04,0.16 0.07,0.35 0.07,0.58l0 0.82c0,0.23 -0.03,0.42 -0.07,0.58 -0.05,0.16 -0.13,0.29 -0.23,0.39 -0.11,0.1 -0.25,0.17 -0.42,0.22 -0.17,0.04 -0.37,0.06 -0.61,0.06l-1.47 0c-0.24,0 -0.45,-0.02 -0.61,-0.06 -0.17,-0.05 -0.31,-0.12 -0.41,-0.22 -0.11,-0.1 -0.19,-0.23 -0.24,-0.39 -0.05,-0.16 -0.07,-0.35 -0.07,-0.58l0 -0.82c0,-0.23 0.02,-0.42 0.07,-0.58 0.05,-0.16 0.13,-0.29 0.24,-0.39 0.1,-0.1 0.24,-0.17 0.41,-0.22 0.16,-0.04 0.37,-0.06 0.61,-0.06l1.47 0z"/>
   <path class="fil7" d="M1420.82 105.86c0.07,0 0.11,0.03 0.11,0.1l0 0.45c0,0.07 -0.04,0.11 -0.11,0.11l-2.08 0c-0.12,0 -0.23,0.01 -0.31,0.03 -0.08,0.02 -0.14,0.05 -0.19,0.1 -0.05,0.05 -0.08,0.12 -0.1,0.2 -0.02,0.09 -0.03,0.19 -0.03,0.31l0 0.05 2.68 0c0.07,0 0.11,0.03 0.11,0.1l0 0.38c0,0.07 -0.04,0.1 -0.11,0.1l-2.68 0 0 0.09c0,0.12 0.01,0.22 0.03,0.31 0.02,0.08 0.05,0.15 0.1,0.2 0.05,0.05 0.11,0.08 0.19,0.1 0.08,0.02 0.19,0.03 0.31,0.03l2.08 0c0.07,0 0.11,0.04 0.11,0.11l0 0.45c0,0.07 -0.04,0.1 -0.11,0.1l-2.09 0c-0.24,0 -0.45,-0.02 -0.62,-0.06 -0.16,-0.05 -0.3,-0.12 -0.41,-0.22 -0.1,-0.1 -0.18,-0.23 -0.23,-0.39 -0.05,-0.16 -0.07,-0.35 -0.07,-0.58l0 -0.82c0,-0.23 0.02,-0.42 0.07,-0.58 0.05,-0.16 0.13,-0.29 0.23,-0.39 0.11,-0.1 0.25,-0.17 0.41,-0.22 0.17,-0.04 0.38,-0.06 0.62,-0.06l2.09 0z"/>
   <path class="fil7" d="M1429.34 105.86c0.07,0 0.11,0.03 0.11,0.1l0 0.45c0,0.07 -0.04,0.11 -0.11,0.11l-2.38 0c-0.09,0 -0.16,0.02 -0.19,0.07 -0.04,0.05 -0.06,0.11 -0.06,0.19l0 0.16c0,0.18 0.08,0.27 0.25,0.27l1.78 0c0.27,0 0.48,0.07 0.62,0.21 0.14,0.14 0.21,0.34 0.21,0.61l0 0.38c0,0.23 -0.07,0.42 -0.2,0.56 -0.14,0.14 -0.35,0.21 -0.64,0.21l-2.63 0c-0.08,0 -0.11,-0.03 -0.11,-0.1l0 -0.45c0,-0.07 0.03,-0.11 0.11,-0.11l2.49 0c0.09,0 0.16,-0.02 0.2,-0.07 0.03,-0.05 0.05,-0.11 0.05,-0.19l0 -0.2c0,-0.18 -0.08,-0.27 -0.24,-0.27l-1.79 0c-0.27,0 -0.48,-0.07 -0.62,-0.21 -0.14,-0.14 -0.21,-0.34 -0.21,-0.6l0 -0.35c0,-0.23 0.07,-0.42 0.21,-0.56 0.13,-0.14 0.34,-0.21 0.63,-0.21l2.52 0z"/>
   <path class="fil7" d="M1444.22 105.86c0.07,0 0.11,0.03 0.11,0.1l0 0.45c0,0.07 -0.04,0.11 -0.11,0.11l-2.08 0c-0.12,0 -0.22,0.01 -0.3,0.03 -0.08,0.02 -0.15,0.05 -0.2,0.1 -0.05,0.05 -0.08,0.12 -0.1,0.2 -0.02,0.09 -0.03,0.19 -0.03,0.31l0 0.05 2.69 0c0.07,0 0.1,0.03 0.1,0.1l0 0.38c0,0.07 -0.03,0.1 -0.1,0.1l-2.69 0 0 0.09c0,0.12 0.01,0.22 0.03,0.31 0.02,0.08 0.05,0.15 0.1,0.2 0.05,0.05 0.12,0.08 0.2,0.1 0.08,0.02 0.18,0.03 0.3,0.03l2.08 0c0.07,0 0.11,0.04 0.11,0.11l0 0.45c0,0.07 -0.04,0.1 -0.11,0.1l-2.09 0c-0.24,0 -0.45,-0.02 -0.61,-0.06 -0.17,-0.05 -0.31,-0.12 -0.41,-0.22 -0.11,-0.1 -0.19,-0.23 -0.24,-0.39 -0.05,-0.16 -0.07,-0.35 -0.07,-0.58l0 -0.82c0,-0.23 0.02,-0.42 0.07,-0.58 0.05,-0.16 0.13,-0.29 0.24,-0.39 0.1,-0.1 0.24,-0.17 0.41,-0.22 0.16,-0.04 0.37,-0.06 0.61,-0.06l2.09 0z"/>
   <path class="fil7" d="M1450.38 105.86c0.07,0 0.13,0 0.18,0.01 0.05,0.01 0.1,0.03 0.14,0.05 0.03,0.03 0.07,0.07 0.1,0.11 0.03,0.05 0.06,0.11 0.09,0.19l0.99 2.28c0.01,0.03 0.03,0.04 0.07,0.04l0.05 0c0.03,0 0.06,-0.01 0.07,-0.04l0.99 -2.28c0.03,-0.08 0.06,-0.14 0.09,-0.19 0.03,-0.04 0.07,-0.08 0.1,-0.11 0.04,-0.02 0.08,-0.04 0.13,-0.05 0.05,-0.01 0.11,-0.01 0.18,-0.01l0.51 0c0.16,0 0.28,0.03 0.33,0.11 0.06,0.07 0.09,0.2 0.09,0.38l0 2.73c0,0.07 -0.04,0.1 -0.11,0.1l-0.49 0c-0.07,0 -0.1,-0.03 -0.1,-0.1l0 -2.48c0,-0.03 -0.01,-0.05 -0.04,-0.05l-0.04 0c-0.03,0 -0.05,0.01 -0.06,0.04l-0.96 2.13c-0.04,0.08 -0.08,0.15 -0.12,0.21 -0.04,0.06 -0.08,0.11 -0.13,0.15 -0.04,0.04 -0.1,0.06 -0.15,0.08 -0.06,0.01 -0.13,0.02 -0.21,0.02l-0.23 0c-0.08,0 -0.15,-0.01 -0.21,-0.02 -0.05,-0.02 -0.11,-0.04 -0.15,-0.08 -0.05,-0.04 -0.09,-0.09 -0.13,-0.15 -0.04,-0.06 -0.08,-0.13 -0.12,-0.21l-0.96 -2.13c-0.01,-0.03 -0.03,-0.04 -0.06,-0.04l-0.04 0c-0.03,0 -0.04,0.02 -0.04,0.05l0 2.48c0,0.07 -0.03,0.1 -0.1,0.1l-0.49 0c-0.07,0 -0.11,-0.03 -0.11,-0.1l0 -2.73c0,-0.18 0.03,-0.31 0.09,-0.38 0.05,-0.08 0.17,-0.11 0.33,-0.11l0.52 0z"/>
   <path class="fil7" d="M1469.46 105.86c0.07,0 0.11,0.03 0.11,0.1l0 0.47c0,0.07 -0.04,0.11 -0.11,0.11l-1.5 0 0 2.54c0,0.07 -0.03,0.1 -0.1,0.1l-0.52 0c-0.07,0 -0.1,-0.03 -0.1,-0.1l0 -2.54 -1.49 0c-0.08,0 -0.11,-0.04 -0.11,-0.11l0 -0.47c0,-0.07 0.03,-0.1 0.11,-0.1l3.71 0z"/>
   <path class="fil7" d="M1475.18 105.86c0.07,0 0.1,0.03 0.1,0.1l0 3.12c0,0.07 -0.03,0.1 -0.1,0.1l-0.52 0c-0.07,0 -0.11,-0.03 -0.11,-0.1l0 -3.12c0,-0.07 0.04,-0.1 0.11,-0.1l0.52 0z"/>
   <path class="fil7" d="M1367.67 85.04c0,-0.23 0.11,-0.35 0.32,-0.35l8.18 0c0.73,0 1.34,0.07 1.84,0.2 0.5,0.13 0.9,0.35 1.21,0.65 0.31,0.3 0.53,0.69 0.66,1.19 0.14,0.5 0.2,1.12 0.2,1.85l0 2.74c0,0.73 -0.06,1.34 -0.2,1.84 -0.13,0.5 -0.35,0.9 -0.66,1.2 -0.31,0.3 -0.71,0.51 -1.21,0.65 -0.5,0.13 -1.11,0.2 -1.84,0.2l-8.18 0c-0.21,0 -0.32,-0.11 -0.32,-0.33l0 -9.84zm-3.07 13.63l11.67 0c1.34,0 2.5,-0.14 3.46,-0.41 0.97,-0.27 1.76,-0.7 2.37,-1.27 0.62,-0.57 1.07,-1.31 1.36,-2.19 0.29,-0.89 0.44,-1.94 0.44,-3.16l0 -3.39c0,-1.21 -0.15,-2.26 -0.44,-3.15 -0.29,-0.89 -0.74,-1.62 -1.36,-2.19 -0.61,-0.58 -1.4,-1 -2.37,-1.27 -0.96,-0.28 -2.12,-0.41 -3.46,-0.41l-11.67 0c-0.49,0 -0.74,0.24 -0.74,0.74l0 15.95c0,0.5 0.25,0.75 0.74,0.75z"/>
   <path class="fil7" d="M1388.57 97.19c0.55,0.52 1.27,0.9 2.15,1.13 0.88,0.23 1.96,0.35 3.22,0.35l7.18 0c1.26,0 2.33,-0.12 3.22,-0.35 0.89,-0.23 1.62,-0.61 2.17,-1.13 0.56,-0.53 0.96,-1.21 1.21,-2.05 0.25,-0.83 0.37,-1.85 0.37,-3.05l0 -10.32c0,-0.36 -0.18,-0.54 -0.54,-0.54l-2.72 0c-0.37,0 -0.55,0.18 -0.55,0.54l0 9.95c0,0.66 -0.05,1.21 -0.15,1.66 -0.1,0.44 -0.27,0.78 -0.52,1.04 -0.25,0.26 -0.59,0.44 -1.01,0.55 -0.42,0.11 -0.96,0.16 -1.61,0.16l-6.9 0c-0.65,0 -1.19,-0.05 -1.61,-0.16 -0.42,-0.11 -0.76,-0.29 -1.01,-0.55 -0.25,-0.26 -0.43,-0.6 -0.53,-1.04 -0.11,-0.45 -0.17,-1 -0.17,-1.66l0 -9.95c0,-0.36 -0.18,-0.54 -0.54,-0.54l-2.7 0c-0.38,0 -0.57,0.18 -0.57,0.54l0 10.32c0,1.2 0.13,2.22 0.39,3.05 0.25,0.84 0.66,1.52 1.22,2.05z"/>
   <path class="fil7" d="M1432.07 77l-4.15 4.23 -0.39 0c-0.2,0 -0.35,0.02 -0.47,0.08 -0.12,0.06 -0.22,0.15 -0.32,0.26l-5.76 5.79 -5.43 -5.79c-0.1,-0.11 -0.21,-0.2 -0.33,-0.26 -0.11,-0.06 -0.27,-0.08 -0.47,-0.08l-3.42 0c-0.23,0 -0.35,0.07 -0.37,0.23 -0.02,0.16 0.03,0.3 0.13,0.41l7.4 7.63 -8.2 8.52c-0.12,0.12 -0.16,0.26 -0.14,0.41 0.03,0.16 0.15,0.24 0.36,0.24l0.22 0 -2.23 2.27 -44.64 -0.02 0 1.8 45.39 0.02 4.02 -4.07 0.48 0c0.22,0 0.38,-0.02 0.49,-0.07 0.11,-0.05 0.22,-0.14 0.33,-0.28l6.19 -6.45 6.15 6.45c0.1,0.14 0.21,0.23 0.33,0.28 0.11,0.05 0.27,0.07 0.47,0.07l3.41 0c0.24,0 0.36,-0.08 0.39,-0.24 0.02,-0.15 -0.02,-0.29 -0.14,-0.41l-8 -8.4 7.65 -7.75c0.12,-0.11 0.17,-0.25 0.14,-0.41 -0.02,-0.16 -0.15,-0.23 -0.39,-0.23l-0.32 0 2.38 -2.42 42.56 0 0 -1.81 -43.32 0z"/>
   <path class="fil8" d="M1469.25 88.26l-9.54 0 0 -3.3c0,-0.2 0.11,-0.3 0.32,-0.3l9.22 0c0.85,0 1.45,0.19 1.8,0.55 0.28,0.3 0.44,0.71 0.5,1.25 -0.06,0.54 -0.22,0.96 -0.5,1.25 -0.35,0.36 -0.95,0.55 -1.8,0.55zm4.89 -5.74c-0.83,-0.86 -2.2,-1.29 -4.11,-1.29l-13.39 0c-0.49,0 -0.74,0.24 -0.74,0.74l0 6.29 -14.19 0c-0.36,0 -0.64,0.28 -0.64,0.64l0 1.78c0,0.36 0.28,0.64 0.64,0.64l7.23 0c0.18,0.01 0.28,0.12 0.28,0.32l0 2.02c0,0.57 -0.1,0.96 -0.3,1.19 -0.2,0.22 -0.52,0.33 -0.95,0.33l-8.22 0c-0.65,0 -1.19,-0.05 -1.61,-0.16 -0.43,-0.11 -0.76,-0.29 -1.01,-0.55 -0.25,-0.26 -0.43,-0.6 -0.54,-1.05 -0.1,-0.44 -0.16,-0.99 -0.16,-1.65l0 -3.59c0,-0.67 0.06,-1.21 0.16,-1.65 0.11,-0.43 0.29,-0.77 0.54,-1.03 0.25,-0.26 0.58,-0.44 1.01,-0.55 0.42,-0.11 0.96,-0.16 1.61,-0.16l12.48 0c0.37,0 0.55,-0.19 0.55,-0.57l0 -2.45c0,-0.36 -0.18,-0.54 -0.55,-0.54l-12.63 0c-1.27,0 -2.34,0.12 -3.22,0.36 -0.88,0.24 -1.6,0.62 -2.15,1.14 -0.56,0.53 -0.97,1.2 -1.23,2.03 -0.25,0.84 -0.38,1.85 -0.38,3.04l0 4.29c0,1.2 0.13,2.22 0.38,3.05 0.26,0.84 0.67,1.52 1.23,2.05 0.55,0.52 1.27,0.9 2.15,1.13 0.88,0.23 1.95,0.35 3.22,0.35l10.07 0c0.99,0 1.76,-0.29 2.29,-0.86 0.53,-0.57 0.8,-1.56 0.8,-2.95l0 -3.54 3.14 0 0 6.8c0,0.37 0.19,0.55 0.57,0.55l2.69 0c0.37,0 0.55,-0.18 0.55,-0.55l0 -6.8 10.32 0c1.91,0 3.28,-0.43 4.11,-1.29 0.83,-0.87 1.25,-2.15 1.25,-3.84l0 -0.05c0,-1.7 -0.42,-2.75 -1.25,-3.62z"/>
  </g>
  <g id="_2759303279376">
   <path class="fil7" d="M135.28 110.09l-7.11 0 0 -25.53 7.11 0 0 25.53zm10.5 -14.23l0 14.23 -7.12 0 0 -25.53 7.12 0 0 2.85 0 0 0 8.34c0,0.03 0,0.07 0,0.11zm1.9 -10.05c1.65,-1.12 3.43,-1.68 5.36,-1.68 2.69,0 4.94,0.95 6.76,2.85 1.82,1.9 2.73,4.43 2.73,7.6l0 15.51 -7.12 0 0 -14.42c0,-3.93 -1.44,-5.89 -4.32,-5.89 -1.28,0 -2.42,0.42 -3.41,1.26l0 -5.23zm28.17 24.66c-3.02,0 -5.72,-1.28 -8.09,-3.84 -2.38,-2.56 -3.56,-5.74 -3.56,-9.54 0,-3.8 1.15,-6.9 3.46,-9.32 2.31,-2.43 5.02,-3.64 8.12,-3.64 2.2,0 4.12,0.56 5.75,1.66l0 6.15c-1.12,-1.22 -2.47,-1.83 -4.04,-1.83 -1.68,0 -3.12,0.7 -4.32,2.09 -1.21,1.39 -1.81,3.12 -1.81,5.18 0,2.05 0.62,3.74 1.85,5.05 1.24,1.31 2.68,1.97 4.32,1.97 1.65,0 3.05,-0.66 4.2,-1.97 1.16,-1.31 1.74,-3.01 1.74,-5.08 0,-0.29 -0.02,-0.58 -0.04,-0.87l0 -17.74 -0.06 0 0 -3.86 7.12 0 0 35.21 -7.12 0 0 -3.36c-1.99,2.49 -4.5,3.74 -7.52,3.74zm40.13 -4.08c-2.88,2.72 -6.26,4.08 -10.13,4.08 -3.88,0 -7.08,-1.19 -9.61,-3.58 -2.53,-2.39 -3.8,-5.59 -3.8,-9.61 0,-4.02 1.29,-7.21 3.87,-9.59 2.58,-2.37 5.62,-3.56 9.13,-3.56 3.52,0 6.5,1.06 8.95,3.18 2.45,2.12 3.68,5.04 3.68,8.74l0 3.79 -16.77 0 0 -5.07 9.55 0c-0.15,-1.52 -0.72,-2.69 -1.7,-3.52 -0.99,-0.82 -2.18,-1.23 -3.59,-1.23 -1.41,0 -2.7,0.43 -3.87,1.28 -1.17,0.86 -1.85,2.01 -2.04,3.47 -0.39,2.57 -0.28,4.69 -0.19,5.07 0.23,1.4 0.95,2.53 2.19,3.42 1.23,0.89 2.62,1.33 4.17,1.33 2.5,0 4.56,-0.84 6.17,-2.52l3.99 4.32zm13.59 -15.19l4.62 -6.61 0.02 -0.03 8.35 0 -8.78 12.48 9.11 13.05 -8.49 0 -4.98 -7.02 -4.85 7.02 -8.2 0 13.2 -18.89zm35.16 18.89l-6.69 0 0 -3.08c-1.84,2.31 -4.11,3.46 -6.81,3.46 -2.71,0 -4.98,-0.78 -6.81,-2.34 -1.84,-1.57 -2.76,-3.66 -2.76,-6.27 0,-2.61 0.95,-4.56 2.85,-5.86 1.9,-1.3 4.49,-1.95 7.79,-1.95l3.38 0 0 5.08 -2.58 0c-2.85,0 -4.27,0.89 -4.27,2.66 0,0.92 0.34,1.62 1.02,2.11 0.68,0.49 1.65,0.74 2.92,0.74 1.27,0 2.38,-0.39 3.35,-1.17 0.96,-0.77 1.44,-1.81 1.44,-3.1l0.02 -1.14 0.03 -5.32c0,-2.72 -1.44,-4.08 -4.32,-4.08 -1.23,0 -2.54,0.25 -3.91,0.74 -1.38,0.49 -2.54,1.09 -3.49,1.82l-3.18 -4.6c3.35,-2.44 7.18,-3.66 11.48,-3.66 3.1,0 5.64,0.78 7.6,2.33 1.96,1.55 2.94,4 2.94,7.36l0 16.27z"/>
   <circle class="fil0" cx="131.73" cy="78.34" r="4.17"/>
   <circle class="fil0" cx="270.84" cy="106.3" r="4.17"/>
   <polygon class="fil0" points="224.43,95.82 228.66,89.76 225.33,84.56 216.84,84.56 "/>
   <path class="fil9" d="M285.7 84.63c4.56,0 8.06,1.11 10.5,3.34 2.43,2.23 3.65,5.33 3.65,9.31 0,3.97 -1.19,7.11 -3.56,9.43 -2.38,2.31 -6,3.47 -10.88,3.47l-8.74 0 0 -25.55 9.03 0zm0.3 20.51c2.6,0 4.61,-0.66 6.01,-1.98 1.4,-1.31 2.1,-3.23 2.1,-5.74 0,-2.51 -0.7,-4.44 -2.1,-5.79 -1.4,-1.35 -3.55,-2.03 -6.45,-2.03l-3.18 0 0 15.54 3.62 0zm36.34 -7.88c0,-2.28 -0.73,-4.22 -2.19,-5.83 -1.46,-1.61 -3.26,-2.42 -5.39,-2.42 -2.14,0 -3.93,0.81 -5.4,2.42 -1.46,1.61 -2.19,3.55 -2.19,5.83 0,2.28 0.73,4.21 2.19,5.81 1.47,1.6 3.26,2.4 5.4,2.4 2.13,0 3.93,-0.8 5.39,-2.4 1.46,-1.6 2.19,-3.53 2.19,-5.81zm1.94 9.39c-2.58,2.53 -5.76,3.79 -9.54,3.79 -3.78,0 -6.96,-1.26 -9.54,-3.79 -2.59,-2.52 -3.88,-5.66 -3.88,-9.41 0,-3.75 1.29,-6.89 3.88,-9.41 2.58,-2.53 5.76,-3.79 9.54,-3.79 3.78,0 6.96,1.26 9.54,3.79 2.58,2.52 3.88,5.66 3.88,9.41 0,3.75 -1.3,6.89 -3.88,9.41zm18.43 -1.51c2.8,0 5.1,-1.11 6.88,-3.33l3.65 3.77c-2.9,3.26 -6.32,4.89 -10.25,4.89 -3.94,0 -7.18,-1.24 -9.73,-3.72 -2.55,-2.49 -3.82,-5.63 -3.82,-9.42 0,-3.79 1.3,-6.95 3.89,-9.49 2.6,-2.53 5.77,-3.8 9.53,-3.8 4.19,0 7.7,1.6 10.53,4.79l-3.55 4.02c-1.8,-2.24 -4.04,-3.36 -6.73,-3.36 -2.14,0 -3.98,0.7 -5.5,2.1 -1.52,1.4 -2.28,3.29 -2.28,5.67 0,2.37 0.72,4.28 2.15,5.72 1.44,1.44 3.18,2.16 5.23,2.16z"/>
  </g>
  <polygon class="fil3" points="1510.38,854.7 1600.37,854.7 1600.37,824.7 1510.38,824.7 "/>
  <polygon class="fil4" points="1466.22,854.7 1502.88,854.7 1502.88,824.7 1466.22,824.7 "/>
  <polygon class="fil5" points="1474.36,833.06 1477.25,832.02 1479.76,832.02 1479.76,847.38 1476.73,847.38 1476.73,835.07 1475.13,835.62 "/>
  <polygon id="_1_1" class="fil5" points="1481.9,834.76 1481.9,832.02 1492.04,832.02 1492.04,834.4 1487.01,847.38 1483.68,847.38 1488.77,834.76 "/>
  <path class="fil10" d="M134.83 196.72c-5.25,0 -8.38,3.21 -8.38,7.23 0,2.16 1.19,4.19 2.62,5.38 1.74,1.43 3.39,1.9 4.95,2.36 1.95,0.6 3.68,1.1 4.83,2.08 1.18,0.97 1.86,2.45 1.86,3.76 0,2.29 -1.65,4.91 -5.88,4.91 -2.37,0 -4.82,-0.76 -6.64,-2.37l-1.99 2.28c2.37,2.03 5.5,3.05 8.63,3.05 6.09,0 9.01,-4.02 9.01,-7.87 0,-2.45 -1.31,-4.61 -2.79,-5.88 -1.78,-1.52 -3.85,-2.11 -5.71,-2.66 -1.4,-0.43 -3.05,-0.93 -4.07,-1.78 -1.05,-0.85 -1.69,-2.07 -1.69,-3.34 0,-2.03 1.48,-4.19 5.25,-4.19 2.37,0 4.57,0.8 6,1.95l1.87 -2.37c-2.03,-1.57 -4.87,-2.54 -7.87,-2.54z"/>
  <path id="_1_2" class="fil10" d="M155.89 207.46c1.87,0 3.3,0.77 4.15,2.03 0.93,1.4 0.93,3.39 0.93,5.55 0,2.15 0,4.14 -0.93,5.54 -0.85,1.27 -2.28,2.03 -4.15,2.03 -1.86,0 -3.29,-0.76 -4.14,-2.03 -0.93,-1.4 -0.93,-3.39 -0.93,-5.54 0,-2.16 0,-4.15 0.93,-5.55 0.85,-1.26 2.28,-2.03 4.14,-2.03zm0 -2.79c-3,0 -5.45,1.36 -6.81,3.6 -1.22,2.03 -1.22,4.35 -1.22,6.77 0,2.41 0,4.73 1.22,6.76 1.36,2.25 3.81,3.6 6.81,3.6 3.01,0 5.46,-1.35 6.82,-3.6 1.22,-2.03 1.22,-4.35 1.22,-6.76 0,-2.42 0,-4.74 -1.22,-6.77 -1.36,-2.24 -3.81,-3.6 -6.82,-3.6z"/>
  <polygon id="_2" class="fil10" points="168.59,196.93 168.59,225.15 171.55,225.15 171.55,196.93 "/>
  <path id="_3" class="fil10" d="M176.62 204.93l0 10.82c0,2.97 0,5.42 1.99,7.49 1.02,1.06 2.84,2.16 5.42,2.16 2.58,0 4.4,-1.1 5.41,-2.16 1.99,-2.07 1.99,-4.52 1.99,-7.49l0 -10.82 -2.96 0 0 10.82c0,2.63 0,4.4 -1.23,5.63 -0.72,0.72 -1.82,1.23 -3.21,1.23 -1.4,0 -2.5,-0.51 -3.22,-1.23 -1.23,-1.23 -1.23,-3 -1.23,-5.63l0 -10.82 -2.96 0z"/>
  <path id="_4" class="fil10" d="M201.03 230.56l-0.68 2.12c0.81,0.33 1.65,0.46 2.42,0.46 1.43,0 2.66,-0.46 3.42,-1.1 0.68,-0.59 1.31,-1.52 1.31,-2.71 0,-0.84 -0.33,-1.6 -0.97,-2.07 -0.8,-0.55 -1.48,-0.55 -2.37,-0.55l0.4 -1.35c1.86,-0.14 3.68,-0.75 5.23,-1.78l-1.53 -2.37c-1.35,0.93 -2.96,1.4 -4.56,1.4 -1.65,0 -2.92,-0.55 -3.73,-1.48 -1.35,-1.57 -1.35,-4.11 -1.35,-6.26 0,-1.86 0,-4.36 1.31,-5.88 1.02,-1.19 2.46,-1.53 3.77,-1.53 1.52,0 3.08,0.47 4.35,1.27l1.44 -2.41c-1.73,-1.1 -3.76,-1.65 -5.79,-1.65 -2.71,0 -4.74,1.02 -6.05,2.54 -1.99,2.28 -1.99,5.46 -1.99,7.66 0,2.49 0,5.75 2.03,8.03 1.14,1.29 2.81,2.24 5.01,2.45l-0.86 2.76 1.56 0c0.38,0 0.72,0 1.06,0.17 0.46,0.25 0.67,0.67 0.67,1.1 0,0.55 -0.33,0.97 -0.84,1.26 -0.59,0.3 -1.14,0.3 -1.52,0.3 -0.51,0 -1.15,-0.13 -1.74,-0.38z"/>
  <path id="_5" class="fil10" d="M223.24 201.88c2.07,0 3.72,-1.52 3.72,-3.55l-2.37 0c0,0.8 -0.59,1.35 -1.35,1.35 -0.76,0 -1.35,-0.38 -1.99,-0.68 -0.8,-0.42 -1.82,-0.93 -3.09,-0.93 -2.07,0 -3.72,1.53 -3.72,3.56l2.37 0c0,-0.81 0.59,-1.36 1.35,-1.36 0.76,0 1.36,0.38 1.99,0.68 0.81,0.42 1.86,0.93 3.09,0.93zm4.65 14.81l0 -3.13c0,-2.25 0,-4.74 -1.69,-6.65 -1.27,-1.43 -3.17,-2.24 -5.71,-2.24 -2.28,0 -4.44,0.51 -6.43,1.23l0.93 2.66c1.78,-0.67 3.64,-1.1 5.5,-1.1 1.61,0 2.71,0.43 3.43,1.23 1.01,1.14 1.01,2.83 1.01,4.15l-3.47 0c-1.65,0 -4.02,0 -6,1.43 -1.36,0.98 -2.5,2.63 -2.5,4.87 0,2.2 1.14,3.89 2.54,4.86 1.35,0.98 3.09,1.4 5.12,1.4 2.53,0 4.52,-0.72 5.79,-2.2 1.48,-1.73 1.48,-3.68 1.48,-6.51zm-2.96 0c0,2.49 0,3.8 -0.8,4.73 -0.72,0.85 -1.95,1.19 -3.51,1.19 -1.36,0 -2.54,-0.26 -3.34,-0.81 -0.77,-0.55 -1.36,-1.48 -1.36,-2.66 0,-1.31 0.64,-2.29 1.4,-2.84 1.18,-0.84 2.7,-0.84 4.14,-0.84l3.47 0 0 1.23z"/>
  <path id="_6" class="fil10" d="M239.95 207.46c1.86,0 3.3,0.77 4.14,2.03 0.93,1.4 0.93,3.39 0.93,5.55 0,2.15 0,4.14 -0.93,5.54 -0.84,1.27 -2.28,2.03 -4.14,2.03 -1.86,0 -3.3,-0.76 -4.15,-2.03 -0.93,-1.4 -0.93,-3.39 -0.93,-5.54 0,-2.16 0,-4.15 0.93,-5.55 0.85,-1.26 2.29,-2.03 4.15,-2.03zm0 -2.79c-3,0 -5.46,1.36 -6.81,3.6 -1.23,2.03 -1.23,4.35 -1.23,6.77 0,2.41 0,4.73 1.23,6.76 1.35,2.25 3.81,3.6 6.81,3.6 3,0 5.46,-1.35 6.81,-3.6 1.23,-2.03 1.23,-4.35 1.23,-6.76 0,-2.42 0,-4.74 -1.23,-6.77 -1.35,-2.24 -3.81,-3.6 -6.81,-3.6z"/>
  <path id="_7" class="fil10" d="M266.35 220.83c-0.98,-1.31 -0.98,-3.81 -0.98,-4.91l3.89 0c3.01,0 4.83,0 6.6,-1.26 1.19,-0.85 2.12,-2.29 2.12,-4.15 -0.04,-1.65 -0.85,-3.22 -2.12,-4.27 -1.27,-1.02 -2.96,-1.57 -5.07,-1.57 -3.01,0 -5.54,1.1 -6.9,3.01 -1.52,2.11 -1.52,4.06 -1.52,7.36 0,2.75 0,5.28 1.61,7.48 1.35,1.82 3.68,2.88 6.6,2.88 2.2,0 4.4,-0.47 6.38,-1.48l-1.22 -2.54c-1.53,0.8 -3.35,1.23 -5.16,1.23 -2.03,0 -3.39,-0.64 -4.23,-1.78zm8.67 -10.32c0,0.97 -0.47,1.69 -1.02,2.11 -0.89,0.68 -2.07,0.68 -4.74,0.68l-3.89 0c0,-0.84 0,-2.96 1.06,-4.19 0.93,-1.1 2.45,-1.65 4.36,-1.65 1.31,0 2.41,0.3 3.13,0.89 0.63,0.51 1.06,1.36 1.1,2.16z"/>
  <path id="_8" class="fil10" d="M288.98 204.67c-1.99,0 -3.73,0.72 -4.87,1.82 -2.11,2.03 -2.11,4.65 -2.11,7.83l0 10.83 2.96 0 0 -10.83c0,-2.8 0,-4.7 1.27,-5.88 0.63,-0.6 1.6,-0.98 2.75,-0.98 1.14,0 2.11,0.38 2.75,0.98 1.27,1.18 1.27,3.08 1.27,5.88l0 10.83 2.96 0 0 -10.83c0,-2.8 0,-4.7 1.27,-5.88 0.63,-0.6 1.6,-0.98 2.75,-0.98 1.14,0 2.11,0.38 2.74,0.98 1.27,1.18 1.27,3.08 1.27,5.88l0 10.83 2.97 0 0 -10.83c0,-3.18 0,-5.8 -2.12,-7.83 -1.14,-1.1 -2.88,-1.82 -4.86,-1.82 -2.42,0 -4.36,1.06 -5.5,2.96 -1.15,-1.9 -3.09,-2.96 -5.5,-2.96z"/>
  <path id="_9" class="fil10" d="M332.13 196.72c-3.54,0 -6,1.48 -7.49,3.38 -2.03,2.67 -2.03,5.5 -2.03,10.96 0,5.46 0,8.29 2.03,10.96 1.49,1.9 3.95,3.38 7.49,3.38 2.91,0 5.75,-1.02 7.86,-2.88l-1.9 -2.32c-1.57,1.43 -3.77,2.24 -5.96,2.24 -2.18,0 -3.88,-0.81 -4.91,-2.12 -1.48,-1.94 -1.48,-3.97 -1.48,-9.26 0,-5.29 0,-7.32 1.48,-9.26 1.03,-1.32 2.73,-2.12 4.91,-2.12 2.03,0 4.06,0.72 5.58,1.99l1.82 -2.37c-2.07,-1.69 -4.78,-2.58 -7.4,-2.58z"/>
  <path id="_10" class="fil10" d="M351.2 207.46c1.86,0 3.3,0.77 4.15,2.03 0.93,1.4 0.93,3.39 0.93,5.55 0,2.15 0,4.14 -0.93,5.54 -0.85,1.27 -2.29,2.03 -4.15,2.03 -1.86,0 -3.3,-0.76 -4.14,-2.03 -0.93,-1.4 -0.93,-3.39 -0.93,-5.54 0,-2.16 0,-4.15 0.93,-5.55 0.84,-1.26 2.28,-2.03 4.14,-2.03zm0 -2.79c-3,0 -5.45,1.36 -6.81,3.6 -1.22,2.03 -1.22,4.35 -1.22,6.77 0,2.41 0,4.73 1.22,6.76 1.36,2.25 3.81,3.6 6.81,3.6 3.01,0 5.46,-1.35 6.81,-3.6 1.23,-2.03 1.23,-4.35 1.23,-6.76 0,-2.42 0,-4.74 -1.23,-6.77 -1.35,-2.24 -3.8,-3.6 -6.81,-3.6z"/>
  <path id="_11" class="fil10" d="M370.45 204.67c-1.99,0 -3.72,0.72 -4.86,1.82 -2.12,2.03 -2.12,4.65 -2.12,7.83l0 10.83 2.96 0 0 -10.83c0,-2.8 0,-4.7 1.27,-5.88 0.64,-0.6 1.61,-0.98 2.75,-0.98 1.14,0 2.12,0.38 2.75,0.98 1.27,1.18 1.27,3.08 1.27,5.88l0 10.83 2.96 0 0 -10.83c0,-2.8 0,-4.7 1.27,-5.88 0.63,-0.6 1.61,-0.98 2.75,-0.98 1.14,0 2.11,0.38 2.75,0.98 1.27,1.18 1.27,3.08 1.27,5.88l0 10.83 2.96 0 0 -10.83c0,-3.18 0,-5.8 -2.12,-7.83 -1.14,-1.1 -2.87,-1.82 -4.86,-1.82 -2.41,0 -4.36,1.06 -5.5,2.96 -1.14,-1.9 -3.09,-2.96 -5.5,-2.96z"/>
  <path id="_12" class="fil10" d="M400.82 207.46c1.57,0 2.84,0.55 3.6,1.4 1.35,1.52 1.35,3.68 1.35,6.09 0,2.37 0,4.7 -1.27,6.18 -0.76,0.89 -1.98,1.48 -3.59,1.48 -1.61,0 -2.84,-0.59 -3.6,-1.48 -1.27,-1.48 -1.27,-3.81 -1.27,-6.94 0,-2.24 0,-4.02 1.02,-5.2 0.8,-0.98 2.24,-1.53 3.76,-1.53zm0 -2.79c-1.94,0 -4.4,0.59 -6.05,2.54 -1.69,1.99 -1.69,3.98 -1.69,7.4l0 18.28 2.96 0 0 -10.07c1.15,1.61 3.01,2.58 5.08,2.58 2.5,0 4.48,-1.02 5.71,-2.5 1.9,-2.28 1.9,-5.07 1.9,-7.95 0,-2.62 0,-5.58 -2.03,-7.87 -1.31,-1.44 -3.34,-2.41 -5.88,-2.41z"/>
  <polygon id="_13" class="fil10" points="413.39,196.93 413.39,225.15 416.35,225.15 416.35,196.93 "/>
  <path id="_14" class="fil10" d="M423.33 197.69c-1.14,0 -1.99,0.81 -1.99,1.99 0,1.18 0.85,1.99 1.99,1.99 1.14,0 1.99,-0.81 1.99,-1.99 0,-1.18 -0.85,-1.99 -1.99,-1.99zm-1.48 27.46l2.96 0 0 -20.22 -2.96 0 0 20.22z"/>
  <path id="_15" class="fil10" d="M443.97 216.69l0 -3.13c0,-2.25 0,-4.74 -1.69,-6.65 -1.27,-1.43 -3.17,-2.24 -5.71,-2.24 -2.28,0 -4.44,0.51 -6.43,1.23l0.93 2.66c1.78,-0.67 3.64,-1.1 5.5,-1.1 1.61,0 2.71,0.43 3.43,1.23 1.01,1.14 1.01,2.83 1.01,4.15l-3.47 0c-1.65,0 -4.02,0 -6,1.43 -1.36,0.98 -2.5,2.63 -2.5,4.87 0,2.2 1.14,3.89 2.54,4.86 1.35,0.98 3.09,1.4 5.12,1.4 2.53,0 4.52,-0.72 5.79,-2.2 1.48,-1.73 1.48,-3.68 1.48,-6.51zm-2.96 0c0,2.49 0,3.8 -0.8,4.73 -0.72,0.85 -1.95,1.19 -3.51,1.19 -1.36,0 -2.54,-0.26 -3.35,-0.81 -0.76,-0.55 -1.35,-1.48 -1.35,-2.66 0,-1.31 0.64,-2.29 1.4,-2.84 1.18,-0.84 2.7,-0.84 4.14,-0.84l3.47 0 0 1.23z"/>
  <path id="_16" class="fil10" d="M455.82 204.67c-2.58,0 -4.4,1.1 -5.42,2.16 -1.99,2.07 -1.99,4.53 -1.99,7.49l0 10.83 2.97 0 0 -10.83c0,-2.63 0,-4.4 1.22,-5.63 0.72,-0.72 1.82,-1.23 3.22,-1.23 1.39,0 2.49,0.51 3.21,1.23 1.23,1.23 1.23,3 1.23,5.63l0 10.83 2.96 0 0 -10.83c0,-2.96 0,-5.42 -1.99,-7.49 -1.01,-1.06 -2.83,-2.16 -5.41,-2.16z"/>
  <path id="_17" class="fil10" d="M480.06 221.21c-1.36,0.93 -2.96,1.4 -4.57,1.4 -1.65,0 -2.92,-0.55 -3.73,-1.48 -1.35,-1.57 -1.35,-4.11 -1.35,-6.26 0,-1.86 0,-4.36 1.31,-5.88 1.02,-1.19 2.46,-1.53 3.77,-1.53 1.52,0 3.09,0.47 4.35,1.27l1.44 -2.41c-1.73,-1.1 -3.76,-1.65 -5.79,-1.65 -2.71,0 -4.74,1.02 -6.05,2.54 -1.99,2.28 -1.99,5.46 -1.99,7.66 0,2.49 0,5.75 2.03,8.03 1.31,1.48 3.3,2.5 6.01,2.5 2.15,0 4.31,-0.63 6.09,-1.82l-1.52 -2.37z"/>
  <path id="_18" class="fil10" d="M488.52 220.83c-0.98,-1.31 -0.98,-3.81 -0.98,-4.91l3.9 0c3,0 4.82,0 6.59,-1.26 1.19,-0.85 2.12,-2.29 2.12,-4.15 -0.04,-1.65 -0.85,-3.22 -2.12,-4.27 -1.26,-1.02 -2.96,-1.57 -5.07,-1.57 -3.01,0 -5.54,1.1 -6.9,3.01 -1.52,2.11 -1.52,4.06 -1.52,7.36 0,2.75 0,5.28 1.61,7.48 1.35,1.82 3.68,2.88 6.6,2.88 2.2,0 4.4,-0.47 6.38,-1.48l-1.22 -2.54c-1.53,0.8 -3.34,1.23 -5.16,1.23 -2.03,0 -3.39,-0.64 -4.23,-1.78zm8.67 -10.32c0,0.97 -0.47,1.69 -1.02,2.11 -0.89,0.68 -2.07,0.68 -4.73,0.68l-3.9 0c0,-0.84 0,-2.96 1.06,-4.19 0.93,-1.1 2.45,-1.65 4.36,-1.65 1.31,0 2.41,0.3 3.13,0.89 0.63,0.51 1.06,1.36 1.1,2.16z"/>
  <path class="fil11" d="M738.64 508.89c-28.76,3.62 -57.85,-31.68 -45.73,-57.97 18.38,-31.96 14.74,-73.44 -11.64,-101.86 -32.48,-34.96 -87.17,-36.99 -122.11,-4.49 -34.98,32.46 -36.98,87.14 -4.5,122.11 27.24,29.32 70.07,35.46 103.81,17.52 26.05,-7.96 57.52,22.75 52.34,50.25 7.93,-10.12 17.37,-18.7 27.83,-25.56z"/>
  <path class="fil12" d="M826.78 491.55c-22.2,-17.9 -18.27,-62.49 8.41,-72.77 35.42,-10.15 61.73,-42.41 62.58,-81.2 1.02,-47.72 -36.81,-87.23 -84.53,-88.28 -47.69,-1.03 -87.23,36.81 -88.24,84.52 -0.87,40.02 25.61,74.27 62.29,84.88 23.64,12.09 25.37,54.24 4.23,71.26 11.61,-1.23 23.5,-0.74 35.26,1.59z"/>
  <path class="fil13" d="M876.58 514.24c28.57,8.47 62.85,-24.35 53.36,-52.36 -14.93,-33.72 -6.97,-74.57 22.28,-100.06 35.96,-31.36 90.57,-27.6 121.9,8.37 31.37,35.98 27.63,90.57 -8.36,121.91 -30.18,26.3 -73.44,27.9 -105.12,6.49 -25.15,-10.7 -59.98,16.88 -57.26,44.94 -7.13,-11.05 -16.11,-20.99 -26.8,-29.29z"/>
  <path class="fil14" d="M696.58 557.55c27.74,-59.25 98.26,-84.79 157.5,-57.06 59.24,27.74 84.78,98.26 57.04,157.51 -27.74,59.24 -98.25,84.79 -157.49,57.05 -59.25,-27.73 -84.79,-98.25 -57.05,-157.5z"/>
  <path class="fil15" d="M703.46 634.54c-5.41,-20.46 -4.43,-42.5 2.83,-62.4l26.02 9.54c-5.42,14.8 -6.15,30.55 -2.11,45.78l-26.74 7.08z"/>
  <path class="fil15" d="M751.71 697.73c-18.3,-10.65 -32.83,-26.52 -41.85,-45.71l25 -11.73c6.53,13.97 17.32,25.78 30.68,33.55l-13.83 23.89z"/>
  <path class="fil16" d="M771.8 538.61c-14.28,6.65 -25.91,17.28 -33.8,30.93l-24 -13.87c10.63,-18.32 26.93,-33.19 46.12,-42.14l11.68 25.08z"/>
  <path class="fil17" d="M830.05 536.04c-14.52,-5.29 -30.5,-6 -45.41,-2.08l-7 -26.71c20.51,-5.37 42.01,-4.36 61.91,2.87l-9.5 25.92z"/>
  <path class="fil15" d="M835.9 676.95c14.28,-6.66 25.92,-17.3 33.81,-30.94l23.99 13.87c-10.63,18.32 -26.9,33.21 -46.11,42.13l-11.69 -25.06z"/>
  <path class="fil15" d="M777.65 679.51c14.52,5.28 30.5,6.01 45.45,2.09l6.97 26.69c-20.52,5.37 -42.02,4.38 -61.92,-2.86l9.5 -25.92z"/>
  <path class="fil15" d="M904.24 581.01c5.45,20.48 4.43,42.5 -2.83,62.4l-26.02 -9.55c5.43,-14.79 6.15,-30.54 2.11,-45.77l26.74 -7.08z"/>
  <path class="fil18" d="M855.99 517.82c18.3,10.65 32.84,26.52 41.85,45.71l-24.96 11.75c-6.57,-13.99 -17.36,-25.8 -30.72,-33.57l13.83 -23.89z"/>
  <g id="_2759303237616">
   <path class="fil19" d="M819.62 590.08c0,6.73 -5.46,13.71 -12.18,13.71 -6.73,0 -12.19,-6.98 -12.19,-13.71 0,-6.72 5.46,-12.17 12.19,-12.17 6.72,0 12.18,5.45 12.18,12.17z"/>
   <path class="fil19" d="M824.64 634.31c2.26,0 4.07,-1.82 4.07,-4.06l0 -2.81c0,-8.7 -6.28,-21.56 -21.27,-21.56 -14.45,0 -21.28,12.38 -21.28,21.18l0 3.19c0,2.24 1.82,4.06 4.02,4.06l34.46 0z"/>
   <path class="fil19" d="M790.62 594.17c0,4.92 -4.02,10.43 -8.93,10.43 -4.9,0 -8.87,-5.51 -8.87,-10.43 0,-4.91 3.97,-8.89 8.87,-8.89 4.91,0 8.93,3.98 8.93,8.89z"/>
   <path class="fil19" d="M791.95 609.52c-2.71,-2.34 -6.34,-3.81 -10.26,-3.81 -8.1,0 -14.72,6.2 -15.43,14.11l-0.11 0c0,3.68 2.97,6.65 6.67,6.65l11.35 0c-0.11,-7.08 3.15,-13.04 7.78,-16.95z"/>
   <path class="fil19" d="M824.14 594.17c0,4.92 4.02,10.43 8.93,10.43 4.91,0 8.87,-5.51 8.87,-10.43 0,-4.91 -3.96,-8.89 -8.87,-8.89 -4.91,0 -8.93,3.98 -8.93,8.89z"/>
   <path class="fil19" d="M822.82 609.52c2.7,-2.34 6.34,-3.81 10.25,-3.81 8.1,0 14.72,6.2 15.49,14.11l0.05 0c0,3.68 -2.97,6.65 -6.67,6.65l-11.35 0c0.11,-7.08 -3.09,-13.04 -7.77,-16.95z"/>
  </g>
  <path class="fil20" d="M586.73 398.22l0 13.62c0,1.28 0,2.45 1.06,3.38 0.88,0.75 1.94,0.75 3.11,0.75l5.14 0 0 -1.87 -5.14 0c-0.98,0 -1.43,0 -1.75,-0.24 -0.45,-0.34 -0.45,-0.93 -0.45,-2.02l0 -13.62 -1.97 0z"/>
  <path id="_1_3" class="fil20" d="M604.42 398.09c-2.22,0 -3.77,0.93 -4.71,2.13 -1.28,1.67 -1.28,3.45 -1.28,6.89 0,3.43 0,5.21 1.28,6.89 0.94,1.19 2.49,2.12 4.71,2.12 2.22,0 3.78,-0.93 4.71,-2.12 1.27,-1.68 1.27,-3.46 1.27,-6.89l0 -0.64 -5.64 0 0 1.86 3.68 0c-0.02,2.44 -0.12,3.54 -0.93,4.6 -0.65,0.83 -1.72,1.33 -3.09,1.33 -1.37,0 -2.44,-0.5 -3.09,-1.33 -0.93,-1.22 -0.93,-2.5 -0.93,-5.82 0,-3.33 0,-4.61 0.93,-5.83 0.65,-0.82 1.72,-1.33 3.09,-1.33 1.27,0 2.56,0.45 3.51,1.25l1.14 -1.49c-1.3,-1.06 -3,-1.62 -4.65,-1.62z"/>
  <path id="_2_4" class="fil20" d="M617.96 398.22c-0.9,0 -1.89,0 -2.77,0.75 -1.06,0.93 -1.06,2.1 -1.06,3.38l0 13.62 1.97 0 0 -6.28 1.46 0c2.1,0 4.07,0 5.69,-1.47 1.31,-1.17 1.79,-2.85 1.79,-4.27 0,-1.41 -0.48,-3.1 -1.79,-4.27 -1.62,-1.46 -3.45,-1.46 -5.29,-1.46zm0 1.86c1.7,0 2.87,0 3.91,0.93 0.72,0.65 1.2,1.66 1.2,2.94 0,1.29 -0.48,2.3 -1.2,2.94 -1.04,0.93 -2.34,0.93 -4.31,0.93l-1.46 0 0 -5.47c0,-1.09 0,-1.68 0.45,-2.03 0.32,-0.24 0.69,-0.24 1.41,-0.24z"/>
  <path id="_3_5" class="fil20" d="M632.01 398.22c-0.64,0 -1.71,0 -2.58,0.75 -1.07,0.93 -1.07,2.1 -1.07,3.38l0 9.49c0,1.28 0,2.45 1.07,3.38 0.87,0.75 1.94,0.75 2.58,0.75 1.73,0 4.41,0 6.25,-1.84 1.81,-1.81 1.81,-4.32 1.81,-7.04 0,-2.71 0,-5.22 -1.81,-7.03 -1.84,-1.84 -4.52,-1.84 -6.25,-1.84zm0 1.86c1.49,0 3.56,0 4.81,1.25 1.28,1.28 1.28,3.2 1.28,5.76 0,2.56 0,4.48 -1.28,5.76 -1.25,1.25 -3.32,1.25 -4.81,1.25 -0.46,0 -0.91,0 -1.23,-0.24 -0.45,-0.34 -0.45,-0.93 -0.45,-2.02l0 -9.49c0,-1.1 0,-1.68 0.45,-2.03 0.32,-0.24 0.77,-0.24 1.23,-0.24z"/>
  <path class="fil20" d="M758.5 321.35c-0.9,0 -1.89,0 -2.77,0.74 -1.06,0.93 -1.06,2.1 -1.06,3.39l0 13.61 1.97 0 0 -6.28 1.46 0c2.1,0 4.07,0 5.7,-1.46 1.3,-1.17 1.78,-2.86 1.78,-4.27 0,-1.42 -0.48,-3.1 -1.78,-4.27 -1.63,-1.46 -3.46,-1.46 -5.3,-1.46zm0 1.86c1.7,0 2.87,0 3.91,0.93 0.72,0.64 1.2,1.66 1.2,2.94 0,1.28 -0.48,2.3 -1.2,2.94 -1.04,0.93 -2.34,0.93 -4.31,0.93l-1.46 0 0 -5.47c0,-1.1 0,-1.69 0.45,-2.03 0.32,-0.24 0.69,-0.24 1.41,-0.24z"/>
  <path id="_1_6" class="fil20" d="M773.24 326.21c-1.22,0 -2.77,0.38 -3.8,1.6 -1.07,1.25 -1.07,2.5 -1.07,4.66l0 6.62 1.86 0 0 -6.62c0,-1.68 0,-2.8 0.64,-3.54 0.51,-0.61 1.41,-0.96 2.37,-0.96 0.45,0 0.88,0.08 1.25,0.21l0.56 -1.67c-0.53,-0.19 -1.15,-0.3 -1.81,-0.3z"/>
  <path id="_2_7" class="fil20" d="M781.62 327.97c1.17,0 2.08,0.48 2.61,1.28 0.58,0.87 0.58,2.12 0.58,3.48 0,1.36 0,2.61 -0.58,3.49 -0.53,0.8 -1.44,1.27 -2.61,1.27 -1.17,0 -2.08,-0.47 -2.61,-1.27 -0.58,-0.88 -0.58,-2.13 -0.58,-3.49 0,-1.36 0,-2.61 0.58,-3.48 0.53,-0.8 1.44,-1.28 2.61,-1.28zm0 -1.76c-1.89,0 -3.43,0.86 -4.28,2.27 -0.77,1.27 -0.77,2.74 -0.77,4.25 0,1.52 0,2.98 0.77,4.26 0.85,1.41 2.39,2.26 4.28,2.26 1.89,0 3.43,-0.85 4.28,-2.26 0.77,-1.28 0.77,-2.74 0.77,-4.26 0,-1.51 0,-2.98 -0.77,-4.25 -0.85,-1.41 -2.39,-2.27 -4.28,-2.27z"/>
  <path id="_3_8" class="fil20" d="M789.92 326.37l-1.92 0 2.37 9.77c0.3,1.22 0.43,1.91 1.17,2.52 0.43,0.35 1.01,0.59 1.68,0.59 0.66,0 1.25,-0.24 1.68,-0.59 0.74,-0.61 0.87,-1.3 1.17,-2.52l2.36 -9.77 -1.91 0 -2.32 9.58c-0.16,0.69 -0.26,1.09 -0.42,1.28 -0.14,0.16 -0.35,0.26 -0.56,0.26 -0.21,0 -0.43,-0.1 -0.56,-0.26 -0.16,-0.19 -0.27,-0.59 -0.43,-1.28l-2.31 -9.58z"/>
  <path id="_4_9" class="fil20" d="M801.49 321.82c-0.72,0 -1.25,0.51 -1.25,1.25 0,0.75 0.53,1.25 1.25,1.25 0.72,0 1.25,-0.5 1.25,-1.25 0,-0.74 -0.53,-1.25 -1.25,-1.25zm-0.93 17.27l1.86 0 0 -12.72 -1.86 0 0 12.72z"/>
  <path id="_5_10" class="fil20" d="M810.01 326.21c-1.25,0 -2.35,0.46 -3.06,1.15 -1.33,1.27 -1.33,2.92 -1.33,4.92l0 6.81 1.86 0 0 -6.81c0,-1.76 0,-2.95 0.8,-3.7 0.4,-0.37 1.01,-0.61 1.73,-0.61 0.71,0 1.33,0.24 1.73,0.61 0.79,0.75 0.79,1.94 0.79,3.7l0 6.81 1.87 0 0 -6.81c0,-1.76 0,-2.95 0.79,-3.7 0.4,-0.37 1.01,-0.61 1.73,-0.61 0.72,0 1.33,0.24 1.73,0.61 0.8,0.75 0.8,1.94 0.8,3.7l0 6.81 1.86 0 0 -6.81c0,-2 0,-3.65 -1.33,-4.92 -0.72,-0.69 -1.81,-1.15 -3.06,-1.15 -1.51,0 -2.74,0.67 -3.46,1.87 -0.71,-1.2 -1.94,-1.87 -3.45,-1.87z"/>
  <path id="_6_11" class="fil20" d="M826.47 336.38c-0.61,-0.83 -0.61,-2.4 -0.61,-3.09l2.45 0c1.89,0 3.03,0 4.15,-0.8 0.74,-0.53 1.33,-1.43 1.33,-2.61 -0.03,-1.03 -0.53,-2.02 -1.33,-2.68 -0.8,-0.64 -1.86,-0.99 -3.19,-0.99 -1.89,0 -3.49,0.7 -4.34,1.89 -0.96,1.33 -0.96,2.56 -0.96,4.63 0,1.73 0,3.33 1.01,4.71 0.86,1.14 2.32,1.81 4.15,1.81 1.39,0 2.77,-0.29 4.02,-0.93l-0.77 -1.6c-0.96,0.51 -2.1,0.77 -3.25,0.77 -1.27,0 -2.12,-0.4 -2.66,-1.11zm5.46 -6.5c0,0.62 -0.3,1.07 -0.64,1.34 -0.56,0.42 -1.31,0.42 -2.98,0.42l-2.45 0c0,-0.53 0,-1.86 0.67,-2.63 0.58,-0.69 1.54,-1.04 2.74,-1.04 0.82,0 1.51,0.19 1.97,0.56 0.39,0.32 0.66,0.85 0.69,1.35z"/>
  <path id="_7_12" class="fil20" d="M840.97 326.21c-1.62,0 -2.76,0.7 -3.4,1.36 -1.25,1.3 -1.25,2.85 -1.25,4.71l0 6.81 1.86 0 0 -6.81c0,-1.65 0,-2.77 0.77,-3.54 0.45,-0.45 1.14,-0.77 2.02,-0.77 0.88,0 1.57,0.32 2.02,0.77 0.78,0.77 0.78,1.89 0.78,3.54l0 6.81 1.86 0 0 -6.81c0,-1.86 0,-3.41 -1.25,-4.71 -0.64,-0.66 -1.78,-1.36 -3.41,-1.36z"/>
  <path id="_8_13" class="fil20" d="M850.55 334.57l0 -6.55 3.19 0 0 -1.65 -3.19 0 0 -3 -1.86 0 0 11.2c0,1.51 0,2.52 0.74,3.46 0.59,0.74 1.57,1.22 2.74,1.22 0.96,0 1.81,-0.32 2.53,-0.69l-0.8 -1.57c-0.61,0.32 -1.22,0.5 -1.73,0.5 -0.58,0 -0.98,-0.21 -1.25,-0.53 -0.37,-0.48 -0.37,-0.96 -0.37,-2.39z"/>
  <path id="_9_14" class="fil20" d="M861.16 327.97c1.18,0 2.08,0.48 2.61,1.28 0.59,0.87 0.59,2.12 0.59,3.48 0,1.36 0,2.61 -0.59,3.49 -0.53,0.8 -1.43,1.27 -2.61,1.27 -1.17,0 -2.07,-0.47 -2.6,-1.27 -0.59,-0.88 -0.59,-2.13 -0.59,-3.49 0,-1.36 0,-2.61 0.59,-3.48 0.53,-0.8 1.43,-1.28 2.6,-1.28zm0 -1.76c-1.88,0 -3.43,0.86 -4.28,2.27 -0.77,1.27 -0.77,2.74 -0.77,4.25 0,1.52 0,2.98 0.77,4.26 0.85,1.41 2.4,2.26 4.28,2.26 1.89,0 3.44,-0.85 4.29,-2.26 0.77,-1.28 0.77,-2.74 0.77,-4.26 0,-1.51 0,-2.98 -0.77,-4.25 -0.85,-1.41 -2.4,-2.27 -4.29,-2.27z"/>
  <path id="_10_15" class="fil20" d="M800.48 367.66l2.16 0 5.88 -12.1c0.58,-1.2 1.03,-2.1 1.03,-3.01 0,-0.82 -0.32,-1.41 -0.77,-1.86 -0.77,-0.77 -1.81,-0.77 -2.87,-0.77l-6.71 0 0 1.86 6.44 0c1.15,0 1.47,0 1.68,0.16 0.16,0.13 0.26,0.32 0.26,0.61 0,0.45 -0.23,0.96 -0.85,2.21l-6.25 12.9z"/>
  <path id="_11_16" class="fil20" d="M817.22 349.92l-2.21 0 -4.26 7.92c-0.51,0.95 -1.01,1.84 -1.01,2.8 0,1.14 0.64,1.91 1.44,2.31 0.63,0.32 1.25,0.32 2.52,0.32l3.81 0 0 4.39 1.86 0 0 -4.39 1.52 0 0 -1.86 -1.52 0 0 -4.48 -1.86 0 0 4.48 -4.07 0c-1.01,0 -1.39,0 -1.6,-0.32 -0.1,-0.16 -0.13,-0.29 -0.13,-0.45 0,-0.48 0.21,-0.84 0.9,-2.13l4.61 -8.59z"/>
  <path class="fil20" d="M968.97 399.41c-2.22,0 -3.78,0.93 -4.71,2.12 -1.28,1.68 -1.28,3.46 -1.28,6.89 0,3.44 0,5.22 1.28,6.89 0.93,1.2 2.49,2.13 4.71,2.13 1.83,0 3.62,-0.64 4.95,-1.81l-1.2 -1.46c-0.99,0.91 -2.37,1.41 -3.75,1.41 -1.37,0 -2.44,-0.5 -3.09,-1.33 -0.93,-1.22 -0.93,-2.5 -0.93,-5.83 0,-3.32 0,-4.6 0.93,-5.82 0.65,-0.83 1.72,-1.33 3.09,-1.33 1.27,0 2.55,0.45 3.51,1.25l1.14 -1.49c-1.3,-1.07 -3,-1.62 -4.65,-1.62z"/>
  <path id="_1_17" class="fil20" d="M984.08 399.54l-2.08 0 -1.99 3.19 1.75 0 2.32 -3.19zm-3.11 6.62c1.17,0 2.07,0.48 2.6,1.28 0.59,0.88 0.59,2.13 0.59,3.48 0,1.36 0,2.61 -0.59,3.49 -0.53,0.8 -1.43,1.28 -2.6,1.28 -1.17,0 -2.08,-0.48 -2.61,-1.28 -0.59,-0.88 -0.59,-2.13 -0.59,-3.49 0,-1.35 0,-2.6 0.59,-3.48 0.53,-0.8 1.44,-1.28 2.61,-1.28zm0 -1.75c-1.89,0 -3.44,0.85 -4.29,2.26 -0.77,1.27 -0.77,2.74 -0.77,4.25 0,1.52 0,2.98 0.77,4.26 0.85,1.41 2.4,2.26 4.29,2.26 1.88,0 3.43,-0.85 4.28,-2.26 0.77,-1.28 0.77,-2.74 0.77,-4.26 0,-1.51 0,-2.98 -0.77,-4.25 -0.85,-1.41 -2.4,-2.26 -4.28,-2.26z"/>
  <path id="_2_18" class="fil20" d="M993.2 404.41c-1.57,0 -2.82,0.64 -3.59,1.57 -1.19,1.43 -1.19,3.19 -1.19,5 0,1.62 0,3.48 1.48,5 0.83,0.82 2.11,1.46 3.7,1.46 1.68,0 3.01,-0.72 3.75,-1.75 0.91,-1.25 0.91,-2.58 0.91,-4.58l0 -11.57 -1.86 0 0 6.49c-0.72,-1.01 -1.89,-1.62 -3.2,-1.62zm3.2 7.05c0,1.41 0,2.55 -0.64,3.32 -0.53,0.64 -1.33,0.91 -2.16,0.91 -0.9,0 -1.81,-0.32 -2.39,-0.96 -0.93,-1.01 -0.93,-2.4 -0.93,-3.75 0,-1.49 0,-2.95 0.8,-3.89 0.47,-0.55 1.25,-0.93 2.26,-0.93 1.01,0 1.78,0.38 2.26,0.93 0.8,0.94 0.8,2.4 0.8,4.37z"/>
  <path id="_3_19" class="fil20" d="M1002.38 400.02c-0.72,0 -1.25,0.5 -1.25,1.25 0,0.74 0.53,1.25 1.25,1.25 0.72,0 1.25,-0.51 1.25,-1.25 0,-0.75 -0.53,-1.25 -1.25,-1.25zm-0.93 17.26l1.86 0 0 -12.71 -1.86 0 0 12.71z"/>
  <path id="_4_20" class="fil20" d="M1011.21 406.16c0.96,0 1.87,0.35 2.37,0.96 0.64,0.75 0.64,1.86 0.64,3.27 0,1.97 0,3.43 -0.8,4.37 -0.48,0.55 -1.25,0.93 -2.26,0.93 -1.01,0 -1.78,-0.38 -2.26,-0.93 -0.8,-0.94 -0.8,-2.4 -0.8,-3.89 0,-1.51 0,-2.87 0.85,-3.83 0.48,-0.53 1.28,-0.88 2.26,-0.88zm0 -1.75c-1.59,0 -2.87,0.61 -3.69,1.51 -1.28,1.44 -1.28,3.3 -1.28,4.95 0,1.81 0,3.57 1.2,5 0.77,0.93 2.02,1.57 3.59,1.57 1.3,0 2.47,-0.61 3.19,-1.62l0 0.27c0,1.62 0,2.58 -0.64,3.37 -0.5,0.64 -1.38,1.1 -2.68,1.1 -1.12,0 -2.24,-0.32 -3.12,-0.8l-0.77 1.59c1.17,0.64 2.58,0.96 3.89,0.96 1.75,0 3.11,-0.61 3.96,-1.54 1.22,-1.33 1.22,-2.8 1.22,-4.68l0 -5.43c0,-2.16 0,-3.41 -1.06,-4.66 -1.04,-1.22 -2.58,-1.59 -3.81,-1.59z"/>
  <path id="_5_21" class="fil20" d="M1023.8 406.16c1.17,0 2.07,0.48 2.61,1.28 0.58,0.88 0.58,2.13 0.58,3.48 0,1.36 0,2.61 -0.58,3.49 -0.54,0.8 -1.44,1.28 -2.61,1.28 -1.17,0 -2.08,-0.48 -2.61,-1.28 -0.58,-0.88 -0.58,-2.13 -0.58,-3.49 0,-1.35 0,-2.6 0.58,-3.48 0.53,-0.8 1.44,-1.28 2.61,-1.28zm0 -1.75c-1.89,0 -3.43,0.85 -4.29,2.26 -0.77,1.27 -0.77,2.74 -0.77,4.25 0,1.52 0,2.98 0.77,4.26 0.86,1.41 2.4,2.26 4.29,2.26 1.89,0 3.43,-0.85 4.28,-2.26 0.77,-1.28 0.77,-2.74 0.77,-4.26 0,-1.51 0,-2.98 -0.77,-4.25 -0.85,-1.41 -2.39,-2.26 -4.28,-2.26z"/>
  <path id="_6_22" class="fil20" d="M1042.69 404.41c-1.57,0 -2.82,0.64 -3.6,1.57 -1.19,1.43 -1.19,3.19 -1.19,5 0,1.62 0,3.48 1.49,5 0.82,0.82 2.1,1.46 3.7,1.46 1.67,0 3,-0.72 3.75,-1.75 0.9,-1.25 0.9,-2.58 0.9,-4.58l0 -11.57 -1.86 0 0 6.49c-0.72,-1.01 -1.89,-1.62 -3.19,-1.62zm3.19 7.05c0,1.41 0,2.55 -0.64,3.32 -0.53,0.64 -1.33,0.91 -2.15,0.91 -0.91,0 -1.81,-0.32 -2.4,-0.96 -0.93,-1.01 -0.93,-2.4 -0.93,-3.75 0,-1.49 0,-2.95 0.8,-3.89 0.48,-0.55 1.25,-0.93 2.26,-0.93 1.01,0 1.78,0.38 2.26,0.93 0.8,0.94 0.8,2.4 0.8,4.37z"/>
  <path id="_7_23" class="fil20" d="M1052.9 414.57c-0.61,-0.83 -0.61,-2.4 -0.61,-3.09l2.45 0c1.89,0 3.03,0 4.15,-0.79 0.74,-0.54 1.33,-1.44 1.33,-2.61 -0.03,-1.04 -0.53,-2.02 -1.33,-2.69 -0.8,-0.64 -1.86,-0.98 -3.19,-0.98 -1.89,0 -3.49,0.69 -4.34,1.89 -0.96,1.33 -0.96,2.55 -0.96,4.62 0,1.73 0,3.33 1.01,4.71 0.85,1.15 2.32,1.81 4.15,1.81 1.39,0 2.77,-0.29 4.02,-0.93l-0.77 -1.59c-0.96,0.5 -2.1,0.77 -3.25,0.77 -1.27,0 -2.13,-0.4 -2.66,-1.12zm5.46 -6.49c0,0.61 -0.3,1.06 -0.64,1.33 -0.56,0.42 -1.31,0.42 -2.98,0.42l-2.45 0c0,-0.53 0,-1.86 0.67,-2.63 0.58,-0.69 1.54,-1.04 2.74,-1.04 0.82,0 1.51,0.19 1.96,0.56 0.4,0.32 0.67,0.85 0.7,1.36z"/>
  <path id="_8_24" class="fil20" d="M980.22 427.98c-1.65,0 -3.16,0.61 -4.12,1.7 -1.39,1.57 -1.39,3.48 -1.39,5.88l0 10.29 1.97 0 0 -10.29c0,-2.16 0,-3.65 0.91,-4.66 0.64,-0.71 1.59,-1.06 2.63,-1.06 1.04,0 2,0.35 2.63,1.06 0.91,1.01 0.91,2.5 0.91,4.66l0 10.29 1.97 0 0 -10.29c0,-2.4 0,-4.31 -1.39,-5.88 -0.95,-1.09 -2.47,-1.7 -4.12,-1.7z"/>
  <path id="_9_25" class="fil20" d="M993.84 434.73c1.17,0 2.08,0.48 2.61,1.28 0.58,0.88 0.58,2.13 0.58,3.49 0,1.35 0,2.6 -0.58,3.48 -0.53,0.8 -1.44,1.28 -2.61,1.28 -1.17,0 -2.07,-0.48 -2.6,-1.28 -0.59,-0.88 -0.59,-2.13 -0.59,-3.48 0,-1.36 0,-2.61 0.59,-3.49 0.53,-0.8 1.43,-1.28 2.6,-1.28zm0 -1.75c-1.89,0 -3.43,0.85 -4.28,2.26 -0.77,1.28 -0.77,2.74 -0.77,4.26 0,1.51 0,2.98 0.77,4.25 0.85,1.41 2.39,2.26 4.28,2.26 1.89,0 3.43,-0.85 4.29,-2.26 0.77,-1.27 0.77,-2.74 0.77,-4.25 0,-1.52 0,-2.98 -0.77,-4.26 -0.86,-1.41 -2.4,-2.26 -4.29,-2.26z"/>
  <path id="_10_26" class="fil20" d="M1006.43 432.98c-1.23,0 -2.77,0.37 -3.81,1.59 -1.06,1.26 -1.06,2.51 -1.06,4.66l0 6.62 1.86 0 0 -6.62c0,-1.68 0,-2.79 0.64,-3.54 0.5,-0.61 1.41,-0.96 2.37,-0.96 0.45,0 0.87,0.08 1.25,0.22l0.55 -1.68c-0.53,-0.19 -1.14,-0.29 -1.8,-0.29z"/>
  <path id="_11_27" class="fil20" d="M1014.41 432.98c-1.25,0 -2.34,0.45 -3.06,1.14 -1.33,1.28 -1.33,2.93 -1.33,4.92l0 6.81 1.86 0 0 -6.81c0,-1.75 0,-2.95 0.8,-3.69 0.4,-0.38 1.01,-0.62 1.73,-0.62 0.72,0 1.33,0.24 1.73,0.62 0.79,0.74 0.79,1.94 0.79,3.69l0 6.81 1.87 0 0 -6.81c0,-1.75 0,-2.95 0.79,-3.69 0.4,-0.38 1.02,-0.62 1.73,-0.62 0.72,0 1.33,0.24 1.73,0.62 0.8,0.74 0.8,1.94 0.8,3.69l0 6.81 1.86 0 0 -6.81c0,-1.99 0,-3.64 -1.33,-4.92 -0.71,-0.69 -1.81,-1.14 -3.06,-1.14 -1.51,0 -2.74,0.66 -3.45,1.86 -0.72,-1.2 -1.95,-1.86 -3.46,-1.86z"/>
  <path id="_12_28" class="fil20" d="M1037.5 440.53l0 -1.96c0,-1.41 0,-2.98 -1.07,-4.18 -0.79,-0.91 -1.99,-1.41 -3.59,-1.41 -1.43,0 -2.79,0.32 -4.04,0.77l0.58 1.68c1.12,-0.43 2.29,-0.7 3.46,-0.7 1.01,0 1.71,0.27 2.16,0.78 0.64,0.71 0.64,1.78 0.64,2.6l-2.18 0c-1.04,0 -2.53,0 -3.78,0.91 -0.85,0.61 -1.57,1.65 -1.57,3.06 0,1.38 0.72,2.44 1.59,3.06 0.86,0.61 1.95,0.87 3.22,0.87 1.6,0 2.85,-0.45 3.65,-1.38 0.93,-1.09 0.93,-2.31 0.93,-4.1zm-1.86 0c0,1.57 0,2.4 -0.51,2.98 -0.45,0.54 -1.22,0.75 -2.21,0.75 -0.85,0 -1.59,-0.16 -2.1,-0.51 -0.48,-0.34 -0.85,-0.93 -0.85,-1.67 0,-0.83 0.4,-1.44 0.88,-1.79 0.74,-0.53 1.7,-0.53 2.61,-0.53l2.18 0 0 0.77z"/>
  <path id="_13_29" class="fil20" d="M1048.01 433.86c-1.2,-0.56 -2.53,-0.88 -3.89,-0.88 -1.09,0 -2.02,0.24 -2.79,0.77 -0.77,0.53 -1.44,1.46 -1.44,2.69 0,1.14 0.62,2.1 1.41,2.71 0.8,0.61 1.76,0.85 2.61,1.04 0.85,0.18 1.52,0.34 2.1,0.77 0.43,0.32 0.75,0.82 0.75,1.44 0,0.45 -0.19,0.98 -0.69,1.35 -0.51,0.38 -1.18,0.51 -1.95,0.51 -1.22,0 -2.44,-0.27 -3.54,-0.77l-0.74 1.59c1.36,0.64 2.85,0.93 4.28,0.93 1.23,0 2.24,-0.26 3.06,-0.85 0.83,-0.58 1.44,-1.57 1.44,-2.76 0,-1.33 -0.75,-2.32 -1.57,-2.9 -0.75,-0.54 -1.62,-0.77 -2.58,-0.99 -0.96,-0.21 -1.52,-0.34 -2.05,-0.77 -0.37,-0.29 -0.66,-0.74 -0.66,-1.3 0,-0.59 0.31,-1.07 0.77,-1.33 0.45,-0.27 0.93,-0.38 1.59,-0.38 1.07,0 2.18,0.27 3.2,0.75l0.69 -1.62z"/>
  <path class="fil21" d="M1089.38 313.9c6.08,0 11.01,4.93 11.01,11.02 0,6.08 -4.93,11 -11.01,11 -6.08,0 -11,-4.92 -11,-11 0,-6.09 4.92,-11.02 11,-11.02l0 0z"/>
  <path class="fil12" d="M894.25 237.26c6.08,0 11.01,4.92 11.01,11.01 0,6.08 -4.93,11.01 -11.01,11.01 -6.08,0 -11.01,-4.93 -11.01,-11.01 0,-6.09 4.93,-11.01 11.01,-11.01l0 0z"/>
  <path class="fil11" d="M530.67 245.04c6.08,0 11.01,4.93 11.01,11.01 0,6.08 -4.93,11.01 -11.01,11.01 -6.08,0 -11,-4.93 -11,-11.01 0,-6.08 4.92,-11.01 11,-11.01l0 0z"/>
  <path class="fil10" d="M1120.38 310.11c-1.91,0 -3.24,0.79 -4.04,1.82 -1.1,1.44 -1.1,2.97 -1.1,5.91 0,2.94 0,4.47 1.1,5.9 0.8,1.03 2.13,1.83 4.04,1.83 1.57,0 3.1,-0.55 4.24,-1.55l-1.03 -1.26c-0.84,0.78 -2.03,1.21 -3.21,1.21 -1.18,0 -2.1,-0.43 -2.65,-1.14 -0.8,-1.05 -0.8,-2.14 -0.8,-4.99 0,-2.85 0,-3.95 0.8,-5 0.55,-0.7 1.47,-1.14 2.65,-1.14 1.09,0 2.18,0.39 3.01,1.07l0.98 -1.27c-1.12,-0.91 -2.58,-1.39 -3.99,-1.39z"/>
  <path id="_1_30" class="fil10" d="M1133.33 310.22l-1.78 0 -1.71 2.74 1.5 0 1.99 -2.74zm-2.67 5.68c1,0 1.78,0.41 2.23,1.09 0.5,0.76 0.5,1.83 0.5,2.99 0,1.16 0,2.23 -0.5,2.99 -0.45,0.68 -1.23,1.09 -2.23,1.09 -1,0 -1.78,-0.41 -2.24,-1.09 -0.5,-0.76 -0.5,-1.83 -0.5,-2.99 0,-1.16 0,-2.23 0.5,-2.99 0.46,-0.68 1.24,-1.09 2.24,-1.09zm0 -1.51c-1.62,0 -2.94,0.73 -3.67,1.94 -0.66,1.1 -0.66,2.35 -0.66,3.65 0,1.3 0,2.55 0.66,3.65 0.73,1.21 2.05,1.94 3.67,1.94 1.62,0 2.94,-0.73 3.67,-1.94 0.66,-1.1 0.66,-2.35 0.66,-3.65 0,-1.3 0,-2.55 -0.66,-3.65 -0.73,-1.21 -2.05,-1.94 -3.67,-1.94z"/>
  <path id="_2_31" class="fil10" d="M1141.15 314.39c-1.35,0 -2.42,0.55 -3.08,1.35 -1.03,1.23 -1.03,2.74 -1.03,4.29 0,1.39 0,2.98 1.28,4.28 0.71,0.71 1.8,1.26 3.17,1.26 1.44,0 2.58,-0.62 3.22,-1.51 0.77,-1.07 0.77,-2.21 0.77,-3.92l0 -9.92 -1.6 0 0 5.56c-0.61,-0.86 -1.61,-1.39 -2.73,-1.39zm2.73 6.05c0,1.21 0,2.19 -0.54,2.85 -0.46,0.54 -1.14,0.77 -1.85,0.77 -0.77,0 -1.55,-0.27 -2.05,-0.82 -0.8,-0.87 -0.8,-2.05 -0.8,-3.21 0,-1.28 0,-2.54 0.68,-3.33 0.41,-0.48 1.08,-0.8 1.94,-0.8 0.87,0 1.53,0.32 1.94,0.8 0.68,0.79 0.68,2.05 0.68,3.74z"/>
  <path id="_3_32" class="fil10" d="M1149.02 310.63c-0.62,0 -1.08,0.43 -1.08,1.07 0,0.64 0.46,1.07 1.08,1.07 0.61,0 1.07,-0.43 1.07,-1.07 0,-0.64 -0.46,-1.07 -1.07,-1.07zm-0.8 14.8l1.59 0 0 -10.9 -1.59 0 0 10.9z"/>
  <path id="_4_33" class="fil10" d="M1156.59 315.9c0.82,0 1.59,0.3 2.03,0.82 0.54,0.64 0.54,1.6 0.54,2.8 0,1.69 0,2.95 -0.68,3.74 -0.41,0.48 -1.07,0.8 -1.94,0.8 -0.87,0 -1.53,-0.32 -1.94,-0.8 -0.68,-0.79 -0.68,-2.05 -0.68,-3.33 0,-1.29 0,-2.46 0.73,-3.28 0.41,-0.45 1.09,-0.75 1.94,-0.75zm0 -1.51c-1.37,0 -2.47,0.53 -3.17,1.3 -1.1,1.23 -1.1,2.83 -1.1,4.24 0,1.56 0,3.06 1.03,4.29 0.66,0.8 1.73,1.35 3.08,1.35 1.11,0 2.12,-0.53 2.73,-1.39l0 0.22c0,1.39 0,2.22 -0.54,2.9 -0.44,0.55 -1.19,0.93 -2.31,0.93 -0.96,0 -1.91,-0.27 -2.67,-0.68l-0.66 1.37c1.01,0.55 2.22,0.82 3.33,0.82 1.51,0 2.67,-0.52 3.4,-1.32 1.05,-1.14 1.05,-2.4 1.05,-4.02l0 -4.65c0,-1.84 0,-2.92 -0.91,-3.99 -0.89,-1.05 -2.21,-1.37 -3.26,-1.37z"/>
  <path id="_5_34" class="fil10" d="M1167.37 315.9c1.01,0 1.78,0.41 2.24,1.09 0.5,0.76 0.5,1.83 0.5,2.99 0,1.16 0,2.23 -0.5,2.99 -0.46,0.68 -1.23,1.09 -2.24,1.09 -1,0 -1.78,-0.41 -2.23,-1.09 -0.5,-0.76 -0.5,-1.83 -0.5,-2.99 0,-1.16 0,-2.23 0.5,-2.99 0.45,-0.68 1.23,-1.09 2.23,-1.09zm0 -1.51c-1.62,0 -2.94,0.73 -3.67,1.94 -0.66,1.1 -0.66,2.35 -0.66,3.65 0,1.3 0,2.55 0.66,3.65 0.73,1.21 2.05,1.94 3.67,1.94 1.62,0 2.94,-0.73 3.67,-1.94 0.66,-1.1 0.66,-2.35 0.66,-3.65 0,-1.3 0,-2.55 -0.66,-3.65 -0.73,-1.21 -2.05,-1.94 -3.67,-1.94z"/>
  <path id="_6_35" class="fil10" d="M1183.56 314.39c-1.34,0 -2.41,0.55 -3.08,1.35 -1.02,1.23 -1.02,2.74 -1.02,4.29 0,1.39 0,2.98 1.27,4.28 0.71,0.71 1.81,1.26 3.17,1.26 1.44,0 2.58,-0.62 3.22,-1.51 0.77,-1.07 0.77,-2.21 0.77,-3.92l0 -9.92 -1.59 0 0 5.56c-0.62,-0.86 -1.62,-1.39 -2.74,-1.39zm2.74 6.05c0,1.21 0,2.19 -0.55,2.85 -0.45,0.54 -1.14,0.77 -1.85,0.77 -0.77,0 -1.55,-0.27 -2.05,-0.82 -0.8,-0.87 -0.8,-2.05 -0.8,-3.21 0,-1.28 0,-2.54 0.69,-3.33 0.41,-0.48 1.07,-0.8 1.94,-0.8 0.86,0 1.52,0.32 1.93,0.8 0.69,0.79 0.69,2.05 0.69,3.74z"/>
  <path id="_7_36" class="fil10" d="M1192.32 323.1c-0.53,-0.7 -0.53,-2.05 -0.53,-2.64l2.1 0c1.62,0 2.6,0 3.56,-0.69 0.64,-0.45 1.14,-1.23 1.14,-2.23 -0.02,-0.89 -0.46,-1.73 -1.14,-2.3 -0.68,-0.55 -1.6,-0.85 -2.74,-0.85 -1.62,0 -2.98,0.6 -3.71,1.62 -0.82,1.14 -0.82,2.19 -0.82,3.97 0,1.48 0,2.85 0.86,4.04 0.73,0.98 1.99,1.55 3.56,1.55 1.18,0 2.37,-0.25 3.44,-0.8l-0.66 -1.37c-0.82,0.43 -1.8,0.66 -2.78,0.66 -1.1,0 -1.83,-0.34 -2.28,-0.96zm4.67 -5.56c0,0.52 -0.25,0.91 -0.54,1.14 -0.48,0.37 -1.12,0.37 -2.56,0.37l-2.1 0c0,-0.46 0,-1.6 0.57,-2.26 0.51,-0.59 1.33,-0.89 2.35,-0.89 0.71,0 1.3,0.16 1.69,0.48 0.34,0.27 0.57,0.73 0.59,1.16z"/>
  <path id="_8_37" class="fil10" d="M1210.45 314.39c-1.39,0 -2.37,0.6 -2.92,1.17 -1.07,1.11 -1.07,2.44 -1.07,4.03l0 5.84 1.59 0 0 -5.84c0,-1.41 0,-2.37 0.66,-3.03 0.39,-0.39 0.98,-0.66 1.74,-0.66 0.75,0 1.34,0.27 1.73,0.66 0.66,0.66 0.66,1.62 0.66,3.03l0 5.84 1.6 0 0 -5.84c0,-1.59 0,-2.92 -1.07,-4.03 -0.55,-0.57 -1.53,-1.17 -2.92,-1.17z"/>
  <path id="_9_38" class="fil10" d="M1221.05 315.9c1,0 1.78,0.41 2.23,1.09 0.51,0.76 0.51,1.83 0.51,2.99 0,1.16 0,2.23 -0.51,2.99 -0.45,0.68 -1.23,1.09 -2.23,1.09 -1,0 -1.78,-0.41 -2.23,-1.09 -0.51,-0.76 -0.51,-1.83 -0.51,-2.99 0,-1.16 0,-2.23 0.51,-2.99 0.45,-0.68 1.23,-1.09 2.23,-1.09zm0 -1.51c-1.62,0 -2.94,0.73 -3.67,1.94 -0.66,1.1 -0.66,2.35 -0.66,3.65 0,1.3 0,2.55 0.66,3.65 0.73,1.21 2.05,1.94 3.67,1.94 1.62,0 2.94,-0.73 3.67,-1.94 0.66,-1.1 0.66,-2.35 0.66,-3.65 0,-1.3 0,-2.55 -0.66,-3.65 -0.73,-1.21 -2.05,-1.94 -3.67,-1.94z"/>
  <path id="_10_39" class="fil10" d="M1231.84 314.39c-1.05,0 -2.38,0.32 -3.26,1.37 -0.92,1.07 -0.92,2.15 -0.92,3.99l0 5.68 1.6 0 0 -5.68c0,-1.43 0,-2.39 0.55,-3.03 0.43,-0.52 1.21,-0.82 2.03,-0.82 0.38,0 0.75,0.07 1.07,0.18l0.48 -1.44c-0.46,-0.16 -0.98,-0.25 -1.55,-0.25z"/>
  <path id="_11_40" class="fil10" d="M1238.68 314.39c-1.07,0 -2.01,0.39 -2.63,0.98 -1.14,1.1 -1.14,2.51 -1.14,4.22l0 5.84 1.6 0 0 -5.84c0,-1.5 0,-2.53 0.69,-3.17 0.34,-0.32 0.86,-0.52 1.48,-0.52 0.61,0 1.14,0.2 1.48,0.52 0.68,0.64 0.68,1.67 0.68,3.17l0 5.84 1.6 0 0 -5.84c0,-1.5 0,-2.53 0.68,-3.17 0.35,-0.32 0.87,-0.52 1.49,-0.52 0.61,0 1.14,0.2 1.48,0.52 0.68,0.64 0.68,1.67 0.68,3.17l0 5.84 1.6 0 0 -5.84c0,-1.71 0,-3.12 -1.14,-4.22 -0.62,-0.59 -1.55,-0.98 -2.62,-0.98 -1.3,0 -2.35,0.57 -2.97,1.6 -0.61,-1.03 -1.66,-1.6 -2.96,-1.6z"/>
  <path id="_12_41" class="fil10" d="M1258.47 320.87l0 -1.69c0,-1.21 0,-2.55 -0.91,-3.58 -0.69,-0.77 -1.71,-1.21 -3.08,-1.21 -1.23,0 -2.39,0.28 -3.47,0.66l0.51 1.44c0.95,-0.36 1.96,-0.59 2.96,-0.59 0.87,0 1.46,0.23 1.85,0.66 0.54,0.62 0.54,1.53 0.54,2.23l-1.87 0c-0.89,0 -2.16,0 -3.23,0.78 -0.73,0.52 -1.35,1.41 -1.35,2.62 0,1.19 0.62,2.1 1.37,2.62 0.73,0.53 1.66,0.76 2.76,0.76 1.37,0 2.44,-0.39 3.12,-1.19 0.8,-0.93 0.8,-1.98 0.8,-3.51zm-1.6 0c0,1.34 0,2.05 -0.43,2.55 -0.39,0.46 -1.05,0.64 -1.89,0.64 -0.73,0 -1.37,-0.13 -1.8,-0.43 -0.41,-0.3 -0.73,-0.8 -0.73,-1.44 0,-0.7 0.34,-1.23 0.75,-1.53 0.64,-0.45 1.46,-0.45 2.23,-0.45l1.87 0 0 0.66z"/>
  <path id="_13_42" class="fil10" d="M1267.48 315.15c-1.03,-0.48 -2.17,-0.76 -3.33,-0.76 -0.94,0 -1.74,0.21 -2.4,0.66 -0.66,0.46 -1.23,1.26 -1.23,2.31 0,0.98 0.53,1.8 1.21,2.32 0.68,0.53 1.51,0.73 2.24,0.89 0.72,0.16 1.3,0.3 1.8,0.66 0.36,0.28 0.64,0.71 0.64,1.24 0,0.38 -0.16,0.84 -0.6,1.16 -0.43,0.32 -1,0.43 -1.66,0.43 -1.05,0 -2.1,-0.23 -3.03,-0.66l-0.64 1.37c1.16,0.55 2.44,0.8 3.67,0.8 1.05,0 1.91,-0.23 2.62,-0.73 0.71,-0.5 1.23,-1.35 1.23,-2.37 0,-1.14 -0.64,-1.99 -1.34,-2.49 -0.64,-0.46 -1.39,-0.66 -2.22,-0.84 -0.82,-0.19 -1.3,-0.3 -1.75,-0.66 -0.32,-0.26 -0.57,-0.64 -0.57,-1.12 0,-0.5 0.27,-0.91 0.66,-1.14 0.39,-0.23 0.8,-0.32 1.37,-0.32 0.91,0 1.87,0.23 2.73,0.64l0.6 -1.39z"/>
  <path id="_14_43" class="fil10" d="M1121.63 339.64c-1.03,-0.48 -2.17,-0.76 -3.33,-0.76 -0.93,0 -1.73,0.21 -2.39,0.67 -0.67,0.45 -1.24,1.25 -1.24,2.3 0,0.98 0.53,1.8 1.21,2.32 0.69,0.53 1.51,0.73 2.24,0.89 0.73,0.16 1.3,0.3 1.8,0.67 0.36,0.27 0.64,0.7 0.64,1.23 0,0.38 -0.16,0.84 -0.6,1.16 -0.43,0.32 -1,0.43 -1.66,0.43 -1.05,0 -2.1,-0.23 -3.03,-0.66l-0.64 1.37c1.16,0.55 2.44,0.8 3.67,0.8 1.05,0 1.92,-0.23 2.62,-0.73 0.71,-0.5 1.23,-1.35 1.23,-2.37 0,-1.14 -0.64,-1.99 -1.34,-2.49 -0.64,-0.46 -1.39,-0.66 -2.21,-0.84 -0.82,-0.19 -1.3,-0.3 -1.76,-0.66 -0.32,-0.25 -0.57,-0.64 -0.57,-1.12 0,-0.5 0.27,-0.91 0.66,-1.14 0.39,-0.23 0.8,-0.32 1.37,-0.32 0.91,0 1.87,0.23 2.74,0.64l0.59 -1.39z"/>
  <path id="_15_44" class="fil10" d="M1126.01 347.59c-0.53,-0.7 -0.53,-2.05 -0.53,-2.64l2.1 0c1.62,0 2.6,0 3.56,-0.68 0.64,-0.46 1.14,-1.24 1.14,-2.24 -0.02,-0.89 -0.46,-1.73 -1.14,-2.3 -0.69,-0.55 -1.6,-0.85 -2.74,-0.85 -1.62,0 -2.99,0.6 -3.72,1.62 -0.82,1.14 -0.82,2.19 -0.82,3.97 0,1.48 0,2.85 0.87,4.04 0.73,0.98 1.98,1.55 3.56,1.55 1.18,0 2.37,-0.25 3.44,-0.8l-0.66 -1.37c-0.82,0.43 -1.8,0.66 -2.78,0.66 -1.1,0 -1.83,-0.34 -2.28,-0.96zm4.67 -5.56c0,0.53 -0.25,0.91 -0.55,1.14 -0.47,0.37 -1.11,0.37 -2.55,0.37l-2.1 0c0,-0.46 0,-1.6 0.57,-2.26 0.5,-0.59 1.33,-0.89 2.35,-0.89 0.71,0 1.3,0.16 1.69,0.48 0.34,0.27 0.57,0.73 0.59,1.16z"/>
  <path id="_16_45" class="fil10" d="M1137.11 352.84l-0.36 1.14c0.43,0.18 0.89,0.25 1.3,0.25 0.77,0 1.43,-0.25 1.84,-0.59 0.37,-0.32 0.71,-0.82 0.71,-1.46 0,-0.46 -0.18,-0.87 -0.52,-1.12 -0.44,-0.3 -0.8,-0.3 -1.28,-0.3l0.22 -0.72c1,-0.08 1.98,-0.41 2.81,-0.96l-0.82 -1.28c-0.73,0.5 -1.59,0.75 -2.46,0.75 -0.89,0 -1.57,-0.29 -2.01,-0.8 -0.73,-0.84 -0.73,-2.21 -0.73,-3.37 0,-1 0,-2.35 0.71,-3.17 0.55,-0.64 1.32,-0.82 2.03,-0.82 0.82,0 1.66,0.25 2.35,0.68l0.77 -1.3c-0.93,-0.59 -2.03,-0.89 -3.12,-0.89 -1.46,0 -2.56,0.55 -3.26,1.37 -1.07,1.23 -1.07,2.94 -1.07,4.13 0,1.35 0,3.1 1.09,4.33 0.62,0.7 1.51,1.21 2.7,1.32l-0.46 1.49 0.84 0c0.2,0 0.39,0 0.57,0.09 0.25,0.14 0.36,0.36 0.36,0.59 0,0.3 -0.18,0.53 -0.45,0.68 -0.32,0.16 -0.62,0.16 -0.82,0.16 -0.28,0 -0.62,-0.06 -0.94,-0.2z"/>
  <path id="_17_46" class="fil10" d="M1149.08 337.38c1.12,0 2.01,-0.82 2.01,-1.92l-1.28 0c0,0.44 -0.32,0.73 -0.73,0.73 -0.41,0 -0.73,-0.2 -1.07,-0.36 -0.43,-0.23 -0.98,-0.5 -1.66,-0.5 -1.12,0 -2.01,0.82 -2.01,1.91l1.28 0c0,-0.43 0.32,-0.73 0.73,-0.73 0.41,0 0.73,0.21 1.07,0.37 0.43,0.23 1,0.5 1.66,0.5zm2.51 7.98l0 -1.69c0,-1.21 0,-2.55 -0.91,-3.58 -0.68,-0.77 -1.71,-1.21 -3.08,-1.21 -1.23,0 -2.39,0.28 -3.46,0.67l0.5 1.43c0.96,-0.36 1.96,-0.59 2.96,-0.59 0.87,0 1.46,0.23 1.85,0.66 0.55,0.62 0.55,1.53 0.55,2.23l-1.87 0c-0.89,0 -2.17,0 -3.24,0.78 -0.73,0.52 -1.35,1.41 -1.35,2.62 0,1.19 0.62,2.1 1.37,2.62 0.73,0.53 1.67,0.76 2.76,0.76 1.37,0 2.44,-0.39 3.12,-1.19 0.8,-0.93 0.8,-1.98 0.8,-3.51zm-1.59 0c0,1.35 0,2.05 -0.44,2.55 -0.38,0.46 -1.05,0.64 -1.89,0.64 -0.73,0 -1.37,-0.13 -1.8,-0.43 -0.41,-0.3 -0.73,-0.8 -0.73,-1.44 0,-0.7 0.34,-1.23 0.75,-1.53 0.64,-0.45 1.46,-0.45 2.24,-0.45l1.87 0 0 0.66z"/>
  <path id="_18_47" class="fil10" d="M1158.09 340.39c1,0 1.78,0.41 2.24,1.09 0.5,0.76 0.5,1.83 0.5,2.99 0,1.16 0,2.24 -0.5,2.99 -0.46,0.68 -1.24,1.09 -2.24,1.09 -1,0 -1.78,-0.41 -2.23,-1.09 -0.51,-0.75 -0.51,-1.83 -0.51,-2.99 0,-1.16 0,-2.23 0.51,-2.99 0.45,-0.68 1.23,-1.09 2.23,-1.09zm0 -1.51c-1.62,0 -2.94,0.73 -3.67,1.94 -0.66,1.1 -0.66,2.35 -0.66,3.65 0,1.3 0,2.55 0.66,3.65 0.73,1.21 2.05,1.94 3.67,1.94 1.62,0 2.94,-0.73 3.67,-1.94 0.66,-1.1 0.66,-2.35 0.66,-3.65 0,-1.3 0,-2.55 -0.66,-3.65 -0.73,-1.21 -2.05,-1.94 -3.67,-1.94z"/>
  <path id="_19" class="fil10" d="M1175.24 336.19c0.68,0 1.64,0.21 2.23,0.94 0.69,0.84 0.69,1.89 0.69,3.56l0 3.28c0,1.66 0,2.71 -0.69,3.56 -0.59,0.73 -1.55,0.93 -2.23,0.93 -0.68,0 -1.64,-0.2 -2.24,-0.93 -0.68,-0.85 -0.68,-1.9 -0.68,-3.56l0 -3.28c0,-1.67 0,-2.72 0.68,-3.56 0.6,-0.73 1.56,-0.94 2.24,-0.94zm0 -1.59c-1.3,0 -2.69,0.45 -3.6,1.59 -1.01,1.26 -1.01,2.69 -1.01,4.5l0 3.28c0,1.8 0,3.24 1.01,4.49 0.91,1.14 2.3,1.6 3.6,1.6 1.3,0 2.69,-0.46 3.6,-1.6 1.01,-1.25 1.01,-2.69 1.01,-4.49l0 -3.28c0,-1.81 0,-3.24 -1.01,-4.5 -0.91,-1.14 -2.3,-1.59 -3.6,-1.59z"/>
  <path id="_20" class="fil10" d="M1186.03 334.6c-1.12,0 -2.51,0.29 -3.63,1.16l1 1.28c0.71,-0.57 1.69,-0.85 2.63,-0.85 0.82,0 1.48,0.19 1.98,0.6 0.59,0.47 0.89,1.25 0.89,1.96 0,1.11 -0.53,1.71 -1.67,2.87l-3.46 3.49c-1.01,1 -1.67,1.69 -1.67,2.71 0,0.87 0.5,1.51 1.14,1.83 0.55,0.27 1.05,0.27 1.94,0.27l5.84 0 0 -1.6 -5.61 0c-0.98,0 -1.21,0 -1.37,-0.09 -0.14,-0.07 -0.25,-0.2 -0.25,-0.41 0,-0.45 0.34,-0.75 1.21,-1.62l3.46 -3.48c1.28,-1.28 2.13,-2.26 2.13,-3.97 0,-1.33 -0.64,-2.53 -1.53,-3.22 -0.78,-0.59 -1.74,-0.93 -3.03,-0.93z"/>
  <polygon id="_21" class="fil10" points="1199.57,334.71 1199.57,349.92 1201.17,349.92 1201.17,334.71 "/>
  <path id="_22" class="fil10" d="M1204.93 335.12c-0.62,0 -1.07,0.43 -1.07,1.07 0,0.64 0.45,1.07 1.07,1.07 0.61,0 1.07,-0.43 1.07,-1.07 0,-0.64 -0.46,-1.07 -1.07,-1.07zm-0.8 14.8l1.6 0 0 -10.9 -1.6 0 0 10.9z"/>
  <path id="_23" class="fil10" d="M1209.19 339.02l-1.64 0 2.03 8.37c0.25,1.05 0.37,1.64 1,2.17 0.37,0.29 0.87,0.5 1.44,0.5 0.57,0 1.07,-0.21 1.44,-0.5 0.64,-0.53 0.75,-1.12 1,-2.17l2.03 -8.37 -1.64 0 -1.99 8.21c-0.13,0.59 -0.22,0.93 -0.36,1.09 -0.11,0.14 -0.3,0.23 -0.48,0.23 -0.18,0 -0.36,-0.09 -0.48,-0.23 -0.14,-0.16 -0.23,-0.5 -0.36,-1.09l-1.99 -8.21z"/>
  <path id="_24" class="fil10" d="M1221.8 338.88c-1.05,0 -2.37,0.32 -3.26,1.37 -0.91,1.07 -0.91,2.15 -0.91,3.99l0 5.68 1.6 0 0 -5.68c0,-1.43 0,-2.39 0.54,-3.03 0.44,-0.52 1.21,-0.82 2.03,-0.82 0.39,0 0.75,0.07 1.07,0.18l0.48 -1.44c-0.45,-0.15 -0.98,-0.25 -1.55,-0.25z"/>
  <path id="_25" class="fil10" d="M1228.99 340.39c1,0 1.77,0.41 2.23,1.09 0.5,0.76 0.5,1.83 0.5,2.99 0,1.16 0,2.24 -0.5,2.99 -0.46,0.68 -1.23,1.09 -2.23,1.09 -1.01,0 -1.78,-0.41 -2.24,-1.09 -0.5,-0.75 -0.5,-1.83 -0.5,-2.99 0,-1.16 0,-2.23 0.5,-2.99 0.46,-0.68 1.23,-1.09 2.24,-1.09zm0 -1.51c-1.62,0 -2.95,0.73 -3.68,1.94 -0.66,1.1 -0.66,2.35 -0.66,3.65 0,1.3 0,2.55 0.66,3.65 0.73,1.21 2.06,1.94 3.68,1.94 1.61,0 2.94,-0.73 3.67,-1.94 0.66,-1.1 0.66,-2.35 0.66,-3.65 0,-1.3 0,-2.55 -0.66,-3.65 -0.73,-1.21 -2.06,-1.94 -3.67,-1.94z"/>
  <path id="_26" class="fil10" d="M1242.21 339.64c-1.02,-0.48 -2.16,-0.76 -3.33,-0.76 -0.93,0 -1.73,0.21 -2.39,0.67 -0.66,0.45 -1.23,1.25 -1.23,2.3 0,0.98 0.52,1.8 1.21,2.32 0.68,0.53 1.5,0.73 2.23,0.89 0.73,0.16 1.3,0.3 1.8,0.67 0.37,0.27 0.64,0.7 0.64,1.23 0,0.38 -0.16,0.84 -0.59,1.16 -0.44,0.32 -1.01,0.43 -1.67,0.43 -1.05,0 -2.1,-0.23 -3.03,-0.66l-0.64 1.37c1.16,0.55 2.44,0.8 3.67,0.8 1.05,0 1.92,-0.23 2.62,-0.73 0.71,-0.5 1.24,-1.35 1.24,-2.37 0,-1.14 -0.64,-1.99 -1.35,-2.49 -0.64,-0.46 -1.39,-0.66 -2.21,-0.84 -0.82,-0.19 -1.3,-0.3 -1.76,-0.66 -0.32,-0.25 -0.57,-0.64 -0.57,-1.12 0,-0.5 0.28,-0.91 0.66,-1.14 0.39,-0.23 0.8,-0.32 1.37,-0.32 0.91,0 1.87,0.23 2.74,0.64l0.59 -1.39z"/>
  <path id="_27" class="fil10" d="M1252.52 347.59c-0.53,-0.7 -0.53,-2.05 -0.53,-2.64l2.1 0c1.62,0 2.6,0 3.56,-0.68 0.64,-0.46 1.14,-1.24 1.14,-2.24 -0.02,-0.89 -0.46,-1.73 -1.14,-2.3 -0.69,-0.55 -1.6,-0.85 -2.74,-0.85 -1.62,0 -2.98,0.6 -3.71,1.62 -0.83,1.14 -0.83,2.19 -0.83,3.97 0,1.48 0,2.85 0.87,4.04 0.73,0.98 1.99,1.55 3.56,1.55 1.18,0 2.37,-0.25 3.44,-0.8l-0.66 -1.37c-0.82,0.43 -1.8,0.66 -2.78,0.66 -1.1,0 -1.83,-0.34 -2.28,-0.96zm4.67 -5.56c0,0.53 -0.25,0.91 -0.54,1.14 -0.48,0.37 -1.12,0.37 -2.56,0.37l-2.1 0c0,-0.46 0,-1.6 0.57,-2.26 0.51,-0.59 1.33,-0.89 2.35,-0.89 0.71,0 1.3,0.16 1.69,0.48 0.34,0.27 0.57,0.73 0.59,1.16z"/>
  <path id="_28" class="fil10" d="M1122.61 369.85l0 -1.69c0,-1.21 0,-2.55 -0.91,-3.58 -0.69,-0.77 -1.71,-1.21 -3.08,-1.21 -1.23,0 -2.4,0.28 -3.47,0.67l0.5 1.43c0.96,-0.36 1.97,-0.59 2.97,-0.59 0.87,0 1.46,0.23 1.85,0.66 0.54,0.62 0.54,1.53 0.54,2.24l-1.87 0c-0.89,0 -2.16,0 -3.23,0.77 -0.73,0.53 -1.35,1.41 -1.35,2.62 0,1.19 0.62,2.1 1.37,2.63 0.73,0.52 1.66,0.75 2.76,0.75 1.37,0 2.44,-0.39 3.12,-1.19 0.8,-0.93 0.8,-1.98 0.8,-3.51zm-1.6 0c0,1.35 0,2.05 -0.43,2.55 -0.39,0.46 -1.05,0.64 -1.89,0.64 -0.73,0 -1.37,-0.13 -1.8,-0.43 -0.41,-0.3 -0.73,-0.8 -0.73,-1.44 0,-0.7 0.34,-1.23 0.75,-1.52 0.64,-0.46 1.46,-0.46 2.23,-0.46l1.87 0 0 0.66z"/>
  <path id="_29" class="fil10" d="M1129.18 363.37c-1.05,0 -2.37,0.32 -3.26,1.37 -0.92,1.07 -0.92,2.15 -0.92,3.99l0 5.68 1.6 0 0 -5.68c0,-1.43 0,-2.39 0.55,-3.03 0.43,-0.52 1.21,-0.82 2.03,-0.82 0.38,0 0.75,0.07 1.07,0.18l0.48 -1.43c-0.46,-0.16 -0.98,-0.26 -1.55,-0.26z"/>
  <path id="_30" class="fil10" d="M1136.29 364.88c0.82,0 1.6,0.3 2.03,0.82 0.55,0.64 0.55,1.6 0.55,2.81 0,1.68 0,2.94 -0.69,3.73 -0.41,0.48 -1.07,0.8 -1.93,0.8 -0.87,0 -1.53,-0.32 -1.94,-0.8 -0.69,-0.79 -0.69,-2.05 -0.69,-3.32 0,-1.3 0,-2.47 0.73,-3.29 0.41,-0.45 1.1,-0.75 1.94,-0.75zm0 -1.51c-1.37,0 -2.46,0.53 -3.17,1.3 -1.09,1.24 -1.09,2.83 -1.09,4.25 0,1.55 0,3.05 1.02,4.28 0.66,0.8 1.74,1.35 3.08,1.35 1.12,0 2.12,-0.53 2.74,-1.39l0 5.42 1.59 0 0 -9.85c0,-1.84 0,-2.92 -0.91,-3.99 -0.89,-1.05 -2.21,-1.37 -3.26,-1.37z"/>
  <path id="_31" class="fil10" d="M1142.97 363.51l0 5.84c0,1.59 0,2.92 1.07,4.03 0.55,0.57 1.53,1.17 2.92,1.17 1.39,0 2.37,-0.6 2.92,-1.17 1.07,-1.11 1.07,-2.44 1.07,-4.03l0 -5.84 -1.59 0 0 5.84c0,1.41 0,2.37 -0.66,3.03 -0.39,0.39 -0.98,0.66 -1.74,0.66 -0.75,0 -1.34,-0.27 -1.73,-0.66 -0.66,-0.66 -0.66,-1.62 -0.66,-3.03l0 -5.84 -1.6 0z"/>
  <path id="_32" class="fil10" d="M1154.49 359.61c-0.62,0 -1.07,0.44 -1.07,1.07 0,0.64 0.45,1.08 1.07,1.08 0.61,0 1.07,-0.44 1.07,-1.08 0,-0.63 -0.46,-1.07 -1.07,-1.07zm-0.8 14.8l1.6 0 0 -10.9 -1.6 0 0 10.9z"/>
  <path id="_33" class="fil10" d="M1158.75 363.51l-1.64 0 2.03 8.37c0.25,1.05 0.37,1.64 1,2.17 0.37,0.29 0.87,0.5 1.44,0.5 0.57,0 1.07,-0.21 1.44,-0.5 0.64,-0.53 0.75,-1.12 1,-2.17l2.03 -8.37 -1.64 0 -1.99 8.21c-0.13,0.59 -0.22,0.94 -0.36,1.1 -0.11,0.13 -0.3,0.22 -0.48,0.22 -0.18,0 -0.36,-0.09 -0.48,-0.22 -0.14,-0.16 -0.23,-0.51 -0.36,-1.1l-1.99 -8.21z"/>
  <path id="_34" class="fil10" d="M1171.52 364.88c1.01,0 1.78,0.41 2.24,1.09 0.5,0.76 0.5,1.83 0.5,2.99 0,1.16 0,2.24 -0.5,2.99 -0.46,0.68 -1.23,1.09 -2.24,1.09 -1,0 -1.78,-0.41 -2.23,-1.09 -0.5,-0.75 -0.5,-1.83 -0.5,-2.99 0,-1.16 0,-2.23 0.5,-2.99 0.45,-0.68 1.23,-1.09 2.23,-1.09zm0 -1.51c-1.62,0 -2.94,0.73 -3.67,1.94 -0.66,1.1 -0.66,2.35 -0.66,3.65 0,1.3 0,2.56 0.66,3.65 0.73,1.21 2.05,1.94 3.67,1.94 1.62,0 2.94,-0.73 3.67,-1.94 0.66,-1.09 0.66,-2.35 0.66,-3.65 0,-1.3 0,-2.55 -0.66,-3.65 -0.73,-1.21 -2.05,-1.94 -3.67,-1.94z"/>
  <path id="_35" class="fil10" d="M1184.75 364.13c-1.03,-0.48 -2.17,-0.76 -3.33,-0.76 -0.94,0 -1.73,0.21 -2.4,0.67 -0.66,0.45 -1.23,1.25 -1.23,2.3 0,0.98 0.53,1.8 1.21,2.32 0.69,0.53 1.51,0.73 2.24,0.89 0.73,0.16 1.3,0.3 1.8,0.67 0.36,0.27 0.64,0.7 0.64,1.23 0,0.38 -0.16,0.84 -0.6,1.16 -0.43,0.32 -1,0.43 -1.66,0.43 -1.05,0 -2.1,-0.22 -3.03,-0.66l-0.64 1.37c1.16,0.55 2.44,0.8 3.67,0.8 1.05,0 1.91,-0.23 2.62,-0.73 0.71,-0.5 1.23,-1.35 1.23,-2.37 0,-1.14 -0.64,-1.99 -1.34,-2.49 -0.64,-0.45 -1.39,-0.66 -2.21,-0.84 -0.83,-0.19 -1.3,-0.3 -1.76,-0.66 -0.32,-0.25 -0.57,-0.64 -0.57,-1.12 0,-0.5 0.27,-0.91 0.66,-1.14 0.39,-0.23 0.8,-0.32 1.37,-0.32 0.91,0 1.87,0.23 2.73,0.64l0.6 -1.39z"/>
  <path id="_36" class="fil7" d="M1123 394.62l-2.61 -8.05 -2.62 8.05 5.23 0zm-3.45 -10.4l1.67 0 5.35 15.77 -1.82 0 -1.24 -3.81 -6.25 0 -1.24 3.81 -1.81 0 5.34 -15.77z"/>
  <path id="_37" class="fil7" d="M1130.46 389.21c0.81,-0.96 1.76,-1.45 2.84,-1.45 0.3,0 0.65,0.04 1.03,0.12l-0.25 1.47c-0.47,-0.06 -0.8,-0.09 -1,-0.09 -0.57,0 -1.06,0.13 -1.47,0.39 -0.42,0.27 -0.72,0.63 -0.9,1.08 -0.17,0.4 -0.25,1.1 -0.25,2.1l0 7.16 -1.67 0 0 -12.05 1.67 0 0 1.27z"/>
  <path id="_38" class="fil7" d="M1137.11 396.61l0 -7.29 -1.67 0 0 -1.38 1.67 0 0 -2.6 1.67 0 0 2.6 2.23 0 0 1.38 -2.23 0 0 7.29c0,0.81 0.03,1.29 0.1,1.45 0.17,0.41 0.49,0.61 0.96,0.61 0.38,0 0.81,-0.11 1.27,-0.35l0.64 1.38c-0.71,0.31 -1.38,0.47 -2.02,0.47 -0.63,0 -1.17,-0.16 -1.6,-0.46 -0.44,-0.3 -0.73,-0.74 -0.9,-1.3 -0.08,-0.28 -0.12,-0.88 -0.12,-1.8z"/>
  <path id="_39" class="fil7" d="M1144.15 398.06c0.23,-0.23 0.52,-0.34 0.89,-0.34 0.36,0 0.66,0.11 0.88,0.34 0.23,0.22 0.34,0.52 0.34,0.88 0,0.36 -0.11,0.66 -0.34,0.89 -0.22,0.22 -0.52,0.34 -0.88,0.34 -0.37,0 -0.66,-0.12 -0.89,-0.34 -0.22,-0.23 -0.34,-0.53 -0.34,-0.89 0,-0.36 0.12,-0.66 0.34,-0.88z"/>
  <path id="_40" class="fil7" d="M1160.09 384.01c1.33,0 2.42,0.42 3.27,1.25 0.85,0.84 1.28,1.89 1.28,3.15 0,0.6 -0.12,1.18 -0.34,1.72 -0.23,0.55 -0.58,1.15 -1.07,1.8l-4.9 6.5 6.77 0 0 1.56 -9.08 0 0 -1.2 5.75 -7.71c0.4,-0.52 0.68,-0.98 0.86,-1.37 0.18,-0.39 0.27,-0.82 0.27,-1.3 0,-0.83 -0.26,-1.51 -0.77,-2.04 -0.51,-0.53 -1.19,-0.8 -2.04,-0.8 -0.99,0 -1.94,0.43 -2.84,1.28l-1.13 -1.18c1.15,-1.11 2.48,-1.66 3.97,-1.66z"/>
  <polygon id="_41" class="fil7" points="1177.11,394.53 1177.11,396.09 1175.77,396.09 1175.77,399.99 1174.03,399.99 1174.03,396.09 1167.29,396.09 1167.29,394.97 1171.9,384.22 1173.65,384.22 1169.21,394.53 1174.03,394.53 1174.03,390.64 1175.77,390.64 1175.77,394.53 "/>
  <path id="_42" class="fil7" d="M1123 421.1l-2.61 -8.05 -2.62 8.05 5.23 0zm-3.45 -10.4l1.67 0 5.35 15.77 -1.82 0 -1.24 -3.81 -6.25 0 -1.24 3.81 -1.81 0 5.34 -15.77z"/>
  <path id="_43" class="fil7" d="M1130.46 415.69c0.81,-0.97 1.76,-1.45 2.84,-1.45 0.3,0 0.65,0.04 1.03,0.12l-0.25 1.47c-0.47,-0.06 -0.8,-0.1 -1,-0.1 -0.57,0 -1.06,0.14 -1.47,0.4 -0.42,0.27 -0.72,0.63 -0.9,1.08 -0.17,0.4 -0.25,1.09 -0.25,2.1l0 7.16 -1.67 0 0 -12.05 1.67 0 0 1.27z"/>
  <path id="_44" class="fil7" d="M1137.11 423.09l0 -7.29 -1.67 0 0 -1.38 1.67 0 0 -2.6 1.67 0 0 2.6 2.23 0 0 1.38 -2.23 0 0 7.29c0,0.8 0.03,1.29 0.1,1.45 0.17,0.41 0.49,0.61 0.96,0.61 0.38,0 0.81,-0.12 1.27,-0.36l0.64 1.39c-0.71,0.31 -1.38,0.47 -2.02,0.47 -0.63,0 -1.17,-0.16 -1.6,-0.46 -0.44,-0.3 -0.73,-0.74 -0.9,-1.3 -0.08,-0.29 -0.12,-0.88 -0.12,-1.8z"/>
  <path id="_45" class="fil7" d="M1144.15 424.54c0.23,-0.23 0.52,-0.35 0.89,-0.35 0.36,0 0.66,0.12 0.88,0.35 0.23,0.22 0.34,0.52 0.34,0.88 0,0.36 -0.11,0.66 -0.34,0.89 -0.22,0.22 -0.52,0.34 -0.88,0.34 -0.37,0 -0.66,-0.12 -0.89,-0.34 -0.22,-0.23 -0.34,-0.53 -0.34,-0.89 0,-0.36 0.12,-0.66 0.34,-0.88z"/>
  <path id="_46" class="fil7" d="M1160.09 410.49c1.33,0 2.42,0.42 3.27,1.25 0.85,0.84 1.28,1.88 1.28,3.15 0,0.6 -0.12,1.17 -0.34,1.72 -0.23,0.55 -0.58,1.15 -1.07,1.8l-4.9 6.5 6.77 0 0 1.56 -9.08 0 0 -1.2 5.75 -7.71c0.4,-0.53 0.68,-0.99 0.86,-1.37 0.18,-0.39 0.27,-0.82 0.27,-1.3 0,-0.84 -0.26,-1.52 -0.77,-2.04 -0.51,-0.54 -1.19,-0.8 -2.04,-0.8 -0.99,0 -1.94,0.42 -2.84,1.28l-1.13 -1.18c1.15,-1.11 2.48,-1.66 3.97,-1.66z"/>
  <path id="_47" class="fil7" d="M1174.58 418.94c-0.57,-0.63 -1.27,-0.94 -2.13,-0.94 -0.85,0 -1.56,0.31 -2.12,0.94 -0.57,0.63 -0.85,1.5 -0.85,2.62 0,1.11 0.28,1.98 0.85,2.61 0.56,0.64 1.27,0.95 2.12,0.95 0.86,0 1.56,-0.31 2.13,-0.95 0.56,-0.63 0.84,-1.5 0.84,-2.61 0,-1.12 -0.28,-1.99 -0.84,-2.62zm-1.79 -2.39c0.85,0 1.62,0.23 2.29,0.68 0.68,0.46 1.19,1.07 1.55,1.83 0.35,0.76 0.53,1.59 0.53,2.5 0,1.44 -0.43,2.66 -1.29,3.64 -0.87,0.99 -2.01,1.48 -3.42,1.48 -0.93,0 -1.76,-0.23 -2.49,-0.7 -0.72,-0.46 -1.27,-1.08 -1.65,-1.86 -0.38,-0.77 -0.57,-1.63 -0.57,-2.58 0,-0.5 0.07,-1.01 0.21,-1.51 0.13,-0.5 0.26,-0.91 0.39,-1.2 0.14,-0.3 0.34,-0.71 0.62,-1.23l3.57 -6.9 1.85 0 -3.23 6.15c0.47,-0.2 1.02,-0.3 1.64,-0.3z"/>
  <path id="_48" class="fil7" d="M1190.39 431.35c-1.65,-1.34 -2.79,-3.1 -3.4,-5.28 -0.38,-1.37 -0.57,-3.24 -0.57,-5.63 0,-2.35 0.19,-4.22 0.57,-5.62 0.6,-2.17 1.73,-3.93 3.4,-5.29l0.85 0.98c-1.32,1.23 -2.23,2.73 -2.72,4.53 -0.36,1.35 -0.55,3.15 -0.55,5.4 0,2.26 0.19,4.06 0.55,5.4 0.49,1.8 1.4,3.31 2.72,4.53l-0.85 0.98z"/>
  <polygon id="_49" class="fil7" points="1196.2,410.7 1196.2,426.47 1194.46,426.47 1194.46,410.7 "/>
  <path id="_50" class="fil7" d="M1200.11 424.54c0.22,-0.23 0.52,-0.35 0.88,-0.35 0.37,0 0.66,0.12 0.89,0.35 0.22,0.22 0.34,0.52 0.34,0.88 0,0.21 -0.09,0.56 -0.27,1.05l-1.01 2.78 -1.09 0 0.63 -2.7c-0.21,-0.09 -0.38,-0.23 -0.51,-0.43 -0.13,-0.2 -0.2,-0.43 -0.2,-0.7 0,-0.36 0.11,-0.66 0.34,-0.88z"/>
  <polygon id="_51" class="fil7" points="1214.09,410.7 1214.09,426.47 1212.35,426.47 1212.35,410.7 "/>
  <polygon id="_52" class="fil7" points="1219.83,410.7 1219.83,426.47 1218.1,426.47 1218.1,410.7 "/>
  <path id="_53" class="fil7" d="M1223.74 424.54c0.22,-0.23 0.52,-0.35 0.88,-0.35 0.37,0 0.66,0.12 0.89,0.35 0.23,0.22 0.34,0.52 0.34,0.88 0,0.21 -0.09,0.56 -0.27,1.05l-1.01 2.78 -1.09 0 0.63 -2.7c-0.21,-0.09 -0.38,-0.23 -0.51,-0.43 -0.13,-0.2 -0.2,-0.43 -0.2,-0.7 0,-0.36 0.11,-0.66 0.34,-0.88z"/>
  <polygon id="_54" class="fil7" points="1237.72,410.7 1237.72,426.47 1235.98,426.47 1235.98,410.7 "/>
  <polygon id="_55" class="fil7" points="1243.46,410.7 1243.46,426.47 1241.73,426.47 1241.73,410.7 "/>
  <polygon id="_56" class="fil7" points="1249.21,410.7 1249.21,426.47 1247.47,426.47 1247.47,410.7 "/>
  <path id="_57" class="fil7" d="M1253.12 424.54c0.22,-0.23 0.52,-0.35 0.88,-0.35 0.36,0 0.66,0.12 0.88,0.35 0.23,0.22 0.35,0.52 0.35,0.88 0,0.21 -0.09,0.56 -0.27,1.05l-1.01 2.78 -1.09 0 0.63 -2.7c-0.21,-0.09 -0.38,-0.23 -0.51,-0.43 -0.14,-0.2 -0.2,-0.43 -0.2,-0.7 0,-0.36 0.11,-0.66 0.34,-0.88z"/>
  <polygon id="_58" class="fil7" points="1267.1,410.7 1267.1,426.47 1265.36,426.47 1265.36,410.7 "/>
  <polygon id="_59" class="fil7" points="1269.55,410.7 1271.36,410.7 1275.73,424.12 1280.09,410.7 1281.91,410.7 1276.56,426.47 1274.89,426.47 "/>
  <polygon id="_60" class="fil7" points="1290.92,410.7 1299.61,410.7 1299.61,412.26 1292.66,412.26 1292.66,417.65 1298.61,417.65 1298.61,419.21 1292.66,419.21 1292.66,424.91 1299.61,424.91 1299.61,426.47 1290.92,426.47 "/>
  <polygon id="_61" class="fil7" points="1308.19,410.7 1310,410.7 1314.37,424.12 1318.73,410.7 1320.55,410.7 1315.2,426.47 1313.53,426.47 "/>
  <path id="_62" class="fil7" d="M1323.06 409.53c1.65,1.34 2.79,3.11 3.41,5.29 0.38,1.4 0.57,3.27 0.57,5.62 0,2.36 -0.19,4.23 -0.57,5.63 -0.62,2.18 -1.76,3.94 -3.41,5.28l-0.85 -0.98c1.33,-1.22 2.23,-2.73 2.72,-4.53 0.37,-1.34 0.55,-3.14 0.55,-5.4 0,-2.25 -0.18,-4.05 -0.55,-5.4 -0.49,-1.8 -1.39,-3.3 -2.72,-4.53l0.85 -0.98z"/>
  <path id="_63" class="fil7" d="M1123 447.58l-2.61 -8.05 -2.62 8.05 5.23 0zm-3.45 -10.4l1.67 0 5.35 15.76 -1.82 0 -1.24 -3.8 -6.25 0 -1.24 3.8 -1.81 0 5.34 -15.76z"/>
  <path id="_64" class="fil7" d="M1130.46 442.17c0.81,-0.97 1.76,-1.45 2.84,-1.45 0.3,0 0.65,0.04 1.03,0.12l-0.25 1.47c-0.47,-0.06 -0.8,-0.1 -1,-0.1 -0.57,0 -1.06,0.13 -1.47,0.4 -0.42,0.27 -0.72,0.63 -0.9,1.08 -0.17,0.4 -0.25,1.09 -0.25,2.09l0 7.16 -1.67 0 0 -12.04 1.67 0 0 1.27z"/>
  <path id="_65" class="fil7" d="M1137.11 449.57l0 -7.29 -1.67 0 0 -1.38 1.67 0 0 -2.61 1.67 0 0 2.61 2.23 0 0 1.38 -2.23 0 0 7.29c0,0.8 0.03,1.28 0.1,1.45 0.17,0.41 0.49,0.61 0.96,0.61 0.38,0 0.81,-0.12 1.27,-0.36l0.64 1.39c-0.71,0.31 -1.38,0.46 -2.02,0.46 -0.63,0 -1.17,-0.15 -1.6,-0.45 -0.44,-0.31 -0.73,-0.74 -0.9,-1.31 -0.08,-0.28 -0.12,-0.87 -0.12,-1.79z"/>
  <path id="_66" class="fil7" d="M1144.15 451.01c0.23,-0.22 0.52,-0.34 0.89,-0.34 0.36,0 0.66,0.12 0.88,0.34 0.23,0.23 0.34,0.52 0.34,0.89 0,0.36 -0.11,0.66 -0.34,0.89 -0.22,0.22 -0.52,0.33 -0.88,0.33 -0.37,0 -0.66,-0.11 -0.89,-0.33 -0.22,-0.23 -0.34,-0.53 -0.34,-0.89 0,-0.37 0.12,-0.66 0.34,-0.89z"/>
  <path id="_67" class="fil7" d="M1160.09 436.97c1.33,0 2.42,0.42 3.27,1.25 0.85,0.83 1.28,1.88 1.28,3.14 0,0.61 -0.12,1.18 -0.34,1.73 -0.23,0.55 -0.58,1.15 -1.07,1.79l-4.9 6.51 6.77 0 0 1.55 -9.08 0 0 -1.2 5.75 -7.7c0.4,-0.53 0.68,-0.99 0.86,-1.37 0.18,-0.39 0.27,-0.82 0.27,-1.31 0,-0.83 -0.26,-1.51 -0.77,-2.04 -0.51,-0.53 -1.19,-0.79 -2.04,-0.79 -0.99,0 -1.94,0.42 -2.84,1.28l-1.13 -1.19c1.15,-1.1 2.48,-1.65 3.97,-1.65z"/>
  <polygon id="_68" class="fil7" points="1167.46,438.74 1167.46,437.18 1176.99,437.18 1176.99,438.23 1170.92,452.94 1169.07,452.94 1174.93,438.74 "/>
  <path class="fil10" d="M925.24 233.46c-1.9,0 -3.23,0.8 -4.03,1.82 -1.1,1.44 -1.1,2.97 -1.1,5.91 0,2.94 0,4.47 1.1,5.9 0.8,1.03 2.13,1.83 4.03,1.83 1.57,0 3.1,-0.55 4.24,-1.55l-1.02 -1.26c-0.85,0.78 -2.03,1.21 -3.22,1.21 -1.17,0 -2.09,-0.43 -2.64,-1.14 -0.8,-1.05 -0.8,-2.14 -0.8,-4.99 0,-2.85 0,-3.95 0.8,-5 0.55,-0.7 1.47,-1.14 2.64,-1.14 1.1,0 2.19,0.39 3.01,1.08l0.98 -1.28c-1.12,-0.91 -2.58,-1.39 -3.99,-1.39z"/>
  <path id="_1_48" class="fil10" d="M931.65 237.88l0 5.84c0,1.6 0,2.92 1.07,4.04 0.55,0.57 1.53,1.16 2.92,1.16 1.39,0 2.37,-0.59 2.92,-1.16 1.07,-1.12 1.07,-2.44 1.07,-4.04l0 -5.84 -1.6 0 0 5.84c0,1.41 0,2.37 -0.66,3.03 -0.39,0.39 -0.98,0.66 -1.73,0.66 -0.75,0 -1.35,-0.27 -1.73,-0.66 -0.66,-0.66 -0.66,-1.62 -0.66,-3.03l0 -5.84 -1.6 0z"/>
  <path id="_2_49" class="fil10" d="M945.9 237.74c-1.07,0 -2.01,0.39 -2.62,0.99 -1.14,1.09 -1.14,2.5 -1.14,4.21l0 5.84 1.59 0 0 -5.84c0,-1.5 0,-2.53 0.69,-3.17 0.34,-0.31 0.86,-0.52 1.48,-0.52 0.62,0 1.14,0.21 1.48,0.52 0.69,0.64 0.69,1.67 0.69,3.17l0 5.84 1.59 0 0 -5.84c0,-1.5 0,-2.53 0.69,-3.17 0.34,-0.31 0.86,-0.52 1.48,-0.52 0.62,0 1.14,0.21 1.48,0.52 0.69,0.64 0.69,1.67 0.69,3.17l0 5.84 1.59 0 0 -5.84c0,-1.71 0,-3.12 -1.14,-4.21 -0.61,-0.6 -1.55,-0.99 -2.62,-0.99 -1.3,0 -2.35,0.57 -2.96,1.6 -0.62,-1.03 -1.67,-1.6 -2.97,-1.6z"/>
  <path id="_3_50" class="fil10" d="M962.27 239.25c0.85,0 1.53,0.3 1.94,0.75 0.73,0.82 0.73,1.99 0.73,3.29 0,1.27 0,2.53 -0.68,3.32 -0.41,0.48 -1.07,0.8 -1.94,0.8 -0.87,0 -1.53,-0.32 -1.94,-0.8 -0.68,-0.79 -0.68,-2.05 -0.68,-3.73 0,-1.21 0,-2.17 0.54,-2.81 0.44,-0.52 1.21,-0.82 2.03,-0.82zm0 -1.51c-1.05,0 -2.37,0.32 -3.26,1.37 -0.91,1.07 -0.91,2.15 -0.91,3.99l0 9.85 1.6 0 0 -5.42c0.61,0.86 1.62,1.39 2.73,1.39 1.35,0 2.42,-0.55 3.08,-1.35 1.03,-1.23 1.03,-2.73 1.03,-4.28 0,-1.42 0,-3.01 -1.1,-4.25 -0.7,-0.77 -1.8,-1.3 -3.17,-1.3z"/>
  <path id="_4_51" class="fil10" d="M972.99 237.74c-1.05,0 -2.37,0.32 -3.26,1.37 -0.91,1.07 -0.91,2.15 -0.91,3.99l0 5.68 1.59 0 0 -5.68c0,-1.43 0,-2.39 0.55,-3.03 0.43,-0.52 1.21,-0.82 2.03,-0.82 0.39,0 0.75,0.07 1.07,0.18l0.48 -1.43c-0.46,-0.16 -0.98,-0.26 -1.55,-0.26z"/>
  <path id="_5_52" class="fil10" d="M977.55 233.98c-0.61,0 -1.07,0.44 -1.07,1.07 0,0.64 0.46,1.08 1.07,1.08 0.62,0 1.07,-0.44 1.07,-1.08 0,-0.63 -0.45,-1.07 -1.07,-1.07zm-0.8 14.8l1.6 0 0 -10.9 -1.6 0 0 10.9z"/>
  <path id="_6_53" class="fil10" d="M990.89 239.25c1,0 1.78,0.41 2.24,1.09 0.5,0.76 0.5,1.83 0.5,2.99 0,1.16 0,2.24 -0.5,2.99 -0.46,0.68 -1.24,1.09 -2.24,1.09 -1,0 -1.78,-0.41 -2.23,-1.09 -0.51,-0.75 -0.51,-1.83 -0.51,-2.99 0,-1.16 0,-2.23 0.51,-2.99 0.45,-0.68 1.23,-1.09 2.23,-1.09zm0 -1.51c-1.62,0 -2.94,0.73 -3.67,1.94 -0.66,1.1 -0.66,2.35 -0.66,3.65 0,1.3 0,2.56 0.66,3.65 0.73,1.21 2.05,1.94 3.67,1.94 1.62,0 2.94,-0.73 3.67,-1.94 0.66,-1.09 0.66,-2.35 0.66,-3.65 0,-1.3 0,-2.55 -0.66,-3.65 -0.73,-1.21 -2.05,-1.94 -3.67,-1.94z"/>
  <path id="_7_54" class="fil10" d="M923.62 258.06c-0.77,0 -1.62,0 -2.37,0.64 -0.91,0.8 -0.91,1.8 -0.91,2.9l0 11.67 1.69 0 0 -5.38 1.25 0c1.8,0 3.49,0 4.88,-1.25 1.12,-1.01 1.53,-2.45 1.53,-3.66 0,-1.22 -0.41,-2.66 -1.53,-3.66 -1.39,-1.26 -2.96,-1.26 -4.54,-1.26zm0 1.6c1.46,0 2.46,0 3.35,0.8 0.62,0.55 1.03,1.42 1.03,2.52 0,1.09 -0.41,1.96 -1.03,2.52 -0.89,0.79 -2,0.79 -3.69,0.79l-1.25 0 0 -4.69c0,-0.93 0,-1.44 0.38,-1.74 0.28,-0.2 0.6,-0.2 1.21,-0.2z"/>
  <path id="_8_55" class="fil10" d="M936.25 262.24c-1.04,0 -2.37,0.31 -3.26,1.36 -0.91,1.07 -0.91,2.15 -0.91,3.99l0 5.68 1.6 0 0 -5.68c0,-1.43 0,-2.39 0.55,-3.03 0.43,-0.52 1.2,-0.82 2.02,-0.82 0.39,0 0.76,0.07 1.08,0.18l0.48 -1.43c-0.46,-0.16 -0.98,-0.25 -1.56,-0.25z"/>
  <path id="_9_56" class="fil10" d="M943.44 263.74c1,0 1.78,0.41 2.23,1.09 0.5,0.76 0.5,1.83 0.5,2.99 0,1.16 0,2.24 -0.5,2.99 -0.45,0.68 -1.23,1.09 -2.23,1.09 -1.01,0 -1.78,-0.41 -2.24,-1.09 -0.5,-0.75 -0.5,-1.83 -0.5,-2.99 0,-1.16 0,-2.23 0.5,-2.99 0.46,-0.68 1.23,-1.09 2.24,-1.09zm0 -1.5c-1.62,0 -2.94,0.72 -3.67,1.93 -0.66,1.1 -0.66,2.35 -0.66,3.65 0,1.3 0,2.56 0.66,3.65 0.73,1.21 2.05,1.94 3.67,1.94 1.62,0 2.94,-0.73 3.67,-1.94 0.66,-1.09 0.66,-2.35 0.66,-3.65 0,-1.3 0,-2.55 -0.66,-3.65 -0.73,-1.21 -2.05,-1.93 -3.67,-1.93z"/>
  <path id="_10_57" class="fil10" d="M950.55 262.37l-1.64 0 2.03 8.37c0.25,1.05 0.36,1.64 1,2.17 0.37,0.29 0.87,0.5 1.44,0.5 0.57,0 1.07,-0.21 1.44,-0.5 0.63,-0.53 0.75,-1.12 1,-2.17l2.03 -8.37 -1.64 0 -1.99 8.21c-0.13,0.59 -0.22,0.94 -0.36,1.1 -0.12,0.13 -0.3,0.22 -0.48,0.22 -0.18,0 -0.37,-0.09 -0.48,-0.22 -0.14,-0.16 -0.23,-0.51 -0.36,-1.1l-1.99 -8.21z"/>
  <path id="_11_58" class="fil10" d="M960.47 258.47c-0.61,0 -1.07,0.44 -1.07,1.07 0,0.64 0.46,1.08 1.07,1.08 0.62,0 1.07,-0.44 1.07,-1.08 0,-0.63 -0.45,-1.07 -1.07,-1.07zm-0.8 14.8l1.6 0 0 -10.9 -1.6 0 0 10.9z"/>
  <path id="_12_59" class="fil10" d="M967.77 262.24c-1.07,0 -2.01,0.38 -2.62,0.98 -1.14,1.09 -1.14,2.5 -1.14,4.21l0 5.84 1.59 0 0 -5.84c0,-1.5 0,-2.53 0.69,-3.17 0.34,-0.31 0.86,-0.52 1.48,-0.52 0.61,0 1.14,0.21 1.48,0.52 0.69,0.64 0.69,1.67 0.69,3.17l0 5.84 1.59 0 0 -5.84c0,-1.5 0,-2.53 0.69,-3.17 0.34,-0.31 0.86,-0.52 1.48,-0.52 0.61,0 1.14,0.21 1.48,0.52 0.68,0.64 0.68,1.67 0.68,3.17l0 5.84 1.6 0 0 -5.84c0,-1.71 0,-3.12 -1.14,-4.21 -0.62,-0.6 -1.55,-0.98 -2.62,-0.98 -1.3,0 -2.35,0.57 -2.97,1.59 -0.61,-1.02 -1.66,-1.59 -2.96,-1.59z"/>
  <path id="_13_60" class="fil10" d="M981.88 270.95c-0.52,-0.71 -0.52,-2.06 -0.52,-2.65l2.1 0c1.62,0 2.6,0 3.55,-0.68 0.64,-0.46 1.14,-1.23 1.14,-2.24 -0.02,-0.89 -0.45,-1.73 -1.14,-2.3 -0.68,-0.55 -1.59,-0.84 -2.73,-0.84 -1.62,0 -2.99,0.59 -3.72,1.61 -0.82,1.14 -0.82,2.19 -0.82,3.97 0,1.48 0,2.85 0.87,4.04 0.73,0.98 1.98,1.55 3.55,1.55 1.19,0 2.38,-0.25 3.45,-0.8l-0.66 -1.37c-0.83,0.44 -1.81,0.66 -2.79,0.66 -1.09,0 -1.82,-0.34 -2.28,-0.95zm4.68 -5.57c0,0.53 -0.25,0.91 -0.55,1.14 -0.48,0.37 -1.12,0.37 -2.55,0.37l-2.1 0c0,-0.46 0,-1.6 0.57,-2.26 0.5,-0.59 1.32,-0.89 2.35,-0.89 0.71,0 1.3,0.16 1.69,0.48 0.34,0.27 0.57,0.73 0.59,1.16z"/>
  <path id="_14_61" class="fil10" d="M994.31 262.24c-1.39,0 -2.37,0.59 -2.92,1.16 -1.07,1.12 -1.07,2.44 -1.07,4.03l0 5.84 1.6 0 0 -5.84c0,-1.41 0,-2.37 0.66,-3.03 0.39,-0.39 0.98,-0.66 1.73,-0.66 0.75,0 1.35,0.27 1.73,0.66 0.67,0.66 0.67,1.62 0.67,3.03l0 5.84 1.59 0 0 -5.84c0,-1.59 0,-2.91 -1.07,-4.03 -0.55,-0.57 -1.53,-1.16 -2.92,-1.16z"/>
  <path id="_15_62" class="fil10" d="M1002.52 269.4l0 -5.61 2.74 0 0 -1.42 -2.74 0 0 -2.57 -1.6 0 0 9.6c0,1.29 0,2.16 0.64,2.96 0.5,0.64 1.35,1.05 2.35,1.05 0.82,0 1.55,-0.27 2.17,-0.59l-0.69 -1.35c-0.52,0.27 -1.05,0.43 -1.48,0.43 -0.5,0 -0.84,-0.18 -1.07,-0.45 -0.32,-0.41 -0.32,-0.82 -0.32,-2.05z"/>
  <path id="_16_63" class="fil10" d="M1011.62 263.74c1,0 1.78,0.41 2.23,1.09 0.5,0.76 0.5,1.83 0.5,2.99 0,1.16 0,2.24 -0.5,2.99 -0.45,0.68 -1.23,1.09 -2.23,1.09 -1,0 -1.78,-0.41 -2.24,-1.09 -0.5,-0.75 -0.5,-1.83 -0.5,-2.99 0,-1.16 0,-2.23 0.5,-2.99 0.46,-0.68 1.24,-1.09 2.24,-1.09zm0 -1.5c-1.62,0 -2.94,0.72 -3.67,1.93 -0.66,1.1 -0.66,2.35 -0.66,3.65 0,1.3 0,2.56 0.66,3.65 0.73,1.21 2.05,1.94 3.67,1.94 1.62,0 2.94,-0.73 3.67,-1.94 0.66,-1.09 0.66,-2.35 0.66,-3.65 0,-1.3 0,-2.55 -0.66,-3.65 -0.73,-1.21 -2.05,-1.93 -3.67,-1.93z"/>
  <path class="fil10" d="M561.82 241.24c-0.59,0 -1.21,0.21 -1.66,0.64 -0.39,0.36 -0.57,0.68 -1.05,2.51l-3.26 12.17 1.73 0 1.19 -4.44 6.11 0 1.18 4.44 1.74 0 -3.26 -12.17c-0.48,-1.83 -0.66,-2.15 -1.05,-2.51 -0.46,-0.43 -1.07,-0.64 -1.67,-0.64zm-2.62 9.28l1.55 -5.77c0.32,-1.23 0.43,-1.57 0.59,-1.73 0.12,-0.11 0.3,-0.18 0.48,-0.18 0.19,0 0.37,0.07 0.48,0.18 0.16,0.16 0.28,0.5 0.6,1.73l1.55 5.77 -5.25 0z"/>
  <path id="_1_64" class="fil10" d="M573.5 245.53c-1.35,0 -2.42,0.55 -3.08,1.34 -1.03,1.23 -1.03,2.74 -1.03,4.29 0,1.39 0,2.99 1.28,4.29 0.71,0.7 1.8,1.25 3.17,1.25 1.44,0 2.58,-0.61 3.22,-1.5 0.77,-1.08 0.77,-2.21 0.77,-3.93l0 -9.91 -1.6 0 0 5.56c-0.61,-0.87 -1.61,-1.39 -2.73,-1.39zm2.73 6.04c0,1.21 0,2.19 -0.54,2.85 -0.46,0.55 -1.14,0.78 -1.85,0.78 -0.78,0 -1.55,-0.28 -2.05,-0.82 -0.8,-0.87 -0.8,-2.06 -0.8,-3.22 0,-1.28 0,-2.53 0.68,-3.33 0.41,-0.48 1.08,-0.8 1.94,-0.8 0.87,0 1.53,0.32 1.94,0.8 0.68,0.8 0.68,2.05 0.68,3.74z"/>
  <path id="_2_65" class="fil10" d="M582.25 254.24c-0.52,-0.71 -0.52,-2.05 -0.52,-2.65l2.1 0c1.62,0 2.6,0 3.55,-0.68 0.64,-0.46 1.15,-1.23 1.15,-2.23 -0.03,-0.89 -0.46,-1.74 -1.15,-2.31 -0.68,-0.55 -1.59,-0.84 -2.73,-0.84 -1.62,0 -2.99,0.59 -3.72,1.62 -0.82,1.14 -0.82,2.19 -0.82,3.96 0,1.49 0,2.86 0.87,4.04 0.73,0.98 1.98,1.55 3.55,1.55 1.19,0 2.38,-0.25 3.45,-0.8l-0.66 -1.36c-0.82,0.43 -1.8,0.66 -2.79,0.66 -1.09,0 -1.82,-0.35 -2.28,-0.96zm4.68 -5.56c0,0.52 -0.25,0.91 -0.55,1.14 -0.48,0.36 -1.12,0.36 -2.55,0.36l-2.1 0c0,-0.46 0,-1.6 0.57,-2.26 0.5,-0.59 1.32,-0.89 2.35,-0.89 0.71,0 1.3,0.16 1.69,0.48 0.34,0.28 0.57,0.73 0.59,1.17z"/>
  <path id="_3_66" class="fil10" d="M594.73 247.03c0.82,0 1.59,0.3 2.03,0.82 0.54,0.64 0.54,1.6 0.54,2.81 0,1.69 0,2.94 -0.68,3.74 -0.41,0.48 -1.07,0.8 -1.94,0.8 -0.86,0 -1.53,-0.32 -1.94,-0.8 -0.68,-0.8 -0.68,-2.05 -0.68,-3.33 0,-1.3 0,-2.46 0.73,-3.28 0.41,-0.46 1.09,-0.76 1.94,-0.76zm0 -1.5c-1.37,0 -2.47,0.52 -3.17,1.3 -1.1,1.23 -1.1,2.83 -1.1,4.24 0,1.55 0,3.05 1.03,4.29 0.66,0.79 1.73,1.34 3.08,1.34 1.12,0 2.12,-0.52 2.73,-1.39l0 5.43 1.6 0 0 -9.85c0,-1.85 0,-2.92 -0.91,-3.99 -0.89,-1.05 -2.21,-1.37 -3.26,-1.37z"/>
  <path id="_4_67" class="fil10" d="M601.41 245.67l0 5.83c0,1.6 0,2.92 1.07,4.04 0.55,0.57 1.53,1.16 2.92,1.16 1.39,0 2.37,-0.59 2.92,-1.16 1.07,-1.12 1.07,-2.44 1.07,-4.04l0 -5.83 -1.6 0 0 5.83c0,1.42 0,2.37 -0.66,3.04 -0.39,0.38 -0.98,0.66 -1.73,0.66 -0.75,0 -1.35,-0.28 -1.73,-0.66 -0.66,-0.67 -0.66,-1.62 -0.66,-3.04l0 -5.83 -1.6 0z"/>
  <path id="_5_68" class="fil10" d="M619.49 252l0 -1.68c0,-1.21 0,-2.56 -0.91,-3.58 -0.68,-0.78 -1.71,-1.21 -3.08,-1.21 -1.23,0 -2.39,0.27 -3.47,0.66l0.51 1.44c0.95,-0.37 1.96,-0.6 2.96,-0.6 0.87,0 1.46,0.23 1.85,0.66 0.55,0.62 0.55,1.53 0.55,2.24l-1.87 0c-0.89,0 -2.17,0 -3.24,0.77 -0.73,0.53 -1.35,1.42 -1.35,2.63 0,1.18 0.62,2.09 1.37,2.62 0.73,0.52 1.66,0.75 2.76,0.75 1.37,0 2.44,-0.39 3.12,-1.18 0.8,-0.94 0.8,-1.99 0.8,-3.52zm-1.59 0c0,1.35 0,2.06 -0.44,2.56 -0.39,0.45 -1.05,0.64 -1.89,0.64 -0.73,0 -1.37,-0.14 -1.8,-0.44 -0.41,-0.29 -0.73,-0.79 -0.73,-1.43 0,-0.71 0.34,-1.23 0.75,-1.53 0.64,-0.46 1.46,-0.46 2.24,-0.46l1.87 0 0 0.66z"/>
  <path id="_6_69" class="fil10" d="M625.76 245.53c-1.34,0 -2.41,0.55 -3.08,1.34 -1.02,1.23 -1.02,2.74 -1.02,4.29 0,1.39 0,2.99 1.28,4.29 0.7,0.7 1.8,1.25 3.16,1.25 1.44,0 2.58,-0.61 3.22,-1.5 0.77,-1.08 0.77,-2.21 0.77,-3.93l0 -9.91 -1.59 0 0 5.56c-0.62,-0.87 -1.62,-1.39 -2.74,-1.39zm2.74 6.04c0,1.21 0,2.19 -0.55,2.85 -0.45,0.55 -1.14,0.78 -1.85,0.78 -0.77,0 -1.55,-0.28 -2.05,-0.82 -0.8,-0.87 -0.8,-2.06 -0.8,-3.22 0,-1.28 0,-2.53 0.69,-3.33 0.41,-0.48 1.07,-0.8 1.94,-0.8 0.86,0 1.52,0.32 1.93,0.8 0.69,0.8 0.69,2.05 0.69,3.74z"/>
  <path id="_7_70" class="fil10" d="M636.71 247.03c1,0 1.78,0.41 2.23,1.1 0.5,0.75 0.5,1.82 0.5,2.98 0,1.17 0,2.24 -0.5,2.99 -0.45,0.69 -1.23,1.1 -2.23,1.1 -1.01,0 -1.78,-0.41 -2.24,-1.1 -0.5,-0.75 -0.5,-1.82 -0.5,-2.99 0,-1.16 0,-2.23 0.5,-2.98 0.46,-0.69 1.23,-1.1 2.24,-1.1zm0 -1.5c-1.62,0 -2.94,0.73 -3.67,1.94 -0.66,1.09 -0.66,2.35 -0.66,3.64 0,1.3 0,2.56 0.66,3.65 0.73,1.21 2.05,1.94 3.67,1.94 1.62,0 2.94,-0.73 3.67,-1.94 0.66,-1.09 0.66,-2.35 0.66,-3.65 0,-1.29 0,-2.55 -0.66,-3.64 -0.73,-1.21 -2.05,-1.94 -3.67,-1.94z"/>
  <path id="_8_71" class="fil10" d="M650.94 254.24c-0.53,-0.71 -0.53,-2.05 -0.53,-2.65l2.1 0c1.62,0 2.6,0 3.56,-0.68 0.64,-0.46 1.14,-1.23 1.14,-2.23 -0.02,-0.89 -0.46,-1.74 -1.14,-2.31 -0.69,-0.55 -1.6,-0.84 -2.74,-0.84 -1.62,0 -2.99,0.59 -3.72,1.62 -0.82,1.14 -0.82,2.19 -0.82,3.96 0,1.49 0,2.86 0.87,4.04 0.73,0.98 1.98,1.55 3.56,1.55 1.18,0 2.37,-0.25 3.44,-0.8l-0.66 -1.36c-0.82,0.43 -1.8,0.66 -2.78,0.66 -1.1,0 -1.83,-0.35 -2.28,-0.96zm4.67 -5.56c0,0.52 -0.25,0.91 -0.55,1.14 -0.47,0.36 -1.11,0.36 -2.55,0.36l-2.1 0c0,-0.46 0,-1.6 0.57,-2.26 0.5,-0.59 1.33,-0.89 2.35,-0.89 0.71,0 1.3,0.16 1.69,0.48 0.34,0.28 0.57,0.73 0.59,1.17z"/>
  <polygon id="_9_72" class="fil10" points="665.3,241.36 665.3,256.56 666.9,256.56 666.9,241.36 "/>
  <path id="_10_73" class="fil10" d="M671.55 254.24c-0.52,-0.71 -0.52,-2.05 -0.52,-2.65l2.09 0c1.62,0 2.6,0 3.56,-0.68 0.64,-0.46 1.14,-1.23 1.14,-2.23 -0.02,-0.89 -0.45,-1.74 -1.14,-2.31 -0.68,-0.55 -1.59,-0.84 -2.74,-0.84 -1.61,0 -2.98,0.59 -3.71,1.62 -0.82,1.14 -0.82,2.19 -0.82,3.96 0,1.49 0,2.86 0.86,4.04 0.73,0.98 1.99,1.55 3.56,1.55 1.19,0 2.37,-0.25 3.44,-0.8l-0.66 -1.36c-0.82,0.43 -1.8,0.66 -2.78,0.66 -1.09,0 -1.82,-0.35 -2.28,-0.96zm4.68 -5.56c0,0.52 -0.26,0.91 -0.55,1.14 -0.48,0.36 -1.12,0.36 -2.56,0.36l-2.09 0c0,-0.46 0,-1.6 0.57,-2.26 0.5,-0.59 1.32,-0.89 2.34,-0.89 0.71,0 1.3,0.16 1.69,0.48 0.34,0.28 0.57,0.73 0.6,1.17z"/>
  <path id="_11_74" class="fil10" d="M681.01 241.77c-0.61,0 -1.07,0.43 -1.07,1.07 0,0.64 0.46,1.07 1.07,1.07 0.62,0 1.08,-0.43 1.08,-1.07 0,-0.64 -0.46,-1.07 -1.08,-1.07zm-0.79 14.79l1.59 0 0 -10.89 -1.59 0 0 10.89z"/>
  <path id="_12_75" class="fil10" d="M560.18 270.02c-1.34,0 -2.42,0.55 -3.08,1.34 -1.02,1.24 -1.02,2.74 -1.02,4.29 0,1.39 0,2.99 1.27,4.29 0.71,0.7 1.81,1.25 3.17,1.25 1.44,0 2.58,-0.61 3.22,-1.5 0.77,-1.07 0.77,-2.21 0.77,-3.92l0 -9.92 -1.59 0 0 5.56c-0.62,-0.87 -1.62,-1.39 -2.74,-1.39zm2.74 6.04c0,1.21 0,2.19 -0.55,2.85 -0.46,0.55 -1.14,0.78 -1.85,0.78 -0.77,0 -1.55,-0.28 -2.05,-0.82 -0.8,-0.87 -0.8,-2.06 -0.8,-3.22 0,-1.28 0,-2.53 0.69,-3.33 0.41,-0.48 1.07,-0.8 1.94,-0.8 0.86,0 1.52,0.32 1.93,0.8 0.69,0.8 0.69,2.05 0.69,3.74z"/>
  <path id="_13_76" class="fil10" d="M568.94 278.73c-0.53,-0.71 -0.53,-2.05 -0.53,-2.65l2.1 0c1.62,0 2.6,0 3.56,-0.68 0.64,-0.46 1.14,-1.23 1.14,-2.23 -0.02,-0.89 -0.46,-1.74 -1.14,-2.31 -0.69,-0.54 -1.6,-0.84 -2.74,-0.84 -1.62,0 -2.98,0.59 -3.71,1.62 -0.83,1.14 -0.83,2.19 -0.83,3.97 0,1.48 0,2.85 0.87,4.03 0.73,0.98 1.98,1.55 3.56,1.55 1.18,0 2.37,-0.25 3.44,-0.8l-0.66 -1.36c-0.82,0.43 -1.8,0.66 -2.78,0.66 -1.1,0 -1.83,-0.34 -2.28,-0.96zm4.67 -5.56c0,0.52 -0.25,0.91 -0.54,1.14 -0.48,0.36 -1.12,0.36 -2.56,0.36l-2.1 0c0,-0.46 0,-1.6 0.57,-2.26 0.5,-0.59 1.33,-0.89 2.35,-0.89 0.71,0 1.3,0.16 1.69,0.48 0.34,0.28 0.57,0.73 0.59,1.17z"/>
  <path id="_14_77" class="fil10" d="M587.25 271.52c0.84,0 1.53,0.3 1.94,0.76 0.73,0.82 0.73,1.98 0.73,3.28 0,1.28 0,2.53 -0.69,3.33 -0.41,0.48 -1.07,0.8 -1.94,0.8 -0.86,0 -1.52,-0.32 -1.93,-0.8 -0.69,-0.8 -0.69,-2.05 -0.69,-3.74 0,-1.21 0,-2.17 0.55,-2.81 0.43,-0.52 1.21,-0.82 2.03,-0.82zm0 -1.5c-1.05,0 -2.37,0.32 -3.26,1.37 -0.91,1.07 -0.91,2.14 -0.91,3.99l0 9.85 1.59 0 0 -5.43c0.62,0.87 1.62,1.39 2.74,1.39 1.34,0 2.42,-0.55 3.08,-1.34 1.02,-1.23 1.02,-2.74 1.02,-4.29 0,-1.41 0,-3.01 -1.09,-4.24 -0.71,-0.78 -1.8,-1.3 -3.17,-1.3z"/>
  <path id="_15_78" class="fil10" d="M597.97 270.02c-1.05,0 -2.38,0.32 -3.26,1.37 -0.92,1.07 -0.92,2.14 -0.92,3.99l0 5.68 1.6 0 0 -5.68c0,-1.44 0,-2.4 0.55,-3.04 0.43,-0.52 1.2,-0.82 2.03,-0.82 0.38,0 0.75,0.07 1.07,0.19l0.48 -1.44c-0.46,-0.16 -0.98,-0.25 -1.55,-0.25z"/>
  <path id="_16_79" class="fil10" d="M605.15 271.52c1,0 1.78,0.41 2.23,1.1 0.51,0.75 0.51,1.82 0.51,2.99 0,1.16 0,2.23 -0.51,2.98 -0.45,0.69 -1.23,1.1 -2.23,1.1 -1,0 -1.78,-0.41 -2.24,-1.1 -0.5,-0.75 -0.5,-1.82 -0.5,-2.98 0,-1.17 0,-2.24 0.5,-2.99 0.46,-0.69 1.24,-1.1 2.24,-1.1zm0 -1.5c-1.62,0 -2.94,0.73 -3.67,1.94 -0.66,1.09 -0.66,2.35 -0.66,3.65 0,1.3 0,2.55 0.66,3.64 0.73,1.21 2.05,1.94 3.67,1.94 1.62,0 2.94,-0.73 3.67,-1.94 0.66,-1.09 0.66,-2.34 0.66,-3.64 0,-1.3 0,-2.56 -0.66,-3.65 -0.73,-1.21 -2.05,-1.94 -3.67,-1.94z"/>
  <path id="_17_80" class="fil10" d="M613.47 277.18l0 -5.61 2.74 0 0 -1.41 -2.74 0 0 -2.58 -1.59 0 0 9.6c0,1.3 0,2.17 0.63,2.96 0.51,0.64 1.35,1.05 2.35,1.05 0.82,0 1.55,-0.27 2.17,-0.59l-0.68 -1.35c-0.53,0.28 -1.05,0.44 -1.49,0.44 -0.5,0 -0.84,-0.19 -1.07,-0.46 -0.32,-0.41 -0.32,-0.82 -0.32,-2.05z"/>
  <path id="_18_81" class="fil10" d="M620.38 278.73c-0.52,-0.71 -0.52,-2.05 -0.52,-2.65l2.09 0c1.62,0 2.6,0 3.56,-0.68 0.64,-0.46 1.14,-1.23 1.14,-2.23 -0.02,-0.89 -0.45,-1.74 -1.14,-2.31 -0.68,-0.54 -1.59,-0.84 -2.73,-0.84 -1.62,0 -2.99,0.59 -3.72,1.62 -0.82,1.14 -0.82,2.19 -0.82,3.97 0,1.48 0,2.85 0.86,4.03 0.73,0.98 1.99,1.55 3.56,1.55 1.19,0 2.37,-0.25 3.44,-0.8l-0.66 -1.36c-0.82,0.43 -1.8,0.66 -2.78,0.66 -1.09,0 -1.82,-0.34 -2.28,-0.96zm4.68 -5.56c0,0.52 -0.25,0.91 -0.55,1.14 -0.48,0.36 -1.12,0.36 -2.56,0.36l-2.09 0c0,-0.46 0,-1.6 0.57,-2.26 0.5,-0.59 1.32,-0.89 2.35,-0.89 0.7,0 1.3,0.16 1.68,0.48 0.35,0.28 0.57,0.73 0.6,1.17z"/>
  <path id="_19_82" class="fil10" d="M631.49 283.97l-0.37 1.14c0.43,0.19 0.89,0.26 1.3,0.26 0.78,0 1.44,-0.26 1.85,-0.6 0.36,-0.32 0.71,-0.82 0.71,-1.46 0,-0.45 -0.19,-0.86 -0.53,-1.11 -0.43,-0.3 -0.8,-0.3 -1.28,-0.3l0.22 -0.73c1,-0.07 1.98,-0.4 2.82,-0.96l-0.82 -1.28c-0.73,0.51 -1.6,0.76 -2.47,0.76 -0.89,0 -1.57,-0.3 -2,-0.8 -0.73,-0.84 -0.73,-2.21 -0.73,-3.38 0,-1 0,-2.34 0.7,-3.17 0.55,-0.63 1.33,-0.82 2.03,-0.82 0.82,0 1.67,0.25 2.35,0.69l0.78 -1.3c-0.94,-0.59 -2.03,-0.89 -3.13,-0.89 -1.46,0 -2.55,0.55 -3.26,1.37 -1.07,1.23 -1.07,2.94 -1.07,4.12 0,1.35 0,3.11 1.09,4.34 0.62,0.69 1.52,1.2 2.71,1.32l-0.47 1.48 0.84 0c0.21,0 0.39,0 0.57,0.09 0.25,0.14 0.37,0.37 0.37,0.6 0,0.29 -0.18,0.52 -0.46,0.68 -0.32,0.16 -0.61,0.16 -0.82,0.16 -0.27,0 -0.61,-0.07 -0.93,-0.21z"/>
  <path id="_20_83" class="fil10" d="M643.46 268.51c1.12,0 2,-0.82 2,-1.91l-1.27 0c0,0.43 -0.32,0.73 -0.73,0.73 -0.41,0 -0.73,-0.21 -1.07,-0.37 -0.44,-0.22 -0.98,-0.5 -1.67,-0.5 -1.12,0 -2.01,0.82 -2.01,1.92l1.28 0c0,-0.44 0.32,-0.73 0.73,-0.73 0.41,0 0.73,0.2 1.07,0.36 0.44,0.23 1.01,0.5 1.67,0.5zm2.51 7.98l0 -1.68c0,-1.21 0,-2.56 -0.92,-3.58 -0.68,-0.78 -1.71,-1.21 -3.07,-1.21 -1.24,0 -2.4,0.27 -3.47,0.66l0.5 1.44c0.96,-0.37 1.96,-0.6 2.97,-0.6 0.86,0 1.46,0.23 1.84,0.66 0.55,0.62 0.55,1.53 0.55,2.24l-1.87 0c-0.89,0 -2.17,0 -3.24,0.77 -0.73,0.53 -1.34,1.42 -1.34,2.63 0,1.18 0.61,2.1 1.37,2.62 0.72,0.52 1.66,0.75 2.75,0.75 1.37,0 2.44,-0.39 3.13,-1.18 0.8,-0.94 0.8,-1.99 0.8,-3.52zm-1.6 0c0,1.35 0,2.06 -0.43,2.56 -0.39,0.45 -1.05,0.64 -1.9,0.64 -0.73,0 -1.36,-0.14 -1.8,-0.44 -0.41,-0.29 -0.73,-0.79 -0.73,-1.43 0,-0.71 0.35,-1.23 0.76,-1.53 0.63,-0.46 1.45,-0.46 2.23,-0.46l1.87 0 0 0.66z"/>
  <path id="_21_84" class="fil10" d="M652.47 271.52c1,0 1.77,0.41 2.23,1.1 0.5,0.75 0.5,1.82 0.5,2.99 0,1.16 0,2.23 -0.5,2.98 -0.46,0.69 -1.23,1.1 -2.23,1.1 -1.01,0 -1.78,-0.41 -2.24,-1.1 -0.5,-0.75 -0.5,-1.82 -0.5,-2.98 0,-1.17 0,-2.24 0.5,-2.99 0.46,-0.69 1.23,-1.1 2.24,-1.1zm0 -1.5c-1.62,0 -2.95,0.73 -3.68,1.94 -0.66,1.09 -0.66,2.35 -0.66,3.65 0,1.3 0,2.55 0.66,3.64 0.73,1.21 2.06,1.94 3.68,1.94 1.61,0 2.94,-0.73 3.67,-1.94 0.66,-1.09 0.66,-2.34 0.66,-3.64 0,-1.3 0,-2.56 -0.66,-3.65 -0.73,-1.21 -2.06,-1.94 -3.67,-1.94z"/>
  <path id="_22_85" class="fil10" d="M668.66 270.02c-1.35,0 -2.42,0.55 -3.08,1.34 -1.03,1.24 -1.03,2.74 -1.03,4.29 0,1.39 0,2.99 1.28,4.29 0.7,0.7 1.8,1.25 3.17,1.25 1.43,0 2.57,-0.61 3.21,-1.5 0.78,-1.07 0.78,-2.21 0.78,-3.92l0 -9.92 -1.6 0 0 5.56c-0.61,-0.87 -1.62,-1.39 -2.73,-1.39zm2.73 6.04c0,1.21 0,2.19 -0.55,2.85 -0.45,0.55 -1.14,0.78 -1.84,0.78 -0.78,0 -1.55,-0.28 -2.05,-0.82 -0.8,-0.87 -0.8,-2.06 -0.8,-3.22 0,-1.28 0,-2.53 0.68,-3.33 0.41,-0.48 1.07,-0.8 1.94,-0.8 0.87,0 1.53,0.32 1.94,0.8 0.68,0.8 0.68,2.05 0.68,3.74z"/>
  <path id="_23_86" class="fil10" d="M677.41 278.73c-0.52,-0.71 -0.52,-2.05 -0.52,-2.65l2.1 0c1.61,0 2.59,0 3.55,-0.68 0.64,-0.46 1.14,-1.23 1.14,-2.23 -0.02,-0.89 -0.45,-1.74 -1.14,-2.31 -0.68,-0.54 -1.59,-0.84 -2.73,-0.84 -1.62,0 -2.99,0.59 -3.72,1.62 -0.82,1.14 -0.82,2.19 -0.82,3.97 0,1.48 0,2.85 0.87,4.03 0.72,0.98 1.98,1.55 3.55,1.55 1.19,0 2.37,-0.25 3.45,-0.8l-0.67 -1.36c-0.82,0.43 -1.8,0.66 -2.78,0.66 -1.09,0 -1.82,-0.34 -2.28,-0.96zm4.68 -5.56c0,0.52 -0.25,0.91 -0.55,1.14 -0.48,0.36 -1.12,0.36 -2.55,0.36l-2.1 0c0,-0.46 0,-1.6 0.57,-2.26 0.5,-0.59 1.32,-0.89 2.35,-0.89 0.7,0 1.3,0.16 1.68,0.48 0.35,0.28 0.57,0.73 0.6,1.17z"/>
  <path id="_24_87" class="fil10" d="M560.18 294.51c-1.34,0 -2.42,0.55 -3.08,1.34 -1.02,1.24 -1.02,2.74 -1.02,4.29 0,1.39 0,2.99 1.27,4.29 0.71,0.71 1.81,1.25 3.17,1.25 1.44,0 2.58,-0.61 3.22,-1.5 0.77,-1.07 0.77,-2.21 0.77,-3.92l0 -9.92 -1.59 0 0 5.56c-0.62,-0.87 -1.62,-1.39 -2.74,-1.39zm2.74 6.04c0,1.21 0,2.19 -0.55,2.85 -0.46,0.55 -1.14,0.78 -1.85,0.78 -0.77,0 -1.55,-0.28 -2.05,-0.82 -0.8,-0.87 -0.8,-2.06 -0.8,-3.22 0,-1.28 0,-2.53 0.69,-3.33 0.41,-0.48 1.07,-0.8 1.94,-0.8 0.86,0 1.52,0.32 1.93,0.8 0.69,0.8 0.69,2.05 0.69,3.74z"/>
  <path id="_25_88" class="fil10" d="M574.62 300.99l0 -1.69c0,-1.21 0,-2.56 -0.92,-3.58 -0.68,-0.78 -1.71,-1.21 -3.07,-1.21 -1.24,0 -2.4,0.27 -3.47,0.66l0.5 1.44c0.96,-0.37 1.96,-0.6 2.97,-0.6 0.86,0 1.45,0.23 1.84,0.67 0.55,0.61 0.55,1.52 0.55,2.23l-1.87 0c-0.89,0 -2.17,0 -3.24,0.78 -0.73,0.52 -1.34,1.41 -1.34,2.62 0,1.18 0.61,2.1 1.36,2.62 0.73,0.52 1.67,0.75 2.76,0.75 1.37,0 2.44,-0.39 3.13,-1.18 0.8,-0.94 0.8,-1.99 0.8,-3.51zm-1.6 0c0,1.34 0,2.05 -0.43,2.55 -0.39,0.46 -1.05,0.64 -1.9,0.64 -0.73,0 -1.36,-0.14 -1.8,-0.44 -0.41,-0.29 -0.73,-0.79 -0.73,-1.43 0,-0.71 0.34,-1.23 0.76,-1.53 0.63,-0.46 1.45,-0.46 2.23,-0.46l1.87 0 0 0.67z"/>
  <path id="_26_89" class="fil10" d="M580.89 294.51c-1.35,0 -2.42,0.55 -3.08,1.34 -1.03,1.24 -1.03,2.74 -1.03,4.29 0,1.39 0,2.99 1.28,4.29 0.71,0.71 1.8,1.25 3.17,1.25 1.44,0 2.58,-0.61 3.21,-1.5 0.78,-1.07 0.78,-2.21 0.78,-3.92l0 -9.92 -1.6 0 0 5.56c-0.61,-0.87 -1.62,-1.39 -2.73,-1.39zm2.73 6.04c0,1.21 0,2.19 -0.54,2.85 -0.46,0.55 -1.14,0.78 -1.85,0.78 -0.78,0 -1.55,-0.28 -2.05,-0.82 -0.8,-0.87 -0.8,-2.06 -0.8,-3.22 0,-1.28 0,-2.53 0.68,-3.33 0.41,-0.48 1.07,-0.8 1.94,-0.8 0.87,0 1.53,0.32 1.94,0.8 0.68,0.8 0.68,2.05 0.68,3.74z"/>
  <path id="_27_90" class="fil10" d="M591.83 296.01c1.01,0 1.78,0.41 2.24,1.1 0.5,0.75 0.5,1.82 0.5,2.99 0,1.16 0,2.23 -0.5,2.98 -0.46,0.69 -1.23,1.1 -2.24,1.1 -1,0 -1.78,-0.41 -2.23,-1.1 -0.5,-0.75 -0.5,-1.82 -0.5,-2.98 0,-1.17 0,-2.24 0.5,-2.99 0.45,-0.69 1.23,-1.1 2.23,-1.1zm0 -1.5c-1.62,0 -2.94,0.73 -3.67,1.94 -0.66,1.09 -0.66,2.35 -0.66,3.65 0,1.3 0,2.55 0.66,3.64 0.73,1.21 2.05,1.94 3.67,1.94 1.62,0 2.94,-0.73 3.67,-1.94 0.67,-1.09 0.67,-2.34 0.67,-3.64 0,-1.3 0,-2.56 -0.67,-3.65 -0.73,-1.21 -2.05,-1.94 -3.67,-1.94z"/>
  <path id="_28_91" class="fil10" d="M605.06 295.26c-1.03,-0.48 -2.17,-0.75 -3.33,-0.75 -0.94,0 -1.73,0.2 -2.4,0.66 -0.66,0.46 -1.23,1.25 -1.23,2.3 0,0.98 0.53,1.8 1.21,2.33 0.69,0.52 1.51,0.73 2.24,0.89 0.73,0.16 1.3,0.3 1.8,0.66 0.36,0.27 0.64,0.71 0.64,1.23 0,0.39 -0.16,0.85 -0.6,1.16 -0.43,0.32 -1,0.44 -1.66,0.44 -1.05,0 -2.1,-0.23 -3.03,-0.66l-0.64 1.36c1.16,0.55 2.44,0.8 3.67,0.8 1.05,0 1.91,-0.23 2.62,-0.73 0.71,-0.5 1.23,-1.34 1.23,-2.37 0,-1.14 -0.64,-1.98 -1.34,-2.48 -0.64,-0.46 -1.39,-0.67 -2.21,-0.85 -0.83,-0.18 -1.3,-0.29 -1.76,-0.66 -0.32,-0.25 -0.57,-0.64 -0.57,-1.12 0,-0.5 0.27,-0.91 0.66,-1.14 0.39,-0.22 0.8,-0.32 1.37,-0.32 0.91,0 1.87,0.23 2.74,0.64l0.59 -1.39z"/>
 </g>
</svg>
