<?xml version="1.0" encoding="UTF-8"?>
<!DOCTYPE svg PUBLIC "-//W3C//DTD SVG 1.1//EN" "http://www.w3.org/Graphics/SVG/1.1/DTD/svg11.dtd">
<!-- Creator: CorelDRAW 2021 (64 Bit) -->
<svg xmlns="http://www.w3.org/2000/svg" xml:space="preserve" width="1600px" height="900px" version="1.1" style="shape-rendering:geometricPrecision; text-rendering:geometricPrecision; image-rendering:optimizeQuality; fill-rule:evenodd; clip-rule:evenodd"
viewBox="0 0 1600.11 899.99"
 xmlns:xlink="http://www.w3.org/1999/xlink"
 xmlns:xodm="http://www.corel.com/coreldraw/odm/2003">
 <defs>
  <style type="text/css">
   <![CDATA[
    .str0 {stroke:#373435;stroke-width:0.91;stroke-miterlimit:22.9256}
    .fil2 {fill:none}
    .fil10 {fill:#48A980}
    .fil0 {fill:#00CC83}
    .fil9 {fill:#00CC83}
    .fil14 {fill:#6D41A1}
    .fil11 {fill:#CACACA}
    .fil5 {fill:#FEFEFE;fill-rule:nonzero}
    .fil7 {fill:#606062;fill-rule:nonzero}
    .fil12 {fill:#373435;fill-rule:nonzero}
    .fil16 {fill:#953735;fill-rule:nonzero}
    .fil6 {fill:#953735;fill-rule:nonzero}
    .fil13 {fill:#00CC83;fill-rule:nonzero}
    .fil15 {fill:#6D41A1;fill-rule:nonzero}
    .fil4 {fill:#7F7F7F;fill-rule:nonzero}
    .fil8 {fill:#7F7F7F;fill-rule:nonzero}
    .fil3 {fill:#B0B0B0;fill-rule:nonzero}
    .fil1 {fill:#FEFEFE}
   ]]>
  </style>
    <clipPath id="id0">
     <path d="M0 0l1599.95 0 0 899.99 -1599.95 0 0 -899.99z"/>
    </clipPath>
     <mask id="id1">
  <linearGradient id="id2" gradientUnits="userSpaceOnUse" x1="880.7" y1="-259.36" x2="880.7" y2="823.05">
   <stop offset="0" style="stop-opacity:1; stop-color:white"/>
   <stop offset="1" style="stop-opacity:0; stop-color:white"/>
  </linearGradient>
      <rect style="fill:url(#id2)" width="1599.95" height="899.99"/>
     </mask>
    <clipPath id="id3">
     <path d="M0 0l1599.95 0 0 899.99 -1599.95 0 0 -899.99z"/>
    </clipPath>
 </defs>
 <g id="Camada_x0020_1">
  <metadata id="CorelCorpID_0Corel-Layer"/>
  <g id="_2758936730112">
   <g style="clip-path:url(#id0)">
    <polygon class="fil0" style="mask:url(#id1)" points="0,0 1599.95,0 1599.95,899.99 0,899.99 "/>
   </g>
   <g style="clip-path:url(#id3)">
    <g>
     <polygon id="_1" class="fil1 str0" points="-165.29,-38.43 1650.05,-38.43 1650.05,915.49 -165.29,915.49 "/>
    </g>
   </g>
   <polygon class="fil2" points="0,0 1599.95,0 1599.95,899.99 0,899.99 "/>
   <polygon class="fil3" points="1510.09,854.95 1600.11,854.95 1600.11,824.95 1510.09,824.95 "/>
   <polygon class="fil4" points="1465.92,854.95 1502.59,854.95 1502.59,824.95 1465.92,824.95 "/>
   <path class="fil5" d="M1472.78 835.88c0.08,-0.34 0.19,-0.67 0.33,-1 0.14,-0.33 0.35,-0.67 0.63,-1.03 0.27,-0.36 0.59,-0.68 0.94,-0.95 0.36,-0.26 0.8,-0.48 1.34,-0.66 0.54,-0.17 1.13,-0.26 1.76,-0.26 1.5,0 2.71,0.43 3.64,1.27 0.92,0.85 1.39,1.98 1.39,3.38 0,0.56 -0.11,1.1 -0.32,1.63 -0.21,0.53 -0.49,1.01 -0.83,1.44 -0.35,0.42 -0.73,0.83 -1.15,1.23 -0.42,0.39 -0.84,0.76 -1.28,1.11 -0.44,0.35 -0.84,0.68 -1.22,1 -0.37,0.31 -0.7,0.64 -0.97,0.96 -0.27,0.34 -0.44,0.65 -0.51,0.95l6.41 0 0 2.68 -10.07 0 0 -1.09c0,-0.59 0.12,-1.17 0.37,-1.76 0.25,-0.58 0.57,-1.12 0.96,-1.6 0.4,-0.48 0.84,-0.96 1.32,-1.42 0.48,-0.47 0.96,-0.92 1.45,-1.34 0.48,-0.43 0.92,-0.84 1.32,-1.24 0.39,-0.4 0.71,-0.81 0.96,-1.23 0.25,-0.42 0.38,-0.81 0.38,-1.19 0,-0.57 -0.18,-1.03 -0.53,-1.37 -0.35,-0.34 -0.83,-0.51 -1.45,-0.51 -1.09,0 -1.81,0.6 -2.17,1.79l-2.7 -0.79z"/>
   <path id="_1_0" class="fil5" d="M1484.79 839.95c0,-2.68 0.41,-4.68 1.24,-6 0.82,-1.31 2.16,-1.97 4.02,-1.97 1.87,0 3.22,0.66 4.04,1.97 0.82,1.31 1.24,3.31 1.24,6 0,2.69 -0.41,4.69 -1.23,6 -0.82,1.31 -2.17,1.97 -4.05,1.97 -1.86,0 -3.2,-0.66 -4.02,-1.97 -0.83,-1.31 -1.24,-3.31 -1.24,-6zm3.13 -1.51c-0.02,0.42 -0.03,0.92 -0.03,1.51 0,0.58 0.01,1.09 0.03,1.52 0.02,0.42 0.06,0.83 0.11,1.24 0.06,0.4 0.14,0.74 0.24,1.01 0.09,0.26 0.23,0.5 0.39,0.7 0.16,0.21 0.36,0.36 0.59,0.45 0.22,0.1 0.49,0.15 0.8,0.15 0.37,0 0.69,-0.08 0.95,-0.23 0.26,-0.15 0.48,-0.35 0.64,-0.61 0.16,-0.26 0.28,-0.61 0.37,-1.05 0.09,-0.44 0.15,-0.91 0.18,-1.39 0.03,-0.49 0.04,-1.09 0.04,-1.79 0,-0.59 -0.01,-1.09 -0.03,-1.51 -0.02,-0.42 -0.06,-0.84 -0.11,-1.24 -0.05,-0.4 -0.13,-0.74 -0.24,-1.01 -0.1,-0.27 -0.23,-0.5 -0.39,-0.71 -0.16,-0.21 -0.35,-0.36 -0.59,-0.45 -0.23,-0.1 -0.51,-0.15 -0.82,-0.15 -0.31,0 -0.58,0.05 -0.8,0.15 -0.23,0.09 -0.43,0.24 -0.59,0.45 -0.15,0.21 -0.28,0.44 -0.39,0.71 -0.1,0.27 -0.18,0.61 -0.24,1.01 -0.05,0.4 -0.09,0.82 -0.11,1.24z"/>
  </g>
  <path class="fil6" d="M685.94 697.22c-1.01,0 -1.93,0 -2.68,0.64 -0.92,0.8 -0.92,1.81 -0.92,2.91l0 11.7 1.7 0 0 -7.07 5.4 0 0 -1.6 -5.4 0 0 -3.03c0,-0.94 0,-1.45 0.39,-1.75 0.27,-0.2 0.66,-0.2 1.51,-0.2l4.64 0 0 -1.6 -4.64 0z"/>
  <path id="_1_1" class="fil6" d="M695.36 703.83l0 -3.06c0,-0.94 0,-1.45 0.39,-1.75 0.27,-0.2 0.66,-0.2 1.51,-0.2l4.87 0 0 -1.6 -4.87 0c-1.01,0 -1.92,0 -2.68,0.64 -0.91,0.8 -0.91,1.81 -0.91,2.91l0 8.16c0,1.09 0,2.1 0.91,2.9 0.76,0.64 1.67,0.64 2.68,0.64l4.87 0 0 -1.6 -4.87 0c-0.85,0 -1.24,0 -1.51,-0.21 -0.39,-0.29 -0.39,-0.8 -0.39,-1.73l0 -3.5 5.4 -0.03 0 -1.6 -5.4 0.03z"/>
  <path id="_2" class="fil6" d="M708.81 698.82c1.49,0 2.56,0 3.43,0.8 0.59,0.55 0.89,1.42 0.89,2.3 0,0.87 -0.3,1.74 -0.89,2.29 -0.87,0.81 -1.92,0.81 -3.64,0.81l-1.58 0 0 -4.25c0,-0.94 0,-1.45 0.39,-1.75 0.28,-0.2 0.67,-0.2 1.4,-0.2zm0 -1.6c-0.89,0 -1.81,0 -2.56,0.64 -0.92,0.8 -0.92,1.81 -0.92,2.91l0 11.7 1.69 0 0 -5.85 1.58 0c1.15,0 1.65,0 2.15,-0.07l2.47 5.92 1.83 0 -2.7 -6.38c1.42,-0.66 2.47,-2.18 2.47,-4.17 0,-1.45 -0.54,-2.65 -1.39,-3.45 -1.35,-1.25 -3.04,-1.25 -4.62,-1.25z"/>
  <path id="_3" class="fil6" d="M722.53 697.1c-1.42,0 -2.72,0.53 -3.54,1.47 -1.19,1.34 -1.19,2.99 -1.19,5.05l0 8.85 1.69 0 0 -8.85c0,-1.85 0,-3.13 0.78,-4 0.55,-0.62 1.37,-0.92 2.26,-0.92 0.89,0 1.72,0.3 2.27,0.92 0.77,0.87 0.77,2.15 0.77,4l0 8.85 1.7 0 0 -8.85c0,-2.06 0,-3.71 -1.19,-5.05 -0.83,-0.94 -2.13,-1.47 -3.55,-1.47z"/>
  <path id="_4" class="fil6" d="M735.66 697.1c-0.59,0 -1.21,0.21 -1.67,0.64 -0.39,0.37 -0.57,0.69 -1.05,2.52l-3.27 12.21 1.74 0 1.19 -4.46 6.13 0 1.19 4.46 1.73 0 -3.27 -12.21c-0.48,-1.83 -0.66,-2.15 -1.05,-2.52 -0.46,-0.43 -1.07,-0.64 -1.67,-0.64zm-2.63 9.31l1.56 -5.79c0.32,-1.23 0.43,-1.57 0.59,-1.73 0.12,-0.12 0.3,-0.19 0.48,-0.19 0.19,0 0.37,0.07 0.48,0.19 0.16,0.16 0.28,0.5 0.6,1.73l1.55 5.79 -5.26 0z"/>
  <path id="_5" class="fil6" d="M748.79 697.1c-1.42,0 -2.72,0.53 -3.54,1.47 -1.19,1.34 -1.19,2.99 -1.19,5.05l0 8.85 1.69 0 0 -8.85c0,-1.85 0,-3.13 0.78,-4 0.55,-0.62 1.37,-0.92 2.26,-0.92 0.89,0 1.72,0.3 2.27,0.92 0.77,0.87 0.77,2.15 0.77,4l0 8.85 1.7 0 0 -8.85c0,-2.06 0,-3.71 -1.19,-5.05 -0.83,-0.94 -2.13,-1.47 -3.55,-1.47z"/>
  <path id="_6" class="fil6" d="M759.98 697.22c-0.55,0 -1.47,0 -2.22,0.64 -0.92,0.8 -0.92,1.8 -0.92,2.9l0 8.16c0,1.1 0,2.11 0.92,2.91 0.75,0.64 1.67,0.64 2.22,0.64 1.48,0 3.79,0 5.37,-1.58 1.56,-1.55 1.56,-3.71 1.56,-6.05 0,-2.33 0,-4.49 -1.56,-6.05 -1.58,-1.57 -3.89,-1.57 -5.37,-1.57zm0 1.6c1.28,0 3.06,0 4.14,1.07 1.09,1.1 1.09,2.75 1.09,4.95 0,2.2 0,3.85 -1.09,4.96 -1.08,1.07 -2.86,1.07 -4.14,1.07 -0.39,0 -0.78,0 -1.06,-0.21 -0.38,-0.29 -0.38,-0.8 -0.38,-1.74l0 -8.16c0,-0.94 0,-1.44 0.38,-1.74 0.28,-0.2 0.67,-0.2 1.06,-0.2z"/>
  <path id="_7" class="fil6" d="M771.34 704.86c0,-2.34 0,-3.71 0.6,-4.69 0.55,-0.92 1.62,-1.47 2.9,-1.47 1.28,0 2.36,0.55 2.91,1.47 0.59,0.98 0.59,2.35 0.59,4.69 0,2.33 0,3.7 -0.59,4.68 -0.55,0.92 -1.63,1.47 -2.91,1.47 -1.28,0 -2.35,-0.55 -2.9,-1.47 -0.6,-0.98 -0.6,-2.35 -0.6,-4.68zm-1.69 0c0,2.69 0,4.13 0.83,5.48 0.84,1.4 2.44,2.27 4.36,2.27 1.93,0 3.53,-0.87 4.37,-2.27 0.83,-1.35 0.83,-2.79 0.83,-5.48 0,-2.7 0,-4.14 -0.83,-5.49 -0.84,-1.4 -2.44,-2.27 -4.37,-2.27 -1.92,0 -3.52,0.87 -4.36,2.27 -0.83,1.35 -0.83,2.79 -0.83,5.49z"/>
  <path id="_8" class="fil6" d="M792.09 697.22c-0.55,0 -1.46,0 -2.22,0.64 -0.91,0.8 -0.91,1.8 -0.91,2.9l0 8.16c0,1.1 0,2.11 0.91,2.91 0.76,0.64 1.67,0.64 2.22,0.64 1.49,0 3.8,0 5.38,-1.58 1.55,-1.55 1.55,-3.71 1.55,-6.05 0,-2.33 0,-4.49 -1.55,-6.05 -1.58,-1.57 -3.89,-1.57 -5.38,-1.57zm0 1.6c1.28,0 3.06,0 4.14,1.07 1.1,1.1 1.1,2.75 1.1,4.95 0,2.2 0,3.85 -1.1,4.96 -1.08,1.07 -2.86,1.07 -4.14,1.07 -0.39,0 -0.78,0 -1.05,-0.21 -0.39,-0.29 -0.39,-0.8 -0.39,-1.74l0 -8.16c0,-0.94 0,-1.44 0.39,-1.74 0.27,-0.2 0.66,-0.2 1.05,-0.2z"/>
  <path id="_9" class="fil6" d="M806.61 697.1c-0.59,0 -1.21,0.21 -1.67,0.64 -0.38,0.37 -0.57,0.69 -1.05,2.52l-3.27 12.21 1.74 0 1.19 -4.46 6.13 0 1.19 4.46 1.74 0 -3.27 -12.21c-0.48,-1.83 -0.67,-2.15 -1.06,-2.52 -0.45,-0.43 -1.07,-0.64 -1.67,-0.64zm-2.63 9.31l1.56 -5.79c0.32,-1.23 0.43,-1.57 0.59,-1.73 0.12,-0.12 0.3,-0.19 0.48,-0.19 0.19,0 0.37,0.07 0.48,0.19 0.17,0.16 0.28,0.5 0.6,1.73l1.55 5.79 -5.26 0z"/>
  <path id="_10" class="fil6" d="M815.12 697.22l0 11.71c0,1.09 0,2.1 0.92,2.9 0.75,0.64 1.67,0.64 2.67,0.64l4.42 0 0 -1.6 -4.42 0c-0.84,0 -1.23,0 -1.51,-0.21 -0.38,-0.29 -0.38,-0.8 -0.38,-1.73l0 -11.71 -1.7 0z"/>
  <path id="_11" class="fil6" d="M827.79 703.83l0 -3.06c0,-0.94 0,-1.45 0.39,-1.75 0.28,-0.2 0.67,-0.2 1.51,-0.2l4.88 0 0 -1.6 -4.88 0c-1,0 -1.92,0 -2.67,0.64 -0.92,0.8 -0.92,1.81 -0.92,2.91l0 8.16c0,1.09 0,2.1 0.92,2.9 0.75,0.64 1.67,0.64 2.67,0.64l4.88 0 0 -1.6 -4.88 0c-0.84,0 -1.23,0 -1.51,-0.21 -0.39,-0.29 -0.39,-0.8 -0.39,-1.73l0 -3.5 5.4 -0.03 0 -1.6 -5.4 0.03z"/>
  <path id="_12" class="fil6" d="M844.31 697.22l-1.74 0 3 12.64c0.34,1.42 0.43,1.67 0.89,2.11 0.46,0.43 1.07,0.64 1.67,0.64 0.59,0 1.21,-0.21 1.67,-0.64 0.46,-0.44 0.55,-0.69 0.89,-2.11l3 -12.64 -1.74 0 -2.91 12.28c-0.2,0.84 -0.27,1.19 -0.43,1.33 -0.16,0.13 -0.3,0.18 -0.48,0.18 -0.18,0 -0.32,-0.05 -0.48,-0.18 -0.16,-0.14 -0.23,-0.49 -0.44,-1.33l-2.9 -12.28z"/>
  <path id="_13" class="fil6" d="M857.9 703.83l0 -3.06c0,-0.94 0,-1.45 0.39,-1.75 0.27,-0.2 0.66,-0.2 1.5,-0.2l4.88 0 0 -1.6 -4.88 0c-1,0 -1.92,0 -2.67,0.64 -0.92,0.8 -0.92,1.81 -0.92,2.91l0 8.16c0,1.09 0,2.1 0.92,2.9 0.75,0.64 1.67,0.64 2.67,0.64l4.88 0 0 -1.6 -4.88 0c-0.84,0 -1.23,0 -1.5,-0.21 -0.39,-0.29 -0.39,-0.8 -0.39,-1.73l0 -3.5 5.39 -0.03 0 -1.6 -5.39 0.03z"/>
  <path id="_14" class="fil6" d="M871 697.22c-0.55,0 -1.46,0 -2.22,0.64 -0.91,0.8 -0.91,1.8 -0.91,2.9l0 8.16c0,1.1 0,2.11 0.91,2.91 0.76,0.64 1.67,0.64 2.22,0.64 1.49,0 3.8,0 5.38,-1.58 1.55,-1.55 1.55,-3.71 1.55,-6.05 0,-2.33 0,-4.49 -1.55,-6.05 -1.58,-1.57 -3.89,-1.57 -5.38,-1.57zm0 1.6c1.28,0 3.07,0 4.14,1.07 1.1,1.1 1.1,2.75 1.1,4.95 0,2.2 0,3.85 -1.1,4.96 -1.07,1.07 -2.86,1.07 -4.14,1.07 -0.39,0 -0.78,0 -1.05,-0.21 -0.39,-0.29 -0.39,-0.8 -0.39,-1.74l0 -8.16c0,-0.94 0,-1.44 0.39,-1.74 0.27,-0.2 0.66,-0.2 1.05,-0.2z"/>
  <path id="_15" class="fil6" d="M882.37 704.86c0,-2.34 0,-3.71 0.59,-4.69 0.55,-0.92 1.63,-1.47 2.91,-1.47 1.28,0 2.36,0.55 2.9,1.47 0.6,0.98 0.6,2.35 0.6,4.69 0,2.33 0,3.7 -0.6,4.68 -0.54,0.92 -1.62,1.47 -2.9,1.47 -1.28,0 -2.36,-0.55 -2.91,-1.47 -0.59,-0.98 -0.59,-2.35 -0.59,-4.68zm-1.69 0c0,2.69 0,4.13 0.82,5.48 0.85,1.4 2.45,2.27 4.37,2.27 1.92,0 3.52,-0.87 4.37,-2.27 0.82,-1.35 0.82,-2.79 0.82,-5.48 0,-2.7 0,-4.14 -0.82,-5.49 -0.85,-1.4 -2.45,-2.27 -4.37,-2.27 -1.92,0 -3.52,0.87 -4.37,2.27 -0.82,1.35 -0.82,2.79 -0.82,5.49z"/>
  <path id="_16" class="fil6" d="M894.4 697.22l-1.74 0 3 12.64c0.34,1.42 0.43,1.67 0.89,2.11 0.46,0.43 1.08,0.64 1.67,0.64 0.6,0 1.21,-0.21 1.67,-0.64 0.46,-0.44 0.55,-0.69 0.89,-2.11l3 -12.64 -1.74 0 -2.9 12.28c-0.21,0.84 -0.28,1.19 -0.44,1.33 -0.16,0.13 -0.3,0.18 -0.48,0.18 -0.18,0 -0.32,-0.05 -0.48,-0.18 -0.16,-0.14 -0.23,-0.49 -0.43,-1.33l-2.91 -12.28z"/>
  <path id="_17" class="fil6" d="M907.99 703.83l0 -3.06c0,-0.94 0,-1.45 0.39,-1.75 0.27,-0.2 0.66,-0.2 1.51,-0.2l4.87 0 0 -1.6 -4.87 0c-1.01,0 -1.92,0 -2.68,0.64 -0.91,0.8 -0.91,1.81 -0.91,2.91l0 8.16c0,1.09 0,2.1 0.91,2.9 0.76,0.64 1.67,0.64 2.68,0.64l4.87 0 0 -1.6 -4.87 0c-0.85,0 -1.24,0 -1.51,-0.21 -0.39,-0.29 -0.39,-0.8 -0.39,-1.73l0 -3.5 5.4 -0.03 0 -1.6 -5.4 0.03z"/>
  <path id="_18" class="fil7" d="M702.53 726.1l-1.65 0 2.04 8.4c0.25,1.05 0.37,1.65 1.01,2.17 0.36,0.3 0.86,0.5 1.44,0.5 0.57,0 1.07,-0.2 1.44,-0.5 0.64,-0.52 0.75,-1.12 1,-2.17l2.04 -8.4 -1.65 0 -1.99 8.24c-0.13,0.59 -0.23,0.94 -0.36,1.1 -0.12,0.13 -0.3,0.23 -0.48,0.23 -0.19,0 -0.37,-0.1 -0.48,-0.23 -0.14,-0.16 -0.23,-0.51 -0.37,-1.1l-1.99 -8.24z"/>
  <path id="_19" class="fil7" d="M713.14 734.7c-0.52,-0.7 -0.52,-2.05 -0.52,-2.65l2.1 0c1.63,0 2.61,0 3.57,-0.69 0.64,-0.45 1.14,-1.23 1.14,-2.24 -0.02,-0.89 -0.45,-1.73 -1.14,-2.31 -0.69,-0.55 -1.6,-0.84 -2.74,-0.84 -1.63,0 -3,0.59 -3.73,1.62 -0.83,1.14 -0.83,2.2 -0.83,3.98 0,1.49 0,2.86 0.87,4.05 0.73,0.98 1.99,1.55 3.57,1.55 1.19,0 2.38,-0.25 3.45,-0.8l-0.66 -1.37c-0.82,0.44 -1.81,0.67 -2.79,0.67 -1.1,0 -1.83,-0.35 -2.29,-0.97zm4.69 -5.58c0,0.53 -0.25,0.92 -0.55,1.15 -0.48,0.36 -1.12,0.36 -2.56,0.36l-2.1 0c0,-0.45 0,-1.6 0.57,-2.26 0.5,-0.6 1.33,-0.89 2.36,-0.89 0.7,0 1.3,0.16 1.69,0.48 0.34,0.27 0.57,0.73 0.59,1.16z"/>
  <path id="_20" class="fil7" d="M725.5 725.97c-1.35,0 -2.43,0.55 -3.09,1.35 -1.03,1.23 -1.03,2.74 -1.03,4.3 0,1.39 0,2.99 1.28,4.3 0.71,0.71 1.81,1.25 3.18,1.25 1.44,0 2.58,-0.61 3.22,-1.5 0.78,-1.08 0.78,-2.22 0.78,-3.94l0 -9.95 -1.6 0 0 5.58c-0.62,-0.87 -1.62,-1.39 -2.74,-1.39zm2.74 6.06c0,1.21 0,2.19 -0.55,2.86 -0.46,0.55 -1.14,0.78 -1.85,0.78 -0.78,0 -1.56,-0.28 -2.06,-0.83 -0.8,-0.87 -0.8,-2.06 -0.8,-3.22 0,-1.28 0,-2.54 0.69,-3.34 0.41,-0.48 1.07,-0.8 1.94,-0.8 0.87,0 1.53,0.32 1.94,0.8 0.69,0.8 0.69,2.06 0.69,3.75z"/>
  <path id="_21" class="fil7" d="M736.47 727.48c1.01,0 1.79,0.41 2.25,1.09 0.5,0.76 0.5,1.83 0.5,3 0,1.17 0,2.24 -0.5,3 -0.46,0.68 -1.24,1.1 -2.25,1.1 -1,0 -1.78,-0.42 -2.24,-1.1 -0.5,-0.76 -0.5,-1.83 -0.5,-3 0,-1.17 0,-2.24 0.5,-3 0.46,-0.68 1.24,-1.09 2.24,-1.09zm0 -1.51c-1.62,0 -2.95,0.73 -3.68,1.94 -0.66,1.1 -0.66,2.36 -0.66,3.66 0,1.3 0,2.56 0.66,3.66 0.73,1.21 2.06,1.94 3.68,1.94 1.63,0 2.95,-0.73 3.69,-1.94 0.66,-1.1 0.66,-2.36 0.66,-3.66 0,-1.3 0,-2.56 -0.66,-3.66 -0.74,-1.21 -2.06,-1.94 -3.69,-1.94z"/>
  <path id="_22" class="fil7" d="M743.61 726.1l-1.65 0 2.04 8.4c0.25,1.05 0.37,1.65 1.01,2.17 0.36,0.3 0.87,0.5 1.44,0.5 0.57,0 1.07,-0.2 1.44,-0.5 0.64,-0.52 0.75,-1.12 1,-2.17l2.04 -8.4 -1.65 0 -1.99 8.24c-0.13,0.59 -0.23,0.94 -0.36,1.1 -0.12,0.13 -0.3,0.23 -0.48,0.23 -0.19,0 -0.37,-0.1 -0.48,-0.23 -0.14,-0.16 -0.23,-0.51 -0.37,-1.1l-1.99 -8.24z"/>
  <path id="_23" class="fil7" d="M754.22 734.7c-0.52,-0.7 -0.52,-2.05 -0.52,-2.65l2.1 0c1.63,0 2.61,0 3.57,-0.69 0.64,-0.45 1.14,-1.23 1.14,-2.24 -0.02,-0.89 -0.45,-1.73 -1.14,-2.31 -0.69,-0.55 -1.6,-0.84 -2.74,-0.84 -1.63,0 -3,0.59 -3.73,1.62 -0.83,1.14 -0.83,2.2 -0.83,3.98 0,1.49 0,2.86 0.87,4.05 0.73,0.98 1.99,1.55 3.57,1.55 1.19,0 2.38,-0.25 3.46,-0.8l-0.67 -1.37c-0.82,0.44 -1.81,0.67 -2.79,0.67 -1.1,0 -1.83,-0.35 -2.29,-0.97zm4.69 -5.58c0,0.53 -0.25,0.92 -0.55,1.15 -0.48,0.36 -1.12,0.36 -2.56,0.36l-2.1 0c0,-0.45 0,-1.6 0.57,-2.26 0.5,-0.6 1.33,-0.89 2.36,-0.89 0.7,0 1.3,0.16 1.69,0.48 0.34,0.27 0.57,0.73 0.59,1.16z"/>
  <path id="_24" class="fil7" d="M775.02 730.95c0,-1.28 0,-2.95 -1.42,-4.02 -1.19,-0.89 -2.43,-0.89 -4.19,-0.89 -1.87,0 -3.61,0 -5.01,1.51 -1.26,1.37 -1.26,3.01 -1.26,4.91l0 2.34c0,1.89 0,3.54 1.26,4.91 1.4,1.51 3.34,1.51 5.22,1.51l3.06 0c1.88,0 3.82,0 5.22,-1.51 1.26,-1.37 1.26,-3.02 1.26,-4.91l0 -3.14c0,-2.65 0,-5.49 -2.18,-7.68 -2.19,-2.2 -4.96,-2.2 -7.73,-2.2l-1.49 0 0 1.42 1.49 0c2.52,0 4.9,0 6.63,1.75 1.77,1.77 1.77,4.1 1.77,6.71l0 3.14c0,1.71 0,2.95 -0.83,3.91 -0.94,1.1 -2.35,1.1 -4.14,1.1l-3.06 0c-1.79,0 -3.2,0 -4.14,-1.1 -0.83,-0.96 -0.83,-2.2 -0.83,-3.91l0 -2.34c0,-1.71 0,-2.95 0.83,-3.91 0.94,-1.1 2.15,-1.1 3.93,-1.1 1.58,0 2.45,0 3.11,0.53 0.89,0.71 0.89,1.78 0.89,2.4l-1.87 0c-0.89,0 -2.17,0 -3.25,0.78 -0.73,0.52 -1.35,1.42 -1.35,2.63 0,1.19 0.62,2.1 1.37,2.63 0.74,0.53 1.67,0.75 2.77,0.75 1.37,0 2.45,-0.38 3.14,-1.18 0.8,-0.94 0.8,-1.99 0.8,-3.53l0 -1.51zm-1.61 1.51c0,1.35 0,2.06 -0.43,2.56 -0.39,0.46 -1.05,0.65 -1.9,0.65 -0.73,0 -1.37,-0.14 -1.81,-0.44 -0.41,-0.3 -0.73,-0.8 -0.73,-1.44 0,-0.71 0.35,-1.24 0.76,-1.53 0.64,-0.46 1.46,-0.46 2.24,-0.46l1.87 0 0 0.66z"/>
  <path id="_25" class="fil7" d="M786.02 725.97c-1.35,0 -2.43,0.55 -3.09,1.35 -1.03,1.23 -1.03,2.74 -1.03,4.3 0,1.39 0,2.99 1.28,4.3 0.71,0.71 1.81,1.25 3.18,1.25 1.44,0 2.59,-0.61 3.23,-1.5 0.77,-1.08 0.77,-2.22 0.77,-3.94l0 -9.95 -1.6 0 0 5.58c-0.62,-0.87 -1.62,-1.39 -2.74,-1.39zm2.74 6.06c0,1.21 0,2.19 -0.55,2.86 -0.45,0.55 -1.14,0.78 -1.85,0.78 -0.78,0 -1.55,-0.28 -2.06,-0.83 -0.8,-0.87 -0.8,-2.06 -0.8,-3.22 0,-1.28 0,-2.54 0.69,-3.34 0.41,-0.48 1.07,-0.8 1.94,-0.8 0.87,0 1.53,0.32 1.95,0.8 0.68,0.8 0.68,2.06 0.68,3.75z"/>
  <path id="_26" class="fil7" d="M792.88 726.1l0 5.86c0,1.6 0,2.93 1.07,4.05 0.55,0.57 1.54,1.16 2.93,1.16 1.4,0 2.38,-0.59 2.93,-1.16 1.08,-1.12 1.08,-2.45 1.08,-4.05l0 -5.86 -1.61 0 0 5.86c0,1.42 0,2.38 -0.66,3.04 -0.39,0.39 -0.98,0.67 -1.74,0.67 -0.75,0 -1.35,-0.28 -1.74,-0.67 -0.66,-0.66 -0.66,-1.62 -0.66,-3.04l0 -5.86 -1.6 0z"/>
  <polygon id="_27" class="fil7" points="803.13,726.1 806.42,731.52 803.06,737.04 804.82,737.04 807.31,732.76 809.76,737.04 811.57,737.04 808.2,731.52 811.5,726.1 809.74,726.1 807.31,730.27 804.93,726.1 "/>
  <path id="_28" class="fil7" d="M817.1 727.48c0.83,0 1.6,0.29 2.04,0.82 0.55,0.64 0.55,1.6 0.55,2.81 0,1.7 0,2.95 -0.69,3.75 -0.41,0.49 -1.07,0.81 -1.94,0.81 -0.87,0 -1.54,-0.32 -1.95,-0.81 -0.68,-0.8 -0.68,-2.05 -0.68,-3.34 0,-1.3 0,-2.47 0.73,-3.29 0.41,-0.46 1.1,-0.75 1.94,-0.75zm0 -1.51c-1.37,0 -2.47,0.52 -3.18,1.3 -1.1,1.24 -1.1,2.84 -1.1,4.25 0,1.56 0,3.07 1.03,4.31 0.67,0.8 1.74,1.34 3.09,1.34 1.12,0 2.13,-0.52 2.75,-1.39l0 0.23c0,1.39 0,2.22 -0.55,2.9 -0.44,0.55 -1.19,0.94 -2.31,0.94 -0.96,0 -1.92,-0.27 -2.68,-0.69l-0.66 1.38c1,0.55 2.22,0.82 3.34,0.82 1.51,0 2.67,-0.53 3.41,-1.33 1.05,-1.14 1.05,-2.4 1.05,-4.02l0 -4.67c0,-1.85 0,-2.93 -0.92,-4 -0.89,-1.05 -2.22,-1.37 -3.27,-1.37z"/>
  <path id="_29" class="fil7" d="M827.99 727.48c0.85,0 1.53,0.29 1.94,0.75 0.74,0.82 0.74,1.99 0.74,3.29 0,1.29 0,2.54 -0.69,3.34 -0.41,0.49 -1.08,0.81 -1.94,0.81 -0.87,0 -1.54,-0.32 -1.95,-0.81 -0.69,-0.8 -0.69,-2.05 -0.69,-3.75 0,-1.21 0,-2.17 0.55,-2.81 0.44,-0.53 1.22,-0.82 2.04,-0.82zm0 -1.51c-1.05,0 -2.38,0.32 -3.27,1.37 -0.92,1.07 -0.92,2.15 -0.92,4l0 9.88 1.6 0 0 -5.44c0.62,0.87 1.63,1.39 2.75,1.39 1.35,0 2.42,-0.54 3.09,-1.34 1.03,-1.24 1.03,-2.75 1.03,-4.31 0,-1.41 0,-3.01 -1.1,-4.25 -0.71,-0.78 -1.81,-1.3 -3.18,-1.3z"/>
  <path id="_30" class="fil7" d="M835.38 734.84c-0.69,0 -1.17,0.48 -1.17,1.17 0,0.68 0.48,1.16 1.17,1.16 0.68,0 1.16,-0.48 1.16,-1.16 0,-0.69 -0.48,-1.17 -1.16,-1.17z"/>
  <path id="_31" class="fil7" d="M845.08 734.91c-0.74,0.5 -1.61,0.76 -2.47,0.76 -0.9,0 -1.58,-0.3 -2.02,-0.81 -0.73,-0.84 -0.73,-2.21 -0.73,-3.38 0,-1.01 0,-2.36 0.71,-3.18 0.55,-0.64 1.33,-0.82 2.04,-0.82 0.82,0 1.66,0.25 2.35,0.68l0.78 -1.3c-0.94,-0.6 -2.04,-0.89 -3.13,-0.89 -1.47,0 -2.57,0.55 -3.28,1.37 -1.07,1.23 -1.07,2.95 -1.07,4.14 0,1.35 0,3.11 1.1,4.35 0.71,0.8 1.78,1.34 3.25,1.34 1.16,0 2.33,-0.34 3.29,-0.98l-0.82 -1.28z"/>
  <path id="_32" class="fil7" d="M851.85 727.48c1,0 1.78,0.41 2.24,1.09 0.5,0.76 0.5,1.83 0.5,3 0,1.17 0,2.24 -0.5,3 -0.46,0.68 -1.24,1.1 -2.24,1.1 -1.01,0 -1.79,-0.42 -2.25,-1.1 -0.5,-0.76 -0.5,-1.83 -0.5,-3 0,-1.17 0,-2.24 0.5,-3 0.46,-0.68 1.24,-1.09 2.25,-1.09zm0 -1.51c-1.63,0 -2.95,0.73 -3.69,1.94 -0.66,1.1 -0.66,2.36 -0.66,3.66 0,1.3 0,2.56 0.66,3.66 0.74,1.21 2.06,1.94 3.69,1.94 1.62,0 2.95,-0.73 3.68,-1.94 0.66,-1.1 0.66,-2.36 0.66,-3.66 0,-1.3 0,-2.56 -0.66,-3.66 -0.73,-1.21 -2.06,-1.94 -3.68,-1.94z"/>
  <path id="_33" class="fil7" d="M862.25 725.97c-1.07,0 -2.01,0.39 -2.63,0.98 -1.14,1.1 -1.14,2.52 -1.14,4.23l0 5.86 1.6 0 0 -5.86c0,-1.51 0,-2.54 0.69,-3.18 0.34,-0.32 0.87,-0.52 1.48,-0.52 0.62,0 1.15,0.2 1.49,0.52 0.69,0.64 0.69,1.67 0.69,3.18l0 5.86 1.6 0 0 -5.86c0,-1.51 0,-2.54 0.68,-3.18 0.35,-0.32 0.87,-0.52 1.49,-0.52 0.62,0 1.14,0.2 1.49,0.52 0.68,0.64 0.68,1.67 0.68,3.18l0 5.86 1.6 0 0 -5.86c0,-1.71 0,-3.13 -1.14,-4.23 -0.62,-0.59 -1.55,-0.98 -2.63,-0.98 -1.3,0 -2.36,0.57 -2.97,1.6 -0.62,-1.03 -1.67,-1.6 -2.98,-1.6z"/>
  <path id="_34" class="fil7" d="M875.54 734.84c-0.68,0 -1.16,0.48 -1.16,1.17 0,0.68 0.48,1.16 1.16,1.16 0.69,0 1.17,-0.48 1.17,-1.16 0,-0.69 -0.48,-1.17 -1.17,-1.17z"/>
  <path id="_35" class="fil7" d="M883.34 727.48c0.87,0 1.53,0.32 1.95,0.8 0.68,0.8 0.68,2.06 0.68,3.34 0,1.16 0,2.35 -0.8,3.22 -0.5,0.55 -1.28,0.83 -2.06,0.83 -0.71,0 -1.39,-0.23 -1.85,-0.78 -0.55,-0.67 -0.55,-1.65 -0.55,-2.86 0,-1.69 0,-2.95 0.69,-3.75 0.41,-0.48 1.07,-0.8 1.94,-0.8zm0.12 -1.51c-1.12,0 -2.13,0.52 -2.75,1.39l0 -5.58 -1.6 0 0 9.95c0,1.72 0,2.86 0.78,3.94 0.64,0.89 1.78,1.5 3.22,1.5 1.38,0 2.47,-0.54 3.18,-1.25 1.28,-1.31 1.28,-2.91 1.28,-4.3 0,-1.56 0,-3.07 -1.03,-4.3 -0.66,-0.8 -1.73,-1.35 -3.08,-1.35z"/>
  <path id="_36" class="fil7" d="M894.05 725.97c-1.06,0 -2.38,0.32 -3.27,1.37 -0.92,1.07 -0.92,2.15 -0.92,4l0 5.7 1.6 0 0 -5.7c0,-1.44 0,-2.4 0.55,-3.04 0.44,-0.53 1.21,-0.82 2.04,-0.82 0.39,0 0.75,0.07 1.07,0.18l0.48 -1.44c-0.46,-0.16 -0.98,-0.25 -1.55,-0.25z"/>
  <path id="_37" class="fil8" d="M723.63 754.79c0,-4.35 0,-6.34 0.92,-8.08 0.48,-0.94 1.25,-1.69 2.24,-2.12l-0.55 -1.17c-1.28,0.55 -2.31,1.55 -2.93,2.74 -1.05,1.99 -1.05,4.17 -1.05,8.63 0,4.46 0,6.65 1.05,8.64 0.62,1.19 1.65,2.2 2.93,2.75l0.55 -1.17c-0.99,-0.43 -1.76,-1.19 -2.24,-2.13 -0.92,-1.73 -0.92,-3.75 -0.92,-8.09z"/>
  <path id="_38" class="fil8" d="M735.34 746.35l-1.9 0 -3.66 6.81c-0.44,0.81 -0.87,1.58 -0.87,2.4 0,0.99 0.55,1.65 1.24,1.99 0.55,0.28 1.07,0.28 2.17,0.28l3.27 0 0 3.77 1.6 0 0 -3.77 1.31 0 0 -1.6 -1.31 0 0 -3.85 -1.6 0 0 3.85 -3.5 0c-0.87,0 -1.19,0 -1.37,-0.28 -0.09,-0.13 -0.11,-0.25 -0.11,-0.39 0,-0.41 0.18,-0.71 0.77,-1.83l3.96 -7.38z"/>
  <path id="_39" class="fil8" d="M740.9 746.35l0 1.6 4.39 0c1.1,0 1.24,0.02 1.37,0.11 0.09,0.07 0.16,0.16 0.16,0.32 0,0.35 -0.25,0.64 -0.87,1.38l-2.51 3.02 0 1.31c1.46,0 2.31,0 3.02,0.64 0.71,0.64 0.89,1.65 0.89,2.36 0,0.99 -0.34,1.81 -0.89,2.32 -0.55,0.5 -1.4,0.73 -2.27,0.73 -1.12,0 -2.17,-0.37 -2.81,-0.94l-1.05 1.26c0.98,0.82 2.35,1.28 3.86,1.28 1.44,0 2.63,-0.43 3.46,-1.19 0.84,-0.78 1.39,-1.97 1.39,-3.46 0,-1.49 -0.52,-2.7 -1.39,-3.5 -0.55,-0.51 -1.22,-0.83 -1.92,-0.97l1.51 -1.81c0.75,-0.91 1.28,-1.51 1.28,-2.43 0,-0.55 -0.19,-0.94 -0.46,-1.26 -0.66,-0.77 -1.51,-0.77 -2.54,-0.77l-4.62 0z"/>
  <path id="_40" class="fil8" d="M753.96 754.79c0,4.34 0,6.36 -0.91,8.09 -0.48,0.94 -1.26,1.7 -2.25,2.13l0.55 1.17c1.28,-0.55 2.31,-1.56 2.93,-2.75 1.05,-1.99 1.05,-4.18 1.05,-8.64 0,-4.46 0,-6.64 -1.05,-8.63 -0.62,-1.19 -1.65,-2.19 -2.93,-2.74l-0.55 1.17c0.99,0.43 1.77,1.18 2.25,2.12 0.91,1.74 0.91,3.73 0.91,8.08z"/>
  <path id="_41" class="fil8" d="M768.6 747.83c0.98,0 1.71,0.39 2.15,0.92 0.43,0.5 0.73,1.28 0.73,2.31 0,1.03 -0.3,1.81 -0.73,2.31 -0.44,0.52 -1.17,0.91 -2.15,0.91 -0.98,0 -1.72,-0.39 -2.15,-0.91 -0.44,-0.5 -0.73,-1.28 -0.73,-2.31 0,-1.03 0.29,-1.81 0.73,-2.31 0.43,-0.53 1.17,-0.92 2.15,-0.92zm0 -1.6c-1.49,0 -2.7,0.62 -3.48,1.51 -0.73,0.85 -1.1,2.01 -1.1,3.32 0,1.3 0.37,2.47 1.1,3.31 0.78,0.9 1.99,1.51 3.48,1.51 0.43,0 0.82,-0.04 1.21,-0.22l-3.09 5.94 1.88 0 2.84 -5.46c1.39,-2.68 1.73,-3.64 1.73,-5.08 0,-1.31 -0.36,-2.47 -1.09,-3.32 -0.78,-0.89 -1.99,-1.51 -3.48,-1.51z"/>
  <path id="_42" class="fil8" d="M785.75 747.83c0.99,0 1.72,0.39 2.15,0.92 0.44,0.5 0.74,1.28 0.74,2.31 0,1.03 -0.3,1.81 -0.74,2.31 -0.43,0.52 -1.16,0.91 -2.15,0.91 -0.98,0 -1.71,-0.39 -2.15,-0.91 -0.43,-0.5 -0.73,-1.28 -0.73,-2.31 0,-1.03 0.3,-1.81 0.73,-2.31 0.44,-0.53 1.17,-0.92 2.15,-0.92zm0 -1.6c-1.48,0 -2.69,0.62 -3.47,1.51 -0.73,0.85 -1.1,2.01 -1.1,3.32 0,1.3 0.37,2.47 1.1,3.31 0.78,0.9 1.99,1.51 3.47,1.51 0.44,0 0.83,-0.04 1.22,-0.22l-3.09 5.94 1.87 0 2.84 -5.46c1.4,-2.68 1.74,-3.64 1.74,-5.08 0,-1.31 -0.37,-2.47 -1.1,-3.32 -0.78,-0.89 -1.99,-1.51 -3.48,-1.51z"/>
  <path id="_43" class="fil8" d="M796.98 749.89c0,-1.1 0,-2.1 -0.91,-2.9 -0.75,-0.64 -1.67,-0.64 -2.68,-0.64l-0.32 0 0 1.6 0.32 0c0.85,0 1.24,0 1.51,0.2 0.39,0.3 0.39,0.8 0.39,1.74l0 11.71 1.69 0 0 -11.71z"/>
  <path id="_44" class="fil8" d="M804.67 746.23c-1.12,0 -2.52,0.3 -3.64,1.17l1.01 1.28c0.71,-0.57 1.69,-0.85 2.63,-0.85 0.82,0 1.49,0.19 1.99,0.6 0.59,0.48 0.89,1.26 0.89,1.97 0,1.12 -0.52,1.71 -1.67,2.88l-3.47 3.5c-1.01,1 -1.67,1.69 -1.67,2.72 0,0.87 0.5,1.51 1.14,1.83 0.55,0.27 1.05,0.27 1.94,0.27l5.86 0 0 -1.6 -5.63 0c-0.98,0 -1.21,0 -1.37,-0.09 -0.14,-0.07 -0.25,-0.21 -0.25,-0.41 0,-0.46 0.34,-0.76 1.21,-1.63l3.48 -3.5c1.28,-1.28 2.12,-2.26 2.12,-3.97 0,-1.33 -0.64,-2.54 -1.53,-3.23 -0.78,-0.59 -1.74,-0.94 -3.04,-0.94z"/>
  <path id="_45" class="fil8" d="M812.81 750.55c0,1.03 0,2.04 0.94,2.82 0.55,0.46 1.37,0.68 2.17,0.68 1.15,0 1.99,0.1 2.66,0.69 0.55,0.5 0.89,1.35 0.89,2.33 0,1.01 -0.32,1.81 -0.89,2.34 -0.53,0.48 -1.28,0.73 -2.27,0.73 -1.14,0 -2.15,-0.32 -2.83,-0.92l-1.06 1.26c0.99,0.83 2.41,1.26 3.89,1.26 1.47,0 2.63,-0.43 3.46,-1.19 0.84,-0.78 1.39,-1.97 1.39,-3.48 0,-1.48 -0.55,-2.7 -1.39,-3.47 -0.92,-0.85 -2.11,-1.15 -3.75,-1.15 -0.49,0 -0.94,-0.09 -1.19,-0.32 -0.28,-0.25 -0.32,-0.57 -0.32,-1.58l0 -0.65c0,-0.94 0,-1.45 0.38,-1.75 0.28,-0.2 0.67,-0.2 1.51,-0.2l3.82 0 0 -1.6 -3.82 0c-1,0 -1.92,0 -2.67,0.64 -0.92,0.8 -0.92,1.81 -0.92,2.91l0 0.65z"/>
  <polygon id="_46" class="fil8" points="824.14,755.22 824.14,756.55 828.94,756.55 828.94,755.22 "/>
  <path id="_47" class="fil8" d="M832.53 750.55c0,1.03 0,2.04 0.94,2.82 0.55,0.46 1.37,0.68 2.17,0.68 1.14,0 1.99,0.1 2.65,0.69 0.55,0.5 0.9,1.35 0.9,2.33 0,1.01 -0.32,1.81 -0.9,2.34 -0.52,0.48 -1.28,0.73 -2.26,0.73 -1.14,0 -2.15,-0.32 -2.84,-0.92l-1.05 1.26c0.98,0.83 2.4,1.26 3.89,1.26 1.46,0 2.63,-0.43 3.45,-1.19 0.85,-0.78 1.4,-1.97 1.4,-3.48 0,-1.48 -0.55,-2.7 -1.4,-3.47 -0.91,-0.85 -2.1,-1.15 -3.75,-1.15 -0.48,0 -0.94,-0.09 -1.19,-0.32 -0.27,-0.25 -0.32,-0.57 -0.32,-1.58l0 -0.65c0,-0.94 0,-1.45 0.39,-1.75 0.28,-0.2 0.66,-0.2 1.51,-0.2l3.82 0 0 -1.6 -3.82 0c-1.01,0 -1.92,0 -2.68,0.64 -0.91,0.8 -0.91,1.81 -0.91,2.91l0 0.65z"/>
  <path id="_48" class="fil8" d="M848.13 747.83c0.69,0 1.65,0.21 2.24,0.94 0.69,0.85 0.69,1.9 0.69,3.57l0 3.29c0,1.67 0,2.73 -0.69,3.57 -0.59,0.73 -1.55,0.94 -2.24,0.94 -0.69,0 -1.65,-0.21 -2.24,-0.94 -0.69,-0.84 -0.69,-1.9 -0.69,-3.57l0 -3.29c0,-1.67 0,-2.72 0.69,-3.57 0.59,-0.73 1.55,-0.94 2.24,-0.94zm0 -1.6c-1.3,0 -2.7,0.46 -3.61,1.6 -1.01,1.26 -1.01,2.7 -1.01,4.51l0 3.29c0,1.81 0,3.25 1.01,4.51 0.91,1.14 2.31,1.6 3.61,1.6 1.3,0 2.7,-0.46 3.61,-1.6 1.01,-1.26 1.01,-2.7 1.01,-4.51l0 -3.29c0,-1.81 0,-3.25 -1.01,-4.51 -0.91,-1.14 -2.31,-1.6 -3.61,-1.6z"/>
  <path id="_49" class="fil8" d="M862.84 756.91c0,1.03 -0.3,1.81 -0.74,2.31 -0.43,0.53 -1.16,0.92 -2.15,0.92 -0.98,0 -1.71,-0.39 -2.15,-0.92 -0.43,-0.5 -0.73,-1.28 -0.73,-2.31 0,-1.03 0.3,-1.8 0.73,-2.31 0.44,-0.52 1.17,-0.91 2.15,-0.91 0.99,0 1.72,0.39 2.15,0.91 0.44,0.51 0.74,1.28 0.74,2.31zm-7.46 0c0,1.31 0.37,2.47 1.1,3.32 0.78,0.89 1.99,1.51 3.47,1.51 1.49,0 2.7,-0.62 3.48,-1.51 0.73,-0.85 1.1,-2.01 1.1,-3.32 0,-1.3 -0.37,-2.47 -1.1,-3.31 -0.78,-0.89 -1.99,-1.51 -3.48,-1.51 -0.43,0 -0.82,0.04 -1.21,0.23l3.09 -5.97 -1.88 0 -2.83 5.49c-1.4,2.67 -1.74,3.63 -1.74,5.07z"/>
  <path id="_50" class="fil8" d="M867.05 746.35l0 1.6 4.39 0c1.1,0 1.23,0.02 1.37,0.11 0.09,0.07 0.16,0.16 0.16,0.32 0,0.35 -0.25,0.64 -0.87,1.38l-2.52 3.02 0 1.31c1.47,0 2.31,0 3.02,0.64 0.71,0.64 0.9,1.65 0.9,2.36 0,0.99 -0.35,1.81 -0.9,2.32 -0.55,0.5 -1.39,0.73 -2.26,0.73 -1.12,0 -2.17,-0.37 -2.81,-0.94l-1.06 1.26c0.99,0.82 2.36,1.28 3.87,1.28 1.44,0 2.63,-0.43 3.45,-1.19 0.85,-0.78 1.4,-1.97 1.4,-3.46 0,-1.49 -0.53,-2.7 -1.4,-3.5 -0.55,-0.51 -1.21,-0.83 -1.92,-0.97l1.51 -1.81c0.76,-0.91 1.28,-1.51 1.28,-2.43 0,-0.55 -0.18,-0.94 -0.46,-1.26 -0.66,-0.77 -1.5,-0.77 -2.53,-0.77l-4.62 0z"/>
  <path id="_51" class="fil8" d="M720.33 786.31c1.3,0 2.35,-0.58 2.97,-1.61 0.62,1.03 1.67,1.61 2.97,1.61 1.08,0 2.02,-0.39 2.63,-0.99 1.15,-1.1 1.15,-2.51 1.15,-4.23l0 -5.85 -1.6 0 0 5.85c0,1.51 0,2.54 -0.69,3.18 -0.34,0.32 -0.87,0.53 -1.49,0.53 -0.61,0 -1.14,-0.21 -1.48,-0.53 -0.69,-0.64 -0.69,-1.67 -0.69,-3.18l0 -5.85 -1.6 0 0 5.85c0,1.51 0,2.54 -0.69,3.18 -0.34,0.32 -0.87,0.53 -1.48,0.53 -0.62,0 -1.15,-0.21 -1.49,-0.53 -0.69,-0.64 -0.69,-1.67 -0.69,-3.18l0 -5.85 -1.6 0 0 5.85c0,1.72 0,3.13 1.15,4.23 0.61,0.6 1.55,0.99 2.63,0.99z"/>
  <path id="_52" class="fil8" d="M736.57 786.31c1.3,0 2.35,-0.58 2.97,-1.61 0.62,1.03 1.67,1.61 2.97,1.61 1.08,0 2.02,-0.39 2.63,-0.99 1.15,-1.1 1.15,-2.51 1.15,-4.23l0 -5.85 -1.6 0 0 5.85c0,1.51 0,2.54 -0.69,3.18 -0.34,0.32 -0.87,0.53 -1.49,0.53 -0.62,0 -1.14,-0.21 -1.48,-0.53 -0.69,-0.64 -0.69,-1.67 -0.69,-3.18l0 -5.85 -1.6 0 0 5.85c0,1.51 0,2.54 -0.69,3.18 -0.34,0.32 -0.87,0.53 -1.48,0.53 -0.62,0 -1.15,-0.21 -1.49,-0.53 -0.69,-0.64 -0.69,-1.67 -0.69,-3.18l0 -5.85 -1.6 0 0 5.85c0,1.72 0,3.13 1.15,4.23 0.61,0.6 1.55,0.99 2.63,0.99z"/>
  <path id="_53" class="fil8" d="M752.81 786.31c1.3,0 2.35,-0.58 2.97,-1.61 0.62,1.03 1.67,1.61 2.97,1.61 1.08,0 2.02,-0.39 2.63,-0.99 1.15,-1.1 1.15,-2.51 1.15,-4.23l0 -5.85 -1.6 0 0 5.85c0,1.51 0,2.54 -0.69,3.18 -0.34,0.32 -0.87,0.53 -1.49,0.53 -0.62,0 -1.14,-0.21 -1.48,-0.53 -0.69,-0.64 -0.69,-1.67 -0.69,-3.18l0 -5.85 -1.6 0 0 5.85c0,1.51 0,2.54 -0.69,3.18 -0.34,0.32 -0.87,0.53 -1.48,0.53 -0.62,0 -1.15,-0.21 -1.49,-0.53 -0.69,-0.64 -0.69,-1.67 -0.69,-3.18l0 -5.85 -1.6 0 0 5.85c0,1.72 0,3.13 1.14,4.23 0.62,0.6 1.56,0.99 2.64,0.99z"/>
  <path id="_54" class="fil8" d="M764.27 783.97c-0.69,0 -1.17,0.48 -1.17,1.17 0,0.69 0.48,1.17 1.17,1.17 0.68,0 1.16,-0.48 1.16,-1.17 0,-0.69 -0.48,-1.17 -1.16,-1.17z"/>
  <path id="_55" class="fil8" d="M771.26 775.1c-1.35,0 -2.42,0.55 -3.08,1.35 -1.03,1.23 -1.03,2.74 -1.03,4.3 0,1.39 0,2.99 1.28,4.3 0.71,0.71 1.8,1.26 3.18,1.26 1.44,0 2.58,-0.62 3.22,-1.51 0.78,-1.08 0.78,-2.22 0.78,-3.94l0 -9.95 -1.6 0 0 5.58c-0.62,-0.87 -1.62,-1.39 -2.75,-1.39zm2.75 6.06c0,1.21 0,2.2 -0.55,2.86 -0.46,0.55 -1.14,0.78 -1.85,0.78 -0.78,0 -1.56,-0.28 -2.06,-0.83 -0.8,-0.87 -0.8,-2.06 -0.8,-3.22 0,-1.28 0,-2.54 0.68,-3.34 0.42,-0.48 1.08,-0.8 1.95,-0.8 0.87,0 1.53,0.32 1.94,0.8 0.69,0.8 0.69,2.06 0.69,3.75z"/>
  <path id="_56" class="fil8" d="M778.13 775.24l0 5.85c0,1.6 0,2.93 1.07,4.05 0.55,0.57 1.53,1.17 2.93,1.17 1.39,0 2.38,-0.6 2.93,-1.17 1.07,-1.12 1.07,-2.45 1.07,-4.05l0 -5.85 -1.6 0 0 5.85c0,1.42 0,2.38 -0.66,3.04 -0.39,0.39 -0.99,0.67 -1.74,0.67 -0.76,0 -1.35,-0.28 -1.74,-0.67 -0.66,-0.66 -0.66,-1.62 -0.66,-3.04l0 -5.85 -1.6 0z"/>
  <polygon id="_57" class="fil8" points="788.37,775.24 791.67,780.66 788.3,786.17 790.07,786.17 792.56,781.89 795.01,786.17 796.81,786.17 793.45,780.66 796.74,775.24 794.98,775.24 792.56,779.4 790.18,775.24 "/>
  <path id="_58" class="fil8" d="M802.35 776.61c0.82,0 1.6,0.29 2.03,0.82 0.55,0.64 0.55,1.6 0.55,2.81 0,1.7 0,2.95 -0.68,3.76 -0.41,0.48 -1.08,0.8 -1.95,0.8 -0.87,0 -1.53,-0.32 -1.94,-0.8 -0.69,-0.81 -0.69,-2.06 -0.69,-3.34 0,-1.31 0,-2.47 0.73,-3.3 0.42,-0.46 1.1,-0.75 1.95,-0.75zm0 -1.51c-1.37,0 -2.47,0.52 -3.18,1.3 -1.1,1.24 -1.1,2.84 -1.1,4.26 0,1.55 0,3.06 1.03,4.3 0.66,0.8 1.74,1.35 3.09,1.35 1.12,0 2.13,-0.53 2.74,-1.4l0 0.23c0,1.39 0,2.22 -0.55,2.9 -0.43,0.55 -1.19,0.94 -2.31,0.94 -0.96,0 -1.92,-0.27 -2.67,-0.68l-0.67 1.37c1.01,0.55 2.22,0.82 3.34,0.82 1.51,0 2.68,-0.52 3.41,-1.32 1.05,-1.15 1.05,-2.41 1.05,-4.03l0 -4.67c0,-1.85 0,-2.92 -0.91,-4 -0.89,-1.05 -2.22,-1.37 -3.27,-1.37z"/>
  <path id="_59" class="fil8" d="M813.24 776.61c0.84,0 1.53,0.29 1.94,0.75 0.73,0.83 0.73,1.99 0.73,3.3 0,1.28 0,2.53 -0.68,3.34 -0.42,0.48 -1.08,0.8 -1.95,0.8 -0.87,0 -1.53,-0.32 -1.94,-0.8 -0.69,-0.81 -0.69,-2.06 -0.69,-3.76 0,-1.21 0,-2.17 0.55,-2.81 0.44,-0.53 1.21,-0.82 2.04,-0.82zm0 -1.51c-1.06,0 -2.38,0.32 -3.27,1.37 -0.92,1.08 -0.92,2.15 -0.92,4l0 9.88 1.6 0 0 -5.44c0.62,0.87 1.63,1.4 2.75,1.4 1.35,0 2.42,-0.55 3.08,-1.35 1.03,-1.24 1.03,-2.75 1.03,-4.3 0,-1.42 0,-3.02 -1.09,-4.26 -0.71,-0.78 -1.81,-1.3 -3.18,-1.3z"/>
  <path id="_60" class="fil8" d="M820.62 783.97c-0.68,0 -1.16,0.48 -1.16,1.17 0,0.69 0.48,1.17 1.16,1.17 0.69,0 1.17,-0.48 1.17,-1.17 0,-0.69 -0.48,-1.17 -1.17,-1.17z"/>
  <path id="_61" class="fil8" d="M830.32 784.04c-0.73,0.5 -1.6,0.76 -2.47,0.76 -0.89,0 -1.58,-0.3 -2.01,-0.8 -0.73,-0.85 -0.73,-2.22 -0.73,-3.39 0,-1.01 0,-2.36 0.71,-3.18 0.55,-0.64 1.32,-0.82 2.03,-0.82 0.83,0 1.67,0.25 2.36,0.68l0.78 -1.3c-0.94,-0.59 -2.04,-0.89 -3.14,-0.89 -1.46,0 -2.56,0.55 -3.27,1.37 -1.07,1.24 -1.07,2.95 -1.07,4.14 0,1.35 0,3.11 1.09,4.35 0.71,0.8 1.79,1.35 3.25,1.35 1.17,0 2.33,-0.35 3.3,-0.99l-0.83 -1.28z"/>
  <path id="_62" class="fil8" d="M837.09 776.61c1.01,0 1.79,0.41 2.24,1.1 0.51,0.75 0.51,1.83 0.51,2.99 0,1.17 0,2.24 -0.51,3 -0.45,0.68 -1.23,1.1 -2.24,1.1 -1,0 -1.78,-0.42 -2.24,-1.1 -0.5,-0.76 -0.5,-1.83 -0.5,-3 0,-1.16 0,-2.24 0.5,-2.99 0.46,-0.69 1.24,-1.1 2.24,-1.1zm0 -1.51c-1.62,0 -2.95,0.73 -3.68,1.94 -0.66,1.1 -0.66,2.36 -0.66,3.66 0,1.31 0,2.56 0.66,3.66 0.73,1.21 2.06,1.95 3.68,1.95 1.63,0 2.95,-0.74 3.69,-1.95 0.66,-1.1 0.66,-2.35 0.66,-3.66 0,-1.3 0,-2.56 -0.66,-3.66 -0.74,-1.21 -2.06,-1.94 -3.69,-1.94z"/>
  <path id="_63" class="fil8" d="M847.5 775.1c-1.08,0 -2.01,0.39 -2.63,0.98 -1.14,1.1 -1.14,2.52 -1.14,4.23l0 5.86 1.6 0 0 -5.86c0,-1.51 0,-2.54 0.68,-3.18 0.35,-0.32 0.87,-0.52 1.49,-0.52 0.62,0 1.14,0.2 1.49,0.52 0.68,0.64 0.68,1.67 0.68,3.18l0 5.86 1.6 0 0 -5.86c0,-1.51 0,-2.54 0.69,-3.18 0.34,-0.32 0.87,-0.52 1.49,-0.52 0.61,0 1.14,0.2 1.48,0.52 0.69,0.64 0.69,1.67 0.69,3.18l0 5.86 1.6 0 0 -5.86c0,-1.71 0,-3.13 -1.14,-4.23 -0.62,-0.59 -1.56,-0.98 -2.63,-0.98 -1.31,0 -2.36,0.57 -2.98,1.6 -0.61,-1.03 -1.67,-1.6 -2.97,-1.6z"/>
  <path id="_64" class="fil8" d="M860.79 783.97c-0.69,0 -1.17,0.48 -1.17,1.17 0,0.69 0.48,1.17 1.17,1.17 0.69,0 1.17,-0.48 1.17,-1.17 0,-0.69 -0.48,-1.17 -1.17,-1.17z"/>
  <path id="_65" class="fil8" d="M868.59 776.61c0.87,0 1.53,0.32 1.94,0.8 0.69,0.8 0.69,2.06 0.69,3.34 0,1.16 0,2.35 -0.8,3.22 -0.5,0.55 -1.28,0.83 -2.06,0.83 -0.71,0 -1.4,-0.23 -1.85,-0.78 -0.55,-0.66 -0.55,-1.65 -0.55,-2.86 0,-1.69 0,-2.95 0.68,-3.75 0.42,-0.48 1.08,-0.8 1.95,-0.8zm0.11 -1.51c-1.12,0 -2.12,0.52 -2.74,1.39l0 -5.58 -1.6 0 0 9.95c0,1.72 0,2.86 0.77,3.94 0.65,0.89 1.79,1.51 3.23,1.51 1.37,0 2.47,-0.55 3.18,-1.26 1.28,-1.31 1.28,-2.91 1.28,-4.3 0,-1.56 0,-3.07 -1.03,-4.3 -0.66,-0.8 -1.74,-1.35 -3.09,-1.35z"/>
  <path id="_66" class="fil8" d="M879.29 775.1c-1.05,0 -2.38,0.32 -3.27,1.37 -0.91,1.08 -0.91,2.15 -0.91,4l0 5.7 1.6 0 0 -5.7c0,-1.44 0,-2.4 0.55,-3.04 0.43,-0.53 1.21,-0.82 2.03,-0.82 0.39,0 0.76,0.07 1.08,0.18l0.48 -1.44c-0.46,-0.16 -0.98,-0.25 -1.56,-0.25z"/>
  <g id="_2759164495616">
   <path class="fil9" d="M806.95 437.78l0 0.37c0,7.27 -11.06,7.28 -11.06,0l0 -0.37c0,-3.05 2.48,-5.53 5.53,-5.53 3.05,0 5.53,2.48 5.53,5.53l0 0zm0 26.45l0 0.38c0,3.05 -2.48,5.53 -5.53,5.53 -3.05,0 -5.53,-2.48 -5.53,-5.53l0 -0.38c0,-3.05 2.48,-5.53 5.53,-5.53 3.05,0 5.53,2.48 5.53,5.53l0 0zm0 26.45l0 0.37c0,3.05 -2.48,5.53 -5.53,5.53 -3.05,0 -5.53,-2.47 -5.53,-5.53l0 -0.37c0,-3.05 2.48,-5.53 5.53,-5.53 3.05,0 5.53,2.48 5.53,5.53l0 0zm-4.96 -70.56l-0.37 0c-3.04,0 -5.53,-2.49 -5.53,-5.53 0,-3.06 2.48,-5.53 5.53,-5.53 3.06,0 5.72,2.47 5.72,5.53 0,3.04 -2.3,5.53 -5.35,5.53l0 0zm25.69 -1.85c-2.68,0 -5.03,-1.96 -5.45,-4.7 -0.46,-3.03 1.62,-5.85 4.63,-6.3 0.01,0 0.38,-0.05 0.39,-0.06 3,-0.44 5.83,1.65 6.27,4.67 0.45,3.02 -1.64,5.82 -4.66,6.28l-0.8 -5.47 0.46 5.51c-0.28,0.04 -0.56,0.07 -0.84,0.07l0 0zm-51.73 -0.32c-0.27,0 -0.53,-0.02 -0.8,-0.06 -0.03,0 -0.26,-0.03 -0.29,-0.04 -2.99,-0.49 -5.12,-3.33 -4.65,-6.33 0.48,-3.01 3.2,-5.06 6.21,-4.62 3.01,0.46 5.27,3.3 4.82,6.31 -0.41,2.75 -2.62,4.74 -5.29,4.74l0 0zm77.22 -5.61c-2.31,0 -4.47,-1.44 -5.25,-3.75 -0.97,-2.88 0.55,-6 3.42,-7l0.55 -0.17c2.9,-0.88 6.01,0.76 6.9,3.69 0.88,2.92 -0.77,6 -3.7,6.89l-1.6 -5.29 1.45 5.34c-0.59,0.2 -1.19,0.29 -1.77,0.29l0 0zm-102.6 -0.61c-0.57,0 -1.16,-0.09 -1.74,-0.29l-0.26 -0.08c-2.91,-0.91 -4.54,-4.01 -3.62,-6.92 0.91,-2.91 4,-4.55 6.92,-3.62l0.45 0.14c2.9,0.97 4.46,4.09 3.5,6.99 -0.77,2.31 -2.93,3.78 -5.25,3.78l0 0zm126.78 -9.24c-2,0 -3.94,-1.1 -4.92,-3 -1.4,-2.71 -0.33,-6.05 2.38,-7.44 0.02,-0.02 0.37,-0.19 0.39,-0.21 2.73,-1.35 6.05,-0.25 7.42,2.48 1.36,2.73 0.25,6.05 -2.48,7.42l-2.47 -4.95 2.21 5.08c-0.81,0.42 -1.68,0.62 -2.53,0.62l0 0zm-150.87 -0.92c-0.87,0 -1.77,-0.21 -2.59,-0.66l2.6 -4.87 -2.74 4.8c-2.72,-1.35 -3.88,-4.66 -2.53,-7.4 1.33,-2.73 4.6,-3.87 7.34,-2.55l0.53 0.27c2.69,1.44 3.71,4.78 2.27,7.48 -0.99,1.86 -2.9,2.93 -4.88,2.93l0 0zm173.19 -12.63c-1.69,0 -3.36,-0.77 -4.44,-2.24 -1.82,-2.45 -1.3,-5.91 1.16,-7.72l0.37 -0.28c2.49,-1.78 5.94,-1.2 7.71,1.29 1.77,2.48 1.2,5.93 -1.29,7.71l-0.21 0.16c-1,0.73 -2.15,1.08 -3.3,1.08l0 0zm-195.53 -1.24c-1.08,0 -2.17,-0.34 -3.13,-1.05 -0.01,-0.01 -0.31,-0.24 -0.32,-0.24 -2.44,-1.83 -2.94,-5.3 -1.11,-7.74 1.84,-2.44 5.3,-2.93 7.74,-1.11 2.44,1.83 3.08,5.4 1.27,7.84 -1.11,1.48 -2.76,2.3 -4.45,2.3l0 0zm102.81 129.43l0 0.37c0,3.05 -2.48,5.53 -5.53,5.53 -3.05,-0.01 -5.53,-2.48 -5.53,-5.53l0 -0.37c0,-3.06 2.48,-5.53 5.53,-5.53 3.05,0 5.53,2.48 5.53,5.53l0 0z"/>
   <polygon class="fil9" points="781.41,534.5 802.37,555.46 823.33,534.5 781.41,534.5 "/>
  </g>
  <path class="fil10" d="M802 130.38c15.92,0 28.85,12.92 28.85,28.85 0,15.94 -12.93,28.86 -28.85,28.86 -15.95,0 -28.85,-12.92 -28.85,-28.86 0,-15.93 12.9,-28.85 28.85,-28.85l0 0zm0 -11.53c22.46,0 40.33,18.2 40.66,40.66 0.47,32.39 -39.2,50.82 -40.66,50.82 -1.59,0 -40.68,-21.74 -40.68,-50.82 0,-22.46 18.2,-40.66 40.68,-40.66l0 0z"/>
  <path class="fil11" d="M802 142.76c-9.08,0 -16.5,7.39 -16.5,16.47 0,9.09 7.42,16.48 16.5,16.48 9.09,0 16.47,-7.39 16.47,-16.48 0,-9.08 -7.38,-16.47 -16.47,-16.47l0 0zm0 30.51c-7.74,0 -14.05,-6.3 -14.05,-14.04 0,-7.73 6.31,-14.03 14.05,-14.03 7.72,0 14.03,6.3 14.03,14.03 0,7.74 -6.31,14.04 -14.03,14.04l0 0z"/>
  <path class="fil11" d="M802 149.24c0.44,0 0.8,-0.37 0.8,-0.81l0 -1.62c0,-0.44 -0.36,-0.81 -0.8,-0.81 -0.46,0 -0.82,0.37 -0.82,0.81l0 1.62c0,0.44 0.36,0.81 0.82,0.81l0 0z"/>
  <path class="fil11" d="M802 169.05c-0.46,0 -0.82,0.36 -0.82,0.81l0 1.61c0,0.45 0.36,0.81 0.82,0.81 0.44,0 0.8,-0.36 0.8,-0.81l0 -1.61c0,-0.45 -0.36,-0.81 -0.8,-0.81l0 0z"/>
  <path class="fil11" d="M791.27 158.33l-1.62 0c-0.44,0 -0.8,0.37 -0.8,0.81 0,0.45 0.36,0.81 0.8,0.81l1.62 0c0.47,0 0.82,-0.36 0.82,-0.81 0,-0.44 -0.35,-0.81 -0.82,-0.81l0 0z"/>
  <path class="fil11" d="M814.33 158.33l-1.62 0c-0.44,0 -0.82,0.37 -0.82,0.81 0,0.45 0.38,0.81 0.82,0.81l1.62 0c0.44,0 0.79,-0.36 0.79,-0.81 0,-0.44 -0.35,-0.81 -0.79,-0.81l0 0z"/>
  <path class="fil11" d="M802.8 157.44l0 -5.17c0,-0.45 -0.36,-0.81 -0.8,-0.81 -0.46,0 -0.82,0.36 -0.82,0.81l0 5.18c-0.88,0.44 -1.29,1.48 -0.88,2.42l-6.81 5.3c-0.35,0.27 -0.41,0.78 -0.13,1.13 0.27,0.35 0.76,0.42 1.12,0.14l7.11 -5.52c2.14,0.47 3.18,-2.52 1.21,-3.48l0 0z"/>
  <path class="fil9" d="M949.33 321c4.04,0 9.8,11.64 12.08,15.17 -2.28,3.52 -8.07,15.14 -12.08,15.14l-294.69 0c-4.03,0 -9.8,-11.64 -12.08,-15.18 2.28,-3.51 8.07,-15.13 12.08,-15.13l294.69 0 0 0z"/>
  <polygon class="fil11" points="1039.92,154.74 1046.18,161 1039.92,167.26 "/>
  <path class="fil11" d="M1034.63 162.4l-0.11 0c-0.77,0 -1.4,-0.63 -1.4,-1.4 0,-0.77 0.63,-1.4 1.4,-1.4l0.11 0c0.77,0 1.37,0.63 1.37,1.4 0,0.77 -0.6,1.4 -1.37,1.4l0 0zm-6.62 0l-0.11 0c-0.77,0 -1.4,-0.63 -1.4,-1.4 0,-0.77 0.63,-1.4 1.4,-1.4 0.77,0 1.46,0.63 1.46,1.4 0,0.77 -0.58,1.4 -1.35,1.4l0 0zm-6.64 0l-0.08 0c-0.77,0 -1.4,-0.63 -1.4,-1.4 0,-0.77 0.63,-1.4 1.4,-1.4 0.76,0 1.45,0.63 1.45,1.4 0,0.77 -0.58,1.4 -1.37,1.4l0 0zm-6.59 0l-0.11 0c-0.77,0 -1.4,-0.63 -1.4,-1.4 0,-0.77 0.63,-1.4 1.4,-1.4l0.11 0c0.77,0 1.37,0.63 1.37,1.4 0,0.77 -0.6,1.4 -1.37,1.4l0 0zm-6.64 0l-0.09 0c-0.77,0 -1.4,-0.63 -1.4,-1.4 0,-0.77 0.63,-1.4 1.4,-1.4l0.09 0c0.79,0 1.4,0.63 1.4,1.4 0,0.77 -0.61,1.4 -1.4,1.4l0 0zm-6.62 0l-0.08 0c-0.77,0 -1.4,-0.63 -1.4,-1.4 0,-0.77 0.63,-1.4 1.4,-1.4 0.77,0 1.43,0.63 1.43,1.4 0,0.77 -0.58,1.4 -1.35,1.4l0 0zm-6.62 0l-0.08 0c-1.84,0 -1.84,-2.8 0,-2.8 0.77,0 1.46,0.63 1.46,1.4 0,0.77 -0.61,1.4 -1.38,1.4l0 0z"/>
  <polygon class="fil11" points="895.67,154.74 901.93,161 895.67,167.26 "/>
  <path class="fil11" d="M890.37 162.4l-0.08 0c-0.8,0 -1.4,-0.63 -1.4,-1.4 0,-0.77 0.6,-1.4 1.4,-1.4l0.08 0c0.77,0 1.4,0.63 1.4,1.4 0,0.77 -0.63,1.4 -1.4,1.4l0 0zm-6.62 0l-0.11 0c-0.74,0 -1.37,-0.63 -1.37,-1.4 0,-0.77 0.63,-1.4 1.37,-1.4 0.8,0 1.46,0.63 1.46,1.4 0,0.77 -0.58,1.4 -1.35,1.4l0 0zm-6.61 0l-0.08 0c-0.8,0 -1.41,-0.63 -1.41,-1.4 0,-0.77 0.61,-1.4 1.41,-1.4 0.76,0 1.42,0.63 1.42,1.4 0,0.77 -0.57,1.4 -1.34,1.4l0 0zm-6.62 0l-0.11 0c-0.77,0 -1.37,-0.63 -1.37,-1.4 0,-0.77 0.6,-1.4 1.37,-1.4l0.11 0c0.77,0 1.4,0.63 1.4,1.4 0,0.77 -0.63,1.4 -1.4,1.4l0 0zm-6.61 0l-0.11 0c-0.77,0 -1.4,-0.63 -1.4,-1.4 0,-0.77 0.63,-1.4 1.4,-1.4l0.11 0c0.76,0 1.4,0.63 1.4,1.4 0,0.77 -0.64,1.4 -1.4,1.4l0 0zm-6.62 0l-0.11 0c-0.77,0 -1.4,-0.63 -1.4,-1.4 0,-0.77 0.63,-1.4 1.4,-1.4 0.8,0 1.45,0.63 1.45,1.4 0,0.77 -0.57,1.4 -1.34,1.4l0 0zm-6.62 0l-0.11 0c-1.84,0 -1.84,-2.8 0,-2.8 0.77,0 1.46,0.63 1.46,1.4 0,0.77 -0.58,1.4 -1.35,1.4l0 0z"/>
  <g id="_2758855063232">
   <polygon class="fil11" points="750.45,154.74 756.68,161 750.45,167.26 "/>
   <path class="fil11" d="M745.15 162.4l-0.11 0c-0.77,0 -1.4,-0.63 -1.4,-1.4 0,-0.77 0.63,-1.4 1.4,-1.4l0.11 0c0.77,0 1.37,0.63 1.37,1.4 0,0.77 -0.6,1.4 -1.37,1.4l0 0zm-6.64 0l-0.09 0c-0.76,0 -1.4,-0.63 -1.4,-1.4 0,-0.77 0.64,-1.4 1.4,-1.4 0.77,0 1.46,0.63 1.46,1.4 0,0.77 -0.58,1.4 -1.37,1.4l0 0zm-6.62 0l-0.08 0c-0.77,0 -1.4,-0.63 -1.4,-1.4 0,-0.77 0.63,-1.4 1.4,-1.4 0.77,0 1.45,0.63 1.45,1.4 0,0.77 -0.6,1.4 -1.37,1.4l0 0zm-6.61 0l-0.09 0c-0.77,0 -1.4,-0.63 -1.4,-1.4 0,-0.77 0.63,-1.4 1.4,-1.4l0.09 0c0.79,0 1.4,0.63 1.4,1.4 0,0.77 -0.61,1.4 -1.4,1.4l0 0zm-6.62 0l-0.08 0c-0.77,0 -1.4,-0.63 -1.4,-1.4 0,-0.77 0.63,-1.4 1.4,-1.4l0.08 0c0.77,0 1.4,0.63 1.4,1.4 0,0.77 -0.63,1.4 -1.4,1.4l0 0zm-6.62 0l-0.08 0c-0.77,0 -1.4,-0.63 -1.4,-1.4 0,-0.77 0.63,-1.4 1.4,-1.4 0.77,0 1.46,0.63 1.46,1.4 0,0.77 -0.61,1.4 -1.38,1.4l0 0zm-6.61 0l-0.08 0c-1.84,0 -1.84,-2.8 0,-2.8 0.76,0 1.42,0.63 1.42,1.4 0,0.77 -0.57,1.4 -1.34,1.4l0 0z"/>
   <polygon class="fil11" points="604.19,154.74 610.45,161 604.19,167.26 "/>
   <path class="fil11" d="M598.89 162.4l-0.08 0c-0.77,0 -1.4,-0.63 -1.4,-1.4 0,-0.77 0.63,-1.4 1.4,-1.4l0.08 0c0.77,0 1.4,0.63 1.4,1.4 0,0.77 -0.63,1.4 -1.4,1.4l0 0zm-6.62 0l-0.08 0c-0.77,0 -1.4,-0.63 -1.4,-1.4 0,-0.77 0.63,-1.4 1.4,-1.4 0.77,0 1.43,0.63 1.43,1.4 0,0.77 -0.58,1.4 -1.35,1.4l0 0zm-6.61 0l-0.09 0c-0.76,0 -1.4,-0.63 -1.4,-1.4 0,-0.77 0.64,-1.4 1.4,-1.4 0.77,0 1.43,0.63 1.43,1.4 0,0.77 -0.57,1.4 -1.34,1.4l0 0zm-6.62 0l-0.08 0c-0.77,0 -1.4,-0.63 -1.4,-1.4 0,-0.77 0.63,-1.4 1.4,-1.4l0.08 0c0.77,0 1.4,0.63 1.4,1.4 0,0.77 -0.63,1.4 -1.4,1.4l0 0zm-6.61 0l-0.09 0c-0.77,0 -1.4,-0.63 -1.4,-1.4 0,-0.77 0.63,-1.4 1.4,-1.4l0.09 0c0.76,0 1.4,0.63 1.4,1.4 0,0.77 -0.64,1.4 -1.4,1.4l0 0zm-6.62 0l-0.08 0c-0.77,0 -1.4,-0.63 -1.4,-1.4 0,-0.77 0.63,-1.4 1.4,-1.4 0.77,0 1.43,0.63 1.43,1.4 0,0.77 -0.58,1.4 -1.35,1.4l0 0zm-6.62 0l-0.08 0c-1.84,0 -1.84,-2.8 0,-2.8 0.77,0 1.43,0.63 1.43,1.4 0,0.77 -0.58,1.4 -1.35,1.4l0 0z"/>
  </g>
  <g id="_2758855047824">
   <polygon class="fil11" points="702.3,452.3 708.53,458.56 702.3,464.81 "/>
   <path class="fil11" d="M697.01 459.95l-0.11 0c-0.77,0 -1.4,-0.62 -1.4,-1.39 0,-0.77 0.63,-1.4 1.4,-1.4l0.11 0c0.76,0 1.37,0.63 1.37,1.4 0,0.77 -0.61,1.39 -1.37,1.39l0 0zm-6.65 0l-0.08 0c-0.77,0 -1.4,-0.62 -1.4,-1.39 0,-0.77 0.63,-1.4 1.4,-1.4 0.77,0 1.45,0.63 1.45,1.4 0,0.77 -0.57,1.39 -1.37,1.39l0 0zm-6.61 0l-0.09 0c-0.76,0 -1.4,-0.62 -1.4,-1.39 0,-0.77 0.64,-1.4 1.4,-1.4 0.77,0 1.46,0.63 1.46,1.4 0,0.77 -0.6,1.39 -1.37,1.39l0 0zm-6.62 0l-0.08 0c-0.77,0 -1.4,-0.62 -1.4,-1.39 0,-0.77 0.63,-1.4 1.4,-1.4l0.08 0c0.8,0 1.4,0.63 1.4,1.4 0,0.77 -0.6,1.39 -1.4,1.39l0 0zm-6.62 0l-0.08 0c-0.77,0 -1.4,-0.62 -1.4,-1.39 0,-0.77 0.63,-1.4 1.4,-1.4l0.08 0c0.77,0 1.4,0.63 1.4,1.4 0,0.77 -0.63,1.39 -1.4,1.39l0 0zm-6.61 0l-0.08 0c-0.77,0 -1.4,-0.62 -1.4,-1.39 0,-0.77 0.63,-1.4 1.4,-1.4 0.76,0 1.45,0.63 1.45,1.4 0,0.77 -0.6,1.39 -1.37,1.39l0 0zm-6.62 0l-0.08 0c-1.84,0 -1.84,-2.79 0,-2.79 0.77,0 1.43,0.63 1.43,1.4 0,0.77 -0.58,1.39 -1.35,1.39l0 0z"/>
   <polygon class="fil11" points="556.04,452.3 562.3,458.56 556.04,464.81 "/>
   <path class="fil11" d="M550.74 459.95l-0.08 0c-0.77,0 -1.4,-0.62 -1.4,-1.39 0,-0.77 0.63,-1.4 1.4,-1.4l0.08 0c0.77,0 1.4,0.63 1.4,1.4 0,0.77 -0.63,1.39 -1.4,1.39l0 0zm-6.61 0l-0.08 0c-0.77,0 -1.4,-0.62 -1.4,-1.39 0,-0.77 0.63,-1.4 1.4,-1.4 0.76,0 1.42,0.63 1.42,1.4 0,0.77 -0.57,1.39 -1.34,1.39l0 0zm-6.62 0l-0.08 0c-0.77,0 -1.4,-0.62 -1.4,-1.39 0,-0.77 0.63,-1.4 1.4,-1.4 0.77,0 1.43,0.63 1.43,1.4 0,0.77 -0.58,1.39 -1.35,1.39l0 0zm-6.61 0l-0.09 0c-0.76,0 -1.4,-0.62 -1.4,-1.39 0,-0.77 0.64,-1.4 1.4,-1.4l0.09 0c0.76,0 1.4,0.63 1.4,1.4 0,0.77 -0.64,1.39 -1.4,1.39l0 0zm-6.62 0l-0.08 0c-0.77,0 -1.4,-0.62 -1.4,-1.39 0,-0.77 0.63,-1.4 1.4,-1.4l0.08 0c0.77,0 1.4,0.63 1.4,1.4 0,0.77 -0.63,1.39 -1.4,1.39l0 0zm-6.62 0l-0.08 0c-0.77,0 -1.4,-0.62 -1.4,-1.39 0,-0.77 0.63,-1.4 1.4,-1.4 0.77,0 1.43,0.63 1.43,1.4 0,0.77 -0.58,1.39 -1.35,1.39l0 0zm-6.61 0l-0.08 0c-1.84,0 -1.84,-2.79 0,-2.79 0.77,0 1.42,0.63 1.42,1.4 0,0.77 -0.57,1.39 -1.34,1.39l0 0z"/>
  </g>
  <g id="_2758957721008">
   <polygon class="fil11" points="1080.59,452.3 1086.82,458.56 1080.59,464.81 "/>
   <path class="fil11" d="M1075.29 459.95l-0.11 0c-0.77,0 -1.4,-0.62 -1.4,-1.39 0,-0.77 0.63,-1.4 1.4,-1.4l0.11 0c0.77,0 1.37,0.63 1.37,1.4 0,0.77 -0.6,1.39 -1.37,1.39l0 0zm-6.64 0l-0.08 0c-0.77,0 -1.41,-0.62 -1.41,-1.39 0,-0.77 0.64,-1.4 1.41,-1.4 0.76,0 1.45,0.63 1.45,1.4 0,0.77 -0.58,1.39 -1.37,1.39l0 0zm-6.62 0l-0.08 0c-0.77,0 -1.4,-0.62 -1.4,-1.39 0,-0.77 0.63,-1.4 1.4,-1.4 0.77,0 1.45,0.63 1.45,1.4 0,0.77 -0.6,1.39 -1.37,1.39l0 0zm-6.61 0l-0.09 0c-0.77,0 -1.4,-0.62 -1.4,-1.39 0,-0.77 0.63,-1.4 1.4,-1.4l0.09 0c0.79,0 1.4,0.63 1.4,1.4 0,0.77 -0.61,1.39 -1.4,1.39l0 0zm-6.62 0l-0.08 0c-0.77,0 -1.4,-0.62 -1.4,-1.39 0,-0.77 0.63,-1.4 1.4,-1.4l0.08 0c0.77,0 1.4,0.63 1.4,1.4 0,0.77 -0.63,1.39 -1.4,1.39l0 0zm-6.62 0l-0.08 0c-0.77,0 -1.4,-0.62 -1.4,-1.39 0,-0.77 0.63,-1.4 1.4,-1.4 0.77,0 1.46,0.63 1.46,1.4 0,0.77 -0.61,1.39 -1.38,1.39l0 0zm-6.61 0l-0.08 0c-1.84,0 -1.84,-2.79 0,-2.79 0.76,0 1.42,0.63 1.42,1.4 0,0.77 -0.57,1.39 -1.34,1.39l0 0z"/>
   <polygon class="fil11" points="934.33,452.3 940.59,458.56 934.33,464.81 "/>
   <path class="fil11" d="M929.03 459.95l-0.08 0c-0.77,0 -1.4,-0.62 -1.4,-1.39 0,-0.77 0.63,-1.4 1.4,-1.4l0.08 0c0.77,0 1.4,0.63 1.4,1.4 0,0.77 -0.63,1.39 -1.4,1.39l0 0zm-6.62 0l-0.08 0c-0.77,0 -1.4,-0.62 -1.4,-1.39 0,-0.77 0.63,-1.4 1.4,-1.4 0.77,0 1.43,0.63 1.43,1.4 0,0.77 -0.58,1.39 -1.35,1.39l0 0zm-6.61 0l-0.08 0c-0.77,0 -1.41,-0.62 -1.41,-1.39 0,-0.77 0.64,-1.4 1.41,-1.4 0.76,0 1.42,0.63 1.42,1.4 0,0.77 -0.57,1.39 -1.34,1.39l0 0zm-6.62 0l-0.08 0c-0.77,0 -1.4,-0.62 -1.4,-1.39 0,-0.77 0.63,-1.4 1.4,-1.4l0.08 0c0.77,0 1.4,0.63 1.4,1.4 0,0.77 -0.63,1.39 -1.4,1.39l0 0zm-6.61 0l-0.09 0c-0.77,0 -1.4,-0.62 -1.4,-1.39 0,-0.77 0.63,-1.4 1.4,-1.4l0.09 0c0.76,0 1.4,0.63 1.4,1.4 0,0.77 -0.64,1.39 -1.4,1.39l0 0zm-6.62 0l-0.08 0c-0.77,0 -1.4,-0.62 -1.4,-1.39 0,-0.77 0.63,-1.4 1.4,-1.4 0.77,0 1.43,0.63 1.43,1.4 0,0.77 -0.58,1.39 -1.35,1.39l0 0zm-6.62 0l-0.08 0c-1.84,0 -1.84,-2.79 0,-2.79 0.77,0 1.43,0.63 1.43,1.4 0,0.77 -0.58,1.39 -1.35,1.39l0 0z"/>
  </g>
  <g id="_2758957731184">
   <polygon class="fil11" points="1250.26,622.66 1244,628.92 1250.26,635.18 "/>
   <path class="fil11" d="M1414.53 627.52l-0.08 0c-0.77,0 -1.4,0.63 -1.4,1.4 0,0.78 0.63,1.4 1.4,1.4 0.77,0 1.45,-0.62 1.45,-1.4 0,-0.77 -0.57,-1.4 -1.37,-1.4l0 0zm-6.61 0l-0.09 0c-0.77,0 -1.4,0.63 -1.4,1.4 0,0.78 0.63,1.4 1.4,1.4 0.77,0 1.46,-0.62 1.46,-1.4 0,-0.77 -0.61,-1.4 -1.37,-1.4l0 0zm-6.62 0l-0.08 0c-0.77,0 -1.4,0.63 -1.4,1.4 0,0.78 0.63,1.4 1.4,1.4 0.77,0 1.42,-0.62 1.42,-1.4 0,-0.77 -0.57,-1.4 -1.34,-1.4l0 0zm-6.62 0l-0.08 0c-0.77,0 -1.4,0.63 -1.4,1.4 0,0.78 0.63,1.4 1.4,1.4l0.08 0c0.77,0 1.4,-0.62 1.4,-1.4 0,-0.77 -0.63,-1.4 -1.4,-1.4l0 0zm-6.61 0l-0.08 0c-0.77,0 -1.4,0.63 -1.4,1.4 0,0.78 0.63,1.4 1.4,1.4l0.08 0c0.77,0 1.4,-0.62 1.4,-1.4 0,-0.77 -0.63,-1.4 -1.4,-1.4l0 0zm-6.62 0l-0.08 0c-0.77,0 -1.4,0.63 -1.4,1.4 0,0.78 0.63,1.4 1.4,1.4 0.77,0 1.43,-0.62 1.43,-1.4 0,-0.77 -0.58,-1.4 -1.35,-1.4l0 0zm-6.61 0l-0.09 0c-0.76,0 -1.4,0.63 -1.4,1.4 0,0.78 0.64,1.4 1.4,1.4 0.77,0 1.43,-0.62 1.43,-1.4 0,-0.77 -0.58,-1.4 -1.34,-1.4l0 0zm-6.62 0l-0.08 0c-0.8,0 -1.4,0.63 -1.4,1.4 0,0.78 0.6,1.4 1.4,1.4l0.08 0c0.77,0 1.4,-0.62 1.4,-1.4 0,-0.77 -0.63,-1.4 -1.4,-1.4l0 0zm-6.62 0l-0.11 0c-0.74,0 -1.37,0.63 -1.37,1.4 0,0.78 0.63,1.4 1.37,1.4l0.11 0c0.77,0 1.4,-0.62 1.4,-1.4 0,-0.77 -0.63,-1.4 -1.4,-1.4l0 0zm-6.61 0l-0.08 0c-0.8,0 -1.4,0.63 -1.4,1.4 0,0.78 0.6,1.4 1.4,1.4 0.77,0 1.42,-0.62 1.42,-1.4 0,-0.77 -0.57,-1.4 -1.34,-1.4l0 0zm-6.62 0l-0.11 0c-0.77,0 -1.37,0.63 -1.37,1.4 0,0.78 0.6,1.4 1.37,1.4 0.8,0 1.46,-0.62 1.46,-1.4 0,-0.77 -0.58,-1.4 -1.35,-1.4l0 0zm-6.61 0l-0.08 0c-0.8,0 -1.41,0.63 -1.41,1.4 0,0.78 0.61,1.4 1.41,1.4l0.08 0c0.77,0 1.4,-0.62 1.4,-1.4 0,-0.77 -0.63,-1.4 -1.4,-1.4l0 0zm-6.62 0l-0.11 0c-0.77,0 -1.4,0.63 -1.4,1.4 0,0.78 0.63,1.4 1.4,1.4l0.11 0c0.77,0 1.4,-0.62 1.4,-1.4 0,-0.77 -0.63,-1.4 -1.4,-1.4l0 0zm-6.61 0l-0.11 0c-0.77,0 -1.4,0.63 -1.4,1.4 0,0.78 0.63,1.4 1.4,1.4 0.76,0 1.45,-0.62 1.45,-1.4 0,-0.77 -0.58,-1.4 -1.34,-1.4l0 0zm-6.62 0l-0.11 0c-0.77,0 -1.4,0.63 -1.4,1.4 0,0.78 0.63,1.4 1.4,1.4 0.77,0 1.45,-0.62 1.45,-1.4 0,-0.77 -0.57,-1.4 -1.34,-1.4l0 0zm-6.62 0l-0.11 0c-0.76,0 -1.4,0.63 -1.4,1.4 0,0.78 0.64,1.4 1.4,1.4l0.11 0c0.77,0 1.4,-0.62 1.4,-1.4 0,-0.77 -0.63,-1.4 -1.4,-1.4l0 0zm-6.61 0l-0.11 0c-0.77,0 -1.4,0.63 -1.4,1.4 0,0.78 0.63,1.4 1.4,1.4l0.11 0c0.77,0 1.4,-0.62 1.4,-1.4 0,-0.77 -0.63,-1.4 -1.4,-1.4l0 0zm-6.62 0l-0.11 0c-0.77,0 -1.4,0.63 -1.4,1.4 0,0.78 0.63,1.4 1.4,1.4 0.77,0 1.46,-0.62 1.46,-1.4 0,-0.77 -0.58,-1.4 -1.35,-1.4l0 0zm-6.61 0l-0.11 0c-0.77,0 -1.4,0.63 -1.4,1.4 0,0.78 0.63,1.4 1.4,1.4 0.77,0 1.45,-0.62 1.45,-1.4 0,-0.77 -0.57,-1.4 -1.34,-1.4l0 0zm-6.65 0l-0.08 0c-0.77,0 -1.4,0.63 -1.4,1.4 0,0.78 0.63,1.4 1.4,1.4 0.77,0 1.46,-0.62 1.46,-1.4 0,-0.77 -0.58,-1.4 -1.38,-1.4l0 0zm-6.61 0l-0.09 0c-0.76,0 -1.39,0.63 -1.39,1.4 0,0.78 0.63,1.4 1.39,1.4l0.09 0c0.77,0 1.4,-0.62 1.4,-1.4 0,-0.77 -0.63,-1.4 -1.4,-1.4l0 0zm-6.62 0l-0.08 0c-0.77,0 -1.4,0.63 -1.4,1.4 0,0.78 0.63,1.4 1.4,1.4 0.77,0 1.45,-0.62 1.45,-1.4 0,-0.77 -0.6,-1.4 -1.37,-1.4l0 0zm-6.61 0l-0.09 0c-0.77,0 -1.4,0.63 -1.4,1.4 0,0.78 0.63,1.4 1.4,1.4 0.77,0 1.43,-0.62 1.43,-1.4 0,-0.77 -0.58,-1.4 -1.34,-1.4l0 0zm-6.62 0l-0.08 0c-0.77,0 -1.4,0.63 -1.4,1.4 0,0.78 0.63,1.4 1.4,1.4 0.77,0 1.43,-0.62 1.43,-1.4 0,-0.77 -0.58,-1.4 -1.35,-1.4l0 0zm-6.62 0l-0.08 0c-1.84,0 -1.84,2.8 0,2.8l0.08 0c0.77,0 1.4,-0.62 1.4,-1.4 0,-0.77 -0.63,-1.4 -1.4,-1.4l0 0zm190.71 -71.12c0.77,0 1.4,0.62 1.4,1.39l0 0.1c0,0.77 -0.63,1.39 -1.4,1.39 -0.77,0 -1.4,-0.62 -1.4,-1.39l0 -0.1c0,-0.77 0.63,-1.39 1.4,-1.39l0 0zm0 6.61c0.77,0 1.4,0.63 1.4,1.4 0,0.77 -0.63,1.45 -1.4,1.45 -0.77,0 -1.4,-0.59 -1.4,-1.36l0 -0.09c0,-0.77 0.63,-1.4 1.4,-1.4l0 0zm0 6.62c0.77,0 1.4,0.63 1.4,1.4 0,0.77 -0.63,1.44 -1.4,1.44 -0.77,0 -1.4,-0.58 -1.4,-1.35l0 -0.09c0,-0.77 0.63,-1.4 1.4,-1.4l0 0zm0 6.62c0.77,0 1.4,0.63 1.4,1.4 0,0.77 -0.63,1.44 -1.4,1.44 -0.77,0 -1.4,-0.58 -1.4,-1.35l0 -0.09c0,-0.77 0.63,-1.4 1.4,-1.4l0 0zm0 6.62c0.77,0 1.4,0.62 1.4,1.39l0 0.1c0,0.77 -0.63,1.39 -1.4,1.39 -0.77,0 -1.4,-0.62 -1.4,-1.39l0 -0.1c0,-0.77 0.63,-1.39 1.4,-1.39l0 0zm0 6.61c0.77,0 1.4,0.63 1.4,1.4l0 0.09c0,0.78 -0.63,1.4 -1.4,1.4 -0.77,0 -1.4,-0.62 -1.4,-1.4l0 -0.09c0,-0.77 0.63,-1.4 1.4,-1.4l0 0zm0 6.62c0.77,0 1.4,0.63 1.4,1.4l0 0.09c0,0.77 -0.63,1.4 -1.4,1.4 -0.77,0 -1.4,-0.63 -1.4,-1.4l0 -0.09c0,-0.77 0.63,-1.4 1.4,-1.4l0 0zm0 6.62c0.77,0 1.4,0.62 1.4,1.39l0 0.1c0,0.77 -0.63,1.4 -1.4,1.4 -0.77,0 -1.4,-0.63 -1.4,-1.4l0 -0.09c0,-0.78 0.63,-1.4 1.4,-1.4l0 0zm-0.66 6.56c0.11,0 0.22,0.01 0.33,0.04 0.74,0.18 1.21,0.93 1.02,1.68 0,0 -0.03,0.1 -0.03,0.1 -0.17,0.75 -0.93,1.21 -1.68,1.03 -0.74,-0.19 -1.2,-0.94 -1.01,-1.69l1.34 0.33 -1.34 -0.42c0.16,-0.64 0.74,-1.07 1.37,-1.07l0 0zm-2.44 6.13c0.24,0 0.49,0.06 0.71,0.19 0.66,0.38 0.88,1.24 0.5,1.9 -0.39,0.67 -1.24,0.95 -1.93,0.56 -0.65,-0.39 -0.9,-1.2 -0.52,-1.87l0.03 -0.08c0.27,-0.45 0.74,-0.7 1.21,-0.7l0 0zm-4.01 5.23c0.36,0 0.74,0.14 1.02,0.44 0.52,0.56 0.49,1.44 -0.06,1.97 -0.58,0.53 -1.48,0.53 -2,-0.01 -0.52,-0.55 -0.55,-1.39 -0.03,-1.93 0.03,-0.01 0.11,-0.09 0.11,-0.1 0.27,-0.25 0.6,-0.37 0.96,-0.37l0 0zm-5.3 3.92c0.5,0 0.99,0.27 1.24,0.75 0.35,0.68 0.11,1.52 -0.58,1.89 -0.69,0.37 -1.56,0.14 -1.92,-0.54 -0.39,-0.67 -0.17,-1.51 0.49,-1.88l0.11 -0.05c0.22,-0.11 0.44,-0.17 0.66,-0.17l0 0zm-6.17 2.33c0.65,0 1.23,0.45 1.37,1.11 0.16,0.76 -0.33,1.5 -1.1,1.65 -0.74,0.16 -1.51,-0.31 -1.68,-1.06 -0.16,-0.75 0.25,-1.48 1.02,-1.65 0,0 0.11,-0.02 0.11,-0.02 0.08,-0.02 0.19,-0.03 0.28,-0.03l0 0zm-6.68 0.57l0.11 0c0.77,0 1.38,0.62 1.38,1.4 0,0.77 -0.61,1.39 -1.38,1.39l-0.11 0c-0.76,0 -1.4,-0.62 -1.4,-1.39 0,-0.78 0.64,-1.4 1.4,-1.4l0 0zm25.26 -74.88c0.77,0 1.4,-0.63 1.4,-1.4l0 -0.1c0,-0.77 -0.63,-1.39 -1.4,-1.39 -0.77,0 -1.4,0.62 -1.4,1.39l0 0.1c0,0.77 0.63,1.4 1.4,1.4l0 0zm0 -6.62c0.77,0 1.4,-0.63 1.4,-1.4l0 -0.09c0,-0.77 -0.63,-1.4 -1.4,-1.4 -0.77,0 -1.4,0.63 -1.4,1.4l0 0.09c0,0.77 0.63,1.4 1.4,1.4l0 0zm0 -6.62c0.77,0 1.4,-0.62 1.4,-1.4l0 -0.09c0,-0.77 -0.63,-1.4 -1.4,-1.4 -0.77,0 -1.4,0.63 -1.4,1.4l0 0.09c0,0.78 0.63,1.4 1.4,1.4l0 0zm-0.03 -13.19c0.77,0 1.4,-0.62 1.4,-1.39l0 -0.1c0,-0.77 -0.63,-1.39 -1.4,-1.39 -0.77,0 -1.4,0.62 -1.4,1.39l0 0.1c0,0.77 0.63,1.39 1.4,1.39l0 0zm0 -6.61c0.77,0 1.4,-0.63 1.4,-1.4 0,-0.77 -0.63,-1.45 -1.4,-1.45 -0.77,0 -1.4,0.58 -1.4,1.35l0 0.1c0,0.77 0.63,1.4 1.4,1.4l0 0zm0 -6.62c0.77,0 1.4,-0.63 1.4,-1.4 0,-0.77 -0.63,-1.44 -1.4,-1.44 -0.77,0 -1.4,0.57 -1.4,1.35l0 0.09c0,0.77 0.63,1.4 1.4,1.4l0 0zm0 -6.62c0.77,0 1.4,-0.63 1.4,-1.4 0,-0.77 -0.63,-1.44 -1.4,-1.44 -0.77,0 -1.4,0.58 -1.4,1.35l0 0.09c0,0.77 0.63,1.4 1.4,1.4l0 0zm0 -6.62c0.77,0 1.4,-0.62 1.4,-1.39l0 -0.1c0,-0.77 -0.63,-1.39 -1.4,-1.39 -0.77,0 -1.4,0.62 -1.4,1.39l0 0.1c0,0.77 0.63,1.39 1.4,1.39l0 0zm0 -6.61c0.77,0 1.4,-0.63 1.4,-1.4l0 -0.09c0,-0.78 -0.63,-1.4 -1.4,-1.4 -0.77,0 -1.4,0.62 -1.4,1.4l0 0.09c0,0.77 0.63,1.4 1.4,1.4l0 0zm0 -6.62c0.77,0 1.4,-0.63 1.4,-1.4l0 -0.09c0,-0.77 -0.63,-1.4 -1.4,-1.4 -0.77,0 -1.4,0.63 -1.4,1.4l0 0.09c0,0.77 0.63,1.4 1.4,1.4l0 0zm0 -6.62c0.77,0 1.4,-0.62 1.4,-1.4l0 -0.09c0,-0.77 -0.63,-1.4 -1.4,-1.4 -0.77,0 -1.4,0.63 -1.4,1.4l0 0.09c0,0.78 0.63,1.4 1.4,1.4l0 0zm-0.66 -6.56c0.11,0 0.22,-0.01 0.33,-0.04 0.74,-0.18 1.21,-0.93 1.05,-1.68 0,0 -0.03,-0.1 -0.03,-0.1 -0.19,-0.75 -0.93,-1.21 -1.7,-1.03 -0.74,0.19 -1.21,0.94 -1.02,1.69l1.35 -0.33 -1.32 0.42c0.14,0.64 0.71,1.07 1.34,1.07l0 0zm-2.41 -6.13c0.22,0 0.46,-0.06 0.68,-0.19 0.66,-0.39 0.91,-1.24 0.53,-1.91 -0.39,-0.67 -1.27,-0.94 -1.95,-0.55 -0.66,0.39 -0.91,1.2 -0.52,1.87l0.05 0.08c0.25,0.45 0.71,0.7 1.21,0.7l0 0zm-4.04 -5.23c0.39,0 0.74,-0.14 1.02,-0.44 0.52,-0.56 0.49,-1.44 -0.06,-1.97 -0.55,-0.53 -1.45,-0.54 -2,0.01 -0.52,0.55 -0.55,1.39 0,1.93 0,0.01 0.08,0.08 0.08,0.09 0.28,0.26 0.63,0.38 0.96,0.38l0 0zm-5.3 -3.93c0.5,0 0.99,-0.27 1.24,-0.74 0.36,-0.68 0.11,-1.52 -0.58,-1.89 -0.66,-0.37 -1.56,-0.14 -1.92,0.54 -0.38,0.67 -0.16,1.5 0.52,1.88l0.09 0.05c0.22,0.11 0.43,0.16 0.65,0.16l0 0zm-6.17 -2.32c0.66,0 1.23,-0.45 1.37,-1.11 0.17,-0.76 -0.33,-1.5 -1.07,-1.65 -0.77,-0.16 -1.54,0.31 -1.7,1.06 -0.17,0.75 0.24,1.48 1.01,1.65 0,0 0.11,0.02 0.11,0.02 0.09,0.02 0.2,0.03 0.28,0.03l0 0zm-13.29 -0.57l0.11 0c0.77,0 1.4,-0.62 1.4,-1.39 0,-0.78 -0.63,-1.4 -1.4,-1.4l-0.11 0c-0.77,0 -1.37,0.62 -1.37,1.4 0,0.77 0.6,1.39 1.37,1.39l0 0zm6.62 0l0.11 0c0.77,0 1.4,-0.62 1.4,-1.39 0,-0.78 -0.63,-1.4 -1.4,-1.4l-0.11 0c-0.77,0 -1.4,0.62 -1.4,1.4 0,0.77 0.63,1.39 1.4,1.39l0 0zm25.28 77.63c0.77,0 1.4,-0.62 1.4,-1.39l0 -0.1c0,-1.83 -2.8,-1.83 -2.8,0l0 0.1c0,0.77 0.63,1.39 1.4,1.39l0 0z"/>
  </g>
  <g id="_2758957744000">
   <polygon class="fil11" points="339.89,622.66 346.15,628.92 339.89,635.18 "/>
   <path class="fil11" d="M175.62 627.52l0.08 0c0.77,0 1.4,0.63 1.4,1.4 0,0.78 -0.63,1.4 -1.4,1.4 -0.76,0 -1.45,-0.62 -1.45,-1.4 0,-0.77 0.58,-1.4 1.37,-1.4l0 0zm6.62 0l0.08 0c0.77,0 1.4,0.63 1.4,1.4 0,0.78 -0.63,1.4 -1.4,1.4 -0.77,0 -1.46,-0.62 -1.46,-1.4 0,-0.77 0.61,-1.4 1.38,-1.4l0 0zm6.61 0l0.09 0c0.76,0 1.4,0.63 1.4,1.4 0,0.78 -0.64,1.4 -1.4,1.4 -0.77,0 -1.43,-0.62 -1.43,-1.4 0,-0.77 0.57,-1.4 1.34,-1.4l0 0zm6.62 0l0.08 0c0.77,0 1.4,0.63 1.4,1.4 0,0.78 -0.63,1.4 -1.4,1.4l-0.08 0c-0.77,0 -1.4,-0.62 -1.4,-1.4 0,-0.77 0.63,-1.4 1.4,-1.4l0 0zm6.61 0l0.09 0c0.77,0 1.4,0.63 1.4,1.4 0,0.78 -0.63,1.4 -1.4,1.4l-0.09 0c-0.76,0 -1.4,-0.62 -1.4,-1.4 0,-0.77 0.64,-1.4 1.4,-1.4l0 0zm6.62 0l0.08 0c0.77,0 1.4,0.63 1.4,1.4 0,0.78 -0.63,1.4 -1.4,1.4 -0.77,0 -1.42,-0.62 -1.42,-1.4 0,-0.77 0.57,-1.4 1.34,-1.4l0 0zm6.62 0l0.08 0c0.77,0 1.4,0.63 1.4,1.4 0,0.78 -0.63,1.4 -1.4,1.4 -0.77,0 -1.43,-0.62 -1.43,-1.4 0,-0.77 0.58,-1.4 1.35,-1.4l0 0zm6.61 0l0.08 0c0.8,0 1.4,0.63 1.4,1.4 0,0.78 -0.6,1.4 -1.4,1.4l-0.08 0c-0.77,0 -1.4,-0.62 -1.4,-1.4 0,-0.77 0.63,-1.4 1.4,-1.4l0 0zm6.62 0l0.11 0c0.74,0 1.37,0.63 1.37,1.4 0,0.78 -0.63,1.4 -1.37,1.4l-0.11 0c-0.77,0 -1.4,-0.62 -1.4,-1.4 0,-0.77 0.63,-1.4 1.4,-1.4l0 0zm6.61 0l0.09 0c0.79,0 1.4,0.63 1.4,1.4 0,0.78 -0.61,1.4 -1.4,1.4 -0.77,0 -1.43,-0.62 -1.43,-1.4 0,-0.77 0.58,-1.4 1.34,-1.4l0 0zm6.62 0l0.11 0c0.77,0 1.37,0.63 1.37,1.4 0,0.78 -0.6,1.4 -1.37,1.4 -0.8,0 -1.46,-0.62 -1.46,-1.4 0,-0.77 0.58,-1.4 1.35,-1.4l0 0zm6.62 0l0.08 0c0.79,0 1.4,0.63 1.4,1.4 0,0.78 -0.61,1.4 -1.4,1.4l-0.08 0c-0.77,0 -1.4,-0.62 -1.4,-1.4 0,-0.77 0.63,-1.4 1.4,-1.4l0 0zm6.61 0l0.11 0c0.77,0 1.4,0.63 1.4,1.4 0,0.78 -0.63,1.4 -1.4,1.4l-0.11 0c-0.77,0 -1.4,-0.62 -1.4,-1.4 0,-0.77 0.63,-1.4 1.4,-1.4l0 0zm6.62 0l0.11 0c0.77,0 1.4,0.63 1.4,1.4 0,0.78 -0.63,1.4 -1.4,1.4 -0.77,0 -1.46,-0.62 -1.46,-1.4 0,-0.77 0.58,-1.4 1.35,-1.4l0 0zm6.61 0l0.11 0c0.77,0 1.4,0.63 1.4,1.4 0,0.78 -0.63,1.4 -1.4,1.4 -0.77,0 -1.45,-0.62 -1.45,-1.4 0,-0.77 0.57,-1.4 1.34,-1.4l0 0zm6.62 0l0.11 0c0.77,0 1.4,0.63 1.4,1.4 0,0.78 -0.63,1.4 -1.4,1.4l-0.11 0c-0.77,0 -1.4,-0.62 -1.4,-1.4 0,-0.77 0.63,-1.4 1.4,-1.4l0 0zm6.61 0l0.11 0c0.77,0 1.4,0.63 1.4,1.4 0,0.78 -0.63,1.4 -1.4,1.4l-0.11 0c-0.76,0 -1.4,-0.62 -1.4,-1.4 0,-0.77 0.64,-1.4 1.4,-1.4l0 0zm6.62 0l0.11 0c0.77,0 1.4,0.63 1.4,1.4 0,0.78 -0.63,1.4 -1.4,1.4 -0.77,0 -1.45,-0.62 -1.45,-1.4 0,-0.77 0.57,-1.4 1.34,-1.4l0 0zm6.62 0l0.11 0c0.76,0 1.4,0.63 1.4,1.4 0,0.78 -0.64,1.4 -1.4,1.4 -0.77,0 -1.46,-0.62 -1.46,-1.4 0,-0.77 0.58,-1.4 1.35,-1.4l0 0zm6.64 0l0.08 0c0.77,0 1.4,0.63 1.4,1.4 0,0.78 -0.63,1.4 -1.4,1.4 -0.77,0 -1.45,-0.62 -1.45,-1.4 0,-0.77 0.57,-1.4 1.37,-1.4l0 0zm6.62 0l0.08 0c0.77,0 1.4,0.63 1.4,1.4 0,0.78 -0.63,1.4 -1.4,1.4l-0.08 0c-0.77,0 -1.4,-0.62 -1.4,-1.4 0,-0.77 0.63,-1.4 1.4,-1.4l0 0zm6.61 0l0.08 0c0.77,0 1.4,0.63 1.4,1.4 0,0.78 -0.63,1.4 -1.4,1.4 -0.77,0 -1.45,-0.62 -1.45,-1.4 0,-0.77 0.6,-1.4 1.37,-1.4l0 0zm6.62 0l0.08 0c0.77,0 1.4,0.63 1.4,1.4 0,0.78 -0.63,1.4 -1.4,1.4 -0.77,0 -1.43,-0.62 -1.43,-1.4 0,-0.77 0.58,-1.4 1.35,-1.4l0 0zm6.61 0l0.08 0c0.77,0 1.41,0.63 1.41,1.4 0,0.78 -0.64,1.4 -1.41,1.4 -0.76,0 -1.42,-0.62 -1.42,-1.4 0,-0.77 0.57,-1.4 1.34,-1.4l0 0zm6.62 0l0.08 0c1.84,0 1.84,2.8 0,2.8l-0.08 0c-0.77,0 -1.4,-0.62 -1.4,-1.4 0,-0.77 0.63,-1.4 1.4,-1.4l0 0zm-190.71 -71.12c-0.77,0 -1.4,0.62 -1.4,1.39l0 0.1c0,0.77 0.63,1.39 1.4,1.39 0.77,0 1.4,-0.62 1.4,-1.39l0 -0.1c0,-0.77 -0.63,-1.39 -1.4,-1.39l0 0zm0 6.61c-0.77,0 -1.4,0.63 -1.4,1.4 0,0.77 0.63,1.45 1.4,1.45 0.77,0 1.4,-0.59 1.4,-1.36l0 -0.09c0,-0.77 -0.63,-1.4 -1.4,-1.4l0 0zm0 6.62c-0.77,0 -1.4,0.63 -1.4,1.4 0,0.77 0.63,1.44 1.4,1.44 0.77,0 1.4,-0.58 1.4,-1.35l0 -0.09c0,-0.77 -0.63,-1.4 -1.4,-1.4l0 0zm0 6.62c-0.77,0 -1.4,0.63 -1.4,1.4 0,0.77 0.63,1.44 1.4,1.44 0.77,0 1.4,-0.58 1.4,-1.35l0 -0.09c0,-0.77 -0.63,-1.4 -1.4,-1.4l0 0zm0 6.62c-0.77,0 -1.4,0.62 -1.4,1.39l0 0.1c0,0.77 0.63,1.39 1.4,1.39 0.77,0 1.4,-0.62 1.4,-1.39l0 -0.1c0,-0.77 -0.63,-1.39 -1.4,-1.39l0 0zm0 6.61c-0.77,0 -1.4,0.63 -1.4,1.4l0 0.09c0,0.78 0.63,1.4 1.4,1.4 0.77,0 1.4,-0.62 1.4,-1.4l0 -0.09c0,-0.77 -0.63,-1.4 -1.4,-1.4l0 0zm0 6.62c-0.77,0 -1.4,0.63 -1.4,1.4l0 0.09c0,0.77 0.63,1.4 1.4,1.4 0.77,0 1.4,-0.63 1.4,-1.4l0 -0.09c0,-0.77 -0.63,-1.4 -1.4,-1.4l0 0zm0 6.62c-0.77,0 -1.4,0.62 -1.4,1.39l0 0.1c0,0.77 0.63,1.4 1.4,1.4 0.77,0 1.4,-0.63 1.4,-1.4l0 -0.09c0,-0.78 -0.63,-1.4 -1.4,-1.4l0 0zm0.66 6.56c-0.11,0 -0.22,0.01 -0.33,0.04 -0.74,0.18 -1.21,0.93 -1.01,1.68 0,0 0.02,0.1 0.02,0.1 0.17,0.75 0.94,1.21 1.68,1.03 0.74,-0.19 1.21,-0.94 1.01,-1.69l-1.34 0.33 1.34 -0.42c-0.16,-0.64 -0.74,-1.07 -1.37,-1.07l0 0zm2.45 6.13c-0.25,0 -0.5,0.06 -0.72,0.19 -0.66,0.38 -0.88,1.24 -0.49,1.9 0.38,0.67 1.23,0.95 1.92,0.56 0.66,-0.39 0.9,-1.2 0.52,-1.87l-0.03 -0.08c-0.27,-0.45 -0.74,-0.7 -1.2,-0.7l0 0zm4 5.23c-0.35,0 -0.74,0.14 -1.01,0.44 -0.52,0.56 -0.5,1.44 0.05,1.97 0.58,0.53 1.48,0.53 2.01,-0.01 0.52,-0.55 0.54,-1.39 0.02,-1.93 -0.02,-0.01 -0.11,-0.09 -0.11,-0.1 -0.27,-0.25 -0.6,-0.37 -0.96,-0.37l0 0zm5.3 3.92c-0.49,0 -0.99,0.27 -1.23,0.75 -0.36,0.68 -0.11,1.52 0.57,1.89 0.69,0.37 1.57,0.14 1.92,-0.54 0.39,-0.67 0.17,-1.51 -0.49,-1.88l-0.11 -0.05c-0.22,-0.11 -0.44,-0.17 -0.66,-0.17l0 0zm6.18 2.33c-0.66,0 -1.24,0.45 -1.38,1.11 -0.16,0.76 0.33,1.5 1.1,1.65 0.74,0.16 1.51,-0.31 1.68,-1.06 0.16,-0.75 -0.25,-1.48 -1.02,-1.65 0,0 -0.11,-0.02 -0.11,-0.02 -0.08,-0.02 -0.19,-0.03 -0.27,-0.03l0 0zm6.67 0.57l-0.11 0c-0.77,0 -1.37,0.62 -1.37,1.4 0,0.77 0.6,1.39 1.37,1.39l0.11 0c0.77,0 1.4,-0.62 1.4,-1.39 0,-0.78 -0.63,-1.4 -1.4,-1.4l0 0zm-25.26 -74.88c-0.77,0 -1.4,-0.63 -1.4,-1.4l0 -0.1c0,-0.77 0.63,-1.39 1.4,-1.39 0.77,0 1.4,0.62 1.4,1.39l0 0.1c0,0.77 -0.63,1.4 -1.4,1.4l0 0zm0 -6.62c-0.77,0 -1.4,-0.63 -1.4,-1.4l0 -0.09c0,-0.77 0.63,-1.4 1.4,-1.4 0.77,0 1.4,0.63 1.4,1.4l0 0.09c0,0.77 -0.63,1.4 -1.4,1.4l0 0zm0 -6.62c-0.77,0 -1.4,-0.62 -1.4,-1.4l0 -0.09c0,-0.77 0.63,-1.4 1.4,-1.4 0.77,0 1.4,0.63 1.4,1.4l0 0.09c0,0.78 -0.63,1.4 -1.4,1.4l0 0zm0.03 -13.19c-0.77,0 -1.4,-0.62 -1.4,-1.39l0 -0.1c0,-0.77 0.63,-1.39 1.4,-1.39 0.77,0 1.4,0.62 1.4,1.39l0 0.1c0,0.77 -0.63,1.39 -1.4,1.39l0 0zm0 -6.61c-0.77,0 -1.4,-0.63 -1.4,-1.4 0,-0.77 0.63,-1.45 1.4,-1.45 0.77,0 1.4,0.58 1.4,1.35l0 0.1c0,0.77 -0.63,1.4 -1.4,1.4l0 0zm0 -6.62c-0.77,0 -1.4,-0.63 -1.4,-1.4 0,-0.77 0.63,-1.44 1.4,-1.44 0.77,0 1.4,0.57 1.4,1.35l0 0.09c0,0.77 -0.63,1.4 -1.4,1.4l0 0zm0 -6.62c-0.77,0 -1.4,-0.63 -1.4,-1.4 0,-0.77 0.63,-1.44 1.4,-1.44 0.77,0 1.4,0.58 1.4,1.35l0 0.09c0,0.77 -0.63,1.4 -1.4,1.4l0 0zm0 -6.62c-0.77,0 -1.4,-0.62 -1.4,-1.39l0 -0.1c0,-0.77 0.63,-1.39 1.4,-1.39 0.77,0 1.4,0.62 1.4,1.39l0 0.1c0,0.77 -0.63,1.39 -1.4,1.39l0 0zm0 -6.61c-0.77,0 -1.4,-0.63 -1.4,-1.4l0 -0.09c0,-0.78 0.63,-1.4 1.4,-1.4 0.77,0 1.4,0.62 1.4,1.4l0 0.09c0,0.77 -0.63,1.4 -1.4,1.4l0 0zm0 -6.62c-0.77,0 -1.4,-0.63 -1.4,-1.4l0 -0.09c0,-0.77 0.63,-1.4 1.4,-1.4 0.77,0 1.4,0.63 1.4,1.4l0 0.09c0,0.77 -0.63,1.4 -1.4,1.4l0 0zm0 -6.62c-0.77,0 -1.4,-0.62 -1.4,-1.4l0 -0.09c0,-0.77 0.63,-1.4 1.4,-1.4 0.77,0 1.4,0.63 1.4,1.4l0 0.09c0,0.78 -0.63,1.4 -1.4,1.4l0 0zm0.66 -6.56c-0.11,0 -0.22,-0.01 -0.33,-0.04 -0.74,-0.18 -1.21,-0.93 -1.04,-1.68 0,0 0.02,-0.1 0.02,-0.1 0.2,-0.75 0.94,-1.21 1.71,-1.03 0.74,0.19 1.2,0.94 1.01,1.69l-1.34 -0.33 1.31 0.42c-0.13,0.64 -0.71,1.07 -1.34,1.07l0 0zm2.42 -6.13c-0.22,0 -0.47,-0.06 -0.69,-0.19 -0.66,-0.39 -0.91,-1.24 -0.52,-1.91 0.38,-0.67 1.26,-0.94 1.95,-0.55 0.65,0.39 0.9,1.2 0.52,1.87l-0.06 0.08c-0.24,0.45 -0.71,0.7 -1.2,0.7l0 0zm4.03 -5.23c-0.38,0 -0.74,-0.14 -1.02,-0.44 -0.52,-0.56 -0.49,-1.44 0.06,-1.97 0.55,-0.53 1.45,-0.54 2,0.01 0.52,0.55 0.55,1.39 0,1.93 0,0.01 -0.08,0.08 -0.08,0.09 -0.27,0.26 -0.63,0.38 -0.96,0.38l0 0zm5.3 -3.93c-0.5,0 -0.99,-0.27 -1.24,-0.74 -0.35,-0.68 -0.11,-1.52 0.58,-1.89 0.66,-0.37 1.56,-0.14 1.92,0.54 0.39,0.67 0.17,1.5 -0.52,1.88l-0.08 0.05c-0.22,0.11 -0.44,0.16 -0.66,0.16l0 0zm6.18 -2.32c-0.66,0 -1.24,-0.45 -1.38,-1.11 -0.16,-0.76 0.33,-1.5 1.07,-1.65 0.77,-0.16 1.54,0.31 1.71,1.06 0.16,0.75 -0.25,1.48 -1.02,1.65 0,0 -0.11,0.02 -0.11,0.02 -0.08,0.02 -0.19,0.03 -0.27,0.03l0 0zm13.28 -0.57l-0.11 0c-0.77,0 -1.4,-0.62 -1.4,-1.39 0,-0.78 0.63,-1.4 1.4,-1.4l0.11 0c0.77,0 1.37,0.62 1.37,1.4 0,0.77 -0.6,1.39 -1.37,1.39l0 0zm-6.61 0l-0.11 0c-0.77,0 -1.4,-0.62 -1.4,-1.39 0,-0.78 0.63,-1.4 1.4,-1.4l0.11 0c0.76,0 1.4,0.62 1.4,1.4 0,0.77 -0.64,1.39 -1.4,1.39l0 0zm-25.29 77.63c-0.77,0 -1.4,-0.62 -1.4,-1.39l0 -0.1c0,-1.83 2.8,-1.83 2.8,0l0 0.1c0,0.77 -0.63,1.39 -1.4,1.39l0 0z"/>
  </g>
  <path class="fil12" d="M596.55 256.47c0,-5.3 1.2,-10.09 3.58,-14.38 2.4,-4.3 5.77,-7.71 10.12,-10.21 4.35,-2.51 9.27,-3.76 14.75,-3.76 5.49,0 10.41,1.25 14.76,3.76 4.35,2.5 7.71,5.91 10.09,10.21 2.38,4.29 3.57,9.08 3.57,14.38 0,3.98 -0.71,7.72 -2.1,11.21 -1.4,3.48 -3.33,6.48 -5.79,9.01 -2.48,2.52 -5.48,4.52 -9.02,5.96 -3.56,1.45 -7.39,2.18 -11.5,2.18 -5.49,0 -10.41,-1.24 -14.76,-3.71 -4.35,-2.49 -7.72,-5.89 -10.12,-10.21 -2.38,-4.31 -3.58,-9.13 -3.58,-14.44zm11.48 0c0,5.23 1.61,9.56 4.81,12.95 3.2,3.4 7.26,5.09 12.17,5.09 4.9,0 8.94,-1.69 12.13,-5.09 3.19,-3.39 4.79,-7.72 4.79,-12.95 0,-5.17 -1.6,-9.46 -4.79,-12.89 -3.19,-3.43 -7.23,-5.15 -12.13,-5.15 -4.91,0 -8.97,1.72 -12.17,5.15 -3.2,3.43 -4.81,7.72 -4.81,12.89z"/>
  <path id="_1_2" class="fil12" d="M660.97 283.81l0 -54.68 17.39 0c5.44,0 9.8,1.32 13.09,3.95 3.26,2.63 4.9,6.14 4.9,10.55 0,2.5 -0.6,4.83 -1.81,6.98 -1.19,2.15 -2.8,3.78 -4.8,4.87 2.56,1.09 4.58,2.71 6.05,4.88 1.47,2.16 2.2,4.63 2.2,7.4 0,2.6 -0.49,4.93 -1.49,6.99 -1.01,2.07 -2.37,3.75 -4.1,5.05 -1.72,1.3 -3.71,2.29 -5.95,2.98 -2.26,0.69 -4.64,1.03 -7.18,1.03l-18.3 0zm11.01 -9.53l6.72 0c2.28,0 4.18,-0.65 5.7,-1.94 1.51,-1.29 2.27,-3.01 2.27,-5.18 0,-2.2 -0.76,-3.92 -2.25,-5.16 -1.5,-1.23 -3.42,-1.86 -5.72,-1.86l-6.72 0 0 14.14zm0 -22.89l6.25 0c1.94,0 3.56,-0.59 4.86,-1.81 1.29,-1.21 1.94,-2.77 1.94,-4.67 0,-1.87 -0.64,-3.38 -1.9,-4.53 -1.28,-1.15 -2.96,-1.72 -5.04,-1.72l-6.11 0 0 12.73z"/>
  <path id="_2_3" class="fil12" d="M705.64 283.81l0 -54.68 16.46 0c5.77,0 10.3,1.54 13.6,4.61 3.29,3.09 4.93,6.95 4.93,11.63 0,3.22 -0.74,6.09 -2.21,8.6 -1.47,2.5 -3.49,4.45 -6.07,5.85l12.97 23.99 -12.2 0 -10.6 -21.4 -5.87 0 0 21.4 -11.01 0zm11.01 -30.7l5.14 0c2.11,0 3.89,-0.64 5.34,-1.92 1.44,-1.28 2.17,-3.09 2.17,-5.39 0,-2.19 -0.71,-3.94 -2.14,-5.21 -1.45,-1.29 -3.4,-1.93 -5.9,-1.93l-4.61 0 0 14.45z"/>
  <polygon id="_3_4" class="fil12" points="751.33,283.81 751.33,229.13 762.35,229.13 762.35,283.81 "/>
  <path id="_4_5" class="fil12" d="M769.91 256.46c0,-3.89 0.7,-7.58 2.12,-11.04 1.41,-3.48 3.35,-6.49 5.81,-9.02 2.47,-2.56 5.48,-4.56 9.02,-6.06 3.55,-1.48 7.35,-2.22 11.42,-2.22 2.69,0 5.27,0.31 7.73,0.92 2.47,0.61 4.58,1.42 6.35,2.41 1.76,0.98 3.24,1.95 4.44,2.9 1.19,0.95 2.19,1.92 3.01,2.88l-6.93 7.19c-0.53,-0.58 -1.15,-1.16 -1.87,-1.72 -0.7,-0.58 -1.64,-1.21 -2.81,-1.92 -1.17,-0.71 -2.58,-1.27 -4.23,-1.7 -1.66,-0.43 -3.4,-0.65 -5.22,-0.65 -5.25,0 -9.44,1.72 -12.61,5.14 -3.16,3.42 -4.75,7.72 -4.75,12.89 0,5.47 1.63,9.84 4.9,13.13 3.26,3.28 7.42,4.92 12.46,4.92 3.32,0 6.1,-0.46 8.31,-1.41 2.23,-0.94 3.83,-1.9 4.8,-2.87l0 -6.73 -10.39 0 0 -9.29 20.7 0 0 21.63c-1.63,1.4 -3.18,2.59 -4.66,3.57 -1.5,0.98 -3.21,1.9 -5.13,2.77 -1.93,0.88 -4.08,1.54 -6.42,1.98 -2.35,0.44 -4.91,0.67 -7.68,0.67 -3.08,0 -6.03,-0.43 -8.88,-1.28 -2.85,-0.86 -5.46,-2.11 -7.8,-3.76 -2.36,-1.66 -4.4,-3.61 -6.16,-5.87 -1.76,-2.27 -3.11,-4.9 -4.09,-7.89 -0.96,-3 -1.44,-6.2 -1.44,-9.57z"/>
  <path id="_5_6" class="fil12" d="M826.49 283.81l19.37 -54.68 11.56 0 19.37 54.68 -11.09 0 -4.74 -14.06 -18.6 0 -4.78 14.06 -11.09 0zm18.84 -23.2l12.74 0 -6.42 -19.67 -6.32 19.67z"/>
  <path id="_6_7" class="fil12" d="M882.64 283.81l0 -54.68 14.53 0c8.97,0 16.05,2.42 21.22,7.25 5.17,4.85 7.76,11.52 7.76,20.05 0,8.69 -2.58,15.42 -7.75,20.21 -5.15,4.77 -12.24,7.17 -21.23,7.17l-14.53 0zm11.01 -9.53l3.89 0c5.32,0 9.5,-1.52 12.54,-4.58 3.06,-3.06 4.58,-7.49 4.58,-13.27 0,-5.65 -1.53,-10.04 -4.6,-13.12 -3.09,-3.1 -7.26,-4.65 -12.52,-4.65l-3.89 0 0 35.62z"/>
  <path id="_7_8" class="fil12" d="M930.9 256.47c0,-5.3 1.2,-10.09 3.58,-14.38 2.39,-4.3 5.77,-7.71 10.11,-10.21 4.35,-2.51 9.27,-3.76 14.75,-3.76 5.5,0 10.42,1.25 14.77,3.76 4.35,2.5 7.71,5.91 10.09,10.21 2.38,4.29 3.56,9.08 3.56,14.38 0,3.98 -0.7,7.72 -2.09,11.21 -1.41,3.48 -3.33,6.48 -5.79,9.01 -2.48,2.52 -5.49,4.52 -9.03,5.96 -3.55,1.45 -7.38,2.18 -11.49,2.18 -5.5,0 -10.42,-1.24 -14.77,-3.71 -4.34,-2.49 -7.72,-5.89 -10.11,-10.21 -2.38,-4.31 -3.58,-9.13 -3.58,-14.44zm11.48 0c0,5.23 1.6,9.56 4.81,12.95 3.2,3.4 7.26,5.09 12.17,5.09 4.89,0 8.94,-1.69 12.13,-5.09 3.19,-3.39 4.79,-7.72 4.79,-12.95 0,-5.17 -1.6,-9.46 -4.79,-12.89 -3.19,-3.43 -7.24,-5.15 -12.13,-5.15 -4.91,0 -8.97,1.72 -12.17,5.15 -3.21,3.43 -4.81,7.72 -4.81,12.89z"/>
  <path id="_8_9" class="fil12" d="M994.85 278.28c0,-1.85 0.57,-3.44 1.7,-4.75 1.14,-1.32 2.68,-1.98 4.62,-1.98 1.94,0 3.48,0.66 4.59,1.98 1.1,1.31 1.66,2.9 1.66,4.75 0,1.81 -0.56,3.34 -1.66,4.62 -1.11,1.29 -2.65,1.93 -4.59,1.93 -1.94,0 -3.48,-0.64 -4.62,-1.93 -1.13,-1.28 -1.7,-2.81 -1.7,-4.62zm0.39 -49.15l11.32 0 -0.31 39.14 -10.15 0 -0.86 -39.14z"/>
  <g id="_2758957746064">
   <g>
    <path class="fil12" d="M217.16 470.92l-8.42 0 0 -30.22 8.42 0 0 30.22zm12.42 -16.85l0 16.85 -8.42 0 0 -30.22 8.42 0 0 3.37 0 0 0 9.86c0,0.05 0,0.09 0,0.14zm2.25 -11.89c1.96,-1.33 4.07,-1.99 6.35,-1.99 3.18,0 5.85,1.13 8,3.37 2.15,2.25 3.23,5.24 3.23,8.99l0 18.37 -8.43 0 0 -17.08c0,-4.64 -1.7,-6.96 -5.11,-6.96 -1.52,0 -2.86,0.49 -4.04,1.49l0 -6.19zm33.34 29.19c-3.58,0 -6.77,-1.52 -9.58,-4.55 -2.8,-3.04 -4.21,-6.8 -4.21,-11.29 0,-4.5 1.37,-8.18 4.1,-11.04 2.74,-2.87 5.94,-4.3 9.61,-4.3 2.61,0 4.87,0.66 6.8,1.96l0 7.29c-1.32,-1.45 -2.91,-2.17 -4.78,-2.17 -1.99,0 -3.69,0.82 -5.11,2.47 -1.43,1.65 -2.14,3.69 -2.14,6.12 0,2.44 0.73,4.43 2.19,5.99 1.46,1.55 3.17,2.33 5.11,2.33 1.95,0 3.61,-0.78 4.98,-2.33 1.36,-1.56 2.05,-3.56 2.05,-6.01 0,-0.36 -0.02,-0.7 -0.05,-1.03l0 -21.01 -0.07 0 0 -4.56 8.43 0 0 41.68 -8.43 0 0 -3.99c-2.36,2.96 -5.32,4.44 -8.9,4.44zm47.5 -4.83c-3.41,3.22 -7.41,4.83 -12,4.83 -4.58,0 -8.37,-1.42 -11.37,-4.25 -3,-2.82 -4.49,-6.61 -4.49,-11.37 0,-4.75 1.52,-8.54 4.57,-11.35 3.06,-2.8 6.66,-4.21 10.82,-4.21 4.15,0 7.68,1.26 10.58,3.77 2.91,2.5 4.36,5.95 4.36,10.33l0 4.49 -19.84 0 0 -6.01 11.3 0c-0.19,-1.79 -0.86,-3.18 -2.02,-4.15 -1.16,-0.98 -2.58,-1.46 -4.24,-1.46 -1.67,0 -3.19,0.5 -4.58,1.51 -1.39,1.01 -2.19,2.38 -2.42,4.1 -0.46,3.05 -0.33,5.56 -0.22,6.01 0.26,1.65 1.12,3 2.58,4.05 1.46,1.05 3.11,1.57 4.95,1.57 2.95,0 5.39,-0.99 7.3,-2.98l4.72 5.12zm16.08 -17.99l5.47 -7.82 0.02 -0.03 9.89 0 -10.4 14.77 10.79 15.45 -10.05 0 -5.9 -8.32 -5.73 8.32 -9.72 0 15.63 -22.37zm41.61 22.37l-7.92 0 0 -3.65c-2.17,2.73 -4.86,4.1 -8.06,4.1 -3.2,0 -5.89,-0.93 -8.06,-2.78 -2.17,-1.86 -3.26,-4.33 -3.26,-7.42 0,-3.09 1.13,-5.4 3.37,-6.94 2.25,-1.53 5.32,-2.3 9.22,-2.3l4 0 0 6.01 -3.05 0c-3.37,0 -5.05,1.05 -5.05,3.15 0,1.08 0.4,1.92 1.2,2.5 0.81,0.58 1.96,0.87 3.46,0.87 1.5,0 2.82,-0.46 3.96,-1.38 1.14,-0.92 1.71,-2.14 1.71,-3.68l0.02 -1.35 0.04 -6.29c0,-3.22 -1.71,-4.83 -5.11,-4.83 -1.46,0 -3.01,0.29 -4.64,0.87 -1.63,0.58 -3,1.3 -4.13,2.17l-3.76 -5.45c3.97,-2.89 8.5,-4.33 13.59,-4.33 3.67,0 6.67,0.92 8.99,2.75 2.32,1.84 3.48,4.74 3.48,8.71l0 19.27z"/>
    <circle class="fil0" cx="212.95" cy="433.34" r="4.94"/>
    <circle class="fil0" cx="377.59" cy="466.43" r="4.94"/>
    <polygon class="fil0" points="322.66,454.02 327.67,446.85 323.74,440.7 313.68,440.7 "/>
    <path class="fil13" d="M395.19 440.77c5.39,0 9.53,1.32 12.41,3.96 2.89,2.64 4.33,6.31 4.33,11.02 0,4.7 -1.41,8.42 -4.22,11.16 -2.81,2.74 -7.1,4.11 -12.87,4.11l-10.34 0 0 -30.25 10.69 0zm0.34 24.28c3.09,0 5.46,-0.78 7.12,-2.34 1.66,-1.56 2.49,-3.82 2.49,-6.79 0,-2.97 -0.83,-5.26 -2.49,-6.86 -1.66,-1.6 -4.21,-2.4 -7.64,-2.4l-3.76 0 0 18.39 4.28 0zm43.02 -9.33c0,-2.69 -0.87,-4.99 -2.6,-6.9 -1.73,-1.9 -3.86,-2.85 -6.38,-2.85 -2.53,0 -4.65,0.95 -6.38,2.85 -1.73,1.91 -2.6,4.21 -2.6,6.9 0,2.7 0.87,4.99 2.6,6.88 1.73,1.89 3.85,2.84 6.38,2.84 2.52,0 4.65,-0.95 6.38,-2.84 1.73,-1.89 2.6,-4.18 2.6,-6.88zm2.29 11.12c-3.06,2.99 -6.82,4.48 -11.29,4.48 -4.47,0 -8.24,-1.49 -11.3,-4.48 -3.05,-2.98 -4.58,-6.7 -4.58,-11.14 0,-4.44 1.53,-8.15 4.58,-11.14 3.06,-2.99 6.83,-4.48 11.3,-4.48 4.47,0 8.23,1.49 11.29,4.48 3.06,2.99 4.59,6.7 4.59,11.14 0,4.44 -1.53,8.16 -4.59,11.14zm21.81 -1.79c3.32,0 6.03,-1.31 8.14,-3.94l4.32 4.46c-3.43,3.86 -7.47,5.8 -12.13,5.8 -4.66,0 -8.5,-1.48 -11.51,-4.42 -3.02,-2.94 -4.52,-6.65 -4.52,-11.14 0,-4.48 1.53,-8.23 4.61,-11.23 3.07,-3 6.82,-4.5 11.27,-4.5 4.96,0 9.11,1.89 12.46,5.67l-4.2 4.76c-2.13,-2.65 -4.79,-3.98 -7.96,-3.98 -2.54,0 -4.71,0.83 -6.51,2.49 -1.81,1.66 -2.71,3.89 -2.71,6.7 0,2.82 0.85,5.07 2.56,6.78 1.7,1.7 3.76,2.55 6.18,2.55z"/>
   </g>
   <g>
    <path class="fil12" d="M1133.12 470.92l-8.42 0 0 -30.22 8.42 0 0 30.22zm12.42 -16.85l0 16.85 -8.42 0 0 -30.22 8.42 0 0 3.37 0 0 0 9.86c0,0.05 0,0.09 0,0.14zm2.25 -11.89c1.96,-1.33 4.07,-1.99 6.35,-1.99 3.18,0 5.85,1.13 8,3.37 2.15,2.25 3.23,5.24 3.23,8.99l0 18.37 -8.42 0 0 -17.08c0,-4.64 -1.71,-6.96 -5.12,-6.96 -1.52,0 -2.87,0.49 -4.04,1.49l0 -6.19zm33.34 29.19c-3.58,0 -6.77,-1.52 -9.58,-4.55 -2.8,-3.04 -4.21,-6.8 -4.21,-11.29 0,-4.5 1.37,-8.18 4.1,-11.04 2.74,-2.87 5.94,-4.3 9.61,-4.3 2.61,0 4.88,0.66 6.8,1.96l0 7.29c-1.32,-1.45 -2.91,-2.17 -4.78,-2.17 -1.99,0 -3.69,0.82 -5.11,2.47 -1.43,1.65 -2.14,3.69 -2.14,6.12 0,2.44 0.73,4.43 2.19,5.99 1.46,1.55 3.17,2.33 5.11,2.33 1.95,0 3.61,-0.78 4.98,-2.33 1.36,-1.56 2.05,-3.56 2.05,-6.01 0,-0.36 -0.02,-0.7 -0.05,-1.03l0 -21.01 -0.07 0 0 -4.56 8.43 0 0 41.68 -8.43 0 0 -3.99c-2.36,2.96 -5.32,4.44 -8.9,4.44zm47.5 -4.84c-3.41,3.23 -7.41,4.84 -12,4.84 -4.58,0 -8.37,-1.42 -11.37,-4.25 -3,-2.82 -4.49,-6.61 -4.49,-11.37 0,-4.76 1.52,-8.54 4.57,-11.35 3.06,-2.8 6.66,-4.21 10.82,-4.21 4.15,0 7.68,1.26 10.58,3.77 2.91,2.5 4.36,5.95 4.36,10.33l0 4.49 -19.84 0 0 -6.01 11.3 0c-0.19,-1.79 -0.86,-3.18 -2.02,-4.15 -1.16,-0.98 -2.58,-1.46 -4.24,-1.46 -1.67,0 -3.19,0.5 -4.58,1.51 -1.39,1.01 -2.19,2.38 -2.42,4.1 -0.46,3.05 -0.33,5.56 -0.22,6.01 0.26,1.65 1.12,3 2.58,4.05 1.46,1.05 3.11,1.57 4.95,1.57 2.95,0 5.39,-0.99 7.3,-2.98l4.72 5.11zm16.08 -17.98l5.47 -7.82 0.02 -0.03 9.89 0 -10.4 14.77 10.79 15.45 -10.06 0 -5.89 -8.32 -5.73 8.32 -9.72 0 15.63 -22.37zm41.61 22.37l-7.92 0 0 -3.66c-2.17,2.74 -4.86,4.11 -8.06,4.11 -3.2,0 -5.89,-0.93 -8.06,-2.78 -2.17,-1.86 -3.26,-4.33 -3.26,-7.42 0,-3.09 1.13,-5.4 3.37,-6.94 2.25,-1.53 5.32,-2.3 9.22,-2.3l4 0 0 6.01 -3.05 0c-3.37,0 -5.05,1.05 -5.05,3.15 0,1.08 0.4,1.92 1.2,2.5 0.81,0.58 1.96,0.87 3.46,0.87 1.5,0 2.82,-0.46 3.96,-1.38 1.14,-0.92 1.71,-2.14 1.71,-3.68l0.02 -1.35 0.04 -6.29c0,-3.22 -1.71,-4.83 -5.11,-4.83 -1.47,0 -3.01,0.29 -4.64,0.87 -1.63,0.58 -3,1.3 -4.13,2.17l-3.76 -5.45c3.97,-2.89 8.5,-4.33 13.59,-4.33 3.67,0 6.67,0.92 8.99,2.75 2.32,1.84 3.48,4.74 3.48,8.71l0 19.27z"/>
    <circle class="fil14" cx="1128.91" cy="433.34" r="4.94"/>
    <circle class="fil14" cx="1293.55" cy="466.43" r="4.94"/>
    <polygon class="fil14" points="1238.62,454.02 1243.63,446.85 1239.7,440.7 1229.64,440.7 "/>
    <path class="fil15" d="M1322.65 455.62l6.79 0 0 10.73c-3,3.34 -7.16,5.02 -12.46,5.02 -4.45,0 -8.17,-1.48 -11.19,-4.42 -3.01,-2.94 -4.52,-6.65 -4.52,-11.14 0,-4.49 1.54,-8.23 4.61,-11.23 3.07,-3 6.78,-4.5 11.12,-4.5 4.34,0 8.11,1.43 11.31,4.29l-3.5 5.06c-1.36,-1.18 -2.6,-2 -3.74,-2.45 -1.14,-0.44 -2.38,-0.67 -3.7,-0.67 -2.57,0 -4.73,0.88 -6.49,2.62 -1.76,1.75 -2.64,4.05 -2.64,6.9 0,2.86 0.84,5.14 2.53,6.86 1.69,1.72 3.7,2.57 6.03,2.57 2.34,0 4.29,-0.44 5.85,-1.34l0 -8.3zm34.98 -14.85l0 6.02 -15.05 0 0 6.23 13.54 0 0 5.75 -13.54 0 0 6.28 15.53 0 0 5.97 -22.28 0 0 -30.25 21.8 0zm17.55 0c5.4,0 9.54,1.32 12.42,3.96 2.89,2.64 4.33,6.31 4.33,11.02 0,4.7 -1.41,8.42 -4.22,11.16 -2.81,2.74 -7.1,4.11 -12.87,4.11l-10.34 0 0 -30.25 10.68 0zm0.35 24.28c3.09,0 5.46,-0.78 7.12,-2.34 1.66,-1.56 2.49,-3.82 2.49,-6.79 0,-2.97 -0.83,-5.26 -2.49,-6.86 -1.66,-1.6 -4.21,-2.4 -7.64,-2.4l-3.76 0 0 18.39 4.28 0z"/>
   </g>
  </g>
  <g id="logo_x0020_dux-2022.eps">
   <path class="fil12" d="M693.12 657.73c0.14,0 0.21,0.07 0.21,0.21l0 0.92c0,0.15 -0.07,0.22 -0.21,0.22l-4.88 0c-0.19,0 -0.32,0.05 -0.4,0.15 -0.08,0.09 -0.11,0.23 -0.11,0.39l0 0.34c0,0.36 0.16,0.54 0.5,0.54l3.65 0c0.57,0 0.99,0.15 1.28,0.43 0.28,0.29 0.43,0.71 0.43,1.25l0 0.77c0,0.48 -0.14,0.86 -0.42,1.15 -0.28,0.3 -0.72,0.44 -1.31,0.44l-5.39 0c-0.15,0 -0.22,-0.07 -0.22,-0.21l0 -0.93c0,-0.14 0.07,-0.21 0.22,-0.21l5.11 0c0.19,0 0.32,-0.05 0.4,-0.15 0.08,-0.1 0.12,-0.23 0.12,-0.4l0 -0.4c0,-0.36 -0.17,-0.54 -0.51,-0.54l-3.65 0c-0.57,0 -0.99,-0.15 -1.28,-0.44 -0.28,-0.28 -0.42,-0.7 -0.42,-1.24l0 -0.71c0,-0.47 0.14,-0.85 0.41,-1.15 0.28,-0.29 0.72,-0.43 1.31,-0.43l5.16 0z"/>
   <path class="fil12" d="M705.47 661.86c0,0.26 0.02,0.47 0.06,0.64 0.04,0.17 0.11,0.31 0.21,0.41 0.1,0.1 0.23,0.17 0.39,0.21 0.17,0.05 0.38,0.07 0.63,0.07l2.89 0c0.26,0 0.46,-0.02 0.63,-0.07 0.17,-0.04 0.3,-0.11 0.39,-0.21 0.1,-0.1 0.17,-0.24 0.21,-0.41 0.05,-0.17 0.07,-0.38 0.07,-0.64l0 -1.46c0,-0.25 -0.02,-0.46 -0.07,-0.63 -0.04,-0.18 -0.11,-0.31 -0.21,-0.41 -0.09,-0.1 -0.22,-0.18 -0.39,-0.22 -0.17,-0.04 -0.37,-0.06 -0.63,-0.06l-2.89 0c-0.25,0 -0.46,0.02 -0.63,0.06 -0.16,0.04 -0.29,0.12 -0.39,0.22 -0.1,0.1 -0.17,0.23 -0.21,0.41 -0.04,0.17 -0.06,0.38 -0.06,0.63l0 1.46zm4.24 -4.13c0.49,0 0.91,0.04 1.26,0.14 0.35,0.09 0.63,0.24 0.85,0.44 0.22,0.21 0.37,0.47 0.47,0.8 0.1,0.32 0.15,0.72 0.15,1.19l0 1.67c0,0.47 -0.05,0.87 -0.15,1.19 -0.1,0.33 -0.25,0.6 -0.47,0.8 -0.22,0.21 -0.5,0.35 -0.85,0.44 -0.35,0.1 -0.77,0.14 -1.26,0.14l-3.01 0c-0.49,0 -0.91,-0.04 -1.25,-0.14 -0.35,-0.09 -0.63,-0.23 -0.85,-0.44 -0.21,-0.2 -0.37,-0.47 -0.47,-0.8 -0.1,-0.32 -0.15,-0.72 -0.15,-1.19l0 -1.67c0,-0.47 0.05,-0.87 0.15,-1.19 0.1,-0.33 0.26,-0.59 0.47,-0.8 0.22,-0.2 0.5,-0.35 0.85,-0.44 0.34,-0.1 0.76,-0.14 1.25,-0.14l3.01 0z"/>
   <path class="fil12" d="M724.26 657.73c0.14,0 0.21,0.07 0.21,0.21l0 3.88c0,0.26 0.02,0.48 0.06,0.65 0.05,0.17 0.12,0.31 0.21,0.41 0.1,0.1 0.23,0.17 0.4,0.22 0.16,0.04 0.37,0.06 0.63,0.06l3.94 0c0.14,0 0.21,0.07 0.21,0.21l0 0.96c0,0.14 -0.07,0.21 -0.21,0.21l-4 0c-0.5,0 -0.91,-0.04 -1.26,-0.14 -0.34,-0.09 -0.62,-0.23 -0.84,-0.44 -0.22,-0.2 -0.38,-0.47 -0.48,-0.8 -0.1,-0.32 -0.15,-0.72 -0.15,-1.19l0 -4.03c0,-0.14 0.08,-0.21 0.23,-0.21l1.05 0z"/>
   <path class="fil12" d="M741.28 657.73c0.14,0 0.21,0.07 0.21,0.21l0 3.88c0,0.26 0.02,0.48 0.06,0.65 0.05,0.17 0.12,0.31 0.21,0.41 0.1,0.1 0.23,0.17 0.4,0.22 0.16,0.04 0.37,0.06 0.63,0.06l2.69 0c0.26,0 0.47,-0.02 0.63,-0.06 0.17,-0.05 0.3,-0.12 0.4,-0.22 0.09,-0.1 0.16,-0.24 0.2,-0.41 0.04,-0.17 0.06,-0.39 0.06,-0.65l0 -3.88c0,-0.14 0.07,-0.21 0.21,-0.21l1.06 0c0.15,0 0.22,0.07 0.22,0.21l0 4.03c0,0.47 -0.05,0.87 -0.15,1.19 -0.1,0.33 -0.25,0.6 -0.47,0.8 -0.22,0.21 -0.5,0.35 -0.85,0.44 -0.34,0.1 -0.77,0.14 -1.26,0.14l-2.8 0c-0.5,0 -0.91,-0.04 -1.26,-0.14 -0.34,-0.09 -0.62,-0.23 -0.84,-0.44 -0.22,-0.2 -0.38,-0.47 -0.48,-0.8 -0.1,-0.32 -0.15,-0.72 -0.15,-1.19l0 -4.03c0,-0.14 0.08,-0.21 0.23,-0.21l1.05 0z"/>
   <path class="fil12" d="M763.24 664.94c0.16,0 0.23,0.08 0.19,0.25l-0.43 1.78c-0.04,0.15 -0.12,0.22 -0.24,0.22l-0.56 0c-0.16,0 -0.24,-0.07 -0.22,-0.22l0.15 -1.81c0.02,-0.15 0.09,-0.22 0.24,-0.22l0.87 0zm2.69 -7.21c0.14,0 0.21,0.07 0.21,0.21l0 0.95c0,0.15 -0.07,0.23 -0.21,0.23l-4.33 0c-0.26,0 -0.47,0.02 -0.63,0.06 -0.17,0.04 -0.3,0.11 -0.4,0.22 -0.09,0.1 -0.16,0.23 -0.21,0.4 -0.04,0.17 -0.06,0.38 -0.06,0.64l0 1.38c0,0.26 0.02,0.48 0.06,0.65 0.05,0.17 0.12,0.31 0.21,0.41 0.1,0.1 0.23,0.17 0.4,0.22 0.16,0.04 0.37,0.06 0.63,0.06l4.33 0c0.14,0 0.21,0.07 0.21,0.21l0 0.96c0,0.14 -0.07,0.21 -0.21,0.21l-4.39 0c-0.5,0 -0.91,-0.04 -1.26,-0.14 -0.34,-0.09 -0.62,-0.23 -0.84,-0.44 -0.22,-0.2 -0.38,-0.47 -0.48,-0.8 -0.1,-0.32 -0.15,-0.72 -0.15,-1.19l0 -1.67c0,-0.47 0.05,-0.87 0.15,-1.19 0.1,-0.33 0.26,-0.59 0.48,-0.8 0.22,-0.2 0.5,-0.35 0.84,-0.44 0.35,-0.1 0.76,-0.14 1.26,-0.14l4.39 0z"/>
   <path class="fil12" d="M778.37 657.31c-0.08,0 -0.12,-0.02 -0.14,-0.07 -0.02,-0.04 -0.03,-0.11 -0.03,-0.22 0,-0.26 0.02,-0.48 0.07,-0.66 0.04,-0.17 0.11,-0.31 0.21,-0.42 0.1,-0.1 0.22,-0.17 0.38,-0.21 0.16,-0.05 0.34,-0.07 0.55,-0.07 0.36,0 0.66,0.05 0.91,0.14 0.24,0.1 0.48,0.23 0.7,0.41 0.11,0.09 0.22,0.16 0.31,0.22 0.1,0.05 0.24,0.08 0.43,0.08 0.1,0 0.18,-0.01 0.24,-0.03 0.05,-0.02 0.1,-0.06 0.13,-0.11 0.03,-0.05 0.05,-0.12 0.06,-0.21 0.01,-0.08 0.02,-0.19 0.02,-0.32 0.01,-0.15 0.09,-0.22 0.26,-0.22l0.56 0c0.07,0 0.12,0.02 0.14,0.07 0.02,0.04 0.03,0.11 0.03,0.22 0,0.26 -0.02,0.48 -0.07,0.66 -0.04,0.17 -0.11,0.31 -0.21,0.42 -0.11,0.1 -0.23,0.17 -0.39,0.21 -0.16,0.05 -0.34,0.07 -0.55,0.07 -0.36,0 -0.65,-0.05 -0.9,-0.14 -0.25,-0.1 -0.48,-0.23 -0.7,-0.41 -0.11,-0.09 -0.22,-0.16 -0.32,-0.22 -0.1,-0.05 -0.24,-0.08 -0.43,-0.08 -0.19,0 -0.31,0.05 -0.36,0.14 -0.05,0.1 -0.08,0.27 -0.08,0.53 -0.01,0.15 -0.1,0.22 -0.27,0.22l-0.55 0zm-0.42 4.55c0,0.26 0.03,0.47 0.07,0.64 0.04,0.17 0.11,0.31 0.21,0.41 0.09,0.1 0.23,0.17 0.39,0.21 0.17,0.05 0.38,0.07 0.63,0.07l2.89 0c0.25,0 0.46,-0.02 0.63,-0.07 0.16,-0.04 0.3,-0.11 0.39,-0.21 0.1,-0.1 0.17,-0.24 0.21,-0.41 0.04,-0.17 0.07,-0.38 0.07,-0.64l0 -1.46c0,-0.25 -0.03,-0.46 -0.07,-0.63 -0.04,-0.18 -0.11,-0.31 -0.21,-0.41 -0.09,-0.1 -0.23,-0.18 -0.39,-0.22 -0.17,-0.04 -0.38,-0.06 -0.63,-0.06l-2.89 0c-0.25,0 -0.46,0.02 -0.63,0.06 -0.16,0.04 -0.3,0.12 -0.39,0.22 -0.1,0.1 -0.17,0.23 -0.21,0.41 -0.04,0.17 -0.07,0.38 -0.07,0.63l0 1.46zm4.25 -4.13c0.49,0 0.91,0.04 1.26,0.14 0.35,0.09 0.63,0.24 0.85,0.44 0.21,0.21 0.37,0.47 0.47,0.8 0.1,0.32 0.15,0.72 0.15,1.19l0 1.67c0,0.47 -0.05,0.87 -0.15,1.19 -0.1,0.33 -0.26,0.6 -0.47,0.8 -0.22,0.21 -0.5,0.35 -0.85,0.44 -0.35,0.1 -0.77,0.14 -1.26,0.14l-3.01 0c-0.49,0 -0.91,-0.04 -1.26,-0.14 -0.34,-0.09 -0.62,-0.23 -0.84,-0.44 -0.21,-0.2 -0.37,-0.47 -0.47,-0.8 -0.11,-0.32 -0.16,-0.72 -0.16,-1.19l0 -1.67c0,-0.47 0.05,-0.87 0.16,-1.19 0.1,-0.33 0.26,-0.59 0.47,-0.8 0.22,-0.2 0.5,-0.35 0.84,-0.44 0.35,-0.1 0.77,-0.14 1.26,-0.14l3.01 0z"/>
   <path class="fil12" d="M802.42 657.73c0.15,0 0.23,0.07 0.23,0.21l0 0.92c0,0.15 -0.08,0.22 -0.23,0.22l-4.25 0c-0.26,0 -0.46,0.02 -0.63,0.06 -0.17,0.04 -0.3,0.12 -0.4,0.22 -0.1,0.1 -0.17,0.23 -0.21,0.41 -0.04,0.17 -0.06,0.38 -0.06,0.63l0 0.1 5.5 0c0.15,0 0.22,0.07 0.22,0.21l0 0.77c0,0.15 -0.07,0.22 -0.22,0.22l-5.5 0 0 0.16c0,0.26 0.02,0.47 0.06,0.64 0.04,0.17 0.11,0.31 0.21,0.41 0.1,0.1 0.23,0.17 0.4,0.21 0.17,0.05 0.37,0.07 0.63,0.07l4.25 0c0.15,0 0.23,0.07 0.23,0.21l0 0.93c0,0.14 -0.08,0.21 -0.23,0.21l-4.28 0c-0.5,0 -0.91,-0.04 -1.26,-0.14 -0.34,-0.09 -0.62,-0.23 -0.84,-0.44 -0.22,-0.2 -0.38,-0.47 -0.48,-0.8 -0.1,-0.32 -0.15,-0.72 -0.15,-1.19l0 -1.67c0,-0.47 0.05,-0.87 0.15,-1.19 0.1,-0.33 0.26,-0.59 0.48,-0.8 0.22,-0.2 0.5,-0.35 0.84,-0.44 0.35,-0.1 0.76,-0.14 1.26,-0.14l4.28 0z"/>
   <path class="fil12" d="M819.89 657.73c0.14,0 0.21,0.07 0.21,0.21l0 0.92c0,0.15 -0.07,0.22 -0.21,0.22l-4.88 0c-0.19,0 -0.32,0.05 -0.4,0.15 -0.08,0.09 -0.11,0.23 -0.11,0.39l0 0.34c0,0.36 0.16,0.54 0.5,0.54l3.65 0c0.57,0 0.99,0.15 1.28,0.43 0.28,0.29 0.43,0.71 0.43,1.25l0 0.77c0,0.48 -0.14,0.86 -0.42,1.15 -0.28,0.3 -0.72,0.44 -1.31,0.44l-5.39 0c-0.15,0 -0.22,-0.07 -0.22,-0.21l0 -0.93c0,-0.14 0.07,-0.21 0.22,-0.21l5.11 0c0.19,0 0.32,-0.05 0.4,-0.15 0.08,-0.1 0.12,-0.23 0.12,-0.4l0 -0.4c0,-0.36 -0.17,-0.54 -0.51,-0.54l-3.65 0c-0.57,0 -0.99,-0.15 -1.28,-0.44 -0.28,-0.28 -0.42,-0.7 -0.42,-1.24l0 -0.71c0,-0.47 0.14,-0.85 0.41,-1.15 0.28,-0.29 0.72,-0.43 1.31,-0.43l5.16 0z"/>
   <path class="fil12" d="M850.38 657.73c0.14,0 0.22,0.07 0.22,0.21l0 0.92c0,0.15 -0.08,0.22 -0.22,0.22l-4.26 0c-0.25,0 -0.46,0.02 -0.63,0.06 -0.16,0.04 -0.3,0.12 -0.4,0.22 -0.1,0.1 -0.17,0.23 -0.21,0.41 -0.04,0.17 -0.06,0.38 -0.06,0.63l0 0.1 5.51 0c0.14,0 0.21,0.07 0.21,0.21l0 0.77c0,0.15 -0.07,0.22 -0.21,0.22l-5.51 0 0 0.16c0,0.26 0.02,0.47 0.06,0.64 0.04,0.17 0.11,0.31 0.21,0.41 0.1,0.1 0.24,0.17 0.4,0.21 0.17,0.05 0.38,0.07 0.63,0.07l4.26 0c0.14,0 0.22,0.07 0.22,0.21l0 0.93c0,0.14 -0.08,0.21 -0.22,0.21l-4.29 0c-0.49,0 -0.91,-0.04 -1.26,-0.14 -0.34,-0.09 -0.62,-0.23 -0.84,-0.44 -0.21,-0.2 -0.37,-0.47 -0.47,-0.8 -0.11,-0.32 -0.16,-0.72 -0.16,-1.19l0 -1.67c0,-0.47 0.05,-0.87 0.16,-1.19 0.1,-0.33 0.26,-0.59 0.47,-0.8 0.22,-0.2 0.5,-0.35 0.84,-0.44 0.35,-0.1 0.77,-0.14 1.26,-0.14l4.29 0z"/>
   <path class="fil12" d="M863 657.73c0.15,0 0.27,0.01 0.37,0.02 0.11,0.02 0.2,0.06 0.28,0.12 0.07,0.05 0.14,0.13 0.21,0.22 0.06,0.09 0.12,0.22 0.18,0.38l2.03 4.67c0.03,0.06 0.07,0.09 0.14,0.09l0.11 0c0.07,0 0.11,-0.03 0.14,-0.09l2.03 -4.67c0.06,-0.16 0.12,-0.29 0.19,-0.38 0.06,-0.09 0.13,-0.17 0.2,-0.22 0.08,-0.06 0.17,-0.1 0.27,-0.12 0.1,-0.01 0.22,-0.02 0.37,-0.02l1.04 0c0.34,0 0.56,0.07 0.68,0.22 0.12,0.16 0.18,0.42 0.18,0.79l0 5.59c0,0.14 -0.08,0.21 -0.23,0.21l-0.99 0c-0.14,0 -0.22,-0.07 -0.22,-0.21l0 -5.09c0,-0.06 -0.02,-0.09 -0.07,-0.09l-0.09 0c-0.07,0 -0.11,0.02 -0.13,0.08l-1.96 4.36c-0.08,0.17 -0.16,0.32 -0.24,0.44 -0.08,0.12 -0.17,0.22 -0.27,0.3 -0.09,0.07 -0.2,0.13 -0.32,0.16 -0.12,0.04 -0.26,0.05 -0.42,0.05l-0.47 0c-0.16,0 -0.3,-0.01 -0.42,-0.05 -0.12,-0.03 -0.23,-0.09 -0.32,-0.16 -0.1,-0.08 -0.18,-0.18 -0.27,-0.3 -0.08,-0.12 -0.16,-0.27 -0.23,-0.44l-1.97 -4.36c-0.02,-0.06 -0.06,-0.08 -0.13,-0.08l-0.09 0c-0.05,0 -0.07,0.03 -0.07,0.09l0 5.09c0,0.14 -0.07,0.21 -0.22,0.21l-0.99 0c-0.15,0 -0.22,-0.07 -0.22,-0.21l0 -5.59c0,-0.37 0.05,-0.63 0.17,-0.79 0.12,-0.15 0.35,-0.22 0.69,-0.22l1.06 0z"/>
   <path class="fil12" d="M902.09 657.73c0.15,0 0.22,0.07 0.22,0.21l0 0.95c0,0.15 -0.07,0.23 -0.22,0.23l-3.06 0 0 5.21c0,0.14 -0.07,0.21 -0.22,0.21l-1.06 0c-0.14,0 -0.21,-0.07 -0.21,-0.21l0 -5.21 -3.06 0c-0.15,0 -0.22,-0.08 -0.22,-0.23l0 -0.95c0,-0.14 0.07,-0.21 0.22,-0.21l7.61 0z"/>
   <path class="fil12" d="M913.81 657.73c0.14,0 0.21,0.07 0.21,0.21l0 6.39c0,0.14 -0.07,0.21 -0.21,0.21l-1.05 0c-0.15,0 -0.23,-0.07 -0.23,-0.21l0 -6.39c0,-0.14 0.08,-0.21 0.23,-0.21l1.05 0z"/>
   <path class="fil12" d="M693.52 615.07c0,-0.48 0.22,-0.72 0.67,-0.72l16.75 0c1.49,0 2.75,0.14 3.78,0.41 1.02,0.28 1.84,0.72 2.47,1.33 0.63,0.61 1.08,1.43 1.36,2.45 0.27,1.02 0.4,2.28 0.4,3.78l0 5.62c0,1.5 -0.13,2.76 -0.4,3.78 -0.28,1.02 -0.73,1.84 -1.36,2.45 -0.63,0.61 -1.45,1.05 -2.47,1.33 -1.03,0.27 -2.29,0.41 -3.78,0.41l-16.75 0c-0.45,0 -0.67,-0.23 -0.67,-0.67l0 -20.17zm-6.28 27.93l23.9 0c2.76,0 5.12,-0.28 7.1,-0.84 1.97,-0.56 3.59,-1.43 4.85,-2.6 1.26,-1.18 2.19,-2.68 2.78,-4.5 0.6,-1.82 0.9,-3.97 0.9,-6.46l0 -6.94c0,-2.49 -0.3,-4.64 -0.9,-6.46 -0.59,-1.82 -1.52,-3.32 -2.78,-4.5 -1.26,-1.17 -2.88,-2.04 -4.85,-2.6 -1.98,-0.56 -4.34,-0.84 -7.1,-0.84l-23.9 0c-1.02,0 -1.53,0.51 -1.53,1.53l0 32.68c0,1.02 0.51,1.53 1.53,1.53z"/>
   <path class="fil12" d="M736.34 639.96c1.14,1.08 2.62,1.85 4.42,2.33 1.8,0.48 4,0.71 6.59,0.71l14.71 0c2.58,0 4.79,-0.23 6.61,-0.71 1.82,-0.48 3.3,-1.25 4.44,-2.33 1.14,-1.07 1.97,-2.46 2.48,-4.18 0.51,-1.72 0.76,-3.81 0.76,-6.26l0 -21.14c0,-0.75 -0.37,-1.12 -1.12,-1.12l-5.57 0c-0.75,0 -1.12,0.37 -1.12,1.12l0 20.38c0,1.36 -0.1,2.49 -0.31,3.39 -0.2,0.9 -0.56,1.62 -1.07,2.15 -0.51,0.53 -1.2,0.9 -2.07,1.12 -0.86,0.22 -1.96,0.33 -3.29,0.33l-14.15 0c-1.32,0 -2.42,-0.11 -3.29,-0.33 -0.87,-0.22 -1.56,-0.59 -2.07,-1.12 -0.51,-0.53 -0.88,-1.25 -1.1,-2.15 -0.22,-0.9 -0.33,-2.03 -0.33,-3.39l0 -20.38c0,-0.75 -0.37,-1.12 -1.12,-1.12l-5.52 0c-0.78,0 -1.17,0.37 -1.17,1.12l0 21.14c0,2.45 0.26,4.54 0.79,6.26 0.53,1.72 1.36,3.11 2.5,4.18z"/>
   <path class="fil12" d="M825.49 598.61l-8.52 8.65 -0.78 0c-0.41,0 -0.74,0.06 -0.97,0.18 -0.24,0.11 -0.46,0.29 -0.67,0.53l-11.8 11.85 -11.13 -11.85c-0.2,-0.24 -0.42,-0.42 -0.66,-0.53 -0.24,-0.12 -0.56,-0.18 -0.97,-0.18l-7 0c-0.48,0 -0.73,0.16 -0.76,0.48 -0.04,0.33 0.05,0.61 0.25,0.84l15.17 15.63 -16.8 17.47c-0.24,0.23 -0.33,0.52 -0.28,0.84 0.05,0.32 0.29,0.48 0.74,0.48l0.45 0 -4.58 4.65 -91.47 -0.04 0 3.7 93.02 0.04 8.22 -8.35 1 0c0.44,0 0.77,-0.05 0.99,-0.15 0.22,-0.1 0.45,-0.29 0.69,-0.56l12.67 -13.23 12.61 13.23c0.2,0.27 0.42,0.46 0.66,0.56 0.24,0.1 0.56,0.15 0.97,0.15l7 0c0.48,0 0.74,-0.16 0.79,-0.48 0.05,-0.32 -0.04,-0.61 -0.28,-0.84l-16.39 -17.21 15.68 -15.89c0.23,-0.23 0.33,-0.51 0.28,-0.84 -0.05,-0.32 -0.32,-0.48 -0.8,-0.48l-0.66 0 4.88 -4.95 87.19 0 0 -3.7 -88.74 0z"/>
   <path class="fil16" d="M901.67 621.66l-19.56 0 0 -6.74c0,-0.41 0.22,-0.62 0.67,-0.62l18.89 0c1.74,0 2.96,0.38 3.68,1.13 0.57,0.6 0.91,1.45 1.03,2.55 -0.12,1.11 -0.46,1.96 -1.03,2.56 -0.72,0.75 -1.94,1.12 -3.68,1.12zm10.01 -11.75c-1.7,-1.77 -4.51,-2.65 -8.42,-2.65l-27.43 0c-1.02,0 -1.53,0.51 -1.53,1.53l0 12.87 -29.07 0c-0.73,0 -1.31,0.59 -1.31,1.32l0 3.66c0,0.72 0.58,1.31 1.31,1.31l14.82 0c0.37,0.02 0.56,0.23 0.56,0.65l0 4.14c0,1.16 -0.2,1.96 -0.61,2.43 -0.41,0.45 -1.05,0.68 -1.94,0.68l-16.85 0c-1.33,0 -2.43,-0.11 -3.3,-0.33 -0.86,-0.22 -1.55,-0.59 -2.06,-1.12 -0.51,-0.53 -0.88,-1.24 -1.1,-2.15 -0.22,-0.9 -0.33,-2.03 -0.33,-3.39l0 -7.36c0,-1.36 0.11,-2.48 0.33,-3.37 0.22,-0.88 0.59,-1.59 1.1,-2.12 0.51,-0.52 1.2,-0.9 2.06,-1.12 0.87,-0.22 1.97,-0.33 3.3,-0.33l25.58 0c0.75,0 1.13,-0.39 1.13,-1.18l0 -5c0,-0.75 -0.38,-1.12 -1.13,-1.12l-25.89 0c-2.59,0 -4.78,0.24 -6.59,0.74 -1.8,0.49 -3.27,1.27 -4.41,2.35 -1.14,1.07 -1.98,2.46 -2.51,4.16 -0.52,1.7 -0.79,3.78 -0.79,6.23l0 8.78c0,2.45 0.27,4.54 0.79,6.26 0.53,1.72 1.37,3.11 2.51,4.18 1.14,1.08 2.61,1.85 4.41,2.33 1.81,0.48 4,0.71 6.59,0.71l20.63 0c2.05,0 3.61,-0.58 4.7,-1.76 1.09,-1.17 1.64,-3.19 1.64,-6.05l0 -7.24 6.43 0 0 13.93c0,0.75 0.39,1.12 1.17,1.12l5.52 0c0.75,0 1.12,-0.37 1.12,-1.12l0 -13.93 21.15 0c3.91,0 6.72,-0.89 8.42,-2.66 1.7,-1.77 2.55,-4.39 2.55,-7.86l0 -0.11c0,-3.48 -0.85,-5.64 -2.55,-7.41z"/>
  </g>
 </g>
</svg>
