<?xml version="1.0" encoding="UTF-8"?>
<!DOCTYPE svg PUBLIC "-//W3C//DTD SVG 1.1//EN" "http://www.w3.org/Graphics/SVG/1.1/DTD/svg11.dtd">
<!-- Creator: CorelDRAW 2021 (64 Bit) -->
<svg xmlns="http://www.w3.org/2000/svg" xml:space="preserve" width="2000px" height="1125px" version="1.1" style="shape-rendering:geometricPrecision; text-rendering:geometricPrecision; image-rendering:optimizeQuality; fill-rule:evenodd; clip-rule:evenodd"
viewBox="0 0 2000.14 1124.99"
 xmlns:xlink="http://www.w3.org/1999/xlink"
 xmlns:xodm="http://www.corel.com/coreldraw/odm/2003">
 <defs>
  <style type="text/css">
   <![CDATA[
    .str0 {stroke:#373435;stroke-width:1.14;stroke-miterlimit:22.9256}
    .fil2 {fill:none}
    .fil10 {fill:#48A980}
    .fil0 {fill:#00CC83}
    .fil9 {fill:#00CC83}
    .fil14 {fill:#6D41A1}
    .fil11 {fill:#CACACA}
    .fil5 {fill:#FEFEFE;fill-rule:nonzero}
    .fil7 {fill:#606062;fill-rule:nonzero}
    .fil12 {fill:#373435;fill-rule:nonzero}
    .fil16 {fill:#953735;fill-rule:nonzero}
    .fil6 {fill:#953735;fill-rule:nonzero}
    .fil13 {fill:#00CC83;fill-rule:nonzero}
    .fil15 {fill:#6D41A1;fill-rule:nonzero}
    .fil4 {fill:#7F7F7F;fill-rule:nonzero}
    .fil8 {fill:#7F7F7F;fill-rule:nonzero}
    .fil3 {fill:#B0B0B0;fill-rule:nonzero}
    .fil1 {fill:#FEFEFE}
   ]]>
  </style>
    <clipPath id="id0">
     <path d="M0 0l1999.94 0 0 1124.99 -1999.94 0 0 -1124.99z"/>
    </clipPath>
     <mask id="id1">
  <linearGradient id="id2" gradientUnits="userSpaceOnUse" x1="1100.88" y1="-324.2" x2="1100.88" y2="1028.82">
   <stop offset="0" style="stop-opacity:1; stop-color:white"/>
   <stop offset="1" style="stop-opacity:0; stop-color:white"/>
  </linearGradient>
      <rect style="fill:url(#id2)" width="1999.94" height="1124.99"/>
     </mask>
    <clipPath id="id3">
     <path d="M0 0l1999.94 0 0 1124.99 -1999.94 0 0 -1124.99z"/>
    </clipPath>
 </defs>
 <g id="Camada_x0020_1">
  <metadata id="CorelCorpID_0Corel-Layer"/>
  <g id="_1194307473968">
   <g style="clip-path:url(#id0)">
    <polygon class="fil0" style="mask:url(#id1)" points="0,0 1999.94,0 1999.94,1124.99 0,1124.99 "/>
   </g>
   <g style="clip-path:url(#id3)">
    <g>
     <polygon id="_1" class="fil1 str0" points="-206.62,-48.04 2062.57,-48.04 2062.57,1144.36 -206.62,1144.36 "/>
    </g>
   </g>
   <polygon class="fil2" points="0,0 1999.94,0 1999.94,1124.99 0,1124.99 "/>
   <polygon class="fil3" points="1887.61,1068.69 2000.14,1068.69 2000.14,1031.18 1887.61,1031.18 "/>
   <polygon class="fil4" points="1832.4,1068.69 1878.24,1068.69 1878.24,1031.18 1832.4,1031.18 "/>
   <path class="fil5" d="M1840.97 1044.86c0.1,-0.43 0.24,-0.85 0.42,-1.26 0.18,-0.41 0.44,-0.84 0.78,-1.29 0.34,-0.45 0.74,-0.85 1.18,-1.18 0.44,-0.33 1,-0.61 1.67,-0.83 0.68,-0.21 1.41,-0.32 2.21,-0.32 1.87,0 3.38,0.53 4.54,1.58 1.16,1.06 1.74,2.47 1.74,4.23 0,0.69 -0.13,1.37 -0.39,2.04 -0.27,0.66 -0.62,1.26 -1.05,1.79 -0.43,0.53 -0.91,1.04 -1.43,1.54 -0.53,0.49 -1.06,0.96 -1.61,1.4 -0.54,0.43 -1.05,0.85 -1.51,1.24 -0.47,0.39 -0.88,0.79 -1.22,1.21 -0.33,0.41 -0.55,0.81 -0.64,1.18l8.01 0 0 3.35 -12.59 0 0 -1.37c0,-0.73 0.16,-1.46 0.47,-2.19 0.31,-0.73 0.71,-1.4 1.21,-2 0.49,-0.61 1.04,-1.2 1.64,-1.79 0.6,-0.58 1.2,-1.13 1.81,-1.67 0.6,-0.53 1.15,-1.05 1.65,-1.55 0.49,-0.5 0.9,-1.01 1.21,-1.53 0.31,-0.52 0.46,-1.02 0.46,-1.49 0,-0.71 -0.22,-1.28 -0.66,-1.71 -0.43,-0.43 -1.03,-0.64 -1.8,-0.64 -1.37,0 -2.27,0.75 -2.72,2.24l-3.38 -0.98z"/>
   <path id="_1_0" class="fil5" d="M1855.99 1049.94c0,-3.36 0.51,-5.85 1.54,-7.5 1.03,-1.64 2.71,-2.46 5.03,-2.46 2.34,0 4.02,0.82 5.05,2.46 1.03,1.63 1.55,4.14 1.55,7.5 0,3.36 -0.51,5.86 -1.54,7.5 -1.02,1.63 -2.71,2.45 -5.06,2.45 -2.32,0 -4,-0.82 -5.03,-2.45 -1.03,-1.64 -1.54,-4.14 -1.54,-7.5zm3.91 -1.89c-0.03,0.52 -0.04,1.15 -0.04,1.89 0,0.73 0.01,1.36 0.04,1.89 0.03,0.53 0.07,1.05 0.14,1.55 0.07,0.51 0.17,0.93 0.29,1.26 0.12,0.34 0.29,0.64 0.49,0.89 0.2,0.25 0.45,0.44 0.74,0.56 0.28,0.12 0.62,0.18 1,0.18 0.47,0 0.87,-0.09 1.19,-0.28 0.33,-0.19 0.6,-0.44 0.8,-0.76 0.2,-0.32 0.35,-0.76 0.47,-1.32 0.11,-0.55 0.18,-1.13 0.22,-1.74 0.03,-0.61 0.05,-1.35 0.05,-2.23 0,-0.74 -0.01,-1.37 -0.04,-1.89 -0.03,-0.53 -0.07,-1.05 -0.14,-1.55 -0.06,-0.51 -0.16,-0.93 -0.29,-1.26 -0.14,-0.33 -0.3,-0.63 -0.5,-0.89 -0.19,-0.26 -0.44,-0.45 -0.73,-0.57 -0.29,-0.12 -0.63,-0.18 -1.03,-0.18 -0.38,0 -0.72,0.06 -1,0.18 -0.29,0.12 -0.53,0.31 -0.73,0.57 -0.2,0.26 -0.36,0.56 -0.49,0.89 -0.13,0.33 -0.23,0.75 -0.3,1.26 -0.07,0.5 -0.11,1.02 -0.14,1.55z"/>
  </g>
  <path class="fil6" d="M857.42 871.52c-1.26,0 -2.4,0 -3.35,0.8 -1.14,1 -1.14,2.26 -1.14,3.64l0 14.63 2.12 0 0 -8.83 6.74 0 0 -2.01 -6.74 0 0 -3.79c0,-1.18 0,-1.81 0.48,-2.18 0.35,-0.26 0.83,-0.26 1.89,-0.26l5.8 0 0 -2 -5.8 0z"/>
  <path id="_1_1" class="fil6" d="M869.2 879.78l0 -3.82c0,-1.18 0,-1.81 0.49,-2.18 0.34,-0.26 0.82,-0.26 1.88,-0.26l6.09 0 0 -2 -6.09 0c-1.26,0 -2.4,0 -3.34,0.8 -1.15,1 -1.15,2.26 -1.15,3.64l0 10.2c0,1.37 0,2.63 1.15,3.63 0.94,0.8 2.08,0.8 3.34,0.8l6.09 0 0 -2 -6.09 0c-1.06,0 -1.54,0 -1.88,-0.26 -0.49,-0.37 -0.49,-1 -0.49,-2.17l0 -4.38 6.75 -0.02 0 -2.01 -6.75 0.03z"/>
  <path id="_2" class="fil6" d="M886.01 873.52c1.86,0 3.2,0 4.29,1.01 0.74,0.68 1.11,1.77 1.11,2.87 0,1.09 -0.37,2.18 -1.11,2.87 -1.09,1 -2.4,1 -4.55,1l-1.97 0 0 -5.31c0,-1.18 0,-1.81 0.49,-2.18 0.34,-0.26 0.83,-0.26 1.74,-0.26zm0 -2c-1.11,0 -2.26,0 -3.2,0.8 -1.14,1 -1.14,2.26 -1.14,3.64l0 14.63 2.11 0 0 -7.32 1.97 0c1.43,0 2.06,0 2.69,-0.09l3.09 7.41 2.29 0 -3.38 -7.98c1.78,-0.83 3.09,-2.72 3.09,-5.21 0,-1.82 -0.69,-3.31 -1.74,-4.31 -1.69,-1.57 -3.81,-1.57 -5.78,-1.57z"/>
  <path id="_3" class="fil6" d="M903.17 871.38c-1.78,0 -3.41,0.65 -4.44,1.83 -1.48,1.68 -1.48,3.74 -1.48,6.31l0 11.07 2.11 0 0 -11.07c0,-2.31 0,-3.91 0.98,-5 0.68,-0.77 1.71,-1.14 2.83,-1.14 1.11,0 2.14,0.37 2.83,1.14 0.97,1.09 0.97,2.69 0.97,5l0 11.07 2.11 0 0 -11.07c0,-2.57 0,-4.63 -1.48,-6.31 -1.03,-1.18 -2.66,-1.83 -4.43,-1.83z"/>
  <path id="_4" class="fil6" d="M919.58 871.38c-0.75,0 -1.52,0.25 -2.09,0.8 -0.49,0.45 -0.71,0.85 -1.32,3.14l-4.08 15.27 2.17 0 1.49 -5.58 7.66 0 1.49 5.58 2.17 0 -4.09 -15.27c-0.6,-2.29 -0.83,-2.69 -1.32,-3.14 -0.57,-0.55 -1.34,-0.8 -2.08,-0.8zm-3.29 11.63l1.94 -7.23c0.4,-1.54 0.55,-1.97 0.75,-2.17 0.14,-0.15 0.37,-0.23 0.6,-0.23 0.23,0 0.45,0.08 0.6,0.23 0.2,0.2 0.34,0.63 0.74,2.17l1.95 7.23 -6.58 0z"/>
  <path id="_5" class="fil6" d="M935.99 871.38c-1.77,0 -3.4,0.65 -4.43,1.83 -1.49,1.68 -1.49,3.74 -1.49,6.31l0 11.07 2.12 0 0 -11.07c0,-2.31 0,-3.91 0.97,-5 0.68,-0.77 1.71,-1.14 2.83,-1.14 1.11,0 2.14,0.37 2.83,1.14 0.97,1.09 0.97,2.69 0.97,5l0 11.07 2.12 0 0 -11.07c0,-2.57 0,-4.63 -1.49,-6.31 -1.03,-1.18 -2.66,-1.83 -4.43,-1.83z"/>
  <path id="_6" class="fil6" d="M949.97 871.52c-0.69,0 -1.83,0 -2.77,0.8 -1.15,1 -1.15,2.26 -1.15,3.64l0 10.19c0,1.38 0,2.64 1.15,3.64 0.94,0.8 2.08,0.8 2.77,0.8 1.86,0 4.75,0 6.72,-1.97 1.94,-1.95 1.94,-4.64 1.94,-7.57 0,-2.92 0,-5.61 -1.94,-7.56 -1.97,-1.97 -4.86,-1.97 -6.72,-1.97zm0 2c1.6,0 3.83,0 5.18,1.34 1.37,1.38 1.37,3.44 1.37,6.19 0,2.75 0,4.82 -1.37,6.19 -1.35,1.35 -3.58,1.35 -5.18,1.35 -0.49,0 -0.97,0 -1.31,-0.26 -0.49,-0.37 -0.49,-1 -0.49,-2.18l0 -10.19c0,-1.18 0,-1.81 0.49,-2.18 0.34,-0.26 0.82,-0.26 1.31,-0.26z"/>
  <path id="_7" class="fil6" d="M964.18 881.07c0,-2.92 0,-4.63 0.74,-5.86 0.69,-1.15 2.03,-1.83 3.63,-1.83 1.61,0 2.95,0.68 3.64,1.83 0.74,1.23 0.74,2.94 0.74,5.86 0,2.92 0,4.63 -0.74,5.86 -0.69,1.14 -2.03,1.83 -3.64,1.83 -1.6,0 -2.94,-0.69 -3.63,-1.83 -0.74,-1.23 -0.74,-2.94 -0.74,-5.86zm-2.12 0c0,3.37 0,5.17 1.03,6.86 1.06,1.75 3.06,2.83 5.46,2.83 2.41,0 4.41,-1.08 5.47,-2.83 1.02,-1.69 1.02,-3.49 1.02,-6.86 0,-3.37 0,-5.18 -1.02,-6.86 -1.06,-1.75 -3.06,-2.83 -5.47,-2.83 -2.4,0 -4.4,1.08 -5.46,2.83 -1.03,1.68 -1.03,3.49 -1.03,6.86z"/>
  <path id="_8" class="fil6" d="M990.11 871.52c-0.68,0 -1.83,0 -2.77,0.8 -1.14,1 -1.14,2.26 -1.14,3.64l0 10.19c0,1.38 0,2.64 1.14,3.64 0.94,0.8 2.09,0.8 2.77,0.8 1.86,0 4.75,0 6.72,-1.97 1.95,-1.95 1.95,-4.64 1.95,-7.57 0,-2.92 0,-5.61 -1.95,-7.56 -1.97,-1.97 -4.86,-1.97 -6.72,-1.97zm0 2c1.6,0 3.83,0 5.18,1.34 1.37,1.38 1.37,3.44 1.37,6.19 0,2.75 0,4.82 -1.37,6.19 -1.35,1.35 -3.58,1.35 -5.18,1.35 -0.48,0 -0.97,0 -1.31,-0.26 -0.49,-0.37 -0.49,-1 -0.49,-2.18l0 -10.19c0,-1.18 0,-1.81 0.49,-2.18 0.34,-0.26 0.83,-0.26 1.31,-0.26z"/>
  <path id="_9" class="fil6" d="M1008.27 871.38c-0.75,0 -1.52,0.25 -2.09,0.8 -0.49,0.45 -0.71,0.85 -1.31,3.14l-4.09 15.27 2.17 0 1.49 -5.58 7.66 0 1.49 5.58 2.17 0 -4.09 -15.27c-0.6,-2.29 -0.83,-2.69 -1.31,-3.14 -0.58,-0.55 -1.35,-0.8 -2.09,-0.8zm-3.29 11.63l1.94 -7.23c0.4,-1.54 0.55,-1.97 0.75,-2.17 0.14,-0.15 0.37,-0.23 0.6,-0.23 0.23,0 0.46,0.08 0.6,0.23 0.2,0.2 0.34,0.63 0.74,2.17l1.95 7.23 -6.58 0z"/>
  <path id="_10" class="fil6" d="M1018.9 871.52l0 14.64c0,1.37 0,2.63 1.15,3.63 0.94,0.8 2.09,0.8 3.34,0.8l5.52 0 0 -2 -5.52 0c-1.05,0 -1.54,0 -1.88,-0.26 -0.49,-0.37 -0.49,-1 -0.49,-2.17l0 -14.64 -2.12 0z"/>
  <path id="_11" class="fil6" d="M1034.74 879.78l0 -3.82c0,-1.18 0,-1.81 0.49,-2.18 0.34,-0.26 0.83,-0.26 1.89,-0.26l6.09 0 0 -2 -6.09 0c-1.26,0 -2.4,0 -3.35,0.8 -1.14,1 -1.14,2.26 -1.14,3.64l0 10.2c0,1.37 0,2.63 1.14,3.63 0.95,0.8 2.09,0.8 3.35,0.8l6.09 0 0 -2 -6.09 0c-1.06,0 -1.55,0 -1.89,-0.26 -0.49,-0.37 -0.49,-1 -0.49,-2.17l0 -4.38 6.75 -0.02 0 -2.01 -6.75 0.03z"/>
  <path id="_12" class="fil6" d="M1055.39 871.52l-2.18 0 3.75 15.81c0.43,1.77 0.54,2.09 1.11,2.63 0.58,0.54 1.35,0.8 2.09,0.8 0.74,0 1.52,-0.26 2.09,-0.8 0.57,-0.54 0.68,-0.86 1.11,-2.63l3.75 -15.81 -2.17 0 -3.64 15.35c-0.25,1.06 -0.34,1.49 -0.54,1.66 -0.2,0.17 -0.37,0.23 -0.6,0.23 -0.23,0 -0.4,-0.06 -0.6,-0.23 -0.2,-0.17 -0.29,-0.6 -0.54,-1.66l-3.63 -15.35z"/>
  <path id="_13" class="fil6" d="M1072.37 879.78l0 -3.82c0,-1.18 0,-1.81 0.49,-2.18 0.34,-0.26 0.83,-0.26 1.88,-0.26l6.09 0 0 -2 -6.09 0c-1.25,0 -2.4,0 -3.34,0.8 -1.15,1 -1.15,2.26 -1.15,3.64l0 10.2c0,1.37 0,2.63 1.15,3.63 0.94,0.8 2.09,0.8 3.34,0.8l6.09 0 0 -2 -6.09 0c-1.05,0 -1.54,0 -1.88,-0.26 -0.49,-0.37 -0.49,-1 -0.49,-2.17l0 -4.38 6.75 -0.02 0 -2.01 -6.75 0.03z"/>
  <path id="_14" class="fil6" d="M1088.75 871.52c-0.68,0 -1.83,0 -2.77,0.8 -1.14,1 -1.14,2.26 -1.14,3.64l0 10.19c0,1.38 0,2.64 1.14,3.64 0.94,0.8 2.09,0.8 2.77,0.8 1.86,0 4.75,0 6.72,-1.97 1.95,-1.95 1.95,-4.64 1.95,-7.57 0,-2.92 0,-5.61 -1.95,-7.56 -1.97,-1.97 -4.86,-1.97 -6.72,-1.97zm0 2c1.6,0 3.83,0 5.18,1.34 1.37,1.38 1.37,3.44 1.37,6.19 0,2.75 0,4.82 -1.37,6.19 -1.35,1.35 -3.58,1.35 -5.18,1.35 -0.48,0 -0.97,0 -1.31,-0.26 -0.49,-0.37 -0.49,-1 -0.49,-2.18l0 -10.19c0,-1.18 0,-1.81 0.49,-2.18 0.34,-0.26 0.83,-0.26 1.31,-0.26z"/>
  <path id="_15" class="fil6" d="M1102.96 881.07c0,-2.92 0,-4.63 0.75,-5.86 0.68,-1.15 2.03,-1.83 3.63,-1.83 1.6,0 2.94,0.68 3.63,1.83 0.74,1.23 0.74,2.94 0.74,5.86 0,2.92 0,4.63 -0.74,5.86 -0.69,1.14 -2.03,1.83 -3.63,1.83 -1.6,0 -2.95,-0.69 -3.63,-1.83 -0.75,-1.23 -0.75,-2.94 -0.75,-5.86zm-2.11 0c0,3.37 0,5.17 1.03,6.86 1.05,1.75 3.06,2.83 5.46,2.83 2.4,0 4.4,-1.08 5.46,-2.83 1.03,-1.69 1.03,-3.49 1.03,-6.86 0,-3.37 0,-5.18 -1.03,-6.86 -1.06,-1.75 -3.06,-2.83 -5.46,-2.83 -2.4,0 -4.41,1.08 -5.46,2.83 -1.03,1.68 -1.03,3.49 -1.03,6.86z"/>
  <path id="_16" class="fil6" d="M1118 871.52l-2.17 0 3.74 15.81c0.43,1.77 0.55,2.09 1.12,2.63 0.57,0.54 1.34,0.8 2.09,0.8 0.74,0 1.51,-0.26 2.08,-0.8 0.58,-0.54 0.69,-0.86 1.12,-2.63l3.74 -15.81 -2.17 0 -3.63 15.35c-0.26,1.06 -0.34,1.49 -0.54,1.66 -0.2,0.17 -0.37,0.23 -0.6,0.23 -0.23,0 -0.4,-0.06 -0.6,-0.23 -0.2,-0.17 -0.29,-0.6 -0.55,-1.66l-3.63 -15.35z"/>
  <path id="_17" class="fil6" d="M1134.99 879.78l0 -3.82c0,-1.18 0,-1.81 0.48,-2.18 0.34,-0.26 0.83,-0.26 1.89,-0.26l6.09 0 0 -2 -6.09 0c-1.26,0 -2.4,0 -3.35,0.8 -1.14,1 -1.14,2.26 -1.14,3.64l0 10.2c0,1.37 0,2.63 1.14,3.63 0.95,0.8 2.09,0.8 3.35,0.8l6.09 0 0 -2 -6.09 0c-1.06,0 -1.55,0 -1.89,-0.26 -0.48,-0.37 -0.48,-1 -0.48,-2.17l0 -4.38 6.74 -0.02 0 -2.01 -6.74 0.03z"/>
  <path id="_18" class="fil7" d="M878.16 907.63l-2.06 0 2.55 10.49c0.31,1.32 0.46,2.06 1.26,2.72 0.45,0.37 1.08,0.63 1.8,0.63 0.71,0 1.34,-0.26 1.8,-0.63 0.8,-0.66 0.94,-1.4 1.26,-2.72l2.54 -10.49 -2.06 0 -2.48 10.29c-0.18,0.75 -0.29,1.18 -0.46,1.38 -0.14,0.17 -0.37,0.28 -0.6,0.28 -0.23,0 -0.46,-0.11 -0.6,-0.28 -0.17,-0.2 -0.29,-0.63 -0.46,-1.38l-2.49 -10.29z"/>
  <path id="_19" class="fil7" d="M891.43 918.38c-0.66,-0.89 -0.66,-2.57 -0.66,-3.32l2.63 0c2.03,0 3.26,0 4.46,-0.85 0.8,-0.58 1.43,-1.55 1.43,-2.81 -0.03,-1.11 -0.57,-2.17 -1.43,-2.88 -0.85,-0.69 -2,-1.06 -3.43,-1.06 -2.03,0 -3.74,0.74 -4.66,2.03 -1.03,1.43 -1.03,2.74 -1.03,4.97 0,1.86 0,3.58 1.09,5.06 0.91,1.23 2.49,1.95 4.46,1.95 1.49,0 2.97,-0.32 4.32,-1l-0.83 -1.72c-1.03,0.55 -2.26,0.83 -3.49,0.83 -1.37,0 -2.29,-0.43 -2.86,-1.2zm5.86 -6.98c0,0.66 -0.31,1.15 -0.69,1.43 -0.6,0.46 -1.4,0.46 -3.2,0.46l-2.63 0c0,-0.57 0,-2 0.72,-2.83 0.63,-0.74 1.66,-1.11 2.94,-1.11 0.89,0 1.63,0.2 2.12,0.6 0.43,0.34 0.71,0.91 0.74,1.45z"/>
  <path id="_20" class="fil7" d="M906.87 907.46c-1.69,0 -3.03,0.69 -3.86,1.69 -1.29,1.54 -1.29,3.43 -1.29,5.37 0,1.75 0,3.75 1.6,5.38 0.89,0.88 2.26,1.57 3.98,1.57 1.8,0 3.23,-0.77 4.03,-1.89 0.97,-1.34 0.97,-2.77 0.97,-4.92l0 -12.43 -2 0 0 6.97c-0.77,-1.08 -2.03,-1.74 -3.43,-1.74zm3.43 7.58c0,1.51 0,2.74 -0.69,3.57 -0.57,0.69 -1.43,0.97 -2.31,0.97 -0.97,0 -1.95,-0.34 -2.58,-1.03 -1,-1.08 -1,-2.57 -1,-4.03 0,-1.6 0,-3.17 0.86,-4.17 0.52,-0.6 1.35,-1 2.43,-1 1.09,0 1.92,0.4 2.43,1 0.86,1 0.86,2.57 0.86,4.69z"/>
  <path id="_21" class="fil7" d="M920.59 909.35c1.26,0 2.23,0.51 2.8,1.37 0.63,0.94 0.63,2.29 0.63,3.74 0,1.46 0,2.81 -0.63,3.75 -0.57,0.86 -1.54,1.37 -2.8,1.37 -1.26,0 -2.23,-0.51 -2.8,-1.37 -0.63,-0.94 -0.63,-2.29 -0.63,-3.75 0,-1.45 0,-2.8 0.63,-3.74 0.57,-0.86 1.54,-1.37 2.8,-1.37zm0 -1.89c-2.03,0 -3.69,0.91 -4.6,2.43 -0.83,1.37 -0.83,2.94 -0.83,4.57 0,1.63 0,3.21 0.83,4.58 0.91,1.51 2.57,2.43 4.6,2.43 2.03,0 3.69,-0.92 4.61,-2.43 0.83,-1.37 0.83,-2.95 0.83,-4.58 0,-1.63 0,-3.2 -0.83,-4.57 -0.92,-1.52 -2.58,-2.43 -4.61,-2.43z"/>
  <path id="_22" class="fil7" d="M929.51 907.63l-2.06 0 2.55 10.49c0.31,1.32 0.46,2.06 1.26,2.72 0.45,0.37 1.08,0.63 1.8,0.63 0.71,0 1.34,-0.26 1.8,-0.63 0.8,-0.66 0.94,-1.4 1.26,-2.72l2.54 -10.49 -2.06 0 -2.48 10.29c-0.18,0.75 -0.29,1.18 -0.46,1.38 -0.14,0.17 -0.37,0.28 -0.6,0.28 -0.23,0 -0.46,-0.11 -0.6,-0.28 -0.17,-0.2 -0.29,-0.63 -0.46,-1.38l-2.49 -10.29z"/>
  <path id="_23" class="fil7" d="M942.78 918.38c-0.66,-0.89 -0.66,-2.57 -0.66,-3.32l2.63 0c2.03,0 3.26,0 4.46,-0.85 0.8,-0.58 1.43,-1.55 1.43,-2.81 -0.03,-1.11 -0.57,-2.17 -1.43,-2.88 -0.85,-0.69 -2,-1.06 -3.43,-1.06 -2.03,0 -3.74,0.74 -4.66,2.03 -1.03,1.43 -1.03,2.74 -1.03,4.97 0,1.86 0,3.58 1.09,5.06 0.91,1.23 2.49,1.95 4.46,1.95 1.49,0 2.97,-0.32 4.32,-1l-0.83 -1.72c-1.03,0.55 -2.26,0.83 -3.49,0.83 -1.37,0 -2.29,-0.43 -2.86,-1.2zm5.86 -6.98c0,0.66 -0.31,1.15 -0.69,1.43 -0.6,0.46 -1.4,0.46 -3.2,0.46l-2.63 0c0,-0.57 0,-2 0.72,-2.83 0.63,-0.74 1.66,-1.11 2.94,-1.11 0.89,0 1.63,0.2 2.12,0.6 0.43,0.34 0.71,0.91 0.74,1.45z"/>
  <path id="_24" class="fil7" d="M968.77 913.69c0,-1.6 0,-3.69 -1.77,-5.03 -1.49,-1.12 -3.03,-1.12 -5.24,-1.12 -2.34,0 -4.51,0 -6.26,1.89 -1.57,1.72 -1.57,3.78 -1.57,6.15l0 2.92c0,2.37 0,4.43 1.57,6.14 1.75,1.89 4.18,1.89 6.52,1.89l3.83 0c2.35,0 4.78,0 6.52,-1.89 1.58,-1.71 1.58,-3.77 1.58,-6.14l0 -3.92c0,-3.32 0,-6.86 -2.72,-9.6 -2.75,-2.75 -6.21,-2.75 -9.67,-2.75l-1.85 0 0 1.77 1.85 0c3.15,0 6.12,0 8.3,2.19 2.2,2.21 2.2,5.13 2.2,8.39l0 3.92c0,2.14 0,3.68 -1.03,4.88 -1.17,1.38 -2.95,1.38 -5.18,1.38l-3.83 0c-2.23,0 -4,0 -5.17,-1.38 -1.03,-1.2 -1.03,-2.74 -1.03,-4.88l0 -2.92c0,-2.15 0,-3.69 1.03,-4.89 1.17,-1.37 2.68,-1.37 4.91,-1.37 1.98,0 3.06,0 3.89,0.65 1.12,0.89 1.12,2.24 1.12,3.01l-2.35 0c-1.11,0 -2.71,0 -4.06,0.97 -0.91,0.66 -1.68,1.77 -1.68,3.29 0,1.48 0.77,2.63 1.71,3.29 0.92,0.65 2.09,0.94 3.46,0.94 1.72,0 3.06,-0.49 3.92,-1.49 1,-1.17 1,-2.49 1,-4.4l0 -1.89zm-2 1.89c0,1.69 0,2.57 -0.54,3.2 -0.49,0.57 -1.32,0.8 -2.38,0.8 -0.91,0 -1.71,-0.17 -2.26,-0.54 -0.51,-0.37 -0.91,-1 -0.91,-1.8 0,-0.89 0.43,-1.55 0.94,-1.92 0.8,-0.57 1.83,-0.57 2.8,-0.57l2.35 0 0 0.83z"/>
  <path id="_25" class="fil7" d="M982.52 907.46c-1.68,0 -3.03,0.69 -3.86,1.69 -1.28,1.54 -1.28,3.43 -1.28,5.37 0,1.75 0,3.75 1.6,5.38 0.88,0.88 2.26,1.57 3.97,1.57 1.8,0 3.23,-0.77 4.03,-1.89 0.97,-1.34 0.97,-2.77 0.97,-4.92l0 -12.43 -2 0 0 6.97c-0.77,-1.08 -2.03,-1.74 -3.43,-1.74zm3.43 7.58c0,1.51 0,2.74 -0.68,3.57 -0.57,0.69 -1.43,0.97 -2.32,0.97 -0.97,0 -1.94,-0.34 -2.57,-1.03 -1,-1.08 -1,-2.57 -1,-4.03 0,-1.6 0,-3.17 0.85,-4.17 0.52,-0.6 1.35,-1 2.44,-1 1.08,0 1.91,0.4 2.43,1 0.85,1 0.85,2.57 0.85,4.69z"/>
  <path id="_26" class="fil7" d="M991.1 907.63l0 7.32c0,2 0,3.66 1.34,5.06 0.69,0.72 1.92,1.46 3.66,1.46 1.75,0 2.98,-0.74 3.66,-1.46 1.35,-1.4 1.35,-3.06 1.35,-5.06l0 -7.32 -2.01 0 0 7.32c0,1.77 0,2.97 -0.82,3.8 -0.49,0.49 -1.23,0.83 -2.18,0.83 -0.94,0 -1.68,-0.34 -2.17,-0.83 -0.83,-0.83 -0.83,-2.03 -0.83,-3.8l0 -7.32 -2 0z"/>
  <polygon id="_27" class="fil7" points="1003.91,907.63 1008.02,914.41 1003.82,921.3 1006.02,921.3 1009.14,915.95 1012.2,921.3 1014.46,921.3 1010.26,914.41 1014.37,907.63 1012.17,907.63 1009.14,912.83 1006.17,907.63 "/>
  <path id="_28" class="fil7" d="M1021.38 909.35c1.03,0 2,0.37 2.54,1.03 0.69,0.8 0.69,2 0.69,3.51 0,2.12 0,3.69 -0.86,4.69 -0.51,0.6 -1.34,1 -2.43,1 -1.09,0 -1.92,-0.4 -2.43,-1 -0.86,-1 -0.86,-2.57 -0.86,-4.17 0,-1.63 0,-3.09 0.92,-4.12 0.51,-0.57 1.37,-0.94 2.43,-0.94zm0 -1.89c-1.72,0 -3.09,0.66 -3.98,1.63 -1.37,1.54 -1.37,3.54 -1.37,5.32 0,1.94 0,3.83 1.29,5.37 0.83,1 2.17,1.69 3.86,1.69 1.4,0 2.66,-0.66 3.43,-1.75l0 0.29c0,1.74 0,2.77 -0.69,3.63 -0.54,0.69 -1.49,1.17 -2.89,1.17 -1.2,0 -2.4,-0.34 -3.34,-0.85l-0.83 1.71c1.26,0.69 2.77,1.03 4.17,1.03 1.89,0 3.35,-0.66 4.26,-1.66 1.32,-1.43 1.32,-3 1.32,-5.03l0 -5.83c0,-2.32 0,-3.66 -1.14,-5.01 -1.12,-1.31 -2.78,-1.71 -4.09,-1.71z"/>
  <path id="_29" class="fil7" d="M1034.99 909.35c1.05,0 1.91,0.37 2.43,0.94 0.91,1.03 0.91,2.49 0.91,4.12 0,1.6 0,3.17 -0.86,4.17 -0.51,0.6 -1.34,1 -2.43,1 -1.08,0 -1.91,-0.4 -2.43,-1 -0.85,-1 -0.85,-2.57 -0.85,-4.69 0,-1.51 0,-2.71 0.68,-3.51 0.55,-0.66 1.52,-1.03 2.55,-1.03zm0 -1.89c-1.32,0 -2.98,0.4 -4.09,1.71 -1.15,1.35 -1.15,2.69 -1.15,5.01l0 12.35 2.01 0 0 -6.81c0.77,1.09 2.03,1.75 3.43,1.75 1.68,0 3.03,-0.69 3.86,-1.69 1.28,-1.54 1.28,-3.43 1.28,-5.37 0,-1.78 0,-3.78 -1.37,-5.32 -0.89,-0.97 -2.26,-1.63 -3.97,-1.63z"/>
  <path id="_30" class="fil7" d="M1044.22 918.55c-0.86,0 -1.46,0.6 -1.46,1.46 0,0.86 0.6,1.46 1.46,1.46 0.86,0 1.46,-0.6 1.46,-1.46 0,-0.86 -0.6,-1.46 -1.46,-1.46z"/>
  <path id="_31" class="fil7" d="M1056.34 918.64c-0.91,0.63 -2,0.94 -3.08,0.94 -1.12,0 -1.98,-0.37 -2.52,-1 -0.91,-1.06 -0.91,-2.77 -0.91,-4.23 0,-1.26 0,-2.95 0.88,-3.97 0.69,-0.81 1.66,-1.03 2.55,-1.03 1.03,0 2.08,0.31 2.94,0.85l0.97 -1.63c-1.17,-0.74 -2.54,-1.11 -3.91,-1.11 -1.83,0 -3.21,0.69 -4.09,1.71 -1.35,1.55 -1.35,3.69 -1.35,5.18 0,1.69 0,3.89 1.38,5.43 0.88,1 2.23,1.69 4.06,1.69 1.45,0 2.91,-0.43 4.11,-1.23l-1.03 -1.6z"/>
  <path id="_32" class="fil7" d="M1064.81 909.35c1.26,0 2.23,0.51 2.8,1.37 0.63,0.94 0.63,2.29 0.63,3.74 0,1.46 0,2.81 -0.63,3.75 -0.57,0.86 -1.54,1.37 -2.8,1.37 -1.26,0 -2.23,-0.51 -2.8,-1.37 -0.63,-0.94 -0.63,-2.29 -0.63,-3.75 0,-1.45 0,-2.8 0.63,-3.74 0.57,-0.86 1.54,-1.37 2.8,-1.37zm0 -1.89c-2.03,0 -3.69,0.91 -4.61,2.43 -0.83,1.37 -0.83,2.94 -0.83,4.57 0,1.63 0,3.21 0.83,4.58 0.92,1.51 2.58,2.43 4.61,2.43 2.03,0 3.69,-0.92 4.6,-2.43 0.83,-1.37 0.83,-2.95 0.83,-4.58 0,-1.63 0,-3.2 -0.83,-4.57 -0.91,-1.52 -2.57,-2.43 -4.6,-2.43z"/>
  <path id="_33" class="fil7" d="M1077.82 907.46c-1.35,0 -2.52,0.48 -3.29,1.23 -1.43,1.37 -1.43,3.14 -1.43,5.29l0 7.32 2 0 0 -7.32c0,-1.89 0,-3.18 0.86,-3.98 0.43,-0.4 1.08,-0.65 1.86,-0.65 0.77,0 1.43,0.25 1.86,0.65 0.85,0.8 0.85,2.09 0.85,3.98l0 7.32 2 0 0 -7.32c0,-1.89 0,-3.18 0.86,-3.98 0.43,-0.4 1.09,-0.65 1.86,-0.65 0.77,0 1.43,0.25 1.86,0.65 0.86,0.8 0.86,2.09 0.86,3.98l0 7.32 2 0 0 -7.32c0,-2.15 0,-3.92 -1.43,-5.29 -0.77,-0.75 -1.95,-1.23 -3.29,-1.23 -1.63,0 -2.94,0.71 -3.72,2 -0.77,-1.29 -2.08,-2 -3.71,-2z"/>
  <path id="_34" class="fil7" d="M1094.43 918.55c-0.86,0 -1.46,0.6 -1.46,1.46 0,0.86 0.6,1.46 1.46,1.46 0.86,0 1.46,-0.6 1.46,-1.46 0,-0.86 -0.6,-1.46 -1.46,-1.46z"/>
  <path id="_35" class="fil7" d="M1104.18 909.35c1.08,0 1.91,0.4 2.43,1 0.86,1 0.86,2.57 0.86,4.17 0,1.46 0,2.95 -1.01,4.03 -0.62,0.69 -1.6,1.03 -2.57,1.03 -0.88,0 -1.74,-0.28 -2.31,-0.97 -0.69,-0.83 -0.69,-2.06 -0.69,-3.57 0,-2.12 0,-3.69 0.86,-4.69 0.51,-0.6 1.34,-1 2.43,-1zm0.14 -1.89c-1.4,0 -2.66,0.66 -3.43,1.74l0 -6.97 -2 0 0 12.43c0,2.15 0,3.58 0.97,4.92 0.8,1.12 2.23,1.89 4.03,1.89 1.72,0 3.09,-0.69 3.98,-1.57 1.6,-1.63 1.6,-3.63 1.6,-5.38 0,-1.94 0,-3.83 -1.29,-5.37 -0.83,-1 -2.17,-1.69 -3.86,-1.69z"/>
  <path id="_36" class="fil7" d="M1117.56 907.46c-1.32,0 -2.98,0.4 -4.09,1.71 -1.14,1.35 -1.14,2.69 -1.14,5.01l0 7.12 2 0 0 -7.12c0,-1.8 0,-3 0.68,-3.8 0.55,-0.66 1.52,-1.03 2.55,-1.03 0.48,0 0.94,0.08 1.34,0.22l0.6 -1.8c-0.57,-0.2 -1.23,-0.31 -1.94,-0.31z"/>
  <path id="_37" class="fil8" d="M904.54 943.48c0,-5.43 0,-7.92 1.14,-10.09 0.6,-1.17 1.57,-2.11 2.8,-2.66l-0.68 -1.46c-1.6,0.69 -2.89,1.95 -3.66,3.43 -1.32,2.49 -1.32,5.21 -1.32,10.78 0,5.58 0,8.32 1.32,10.81 0.77,1.49 2.06,2.75 3.66,3.43l0.68 -1.46c-1.23,-0.54 -2.2,-1.48 -2.8,-2.66 -1.14,-2.17 -1.14,-4.68 -1.14,-10.12z"/>
  <path id="_38" class="fil8" d="M919.18 932.93l-2.38 0 -4.57 8.52c-0.55,1.01 -1.09,1.97 -1.09,3.01 0,1.22 0.69,2.05 1.55,2.48 0.68,0.35 1.34,0.35 2.71,0.35l4.09 0 0 4.71 2 0 0 -4.71 1.63 0 0 -2.01 -1.63 0 0 -4.81 -2 0 0 4.81 -4.37 0c-1.09,0 -1.49,0 -1.72,-0.34 -0.11,-0.17 -0.14,-0.31 -0.14,-0.48 0,-0.52 0.22,-0.9 0.97,-2.3l4.95 -9.23z"/>
  <path id="_39" class="fil8" d="M926.12 932.93l0 2 5.49 0c1.38,0 1.55,0.03 1.72,0.15 0.11,0.08 0.2,0.2 0.2,0.4 0,0.43 -0.31,0.8 -1.09,1.72l-3.14 3.78 0 1.63c1.83,0 2.89,0 3.77,0.8 0.89,0.81 1.12,2.07 1.12,2.96 0,1.23 -0.43,2.26 -1.12,2.89 -0.68,0.63 -1.74,0.91 -2.83,0.91 -1.4,0 -2.71,-0.45 -3.52,-1.17l-1.31 1.57c1.23,1.03 2.94,1.61 4.83,1.61 1.8,0 3.29,-0.55 4.32,-1.49 1.06,-0.97 1.74,-2.46 1.74,-4.32 0,-1.87 -0.65,-3.39 -1.74,-4.39 -0.69,-0.63 -1.52,-1.03 -2.4,-1.2l1.88 -2.27c0.95,-1.14 1.61,-1.89 1.61,-3.03 0,-0.69 -0.23,-1.17 -0.58,-1.57 -0.83,-0.98 -1.88,-0.98 -3.17,-0.98l-5.78 0z"/>
  <path id="_40" class="fil8" d="M942.45 943.48c0,5.44 0,7.95 -1.14,10.12 -0.6,1.18 -1.58,2.12 -2.81,2.66l0.69 1.46c1.6,-0.68 2.89,-1.94 3.66,-3.43 1.32,-2.49 1.32,-5.23 1.32,-10.81 0,-5.57 0,-8.29 -1.32,-10.78 -0.77,-1.48 -2.06,-2.74 -3.66,-3.43l-0.69 1.46c1.23,0.55 2.21,1.49 2.81,2.66 1.14,2.17 1.14,4.66 1.14,10.09z"/>
  <path id="_41" class="fil8" d="M960.75 934.79c1.23,0 2.14,0.49 2.69,1.15 0.54,0.62 0.91,1.6 0.91,2.88 0,1.29 -0.37,2.26 -0.91,2.89 -0.55,0.66 -1.46,1.14 -2.69,1.14 -1.23,0 -2.15,-0.48 -2.69,-1.14 -0.54,-0.63 -0.91,-1.6 -0.91,-2.89 0,-1.28 0.37,-2.26 0.91,-2.88 0.54,-0.66 1.46,-1.15 2.69,-1.15zm0 -2c-1.86,0 -3.37,0.77 -4.35,1.89 -0.91,1.06 -1.37,2.51 -1.37,4.14 0,1.63 0.46,3.09 1.37,4.15 0.98,1.11 2.49,1.89 4.35,1.89 0.54,0 1.03,-0.06 1.51,-0.29l-3.86 7.43 2.35 0 3.54 -6.83c1.75,-3.35 2.18,-4.55 2.18,-6.35 0,-1.63 -0.46,-3.08 -1.38,-4.14 -0.97,-1.12 -2.48,-1.89 -4.34,-1.89z"/>
  <path id="_42" class="fil8" d="M982.19 934.79c1.23,0 2.15,0.49 2.69,1.15 0.54,0.62 0.92,1.6 0.92,2.88 0,1.29 -0.38,2.26 -0.92,2.89 -0.54,0.66 -1.46,1.14 -2.69,1.14 -1.23,0 -2.14,-0.48 -2.69,-1.14 -0.54,-0.63 -0.91,-1.6 -0.91,-2.89 0,-1.28 0.37,-2.26 0.91,-2.88 0.55,-0.66 1.46,-1.15 2.69,-1.15zm0 -2c-1.86,0 -3.37,0.77 -4.34,1.89 -0.92,1.06 -1.38,2.51 -1.38,4.14 0,1.63 0.46,3.09 1.38,4.15 0.97,1.11 2.48,1.89 4.34,1.89 0.55,0 1.03,-0.06 1.52,-0.29l-3.86 7.43 2.34 0 3.55 -6.83c1.74,-3.35 2.17,-4.55 2.17,-6.35 0,-1.63 -0.46,-3.08 -1.37,-4.14 -0.97,-1.12 -2.49,-1.89 -4.35,-1.89z"/>
  <path id="_43" class="fil8" d="M996.23 937.36c0,-1.37 0,-2.63 -1.14,-3.63 -0.95,-0.8 -2.09,-0.8 -3.35,-0.8l-0.4 0 0 2 0.4 0c1.06,0 1.55,0 1.89,0.26 0.48,0.37 0.48,1 0.48,2.17l0 14.64 2.12 0 0 -14.64z"/>
  <path id="_44" class="fil8" d="M1005.84 932.79c-1.4,0 -3.15,0.37 -4.55,1.46l1.26 1.6c0.89,-0.72 2.12,-1.06 3.29,-1.06 1.03,0 1.86,0.23 2.49,0.75 0.74,0.6 1.11,1.57 1.11,2.45 0,1.4 -0.66,2.15 -2.09,3.61l-4.34 4.37c-1.26,1.26 -2.09,2.12 -2.09,3.4 0,1.09 0.63,1.89 1.43,2.29 0.69,0.34 1.31,0.34 2.43,0.34l7.32 0 0 -2 -7.03 0c-1.23,0 -1.52,0 -1.72,-0.11 -0.17,-0.09 -0.31,-0.26 -0.31,-0.52 0,-0.57 0.42,-0.94 1.51,-2.03l4.35 -4.37c1.6,-1.6 2.66,-2.83 2.66,-4.98 0,-1.65 -0.8,-3.17 -1.92,-4.03 -0.97,-0.74 -2.17,-1.17 -3.8,-1.17z"/>
  <path id="_45" class="fil8" d="M1016.02 938.18c0,1.3 0,2.56 1.17,3.53 0.68,0.57 1.71,0.86 2.71,0.86 1.43,0 2.49,0.11 3.32,0.86 0.69,0.63 1.12,1.68 1.12,2.91 0,1.26 -0.4,2.26 -1.12,2.92 -0.66,0.6 -1.6,0.91 -2.83,0.91 -1.43,0 -2.69,-0.4 -3.54,-1.14l-1.32 1.57c1.23,1.03 3,1.58 4.86,1.58 1.83,0 3.29,-0.55 4.32,-1.49 1.06,-0.97 1.74,-2.46 1.74,-4.35 0,-1.86 -0.68,-3.37 -1.74,-4.34 -1.15,-1.06 -2.63,-1.43 -4.69,-1.43 -0.6,0 -1.17,-0.12 -1.49,-0.4 -0.34,-0.32 -0.4,-0.72 -0.4,-1.99l0 -0.8c0,-1.18 0,-1.82 0.49,-2.19 0.34,-0.26 0.83,-0.26 1.89,-0.26l4.77 0 0 -2 -4.77 0c-1.26,0 -2.41,0 -3.35,0.8 -1.14,1 -1.14,2.27 -1.14,3.65l0 0.8z"/>
  <polygon id="_46" class="fil8" points="1030.17,944.03 1030.17,945.68 1036.17,945.68 1036.17,944.03 "/>
  <path id="_47" class="fil8" d="M1040.66 938.18c0,1.3 0,2.56 1.17,3.53 0.69,0.57 1.72,0.86 2.72,0.86 1.43,0 2.49,0.11 3.32,0.86 0.68,0.63 1.11,1.68 1.11,2.91 0,1.26 -0.4,2.26 -1.11,2.92 -0.66,0.6 -1.6,0.91 -2.83,0.91 -1.43,0 -2.69,-0.4 -3.55,-1.14l-1.31 1.57c1.23,1.03 3,1.58 4.86,1.58 1.83,0 3.28,-0.55 4.31,-1.49 1.06,-0.97 1.75,-2.46 1.75,-4.35 0,-1.86 -0.69,-3.37 -1.75,-4.34 -1.14,-1.06 -2.63,-1.43 -4.69,-1.43 -0.6,0 -1.17,-0.12 -1.48,-0.4 -0.35,-0.32 -0.4,-0.72 -0.4,-1.99l0 -0.8c0,-1.18 0,-1.82 0.48,-2.19 0.35,-0.26 0.83,-0.26 1.89,-0.26l4.78 0 0 -2 -4.78 0c-1.26,0 -2.4,0 -3.34,0.8 -1.15,1 -1.15,2.27 -1.15,3.65l0 0.8z"/>
  <path id="_48" class="fil8" d="M1060.16 934.79c0.86,0 2.06,0.26 2.8,1.17 0.86,1.06 0.86,2.38 0.86,4.46l0 4.12c0,2.09 0,3.4 -0.86,4.46 -0.74,0.92 -1.94,1.17 -2.8,1.17 -0.86,0 -2.06,-0.25 -2.8,-1.17 -0.86,-1.06 -0.86,-2.37 -0.86,-4.46l0 -4.12c0,-2.08 0,-3.4 0.86,-4.46 0.74,-0.91 1.94,-1.17 2.8,-1.17zm0 -2c-1.63,0 -3.37,0.57 -4.52,2 -1.25,1.57 -1.25,3.38 -1.25,5.63l0 4.12c0,2.26 0,4.06 1.25,5.63 1.15,1.43 2.89,2.01 4.52,2.01 1.63,0 3.38,-0.58 4.52,-2.01 1.26,-1.57 1.26,-3.37 1.26,-5.63l0 -4.12c0,-2.25 0,-4.06 -1.26,-5.63 -1.14,-1.43 -2.89,-2 -4.52,-2z"/>
  <path id="_49" class="fil8" d="M1078.55 946.14c0,1.29 -0.38,2.26 -0.92,2.89 -0.54,0.66 -1.46,1.14 -2.69,1.14 -1.23,0 -2.14,-0.48 -2.68,-1.14 -0.55,-0.63 -0.92,-1.6 -0.92,-2.89 0,-1.28 0.37,-2.26 0.92,-2.89 0.54,-0.65 1.45,-1.14 2.68,-1.14 1.23,0 2.15,0.49 2.69,1.14 0.54,0.63 0.92,1.61 0.92,2.89zm-9.32 0c0,1.63 0.45,3.09 1.37,4.15 0.97,1.11 2.48,1.89 4.34,1.89 1.86,0 3.38,-0.78 4.35,-1.89 0.91,-1.06 1.37,-2.52 1.37,-4.15 0,-1.63 -0.46,-3.09 -1.37,-4.14 -0.97,-1.12 -2.49,-1.89 -4.35,-1.89 -0.54,0 -1.03,0.06 -1.51,0.29l3.86 -7.47 -2.35 0 -3.54 6.87c-1.75,3.34 -2.17,4.54 -2.17,6.34z"/>
  <path id="_50" class="fil8" d="M1083.81 932.93l0 2 5.49 0c1.37,0 1.54,0.03 1.71,0.15 0.12,0.08 0.2,0.2 0.2,0.4 0,0.43 -0.31,0.8 -1.08,1.72l-3.15 3.78 0 1.63c1.83,0 2.89,0 3.77,0.8 0.89,0.81 1.12,2.07 1.12,2.96 0,1.23 -0.43,2.26 -1.12,2.89 -0.68,0.63 -1.74,0.91 -2.83,0.91 -1.4,0 -2.71,-0.45 -3.51,-1.17l-1.32 1.57c1.23,1.03 2.95,1.61 4.83,1.61 1.81,0 3.29,-0.55 4.32,-1.49 1.06,-0.97 1.75,-2.46 1.75,-4.32 0,-1.87 -0.66,-3.39 -1.75,-4.39 -0.68,-0.63 -1.51,-1.03 -2.4,-1.2l1.89 -2.27c0.94,-1.14 1.6,-1.89 1.6,-3.03 0,-0.69 -0.23,-1.17 -0.57,-1.57 -0.83,-0.98 -1.89,-0.98 -3.18,-0.98l-5.77 0z"/>
  <path id="_51" class="fil8" d="M900.41 982.88c1.63,0 2.94,-0.71 3.71,-2 0.78,1.29 2.09,2 3.72,2 1.35,0 2.52,-0.48 3.29,-1.23 1.43,-1.37 1.43,-3.14 1.43,-5.29l0 -7.32 -2 0 0 7.32c0,1.89 0,3.18 -0.86,3.98 -0.43,0.4 -1.09,0.66 -1.86,0.66 -0.77,0 -1.43,-0.26 -1.86,-0.66 -0.85,-0.8 -0.85,-2.09 -0.85,-3.98l0 -7.32 -2.01 0 0 7.32c0,1.89 0,3.18 -0.85,3.98 -0.43,0.4 -1.09,0.66 -1.86,0.66 -0.77,0 -1.43,-0.26 -1.86,-0.66 -0.86,-0.8 -0.86,-2.09 -0.86,-3.98l0 -7.32 -2 0 0 7.32c0,2.15 0,3.92 1.43,5.29 0.77,0.75 1.94,1.23 3.29,1.23z"/>
  <path id="_52" class="fil8" d="M920.71 982.88c1.63,0 2.94,-0.71 3.71,-2 0.78,1.29 2.09,2 3.72,2 1.34,0 2.52,-0.48 3.29,-1.23 1.43,-1.37 1.43,-3.14 1.43,-5.29l0 -7.32 -2 0 0 7.32c0,1.89 0,3.18 -0.86,3.98 -0.43,0.4 -1.09,0.66 -1.86,0.66 -0.77,0 -1.43,-0.26 -1.86,-0.66 -0.86,-0.8 -0.86,-2.09 -0.86,-3.98l0 -7.32 -2 0 0 7.32c0,1.89 0,3.18 -0.85,3.98 -0.43,0.4 -1.09,0.66 -1.86,0.66 -0.77,0 -1.43,-0.26 -1.86,-0.66 -0.86,-0.8 -0.86,-2.09 -0.86,-3.98l0 -7.32 -2 0 0 7.32c0,2.15 0,3.92 1.43,5.29 0.77,0.75 1.94,1.23 3.29,1.23z"/>
  <path id="_53" class="fil8" d="M941.01 982.88c1.63,0 2.94,-0.71 3.71,-2 0.78,1.29 2.09,2 3.72,2 1.34,0 2.52,-0.48 3.29,-1.23 1.43,-1.37 1.43,-3.14 1.43,-5.29l0 -7.32 -2 0 0 7.32c0,1.89 0,3.18 -0.86,3.98 -0.43,0.4 -1.09,0.66 -1.86,0.66 -0.77,0 -1.43,-0.26 -1.86,-0.66 -0.86,-0.8 -0.86,-2.09 -0.86,-3.98l0 -7.32 -2 0 0 7.32c0,1.89 0,3.18 -0.85,3.98 -0.43,0.4 -1.09,0.66 -1.86,0.66 -0.78,0 -1.43,-0.26 -1.86,-0.66 -0.86,-0.8 -0.86,-2.09 -0.86,-3.98l0 -7.32 -2 0 0 7.32c0,2.15 0,3.92 1.43,5.29 0.77,0.75 1.94,1.23 3.29,1.23z"/>
  <path id="_54" class="fil8" d="M955.33 979.97c-0.86,0 -1.46,0.6 -1.46,1.45 0,0.86 0.6,1.46 1.46,1.46 0.86,0 1.46,-0.6 1.46,-1.46 0,-0.85 -0.6,-1.45 -1.46,-1.45z"/>
  <path id="_55" class="fil8" d="M964.08 968.87c-1.69,0 -3.03,0.69 -3.86,1.69 -1.29,1.54 -1.29,3.43 -1.29,5.37 0,1.75 0,3.75 1.61,5.38 0.88,0.89 2.25,1.57 3.97,1.57 1.8,0 3.23,-0.77 4.03,-1.88 0.97,-1.35 0.97,-2.78 0.97,-4.92l0 -12.44 -2 0 0 6.98c-0.77,-1.09 -2.03,-1.75 -3.43,-1.75zm3.43 7.58c0,1.51 0,2.74 -0.68,3.57 -0.58,0.69 -1.43,0.98 -2.32,0.98 -0.97,0 -1.94,-0.35 -2.57,-1.03 -1,-1.09 -1,-2.58 -1,-4.04 0,-1.6 0,-3.17 0.85,-4.17 0.52,-0.6 1.35,-1 2.43,-1 1.09,0 1.92,0.4 2.43,1 0.86,1 0.86,2.57 0.86,4.69z"/>
  <path id="_56" class="fil8" d="M972.66 969.04l0 7.32c0,2 0,3.66 1.34,5.06 0.69,0.72 1.92,1.46 3.66,1.46 1.75,0 2.98,-0.74 3.66,-1.46 1.35,-1.4 1.35,-3.06 1.35,-5.06l0 -7.32 -2.01 0 0 7.32c0,1.78 0,2.98 -0.83,3.81 -0.48,0.48 -1.22,0.83 -2.17,0.83 -0.94,0 -1.69,-0.35 -2.17,-0.83 -0.83,-0.83 -0.83,-2.03 -0.83,-3.81l0 -7.32 -2 0z"/>
  <polygon id="_57" class="fil8" points="985.47,969.04 989.58,975.82 985.38,982.71 987.58,982.71 990.7,977.36 993.76,982.71 996.02,982.71 991.81,975.82 995.93,969.04 993.73,969.04 990.7,974.25 987.73,969.04 "/>
  <path id="_58" class="fil8" d="M1002.94 970.76c1.02,0 2,0.37 2.54,1.03 0.69,0.8 0.69,2 0.69,3.52 0,2.11 0,3.68 -0.86,4.68 -0.52,0.61 -1.35,1.01 -2.43,1.01 -1.09,0 -1.92,-0.4 -2.43,-1.01 -0.86,-1 -0.86,-2.57 -0.86,-4.17 0,-1.63 0,-3.09 0.92,-4.12 0.51,-0.57 1.37,-0.94 2.43,-0.94zm0 -1.89c-1.72,0 -3.09,0.66 -3.98,1.63 -1.37,1.55 -1.37,3.55 -1.37,5.32 0,1.94 0,3.83 1.29,5.38 0.82,1 2.17,1.68 3.86,1.68 1.4,0 2.65,-0.66 3.43,-1.74l0 0.28c0,1.75 0,2.78 -0.69,3.64 -0.54,0.68 -1.49,1.17 -2.89,1.17 -1.2,0 -2.4,-0.35 -3.34,-0.86l-0.83 1.72c1.26,0.68 2.77,1.02 4.17,1.02 1.89,0 3.35,-0.65 4.26,-1.65 1.32,-1.43 1.32,-3.01 1.32,-5.04l0 -5.83c0,-2.31 0,-3.66 -1.15,-5 -1.11,-1.32 -2.77,-1.72 -4.08,-1.72z"/>
  <path id="_59" class="fil8" d="M1016.54 970.76c1.06,0 1.92,0.37 2.44,0.94 0.91,1.03 0.91,2.49 0.91,4.12 0,1.6 0,3.17 -0.86,4.17 -0.51,0.61 -1.34,1.01 -2.43,1.01 -1.08,0 -1.91,-0.4 -2.43,-1.01 -0.86,-1 -0.86,-2.57 -0.86,-4.68 0,-1.52 0,-2.72 0.69,-3.52 0.54,-0.66 1.52,-1.03 2.54,-1.03zm0 -1.89c-1.31,0 -2.97,0.4 -4.08,1.72 -1.15,1.34 -1.15,2.69 -1.15,5l0 12.35 2 0 0 -6.8c0.78,1.08 2.03,1.74 3.43,1.74 1.69,0 3.04,-0.68 3.86,-1.68 1.29,-1.55 1.29,-3.44 1.29,-5.38 0,-1.77 0,-3.77 -1.37,-5.32 -0.89,-0.97 -2.26,-1.63 -3.98,-1.63z"/>
  <path id="_60" class="fil8" d="M1025.78 979.97c-0.86,0 -1.46,0.6 -1.46,1.45 0,0.86 0.6,1.46 1.46,1.46 0.86,0 1.46,-0.6 1.46,-1.46 0,-0.85 -0.6,-1.45 -1.46,-1.45z"/>
  <path id="_61" class="fil8" d="M1037.9 980.05c-0.91,0.63 -2,0.95 -3.09,0.95 -1.11,0 -1.97,-0.38 -2.51,-1.01 -0.92,-1.05 -0.92,-2.77 -0.92,-4.23 0,-1.25 0,-2.94 0.89,-3.97 0.69,-0.8 1.66,-1.03 2.54,-1.03 1.03,0 2.09,0.31 2.95,0.86l0.97 -1.63c-1.17,-0.75 -2.54,-1.12 -3.92,-1.12 -1.83,0 -3.2,0.69 -4.08,1.72 -1.35,1.54 -1.35,3.69 -1.35,5.17 0,1.69 0,3.89 1.37,5.44 0.89,1 2.23,1.68 4.06,1.68 1.46,0 2.92,-0.43 4.12,-1.23l-1.03 -1.6z"/>
  <path id="_62" class="fil8" d="M1046.37 970.76c1.25,0 2.23,0.51 2.8,1.37 0.63,0.95 0.63,2.29 0.63,3.75 0,1.46 0,2.8 -0.63,3.74 -0.57,0.86 -1.55,1.38 -2.8,1.38 -1.26,0 -2.23,-0.52 -2.81,-1.38 -0.63,-0.94 -0.63,-2.28 -0.63,-3.74 0,-1.46 0,-2.8 0.63,-3.75 0.58,-0.86 1.55,-1.37 2.81,-1.37zm0 -1.89c-2.03,0 -3.69,0.92 -4.61,2.43 -0.83,1.38 -0.83,2.95 -0.83,4.58 0,1.63 0,3.2 0.83,4.57 0.92,1.52 2.58,2.43 4.61,2.43 2.03,0 3.68,-0.91 4.6,-2.43 0.83,-1.37 0.83,-2.94 0.83,-4.57 0,-1.63 0,-3.2 -0.83,-4.58 -0.92,-1.51 -2.57,-2.43 -4.6,-2.43z"/>
  <path id="_63" class="fil8" d="M1059.37 968.87c-1.34,0 -2.51,0.49 -3.28,1.23 -1.43,1.37 -1.43,3.15 -1.43,5.29l0 7.32 2 0 0 -7.32c0,-1.89 0,-3.17 0.86,-3.97 0.43,-0.4 1.08,-0.66 1.85,-0.66 0.78,0 1.43,0.26 1.86,0.66 0.86,0.8 0.86,2.08 0.86,3.97l0 7.32 2 0 0 -7.32c0,-1.89 0,-3.17 0.86,-3.97 0.43,-0.4 1.09,-0.66 1.86,-0.66 0.77,0 1.43,0.26 1.86,0.66 0.85,0.8 0.85,2.08 0.85,3.97l0 7.32 2.01 0 0 -7.32c0,-2.14 0,-3.92 -1.43,-5.29 -0.78,-0.74 -1.95,-1.23 -3.29,-1.23 -1.63,0 -2.95,0.72 -3.72,2 -0.77,-1.28 -2.09,-2 -3.72,-2z"/>
  <path id="_64" class="fil8" d="M1075.99 979.97c-0.86,0 -1.46,0.6 -1.46,1.45 0,0.86 0.6,1.46 1.46,1.46 0.85,0 1.46,-0.6 1.46,-1.46 0,-0.85 -0.61,-1.45 -1.46,-1.45z"/>
  <path id="_65" class="fil8" d="M1085.74 970.76c1.08,0 1.91,0.4 2.43,1 0.85,1 0.85,2.57 0.85,4.17 0,1.46 0,2.95 -1,4.04 -0.63,0.68 -1.6,1.03 -2.57,1.03 -0.89,0 -1.74,-0.29 -2.32,-0.98 -0.68,-0.83 -0.68,-2.06 -0.68,-3.57 0,-2.12 0,-3.69 0.86,-4.69 0.51,-0.6 1.34,-1 2.43,-1zm0.14 -1.89c-1.4,0 -2.66,0.66 -3.43,1.75l0 -6.98 -2 0 0 12.44c0,2.14 0,3.57 0.97,4.92 0.8,1.11 2.23,1.88 4.03,1.88 1.72,0 3.09,-0.68 3.97,-1.57 1.61,-1.63 1.61,-3.63 1.61,-5.38 0,-1.94 0,-3.83 -1.29,-5.37 -0.83,-1 -2.17,-1.69 -3.86,-1.69z"/>
  <path id="_66" class="fil8" d="M1099.12 968.87c-1.32,0 -2.98,0.4 -4.09,1.72 -1.15,1.34 -1.15,2.69 -1.15,5l0 7.12 2.01 0 0 -7.12c0,-1.8 0,-3 0.68,-3.8 0.55,-0.66 1.52,-1.03 2.55,-1.03 0.48,0 0.94,0.09 1.34,0.23l0.6 -1.8c-0.57,-0.2 -1.23,-0.32 -1.94,-0.32z"/>
  <g id="_1194307520816">
   <path class="fil9" d="M1008.69 547.23l0 0.46c0,9.09 -13.83,9.1 -13.83,0l0 -0.46c0,-3.82 3.1,-6.91 6.92,-6.91 3.81,0 6.91,3.09 6.91,6.91l0 0zm0 33.06l0 0.47c0,3.81 -3.1,6.91 -6.91,6.91 -3.82,0 -6.92,-3.1 -6.92,-6.91l0 -0.47c0,-3.81 3.1,-6.91 6.92,-6.91 3.81,0 6.91,3.1 6.91,6.91l0 0zm0 33.06l0 0.46c0,3.82 -3.1,6.91 -6.91,6.91 -3.82,0 -6.92,-3.09 -6.92,-6.9l0 -0.47c0,-3.82 3.1,-6.91 6.92,-6.91 3.81,0 6.91,3.09 6.91,6.91l0 0zm-6.2 -88.2l-0.46 0c-3.81,0 -6.91,-3.11 -6.91,-6.92 0,-3.81 3.1,-6.91 6.91,-6.91 3.82,0 7.14,3.1 7.14,6.91 0,3.81 -2.87,6.92 -6.68,6.92l0 0zm32.11 -2.31c-3.35,0 -6.29,-2.46 -6.81,-5.88 -0.58,-3.78 2.02,-7.3 5.78,-7.87 0.01,0 0.48,-0.07 0.5,-0.07 3.74,-0.55 7.28,2.05 7.84,5.83 0.55,3.77 -2.06,7.28 -5.84,7.85l-1 -6.84 0.58 6.89c-0.35,0.06 -0.7,0.09 -1.05,0.09l0 0zm-64.67 -0.4c-0.32,0 -0.66,-0.02 -0.99,-0.07 -0.04,-0.01 -0.32,-0.04 -0.36,-0.06 -3.75,-0.61 -6.41,-4.15 -5.82,-7.91 0.6,-3.76 4,-6.32 7.77,-5.77 3.76,0.57 6.58,4.11 6.02,7.89 -0.51,3.43 -3.28,5.92 -6.62,5.92l0 0zm96.53 -7.02c-2.88,0 -5.58,-1.8 -6.56,-4.68 -1.22,-3.6 0.68,-7.51 4.28,-8.75l0.68 -0.21c3.63,-1.11 7.51,0.95 8.62,4.61 1.11,3.65 -0.96,7.5 -4.62,8.61l-1.99 -6.61 1.8 6.67c-0.73,0.25 -1.48,0.36 -2.21,0.36l0 0zm-128.25 -0.76c-0.72,0 -1.45,-0.11 -2.18,-0.35l-0.32 -0.1c-3.64,-1.14 -5.67,-5.02 -4.53,-8.66 1.14,-3.64 5.01,-5.68 8.66,-4.53l0.56 0.18c3.62,1.21 5.58,5.12 4.37,8.74 -0.96,2.89 -3.66,4.72 -6.56,4.72l0 0zm158.48 -11.55c-2.5,0 -4.93,-1.37 -6.15,-3.75 -1.75,-3.38 -0.42,-7.55 2.97,-9.3 0.03,-0.02 0.46,-0.24 0.49,-0.26 3.42,-1.68 7.56,-0.31 9.27,3.1 1.7,3.41 0.32,7.56 -3.09,9.28l-3.09 -6.19 2.76 6.35c-1.01,0.52 -2.1,0.77 -3.16,0.77l0 0zm-188.59 -1.15c-1.09,0 -2.21,-0.26 -3.24,-0.82l3.25 -6.1 -3.42 6.01c-3.41,-1.69 -4.85,-5.83 -3.17,-9.24 1.67,-3.42 5.76,-4.85 9.19,-3.2l0.65 0.34c3.36,1.8 4.64,5.98 2.84,9.35 -1.23,2.32 -3.63,3.66 -6.1,3.66l0 0zm216.49 -15.79c-2.11,0 -4.2,-0.96 -5.55,-2.79 -2.27,-3.07 -1.62,-7.39 1.44,-9.66l0.47 -0.34c3.11,-2.22 7.42,-1.51 9.64,1.6 2.21,3.11 1.49,7.42 -1.61,9.64l-0.27 0.2c-1.24,0.92 -2.69,1.35 -4.12,1.35l0 0zm-244.41 -1.55c-1.35,0 -2.72,-0.42 -3.91,-1.31 -0.02,-0.01 -0.4,-0.29 -0.41,-0.3 -3.05,-2.28 -3.67,-6.62 -1.38,-9.67 2.29,-3.06 6.63,-3.66 9.67,-1.39 3.05,2.29 3.85,6.75 1.58,9.8 -1.38,1.85 -3.45,2.87 -5.55,2.87l0 0zm128.51 161.79l0 0.47c0,3.81 -3.1,6.91 -6.91,6.91 -3.82,-0.01 -6.92,-3.1 -6.92,-6.91l0 -0.47c0,-3.82 3.1,-6.91 6.92,-6.91 3.81,0 6.91,3.1 6.91,6.91l0 0z"/>
   <polygon class="fil9" points="976.76,668.13 1002.96,694.33 1029.16,668.13 976.76,668.13 "/>
  </g>
  <path class="fil10" d="M1002.5 162.98c19.91,0 36.07,16.14 36.07,36.06 0,19.92 -16.16,36.07 -36.07,36.07 -19.93,0 -36.06,-16.15 -36.06,-36.07 0,-19.92 16.13,-36.06 36.06,-36.06l0 0zm0 -14.42c28.07,0 50.41,22.76 50.82,50.83 0.59,40.48 -49,63.52 -50.82,63.52 -1.99,0 -50.85,-27.17 -50.85,-63.52 0,-28.08 22.75,-50.83 50.85,-50.83l0 0z"/>
  <path class="fil11" d="M1002.5 178.45c-11.35,0 -20.62,9.24 -20.62,20.59 0,11.36 9.27,20.6 20.62,20.6 11.36,0 20.59,-9.24 20.59,-20.6 0,-11.35 -9.23,-20.59 -20.59,-20.59l0 0zm0 38.13c-9.67,0 -17.57,-7.86 -17.57,-17.54 0,-9.67 7.9,-17.54 17.57,-17.54 9.65,0 17.54,7.87 17.54,17.54 0,9.68 -7.89,17.54 -17.54,17.54l0 0z"/>
  <path class="fil11" d="M1002.5 186.55c0.55,0 1,-0.46 1,-1.02l0 -2.02c0,-0.55 -0.45,-1.01 -1,-1.01 -0.58,0 -1.03,0.46 -1.03,1.01l0 2.02c0,0.56 0.45,1.02 1.03,1.02l0 0z"/>
  <path class="fil11" d="M1002.5 211.31c-0.58,0 -1.03,0.45 -1.03,1.01l0 2.02c0,0.56 0.45,1.01 1.03,1.01 0.55,0 1,-0.45 1,-1.01l0 -2.02c0,-0.56 -0.45,-1.01 -1,-1.01l0 0z"/>
  <path class="fil11" d="M989.09 197.92l-2.03 0c-0.55,0 -0.99,0.45 -0.99,1.01 0,0.56 0.44,1.01 0.99,1.01l2.03 0c0.58,0 1.03,-0.45 1.03,-1.01 0,-0.56 -0.45,-1.01 -1.03,-1.01l0 0z"/>
  <path class="fil11" d="M1017.91 197.92l-2.02 0c-0.55,0 -1.03,0.45 -1.03,1.01 0,0.56 0.48,1.01 1.03,1.01l2.02 0c0.55,0 1,-0.45 1,-1.01 0,-0.56 -0.45,-1.01 -1,-1.01l0 0z"/>
  <path class="fil11" d="M1003.5 196.8l0 -6.46c0,-0.56 -0.45,-1.01 -1,-1.01 -0.58,0 -1.03,0.45 -1.03,1.01l0 6.48c-1.09,0.54 -1.61,1.85 -1.09,3.01l-8.51 6.63c-0.45,0.34 -0.52,0.98 -0.18,1.42 0.35,0.44 0.96,0.52 1.41,0.17l8.89 -6.91c2.67,0.6 3.98,-3.14 1.51,-4.34l0 0z"/>
  <path class="fil9" d="M1186.67 401.24c5.04,0 12.25,14.56 15.1,18.97 -2.85,4.4 -10.09,18.93 -15.1,18.93l-368.37 0c-5.04,0 -12.25,-14.56 -15.09,-18.97 2.84,-4.4 10.08,-18.93 15.09,-18.93l368.37 0 0 0z"/>
  <polygon class="fil11" points="1299.91,193.43 1307.73,201.25 1299.91,209.07 "/>
  <path class="fil11" d="M1293.28 203l-0.13 0c-0.96,0 -1.75,-0.79 -1.75,-1.75 0,-0.96 0.79,-1.75 1.75,-1.75l0.13 0c0.96,0 1.72,0.79 1.72,1.75 0,0.96 -0.76,1.75 -1.72,1.75l0 0zm-8.27 0l-0.13 0c-0.96,0 -1.75,-0.79 -1.75,-1.75 0,-0.96 0.79,-1.75 1.75,-1.75 0.96,0 1.81,0.79 1.81,1.75 0,0.96 -0.72,1.75 -1.68,1.75l0 0zm-8.3 0l-0.1 0c-0.96,0 -1.75,-0.79 -1.75,-1.75 0,-0.96 0.79,-1.75 1.75,-1.75 0.96,0 1.82,0.79 1.82,1.75 0,0.96 -0.73,1.75 -1.72,1.75l0 0zm-8.24 0l-0.13 0c-0.96,0 -1.75,-0.79 -1.75,-1.75 0,-0.96 0.79,-1.75 1.75,-1.75l0.13 0c0.97,0 1.72,0.79 1.72,1.75 0,0.96 -0.75,1.75 -1.72,1.75l0 0zm-8.3 0l-0.1 0c-0.96,0 -1.75,-0.79 -1.75,-1.75 0,-0.96 0.79,-1.75 1.75,-1.75l0.1 0c0.99,0 1.75,0.79 1.75,1.75 0,0.96 -0.76,1.75 -1.75,1.75l0 0zm-8.27 0l-0.1 0c-0.96,0 -1.75,-0.79 -1.75,-1.75 0,-0.96 0.79,-1.75 1.75,-1.75 0.96,0 1.78,0.79 1.78,1.75 0,0.96 -0.72,1.75 -1.68,1.75l0 0zm-8.27 0l-0.1 0c-2.3,0 -2.3,-3.5 0,-3.5 0.96,0 1.82,0.79 1.82,1.75 0,0.96 -0.76,1.75 -1.72,1.75l0 0z"/>
  <polygon class="fil11" points="1119.58,193.43 1127.41,201.25 1119.58,209.07 "/>
  <path class="fil11" d="M1112.96 203l-0.1 0c-1,0 -1.75,-0.79 -1.75,-1.75 0,-0.96 0.75,-1.75 1.75,-1.75l0.1 0c0.96,0 1.75,0.79 1.75,1.75 0,0.96 -0.79,1.75 -1.75,1.75l0 0zm-8.27 0l-0.14 0c-0.92,0 -1.71,-0.79 -1.71,-1.75 0,-0.96 0.79,-1.75 1.71,-1.75 1,0 1.82,0.79 1.82,1.75 0,0.96 -0.72,1.75 -1.68,1.75l0 0zm-8.27 0l-0.1 0c-1,0 -1.75,-0.79 -1.75,-1.75 0,-0.96 0.75,-1.75 1.75,-1.75 0.96,0 1.78,0.79 1.78,1.75 0,0.96 -0.72,1.75 -1.68,1.75l0 0zm-8.27 0l-0.14 0c-0.96,0 -1.71,-0.79 -1.71,-1.75 0,-0.96 0.75,-1.75 1.71,-1.75l0.14 0c0.96,0 1.75,0.79 1.75,1.75 0,0.96 -0.79,1.75 -1.75,1.75l0 0zm-8.27 0l-0.13 0c-0.97,0 -1.76,-0.79 -1.76,-1.75 0,-0.96 0.79,-1.75 1.76,-1.75l0.13 0c0.96,0 1.75,0.79 1.75,1.75 0,0.96 -0.79,1.75 -1.75,1.75l0 0zm-8.27 0l-0.14 0c-0.96,0 -1.74,-0.79 -1.74,-1.75 0,-0.96 0.78,-1.75 1.74,-1.75 1,0 1.82,0.79 1.82,1.75 0,0.96 -0.72,1.75 -1.68,1.75l0 0zm-8.27 0l-0.13 0c-2.3,0 -2.3,-3.5 0,-3.5 0.96,0 1.81,0.79 1.81,1.75 0,0.96 -0.72,1.75 -1.68,1.75l0 0z"/>
  <g id="_1194310754240">
   <polygon class="fil11" points="938.06,193.43 945.85,201.25 938.06,209.07 "/>
   <path class="fil11" d="M931.44 203l-0.14 0c-0.96,0 -1.75,-0.79 -1.75,-1.75 0,-0.96 0.79,-1.75 1.75,-1.75l0.14 0c0.96,0 1.71,0.79 1.71,1.75 0,0.96 -0.75,1.75 -1.71,1.75l0 0zm-8.31 0l-0.1 0c-0.96,0 -1.75,-0.79 -1.75,-1.75 0,-0.96 0.79,-1.75 1.75,-1.75 0.96,0 1.82,0.79 1.82,1.75 0,0.96 -0.72,1.75 -1.72,1.75l0 0zm-8.27 0l-0.1 0c-0.96,0 -1.75,-0.79 -1.75,-1.75 0,-0.96 0.79,-1.75 1.75,-1.75 0.96,0 1.82,0.79 1.82,1.75 0,0.96 -0.75,1.75 -1.72,1.75l0 0zm-8.27 0l-0.1 0c-0.96,0 -1.75,-0.79 -1.75,-1.75 0,-0.96 0.79,-1.75 1.75,-1.75l0.1 0c1,0 1.75,0.79 1.75,1.75 0,0.96 -0.75,1.75 -1.75,1.75l0 0zm-8.27 0l-0.1 0c-0.96,0 -1.75,-0.79 -1.75,-1.75 0,-0.96 0.79,-1.75 1.75,-1.75l0.1 0c0.97,0 1.76,0.79 1.76,1.75 0,0.96 -0.79,1.75 -1.76,1.75l0 0zm-8.26 0l-0.11 0c-0.96,0 -1.75,-0.79 -1.75,-1.75 0,-0.96 0.79,-1.75 1.75,-1.75 0.96,0 1.82,0.79 1.82,1.75 0,0.96 -0.75,1.75 -1.71,1.75l0 0zm-8.27 0l-0.11 0c-2.3,0 -2.3,-3.5 0,-3.5 0.96,0 1.79,0.79 1.79,1.75 0,0.96 -0.72,1.75 -1.68,1.75l0 0z"/>
   <polygon class="fil11" points="755.23,193.43 763.06,201.25 755.23,209.07 "/>
   <path class="fil11" d="M748.61 203l-0.1 0c-0.96,0 -1.75,-0.79 -1.75,-1.75 0,-0.96 0.79,-1.75 1.75,-1.75l0.1 0c0.96,0 1.75,0.79 1.75,1.75 0,0.96 -0.79,1.75 -1.75,1.75l0 0zm-8.27 0l-0.1 0c-0.96,0 -1.75,-0.79 -1.75,-1.75 0,-0.96 0.79,-1.75 1.75,-1.75 0.96,0 1.78,0.79 1.78,1.75 0,0.96 -0.72,1.75 -1.68,1.75l0 0zm-8.27 0l-0.1 0c-0.96,0 -1.75,-0.79 -1.75,-1.75 0,-0.96 0.79,-1.75 1.75,-1.75 0.96,0 1.78,0.79 1.78,1.75 0,0.96 -0.72,1.75 -1.68,1.75l0 0zm-8.27 0l-0.1 0c-0.96,0 -1.75,-0.79 -1.75,-1.75 0,-0.96 0.79,-1.75 1.75,-1.75l0.1 0c0.96,0 1.75,0.79 1.75,1.75 0,0.96 -0.79,1.75 -1.75,1.75l0 0zm-8.27 0l-0.1 0c-0.96,0 -1.75,-0.79 -1.75,-1.75 0,-0.96 0.79,-1.75 1.75,-1.75l0.1 0c0.96,0 1.75,0.79 1.75,1.75 0,0.96 -0.79,1.75 -1.75,1.75l0 0zm-8.27 0l-0.1 0c-0.96,0 -1.75,-0.79 -1.75,-1.75 0,-0.96 0.79,-1.75 1.75,-1.75 0.96,0 1.78,0.79 1.78,1.75 0,0.96 -0.72,1.75 -1.68,1.75l0 0zm-8.27 0l-0.1 0c-2.3,0 -2.3,-3.5 0,-3.5 0.96,0 1.78,0.79 1.78,1.75 0,0.96 -0.72,1.75 -1.68,1.75l0 0z"/>
  </g>
  <g id="_1194310758128">
   <polygon class="fil11" points="877.88,565.37 885.67,573.2 877.88,581.02 "/>
   <path class="fil11" d="M871.26 574.94l-0.14 0c-0.96,0 -1.75,-0.78 -1.75,-1.74 0,-0.97 0.79,-1.75 1.75,-1.75l0.14 0c0.96,0 1.71,0.78 1.71,1.75 0,0.96 -0.75,1.74 -1.71,1.74l0 0zm-8.31 0l-0.1 0c-0.96,0 -1.75,-0.78 -1.75,-1.74 0,-0.97 0.79,-1.75 1.75,-1.75 0.96,0 1.82,0.78 1.82,1.75 0,0.96 -0.72,1.74 -1.72,1.74l0 0zm-8.27 0l-0.1 0c-0.96,0 -1.75,-0.78 -1.75,-1.74 0,-0.97 0.79,-1.75 1.75,-1.75 0.96,0 1.82,0.78 1.82,1.75 0,0.96 -0.76,1.74 -1.72,1.74l0 0zm-8.27 0l-0.1 0c-0.96,0 -1.75,-0.78 -1.75,-1.74 0,-0.97 0.79,-1.75 1.75,-1.75l0.1 0c1,0 1.75,0.78 1.75,1.75 0,0.96 -0.75,1.74 -1.75,1.74l0 0zm-8.27 0l-0.1 0c-0.96,0 -1.75,-0.78 -1.75,-1.74 0,-0.97 0.79,-1.75 1.75,-1.75l0.1 0c0.96,0 1.75,0.78 1.75,1.75 0,0.96 -0.79,1.74 -1.75,1.74l0 0zm-8.27 0l-0.1 0c-0.96,0 -1.75,-0.78 -1.75,-1.74 0,-0.97 0.79,-1.75 1.75,-1.75 0.96,0 1.82,0.78 1.82,1.75 0,0.96 -0.76,1.74 -1.72,1.74l0 0zm-8.27 0l-0.1 0c-2.3,0 -2.3,-3.49 0,-3.49 0.96,0 1.79,0.78 1.79,1.75 0,0.96 -0.73,1.74 -1.69,1.74l0 0z"/>
   <polygon class="fil11" points="695.05,565.37 702.88,573.2 695.05,581.02 "/>
   <path class="fil11" d="M688.43 574.94l-0.1 0c-0.96,0 -1.75,-0.78 -1.75,-1.74 0,-0.97 0.79,-1.75 1.75,-1.75l0.1 0c0.96,0 1.75,0.78 1.75,1.75 0,0.96 -0.79,1.74 -1.75,1.74l0 0zm-8.27 0l-0.1 0c-0.96,0 -1.75,-0.78 -1.75,-1.74 0,-0.97 0.79,-1.75 1.75,-1.75 0.96,0 1.78,0.78 1.78,1.75 0,0.96 -0.72,1.74 -1.68,1.74l0 0zm-8.27 0l-0.1 0c-0.96,0 -1.75,-0.78 -1.75,-1.74 0,-0.97 0.79,-1.75 1.75,-1.75 0.96,0 1.78,0.78 1.78,1.75 0,0.96 -0.72,1.74 -1.68,1.74l0 0zm-8.27 0l-0.1 0c-0.96,0 -1.75,-0.78 -1.75,-1.74 0,-0.97 0.79,-1.75 1.75,-1.75l0.1 0c0.96,0 1.75,0.78 1.75,1.75 0,0.96 -0.79,1.74 -1.75,1.74l0 0zm-8.27 0l-0.1 0c-0.96,0 -1.75,-0.78 -1.75,-1.74 0,-0.97 0.79,-1.75 1.75,-1.75l0.1 0c0.96,0 1.75,0.78 1.75,1.75 0,0.96 -0.79,1.74 -1.75,1.74l0 0zm-8.27 0l-0.1 0c-0.96,0 -1.75,-0.78 -1.75,-1.74 0,-0.97 0.79,-1.75 1.75,-1.75 0.96,0 1.78,0.78 1.78,1.75 0,0.96 -0.72,1.74 -1.68,1.74l0 0zm-8.27 0l-0.1 0c-2.3,0 -2.3,-3.49 0,-3.49 0.96,0 1.78,0.78 1.78,1.75 0,0.96 -0.72,1.74 -1.68,1.74l0 0z"/>
  </g>
  <g id="_1194310776416">
   <polygon class="fil11" points="1350.74,565.37 1358.53,573.2 1350.74,581.02 "/>
   <path class="fil11" d="M1344.11 574.94l-0.13 0c-0.96,0 -1.75,-0.78 -1.75,-1.74 0,-0.97 0.79,-1.75 1.75,-1.75l0.13 0c0.96,0 1.72,0.78 1.72,1.75 0,0.96 -0.76,1.74 -1.72,1.74l0 0zm-8.3 0l-0.1 0c-0.96,0 -1.75,-0.78 -1.75,-1.74 0,-0.97 0.79,-1.75 1.75,-1.75 0.96,0 1.81,0.78 1.81,1.75 0,0.96 -0.72,1.74 -1.71,1.74l0 0zm-8.27 0l-0.1 0c-0.96,0 -1.75,-0.78 -1.75,-1.74 0,-0.97 0.79,-1.75 1.75,-1.75 0.96,0 1.82,0.78 1.82,1.75 0,0.96 -0.76,1.74 -1.72,1.74l0 0zm-8.27 0l-0.1 0c-0.96,0 -1.75,-0.78 -1.75,-1.74 0,-0.97 0.79,-1.75 1.75,-1.75l0.1 0c0.99,0 1.75,0.78 1.75,1.75 0,0.96 -0.76,1.74 -1.75,1.74l0 0zm-8.27 0l-0.1 0c-0.96,0 -1.75,-0.78 -1.75,-1.74 0,-0.97 0.79,-1.75 1.75,-1.75l0.1 0c0.96,0 1.75,0.78 1.75,1.75 0,0.96 -0.79,1.74 -1.75,1.74l0 0zm-8.27 0l-0.1 0c-0.96,0 -1.75,-0.78 -1.75,-1.74 0,-0.97 0.79,-1.75 1.75,-1.75 0.96,0 1.82,0.78 1.82,1.75 0,0.96 -0.76,1.74 -1.72,1.74l0 0zm-8.27 0l-0.1 0c-2.3,0 -2.3,-3.49 0,-3.49 0.96,0 1.78,0.78 1.78,1.75 0,0.96 -0.72,1.74 -1.68,1.74l0 0z"/>
   <polygon class="fil11" points="1167.91,565.37 1175.73,573.2 1167.91,581.02 "/>
   <path class="fil11" d="M1161.29 574.94l-0.11 0c-0.96,0 -1.75,-0.78 -1.75,-1.74 0,-0.97 0.79,-1.75 1.75,-1.75l0.11 0c0.96,0 1.75,0.78 1.75,1.75 0,0.96 -0.79,1.74 -1.75,1.74l0 0zm-8.27 0l-0.11 0c-0.96,0 -1.75,-0.78 -1.75,-1.74 0,-0.97 0.79,-1.75 1.75,-1.75 0.96,0 1.79,0.78 1.79,1.75 0,0.96 -0.72,1.74 -1.68,1.74l0 0zm-8.27 0l-0.11 0c-0.96,0 -1.75,-0.78 -1.75,-1.74 0,-0.97 0.79,-1.75 1.75,-1.75 0.96,0 1.79,0.78 1.79,1.75 0,0.96 -0.72,1.74 -1.68,1.74l0 0zm-8.27 0l-0.11 0c-0.96,0 -1.75,-0.78 -1.75,-1.74 0,-0.97 0.79,-1.75 1.75,-1.75l0.11 0c0.96,0 1.75,0.78 1.75,1.75 0,0.96 -0.79,1.74 -1.75,1.74l0 0zm-8.27 0l-0.11 0c-0.96,0 -1.75,-0.78 -1.75,-1.74 0,-0.97 0.79,-1.75 1.75,-1.75l0.11 0c0.96,0 1.75,0.78 1.75,1.75 0,0.96 -0.79,1.74 -1.75,1.74l0 0zm-8.27 0l-0.11 0c-0.96,0 -1.75,-0.78 -1.75,-1.74 0,-0.97 0.79,-1.75 1.75,-1.75 0.97,0 1.79,0.78 1.79,1.75 0,0.96 -0.72,1.74 -1.68,1.74l0 0zm-8.27 0l-0.11 0c-2.29,0 -2.29,-3.49 0,-3.49 0.97,0 1.79,0.78 1.79,1.75 0,0.96 -0.72,1.74 -1.68,1.74l0 0z"/>
  </g>
  <g id="_1157502692608">
   <polygon class="fil11" points="1562.83,778.33 1555,786.15 1562.83,793.97 "/>
   <path class="fil11" d="M1768.16 784.4l-0.1 0c-0.96,0 -1.75,0.79 -1.75,1.75 0,0.97 0.79,1.75 1.75,1.75 0.96,0 1.82,-0.78 1.82,-1.75 0,-0.96 -0.72,-1.75 -1.72,-1.75l0 0zm-8.27 0l-0.1 0c-0.96,0 -1.75,0.79 -1.75,1.75 0,0.97 0.79,1.75 1.75,1.75 0.96,0 1.82,-0.78 1.82,-1.75 0,-0.96 -0.75,-1.75 -1.72,-1.75l0 0zm-8.27 0l-0.1 0c-0.96,0 -1.75,0.79 -1.75,1.75 0,0.97 0.79,1.75 1.75,1.75 0.96,0 1.79,-0.78 1.79,-1.75 0,-0.96 -0.73,-1.75 -1.69,-1.75l0 0zm-8.27 0l-0.1 0c-0.96,0 -1.75,0.79 -1.75,1.75 0,0.97 0.79,1.75 1.75,1.75l0.1 0c0.97,0 1.75,-0.78 1.75,-1.75 0,-0.96 -0.78,-1.75 -1.75,-1.75l0 0zm-8.27 0l-0.1 0c-0.96,0 -1.75,0.79 -1.75,1.75 0,0.97 0.79,1.75 1.75,1.75l0.1 0c0.97,0 1.75,-0.78 1.75,-1.75 0,-0.96 -0.78,-1.75 -1.75,-1.75l0 0zm-8.27 0l-0.1 0c-0.96,0 -1.75,0.79 -1.75,1.75 0,0.97 0.79,1.75 1.75,1.75 0.96,0 1.79,-0.78 1.79,-1.75 0,-0.96 -0.72,-1.75 -1.69,-1.75l0 0zm-8.26 0l-0.11 0c-0.96,0 -1.75,0.79 -1.75,1.75 0,0.97 0.79,1.75 1.75,1.75 0.96,0 1.79,-0.78 1.79,-1.75 0,-0.96 -0.72,-1.75 -1.68,-1.75l0 0zm-8.27 0l-0.11 0c-0.99,0 -1.75,0.79 -1.75,1.75 0,0.97 0.76,1.75 1.75,1.75l0.11 0c0.96,0 1.75,-0.78 1.75,-1.75 0,-0.96 -0.79,-1.75 -1.75,-1.75l0 0zm-8.27 0l-0.14 0c-0.93,0 -1.72,0.79 -1.72,1.75 0,0.97 0.79,1.75 1.72,1.75l0.14 0c0.96,0 1.75,-0.78 1.75,-1.75 0,-0.96 -0.79,-1.75 -1.75,-1.75l0 0zm-8.27 0l-0.11 0c-0.99,0 -1.75,0.79 -1.75,1.75 0,0.97 0.76,1.75 1.75,1.75 0.96,0 1.79,-0.78 1.79,-1.75 0,-0.96 -0.72,-1.75 -1.68,-1.75l0 0zm-8.27 0l-0.14 0c-0.96,0 -1.72,0.79 -1.72,1.75 0,0.97 0.76,1.75 1.72,1.75 0.99,0 1.82,-0.78 1.82,-1.75 0,-0.96 -0.72,-1.75 -1.68,-1.75l0 0zm-8.27 0l-0.11 0c-0.99,0 -1.75,0.79 -1.75,1.75 0,0.97 0.76,1.75 1.75,1.75l0.11 0c0.96,0 1.75,-0.78 1.75,-1.75 0,-0.96 -0.79,-1.75 -1.75,-1.75l0 0zm-8.27 0l-0.14 0c-0.96,0 -1.75,0.79 -1.75,1.75 0,0.97 0.79,1.75 1.75,1.75l0.14 0c0.96,0 1.75,-0.78 1.75,-1.75 0,-0.96 -0.79,-1.75 -1.75,-1.75l0 0zm-8.27 0l-0.14 0c-0.96,0 -1.75,0.79 -1.75,1.75 0,0.97 0.79,1.75 1.75,1.75 0.96,0 1.82,-0.78 1.82,-1.75 0,-0.96 -0.72,-1.75 -1.68,-1.75l0 0zm-8.27 0l-0.14 0c-0.96,0 -1.75,0.79 -1.75,1.75 0,0.97 0.79,1.75 1.75,1.75 0.96,0 1.82,-0.78 1.82,-1.75 0,-0.96 -0.72,-1.75 -1.68,-1.75l0 0zm-8.27 0l-0.14 0c-0.96,0 -1.75,0.79 -1.75,1.75 0,0.97 0.79,1.75 1.75,1.75l0.14 0c0.96,0 1.75,-0.78 1.75,-1.75 0,-0.96 -0.79,-1.75 -1.75,-1.75l0 0zm-8.27 0l-0.14 0c-0.96,0 -1.75,0.79 -1.75,1.75 0,0.97 0.79,1.75 1.75,1.75l0.14 0c0.96,0 1.75,-0.78 1.75,-1.75 0,-0.96 -0.79,-1.75 -1.75,-1.75l0 0zm-8.27 0l-0.14 0c-0.96,0 -1.75,0.79 -1.75,1.75 0,0.97 0.79,1.75 1.75,1.75 0.96,0 1.82,-0.78 1.82,-1.75 0,-0.96 -0.72,-1.75 -1.68,-1.75l0 0zm-8.27 0l-0.14 0c-0.96,0 -1.75,0.79 -1.75,1.75 0,0.97 0.79,1.75 1.75,1.75 0.96,0 1.82,-0.78 1.82,-1.75 0,-0.96 -0.72,-1.75 -1.68,-1.75l0 0zm-8.31 0l-0.1 0c-0.96,0 -1.75,0.79 -1.75,1.75 0,0.97 0.79,1.75 1.75,1.75 0.96,0 1.82,-0.78 1.82,-1.75 0,-0.96 -0.72,-1.75 -1.72,-1.75l0 0zm-8.27 0l-0.1 0c-0.96,0 -1.75,0.79 -1.75,1.75 0,0.97 0.79,1.75 1.75,1.75l0.1 0c0.97,0 1.75,-0.78 1.75,-1.75 0,-0.96 -0.78,-1.75 -1.75,-1.75l0 0zm-8.27 0l-0.1 0c-0.96,0 -1.75,0.79 -1.75,1.75 0,0.97 0.79,1.75 1.75,1.75 0.96,0 1.82,-0.78 1.82,-1.75 0,-0.96 -0.75,-1.75 -1.72,-1.75l0 0zm-8.27 0l-0.1 0c-0.96,0 -1.75,0.79 -1.75,1.75 0,0.97 0.79,1.75 1.75,1.75 0.96,0 1.79,-0.78 1.79,-1.75 0,-0.96 -0.72,-1.75 -1.69,-1.75l0 0zm-8.26 0l-0.11 0c-0.96,0 -1.75,0.79 -1.75,1.75 0,0.97 0.79,1.75 1.75,1.75 0.96,0 1.79,-0.78 1.79,-1.75 0,-0.96 -0.72,-1.75 -1.68,-1.75l0 0zm-8.27 0l-0.11 0c-2.3,0 -2.3,3.5 0,3.5l0.11 0c0.96,0 1.74,-0.78 1.74,-1.75 0,-0.96 -0.78,-1.75 -1.74,-1.75l0 0zm238.38 -88.9c0.96,0 1.75,0.78 1.75,1.74l0 0.12c0,0.96 -0.79,1.74 -1.75,1.74 -0.96,0.01 -1.75,-0.78 -1.75,-1.74l0 -0.12c0,-0.96 0.79,-1.74 1.75,-1.74l0 0zm0 8.27c0.96,0 1.75,0.78 1.75,1.74 0,0.97 -0.79,1.81 -1.75,1.81 -0.96,0 -1.75,-0.73 -1.75,-1.69l0 -0.12c0,-0.96 0.79,-1.74 1.75,-1.74l0 0zm0 8.27c0.96,0 1.75,0.78 1.75,1.75 0,0.96 -0.79,1.8 -1.75,1.8 -0.96,0 -1.75,-0.72 -1.75,-1.69l0 -0.11c0,-0.97 0.79,-1.75 1.75,-1.75l0 0zm0 8.27c0.96,0 1.75,0.78 1.75,1.75 0,0.96 -0.79,1.8 -1.75,1.8 -0.96,0 -1.75,-0.72 -1.75,-1.68l0 -0.12c0,-0.97 0.79,-1.75 1.75,-1.75l0 0zm0 8.27c0.96,0 1.75,0.78 1.75,1.75l0 0.12c0,0.96 -0.79,1.74 -1.75,1.74 -0.96,0 -1.75,-0.78 -1.75,-1.74l0 -0.12c0,-0.97 0.79,-1.75 1.75,-1.75l0 0zm0 8.27c0.96,0 1.75,0.78 1.75,1.75l0 0.12c0,0.96 -0.79,1.75 -1.75,1.75 -0.96,0 -1.75,-0.79 -1.75,-1.75l0 -0.12c0,-0.97 0.79,-1.75 1.75,-1.75l0 0zm0 8.28c0.96,0 1.75,0.78 1.75,1.74l0 0.12c0,0.96 -0.79,1.75 -1.75,1.75 -0.96,0 -1.75,-0.79 -1.75,-1.75l0 -0.12c0,-0.96 0.79,-1.74 1.75,-1.74l0 0zm0 8.27c0.96,0 1.75,0.78 1.75,1.74l0 0.12c0,0.97 -0.79,1.75 -1.75,1.75 -0.96,0 -1.75,-0.78 -1.75,-1.75l0 -0.12c0,-0.96 0.79,-1.74 1.75,-1.74l0 0zm-0.83 8.2c0.14,0 0.28,0.02 0.42,0.05 0.92,0.22 1.51,1.16 1.27,2.1 0,0 -0.04,0.12 -0.04,0.12 -0.21,0.94 -1.17,1.51 -2.09,1.29 -0.93,-0.23 -1.51,-1.17 -1.27,-2.11l1.68 0.41 -1.68 -0.52c0.2,-0.8 0.92,-1.34 1.71,-1.34l0 0zm-3.05 7.66c0.31,0 0.62,0.08 0.89,0.23 0.83,0.49 1.1,1.56 0.62,2.39 -0.48,0.84 -1.54,1.18 -2.4,0.69 -0.83,-0.48 -1.14,-1.5 -0.65,-2.33l0.03 -0.1c0.34,-0.56 0.93,-0.88 1.51,-0.88l0 0zm-5.01 6.54c0.45,0 0.93,0.18 1.27,0.54 0.65,0.71 0.62,1.82 -0.07,2.48 -0.72,0.65 -1.85,0.66 -2.5,-0.02 -0.66,-0.69 -0.69,-1.74 -0.04,-2.41 0.04,-0.02 0.14,-0.11 0.14,-0.12 0.34,-0.32 0.75,-0.47 1.2,-0.47l0 0zm-6.62 4.91c0.61,0 1.23,0.33 1.54,0.92 0.45,0.85 0.14,1.91 -0.72,2.37 -0.86,0.46 -1.95,0.17 -2.4,-0.67 -0.48,-0.85 -0.21,-1.89 0.62,-2.35l0.13 -0.07c0.28,-0.14 0.55,-0.2 0.83,-0.2l0 0zm-7.72 2.9c0.82,0 1.54,0.57 1.71,1.4 0.21,0.94 -0.41,1.86 -1.37,2.05 -0.93,0.2 -1.89,-0.39 -2.09,-1.32 -0.21,-0.94 0.31,-1.85 1.27,-2.06 0,-0.01 0.13,-0.03 0.13,-0.03 0.11,-0.03 0.24,-0.04 0.35,-0.04l0 0zm-8.34 0.71l0.14 0c0.96,0 1.71,0.78 1.71,1.75 0,0.96 -0.75,1.75 -1.71,1.75l-0.14 0c-0.96,0 -1.75,-0.79 -1.75,-1.75 0,-0.97 0.79,-1.75 1.75,-1.75l0 0zm31.57 -93.6c0.96,0 1.75,-0.78 1.75,-1.75l0 -0.11c0,-0.97 -0.79,-1.75 -1.75,-1.75 -0.96,0 -1.75,0.78 -1.75,1.75l0 0.11c0,0.97 0.79,1.75 1.75,1.75l0 0zm0 -8.27c0.96,0 1.75,-0.79 1.75,-1.75l0 -0.12c0,-0.96 -0.79,-1.74 -1.75,-1.74 -0.96,0 -1.75,0.78 -1.75,1.74l0 0.12c0,0.96 0.79,1.75 1.75,1.75l0 0zm0 -8.27c0.96,0 1.75,-0.79 1.75,-1.75l0 -0.12c0,-0.96 -0.79,-1.74 -1.75,-1.74 -0.96,0 -1.75,0.78 -1.75,1.74l0 0.12c0,0.96 0.79,1.75 1.75,1.75l0 0zm-0.04 -16.49c0.96,0 1.75,-0.78 1.75,-1.74l0 -0.12c0,-0.97 -0.79,-1.75 -1.75,-1.75 -0.96,0 -1.75,0.78 -1.75,1.75l0 0.12c0,0.96 0.79,1.74 1.75,1.74l0 0zm0 -8.27c0.96,0 1.75,-0.78 1.75,-1.75 0,-0.96 -0.79,-1.8 -1.75,-1.8 -0.96,0 -1.75,0.72 -1.75,1.69l0 0.11c0,0.97 0.79,1.75 1.75,1.75l0 0zm0 -8.27c0.96,0 1.75,-0.79 1.75,-1.75 0,-0.97 -0.79,-1.81 -1.75,-1.81 -0.96,0 -1.75,0.73 -1.75,1.7l0 0.11c0,0.96 0.79,1.75 1.75,1.75l0 0zm0 -8.27c0.96,0 1.75,-0.79 1.75,-1.75 0,-0.96 -0.79,-1.81 -1.75,-1.81 -0.96,0 -1.75,0.73 -1.75,1.69l0 0.12c0,0.96 0.79,1.75 1.75,1.75l0 0zm0 -8.27c0.96,0 1.75,-0.79 1.75,-1.75l0 -0.12c0,-0.96 -0.79,-1.74 -1.75,-1.74 -0.96,0 -1.75,0.78 -1.75,1.74l0 0.12c0,0.96 0.79,1.75 1.75,1.75l0 0zm0 -8.28c0.96,0 1.75,-0.78 1.75,-1.74l0 -0.12c0,-0.96 -0.79,-1.75 -1.75,-1.75 -0.96,0 -1.75,0.79 -1.75,1.75l0 0.12c0,0.96 0.79,1.74 1.75,1.74l0 0zm0 -8.27c0.96,0 1.75,-0.78 1.75,-1.75l0 -0.11c0,-0.97 -0.79,-1.75 -1.75,-1.75 -0.96,0 -1.75,0.78 -1.75,1.75l0 0.11c0,0.97 0.79,1.75 1.75,1.75l0 0zm0 -8.27c0.96,0 1.75,-0.78 1.75,-1.75l0 -0.11c0,-0.97 -0.79,-1.75 -1.75,-1.75 -0.96,0 -1.75,0.78 -1.75,1.75l0 0.11c0,0.97 0.79,1.75 1.75,1.75l0 0zm-0.82 -8.2c0.14,0 0.27,-0.02 0.41,-0.05 0.93,-0.23 1.51,-1.17 1.31,-2.11 0,0 -0.04,-0.11 -0.04,-0.12 -0.24,-0.93 -1.17,-1.51 -2.13,-1.28 -0.92,0.23 -1.51,1.17 -1.27,2.11l1.69 -0.41 -1.65 0.52c0.17,0.8 0.89,1.34 1.68,1.34l0 0zm-3.02 -7.67c0.27,0 0.58,-0.07 0.86,-0.23 0.82,-0.48 1.13,-1.55 0.65,-2.39 -0.48,-0.83 -1.58,-1.17 -2.44,-0.69 -0.82,0.49 -1.13,1.5 -0.65,2.34l0.07 0.1c0.31,0.56 0.89,0.87 1.51,0.87l0 0zm-5.04 -6.53c0.48,0 0.92,-0.18 1.27,-0.55 0.65,-0.7 0.61,-1.81 -0.07,-2.47 -0.69,-0.65 -1.82,-0.67 -2.51,0.02 -0.65,0.68 -0.68,1.73 0,2.41 0,0.01 0.1,0.11 0.1,0.12 0.35,0.31 0.79,0.47 1.21,0.47l0 0zm-6.63 -4.91c0.62,0 1.24,-0.34 1.55,-0.93 0.44,-0.84 0.13,-1.9 -0.72,-2.36 -0.83,-0.47 -1.96,-0.18 -2.41,0.67 -0.48,0.84 -0.2,1.88 0.66,2.35l0.1 0.06c0.27,0.14 0.55,0.21 0.82,0.21l0 0zm-7.72 -2.9c0.83,0 1.55,-0.57 1.72,-1.4 0.2,-0.94 -0.41,-1.87 -1.34,-2.06 -0.96,-0.2 -1.92,0.39 -2.13,1.33 -0.2,0.94 0.31,1.85 1.27,2.06 0,0 0.14,0.03 0.14,0.03 0.1,0.03 0.24,0.04 0.34,0.04l0 0zm-16.61 -0.71l0.14 0c0.96,0 1.75,-0.79 1.75,-1.75 0,-0.97 -0.79,-1.75 -1.75,-1.75l-0.14 0c-0.96,0 -1.71,0.78 -1.71,1.75 0,0.96 0.75,1.75 1.71,1.75l0 0zm8.27 0l0.14 0c0.96,0 1.75,-0.79 1.75,-1.75 0,-0.97 -0.79,-1.75 -1.75,-1.75l-0.14 0c-0.96,0 -1.75,0.78 -1.75,1.75 0,0.96 0.79,1.75 1.75,1.75l0 0zm31.61 97.03c0.96,0 1.75,-0.78 1.75,-1.74l0 -0.12c0,-2.3 -3.5,-2.3 -3.5,0l0 0.12c0,0.96 0.79,1.74 1.75,1.74l0 0z"/>
  </g>
  <g id="_1157502694528">
   <polygon class="fil11" points="424.86,778.33 432.69,786.15 424.86,793.97 "/>
   <path class="fil11" d="M219.53 784.4l0.1 0c0.96,0 1.75,0.79 1.75,1.75 0,0.97 -0.79,1.75 -1.75,1.75 -0.96,0 -1.82,-0.78 -1.82,-1.75 0,-0.96 0.72,-1.75 1.72,-1.75l0 0zm8.27 0l0.1 0c0.96,0 1.75,0.79 1.75,1.75 0,0.97 -0.79,1.75 -1.75,1.75 -0.96,0 -1.82,-0.78 -1.82,-1.75 0,-0.96 0.76,-1.75 1.72,-1.75l0 0zm8.27 0l0.1 0c0.96,0 1.75,0.79 1.75,1.75 0,0.97 -0.79,1.75 -1.75,1.75 -0.96,0 -1.78,-0.78 -1.78,-1.75 0,-0.96 0.72,-1.75 1.68,-1.75l0 0zm8.27 0l0.1 0c0.96,0 1.75,0.79 1.75,1.75 0,0.97 -0.79,1.75 -1.75,1.75l-0.1 0c-0.96,0 -1.75,-0.78 -1.75,-1.75 0,-0.96 0.79,-1.75 1.75,-1.75l0 0zm8.27 0l0.1 0c0.96,0 1.75,0.79 1.75,1.75 0,0.97 -0.79,1.75 -1.75,1.75l-0.1 0c-0.96,0 -1.75,-0.78 -1.75,-1.75 0,-0.96 0.79,-1.75 1.75,-1.75l0 0zm8.27 0l0.1 0c0.96,0 1.75,0.79 1.75,1.75 0,0.97 -0.79,1.75 -1.75,1.75 -0.96,0 -1.79,-0.78 -1.79,-1.75 0,-0.96 0.72,-1.75 1.69,-1.75l0 0zm8.27 0l0.1 0c0.96,0 1.75,0.79 1.75,1.75 0,0.97 -0.79,1.75 -1.75,1.75 -0.96,0 -1.79,-0.78 -1.79,-1.75 0,-0.96 0.72,-1.75 1.69,-1.75l0 0zm8.27 0l0.1 0c0.99,0 1.75,0.79 1.75,1.75 0,0.97 -0.76,1.75 -1.75,1.75l-0.1 0c-0.97,0 -1.75,-0.78 -1.75,-1.75 0,-0.96 0.78,-1.75 1.75,-1.75l0 0zm8.26 0l0.14 0c0.93,0 1.72,0.79 1.72,1.75 0,0.97 -0.79,1.75 -1.72,1.75l-0.14 0c-0.96,0 -1.74,-0.78 -1.74,-1.75 0,-0.96 0.78,-1.75 1.74,-1.75l0 0zm8.28 0l0.1 0c0.99,0 1.75,0.79 1.75,1.75 0,0.97 -0.76,1.75 -1.75,1.75 -0.96,0 -1.79,-0.78 -1.79,-1.75 0,-0.96 0.72,-1.75 1.69,-1.75l0 0zm8.26 0l0.14 0c0.96,0 1.72,0.79 1.72,1.75 0,0.97 -0.76,1.75 -1.72,1.75 -0.99,0 -1.82,-0.78 -1.82,-1.75 0,-0.96 0.72,-1.75 1.68,-1.75l0 0zm8.27 0l0.11 0c0.99,0 1.75,0.79 1.75,1.75 0,0.97 -0.76,1.75 -1.75,1.75l-0.11 0c-0.96,0 -1.75,-0.78 -1.75,-1.75 0,-0.96 0.79,-1.75 1.75,-1.75l0 0zm8.27 0l0.14 0c0.96,0 1.75,0.79 1.75,1.75 0,0.97 -0.79,1.75 -1.75,1.75l-0.14 0c-0.96,0 -1.75,-0.78 -1.75,-1.75 0,-0.96 0.79,-1.75 1.75,-1.75l0 0zm8.27 0l0.14 0c0.96,0 1.75,0.79 1.75,1.75 0,0.97 -0.79,1.75 -1.75,1.75 -0.96,0 -1.82,-0.78 -1.82,-1.75 0,-0.96 0.72,-1.75 1.68,-1.75l0 0zm8.27 0l0.14 0c0.96,0 1.75,0.79 1.75,1.75 0,0.97 -0.79,1.75 -1.75,1.75 -0.96,0 -1.82,-0.78 -1.82,-1.75 0,-0.96 0.72,-1.75 1.68,-1.75l0 0zm8.27 0l0.14 0c0.96,0 1.75,0.79 1.75,1.75 0,0.97 -0.79,1.75 -1.75,1.75l-0.14 0c-0.96,0 -1.75,-0.78 -1.75,-1.75 0,-0.96 0.79,-1.75 1.75,-1.75l0 0zm8.27 0l0.14 0c0.96,0 1.75,0.79 1.75,1.75 0,0.97 -0.79,1.75 -1.75,1.75l-0.14 0c-0.96,0 -1.75,-0.78 -1.75,-1.75 0,-0.96 0.79,-1.75 1.75,-1.75l0 0zm8.27 0l0.14 0c0.96,0 1.75,0.79 1.75,1.75 0,0.97 -0.79,1.75 -1.75,1.75 -0.96,0 -1.82,-0.78 -1.82,-1.75 0,-0.96 0.72,-1.75 1.68,-1.75l0 0zm8.27 0l0.14 0c0.96,0 1.75,0.79 1.75,1.75 0,0.97 -0.79,1.75 -1.75,1.75 -0.96,0 -1.82,-0.78 -1.82,-1.75 0,-0.96 0.72,-1.75 1.68,-1.75l0 0zm8.31 0l0.1 0c0.96,0 1.75,0.79 1.75,1.75 0,0.97 -0.79,1.75 -1.75,1.75 -0.96,0 -1.82,-0.78 -1.82,-1.75 0,-0.96 0.72,-1.75 1.72,-1.75l0 0zm8.27 0l0.1 0c0.96,0 1.75,0.79 1.75,1.75 0,0.97 -0.79,1.75 -1.75,1.75l-0.1 0c-0.96,0 -1.75,-0.78 -1.75,-1.75 0,-0.96 0.79,-1.75 1.75,-1.75l0 0zm8.27 0l0.1 0c0.96,0 1.75,0.79 1.75,1.75 0,0.97 -0.79,1.75 -1.75,1.75 -0.96,0 -1.82,-0.78 -1.82,-1.75 0,-0.96 0.76,-1.75 1.72,-1.75l0 0zm8.27 0l0.1 0c0.96,0 1.75,0.79 1.75,1.75 0,0.97 -0.79,1.75 -1.75,1.75 -0.96,0 -1.78,-0.78 -1.78,-1.75 0,-0.96 0.72,-1.75 1.68,-1.75l0 0zm8.27 0l0.1 0c0.96,0 1.75,0.79 1.75,1.75 0,0.97 -0.79,1.75 -1.75,1.75 -0.96,0 -1.79,-0.78 -1.79,-1.75 0,-0.96 0.73,-1.75 1.69,-1.75l0 0zm8.27 0l0.1 0c2.3,0 2.3,3.5 0,3.5l-0.1 0c-0.97,0 -1.75,-0.78 -1.75,-1.75 0,-0.96 0.78,-1.75 1.75,-1.75l0 0zm-238.39 -88.9c-0.96,0 -1.75,0.78 -1.75,1.74l0 0.12c0,0.96 0.79,1.74 1.75,1.74 0.96,0.01 1.75,-0.78 1.75,-1.74l0 -0.12c0,-0.96 -0.79,-1.74 -1.75,-1.74l0 0zm0 8.27c-0.96,0 -1.75,0.78 -1.75,1.74 0,0.97 0.79,1.81 1.75,1.81 0.96,0 1.75,-0.73 1.75,-1.69l0 -0.12c0,-0.96 -0.79,-1.74 -1.75,-1.74l0 0zm0 8.27c-0.96,0 -1.75,0.78 -1.75,1.75 0,0.96 0.79,1.8 1.75,1.8 0.96,0 1.75,-0.72 1.75,-1.69l0 -0.11c0,-0.97 -0.79,-1.75 -1.75,-1.75l0 0zm0 8.27c-0.96,0 -1.75,0.78 -1.75,1.75 0,0.96 0.79,1.8 1.75,1.8 0.96,0 1.75,-0.72 1.75,-1.68l0 -0.12c0,-0.97 -0.79,-1.75 -1.75,-1.75l0 0zm0 8.27c-0.96,0 -1.75,0.78 -1.75,1.75l0 0.12c0,0.96 0.79,1.74 1.75,1.74 0.96,0 1.75,-0.78 1.75,-1.74l0 -0.12c0,-0.97 -0.79,-1.75 -1.75,-1.75l0 0zm0 8.27c-0.96,0 -1.75,0.78 -1.75,1.75l0 0.12c0,0.96 0.79,1.75 1.75,1.75 0.96,0 1.75,-0.79 1.75,-1.75l0 -0.12c0,-0.97 -0.79,-1.75 -1.75,-1.75l0 0zm0 8.28c-0.96,0 -1.75,0.78 -1.75,1.74l0 0.12c0,0.96 0.79,1.75 1.75,1.75 0.96,0 1.75,-0.79 1.75,-1.75l0 -0.12c0,-0.96 -0.79,-1.74 -1.75,-1.74l0 0zm0 8.27c-0.96,0 -1.75,0.78 -1.75,1.74l0 0.12c0,0.97 0.79,1.75 1.75,1.75 0.96,0 1.75,-0.78 1.75,-1.75l0 -0.12c0,-0.96 -0.79,-1.74 -1.75,-1.74l0 0zm0.83 8.2c-0.14,0 -0.28,0.02 -0.41,0.05 -0.93,0.22 -1.51,1.16 -1.27,2.1 0,0 0.03,0.12 0.03,0.12 0.21,0.94 1.17,1.51 2.09,1.29 0.93,-0.23 1.51,-1.17 1.27,-2.11l-1.68 0.41 1.68 -0.52c-0.2,-0.8 -0.92,-1.34 -1.71,-1.34l0 0zm3.05 7.66c-0.31,0 -0.62,0.08 -0.89,0.23 -0.82,0.49 -1.1,1.56 -0.62,2.39 0.48,0.84 1.55,1.18 2.4,0.69 0.83,-0.48 1.14,-1.5 0.66,-2.33l-0.04 -0.1c-0.34,-0.56 -0.93,-0.88 -1.51,-0.88l0 0zm5.01 6.54c-0.44,0 -0.93,0.18 -1.27,0.54 -0.65,0.71 -0.62,1.82 0.07,2.48 0.72,0.65 1.85,0.66 2.5,-0.02 0.66,-0.69 0.69,-1.74 0.04,-2.41 -0.04,-0.02 -0.14,-0.11 -0.14,-0.12 -0.34,-0.32 -0.75,-0.47 -1.2,-0.47l0 0zm6.62 4.91c-0.61,0 -1.23,0.33 -1.54,0.92 -0.45,0.85 -0.14,1.91 0.72,2.37 0.86,0.46 1.96,0.17 2.4,-0.67 0.48,-0.85 0.21,-1.89 -0.62,-2.35l-0.13 -0.07c-0.28,-0.14 -0.55,-0.2 -0.83,-0.2l0 0zm7.72 2.9c-0.82,0 -1.54,0.57 -1.71,1.4 -0.21,0.94 0.41,1.86 1.37,2.05 0.93,0.2 1.89,-0.39 2.09,-1.32 0.21,-0.94 -0.3,-1.85 -1.26,-2.06 0,-0.01 -0.14,-0.03 -0.14,-0.03 -0.11,-0.03 -0.24,-0.04 -0.35,-0.04l0 0zm8.34 0.71l-0.13 0c-0.97,0 -1.72,0.78 -1.72,1.75 0,0.96 0.75,1.75 1.72,1.75l0.13 0c0.96,0 1.75,-0.79 1.75,-1.75 0,-0.97 -0.79,-1.75 -1.75,-1.75l0 0zm-31.57 -93.6c-0.96,0 -1.75,-0.78 -1.75,-1.75l0 -0.11c0,-0.97 0.79,-1.75 1.75,-1.75 0.96,0 1.75,0.78 1.75,1.75l0 0.11c0,0.97 -0.79,1.75 -1.75,1.75l0 0zm0 -8.27c-0.96,0 -1.75,-0.79 -1.75,-1.75l0 -0.12c0,-0.96 0.79,-1.74 1.75,-1.74 0.96,0 1.75,0.78 1.75,1.74l0 0.12c0,0.96 -0.79,1.75 -1.75,1.75l0 0zm0 -8.27c-0.96,0 -1.75,-0.79 -1.75,-1.75l0 -0.12c0,-0.96 0.79,-1.74 1.75,-1.74 0.96,0 1.75,0.78 1.75,1.74l0 0.12c0,0.96 -0.79,1.75 -1.75,1.75l0 0zm0.04 -16.49c-0.96,0 -1.75,-0.78 -1.75,-1.74l0 -0.12c0,-0.97 0.79,-1.75 1.75,-1.75 0.96,0 1.75,0.78 1.75,1.75l0 0.12c0,0.96 -0.79,1.74 -1.75,1.74l0 0zm0 -8.27c-0.96,0 -1.75,-0.78 -1.75,-1.75 0,-0.96 0.79,-1.8 1.75,-1.8 0.96,0 1.75,0.72 1.75,1.69l0 0.11c0,0.97 -0.79,1.75 -1.75,1.75l0 0zm0 -8.27c-0.96,0 -1.75,-0.79 -1.75,-1.75 0,-0.97 0.79,-1.81 1.75,-1.81 0.96,0 1.75,0.73 1.75,1.7l0 0.11c0,0.96 -0.79,1.75 -1.75,1.75l0 0zm0 -8.27c-0.96,0 -1.75,-0.79 -1.75,-1.75 0,-0.96 0.79,-1.81 1.75,-1.81 0.96,0 1.75,0.73 1.75,1.69l0 0.12c0,0.96 -0.79,1.75 -1.75,1.75l0 0zm0 -8.27c-0.96,0 -1.75,-0.79 -1.75,-1.75l0 -0.12c0,-0.96 0.79,-1.74 1.75,-1.74 0.96,0 1.75,0.78 1.75,1.74l0 0.12c0,0.96 -0.79,1.75 -1.75,1.75l0 0zm0 -8.28c-0.96,0 -1.75,-0.78 -1.75,-1.74l0 -0.12c0,-0.96 0.79,-1.75 1.75,-1.75 0.96,0 1.75,0.79 1.75,1.75l0 0.12c0,0.96 -0.79,1.74 -1.75,1.74l0 0zm0 -8.27c-0.96,0 -1.75,-0.78 -1.75,-1.75l0 -0.11c0,-0.97 0.79,-1.75 1.75,-1.75 0.96,0 1.75,0.78 1.75,1.75l0 0.11c0,0.97 -0.79,1.75 -1.75,1.75l0 0zm0 -8.27c-0.96,0 -1.75,-0.78 -1.75,-1.75l0 -0.11c0,-0.97 0.79,-1.75 1.75,-1.75 0.96,0 1.75,0.78 1.75,1.75l0 0.11c0,0.97 -0.79,1.75 -1.75,1.75l0 0zm0.82 -8.2c-0.14,0 -0.27,-0.02 -0.41,-0.05 -0.93,-0.23 -1.51,-1.17 -1.3,-2.11 0,0 0.03,-0.11 0.03,-0.12 0.24,-0.93 1.17,-1.51 2.13,-1.28 0.92,0.23 1.51,1.17 1.27,2.11l-1.68 -0.41 1.64 0.52c-0.17,0.8 -0.89,1.34 -1.68,1.34l0 0zm3.02 -7.67c-0.27,0 -0.58,-0.07 -0.86,-0.23 -0.82,-0.48 -1.13,-1.55 -0.65,-2.39 0.48,-0.83 1.58,-1.17 2.44,-0.69 0.82,0.49 1.13,1.5 0.65,2.34l-0.07 0.1c-0.31,0.56 -0.89,0.87 -1.51,0.87l0 0zm5.05 -6.53c-0.48,0 -0.93,-0.18 -1.27,-0.55 -0.66,-0.7 -0.62,-1.81 0.06,-2.47 0.69,-0.65 1.82,-0.67 2.51,0.02 0.65,0.68 0.69,1.73 0,2.41 0,0.01 -0.1,0.11 -0.1,0.12 -0.35,0.31 -0.79,0.47 -1.2,0.47l0 0zm6.62 -4.91c-0.62,0 -1.24,-0.34 -1.55,-0.93 -0.44,-0.84 -0.13,-1.9 0.72,-2.36 0.83,-0.47 1.96,-0.18 2.41,0.67 0.48,0.84 0.2,1.88 -0.66,2.35l-0.1 0.06c-0.27,0.14 -0.55,0.21 -0.82,0.21l0 0zm7.72 -2.9c-0.82,0 -1.55,-0.57 -1.72,-1.4 -0.2,-0.94 0.41,-1.87 1.34,-2.06 0.96,-0.2 1.92,0.39 2.13,1.33 0.21,0.94 -0.31,1.85 -1.27,2.06 0,0 -0.14,0.03 -0.14,0.03 -0.1,0.03 -0.24,0.04 -0.34,0.04l0 0zm16.61 -0.71l-0.14 0c-0.96,0 -1.75,-0.79 -1.75,-1.75 0,-0.97 0.79,-1.75 1.75,-1.75l0.14 0c0.96,0 1.71,0.78 1.71,1.75 0,0.96 -0.75,1.75 -1.71,1.75l0 0zm-8.27 0l-0.14 0c-0.96,0 -1.75,-0.79 -1.75,-1.75 0,-0.97 0.79,-1.75 1.75,-1.75l0.14 0c0.96,0 1.75,0.78 1.75,1.75 0,0.96 -0.79,1.75 -1.75,1.75l0 0zm-31.61 97.03c-0.96,0 -1.75,-0.78 -1.75,-1.74l0 -0.12c0,-2.3 3.5,-2.3 3.5,0l0 0.12c0,0.96 -0.79,1.74 -1.75,1.74l0 0z"/>
  </g>
  <path class="fil12" d="M745.69 320.59c0,-6.62 1.5,-12.61 4.48,-17.98 2.99,-5.37 7.2,-9.64 12.64,-12.76 5.43,-3.14 11.59,-4.7 18.44,-4.7 6.86,0 13.02,1.56 18.45,4.7 5.44,3.12 9.63,7.39 12.61,12.76 2.98,5.37 4.46,11.36 4.46,17.98 0,4.98 -0.88,9.65 -2.62,14.01 -1.76,4.35 -4.16,8.1 -7.24,11.26 -3.09,3.16 -6.85,5.65 -11.28,7.45 -4.44,1.81 -9.22,2.72 -14.37,2.72 -6.86,0 -13.02,-1.54 -18.45,-4.64 -5.44,-3.1 -9.65,-7.35 -12.64,-12.75 -2.98,-5.39 -4.48,-11.41 -4.48,-18.05zm14.35 0c0,6.54 2,11.94 6.01,16.19 4,4.25 9.08,6.36 15.21,6.36 6.12,0 11.18,-2.11 15.17,-6.36 3.99,-4.25 5.99,-9.65 5.99,-16.19 0,-6.46 -2,-11.83 -5.99,-16.11 -3.99,-4.3 -9.05,-6.45 -15.17,-6.45 -6.13,0 -11.21,2.15 -15.21,6.45 -4.01,4.28 -6.01,9.65 -6.01,16.11z"/>
  <path id="_1_2" class="fil12" d="M826.21 354.76l0 -68.35 21.74 0c6.8,0 12.26,1.65 16.36,4.94 4.08,3.28 6.13,7.68 6.13,13.19 0,3.13 -0.75,6.04 -2.26,8.73 -1.5,2.68 -3.5,4.71 -6.01,6.08 3.21,1.37 5.73,3.39 7.57,6.1 1.84,2.71 2.75,5.78 2.75,9.25 0,3.25 -0.62,6.17 -1.87,8.74 -1.25,2.58 -2.96,4.68 -5.13,6.31 -2.14,1.63 -4.63,2.86 -7.43,3.73 -2.82,0.86 -5.8,1.28 -8.97,1.28l-22.88 0zm13.77 -11.91l8.39 0c2.85,0 5.23,-0.81 7.13,-2.42 1.89,-1.62 2.83,-3.76 2.83,-6.48 0,-2.75 -0.94,-4.9 -2.81,-6.45 -1.87,-1.54 -4.26,-2.32 -7.15,-2.32l-8.39 0 0 17.67zm0 -28.61l7.81 0c2.42,0 4.44,-0.75 6.07,-2.26 1.61,-1.51 2.42,-3.47 2.42,-5.84 0,-2.35 -0.79,-4.23 -2.37,-5.67 -1.6,-1.43 -3.7,-2.14 -6.3,-2.14l-7.63 0 0 15.91z"/>
  <path id="_2_3" class="fil12" d="M882.04 354.76l0 -68.35 20.59 0c7.21,0 12.87,1.92 16.99,5.77 4.12,3.85 6.17,8.69 6.17,14.53 0,4.03 -0.93,7.61 -2.77,10.75 -1.84,3.13 -4.36,5.57 -7.58,7.31l16.21 29.99 -15.25 0 -13.25 -26.75 -7.34 0 0 26.75 -13.77 0zm13.77 -38.37l6.43 0c2.64,0 4.87,-0.8 6.67,-2.41 1.81,-1.59 2.72,-3.86 2.72,-6.74 0,-2.73 -0.9,-4.91 -2.69,-6.5 -1.8,-1.62 -4.24,-2.41 -7.37,-2.41l-5.76 0 0 18.06z"/>
  <polygon id="_3_4" class="fil12" points="939.16,354.76 939.16,286.41 952.93,286.41 952.93,354.76 "/>
  <path id="_4_5" class="fil12" d="M962.39 320.57c0,-4.86 0.88,-9.47 2.65,-13.8 1.76,-4.34 4.18,-8.1 7.26,-11.27 3.09,-3.19 6.85,-5.7 11.27,-7.57 4.45,-1.86 9.2,-2.78 14.28,-2.78 3.36,0 6.59,0.39 9.66,1.15 3.09,0.77 5.73,1.77 7.94,3.01 2.2,1.22 4.06,2.44 5.55,3.63 1.48,1.19 2.74,2.39 3.76,3.6l-8.66 8.98c-0.66,-0.72 -1.44,-1.45 -2.34,-2.15 -0.88,-0.71 -2.05,-1.51 -3.51,-2.39 -1.47,-0.9 -3.23,-1.6 -5.29,-2.13 -2.07,-0.54 -4.25,-0.82 -6.53,-0.82 -6.56,0 -11.8,2.15 -15.75,6.43 -3.96,4.28 -5.94,9.65 -5.94,16.11 0,6.84 2.03,12.3 6.12,16.42 4.08,4.1 9.27,6.15 15.57,6.15 4.15,0 7.63,-0.58 10.4,-1.77 2.78,-1.17 4.79,-2.38 5.99,-3.58l0 -8.41 -12.99 0 0 -11.62 25.88 0 0 27.04c-2.04,1.74 -3.97,3.24 -5.83,4.46 -1.87,1.22 -4,2.38 -6.41,3.47 -2.41,1.09 -5.09,1.92 -8.02,2.47 -2.93,0.56 -6.14,0.83 -9.6,0.83 -3.84,0 -7.54,-0.54 -11.1,-1.59 -3.57,-1.08 -6.82,-2.64 -9.75,-4.71 -2.95,-2.06 -5.5,-4.5 -7.7,-7.33 -2.19,-2.84 -3.89,-6.12 -5.11,-9.87 -1.2,-3.74 -1.8,-7.74 -1.8,-11.96z"/>
  <path id="_5_6" class="fil12" d="M1033.11 354.76l24.22 -68.35 14.45 0 24.21 68.35 -13.86 0 -5.93 -17.57 -23.25 0 -5.97 17.57 -13.87 0zm23.55 -29l15.93 0 -8.02 -24.59 -7.91 24.59z"/>
  <path id="_6_7" class="fil12" d="M1103.3 354.76l0 -68.35 18.16 0c11.21,0 20.06,3.03 26.52,9.07 6.47,6.05 9.7,14.4 9.7,25.06 0,10.85 -3.22,19.27 -9.68,25.26 -6.44,5.97 -15.3,8.96 -26.54,8.96l-18.16 0zm13.77 -11.91l4.86 0c6.64,0 11.86,-1.9 15.67,-5.73 3.83,-3.82 5.73,-9.35 5.73,-16.58 0,-7.06 -1.92,-12.55 -5.76,-16.4 -3.86,-3.88 -9.06,-5.81 -15.64,-5.81l-4.86 0 0 44.52z"/>
  <path id="_7_8" class="fil12" d="M1163.62 320.59c0,-6.62 1.5,-12.61 4.48,-17.98 2.99,-5.37 7.21,-9.64 12.64,-12.76 5.44,-3.14 11.59,-4.7 18.44,-4.7 6.87,0 13.02,1.56 18.45,4.7 5.44,3.12 9.64,7.39 12.62,12.76 2.97,5.37 4.46,11.36 4.46,17.98 0,4.98 -0.88,9.65 -2.62,14.01 -1.76,4.35 -4.17,8.1 -7.25,11.26 -3.09,3.16 -6.85,5.65 -11.27,7.45 -4.45,1.81 -9.23,2.72 -14.37,2.72 -6.87,0 -13.02,-1.54 -18.46,-4.64 -5.43,-3.1 -9.65,-7.35 -12.64,-12.75 -2.98,-5.39 -4.48,-11.41 -4.48,-18.05zm14.36 0c0,6.54 2,11.94 6,16.19 4,4.25 9.08,6.36 15.22,6.36 6.12,0 11.18,-2.11 15.16,-6.36 3.99,-4.25 5.99,-9.65 5.99,-16.19 0,-6.46 -2,-11.83 -5.99,-16.11 -3.98,-4.3 -9.04,-6.45 -15.16,-6.45 -6.14,0 -11.22,2.15 -15.22,6.45 -4,4.28 -6,9.65 -6,16.11z"/>
  <path id="_8_9" class="fil12" d="M1243.56 347.85c0,-2.31 0.71,-4.3 2.13,-5.94 1.42,-1.65 3.35,-2.48 5.78,-2.48 2.42,0 4.34,0.83 5.73,2.48 1.38,1.64 2.08,3.63 2.08,5.94 0,2.26 -0.7,4.18 -2.08,5.77 -1.39,1.61 -3.31,2.41 -5.73,2.41 -2.43,0 -4.36,-0.8 -5.78,-2.41 -1.42,-1.59 -2.13,-3.51 -2.13,-5.77zm0.49 -61.44l14.15 0 -0.39 48.92 -12.69 0 -1.07 -48.92z"/>
  <g id="_1157502698512">
   <g>
    <path class="fil12" d="M271.45 588.65l-10.53 0 0 -37.78 10.53 0 0 37.78zm15.53 -21.07l0 21.07 -10.53 0 0 -37.78 10.53 0 0 4.21 0 0 0 12.34c0,0.05 0,0.11 0,0.16zm2.81 -14.86c2.44,-1.65 5.08,-2.48 7.93,-2.48 3.98,0 7.31,1.4 10.01,4.21 2.69,2.81 4.03,6.56 4.03,11.24l0 22.96 -10.53 0 0 -21.35c0,-5.8 -2.13,-8.7 -6.39,-8.7 -1.9,0 -3.58,0.62 -5.05,1.86l0 -7.74zm41.67 36.49c-4.47,0 -8.46,-1.9 -11.97,-5.69 -3.51,-3.79 -5.26,-8.5 -5.26,-14.11 0,-5.62 1.71,-10.22 5.12,-13.8 3.42,-3.58 7.42,-5.37 12.01,-5.37 3.26,0 6.1,0.82 8.51,2.45l0 9.11c-1.65,-1.81 -3.65,-2.71 -5.98,-2.71 -2.49,0 -4.62,1.03 -6.39,3.09 -1.78,2.06 -2.67,4.61 -2.67,7.65 0,3.04 0.91,5.53 2.74,7.48 1.82,1.94 3.95,2.91 6.39,2.91 2.43,0 4.5,-0.97 6.21,-2.91 1.71,-1.95 2.56,-4.45 2.56,-7.52 0,-0.43 -0.02,-0.86 -0.05,-1.28l0 -26.26 -0.09 0 0 -5.7 10.53 0 0 52.1 -10.53 0 0 -4.99c-2.95,3.7 -6.66,5.55 -11.13,5.55zm59.37 -6.04c-4.26,4.02 -9.25,6.04 -14.99,6.04 -5.73,0 -10.47,-1.77 -14.21,-5.3 -3.75,-3.54 -5.62,-8.28 -5.62,-14.22 0,-5.95 1.91,-10.67 5.72,-14.18 3.82,-3.51 8.32,-5.27 13.52,-5.27 5.19,0 9.6,1.57 13.23,4.7 3.63,3.14 5.44,7.45 5.44,12.92l0 5.62 -24.8 0 0 -7.51 14.13 0c-0.23,-2.25 -1.08,-3.98 -2.53,-5.2 -1.45,-1.21 -3.22,-1.82 -5.3,-1.82 -2.08,0 -3.99,0.63 -5.72,1.89 -1.73,1.27 -2.74,2.97 -3.02,5.13 -0.58,3.8 -0.41,6.94 -0.28,7.51 0.33,2.06 1.4,3.74 3.23,5.05 1.82,1.32 3.88,1.97 6.18,1.97 3.7,0 6.74,-1.24 9.13,-3.72l5.89 6.39zm20.11 -22.48l6.83 -9.78 0.03 -0.04 12.36 0 -12.99 18.47 13.48 19.31 -12.57 0 -7.37 -10.4 -7.16 10.4 -12.15 0 19.54 -27.96zm52.01 27.96l-9.9 0 0 -4.57c-2.71,3.42 -6.07,5.13 -10.07,5.13 -4,0 -7.36,-1.16 -10.08,-3.48 -2.71,-2.32 -4.07,-5.4 -4.07,-9.27 0,-3.86 1.4,-6.75 4.21,-8.67 2.81,-1.92 6.65,-2.88 11.52,-2.88l5 0 0 7.52 -3.81 0c-4.21,0 -6.32,1.31 -6.32,3.93 0,1.36 0.51,2.4 1.51,3.12 1.01,0.73 2.45,1.09 4.32,1.09 1.87,0 3.52,-0.57 4.95,-1.72 1.43,-1.15 2.14,-2.68 2.14,-4.6l0.02 -1.69 0.05 -7.86c0,-4.02 -2.13,-6.03 -6.39,-6.03 -1.82,0 -3.75,0.36 -5.79,1.08 -2.04,0.73 -3.76,1.63 -5.16,2.71l-4.7 -6.81c4.96,-3.61 10.62,-5.41 16.99,-5.41 4.58,0 8.33,1.15 11.23,3.44 2.9,2.29 4.35,5.92 4.35,10.88l0 24.09z"/>
    <circle class="fil0" cx="266.19" cy="541.67" r="6.17"/>
    <circle class="fil0" cx="471.99" cy="583.03" r="6.17"/>
    <polygon class="fil0" points="403.33,567.52 409.59,558.57 404.67,550.87 392.1,550.87 "/>
    <path class="fil13" d="M493.98 550.97c6.74,0 11.92,1.65 15.52,4.95 3.61,3.3 5.41,7.88 5.41,13.76 0,5.88 -1.76,10.53 -5.27,13.96 -3.52,3.42 -8.88,5.13 -16.09,5.13l-12.93 0 0 -37.8 13.36 0zm0.43 30.34c3.86,0 6.83,-0.97 8.9,-2.92 2.07,-1.95 3.11,-4.78 3.11,-8.49 0,-3.72 -1.04,-6.57 -3.11,-8.57 -2.07,-2.01 -5.25,-3.01 -9.55,-3.01l-4.7 0 0 22.99 5.35 0zm53.77 -11.65c0,-3.38 -1.08,-6.25 -3.24,-8.63 -2.17,-2.38 -4.82,-3.57 -7.98,-3.57 -3.15,0 -5.81,1.19 -7.98,3.57 -2.16,2.38 -3.24,5.25 -3.24,8.63 0,3.37 1.08,6.23 3.24,8.59 2.17,2.37 4.83,3.55 7.98,3.55 3.16,0 5.81,-1.18 7.98,-3.55 2.16,-2.36 3.24,-5.22 3.24,-8.59zm2.87 13.9c-3.82,3.73 -8.53,5.59 -14.12,5.59 -5.59,0 -10.29,-1.86 -14.11,-5.59 -3.82,-3.74 -5.74,-8.38 -5.74,-13.93 0,-5.55 1.92,-10.2 5.74,-13.93 3.82,-3.73 8.52,-5.6 14.11,-5.6 5.59,0 10.3,1.87 14.12,5.6 3.82,3.73 5.73,8.38 5.73,13.93 0,5.55 -1.91,10.19 -5.73,13.93zm27.27 -2.25c4.14,0 7.53,-1.64 10.17,-4.92l5.4 5.57c-4.29,4.83 -9.34,7.25 -15.17,7.25 -5.82,0 -10.62,-1.84 -14.38,-5.52 -3.77,-3.68 -5.66,-8.32 -5.66,-13.93 0,-5.6 1.92,-10.28 5.76,-14.03 3.84,-3.75 8.54,-5.63 14.09,-5.63 6.21,0 11.4,2.36 15.58,7.09l-5.25 5.95c-2.66,-3.32 -5.98,-4.98 -9.95,-4.98 -3.17,0 -5.88,1.04 -8.14,3.11 -2.25,2.07 -3.38,4.87 -3.38,8.39 0,3.51 1.07,6.33 3.19,8.46 2.13,2.13 4.71,3.19 7.74,3.19z"/>
   </g>
   <g>
    <path class="fil12" d="M1416.41 588.64l-10.54 0 0 -37.77 10.54 0 0 37.77zm15.52 -21.06l0 21.06 -10.53 0 0 -37.77 10.53 0 0 4.21 0 0 0 12.34c0,0.05 0,0.11 0,0.16zm2.81 -14.86c2.44,-1.65 5.08,-2.48 7.93,-2.48 3.98,0 7.31,1.4 10.01,4.21 2.69,2.81 4.03,6.56 4.03,11.24l0 22.95 -10.53 0 0 -21.34c0,-5.8 -2.13,-8.7 -6.39,-8.7 -1.9,0 -3.58,0.62 -5.05,1.86l0 -7.74zm41.67 36.49c-4.47,0 -8.46,-1.9 -11.97,-5.69 -3.51,-3.79 -5.26,-8.5 -5.26,-14.11 0,-5.62 1.71,-10.22 5.12,-13.8 3.42,-3.58 7.42,-5.37 12.01,-5.37 3.26,0 6.1,0.82 8.51,2.45l0 9.1c-1.66,-1.8 -3.65,-2.7 -5.98,-2.7 -2.49,0 -4.61,1.03 -6.39,3.09 -1.78,2.06 -2.67,4.61 -2.67,7.65 0,3.04 0.91,5.53 2.74,7.48 1.82,1.94 3.95,2.91 6.39,2.91 2.43,0 4.5,-0.97 6.21,-2.91 1.71,-1.95 2.56,-4.45 2.56,-7.52 0,-0.43 -0.02,-0.86 -0.05,-1.28l0 -26.26 -0.09 0 0 -5.7 10.53 0 0 52.09 -10.53 0 0 -4.98c-2.95,3.7 -6.66,5.55 -11.13,5.55zm59.37 -6.04c-4.26,4.02 -9.25,6.04 -14.99,6.04 -5.73,0 -10.47,-1.77 -14.21,-5.3 -3.75,-3.54 -5.62,-8.28 -5.62,-14.22 0,-5.95 1.91,-10.67 5.72,-14.18 3.82,-3.51 8.32,-5.27 13.52,-5.27 5.19,0 9.6,1.57 13.23,4.7 3.63,3.14 5.44,7.45 5.44,12.92l0 5.62 -24.8 0 0 -7.51 14.13 0c-0.23,-2.25 -1.08,-3.98 -2.53,-5.2 -1.45,-1.22 -3.22,-1.82 -5.3,-1.82 -2.08,0 -3.99,0.63 -5.72,1.89 -1.73,1.27 -2.74,2.97 -3.02,5.13 -0.58,3.8 -0.41,6.94 -0.28,7.51 0.33,2.06 1.4,3.74 3.23,5.05 1.82,1.32 3.88,1.97 6.18,1.97 3.7,0 6.74,-1.24 9.13,-3.72l5.89 6.39zm20.11 -22.48l6.83 -9.78 0.03 -0.04 12.36 0 -12.99 18.47 13.48 19.3 -12.57 0 -7.37 -10.39 -7.16 10.39 -12.14 0 19.53 -27.95zm52.01 27.95l-9.9 0 0 -4.56c-2.71,3.42 -6.07,5.13 -10.07,5.13 -4,0 -7.36,-1.16 -10.08,-3.48 -2.71,-2.32 -4.07,-5.41 -4.07,-9.27 0,-3.86 1.4,-6.75 4.21,-8.67 2.81,-1.92 6.65,-2.88 11.52,-2.88l5 0 0 7.52 -3.81 0c-4.21,0 -6.32,1.31 -6.32,3.93 0,1.36 0.51,2.4 1.51,3.12 1.01,0.73 2.45,1.09 4.32,1.09 1.87,0 3.52,-0.57 4.95,-1.72 1.43,-1.15 2.14,-2.68 2.14,-4.6l0.02 -1.69 0.05 -7.86c0,-4.02 -2.13,-6.03 -6.39,-6.03 -1.82,0 -3.75,0.36 -5.79,1.08 -2.04,0.73 -3.76,1.63 -5.16,2.71l-4.71 -6.81c4.97,-3.61 10.63,-5.41 17,-5.41 4.58,0 8.33,1.15 11.23,3.44 2.9,2.29 4.35,5.92 4.35,10.88l0 24.08z"/>
    <circle class="fil14" cx="1411.14" cy="541.67" r="6.17"/>
    <circle class="fil14" cx="1616.94" cy="583.03" r="6.17"/>
    <polygon class="fil14" points="1548.28,567.52 1554.54,558.57 1549.62,550.87 1537.05,550.87 "/>
    <path class="fil15" d="M1653.31 569.52l8.49 0 0 13.41c-3.75,4.19 -8.94,6.28 -15.58,6.28 -5.55,0 -10.21,-1.84 -13.98,-5.52 -3.77,-3.68 -5.65,-8.32 -5.65,-13.93 0,-5.6 1.92,-10.28 5.76,-14.03 3.84,-3.75 8.47,-5.63 13.9,-5.63 5.42,0 10.14,1.79 14.14,5.36l-4.38 6.33c-1.69,-1.48 -3.25,-2.5 -4.68,-3.06 -1.42,-0.56 -2.96,-0.84 -4.62,-0.84 -3.21,0 -5.92,1.09 -8.12,3.27 -2.19,2.18 -3.29,5.06 -3.29,8.63 0,3.57 1.05,6.43 3.16,8.57 2.11,2.15 4.62,3.22 7.54,3.22 2.93,0 5.36,-0.56 7.31,-1.68l0 -10.38zm43.73 -18.55l0 7.52 -18.82 0 0 7.78 16.93 0 0 7.2 -16.93 0 0 7.84 19.42 0 0 7.46 -27.86 0 0 -37.8 27.26 0zm21.94 0c6.74,0 11.92,1.65 15.52,4.95 3.61,3.3 5.41,7.88 5.41,13.76 0,5.88 -1.76,10.53 -5.27,13.96 -3.52,3.42 -8.88,5.13 -16.09,5.13l-12.93 0 0 -37.8 13.36 0zm0.43 30.34c3.86,0 6.83,-0.97 8.9,-2.92 2.07,-1.95 3.11,-4.78 3.11,-8.49 0,-3.72 -1.04,-6.57 -3.11,-8.57 -2.07,-2.01 -5.25,-3.01 -9.55,-3.01l-4.7 0 0 22.99 5.35 0z"/>
   </g>
  </g>
  <g id="logo_x0020_dux-2022.eps">
   <path class="fil12" d="M866.4 822.16c0.18,0 0.27,0.09 0.27,0.26l0 1.16c0,0.18 -0.09,0.27 -0.27,0.27l-6.1 0c-0.23,0 -0.4,0.06 -0.5,0.18 -0.09,0.12 -0.14,0.29 -0.14,0.5l0 0.41c0,0.46 0.21,0.69 0.63,0.69l4.56 0c0.71,0 1.24,0.18 1.6,0.54 0.35,0.36 0.53,0.88 0.53,1.55l0 0.97c0,0.6 -0.17,1.07 -0.52,1.44 -0.35,0.36 -0.89,0.55 -1.63,0.55l-6.74 0c-0.19,0 -0.28,-0.09 -0.28,-0.27l0 -1.16c0,-0.18 0.09,-0.27 0.28,-0.27l6.39 0c0.23,0 0.4,-0.06 0.5,-0.18 0.09,-0.12 0.14,-0.29 0.14,-0.5l0 -0.5c0,-0.45 -0.21,-0.68 -0.63,-0.68l-4.57 0c-0.7,0 -1.23,-0.18 -1.59,-0.54 -0.36,-0.36 -0.54,-0.88 -0.54,-1.55l0 -0.89c0,-0.59 0.18,-1.07 0.53,-1.44 0.35,-0.36 0.89,-0.54 1.63,-0.54l6.45 0z"/>
   <path class="fil12" d="M881.83 827.33c0,0.32 0.03,0.58 0.08,0.8 0.05,0.21 0.14,0.38 0.26,0.51 0.12,0.12 0.29,0.21 0.5,0.27 0.2,0.05 0.46,0.07 0.78,0.07l3.61 0c0.32,0 0.58,-0.02 0.79,-0.07 0.21,-0.06 0.37,-0.15 0.49,-0.27 0.12,-0.13 0.21,-0.3 0.26,-0.51 0.06,-0.22 0.08,-0.48 0.08,-0.8l0 -1.83c0,-0.31 -0.02,-0.58 -0.08,-0.79 -0.05,-0.22 -0.14,-0.39 -0.26,-0.51 -0.12,-0.13 -0.28,-0.22 -0.49,-0.27 -0.21,-0.05 -0.47,-0.08 -0.79,-0.08l-3.61 0c-0.32,0 -0.58,0.03 -0.78,0.08 -0.21,0.05 -0.38,0.14 -0.5,0.27 -0.12,0.12 -0.21,0.29 -0.26,0.51 -0.05,0.21 -0.08,0.48 -0.08,0.79l0 1.83zm5.31 -5.17c0.61,0 1.14,0.06 1.57,0.17 0.44,0.12 0.79,0.31 1.06,0.56 0.27,0.26 0.47,0.59 0.59,1 0.12,0.4 0.19,0.9 0.19,1.48l0 2.09c0,0.59 -0.07,1.08 -0.19,1.49 -0.12,0.41 -0.32,0.75 -0.59,1 -0.27,0.26 -0.62,0.44 -1.06,0.56 -0.43,0.11 -0.96,0.17 -1.57,0.17l-3.76 0c-0.62,0 -1.14,-0.06 -1.57,-0.17 -0.43,-0.12 -0.78,-0.3 -1.06,-0.56 -0.27,-0.25 -0.47,-0.59 -0.59,-1 -0.13,-0.41 -0.19,-0.9 -0.19,-1.49l0 -2.09c0,-0.58 0.06,-1.08 0.19,-1.48 0.12,-0.41 0.32,-0.74 0.59,-1 0.28,-0.25 0.63,-0.44 1.06,-0.56 0.43,-0.11 0.95,-0.17 1.57,-0.17l3.76 0z"/>
   <path class="fil12" d="M905.32 822.16c0.18,0 0.27,0.09 0.27,0.26l0 4.86c0,0.33 0.02,0.6 0.08,0.81 0.05,0.22 0.14,0.39 0.26,0.51 0.12,0.13 0.29,0.22 0.49,0.27 0.21,0.05 0.47,0.08 0.79,0.08l4.93 0c0.17,0 0.26,0.09 0.26,0.27l0 1.19c0,0.18 -0.09,0.27 -0.26,0.27l-5.01 0c-0.61,0 -1.14,-0.06 -1.57,-0.17 -0.43,-0.12 -0.78,-0.3 -1.05,-0.56 -0.27,-0.25 -0.47,-0.59 -0.59,-1 -0.13,-0.41 -0.19,-0.9 -0.19,-1.49l0 -5.04c0,-0.17 0.09,-0.26 0.28,-0.26l1.31 0z"/>
   <path class="fil12" d="M926.6 822.16c0.17,0 0.26,0.09 0.26,0.26l0 4.86c0,0.33 0.03,0.6 0.08,0.81 0.06,0.22 0.14,0.39 0.26,0.51 0.13,0.13 0.29,0.22 0.5,0.27 0.2,0.05 0.47,0.08 0.78,0.08l3.37 0c0.32,0 0.58,-0.03 0.79,-0.08 0.21,-0.05 0.37,-0.14 0.49,-0.27 0.12,-0.12 0.21,-0.29 0.26,-0.51 0.05,-0.21 0.07,-0.48 0.07,-0.81l0 -4.86c0,-0.17 0.09,-0.26 0.27,-0.26l1.32 0c0.18,0 0.27,0.09 0.27,0.26l0 5.04c0,0.59 -0.06,1.08 -0.18,1.49 -0.12,0.41 -0.32,0.75 -0.59,1 -0.27,0.26 -0.63,0.44 -1.06,0.56 -0.43,0.11 -0.96,0.17 -1.58,0.17l-3.5 0c-0.62,0 -1.14,-0.06 -1.57,-0.17 -0.43,-0.12 -0.78,-0.3 -1.05,-0.56 -0.28,-0.25 -0.47,-0.59 -0.6,-1 -0.13,-0.41 -0.19,-0.9 -0.19,-1.49l0 -5.04c0,-0.17 0.09,-0.26 0.28,-0.26l1.32 0z"/>
   <path class="fil12" d="M954.05 831.18c0.21,0 0.28,0.1 0.23,0.31l-0.53 2.22c-0.05,0.18 -0.15,0.28 -0.31,0.28l-0.69 0c-0.2,0 -0.3,-0.1 -0.28,-0.28l0.2 -2.25c0.01,-0.19 0.11,-0.28 0.29,-0.28l1.09 0zm3.36 -9.02c0.18,0 0.27,0.09 0.27,0.26l0 1.2c0,0.18 -0.09,0.28 -0.27,0.28l-5.41 0c-0.32,0 -0.58,0.02 -0.79,0.08 -0.21,0.05 -0.37,0.14 -0.49,0.26 -0.12,0.13 -0.21,0.3 -0.26,0.51 -0.06,0.21 -0.08,0.48 -0.08,0.8l0 1.73c0,0.33 0.02,0.6 0.08,0.81 0.05,0.22 0.14,0.39 0.26,0.51 0.12,0.13 0.28,0.22 0.49,0.27 0.21,0.05 0.47,0.08 0.79,0.08l5.41 0c0.18,0 0.27,0.09 0.27,0.27l0 1.19c0,0.18 -0.09,0.27 -0.27,0.27l-5.49 0c-0.61,0 -1.14,-0.06 -1.57,-0.17 -0.43,-0.12 -0.78,-0.3 -1.05,-0.56 -0.27,-0.25 -0.47,-0.59 -0.6,-1 -0.12,-0.41 -0.18,-0.9 -0.18,-1.49l0 -2.09c0,-0.58 0.06,-1.08 0.18,-1.48 0.13,-0.41 0.33,-0.74 0.6,-1 0.27,-0.25 0.62,-0.44 1.05,-0.56 0.43,-0.11 0.96,-0.17 1.57,-0.17l5.49 0z"/>
   <path class="fil12" d="M972.97 821.63c-0.1,0 -0.16,-0.02 -0.19,-0.08 -0.02,-0.05 -0.03,-0.14 -0.03,-0.27 0,-0.33 0.03,-0.61 0.08,-0.83 0.06,-0.22 0.15,-0.39 0.27,-0.52 0.12,-0.13 0.28,-0.22 0.47,-0.27 0.2,-0.06 0.43,-0.08 0.7,-0.08 0.44,0 0.81,0.06 1.12,0.17 0.32,0.12 0.61,0.29 0.89,0.51 0.13,0.11 0.26,0.2 0.39,0.27 0.12,0.07 0.3,0.11 0.53,0.11 0.12,0 0.22,-0.02 0.29,-0.04 0.08,-0.03 0.13,-0.07 0.17,-0.13 0.03,-0.07 0.06,-0.16 0.08,-0.27 0.01,-0.11 0.02,-0.24 0.02,-0.4 0.01,-0.18 0.12,-0.27 0.33,-0.27l0.69 0c0.09,0 0.15,0.02 0.18,0.08 0.03,0.05 0.04,0.14 0.04,0.27 0,0.33 -0.03,0.61 -0.08,0.83 -0.06,0.22 -0.15,0.39 -0.28,0.52 -0.12,0.13 -0.28,0.22 -0.48,0.28 -0.19,0.05 -0.42,0.07 -0.69,0.07 -0.44,0 -0.81,-0.05 -1.12,-0.17 -0.31,-0.12 -0.6,-0.29 -0.88,-0.51 -0.13,-0.11 -0.27,-0.2 -0.39,-0.27 -0.13,-0.07 -0.31,-0.1 -0.54,-0.1 -0.24,0 -0.39,0.06 -0.45,0.17 -0.07,0.12 -0.1,0.34 -0.1,0.67 -0.01,0.17 -0.12,0.26 -0.34,0.26l-0.68 0zm-0.53 5.7c0,0.32 0.03,0.58 0.08,0.8 0.06,0.21 0.14,0.38 0.26,0.51 0.13,0.12 0.29,0.21 0.5,0.27 0.2,0.05 0.46,0.07 0.78,0.07l3.62 0c0.31,0 0.57,-0.02 0.78,-0.07 0.21,-0.06 0.37,-0.15 0.49,-0.27 0.13,-0.13 0.21,-0.3 0.27,-0.51 0.05,-0.22 0.08,-0.48 0.08,-0.8l0 -1.83c0,-0.31 -0.03,-0.58 -0.08,-0.79 -0.06,-0.22 -0.14,-0.39 -0.27,-0.51 -0.12,-0.13 -0.28,-0.22 -0.49,-0.27 -0.21,-0.05 -0.47,-0.08 -0.78,-0.08l-3.62 0c-0.32,0 -0.58,0.03 -0.78,0.08 -0.21,0.05 -0.37,0.14 -0.5,0.27 -0.12,0.12 -0.2,0.29 -0.26,0.51 -0.05,0.21 -0.08,0.48 -0.08,0.79l0 1.83zm5.31 -5.17c0.62,0 1.14,0.06 1.58,0.17 0.43,0.12 0.78,0.31 1.05,0.56 0.28,0.26 0.47,0.59 0.59,1 0.13,0.4 0.19,0.9 0.19,1.48l0 2.09c0,0.59 -0.06,1.08 -0.19,1.49 -0.12,0.41 -0.31,0.75 -0.59,1 -0.27,0.26 -0.62,0.44 -1.05,0.56 -0.44,0.11 -0.96,0.17 -1.58,0.17l-3.76 0c-0.62,0 -1.14,-0.06 -1.57,-0.17 -0.43,-0.12 -0.78,-0.3 -1.05,-0.56 -0.28,-0.25 -0.47,-0.59 -0.6,-1 -0.13,-0.41 -0.19,-0.9 -0.19,-1.49l0 -2.09c0,-0.58 0.06,-1.08 0.19,-1.48 0.13,-0.41 0.32,-0.74 0.6,-1 0.27,-0.25 0.62,-0.44 1.05,-0.56 0.43,-0.11 0.95,-0.17 1.57,-0.17l3.76 0z"/>
   <path class="fil12" d="M1003.03 822.16c0.18,0 0.28,0.09 0.28,0.26l0 1.16c0,0.18 -0.1,0.27 -0.28,0.27l-5.32 0c-0.32,0 -0.58,0.03 -0.79,0.08 -0.2,0.05 -0.37,0.14 -0.5,0.27 -0.12,0.12 -0.21,0.29 -0.26,0.51 -0.04,0.21 -0.07,0.48 -0.07,0.79l0 0.13 6.88 0c0.18,0 0.26,0.08 0.26,0.26l0 0.96c0,0.18 -0.08,0.27 -0.26,0.27l-6.88 0 0 0.21c0,0.32 0.03,0.58 0.07,0.8 0.05,0.21 0.14,0.38 0.26,0.51 0.13,0.12 0.3,0.21 0.5,0.27 0.21,0.05 0.47,0.07 0.79,0.07l5.32 0c0.18,0 0.28,0.09 0.28,0.27l0 1.16c0,0.18 -0.1,0.27 -0.28,0.27l-5.36 0c-0.61,0 -1.14,-0.06 -1.57,-0.17 -0.43,-0.12 -0.78,-0.3 -1.05,-0.56 -0.27,-0.25 -0.47,-0.59 -0.6,-1 -0.12,-0.41 -0.18,-0.9 -0.18,-1.49l0 -2.09c0,-0.58 0.06,-1.08 0.18,-1.48 0.13,-0.41 0.33,-0.74 0.6,-1 0.27,-0.25 0.62,-0.44 1.05,-0.56 0.43,-0.11 0.96,-0.17 1.57,-0.17l5.36 0z"/>
   <path class="fil12" d="M1024.86 822.16c0.18,0 0.27,0.09 0.27,0.26l0 1.16c0,0.18 -0.09,0.27 -0.27,0.27l-6.1 0c-0.23,0 -0.4,0.06 -0.49,0.18 -0.1,0.12 -0.15,0.29 -0.15,0.5l0 0.41c0,0.46 0.21,0.69 0.63,0.69l4.57 0c0.7,0 1.23,0.18 1.59,0.54 0.36,0.36 0.54,0.88 0.54,1.55l0 0.97c0,0.6 -0.18,1.07 -0.53,1.44 -0.35,0.36 -0.89,0.55 -1.63,0.55l-6.74 0c-0.19,0 -0.28,-0.09 -0.28,-0.27l0 -1.16c0,-0.18 0.09,-0.27 0.28,-0.27l6.39 0c0.23,0 0.4,-0.06 0.5,-0.18 0.1,-0.12 0.14,-0.29 0.14,-0.5l0 -0.5c0,-0.45 -0.21,-0.68 -0.63,-0.68l-4.56 0c-0.71,0 -1.24,-0.18 -1.6,-0.54 -0.35,-0.36 -0.53,-0.88 -0.53,-1.55l0 -0.89c0,-0.59 0.17,-1.07 0.52,-1.44 0.35,-0.36 0.89,-0.54 1.63,-0.54l6.45 0z"/>
   <path class="fil12" d="M1062.97 822.16c0.18,0 0.28,0.09 0.28,0.26l0 1.16c0,0.18 -0.1,0.27 -0.28,0.27l-5.32 0c-0.32,0 -0.58,0.03 -0.78,0.08 -0.21,0.05 -0.38,0.14 -0.5,0.27 -0.13,0.12 -0.22,0.29 -0.27,0.51 -0.04,0.21 -0.07,0.48 -0.07,0.79l0 0.13 6.88 0c0.18,0 0.27,0.08 0.27,0.26l0 0.96c0,0.18 -0.09,0.27 -0.27,0.27l-6.88 0 0 0.21c0,0.32 0.03,0.58 0.07,0.8 0.05,0.21 0.14,0.38 0.27,0.51 0.12,0.12 0.29,0.21 0.5,0.27 0.2,0.05 0.46,0.07 0.78,0.07l5.32 0c0.18,0 0.28,0.09 0.28,0.27l0 1.16c0,0.18 -0.1,0.27 -0.28,0.27l-5.36 0c-0.61,0 -1.14,-0.06 -1.57,-0.17 -0.43,-0.12 -0.78,-0.3 -1.05,-0.56 -0.27,-0.25 -0.47,-0.59 -0.6,-1 -0.12,-0.41 -0.18,-0.9 -0.18,-1.49l0 -2.09c0,-0.58 0.06,-1.08 0.18,-1.48 0.13,-0.41 0.33,-0.74 0.6,-1 0.27,-0.25 0.62,-0.44 1.05,-0.56 0.43,-0.11 0.96,-0.17 1.57,-0.17l5.36 0z"/>
   <path class="fil12" d="M1078.75 822.16c0.18,0 0.34,0.01 0.47,0.03 0.13,0.03 0.24,0.07 0.34,0.14 0.09,0.07 0.18,0.17 0.26,0.28 0.08,0.12 0.16,0.28 0.24,0.47l2.53 5.84c0.03,0.08 0.09,0.11 0.17,0.11l0.14 0c0.09,0 0.14,-0.03 0.17,-0.11l2.54 -5.84c0.08,-0.19 0.16,-0.35 0.23,-0.47 0.08,-0.11 0.17,-0.21 0.27,-0.28 0.09,-0.07 0.2,-0.11 0.33,-0.14 0.13,-0.02 0.28,-0.03 0.46,-0.03l1.3 0c0.42,0 0.7,0.09 0.85,0.28 0.15,0.19 0.22,0.52 0.22,0.98l0 6.99c0,0.18 -0.09,0.27 -0.28,0.27l-1.24 0c-0.18,0 -0.27,-0.09 -0.27,-0.27l0 -6.35c0,-0.08 -0.03,-0.13 -0.1,-0.13l-0.11 0c-0.08,0 -0.13,0.04 -0.15,0.1l-2.46 5.45c-0.1,0.22 -0.2,0.41 -0.3,0.56 -0.1,0.15 -0.21,0.27 -0.33,0.37 -0.12,0.1 -0.25,0.17 -0.4,0.21 -0.15,0.04 -0.33,0.06 -0.53,0.06l-0.59 0c-0.2,0 -0.37,-0.02 -0.52,-0.06 -0.16,-0.04 -0.29,-0.11 -0.41,-0.21 -0.11,-0.1 -0.22,-0.22 -0.32,-0.37 -0.11,-0.15 -0.21,-0.34 -0.3,-0.56l-2.46 -5.45c-0.03,-0.06 -0.08,-0.1 -0.16,-0.1l-0.11 0c-0.06,0 -0.1,0.05 -0.1,0.13l0 6.35c0,0.18 -0.09,0.27 -0.26,0.27l-1.25 0c-0.18,0 -0.28,-0.09 -0.28,-0.27l0 -6.99c0,-0.46 0.08,-0.79 0.22,-0.98 0.15,-0.19 0.44,-0.28 0.87,-0.28l1.32 0z"/>
   <path class="fil12" d="M1127.61 822.16c0.19,0 0.28,0.09 0.28,0.26l0 1.2c0,0.18 -0.09,0.28 -0.28,0.28l-3.82 0 0 6.51c0,0.18 -0.09,0.27 -0.27,0.27l-1.33 0c-0.18,0 -0.27,-0.09 -0.27,-0.27l0 -6.51 -3.82 0c-0.18,0 -0.28,-0.1 -0.28,-0.28l0 -1.2c0,-0.17 0.1,-0.26 0.28,-0.26l9.51 0z"/>
   <path class="fil12" d="M1142.26 822.16c0.18,0 0.27,0.09 0.27,0.26l0 7.99c0,0.18 -0.09,0.27 -0.27,0.27l-1.31 0c-0.19,0 -0.28,-0.09 -0.28,-0.27l0 -7.99c0,-0.17 0.09,-0.26 0.28,-0.26l1.31 0z"/>
   <path class="fil12" d="M866.9 768.84c0,-0.6 0.28,-0.9 0.83,-0.9l20.94 0c1.87,0 3.45,0.17 4.72,0.51 1.28,0.35 2.31,0.9 3.1,1.66 0.79,0.77 1.35,1.79 1.69,3.07 0.34,1.27 0.51,2.85 0.51,4.72l0 7.02c0,1.88 -0.17,3.45 -0.51,4.73 -0.34,1.27 -0.9,2.3 -1.69,3.06 -0.79,0.77 -1.82,1.32 -3.1,1.66 -1.27,0.34 -2.85,0.51 -4.72,0.51l-20.94 0c-0.55,0 -0.83,-0.27 -0.83,-0.83l0 -25.21zm-7.85 34.91l29.88 0c3.44,0 6.4,-0.35 8.87,-1.05 2.47,-0.7 4.49,-1.79 6.06,-3.25 1.58,-1.47 2.74,-3.34 3.48,-5.62 0.75,-2.28 1.12,-4.97 1.12,-8.08l0 -8.68c0,-3.1 -0.37,-5.8 -1.12,-8.07 -0.74,-2.28 -1.9,-4.15 -3.48,-5.62 -1.57,-1.47 -3.59,-2.55 -6.06,-3.26 -2.47,-0.7 -5.43,-1.05 -8.87,-1.05l-29.88 0c-1.27,0 -1.91,0.64 -1.91,1.92l0 40.85c0,1.28 0.64,1.91 1.91,1.91z"/>
   <path class="fil12" d="M920.43 799.96c1.42,1.34 3.26,2.31 5.52,2.9 2.26,0.6 5,0.89 8.23,0.89l18.39 0c3.23,0 5.99,-0.29 8.26,-0.89 2.28,-0.59 4.13,-1.56 5.56,-2.9 1.42,-1.34 2.46,-3.09 3.09,-5.24 0.64,-2.15 0.96,-4.75 0.96,-7.82l0 -26.43c0,-0.93 -0.47,-1.4 -1.4,-1.4l-6.96 0c-0.94,0 -1.4,0.47 -1.4,1.4l0 25.47c0,1.71 -0.13,3.12 -0.39,4.25 -0.25,1.13 -0.7,2.02 -1.34,2.68 -0.64,0.66 -1.5,1.13 -2.58,1.4 -1.09,0.28 -2.46,0.42 -4.12,0.42l-17.68 0c-1.66,0 -3.04,-0.14 -4.12,-0.42 -1.09,-0.27 -1.95,-0.74 -2.59,-1.4 -0.63,-0.66 -1.09,-1.55 -1.37,-2.68 -0.28,-1.13 -0.41,-2.54 -0.41,-4.25l0 -25.47c0,-0.93 -0.47,-1.4 -1.41,-1.4l-6.89 0c-0.98,0 -1.47,0.47 -1.47,1.4l0 26.43c0,3.07 0.33,5.67 0.99,7.82 0.66,2.15 1.7,3.9 3.13,5.24z"/>
   <path class="fil12" d="M1031.86 748.26l-10.65 10.81 -0.98 0c-0.51,0 -0.91,0.08 -1.21,0.22 -0.3,0.15 -0.58,0.38 -0.83,0.67l-14.75 14.81 -13.91 -14.81c-0.26,-0.29 -0.53,-0.52 -0.83,-0.67 -0.3,-0.14 -0.7,-0.22 -1.21,-0.22l-8.75 0c-0.6,0 -0.92,0.2 -0.96,0.61 -0.04,0.4 0.07,0.75 0.32,1.05l18.96 19.53 -21 21.83c-0.3,0.3 -0.42,0.65 -0.35,1.06 0.06,0.4 0.37,0.6 0.92,0.6l0.57 0 -5.72 5.82 -114.34 -0.06 0 4.63 116.27 0.05 10.28 -10.44 1.24 0c0.55,0 0.97,-0.06 1.25,-0.19 0.27,-0.13 0.56,-0.36 0.86,-0.7l15.83 -16.53 15.77 16.53c0.25,0.34 0.53,0.57 0.83,0.7 0.29,0.13 0.7,0.19 1.21,0.19l8.74 0c0.6,0 0.93,-0.2 0.99,-0.6 0.07,-0.41 -0.05,-0.76 -0.35,-1.06l-20.49 -21.51 19.6 -19.85c0.3,-0.3 0.41,-0.65 0.35,-1.05 -0.06,-0.41 -0.39,-0.61 -0.99,-0.61l-0.83 0 6.1 -6.19 108.99 0 0 -4.62 -110.93 0z"/>
   <path class="fil16" d="M1127.09 777.08l-24.45 0 0 -8.43c0,-0.52 0.28,-0.77 0.83,-0.77l23.62 0c2.17,0 3.7,0.47 4.6,1.4 0.71,0.75 1.14,1.82 1.28,3.2 -0.14,1.38 -0.57,2.45 -1.28,3.2 -0.9,0.93 -2.43,1.4 -4.6,1.4zm12.51 -14.69c-2.13,-2.21 -5.64,-3.32 -10.53,-3.32l-34.28 0c-1.28,0 -1.91,0.64 -1.91,1.92l0 16.09 -36.35 0c-0.9,0 -1.64,0.73 -1.64,1.64l0 4.58c0,0.9 0.74,1.63 1.64,1.63l18.54 0c0.46,0.03 0.7,0.3 0.7,0.82l0 5.17c0,1.45 -0.26,2.46 -0.77,3.04 -0.51,0.57 -1.32,0.86 -2.42,0.86l-21.07 0c-1.66,0 -3.03,-0.14 -4.12,-0.42 -1.08,-0.27 -1.94,-0.74 -2.58,-1.4 -0.64,-0.66 -1.1,-1.55 -1.37,-2.68 -0.28,-1.13 -0.42,-2.55 -0.42,-4.25l0 -9.19c0,-1.7 0.14,-3.11 0.42,-4.21 0.27,-1.11 0.73,-1.99 1.37,-2.65 0.64,-0.66 1.5,-1.13 2.58,-1.41 1.09,-0.27 2.46,-0.41 4.12,-0.41l31.98 0c0.94,0 1.41,-0.49 1.41,-1.47l0 -6.26c0,-0.93 -0.47,-1.4 -1.41,-1.4l-32.36 0c-3.24,0 -5.98,0.31 -8.24,0.93 -2.25,0.61 -4.09,1.59 -5.52,2.93 -1.43,1.34 -2.47,3.08 -3.13,5.2 -0.66,2.13 -0.99,4.73 -0.99,7.79l0 10.98c0,3.07 0.33,5.67 0.99,7.82 0.66,2.15 1.7,3.9 3.13,5.24 1.43,1.34 3.27,2.31 5.52,2.9 2.26,0.6 5,0.89 8.24,0.89l25.79 0c2.55,0 4.51,-0.73 5.87,-2.2 1.36,-1.47 2.04,-3.99 2.04,-7.56l0 -9.06 8.05 0 0 17.42c0,0.94 0.48,1.4 1.46,1.4l6.9 0c0.93,0 1.4,-0.46 1.4,-1.4l0 -17.42 26.43 0c4.89,0 8.4,-1.1 10.53,-3.32 2.13,-2.21 3.19,-5.49 3.19,-9.83l0 -0.13c0,-4.34 -1.06,-7.05 -3.19,-9.26z"/>
  </g>
 </g>
</svg>
