<?xml version="1.0" encoding="UTF-8"?>
<!DOCTYPE svg PUBLIC "-//W3C//DTD SVG 1.1//EN" "http://www.w3.org/Graphics/SVG/1.1/DTD/svg11.dtd">
<!-- Creator: CorelDRAW 2021 (64 Bit) -->
<svg xmlns="http://www.w3.org/2000/svg" xml:space="preserve" width="2500px" height="1406px" version="1.1" style="shape-rendering:geometricPrecision; text-rendering:geometricPrecision; image-rendering:optimizeQuality; fill-rule:evenodd; clip-rule:evenodd"
viewBox="0 0 2500.17 1406.23"
 xmlns:xlink="http://www.w3.org/1999/xlink"
 xmlns:xodm="http://www.corel.com/coreldraw/odm/2003">
 <defs>
  <style type="text/css">
   <![CDATA[
    .str0 {stroke:#373435;stroke-width:1.43;stroke-miterlimit:22.9256}
    .fil2 {fill:none}
    .fil10 {fill:#48A980}
    .fil0 {fill:#00CC83}
    .fil9 {fill:#00CC83}
    .fil14 {fill:#6D41A1}
    .fil11 {fill:#CACACA}
    .fil5 {fill:#FEFEFE;fill-rule:nonzero}
    .fil7 {fill:#606062;fill-rule:nonzero}
    .fil12 {fill:#373435;fill-rule:nonzero}
    .fil16 {fill:#953735;fill-rule:nonzero}
    .fil6 {fill:#953735;fill-rule:nonzero}
    .fil13 {fill:#00CC83;fill-rule:nonzero}
    .fil15 {fill:#6D41A1;fill-rule:nonzero}
    .fil4 {fill:#7F7F7F;fill-rule:nonzero}
    .fil8 {fill:#7F7F7F;fill-rule:nonzero}
    .fil3 {fill:#B0B0B0;fill-rule:nonzero}
    .fil1 {fill:#FEFEFE}
   ]]>
  </style>
    <clipPath id="id0">
     <path d="M0 0l2499.93 0 0 1406.23 -2499.93 0 0 -1406.23z"/>
    </clipPath>
     <mask id="id1">
  <linearGradient id="id2" gradientUnits="userSpaceOnUse" x1="1376.1" y1="-405.26" x2="1376.1" y2="1286.02">
   <stop offset="0" style="stop-opacity:1; stop-color:white"/>
   <stop offset="1" style="stop-opacity:0; stop-color:white"/>
  </linearGradient>
      <rect style="fill:url(#id2)" width="2499.93" height="1406.23"/>
     </mask>
    <clipPath id="id3">
     <path d="M0 0l2499.93 0 0 1406.23 -2499.93 0 0 -1406.23z"/>
    </clipPath>
 </defs>
 <g id="Camada_x0020_1">
  <metadata id="CorelCorpID_0Corel-Layer"/>
  <g id="_2386525521296">
   <g style="clip-path:url(#id0)">
    <polygon class="fil0" style="mask:url(#id1)" points="0,0 2499.93,0 2499.93,1406.23 0,1406.23 "/>
   </g>
   <g style="clip-path:url(#id3)">
    <g>
     <polygon id="_1" class="fil1 str0" points="-258.27,-60.04 2578.21,-60.04 2578.21,1430.45 -258.27,1430.45 "/>
    </g>
   </g>
   <polygon class="fil2" points="0,0 2499.93,0 2499.93,1406.23 0,1406.23 "/>
   <polygon class="fil3" points="2359.52,1335.86 2500.17,1335.86 2500.17,1288.98 2359.52,1288.98 "/>
   <polygon class="fil4" points="2290.5,1335.86 2347.8,1335.86 2347.8,1288.98 2290.5,1288.98 "/>
   <path class="fil5" d="M2301.46 1312.42c0,-4.19 0.64,-7.31 1.92,-9.37 1.29,-2.05 3.39,-3.08 6.29,-3.08 2.92,0 5.02,1.02 6.31,3.08 1.29,2.04 1.94,5.17 1.94,9.37 0,4.21 -0.64,7.33 -1.93,9.38 -1.28,2.04 -3.39,3.07 -6.32,3.07 -2.9,0 -5,-1.03 -6.29,-3.07 -1.28,-2.05 -1.92,-5.17 -1.92,-9.38zm4.88 -2.36c-0.03,0.66 -0.05,1.44 -0.05,2.36 0,0.91 0.02,1.7 0.05,2.37 0.04,0.66 0.09,1.31 0.18,1.94 0.08,0.63 0.21,1.16 0.36,1.58 0.15,0.41 0.36,0.78 0.61,1.1 0.25,0.32 0.56,0.55 0.92,0.7 0.36,0.16 0.78,0.23 1.26,0.23 0.58,0 1.08,-0.12 1.49,-0.35 0.41,-0.24 0.74,-0.55 0.99,-0.96 0.25,-0.4 0.44,-0.95 0.59,-1.64 0.14,-0.69 0.23,-1.42 0.27,-2.18 0.05,-0.76 0.07,-1.69 0.07,-2.79 0,-0.92 -0.02,-1.7 -0.05,-2.36 -0.03,-0.66 -0.09,-1.3 -0.18,-1.94 -0.08,-0.63 -0.2,-1.15 -0.36,-1.57 -0.17,-0.42 -0.38,-0.79 -0.62,-1.11 -0.25,-0.33 -0.55,-0.57 -0.92,-0.71 -0.36,-0.16 -0.79,-0.23 -1.28,-0.23 -0.48,0 -0.9,0.07 -1.26,0.23 -0.36,0.14 -0.66,0.38 -0.91,0.71 -0.24,0.32 -0.45,0.69 -0.61,1.11 -0.16,0.42 -0.29,0.94 -0.37,1.57 -0.09,0.64 -0.14,1.28 -0.18,1.94z"/>
   <polygon id="_1_0" class="fil5" points="2320.47,1304.7 2320.47,1300.42 2336.31,1300.42 2336.31,1304.13 2328.46,1324.42 2323.25,1324.42 2331.2,1304.7 "/>
  </g>
  <path class="fil6" d="M1071.77 1089.4c-1.57,0 -3,0 -4.18,1 -1.43,1.25 -1.43,2.83 -1.43,4.55l0 18.29 2.65 0 0 -11.05 8.43 0 0 -2.5 -8.43 0 0 -4.74c0,-1.47 0,-2.26 0.61,-2.73 0.42,-0.32 1.03,-0.32 2.35,-0.32l7.26 0 0 -2.5 -7.26 0z"/>
  <path id="_1_1" class="fil6" d="M1086.5 1099.73l0 -4.78c0,-1.47 0,-2.26 0.61,-2.73 0.43,-0.32 1.03,-0.32 2.36,-0.32l7.61 0 0 -2.5 -7.61 0c-1.58,0 -3.01,0 -4.19,1 -1.43,1.25 -1.43,2.83 -1.43,4.55l0 12.75c0,1.71 0,3.29 1.43,4.54 1.18,1 2.61,1 4.19,1l7.61 0 0 -2.5 -7.61 0c-1.33,0 -1.93,0 -2.36,-0.33 -0.61,-0.46 -0.61,-1.25 -0.61,-2.71l0 -5.47 8.43 -0.04 0 -2.5 -8.43 0.04z"/>
  <path id="_2" class="fil6" d="M1107.51 1091.9c2.33,0 4.01,0 5.36,1.26 0.93,0.86 1.4,2.22 1.4,3.58 0,1.37 -0.47,2.73 -1.4,3.6 -1.35,1.25 -3,1.25 -5.68,1.25l-2.46 0 0 -6.64c0,-1.47 0,-2.26 0.6,-2.73 0.43,-0.32 1.04,-0.32 2.18,-0.32zm0 -2.5c-1.39,0 -2.82,0 -4,1 -1.43,1.25 -1.43,2.83 -1.43,4.55l0 18.29 2.65 0 0 -9.15 2.46 0c1.79,0 2.58,0 3.36,-0.11l3.86 9.26 2.86 0 -4.22 -9.97c2.22,-1.04 3.86,-3.41 3.86,-6.53 0,-2.26 -0.85,-4.12 -2.18,-5.38 -2.11,-1.96 -4.75,-1.96 -7.22,-1.96z"/>
  <path id="_3" class="fil6" d="M1128.96 1089.22c-2.22,0 -4.26,0.82 -5.54,2.29 -1.86,2.11 -1.86,4.68 -1.86,7.9l0 13.83 2.64 0 0 -13.83c0,-2.9 0,-4.9 1.22,-6.26 0.86,-0.96 2.14,-1.43 3.54,-1.43 1.39,0 2.68,0.47 3.54,1.43 1.21,1.36 1.21,3.36 1.21,6.26l0 13.83 2.64 0 0 -13.83c0,-3.22 0,-5.79 -1.85,-7.9 -1.29,-1.47 -3.33,-2.29 -5.54,-2.29z"/>
  <path id="_4" class="fil6" d="M1149.47 1089.22c-0.93,0 -1.89,0.32 -2.61,1 -0.61,0.57 -0.89,1.07 -1.64,3.93l-5.11 19.09 2.71 0 1.86 -6.97 9.58 0 1.86 6.97 2.72 0 -5.12 -19.09c-0.75,-2.86 -1.03,-3.36 -1.64,-3.93 -0.71,-0.68 -1.68,-1 -2.61,-1zm-4.11 14.55l2.43 -9.05c0.5,-1.93 0.68,-2.46 0.93,-2.71 0.18,-0.18 0.47,-0.29 0.75,-0.29 0.29,0 0.57,0.11 0.75,0.29 0.25,0.25 0.43,0.78 0.93,2.71l2.43 9.05 -8.22 0z"/>
  <path id="_5" class="fil6" d="M1169.99 1089.22c-2.22,0 -4.26,0.82 -5.54,2.29 -1.86,2.11 -1.86,4.68 -1.86,7.9l0 13.83 2.64 0 0 -13.83c0,-2.9 0,-4.9 1.22,-6.26 0.86,-0.96 2.14,-1.43 3.54,-1.43 1.39,0 2.68,0.47 3.53,1.43 1.22,1.36 1.22,3.36 1.22,6.26l0 13.83 2.64 0 0 -13.83c0,-3.22 0,-5.79 -1.85,-7.9 -1.29,-1.47 -3.33,-2.29 -5.54,-2.29z"/>
  <path id="_6" class="fil6" d="M1187.46 1089.4c-0.85,0 -2.28,0 -3.46,1 -1.43,1.25 -1.43,2.82 -1.43,4.54l0 12.75c0,1.72 0,3.3 1.43,4.55 1.18,1 2.61,1 3.46,1 2.33,0 5.94,0 8.4,-2.47 2.43,-2.43 2.43,-5.8 2.43,-9.45 0,-3.65 0,-7.02 -2.43,-9.46 -2.46,-2.46 -6.07,-2.46 -8.4,-2.46zm0 2.5c2,0 4.79,0 6.47,1.68 1.72,1.72 1.72,4.3 1.72,7.74 0,3.44 0,6.01 -1.72,7.74 -1.68,1.68 -4.47,1.68 -6.47,1.68 -0.6,0 -1.21,0 -1.64,-0.33 -0.61,-0.46 -0.61,-1.25 -0.61,-2.72l0 -12.75c0,-1.47 0,-2.25 0.61,-2.72 0.43,-0.32 1.04,-0.32 1.64,-0.32z"/>
  <path id="_7" class="fil6" d="M1205.23 1101.34c0,-3.65 0,-5.79 0.92,-7.33 0.86,-1.43 2.54,-2.29 4.54,-2.29 2,0 3.68,0.86 4.54,2.29 0.93,1.54 0.93,3.68 0.93,7.33 0,3.64 0,5.79 -0.93,7.32 -0.86,1.43 -2.54,2.29 -4.54,2.29 -2,0 -3.68,-0.86 -4.54,-2.29 -0.92,-1.53 -0.92,-3.68 -0.92,-7.32zm-2.65 0c0,4.21 0,6.46 1.29,8.57 1.32,2.18 3.82,3.54 6.82,3.54 3.01,0 5.51,-1.36 6.83,-3.54 1.29,-2.11 1.29,-4.36 1.29,-8.57 0,-4.22 0,-6.47 -1.29,-8.58 -1.32,-2.18 -3.82,-3.54 -6.83,-3.54 -3,0 -5.5,1.36 -6.82,3.54 -1.29,2.11 -1.29,4.36 -1.29,8.58z"/>
  <path id="_8" class="fil6" d="M1237.64 1089.4c-0.86,0 -2.29,0 -3.47,1 -1.43,1.25 -1.43,2.82 -1.43,4.54l0 12.75c0,1.72 0,3.3 1.43,4.55 1.18,1 2.61,1 3.47,1 2.32,0 5.93,0 8.4,-2.47 2.43,-2.43 2.43,-5.8 2.43,-9.45 0,-3.65 0,-7.02 -2.43,-9.46 -2.47,-2.46 -6.08,-2.46 -8.4,-2.46zm0 2.5c2,0 4.79,0 6.47,1.68 1.72,1.72 1.72,4.3 1.72,7.74 0,3.44 0,6.01 -1.72,7.74 -1.68,1.68 -4.47,1.68 -6.47,1.68 -0.61,0 -1.21,0 -1.64,-0.33 -0.61,-0.46 -0.61,-1.25 -0.61,-2.72l0 -12.75c0,-1.47 0,-2.25 0.61,-2.72 0.43,-0.32 1.03,-0.32 1.64,-0.32z"/>
  <path id="_9" class="fil6" d="M1260.34 1089.22c-0.93,0 -1.9,0.32 -2.61,1 -0.61,0.57 -0.9,1.07 -1.65,3.93l-5.11 19.09 2.72 0 1.86 -6.97 9.57 0 1.86 6.97 2.72 0 -5.11 -19.09c-0.75,-2.86 -1.04,-3.36 -1.65,-3.93 -0.71,-0.68 -1.68,-1 -2.6,-1zm-4.12 14.55l2.44 -9.05c0.5,-1.93 0.67,-2.46 0.92,-2.71 0.18,-0.18 0.47,-0.29 0.76,-0.29 0.28,0 0.57,0.11 0.75,0.29 0.25,0.25 0.42,0.78 0.92,2.71l2.44 9.05 -8.23 0z"/>
  <path id="_10" class="fil6" d="M1273.63 1089.4l0 18.3c0,1.71 0,3.29 1.43,4.54 1.18,1 2.61,1 4.18,1l6.9 0 0 -2.5 -6.9 0c-1.32,0 -1.93,0 -2.36,-0.33 -0.61,-0.46 -0.61,-1.25 -0.61,-2.71l0 -18.3 -2.64 0z"/>
  <path id="_11" class="fil6" d="M1293.43 1099.73l0 -4.78c0,-1.47 0,-2.26 0.61,-2.73 0.43,-0.32 1.03,-0.32 2.36,-0.32l7.61 0 0 -2.5 -7.61 0c-1.58,0 -3.01,0 -4.19,1 -1.43,1.25 -1.43,2.83 -1.43,4.55l0 12.75c0,1.71 0,3.29 1.43,4.54 1.18,1 2.61,1 4.19,1l7.61 0 0 -2.5 -7.61 0c-1.33,0 -1.93,0 -2.36,-0.33 -0.61,-0.46 -0.61,-1.25 -0.61,-2.71l0 -5.47 8.43 -0.04 0 -2.5 -8.43 0.04z"/>
  <path id="_12" class="fil6" d="M1319.23 1089.4l-2.71 0 4.68 19.76c0.54,2.22 0.68,2.61 1.39,3.29 0.72,0.68 1.68,1 2.61,1 0.93,0 1.9,-0.32 2.61,-1 0.72,-0.68 0.86,-1.07 1.39,-3.29l4.69 -19.76 -2.72 0 -4.54 19.19c-0.32,1.32 -0.43,1.86 -0.68,2.07 -0.25,0.22 -0.46,0.29 -0.75,0.29 -0.28,0 -0.5,-0.07 -0.75,-0.29 -0.25,-0.21 -0.36,-0.75 -0.68,-2.07l-4.54 -19.19z"/>
  <path id="_13" class="fil6" d="M1340.46 1099.73l0 -4.78c0,-1.47 0,-2.26 0.61,-2.73 0.43,-0.32 1.04,-0.32 2.36,-0.32l7.61 0 0 -2.5 -7.61 0c-1.57,0 -3,0 -4.18,1 -1.43,1.25 -1.43,2.83 -1.43,4.55l0 12.75c0,1.71 0,3.29 1.43,4.54 1.18,1 2.61,1 4.18,1l7.61 0 0 -2.5 -7.61 0c-1.32,0 -1.93,0 -2.36,-0.33 -0.61,-0.46 -0.61,-1.25 -0.61,-2.71l0 -5.47 8.44 -0.04 0 -2.5 -8.44 0.04z"/>
  <path id="_14" class="fil6" d="M1360.94 1089.4c-0.86,0 -2.29,0 -3.47,1 -1.42,1.25 -1.42,2.82 -1.42,4.54l0 12.75c0,1.72 0,3.3 1.42,4.55 1.18,1 2.61,1 3.47,1 2.32,0 5.93,0 8.4,-2.47 2.43,-2.43 2.43,-5.8 2.43,-9.45 0,-3.65 0,-7.02 -2.43,-9.46 -2.47,-2.46 -6.08,-2.46 -8.4,-2.46zm0 2.5c2,0 4.79,0 6.47,1.68 1.72,1.72 1.72,4.3 1.72,7.74 0,3.44 0,6.01 -1.72,7.74 -1.68,1.68 -4.47,1.68 -6.47,1.68 -0.61,0 -1.21,0 -1.64,-0.33 -0.61,-0.46 -0.61,-1.25 -0.61,-2.72l0 -12.75c0,-1.47 0,-2.25 0.61,-2.72 0.43,-0.32 1.03,-0.32 1.64,-0.32z"/>
  <path id="_15" class="fil6" d="M1378.7 1101.34c0,-3.65 0,-5.79 0.93,-7.33 0.86,-1.43 2.54,-2.29 4.54,-2.29 2,0 3.68,0.86 4.54,2.29 0.93,1.54 0.93,3.68 0.93,7.33 0,3.64 0,5.79 -0.93,7.32 -0.86,1.43 -2.54,2.29 -4.54,2.29 -2,0 -3.68,-0.86 -4.54,-2.29 -0.93,-1.53 -0.93,-3.68 -0.93,-7.32zm-2.64 0c0,4.21 0,6.46 1.29,8.57 1.32,2.18 3.82,3.54 6.82,3.54 3,0 5.51,-1.36 6.83,-3.54 1.28,-2.11 1.28,-4.36 1.28,-8.57 0,-4.22 0,-6.47 -1.28,-8.58 -1.32,-2.18 -3.83,-3.54 -6.83,-3.54 -3,0 -5.5,1.36 -6.82,3.54 -1.29,2.11 -1.29,4.36 -1.29,8.58z"/>
  <path id="_16" class="fil6" d="M1397.5 1089.4l-2.71 0 4.68 19.76c0.53,2.22 0.68,2.61 1.39,3.29 0.72,0.68 1.68,1 2.61,1 0.93,0 1.9,-0.32 2.61,-1 0.71,-0.68 0.86,-1.07 1.39,-3.29l4.69 -19.76 -2.72 0 -4.54 19.19c-0.32,1.32 -0.43,1.86 -0.68,2.07 -0.25,0.22 -0.46,0.29 -0.75,0.29 -0.28,0 -0.5,-0.07 -0.75,-0.29 -0.25,-0.21 -0.36,-0.75 -0.68,-2.07l-4.54 -19.19z"/>
  <path id="_17" class="fil6" d="M1418.73 1099.73l0 -4.78c0,-1.47 0,-2.26 0.61,-2.73 0.43,-0.32 1.04,-0.32 2.36,-0.32l7.61 0 0 -2.5 -7.61 0c-1.57,0 -3,0 -4.18,1 -1.43,1.25 -1.43,2.83 -1.43,4.55l0 12.75c0,1.71 0,3.29 1.43,4.54 1.18,1 2.61,1 4.18,1l7.61 0 0 -2.5 -7.61 0c-1.32,0 -1.93,0 -2.36,-0.33 -0.61,-0.46 -0.61,-1.25 -0.61,-2.71l0 -5.47 8.44 -0.04 0 -2.5 -8.44 0.04z"/>
  <path id="_18" class="fil7" d="M1097.7 1134.54l-2.57 0 3.18 13.11c0.39,1.65 0.57,2.58 1.57,3.4 0.58,0.46 1.36,0.79 2.26,0.79 0.89,0 1.67,-0.33 2.25,-0.79 1,-0.82 1.18,-1.75 1.57,-3.4l3.18 -13.11 -2.57 0 -3.11 12.86c-0.22,0.93 -0.36,1.47 -0.57,1.72 -0.18,0.21 -0.47,0.36 -0.75,0.36 -0.29,0 -0.58,-0.15 -0.75,-0.36 -0.22,-0.25 -0.36,-0.79 -0.58,-1.72l-3.11 -12.86z"/>
  <path id="_19" class="fil7" d="M1114.29 1147.98c-0.83,-1.11 -0.83,-3.22 -0.83,-4.15l3.29 0c2.54,0 4.08,0 5.58,-1.07 1,-0.72 1.79,-1.93 1.79,-3.5 -0.04,-1.4 -0.72,-2.72 -1.79,-3.61 -1.07,-0.86 -2.5,-1.33 -4.29,-1.33 -2.54,0 -4.68,0.93 -5.83,2.54 -1.28,1.79 -1.28,3.43 -1.28,6.22 0,2.32 0,4.47 1.36,6.33 1.14,1.53 3.11,2.43 5.57,2.43 1.86,0 3.72,-0.4 5.4,-1.26l-1.04 -2.14c-1.29,0.68 -2.82,1.04 -4.36,1.04 -1.71,0 -2.86,-0.54 -3.57,-1.5zm7.32 -8.72c0,0.82 -0.39,1.42 -0.85,1.78 -0.75,0.57 -1.76,0.57 -4.01,0.57l-3.29 0c0,-0.71 0,-2.5 0.9,-3.53 0.79,-0.93 2.07,-1.4 3.68,-1.4 1.11,0 2.04,0.25 2.64,0.75 0.54,0.43 0.9,1.15 0.93,1.83z"/>
  <path id="_20" class="fil7" d="M1133.59 1134.32c-2.11,0 -3.79,0.86 -4.83,2.11 -1.61,1.93 -1.61,4.29 -1.61,6.72 0,2.18 0,4.68 2.01,6.72 1.1,1.11 2.82,1.97 4.96,1.97 2.25,0 4.04,-0.97 5.04,-2.36 1.22,-1.68 1.22,-3.47 1.22,-6.15l0 -15.55 -2.5 0 0 8.72c-0.97,-1.35 -2.54,-2.18 -4.29,-2.18zm4.29 9.47c0,1.9 0,3.44 -0.86,4.47 -0.72,0.86 -1.79,1.22 -2.9,1.22 -1.21,0 -2.43,-0.43 -3.21,-1.29 -1.25,-1.36 -1.25,-3.22 -1.25,-5.04 0,-2 0,-3.97 1.07,-5.22 0.64,-0.75 1.68,-1.25 3.04,-1.25 1.35,0 2.39,0.5 3.03,1.25 1.08,1.25 1.08,3.22 1.08,5.86z"/>
  <path id="_21" class="fil7" d="M1150.74 1136.68c1.57,0 2.79,0.65 3.5,1.72 0.79,1.18 0.79,2.86 0.79,4.68 0,1.82 0,3.5 -0.79,4.68 -0.71,1.07 -1.93,1.72 -3.5,1.72 -1.57,0 -2.79,-0.65 -3.5,-1.72 -0.79,-1.18 -0.79,-2.86 -0.79,-4.68 0,-1.82 0,-3.5 0.79,-4.68 0.71,-1.07 1.93,-1.72 3.5,-1.72zm0 -2.36c-2.54,0 -4.61,1.15 -5.75,3.04 -1.04,1.72 -1.04,3.68 -1.04,5.72 0,2.04 0,4 1.04,5.72 1.14,1.89 3.21,3.04 5.75,3.04 2.54,0 4.61,-1.15 5.76,-3.04 1.03,-1.72 1.03,-3.68 1.03,-5.72 0,-2.04 0,-4 -1.03,-5.72 -1.15,-1.89 -3.22,-3.04 -5.76,-3.04z"/>
  <path id="_22" class="fil7" d="M1161.89 1134.54l-2.57 0 3.18 13.11c0.39,1.65 0.57,2.58 1.57,3.4 0.57,0.46 1.36,0.79 2.25,0.79 0.9,0 1.68,-0.33 2.26,-0.79 1,-0.82 1.17,-1.75 1.57,-3.4l3.18 -13.11 -2.58 0 -3.1 12.86c-0.22,0.93 -0.36,1.47 -0.58,1.72 -0.18,0.21 -0.46,0.36 -0.75,0.36 -0.28,0 -0.57,-0.15 -0.75,-0.36 -0.21,-0.25 -0.35,-0.79 -0.57,-1.72l-3.11 -12.86z"/>
  <path id="_23" class="fil7" d="M1178.48 1147.98c-0.83,-1.11 -0.83,-3.22 -0.83,-4.15l3.29 0c2.54,0 4.07,0 5.58,-1.07 1,-0.72 1.78,-1.93 1.78,-3.5 -0.03,-1.4 -0.71,-2.72 -1.78,-3.61 -1.08,-0.86 -2.51,-1.33 -4.29,-1.33 -2.54,0 -4.68,0.93 -5.83,2.54 -1.28,1.79 -1.28,3.43 -1.28,6.22 0,2.32 0,4.47 1.35,6.33 1.15,1.53 3.11,2.43 5.58,2.43 1.86,0 3.72,-0.4 5.4,-1.26l-1.04 -2.14c-1.29,0.68 -2.82,1.04 -4.36,1.04 -1.72,0 -2.86,-0.54 -3.57,-1.5zm7.32 -8.72c0,0.82 -0.39,1.42 -0.86,1.78 -0.75,0.57 -1.75,0.57 -4,0.57l-3.29 0c0,-0.71 0,-2.5 0.9,-3.53 0.78,-0.93 2.07,-1.4 3.68,-1.4 1.11,0 2.03,0.25 2.64,0.75 0.54,0.43 0.9,1.15 0.93,1.83z"/>
  <path id="_24" class="fil7" d="M1210.96 1142.11c0,-2 0,-4.61 -2.21,-6.29 -1.86,-1.39 -3.79,-1.39 -6.54,-1.39 -2.94,0 -5.65,0 -7.83,2.36 -1.97,2.14 -1.97,4.72 -1.97,7.68l0 3.65c0,2.96 0,5.54 1.97,7.68 2.18,2.36 5.22,2.36 8.15,2.36l4.79 0c2.93,0 5.96,0 8.15,-2.36 1.96,-2.14 1.96,-4.72 1.96,-7.68l0 -4.9c0,-4.14 0,-8.57 -3.39,-12 -3.44,-3.44 -7.76,-3.44 -12.08,-3.44l-2.33 0 0 2.22 2.33 0c3.93,0 7.64,0 10.36,2.74 2.75,2.76 2.75,6.41 2.75,10.48l0 4.9c0,2.68 0,4.61 -1.28,6.11 -1.47,1.72 -3.69,1.72 -6.47,1.72l-4.79 0c-2.79,0 -5.01,0 -6.47,-1.72 -1.29,-1.5 -1.29,-3.43 -1.29,-6.11l0 -3.65c0,-2.68 0,-4.61 1.29,-6.11 1.46,-1.71 3.36,-1.71 6.15,-1.71 2.46,0 3.82,0 4.86,0.82 1.39,1.11 1.39,2.79 1.39,3.75l-2.93 0c-1.39,0 -3.4,0 -5.08,1.22 -1.14,0.82 -2.1,2.21 -2.1,4.11 0,1.85 0.96,3.28 2.14,4.11 1.14,0.82 2.61,1.18 4.32,1.18 2.15,0 3.83,-0.61 4.9,-1.86 1.25,-1.47 1.25,-3.11 1.25,-5.51l0 -2.36zm-2.5 2.36c0,2.11 0,3.22 -0.68,4.01 -0.61,0.71 -1.64,1 -2.97,1 -1.14,0 -2.14,-0.22 -2.82,-0.68 -0.64,-0.47 -1.14,-1.25 -1.14,-2.25 0,-1.11 0.53,-1.93 1.18,-2.4 1,-0.71 2.28,-0.71 3.5,-0.71l2.93 0 0 1.03z"/>
  <path id="_25" class="fil7" d="M1228.15 1134.32c-2.11,0 -3.79,0.86 -4.82,2.11 -1.61,1.93 -1.61,4.29 -1.61,6.72 0,2.18 0,4.68 2,6.72 1.11,1.11 2.82,1.97 4.97,1.97 2.25,0 4.04,-0.97 5.04,-2.36 1.21,-1.68 1.21,-3.47 1.21,-6.15l0 -15.55 -2.5 0 0 8.72c-0.96,-1.35 -2.54,-2.18 -4.29,-2.18zm4.29 9.47c0,1.9 0,3.44 -0.86,4.47 -0.71,0.86 -1.78,1.22 -2.89,1.22 -1.22,0 -2.43,-0.43 -3.22,-1.29 -1.25,-1.36 -1.25,-3.22 -1.25,-5.04 0,-2 0,-3.97 1.07,-5.22 0.65,-0.75 1.68,-1.25 3.04,-1.25 1.36,0 2.4,0.5 3.04,1.25 1.07,1.25 1.07,3.22 1.07,5.86z"/>
  <path id="_26" class="fil7" d="M1238.87 1134.54l0 9.15c0,2.5 0,4.57 1.68,6.32 0.86,0.9 2.4,1.83 4.58,1.83 2.18,0 3.72,-0.93 4.57,-1.83 1.68,-1.75 1.68,-3.82 1.68,-6.32l0 -9.15 -2.5 0 0 9.15c0,2.21 0,3.71 -1.04,4.75 -0.6,0.61 -1.53,1.04 -2.71,1.04 -1.18,0 -2.11,-0.43 -2.72,-1.04 -1.03,-1.04 -1.03,-2.54 -1.03,-4.75l0 -9.15 -2.51 0z"/>
  <polygon id="_27" class="fil7" points="1254.88,1134.54 1260.03,1143.01 1254.78,1151.62 1257.53,1151.62 1261.43,1144.94 1265.25,1151.62 1268.07,1151.62 1262.82,1143.01 1267.97,1134.54 1265.21,1134.54 1261.43,1141.04 1257.71,1134.54 "/>
  <path id="_28" class="fil7" d="M1276.72 1136.68c1.29,0 2.5,0.47 3.18,1.29 0.86,1 0.86,2.5 0.86,4.39 0,2.65 0,4.61 -1.07,5.87 -0.65,0.75 -1.68,1.25 -3.04,1.25 -1.36,0 -2.39,-0.5 -3.04,-1.25 -1.07,-1.26 -1.07,-3.22 -1.07,-5.22 0,-2.04 0,-3.86 1.14,-5.15 0.65,-0.71 1.72,-1.18 3.04,-1.18zm0 -2.36c-2.14,0 -3.86,0.83 -4.97,2.04 -1.71,1.93 -1.71,4.43 -1.71,6.65 0,2.43 0,4.79 1.61,6.72 1.03,1.25 2.71,2.11 4.82,2.11 1.75,0 3.32,-0.83 4.29,-2.18l0 0.35c0,2.18 0,3.47 -0.86,4.54 -0.68,0.86 -1.86,1.47 -3.61,1.47 -1.5,0 -3,-0.43 -4.18,-1.08l-1.04 2.15c1.58,0.86 3.47,1.29 5.22,1.29 2.36,0 4.18,-0.83 5.33,-2.08 1.64,-1.78 1.64,-3.75 1.64,-6.29l0 -7.29c0,-2.89 0,-4.57 -1.43,-6.25 -1.39,-1.65 -3.46,-2.15 -5.11,-2.15z"/>
  <path id="_29" class="fil7" d="M1293.73 1136.68c1.33,0 2.4,0.47 3.04,1.18 1.14,1.29 1.14,3.11 1.14,5.15 0,2 0,3.96 -1.07,5.22 -0.64,0.75 -1.68,1.25 -3.04,1.25 -1.35,0 -2.39,-0.5 -3.03,-1.25 -1.08,-1.26 -1.08,-3.22 -1.08,-5.87 0,-1.89 0,-3.39 0.86,-4.39 0.68,-0.82 1.9,-1.29 3.18,-1.29zm0 -2.36c-1.64,0 -3.71,0.5 -5.11,2.15 -1.43,1.68 -1.43,3.36 -1.43,6.25l0 15.44 2.5 0 0 -8.5c0.97,1.35 2.54,2.18 4.29,2.18 2.11,0 3.79,-0.86 4.83,-2.11 1.61,-1.93 1.61,-4.29 1.61,-6.72 0,-2.22 0,-4.72 -1.72,-6.65 -1.11,-1.21 -2.82,-2.04 -4.97,-2.04z"/>
  <path id="_30" class="fil7" d="M1305.28 1148.19c-1.08,0 -1.83,0.75 -1.83,1.82 0,1.07 0.75,1.83 1.83,1.83 1.07,0 1.82,-0.76 1.82,-1.83 0,-1.07 -0.75,-1.82 -1.82,-1.82z"/>
  <path id="_31" class="fil7" d="M1320.43 1148.3c-1.14,0.78 -2.5,1.18 -3.86,1.18 -1.39,0 -2.47,-0.47 -3.14,-1.25 -1.15,-1.33 -1.15,-3.47 -1.15,-5.29 0,-1.58 0,-3.68 1.11,-4.97 0.86,-1 2.07,-1.29 3.18,-1.29 1.29,0 2.61,0.39 3.68,1.07l1.22 -2.03c-1.47,-0.93 -3.18,-1.4 -4.9,-1.4 -2.29,0 -4,0.86 -5.11,2.15 -1.68,1.93 -1.68,4.61 -1.68,6.47 0,2.11 0,4.86 1.72,6.79 1.1,1.25 2.78,2.11 5.07,2.11 1.82,0 3.65,-0.54 5.15,-1.54l-1.29 -2z"/>
  <path id="_32" class="fil7" d="M1331.01 1136.68c1.57,0 2.79,0.65 3.5,1.72 0.79,1.18 0.79,2.86 0.79,4.68 0,1.82 0,3.5 -0.79,4.68 -0.71,1.07 -1.93,1.72 -3.5,1.72 -1.57,0 -2.79,-0.65 -3.5,-1.72 -0.79,-1.18 -0.79,-2.86 -0.79,-4.68 0,-1.82 0,-3.5 0.79,-4.68 0.71,-1.07 1.93,-1.72 3.5,-1.72zm0 -2.36c-2.54,0 -4.61,1.15 -5.76,3.04 -1.03,1.72 -1.03,3.68 -1.03,5.72 0,2.04 0,4 1.03,5.72 1.15,1.89 3.22,3.04 5.76,3.04 2.54,0 4.61,-1.15 5.75,-3.04 1.04,-1.72 1.04,-3.68 1.04,-5.72 0,-2.04 0,-4 -1.04,-5.72 -1.14,-1.89 -3.21,-3.04 -5.75,-3.04z"/>
  <path id="_33" class="fil7" d="M1347.27 1134.32c-1.68,0 -3.14,0.61 -4.11,1.54 -1.79,1.72 -1.79,3.93 -1.79,6.61l0 9.15 2.5 0 0 -9.15c0,-2.36 0,-3.97 1.08,-4.97 0.53,-0.5 1.36,-0.82 2.32,-0.82 0.96,0 1.79,0.32 2.32,0.82 1.08,1 1.08,2.61 1.08,4.97l0 9.15 2.5 0 0 -9.15c0,-2.36 0,-3.97 1.07,-4.97 0.54,-0.5 1.36,-0.82 2.32,-0.82 0.97,0 1.79,0.32 2.33,0.82 1.07,1 1.07,2.61 1.07,4.97l0 9.15 2.5 0 0 -9.15c0,-2.68 0,-4.89 -1.79,-6.61 -0.96,-0.93 -2.43,-1.54 -4.11,-1.54 -2.03,0 -3.68,0.9 -4.64,2.5 -0.97,-1.6 -2.61,-2.5 -4.65,-2.5z"/>
  <path id="_34" class="fil7" d="M1368.04 1148.19c-1.08,0 -1.83,0.75 -1.83,1.82 0,1.07 0.75,1.83 1.83,1.83 1.07,0 1.82,-0.76 1.82,-1.83 0,-1.07 -0.75,-1.82 -1.82,-1.82z"/>
  <path id="_35" class="fil7" d="M1380.22 1136.68c1.36,0 2.4,0.5 3.04,1.25 1.07,1.25 1.07,3.22 1.07,5.22 0,1.82 0,3.68 -1.25,5.04 -0.79,0.86 -2,1.29 -3.22,1.29 -1.1,0 -2.18,-0.36 -2.89,-1.22 -0.86,-1.03 -0.86,-2.57 -0.86,-4.47 0,-2.64 0,-4.61 1.07,-5.86 0.65,-0.75 1.68,-1.25 3.04,-1.25zm0.18 -2.36c-1.75,0 -3.32,0.83 -4.29,2.18l0 -8.72 -2.5 0 0 15.55c0,2.68 0,4.47 1.22,6.15 1,1.39 2.78,2.36 5.03,2.36 2.15,0 3.86,-0.86 4.97,-1.97 2,-2.04 2,-4.54 2,-6.72 0,-2.43 0,-4.79 -1.6,-6.72 -1.04,-1.25 -2.72,-2.11 -4.83,-2.11z"/>
  <path id="_36" class="fil7" d="M1396.95 1134.32c-1.65,0 -3.72,0.5 -5.11,2.15 -1.43,1.68 -1.43,3.36 -1.43,6.25l0 8.9 2.5 0 0 -8.9c0,-2.25 0,-3.75 0.86,-4.75 0.68,-0.82 1.89,-1.29 3.18,-1.29 0.61,0 1.18,0.11 1.68,0.29l0.75 -2.25c-0.72,-0.25 -1.54,-0.4 -2.43,-0.4z"/>
  <path id="_37" class="fil8" d="M1130.67 1179.35c0,-6.79 0,-9.9 1.43,-12.61 0.75,-1.47 1.97,-2.65 3.5,-3.33l-0.85 -1.82c-2.01,0.86 -3.61,2.43 -4.58,4.29 -1.64,3.11 -1.64,6.51 -1.64,13.47 0,6.97 0,10.4 1.64,13.51 0.97,1.86 2.57,3.43 4.58,4.29l0.85 -1.82c-1.53,-0.68 -2.75,-1.86 -3.5,-3.32 -1.43,-2.72 -1.43,-5.87 -1.43,-12.66z"/>
  <path id="_38" class="fil8" d="M1148.97 1166.17l-2.97 0 -5.71 10.64c-0.69,1.27 -1.36,2.47 -1.36,3.76 0,1.54 0.86,2.57 1.93,3.11 0.86,0.43 1.68,0.43 3.39,0.43l5.11 0 0 5.89 2.51 0 0 -5.89 2.03 0 0 -2.5 -2.03 0 0 -6.02 -2.51 0 0 6.02 -5.46 0c-1.36,0 -1.86,0 -2.15,-0.43 -0.14,-0.22 -0.18,-0.4 -0.18,-0.61 0,-0.64 0.28,-1.12 1.22,-2.87l6.18 -11.53z"/>
  <path id="_39" class="fil8" d="M1157.66 1166.17l0 2.5 6.86 0c1.71,0 1.93,0.03 2.14,0.18 0.14,0.1 0.25,0.25 0.25,0.5 0,0.53 -0.39,1 -1.36,2.15l-3.93 4.72 0 2.04c2.29,0 3.61,0 4.72,1 1.11,1.01 1.39,2.58 1.39,3.7 0,1.53 -0.53,2.83 -1.39,3.61 -0.86,0.79 -2.18,1.15 -3.54,1.15 -1.75,0 -3.39,-0.57 -4.39,-1.47l-1.65 1.97c1.54,1.28 3.68,2 6.04,2 2.25,0 4.11,-0.68 5.4,-1.86 1.32,-1.21 2.18,-3.07 2.18,-5.4 0,-2.33 -0.82,-4.23 -2.18,-5.48 -0.86,-0.79 -1.9,-1.29 -3,-1.51l2.36 -2.83c1.18,-1.43 2,-2.36 2,-3.79 0,-0.86 -0.29,-1.47 -0.72,-1.97 -1.03,-1.21 -2.36,-1.21 -3.96,-1.21l-7.22 0z"/>
  <path id="_40" class="fil8" d="M1178.06 1179.35c0,6.79 0,9.94 -1.43,12.66 -0.75,1.46 -1.96,2.64 -3.5,3.32l0.86 1.82c2,-0.86 3.61,-2.43 4.57,-4.29 1.65,-3.11 1.65,-6.54 1.65,-13.51 0,-6.96 0,-10.36 -1.65,-13.47 -0.96,-1.86 -2.57,-3.43 -4.57,-4.29l-0.86 1.82c1.54,0.68 2.75,1.86 3.5,3.33 1.43,2.71 1.43,5.82 1.43,12.61z"/>
  <path id="_41" class="fil8" d="M1200.94 1168.49c1.53,0 2.68,0.61 3.36,1.43 0.67,0.79 1.14,2 1.14,3.61 0,1.61 -0.47,2.82 -1.14,3.61 -0.68,0.82 -1.83,1.43 -3.36,1.43 -1.54,0 -2.68,-0.61 -3.36,-1.43 -0.68,-0.79 -1.15,-2 -1.15,-3.61 0,-1.61 0.47,-2.82 1.15,-3.61 0.68,-0.82 1.82,-1.43 3.36,-1.43zm0 -2.5c-2.33,0 -4.22,0.96 -5.44,2.36 -1.14,1.32 -1.71,3.14 -1.71,5.18 0,2.04 0.57,3.86 1.71,5.18 1.22,1.39 3.11,2.36 5.44,2.36 0.67,0 1.28,-0.07 1.89,-0.36l-4.82 9.29 2.93 0 4.43 -8.54c2.18,-4.18 2.71,-5.68 2.71,-7.93 0,-2.04 -0.57,-3.86 -1.71,-5.18 -1.22,-1.4 -3.11,-2.36 -5.43,-2.36z"/>
  <path id="_42" class="fil8" d="M1227.74 1168.49c1.54,0 2.68,0.61 3.36,1.43 0.68,0.79 1.14,2 1.14,3.61 0,1.61 -0.46,2.82 -1.14,3.61 -0.68,0.82 -1.82,1.43 -3.36,1.43 -1.54,0 -2.68,-0.61 -3.36,-1.43 -0.68,-0.79 -1.14,-2 -1.14,-3.61 0,-1.61 0.46,-2.82 1.14,-3.61 0.68,-0.82 1.82,-1.43 3.36,-1.43zm0 -2.5c-2.32,0 -4.22,0.96 -5.43,2.36 -1.14,1.32 -1.72,3.14 -1.72,5.18 0,2.04 0.58,3.86 1.72,5.18 1.21,1.39 3.11,2.36 5.43,2.36 0.68,0 1.29,-0.07 1.9,-0.36l-4.83 9.29 2.93 0 4.43 -8.54c2.18,-4.18 2.72,-5.68 2.72,-7.93 0,-2.04 -0.57,-3.86 -1.72,-5.18 -1.21,-1.4 -3.11,-2.36 -5.43,-2.36z"/>
  <path id="_43" class="fil8" d="M1245.29 1171.71c0,-1.72 0,-3.29 -1.43,-4.54 -1.18,-1 -2.61,-1 -4.18,-1l-0.5 0 0 2.5 0.5 0c1.32,0 1.93,0 2.36,0.32 0.6,0.46 0.6,1.25 0.6,2.72l0 18.29 2.65 0 0 -18.29z"/>
  <path id="_44" class="fil8" d="M1257.3 1165.99c-1.75,0 -3.93,0.46 -5.69,1.82l1.58 2c1.11,-0.89 2.64,-1.32 4.11,-1.32 1.28,0 2.32,0.29 3.11,0.93 0.93,0.75 1.39,1.96 1.39,3.07 0,1.75 -0.82,2.68 -2.61,4.51l-5.43 5.46c-1.57,1.58 -2.61,2.65 -2.61,4.26 0,1.36 0.79,2.36 1.79,2.86 0.85,0.42 1.64,0.42 3.03,0.42l9.15 0 0 -2.5 -8.79 0c-1.53,0 -1.89,0 -2.14,-0.14 -0.22,-0.11 -0.4,-0.32 -0.4,-0.64 0,-0.72 0.54,-1.18 1.9,-2.54l5.43 -5.47c2,-2 3.33,-3.54 3.33,-6.22 0,-2.07 -1.01,-3.96 -2.4,-5.04 -1.21,-0.93 -2.72,-1.46 -4.75,-1.46z"/>
  <path id="_45" class="fil8" d="M1270.02 1172.73c0,1.61 0,3.19 1.47,4.41 0.85,0.71 2.14,1.07 3.39,1.07 1.79,0 3.11,0.14 4.15,1.07 0.85,0.79 1.39,2.11 1.39,3.65 0,1.57 -0.5,2.82 -1.39,3.64 -0.83,0.75 -2.01,1.15 -3.54,1.15 -1.79,0 -3.36,-0.5 -4.43,-1.43l-1.65 1.96c1.54,1.29 3.75,1.97 6.08,1.97 2.29,0 4.11,-0.68 5.39,-1.86 1.33,-1.21 2.18,-3.07 2.18,-5.43 0,-2.32 -0.85,-4.22 -2.18,-5.43 -1.42,-1.33 -3.28,-1.79 -5.86,-1.79 -0.75,0 -1.46,-0.14 -1.86,-0.5 -0.42,-0.39 -0.5,-0.9 -0.5,-2.48l0 -1.01c0,-1.47 0,-2.27 0.61,-2.73 0.43,-0.32 1.04,-0.32 2.36,-0.32l5.97 0 0 -2.5 -5.97 0c-1.57,0 -3,0 -4.18,1 -1.43,1.25 -1.43,2.83 -1.43,4.55l0 1.01z"/>
  <polygon id="_46" class="fil8" points="1287.71,1180.03 1287.71,1182.11 1295.22,1182.11 1295.22,1180.03 "/>
  <path id="_47" class="fil8" d="M1300.83 1172.73c0,1.61 0,3.19 1.46,4.41 0.86,0.71 2.15,1.07 3.4,1.07 1.79,0 3.11,0.14 4.14,1.07 0.86,0.79 1.4,2.11 1.4,3.65 0,1.57 -0.5,2.82 -1.4,3.64 -0.82,0.75 -2,1.15 -3.53,1.15 -1.79,0 -3.36,-0.5 -4.44,-1.43l-1.64 1.96c1.54,1.29 3.75,1.97 6.08,1.97 2.28,0 4.11,-0.68 5.39,-1.86 1.33,-1.21 2.18,-3.07 2.18,-5.43 0,-2.32 -0.85,-4.22 -2.18,-5.43 -1.43,-1.33 -3.29,-1.79 -5.86,-1.79 -0.75,0 -1.46,-0.14 -1.86,-0.5 -0.43,-0.39 -0.5,-0.9 -0.5,-2.48l0 -1.01c0,-1.47 0,-2.27 0.61,-2.73 0.43,-0.32 1.04,-0.32 2.36,-0.32l5.97 0 0 -2.5 -5.97 0c-1.57,0 -3,0 -4.18,1 -1.43,1.25 -1.43,2.83 -1.43,4.55l0 1.01z"/>
  <path id="_48" class="fil8" d="M1325.2 1168.49c1.07,0 2.58,0.32 3.5,1.47 1.08,1.32 1.08,2.96 1.08,5.57l0 5.15c0,2.61 0,4.25 -1.08,5.57 -0.92,1.15 -2.43,1.47 -3.5,1.47 -1.07,0 -2.57,-0.32 -3.5,-1.47 -1.07,-1.32 -1.07,-2.96 -1.07,-5.57l0 -5.15c0,-2.61 0,-4.25 1.07,-5.57 0.93,-1.15 2.43,-1.47 3.5,-1.47zm0 -2.5c-2.04,0 -4.22,0.71 -5.65,2.5 -1.57,1.97 -1.57,4.22 -1.57,7.04l0 5.15c0,2.82 0,5.07 1.57,7.04 1.43,1.78 3.61,2.5 5.65,2.5 2.04,0 4.22,-0.72 5.65,-2.5 1.57,-1.97 1.57,-4.22 1.57,-7.04l0 -5.15c0,-2.82 0,-5.07 -1.57,-7.04 -1.43,-1.79 -3.61,-2.5 -5.65,-2.5z"/>
  <path id="_49" class="fil8" d="M1348.18 1182.68c0,1.61 -0.46,2.82 -1.14,3.61 -0.68,0.82 -1.82,1.43 -3.36,1.43 -1.54,0 -2.68,-0.61 -3.36,-1.43 -0.68,-0.79 -1.14,-2 -1.14,-3.61 0,-1.61 0.46,-2.83 1.14,-3.61 0.68,-0.82 1.82,-1.43 3.36,-1.43 1.54,0 2.68,0.61 3.36,1.43 0.68,0.78 1.14,2 1.14,3.61zm-11.65 0c0,2.04 0.57,3.86 1.72,5.18 1.21,1.39 3.11,2.36 5.43,2.36 2.32,0 4.22,-0.97 5.43,-2.36 1.15,-1.32 1.72,-3.14 1.72,-5.18 0,-2.04 -0.57,-3.86 -1.72,-5.18 -1.21,-1.4 -3.11,-2.36 -5.43,-2.36 -0.68,0 -1.29,0.07 -1.89,0.35l4.82 -9.32 -2.93 0 -4.43 8.57c-2.18,4.19 -2.72,5.69 -2.72,7.94z"/>
  <path id="_50" class="fil8" d="M1354.76 1166.17l0 2.5 6.86 0c1.72,0 1.93,0.03 2.14,0.18 0.15,0.1 0.26,0.25 0.26,0.5 0,0.53 -0.4,1 -1.36,2.15l-3.93 4.72 0 2.04c2.28,0 3.61,0 4.71,1 1.11,1.01 1.4,2.58 1.4,3.7 0,1.53 -0.54,2.83 -1.4,3.61 -0.85,0.79 -2.18,1.15 -3.53,1.15 -1.76,0 -3.4,-0.57 -4.4,-1.47l-1.64 1.97c1.53,1.28 3.68,2 6.04,2 2.25,0 4.11,-0.68 5.39,-1.86 1.32,-1.21 2.18,-3.07 2.18,-5.4 0,-2.33 -0.82,-4.23 -2.18,-5.48 -0.86,-0.79 -1.89,-1.29 -3,-1.51l2.36 -2.83c1.18,-1.43 2,-2.36 2,-3.79 0,-0.86 -0.29,-1.47 -0.71,-1.97 -1.04,-1.21 -2.36,-1.21 -3.97,-1.21l-7.22 0z"/>
  <path id="_51" class="fil8" d="M1125.51 1228.6c2.04,0 3.68,-0.89 4.65,-2.5 0.96,1.61 2.6,2.5 4.64,2.5 1.68,0 3.15,-0.6 4.11,-1.53 1.79,-1.72 1.79,-3.93 1.79,-6.62l0 -9.15 -2.5 0 0 9.15c0,2.36 0,3.97 -1.08,4.97 -0.53,0.5 -1.35,0.82 -2.32,0.82 -0.96,0 -1.79,-0.32 -2.32,-0.82 -1.07,-1 -1.07,-2.61 -1.07,-4.97l0 -9.15 -2.51 0 0 9.15c0,2.36 0,3.97 -1.07,4.97 -0.53,0.5 -1.36,0.82 -2.32,0.82 -0.97,0 -1.79,-0.32 -2.32,-0.82 -1.08,-1 -1.08,-2.61 -1.08,-4.97l0 -9.15 -2.5 0 0 9.15c0,2.69 0,4.9 1.79,6.62 0.96,0.93 2.43,1.53 4.11,1.53z"/>
  <path id="_52" class="fil8" d="M1150.88 1228.6c2.04,0 3.69,-0.89 4.65,-2.5 0.96,1.61 2.61,2.5 4.65,2.5 1.68,0 3.14,-0.6 4.11,-1.53 1.78,-1.72 1.78,-3.93 1.78,-6.62l0 -9.15 -2.5 0 0 9.15c0,2.36 0,3.97 -1.07,4.97 -0.54,0.5 -1.36,0.82 -2.32,0.82 -0.97,0 -1.79,-0.32 -2.33,-0.82 -1.07,-1 -1.07,-2.61 -1.07,-4.97l0 -9.15 -2.5 0 0 9.15c0,2.36 0,3.97 -1.07,4.97 -0.54,0.5 -1.36,0.82 -2.33,0.82 -0.96,0 -1.78,-0.32 -2.32,-0.82 -1.07,-1 -1.07,-2.61 -1.07,-4.97l0 -9.15 -2.5 0 0 9.15c0,2.69 0,4.9 1.78,6.62 0.97,0.93 2.43,1.53 4.11,1.53z"/>
  <path id="_53" class="fil8" d="M1176.26 1228.6c2.04,0 3.68,-0.89 4.64,-2.5 0.97,1.61 2.61,2.5 4.65,2.5 1.68,0 3.15,-0.6 4.11,-1.53 1.79,-1.72 1.79,-3.93 1.79,-6.62l0 -9.15 -2.5 0 0 9.15c0,2.36 0,3.97 -1.08,4.97 -0.53,0.5 -1.35,0.82 -2.32,0.82 -0.96,0 -1.79,-0.32 -2.32,-0.82 -1.07,-1 -1.07,-2.61 -1.07,-4.97l0 -9.15 -2.51 0 0 9.15c0,2.36 0,3.97 -1.07,4.97 -0.53,0.5 -1.36,0.82 -2.32,0.82 -0.97,0 -1.79,-0.32 -2.32,-0.82 -1.08,-1 -1.08,-2.61 -1.08,-4.97l0 -9.15 -2.5 0 0 9.15c0,2.69 0,4.9 1.79,6.62 0.96,0.93 2.43,1.53 4.11,1.53z"/>
  <path id="_54" class="fil8" d="M1194.16 1224.96c-1.07,0 -1.82,0.75 -1.82,1.82 0,1.07 0.75,1.82 1.82,1.82 1.08,0 1.83,-0.75 1.83,-1.82 0,-1.07 -0.75,-1.82 -1.83,-1.82z"/>
  <path id="_55" class="fil8" d="M1205.1 1211.09c-2.11,0 -3.79,0.86 -4.82,2.11 -1.61,1.93 -1.61,4.29 -1.61,6.72 0,2.18 0,4.68 2,6.72 1.11,1.11 2.82,1.96 4.97,1.96 2.25,0 4.03,-0.96 5.04,-2.36 1.21,-1.68 1.21,-3.46 1.21,-6.14l0 -15.55 -2.5 0 0 8.72c-0.97,-1.36 -2.54,-2.18 -4.29,-2.18zm4.29 9.47c0,1.9 0,3.43 -0.86,4.47 -0.71,0.86 -1.79,1.21 -2.89,1.21 -1.22,0 -2.43,-0.42 -3.22,-1.28 -1.25,-1.36 -1.25,-3.22 -1.25,-5.04 0,-2 0,-3.97 1.07,-5.22 0.64,-0.75 1.68,-1.25 3.04,-1.25 1.36,0 2.39,0.5 3.04,1.25 1.07,1.25 1.07,3.22 1.07,5.86z"/>
  <path id="_56" class="fil8" d="M1215.82 1211.3l0 9.15c0,2.51 0,4.58 1.68,6.33 0.86,0.89 2.4,1.82 4.58,1.82 2.18,0 3.71,-0.93 4.57,-1.82 1.68,-1.75 1.68,-3.82 1.68,-6.33l0 -9.15 -2.5 0 0 9.15c0,2.22 0,3.72 -1.04,4.76 -0.61,0.61 -1.53,1.03 -2.71,1.03 -1.18,0 -2.11,-0.42 -2.72,-1.03 -1.04,-1.04 -1.04,-2.54 -1.04,-4.76l0 -9.15 -2.5 0z"/>
  <polygon id="_57" class="fil8" points="1231.83,1211.3 1236.98,1219.78 1231.73,1228.39 1234.48,1228.39 1238.37,1221.71 1242.2,1228.39 1245.02,1228.39 1239.77,1219.78 1244.91,1211.3 1242.16,1211.3 1238.37,1217.81 1234.66,1211.3 "/>
  <path id="_58" class="fil8" d="M1253.67 1213.45c1.29,0 2.5,0.46 3.18,1.29 0.86,1 0.86,2.5 0.86,4.39 0,2.65 0,4.61 -1.07,5.86 -0.65,0.75 -1.68,1.25 -3.04,1.25 -1.36,0 -2.4,-0.5 -3.04,-1.25 -1.07,-1.25 -1.07,-3.21 -1.07,-5.21 0,-2.04 0,-3.86 1.14,-5.15 0.64,-0.72 1.72,-1.18 3.04,-1.18zm0 -2.36c-2.14,0 -3.86,0.82 -4.97,2.04 -1.71,1.93 -1.71,4.43 -1.71,6.65 0,2.43 0,4.78 1.6,6.71 1.04,1.26 2.72,2.11 4.83,2.11 1.75,0 3.32,-0.82 4.29,-2.18l0 0.36c0,2.18 0,3.47 -0.86,4.54 -0.68,0.86 -1.86,1.46 -3.61,1.46 -1.5,0 -3,-0.42 -4.18,-1.07l-1.04 2.15c1.58,0.85 3.47,1.28 5.22,1.28 2.36,0 4.18,-0.82 5.33,-2.07 1.64,-1.79 1.64,-3.75 1.64,-6.29l0 -7.29c0,-2.9 0,-4.58 -1.43,-6.25 -1.39,-1.65 -3.47,-2.15 -5.11,-2.15z"/>
  <path id="_59" class="fil8" d="M1270.68 1213.45c1.32,0 2.4,0.46 3.04,1.18 1.14,1.29 1.14,3.11 1.14,5.15 0,2 0,3.96 -1.07,5.21 -0.64,0.75 -1.68,1.25 -3.04,1.25 -1.36,0 -2.39,-0.5 -3.03,-1.25 -1.08,-1.25 -1.08,-3.21 -1.08,-5.86 0,-1.89 0,-3.39 0.86,-4.39 0.68,-0.83 1.89,-1.29 3.18,-1.29zm0 -2.36c-1.64,0 -3.72,0.5 -5.11,2.15 -1.43,1.67 -1.43,3.35 -1.43,6.25l0 15.44 2.5 0 0 -8.51c0.97,1.36 2.54,2.18 4.29,2.18 2.11,0 3.79,-0.85 4.83,-2.11 1.6,-1.93 1.6,-4.28 1.6,-6.71 0,-2.22 0,-4.72 -1.71,-6.65 -1.11,-1.22 -2.82,-2.04 -4.97,-2.04z"/>
  <path id="_60" class="fil8" d="M1282.23 1224.96c-1.08,0 -1.83,0.75 -1.83,1.82 0,1.07 0.75,1.82 1.83,1.82 1.07,0 1.82,-0.75 1.82,-1.82 0,-1.07 -0.75,-1.82 -1.82,-1.82z"/>
  <path id="_61" class="fil8" d="M1297.38 1225.06c-1.15,0.79 -2.5,1.18 -3.86,1.18 -1.4,0 -2.47,-0.46 -3.15,-1.25 -1.14,-1.32 -1.14,-3.46 -1.14,-5.29 0,-1.57 0,-3.68 1.11,-4.96 0.86,-1 2.07,-1.29 3.18,-1.29 1.28,0 2.61,0.39 3.68,1.07l1.21 -2.04c-1.46,-0.92 -3.18,-1.39 -4.89,-1.39 -2.29,0 -4,0.86 -5.11,2.15 -1.68,1.92 -1.68,4.61 -1.68,6.46 0,2.11 0,4.86 1.71,6.79 1.11,1.26 2.79,2.11 5.08,2.11 1.82,0 3.64,-0.53 5.14,-1.53l-1.28 -2.01z"/>
  <path id="_62" class="fil8" d="M1307.96 1213.45c1.57,0 2.78,0.64 3.5,1.71 0.79,1.18 0.79,2.86 0.79,4.69 0,1.82 0,3.5 -0.79,4.68 -0.72,1.07 -1.93,1.71 -3.5,1.71 -1.58,0 -2.79,-0.64 -3.51,-1.71 -0.78,-1.18 -0.78,-2.86 -0.78,-4.68 0,-1.83 0,-3.51 0.78,-4.69 0.72,-1.07 1.93,-1.71 3.51,-1.71zm0 -2.36c-2.54,0 -4.61,1.14 -5.76,3.04 -1.03,1.71 -1.03,3.68 -1.03,5.72 0,2.03 0,4 1.03,5.71 1.15,1.9 3.22,3.04 5.76,3.04 2.53,0 4.61,-1.14 5.75,-3.04 1.04,-1.71 1.04,-3.68 1.04,-5.71 0,-2.04 0,-4.01 -1.04,-5.72 -1.14,-1.9 -3.22,-3.04 -5.75,-3.04z"/>
  <path id="_63" class="fil8" d="M1324.22 1211.09c-1.68,0 -3.15,0.61 -4.11,1.54 -1.79,1.71 -1.79,3.93 -1.79,6.61l0 9.15 2.5 0 0 -9.15c0,-2.36 0,-3.97 1.08,-4.97 0.53,-0.5 1.35,-0.82 2.32,-0.82 0.96,0 1.79,0.32 2.32,0.82 1.07,1 1.07,2.61 1.07,4.97l0 9.15 2.51 0 0 -9.15c0,-2.36 0,-3.97 1.07,-4.97 0.53,-0.5 1.36,-0.82 2.32,-0.82 0.97,0 1.79,0.32 2.32,0.82 1.08,1 1.08,2.61 1.08,4.97l0 9.15 2.5 0 0 -9.15c0,-2.68 0,-4.9 -1.79,-6.61 -0.96,-0.93 -2.43,-1.54 -4.11,-1.54 -2.04,0 -3.68,0.89 -4.65,2.5 -0.96,-1.61 -2.6,-2.5 -4.64,-2.5z"/>
  <path id="_64" class="fil8" d="M1344.98 1224.96c-1.07,0 -1.82,0.75 -1.82,1.82 0,1.07 0.75,1.82 1.82,1.82 1.08,0 1.83,-0.75 1.83,-1.82 0,-1.07 -0.75,-1.82 -1.83,-1.82z"/>
  <path id="_65" class="fil8" d="M1357.17 1213.45c1.36,0 2.39,0.5 3.04,1.25 1.07,1.25 1.07,3.22 1.07,5.22 0,1.82 0,3.68 -1.25,5.04 -0.79,0.86 -2,1.28 -3.22,1.28 -1.1,0 -2.18,-0.35 -2.89,-1.21 -0.86,-1.04 -0.86,-2.57 -0.86,-4.47 0,-2.64 0,-4.61 1.07,-5.86 0.65,-0.75 1.68,-1.25 3.04,-1.25zm0.18 -2.36c-1.75,0 -3.32,0.82 -4.29,2.18l0 -8.72 -2.5 0 0 15.55c0,2.68 0,4.46 1.21,6.14 1,1.4 2.79,2.36 5.04,2.36 2.15,0 3.86,-0.85 4.97,-1.96 2,-2.04 2,-4.54 2,-6.72 0,-2.43 0,-4.79 -1.61,-6.72 -1.03,-1.25 -2.71,-2.11 -4.82,-2.11z"/>
  <path id="_66" class="fil8" d="M1373.9 1211.09c-1.65,0 -3.72,0.5 -5.11,2.15 -1.43,1.67 -1.43,3.35 -1.43,6.25l0 8.9 2.5 0 0 -8.9c0,-2.25 0,-3.75 0.86,-4.75 0.67,-0.83 1.89,-1.29 3.18,-1.29 0.6,0 1.18,0.11 1.68,0.29l0.75 -2.26c-0.72,-0.25 -1.54,-0.39 -2.43,-0.39z"/>
  <g id="_2386525530752">
   <path class="fil9" d="M1260.86 684.03l0 0.59c0,11.36 -17.28,11.36 -17.28,0l0 -0.59c0,-4.76 3.87,-8.63 8.64,-8.63 4.77,0 8.64,3.87 8.64,8.63l0 0zm0 41.33l0 0.59c0,4.77 -3.87,8.64 -8.64,8.64 -4.77,0 -8.64,-3.87 -8.64,-8.64l0 -0.59c0,-4.76 3.87,-8.63 8.64,-8.63 4.77,0 8.64,3.87 8.64,8.63l0 0zm0 41.33l0 0.57c0,4.77 -3.87,8.64 -8.64,8.64 -4.77,0 -8.64,-3.86 -8.64,-8.63l0 -0.58c0,-4.77 3.87,-8.64 8.64,-8.64 4.77,0 8.64,3.87 8.64,8.64l0 0zm-7.74 -110.26l-0.58 0c-4.76,0 -8.64,-3.88 -8.64,-8.64 0,-4.77 3.87,-8.64 8.64,-8.64 4.78,0 8.93,3.87 8.93,8.64 0,4.76 -3.59,8.64 -8.35,8.64l0 0zm40.13 -2.88c-4.19,0 -7.87,-3.07 -8.52,-7.35 -0.71,-4.72 2.53,-9.13 7.24,-9.84 0.01,0 0.59,-0.08 0.62,-0.09 4.68,-0.69 9.1,2.57 9.79,7.29 0.7,4.72 -2.57,9.1 -7.29,9.81l-1.25 -8.55 0.72 8.62c-0.44,0.07 -0.87,0.11 -1.31,0.11l0 0zm-80.84 -0.5c-0.4,0 -0.82,-0.03 -1.24,-0.09 -0.04,-0.01 -0.4,-0.05 -0.45,-0.07 -4.68,-0.76 -8.01,-5.2 -7.27,-9.89 0.75,-4.7 5.01,-7.9 9.71,-7.22 4.7,0.72 8.23,5.15 7.53,9.86 -0.64,4.3 -4.1,7.41 -8.28,7.41l0 0zm120.67 -8.77c-3.61,0 -6.98,-2.26 -8.2,-5.85 -1.53,-4.5 0.85,-9.39 5.34,-10.94l0.85 -0.26c4.54,-1.39 9.4,1.18 10.78,5.76 1.39,4.56 -1.2,9.37 -5.77,10.76l-2.5 -8.26 2.26 8.34c-0.91,0.3 -1.85,0.45 -2.76,0.45l0 0zm-160.32 -0.95c-0.89,0 -1.81,-0.14 -2.72,-0.45l-0.4 -0.12c-4.55,-1.43 -7.09,-6.27 -5.66,-10.82 1.42,-4.55 6.26,-7.11 10.82,-5.66l0.7 0.23c4.53,1.5 6.97,6.39 5.47,10.91 -1.21,3.62 -4.59,5.91 -8.21,5.91l0 0zm198.1 -14.44c-3.13,0 -6.15,-1.71 -7.69,-4.68 -2.18,-4.24 -0.51,-9.45 3.72,-11.64 0.03,-0.02 0.58,-0.29 0.61,-0.31 4.27,-2.11 9.45,-0.4 11.59,3.87 2.13,4.26 0.4,9.45 -3.87,11.59l-3.86 -7.73 3.45 7.93c-1.26,0.65 -2.63,0.97 -3.95,0.97l0 0zm-235.73 -1.44c-1.37,0 -2.77,-0.33 -4.06,-1.03l4.07 -7.61 -4.28 7.5c-4.26,-2.11 -6.06,-7.28 -3.96,-11.55 2.09,-4.27 7.2,-6.06 11.48,-4l0.82 0.42c4.2,2.25 5.8,7.48 3.55,11.69 -1.54,2.91 -4.53,4.58 -7.62,4.58l0 0zm270.61 -19.73c-2.64,0 -5.25,-1.21 -6.94,-3.5 -2.84,-3.83 -2.03,-9.23 1.8,-12.07l0.59 -0.43c3.88,-2.78 9.27,-1.88 12.05,2.01 2.77,3.88 1.87,9.27 -2.02,12.05l-0.34 0.24c-1.55,1.15 -3.35,1.7 -5.14,1.7l0 0zm-305.52 -1.94c-1.68,0 -3.39,-0.53 -4.89,-1.64 -0.01,-0.01 -0.49,-0.37 -0.5,-0.38 -3.82,-2.85 -4.6,-8.27 -1.73,-12.08 2.87,-3.83 8.28,-4.58 12.09,-1.74 3.81,2.86 4.81,8.44 1.98,12.25 -1.73,2.32 -4.32,3.59 -6.95,3.59l0 0zm160.64 202.24l0 0.57c0,4.77 -3.87,8.64 -8.64,8.64 -4.77,0 -8.64,-3.87 -8.64,-8.64l0 -0.57c0,-4.78 3.87,-8.64 8.64,-8.64 4.77,0 8.64,3.87 8.64,8.64l0 0z"/>
   <polygon class="fil9" points="1220.95,835.16 1253.7,867.91 1286.45,835.16 1220.95,835.16 "/>
  </g>
  <path class="fil10" d="M1253.13 203.72c24.88,0 45.08,20.18 45.08,45.08 0,24.9 -20.2,45.09 -45.08,45.09 -24.92,0 -45.08,-20.19 -45.08,-45.09 0,-24.9 20.16,-45.08 45.08,-45.08l0 0zm0 -18.02c35.09,0 63.01,28.45 63.52,63.54 0.73,50.6 -61.25,79.4 -63.52,79.4 -2.49,0 -63.57,-33.97 -63.57,-79.4 0,-35.1 28.44,-63.54 63.57,-63.54l0 0z"/>
  <path class="fil11" d="M1253.13 223.06c-14.2,0 -25.78,11.55 -25.78,25.74 0,14.2 11.58,25.74 25.78,25.74 14.2,0 25.73,-11.54 25.73,-25.74 0,-14.19 -11.53,-25.74 -25.73,-25.74l0 0zm0 47.67c-12.1,0 -21.96,-9.83 -21.96,-21.93 0,-12.09 9.86,-21.92 21.96,-21.92 12.05,0 21.92,9.83 21.92,21.92 0,12.1 -9.87,21.93 -21.92,21.93l0 0z"/>
  <path class="fil11" d="M1253.13 233.18c0.69,0 1.24,-0.56 1.24,-1.26l0 -2.53c0,-0.69 -0.55,-1.26 -1.24,-1.26 -0.73,0 -1.29,0.57 -1.29,1.26l0 2.53c0,0.7 0.56,1.26 1.29,1.26l0 0z"/>
  <path class="fil11" d="M1253.13 264.14c-0.73,0 -1.29,0.56 -1.29,1.26l0 2.53c0,0.7 0.56,1.26 1.29,1.26 0.69,0 1.24,-0.56 1.24,-1.26l0 -2.53c0,-0.7 -0.55,-1.26 -1.24,-1.26l0 0z"/>
  <path class="fil11" d="M1236.36 247.4l-2.53 0c-0.69,0 -1.25,0.56 -1.25,1.26 0,0.7 0.56,1.26 1.25,1.26l2.53 0c0.73,0 1.28,-0.56 1.28,-1.26 0,-0.7 -0.55,-1.26 -1.28,-1.26l0 0z"/>
  <path class="fil11" d="M1272.39 247.4l-2.53 0c-0.69,0 -1.29,0.56 -1.29,1.26 0,0.7 0.6,1.26 1.29,1.26l2.53 0c0.68,0 1.24,-0.56 1.24,-1.26 0,-0.7 -0.56,-1.26 -1.24,-1.26l0 0z"/>
  <path class="fil11" d="M1254.37 246l0 -8.08c0,-0.7 -0.55,-1.26 -1.24,-1.26 -0.73,0 -1.29,0.56 -1.29,1.26l0 8.1c-1.37,0.68 -2.01,2.31 -1.37,3.77l-10.64 8.28c-0.56,0.43 -0.64,1.23 -0.21,1.78 0.43,0.55 1.2,0.65 1.76,0.22l11.11 -8.64c3.34,0.74 4.97,-3.93 1.88,-5.43l0 0z"/>
  <path class="fil9" d="M1483.34 501.56c6.3,0 15.31,18.19 18.87,23.71 -3.56,5.49 -12.61,23.65 -18.87,23.65l-460.46 0c-6.31,0 -15.31,-18.19 -18.87,-23.71 3.56,-5.5 12.61,-23.65 18.87,-23.65l460.46 0 0 0z"/>
  <polygon class="fil11" points="1624.88,241.78 1634.66,251.56 1624.88,261.34 "/>
  <path class="fil11" d="M1616.6 253.75l-0.17 0c-1.2,0 -2.18,-0.98 -2.18,-2.19 0,-1.2 0.98,-2.18 2.18,-2.18l0.17 0c1.2,0 2.15,0.98 2.15,2.18 0,1.21 -0.95,2.19 -2.15,2.19l0 0zm-10.33 0l-0.17 0c-1.21,0 -2.19,-0.98 -2.19,-2.19 0,-1.2 0.98,-2.18 2.19,-2.18 1.2,0 2.27,0.98 2.27,2.18 0,1.21 -0.9,2.19 -2.1,2.19l0 0zm-10.38 0l-0.13 0c-1.2,0 -2.19,-0.98 -2.19,-2.19 0,-1.2 0.99,-2.18 2.19,-2.18 1.2,0 2.27,0.98 2.27,2.18 0,1.21 -0.9,2.19 -2.14,2.19l0 0zm-10.3 0l-0.17 0c-1.2,0 -2.19,-0.98 -2.19,-2.19 0,-1.2 0.99,-2.18 2.19,-2.18l0.17 0c1.2,0 2.15,0.98 2.15,2.18 0,1.21 -0.95,2.19 -2.15,2.19l0 0zm-10.38 0l-0.13 0c-1.2,0 -2.18,-0.98 -2.18,-2.19 0,-1.2 0.98,-2.18 2.18,-2.18l0.13 0c1.25,0 2.19,0.98 2.19,2.18 0,1.21 -0.94,2.19 -2.19,2.19l0 0zm-10.34 0l-0.12 0c-1.2,0 -2.19,-0.98 -2.19,-2.19 0,-1.2 0.99,-2.18 2.19,-2.18 1.2,0 2.23,0.98 2.23,2.18 0,1.21 -0.9,2.19 -2.11,2.19l0 0zm-10.33 0l-0.13 0c-2.87,0 -2.87,-4.37 0,-4.37 1.2,0 2.27,0.98 2.27,2.18 0,1.21 -0.94,2.19 -2.14,2.19l0 0z"/>
  <polygon class="fil11" points="1399.48,241.78 1409.26,251.56 1399.48,261.34 "/>
  <path class="fil11" d="M1391.2 253.75l-0.13 0c-1.24,0 -2.18,-0.98 -2.18,-2.19 0,-1.2 0.94,-2.18 2.18,-2.18l0.13 0c1.2,0 2.19,0.98 2.19,2.18 0,1.21 -0.99,2.19 -2.19,2.19l0 0zm-10.34 0l-0.17 0c-1.16,0 -2.14,-0.98 -2.14,-2.19 0,-1.2 0.98,-2.18 2.14,-2.18 1.25,0 2.28,0.98 2.28,2.18 0,1.21 -0.9,2.19 -2.11,2.19l0 0zm-10.33 0l-0.13 0c-1.25,0 -2.19,-0.98 -2.19,-2.19 0,-1.2 0.94,-2.18 2.19,-2.18 1.2,0 2.23,0.98 2.23,2.18 0,1.21 -0.9,2.19 -2.1,2.19l0 0zm-10.34 0l-0.17 0c-1.2,0 -2.15,-0.98 -2.15,-2.19 0,-1.2 0.95,-2.18 2.15,-2.18l0.17 0c1.2,0 2.19,0.98 2.19,2.18 0,1.21 -0.99,2.19 -2.19,2.19l0 0zm-10.34 0l-0.17 0c-1.2,0 -2.19,-0.98 -2.19,-2.19 0,-1.2 0.99,-2.18 2.19,-2.18l0.17 0c1.2,0 2.19,0.98 2.19,2.18 0,1.21 -0.99,2.19 -2.19,2.19l0 0zm-10.33 0l-0.18 0c-1.2,0 -2.18,-0.98 -2.18,-2.19 0,-1.2 0.98,-2.18 2.18,-2.18 1.25,0 2.28,0.98 2.28,2.18 0,1.21 -0.9,2.19 -2.1,2.19l0 0zm-10.34 0l-0.17 0c-2.88,0 -2.88,-4.37 0,-4.37 1.2,0 2.27,0.98 2.27,2.18 0,1.21 -0.9,2.19 -2.1,2.19l0 0z"/>
  <g id="_2386399483408">
   <polygon class="fil11" points="1172.58,241.78 1182.31,251.56 1172.58,261.34 "/>
   <path class="fil11" d="M1164.3 253.75l-0.17 0c-1.2,0 -2.19,-0.98 -2.19,-2.19 0,-1.2 0.99,-2.18 2.19,-2.18l0.17 0c1.2,0 2.14,0.98 2.14,2.18 0,1.21 -0.94,2.19 -2.14,2.19l0 0zm-10.38 0l-0.13 0c-1.2,0 -2.19,-0.98 -2.19,-2.19 0,-1.2 0.99,-2.18 2.19,-2.18 1.2,0 2.27,0.98 2.27,2.18 0,1.21 -0.9,2.19 -2.14,2.19l0 0zm-10.34 0l-0.13 0c-1.2,0 -2.19,-0.98 -2.19,-2.19 0,-1.2 0.99,-2.18 2.19,-2.18 1.2,0 2.28,0.98 2.28,2.18 0,1.21 -0.95,2.19 -2.15,2.19l0 0zm-10.34 0l-0.13 0c-1.2,0 -2.18,-0.98 -2.18,-2.19 0,-1.2 0.98,-2.18 2.18,-2.18l0.13 0c1.25,0 2.19,0.98 2.19,2.18 0,1.21 -0.94,2.19 -2.19,2.19l0 0zm-10.33 0l-0.13 0c-1.2,0 -2.19,-0.98 -2.19,-2.19 0,-1.2 0.99,-2.18 2.19,-2.18l0.13 0c1.2,0 2.18,0.98 2.18,2.18 0,1.21 -0.98,2.19 -2.18,2.19l0 0zm-10.34 0l-0.13 0c-1.2,0 -2.19,-0.98 -2.19,-2.19 0,-1.2 0.99,-2.18 2.19,-2.18 1.2,0 2.27,0.98 2.27,2.18 0,1.21 -0.94,2.19 -2.14,2.19l0 0zm-10.34 0l-0.13 0c-2.87,0 -2.87,-4.37 0,-4.37 1.2,0 2.23,0.98 2.23,2.18 0,1.21 -0.9,2.19 -2.1,2.19l0 0z"/>
   <polygon class="fil11" points="944.04,241.78 953.82,251.56 944.04,261.34 "/>
   <path class="fil11" d="M935.76 253.75l-0.12 0c-1.21,0 -2.19,-0.98 -2.19,-2.19 0,-1.2 0.98,-2.18 2.19,-2.18l0.12 0c1.2,0 2.19,0.98 2.19,2.18 0,1.21 -0.99,2.19 -2.19,2.19l0 0zm-10.33 0l-0.13 0c-1.2,0 -2.19,-0.98 -2.19,-2.19 0,-1.2 0.99,-2.18 2.19,-2.18 1.2,0 2.23,0.98 2.23,2.18 0,1.21 -0.9,2.19 -2.1,2.19l0 0zm-10.34 0l-0.13 0c-1.2,0 -2.19,-0.98 -2.19,-2.19 0,-1.2 0.99,-2.18 2.19,-2.18 1.2,0 2.23,0.98 2.23,2.18 0,1.21 -0.9,2.19 -2.1,2.19l0 0zm-10.34 0l-0.13 0c-1.2,0 -2.18,-0.98 -2.18,-2.19 0,-1.2 0.98,-2.18 2.18,-2.18l0.13 0c1.2,0 2.19,0.98 2.19,2.18 0,1.21 -0.99,2.19 -2.19,2.19l0 0zm-10.33 0l-0.13 0c-1.21,0 -2.19,-0.98 -2.19,-2.19 0,-1.2 0.98,-2.18 2.19,-2.18l0.13 0c1.2,0 2.18,0.98 2.18,2.18 0,1.21 -0.98,2.19 -2.18,2.19l0 0zm-10.34 0l-0.13 0c-1.2,0 -2.19,-0.98 -2.19,-2.19 0,-1.2 0.99,-2.18 2.19,-2.18 1.2,0 2.23,0.98 2.23,2.18 0,1.21 -0.9,2.19 -2.1,2.19l0 0zm-10.34 0l-0.13 0c-2.87,0 -2.87,-4.37 0,-4.37 1.2,0 2.23,0.98 2.23,2.18 0,1.21 -0.9,2.19 -2.1,2.19l0 0z"/>
  </g>
  <g id="_2386399484080">
   <polygon class="fil11" points="1097.35,706.72 1107.09,716.5 1097.35,726.27 "/>
   <path class="fil11" d="M1089.07 718.68l-0.17 0c-1.2,0 -2.19,-0.98 -2.19,-2.18 0,-1.21 0.99,-2.19 2.19,-2.19l0.17 0c1.2,0 2.15,0.98 2.15,2.19 0,1.2 -0.95,2.18 -2.15,2.18l0 0zm-10.38 0l-0.13 0c-1.2,0 -2.19,-0.98 -2.19,-2.18 0,-1.21 0.99,-2.19 2.19,-2.19 1.2,0 2.28,0.98 2.28,2.19 0,1.2 -0.91,2.18 -2.15,2.18l0 0zm-10.34 0l-0.13 0c-1.2,0 -2.18,-0.98 -2.18,-2.18 0,-1.21 0.98,-2.19 2.18,-2.19 1.21,0 2.28,0.98 2.28,2.19 0,1.2 -0.95,2.18 -2.15,2.18l0 0zm-10.33 0l-0.13 0c-1.2,0 -2.19,-0.98 -2.19,-2.18 0,-1.21 0.99,-2.19 2.19,-2.19l0.13 0c1.24,0 2.18,0.98 2.18,2.19 0,1.2 -0.94,2.18 -2.18,2.18l0 0zm-10.34 0l-0.13 0c-1.2,0 -2.19,-0.98 -2.19,-2.18 0,-1.21 0.99,-2.19 2.19,-2.19l0.13 0c1.2,0 2.19,0.98 2.19,2.19 0,1.2 -0.99,2.18 -2.19,2.18l0 0zm-10.34 0l-0.13 0c-1.2,0 -2.18,-0.98 -2.18,-2.18 0,-1.21 0.98,-2.19 2.18,-2.19 1.2,0 2.28,0.98 2.28,2.19 0,1.2 -0.95,2.18 -2.15,2.18l0 0zm-10.34 0l-0.12 0c-2.88,0 -2.88,-4.37 0,-4.37 1.2,0 2.23,0.98 2.23,2.19 0,1.2 -0.9,2.18 -2.11,2.18l0 0z"/>
   <polygon class="fil11" points="868.82,706.72 878.6,716.5 868.82,726.27 "/>
   <path class="fil11" d="M860.54 718.68l-0.13 0c-1.2,0 -2.19,-0.98 -2.19,-2.18 0,-1.21 0.99,-2.19 2.19,-2.19l0.13 0c1.2,0 2.18,0.98 2.18,2.19 0,1.2 -0.98,2.18 -2.18,2.18l0 0zm-10.34 0l-0.13 0c-1.2,0 -2.19,-0.98 -2.19,-2.18 0,-1.21 0.99,-2.19 2.19,-2.19 1.2,0 2.23,0.98 2.23,2.19 0,1.2 -0.9,2.18 -2.1,2.18l0 0zm-10.34 0l-0.13 0c-1.2,0 -2.18,-0.98 -2.18,-2.18 0,-1.21 0.98,-2.19 2.18,-2.19 1.2,0 2.23,0.98 2.23,2.19 0,1.2 -0.9,2.18 -2.1,2.18l0 0zm-10.33 0l-0.13 0c-1.2,0 -2.19,-0.98 -2.19,-2.18 0,-1.21 0.99,-2.19 2.19,-2.19l0.13 0c1.2,0 2.18,0.98 2.18,2.19 0,1.2 -0.98,2.18 -2.18,2.18l0 0zm-10.34 0l-0.13 0c-1.2,0 -2.19,-0.98 -2.19,-2.18 0,-1.21 0.99,-2.19 2.19,-2.19l0.13 0c1.2,0 2.19,0.98 2.19,2.19 0,1.2 -0.99,2.18 -2.19,2.18l0 0zm-10.34 0l-0.13 0c-1.2,0 -2.19,-0.98 -2.19,-2.18 0,-1.21 0.99,-2.19 2.19,-2.19 1.2,0 2.23,0.98 2.23,2.19 0,1.2 -0.9,2.18 -2.1,2.18l0 0zm-10.34 0l-0.12 0c-2.88,0 -2.88,-4.37 0,-4.37 1.2,0 2.23,0.98 2.23,2.19 0,1.2 -0.91,2.18 -2.11,2.18l0 0z"/>
  </g>
  <g id="_2386399487440">
   <polygon class="fil11" points="1688.42,706.72 1698.16,716.5 1688.42,726.27 "/>
   <path class="fil11" d="M1680.14 718.68l-0.17 0c-1.2,0 -2.19,-0.98 -2.19,-2.18 0,-1.21 0.99,-2.19 2.19,-2.19l0.17 0c1.2,0 2.15,0.98 2.15,2.19 0,1.2 -0.95,2.18 -2.15,2.18l0 0zm-10.38 0l-0.13 0c-1.2,0 -2.19,-0.98 -2.19,-2.18 0,-1.21 0.99,-2.19 2.19,-2.19 1.2,0 2.28,0.98 2.28,2.19 0,1.2 -0.9,2.18 -2.15,2.18l0 0zm-10.34 0l-0.12 0c-1.21,0 -2.19,-0.98 -2.19,-2.18 0,-1.21 0.98,-2.19 2.19,-2.19 1.2,0 2.27,0.98 2.27,2.19 0,1.2 -0.94,2.18 -2.15,2.18l0 0zm-10.33 0l-0.13 0c-1.2,0 -2.19,-0.98 -2.19,-2.18 0,-1.21 0.99,-2.19 2.19,-2.19l0.13 0c1.24,0 2.18,0.98 2.18,2.19 0,1.2 -0.94,2.18 -2.18,2.18l0 0zm-10.34 0l-0.13 0c-1.2,0 -2.19,-0.98 -2.19,-2.18 0,-1.21 0.99,-2.19 2.19,-2.19l0.13 0c1.2,0 2.19,0.98 2.19,2.19 0,1.2 -0.99,2.18 -2.19,2.18l0 0zm-10.34 0l-0.13 0c-1.2,0 -2.18,-0.98 -2.18,-2.18 0,-1.21 0.98,-2.19 2.18,-2.19 1.2,0 2.28,0.98 2.28,2.19 0,1.2 -0.95,2.18 -2.15,2.18l0 0zm-10.33 0l-0.13 0c-2.88,0 -2.88,-4.37 0,-4.37 1.2,0 2.23,0.98 2.23,2.19 0,1.2 -0.9,2.18 -2.1,2.18l0 0z"/>
   <polygon class="fil11" points="1459.89,706.72 1469.67,716.5 1459.89,726.27 "/>
   <path class="fil11" d="M1451.61 718.68l-0.13 0c-1.2,0 -2.19,-0.98 -2.19,-2.18 0,-1.21 0.99,-2.19 2.19,-2.19l0.13 0c1.2,0 2.19,0.98 2.19,2.19 0,1.2 -0.99,2.18 -2.19,2.18l0 0zm-10.34 0l-0.13 0c-1.2,0 -2.19,-0.98 -2.19,-2.18 0,-1.21 0.99,-2.19 2.19,-2.19 1.2,0 2.23,0.98 2.23,2.19 0,1.2 -0.9,2.18 -2.1,2.18l0 0zm-10.34 0l-0.13 0c-1.2,0 -2.18,-0.98 -2.18,-2.18 0,-1.21 0.98,-2.19 2.18,-2.19 1.21,0 2.23,0.98 2.23,2.19 0,1.2 -0.9,2.18 -2.1,2.18l0 0zm-10.33 0l-0.13 0c-1.2,0 -2.19,-0.98 -2.19,-2.18 0,-1.21 0.99,-2.19 2.19,-2.19l0.13 0c1.2,0 2.18,0.98 2.18,2.19 0,1.2 -0.98,2.18 -2.18,2.18l0 0zm-10.34 0l-0.13 0c-1.2,0 -2.19,-0.98 -2.19,-2.18 0,-1.21 0.99,-2.19 2.19,-2.19l0.13 0c1.2,0 2.19,0.98 2.19,2.19 0,1.2 -0.99,2.18 -2.19,2.18l0 0zm-10.34 0l-0.13 0c-1.2,0 -2.18,-0.98 -2.18,-2.18 0,-1.21 0.98,-2.19 2.18,-2.19 1.2,0 2.23,0.98 2.23,2.19 0,1.2 -0.9,2.18 -2.1,2.18l0 0zm-10.34 0l-0.12 0c-2.88,0 -2.88,-4.37 0,-4.37 1.2,0 2.23,0.98 2.23,2.19 0,1.2 -0.9,2.18 -2.11,2.18l0 0z"/>
  </g>
  <g id="_2386399491328">
   <polygon class="fil11" points="1953.53,972.91 1943.75,982.69 1953.53,992.46 "/>
   <path class="fil11" d="M2210.21 980.51l-0.13 0c-1.21,0 -2.19,0.97 -2.19,2.18 0,1.21 0.98,2.18 2.19,2.18 1.2,0 2.27,-0.97 2.27,-2.18 0,-1.21 -0.9,-2.18 -2.14,-2.18l0 0zm-10.34 0l-0.13 0c-1.2,0 -2.19,0.97 -2.19,2.18 0,1.21 0.99,2.18 2.19,2.18 1.2,0 2.27,-0.97 2.27,-2.18 0,-1.21 -0.94,-2.18 -2.14,-2.18l0 0zm-10.34 0l-0.13 0c-1.2,0 -2.19,0.97 -2.19,2.18 0,1.21 0.99,2.18 2.19,2.18 1.2,0 2.23,-0.97 2.23,-2.18 0,-1.21 -0.9,-2.18 -2.1,-2.18l0 0zm-10.34 0l-0.13 0c-1.2,0 -2.18,0.97 -2.18,2.18 0,1.21 0.98,2.18 2.18,2.18l0.13 0c1.2,0 2.19,-0.97 2.19,-2.18 0,-1.21 -0.99,-2.18 -2.19,-2.18l0 0zm-10.33 0l-0.13 0c-1.2,0 -2.19,0.97 -2.19,2.18 0,1.21 0.99,2.18 2.19,2.18l0.13 0c1.2,0 2.18,-0.97 2.18,-2.18 0,-1.21 -0.98,-2.18 -2.18,-2.18l0 0zm-10.34 0l-0.13 0c-1.2,0 -2.19,0.97 -2.19,2.18 0,1.21 0.99,2.18 2.19,2.18 1.2,0 2.23,-0.97 2.23,-2.18 0,-1.21 -0.9,-2.18 -2.1,-2.18l0 0zm-10.34 0l-0.13 0c-1.2,0 -2.18,0.97 -2.18,2.18 0,1.21 0.98,2.18 2.18,2.18 1.2,0 2.23,-0.97 2.23,-2.18 0,-1.21 -0.9,-2.18 -2.1,-2.18l0 0zm-10.34 0l-0.12 0c-1.25,0 -2.19,0.97 -2.19,2.18 0,1.21 0.94,2.18 2.19,2.18l0.12 0c1.21,0 2.19,-0.97 2.19,-2.18 0,-1.21 -0.98,-2.18 -2.19,-2.18l0 0zm-10.33 0l-0.17 0c-1.16,0 -2.15,0.97 -2.15,2.18 0,1.21 0.99,2.18 2.15,2.18l0.17 0c1.2,0 2.18,-0.97 2.18,-2.18 0,-1.21 -0.98,-2.18 -2.18,-2.18l0 0zm-10.34 0l-0.13 0c-1.24,0 -2.19,0.97 -2.19,2.18 0,1.21 0.95,2.18 2.19,2.18 1.2,0 2.23,-0.97 2.23,-2.18 0,-1.21 -0.9,-2.18 -2.1,-2.18l0 0zm-10.34 0l-0.17 0c-1.2,0 -2.14,0.97 -2.14,2.18 0,1.21 0.94,2.18 2.14,2.18 1.24,0 2.27,-0.97 2.27,-2.18 0,-1.21 -0.9,-2.18 -2.1,-2.18l0 0zm-10.33 0l-0.13 0c-1.25,0 -2.19,0.97 -2.19,2.18 0,1.21 0.94,2.18 2.19,2.18l0.13 0c1.2,0 2.18,-0.97 2.18,-2.18 0,-1.21 -0.98,-2.18 -2.18,-2.18l0 0zm-10.34 0l-0.17 0c-1.2,0 -2.19,0.97 -2.19,2.18 0,1.21 0.99,2.18 2.19,2.18l0.17 0c1.2,0 2.19,-0.97 2.19,-2.18 0,-1.21 -0.99,-2.18 -2.19,-2.18l0 0zm-10.34 0l-0.17 0c-1.2,0 -2.19,0.97 -2.19,2.18 0,1.21 0.99,2.18 2.19,2.18 1.2,0 2.27,-0.97 2.27,-2.18 0,-1.21 -0.9,-2.18 -2.1,-2.18l0 0zm-10.34 0l-0.17 0c-1.2,0 -2.18,0.97 -2.18,2.18 0,1.21 0.98,2.18 2.18,2.18 1.2,0 2.28,-0.97 2.28,-2.18 0,-1.21 -0.9,-2.18 -2.11,-2.18l0 0zm-10.33 0l-0.17 0c-1.21,0 -2.19,0.97 -2.19,2.18 0,1.21 0.98,2.18 2.19,2.18l0.17 0c1.2,0 2.18,-0.97 2.18,-2.18 0,-1.21 -0.98,-2.18 -2.18,-2.18l0 0zm-10.34 0l-0.17 0c-1.2,0 -2.19,0.97 -2.19,2.18 0,1.21 0.99,2.18 2.19,2.18l0.17 0c1.2,0 2.19,-0.97 2.19,-2.18 0,-1.21 -0.99,-2.18 -2.19,-2.18l0 0zm-10.34 0l-0.17 0c-1.2,0 -2.19,0.97 -2.19,2.18 0,1.21 0.99,2.18 2.19,2.18 1.2,0 2.27,-0.97 2.27,-2.18 0,-1.21 -0.9,-2.18 -2.1,-2.18l0 0zm-10.33 0l-0.18 0c-1.2,0 -2.18,0.97 -2.18,2.18 0,1.21 0.98,2.18 2.18,2.18 1.2,0 2.28,-0.97 2.28,-2.18 0,-1.21 -0.9,-2.18 -2.1,-2.18l0 0zm-10.38 0l-0.13 0c-1.2,0 -2.19,0.97 -2.19,2.18 0,1.21 0.99,2.18 2.19,2.18 1.2,0 2.27,-0.97 2.27,-2.18 0,-1.21 -0.9,-2.18 -2.14,-2.18l0 0zm-10.34 0l-0.13 0c-1.2,0 -2.19,0.97 -2.19,2.18 0,1.21 0.99,2.18 2.19,2.18l0.13 0c1.2,0 2.19,-0.97 2.19,-2.18 0,-1.21 -0.99,-2.18 -2.19,-2.18l0 0zm-10.34 0l-0.13 0c-1.2,0 -2.19,0.97 -2.19,2.18 0,1.21 0.99,2.18 2.19,2.18 1.2,0 2.28,-0.97 2.28,-2.18 0,-1.21 -0.95,-2.18 -2.15,-2.18l0 0zm-10.34 0l-0.13 0c-1.2,0 -2.18,0.97 -2.18,2.18 0,1.21 0.98,2.18 2.18,2.18 1.21,0 2.23,-0.97 2.23,-2.18 0,-1.21 -0.9,-2.18 -2.1,-2.18l0 0zm-10.33 0l-0.13 0c-1.2,0 -2.19,0.97 -2.19,2.18 0,1.21 0.99,2.18 2.19,2.18 1.2,0 2.23,-0.97 2.23,-2.18 0,-1.21 -0.9,-2.18 -2.1,-2.18l0 0zm-10.34 0l-0.13 0c-2.87,0 -2.87,4.36 0,4.36l0.13 0c1.2,0 2.19,-0.97 2.19,-2.18 0,-1.21 -0.99,-2.18 -2.19,-2.18l0 0zm297.98 -111.14c1.2,0 2.18,0.98 2.18,2.18l0 0.15c0,1.2 -0.98,2.18 -2.18,2.18 -1.2,0 -2.19,-0.98 -2.19,-2.18l0 -0.15c0,-1.2 0.99,-2.18 2.19,-2.18l0 0zm0 10.34c1.2,0 2.18,0.98 2.18,2.18 0,1.21 -0.98,2.26 -2.18,2.26 -1.2,0 -2.19,-0.91 -2.19,-2.11l0 -0.15c0,-1.2 0.99,-2.18 2.19,-2.18l0 0zm0 10.34c1.2,0 2.18,0.98 2.18,2.18 0,1.21 -0.98,2.26 -2.18,2.26 -1.2,0 -2.19,-0.91 -2.19,-2.11l0 -0.15c0,-1.2 0.99,-2.18 2.19,-2.18l0 0zm0 10.34c1.2,0 2.18,0.98 2.18,2.18 0,1.21 -0.98,2.26 -2.18,2.26 -1.2,0 -2.19,-0.91 -2.19,-2.11l0 -0.15c0,-1.2 0.99,-2.18 2.19,-2.18l0 0zm0 10.34c1.2,0 2.18,0.98 2.18,2.18l0 0.15c0,1.2 -0.98,2.18 -2.18,2.18 -1.2,0 -2.19,-0.98 -2.19,-2.18l0 -0.15c0,-1.2 0.99,-2.18 2.19,-2.18l0 0zm0 10.33c1.2,0 2.18,0.98 2.18,2.19l0 0.15c0,1.2 -0.98,2.18 -2.18,2.18 -1.2,0 -2.19,-0.98 -2.19,-2.18l0 -0.15c0,-1.21 0.99,-2.19 2.19,-2.19l0 0zm0 10.35c1.2,0 2.18,0.97 2.18,2.18l0 0.15c0,1.2 -0.98,2.18 -2.18,2.18 -1.2,0 -2.19,-0.98 -2.19,-2.18l0 -0.15c0,-1.21 0.99,-2.18 2.19,-2.18l0 0zm0 10.34c1.2,0 2.18,0.97 2.18,2.18l0 0.14c0,1.21 -0.98,2.19 -2.18,2.19 -1.2,0 -2.19,-0.98 -2.19,-2.19l0 -0.14c0,-1.21 0.99,-2.18 2.19,-2.18l0 0zm-1.03 10.25c0.17,0 0.34,0.02 0.51,0.06 1.16,0.28 1.89,1.46 1.59,2.63 0,0 -0.04,0.15 -0.04,0.15 -0.26,1.17 -1.46,1.89 -2.62,1.61 -1.16,-0.29 -1.89,-1.47 -1.59,-2.64l2.1 0.51 -2.1 -0.64c0.26,-1.01 1.16,-1.68 2.15,-1.68l0 0zm-3.82 9.58c0.39,0 0.77,0.09 1.11,0.29 1.03,0.6 1.38,1.94 0.78,2.98 -0.6,1.05 -1.93,1.47 -3.01,0.87 -1.02,-0.6 -1.41,-1.88 -0.81,-2.92l0.04 -0.12c0.43,-0.71 1.16,-1.1 1.89,-1.1l0 0zm-6.26 8.16c0.55,0 1.15,0.24 1.58,0.69 0.82,0.88 0.78,2.26 -0.08,3.09 -0.9,0.82 -2.32,0.83 -3.13,-0.02 -0.82,-0.86 -0.86,-2.17 -0.05,-3.01 0.05,-0.02 0.18,-0.14 0.18,-0.15 0.42,-0.4 0.94,-0.6 1.5,-0.6l0 0zm-8.28 6.14c0.77,0 1.54,0.42 1.93,1.16 0.56,1.06 0.17,2.38 -0.9,2.96 -1.07,0.57 -2.45,0.22 -3,-0.84 -0.6,-1.06 -0.26,-2.36 0.77,-2.93l0.17 -0.09c0.34,-0.17 0.69,-0.26 1.03,-0.26l0 0zm-9.65 3.63c1.03,0 1.93,0.71 2.14,1.75 0.26,1.18 -0.51,2.33 -1.71,2.57 -1.16,0.25 -2.36,-0.49 -2.62,-1.66 -0.26,-1.17 0.39,-2.31 1.59,-2.57 0,-0.01 0.17,-0.04 0.17,-0.04 0.13,-0.03 0.3,-0.05 0.43,-0.05l0 0zm-10.43 0.89l0.18 0c1.2,0 2.14,0.98 2.14,2.19 0,1.2 -0.94,2.18 -2.14,2.18l-0.18 0c-1.2,0 -2.18,-0.98 -2.18,-2.18 0,-1.21 0.98,-2.19 2.18,-2.19l0 0zm39.47 -117c1.2,0 2.18,-0.98 2.18,-2.18l0 -0.15c0,-1.2 -0.98,-2.18 -2.18,-2.18 -1.2,0 -2.19,0.98 -2.19,2.18l0 0.15c0,1.2 0.99,2.18 2.19,2.18l0 0zm0 -10.34c1.2,0 2.18,-0.98 2.18,-2.18l0 -0.15c0,-1.21 -0.98,-2.18 -2.18,-2.18 -1.2,0 -2.19,0.97 -2.19,2.18l0 0.15c0,1.2 0.99,2.18 2.19,2.18l0 0zm0 -10.34c1.2,0 2.18,-0.98 2.18,-2.18l0 -0.15c0,-1.21 -0.98,-2.18 -2.18,-2.18 -1.2,0 -2.19,0.97 -2.19,2.18l0 0.15c0,1.2 0.99,2.18 2.19,2.18l0 0zm-0.05 -20.61c1.2,0 2.19,-0.97 2.19,-2.18l0 -0.14c0,-1.21 -0.99,-2.19 -2.19,-2.19 -1.2,0 -2.18,0.98 -2.18,2.19l0 0.14c0,1.21 0.98,2.18 2.18,2.18l0 0zm0 -10.34c1.2,0 2.19,-0.97 2.19,-2.18 0,-1.2 -0.99,-2.26 -2.19,-2.26 -1.2,0 -2.18,0.91 -2.18,2.11l0 0.15c0,1.21 0.98,2.18 2.18,2.18l0 0zm0 -10.33c1.2,0 2.19,-0.99 2.19,-2.19 0,-1.21 -0.99,-2.26 -2.19,-2.26 -1.2,0 -2.18,0.91 -2.18,2.12l0 0.14c0,1.2 0.98,2.19 2.18,2.19l0 0zm0 -10.34c1.2,0 2.19,-0.98 2.19,-2.19 0,-1.2 -0.99,-2.26 -2.19,-2.26 -1.2,0 -2.18,0.91 -2.18,2.12l0 0.14c0,1.21 0.98,2.19 2.18,2.19l0 0zm0 -10.34c1.2,0 2.19,-0.99 2.19,-2.19l0 -0.14c0,-1.21 -0.99,-2.19 -2.19,-2.19 -1.2,0 -2.18,0.98 -2.18,2.19l0 0.14c0,1.2 0.98,2.19 2.18,2.19l0 0zm0 -10.34c1.2,0 2.19,-0.98 2.19,-2.19l0 -0.14c0,-1.21 -0.99,-2.19 -2.19,-2.19 -1.2,0 -2.18,0.98 -2.18,2.19l0 0.14c0,1.21 0.98,2.19 2.18,2.19l0 0zm0 -10.35c1.2,0 2.19,-0.97 2.19,-2.18l0 -0.14c0,-1.21 -0.99,-2.19 -2.19,-2.19 -1.2,0 -2.18,0.98 -2.18,2.19l0 0.14c0,1.21 0.98,2.19 2.18,2.18l0 0zm0 -10.33c1.2,0 2.19,-0.98 2.19,-2.19l0 -0.14c0,-1.21 -0.99,-2.18 -2.19,-2.18 -1.2,0 -2.18,0.97 -2.18,2.18l0 0.14c0,1.21 0.98,2.19 2.18,2.19l0 0zm-1.03 -10.25c0.18,0 0.35,-0.03 0.52,-0.07 1.16,-0.28 1.89,-1.45 1.63,-2.63 0,0 -0.04,-0.14 -0.04,-0.15 -0.3,-1.17 -1.46,-1.89 -2.66,-1.6 -1.16,0.28 -1.89,1.46 -1.59,2.63l2.1 -0.51 -2.06 0.65c0.22,1 1.12,1.68 2.1,1.68l0 0zm-3.77 -9.59c0.34,0 0.73,-0.09 1.07,-0.29 1.03,-0.6 1.42,-1.93 0.82,-2.98 -0.6,-1.05 -1.98,-1.47 -3.05,-0.87 -1.03,0.61 -1.41,1.88 -0.81,2.93l0.08 0.12c0.39,0.7 1.12,1.09 1.89,1.09l0 0zm-6.31 -8.16c0.6,0 1.16,-0.23 1.59,-0.69 0.82,-0.88 0.77,-2.26 -0.08,-3.09 -0.86,-0.81 -2.28,-0.83 -3.14,0.02 -0.81,0.86 -0.85,2.17 0,3.01 0,0.02 0.13,0.14 0.13,0.15 0.43,0.4 0.99,0.6 1.5,0.6l0 0zm-8.27 -6.14c0.77,0 1.54,-0.42 1.93,-1.16 0.55,-1.06 0.17,-2.38 -0.9,-2.95 -1.03,-0.58 -2.45,-0.22 -3.01,0.83 -0.6,1.06 -0.25,2.36 0.82,2.94l0.13 0.08c0.34,0.18 0.68,0.26 1.03,0.26l0 0zm-9.66 -3.63c1.03,0 1.94,-0.71 2.15,-1.74 0.26,-1.18 -0.51,-2.34 -1.67,-2.58 -1.2,-0.25 -2.41,0.49 -2.66,1.66 -0.26,1.17 0.38,2.31 1.58,2.58 0,0 0.18,0.04 0.18,0.04 0.12,0.03 0.3,0.04 0.42,0.04l0 0zm-20.75 -0.89l0.17 0c1.2,0 2.18,-0.98 2.18,-2.18 0,-1.21 -0.98,-2.18 -2.18,-2.18l-0.17 0c-1.21,0 -2.15,0.97 -2.15,2.18 0,1.2 0.94,2.18 2.15,2.18l0 0zm10.33 0l0.17 0c1.21,0 2.19,-0.98 2.19,-2.18 0,-1.21 -0.98,-2.18 -2.19,-2.18l-0.17 0c-1.2,0 -2.19,0.97 -2.19,2.18 0,1.2 0.99,2.18 2.19,2.18l0 0zm39.51 121.3c1.2,0 2.18,-0.97 2.18,-2.18l0 -0.15c0,-2.87 -4.37,-2.87 -4.37,0l0 0.15c0,1.21 0.99,2.18 2.19,2.18l0 0z"/>
  </g>
  <g id="_2386399492096">
   <polygon class="fil11" points="531.08,972.91 540.86,982.69 531.08,992.46 "/>
   <path class="fil11" d="M274.41 980.51l0.13 0c1.2,0 2.18,0.97 2.18,2.18 0,1.21 -0.98,2.18 -2.18,2.18 -1.2,0 -2.28,-0.97 -2.28,-2.18 0,-1.21 0.9,-2.18 2.15,-2.18l0 0zm10.34 0l0.12 0c1.21,0 2.19,0.97 2.19,2.18 0,1.21 -0.98,2.18 -2.19,2.18 -1.2,0 -2.27,-0.97 -2.27,-2.18 0,-1.21 0.94,-2.18 2.15,-2.18l0 0zm10.33 0l0.13 0c1.2,0 2.19,0.97 2.19,2.18 0,1.21 -0.99,2.18 -2.19,2.18 -1.2,0 -2.23,-0.97 -2.23,-2.18 0,-1.21 0.9,-2.18 2.1,-2.18l0 0zm10.34 0l0.13 0c1.2,0 2.19,0.97 2.19,2.18 0,1.21 -0.99,2.18 -2.19,2.18l-0.13 0c-1.2,0 -2.19,-0.97 -2.19,-2.18 0,-1.21 0.99,-2.18 2.19,-2.18l0 0zm10.34 0l0.13 0c1.2,0 2.18,0.97 2.18,2.18 0,1.21 -0.98,2.18 -2.18,2.18l-0.13 0c-1.2,0 -2.19,-0.97 -2.19,-2.18 0,-1.21 0.99,-2.18 2.19,-2.18l0 0zm10.33 0l0.13 0c1.2,0 2.19,0.97 2.19,2.18 0,1.21 -0.99,2.18 -2.19,2.18 -1.2,0 -2.23,-0.97 -2.23,-2.18 0,-1.21 0.9,-2.18 2.1,-2.18l0 0zm10.34 0l0.13 0c1.2,0 2.19,0.97 2.19,2.18 0,1.21 -0.99,2.18 -2.19,2.18 -1.2,0 -2.23,-0.97 -2.23,-2.18 0,-1.21 0.9,-2.18 2.1,-2.18l0 0zm10.34 0l0.13 0c1.24,0 2.19,0.97 2.19,2.18 0,1.21 -0.95,2.18 -2.19,2.18l-0.13 0c-1.2,0 -2.19,-0.97 -2.19,-2.18 0,-1.21 0.99,-2.18 2.19,-2.18l0 0zm10.34 0l0.17 0c1.16,0 2.14,0.97 2.14,2.18 0,1.21 -0.98,2.18 -2.14,2.18l-0.17 0c-1.2,0 -2.19,-0.97 -2.19,-2.18 0,-1.21 0.99,-2.18 2.19,-2.18l0 0zm10.33 0l0.13 0c1.25,0 2.19,0.97 2.19,2.18 0,1.21 -0.94,2.18 -2.19,2.18 -1.2,0 -2.23,-0.97 -2.23,-2.18 0,-1.21 0.9,-2.18 2.1,-2.18l0 0zm10.34 0l0.17 0c1.2,0 2.15,0.97 2.15,2.18 0,1.21 -0.95,2.18 -2.15,2.18 -1.24,0 -2.27,-0.97 -2.27,-2.18 0,-1.21 0.9,-2.18 2.1,-2.18l0 0zm10.34 0l0.13 0c1.24,0 2.18,0.97 2.18,2.18 0,1.21 -0.94,2.18 -2.18,2.18l-0.13 0c-1.2,0 -2.19,-0.97 -2.19,-2.18 0,-1.21 0.99,-2.18 2.19,-2.18l0 0zm10.34 0l0.17 0c1.2,0 2.18,0.97 2.18,2.18 0,1.21 -0.98,2.18 -2.18,2.18l-0.17 0c-1.21,0 -2.19,-0.97 -2.19,-2.18 0,-1.21 0.98,-2.18 2.19,-2.18l0 0zm10.33 0l0.17 0c1.2,0 2.19,0.97 2.19,2.18 0,1.21 -0.99,2.18 -2.19,2.18 -1.2,0 -2.27,-0.97 -2.27,-2.18 0,-1.21 0.9,-2.18 2.1,-2.18l0 0zm10.34 0l0.17 0c1.2,0 2.19,0.97 2.19,2.18 0,1.21 -0.99,2.18 -2.19,2.18 -1.2,0 -2.27,-0.97 -2.27,-2.18 0,-1.21 0.9,-2.18 2.1,-2.18l0 0zm10.34 0l0.17 0c1.2,0 2.19,0.97 2.19,2.18 0,1.21 -0.99,2.18 -2.19,2.18l-0.17 0c-1.2,0 -2.19,-0.97 -2.19,-2.18 0,-1.21 0.99,-2.18 2.19,-2.18l0 0zm10.33 0l0.18 0c1.2,0 2.18,0.97 2.18,2.18 0,1.21 -0.98,2.18 -2.18,2.18l-0.18 0c-1.2,0 -2.18,-0.97 -2.18,-2.18 0,-1.21 0.98,-2.18 2.18,-2.18l0 0zm10.34 0l0.17 0c1.2,0 2.19,0.97 2.19,2.18 0,1.21 -0.99,2.18 -2.19,2.18 -1.2,0 -2.27,-0.97 -2.27,-2.18 0,-1.21 0.9,-2.18 2.1,-2.18l0 0zm10.34 0l0.17 0c1.2,0 2.19,0.97 2.19,2.18 0,1.21 -0.99,2.18 -2.19,2.18 -1.2,0 -2.27,-0.97 -2.27,-2.18 0,-1.21 0.9,-2.18 2.1,-2.18l0 0zm10.38 0l0.13 0c1.2,0 2.19,0.97 2.19,2.18 0,1.21 -0.99,2.18 -2.19,2.18 -1.2,0 -2.28,-0.97 -2.28,-2.18 0,-1.21 0.9,-2.18 2.15,-2.18l0 0zm10.34 0l0.12 0c1.21,0 2.19,0.97 2.19,2.18 0,1.21 -0.98,2.18 -2.19,2.18l-0.12 0c-1.21,0 -2.19,-0.97 -2.19,-2.18 0,-1.21 0.98,-2.18 2.19,-2.18l0 0zm10.33 0l0.13 0c1.2,0 2.19,0.97 2.19,2.18 0,1.21 -0.99,2.18 -2.19,2.18 -1.2,0 -2.27,-0.97 -2.27,-2.18 0,-1.21 0.94,-2.18 2.14,-2.18l0 0zm10.34 0l0.13 0c1.2,0 2.19,0.97 2.19,2.18 0,1.21 -0.99,2.18 -2.19,2.18 -1.2,0 -2.23,-0.97 -2.23,-2.18 0,-1.21 0.9,-2.18 2.1,-2.18l0 0zm10.34 0l0.13 0c1.2,0 2.18,0.97 2.18,2.18 0,1.21 -0.98,2.18 -2.18,2.18 -1.2,0 -2.23,-0.97 -2.23,-2.18 0,-1.21 0.9,-2.18 2.1,-2.18l0 0zm10.33 0l0.13 0c2.88,0 2.88,4.36 0,4.36l-0.13 0c-1.2,0 -2.18,-0.97 -2.18,-2.18 0,-1.21 0.98,-2.18 2.18,-2.18l0 0zm-297.97 -111.14c-1.2,0 -2.19,0.98 -2.19,2.18l0 0.15c0,1.2 0.99,2.18 2.19,2.18 1.2,0 2.18,-0.98 2.18,-2.18l0 -0.15c0,-1.2 -0.98,-2.18 -2.18,-2.18l0 0zm0 10.34c-1.2,0 -2.19,0.98 -2.19,2.18 0,1.21 0.99,2.26 2.19,2.26 1.2,0 2.18,-0.91 2.18,-2.11l0 -0.15c0,-1.2 -0.98,-2.18 -2.18,-2.18l0 0zm0 10.34c-1.2,0 -2.19,0.98 -2.19,2.18 0,1.21 0.99,2.26 2.19,2.26 1.2,0 2.18,-0.91 2.18,-2.11l0 -0.15c0,-1.2 -0.98,-2.18 -2.18,-2.18l0 0zm0 10.34c-1.2,0 -2.19,0.98 -2.19,2.18 0,1.21 0.99,2.26 2.19,2.26 1.2,0 2.18,-0.91 2.18,-2.11l0 -0.15c0,-1.2 -0.98,-2.18 -2.18,-2.18l0 0zm0 10.34c-1.2,0 -2.19,0.98 -2.19,2.18l0 0.15c0,1.2 0.99,2.18 2.19,2.18 1.2,0 2.18,-0.98 2.18,-2.18l0 -0.15c0,-1.2 -0.98,-2.18 -2.18,-2.18l0 0zm0 10.33c-1.2,0 -2.19,0.98 -2.19,2.19l0 0.15c0,1.2 0.99,2.18 2.19,2.18 1.2,0 2.18,-0.98 2.18,-2.18l0 -0.15c0,-1.21 -0.98,-2.19 -2.18,-2.19l0 0zm0 10.35c-1.2,0 -2.19,0.97 -2.19,2.18l0 0.15c0,1.2 0.99,2.18 2.19,2.18 1.2,0 2.18,-0.98 2.18,-2.18l0 -0.15c0,-1.21 -0.98,-2.18 -2.18,-2.18l0 0zm0 10.34c-1.2,0 -2.19,0.97 -2.19,2.18l0 0.14c0,1.21 0.99,2.19 2.19,2.19 1.2,0 2.18,-0.98 2.18,-2.19l0 -0.14c0,-1.21 -0.98,-2.18 -2.18,-2.18l0 0zm1.03 10.25c-0.18,0 -0.35,0.02 -0.52,0.06 -1.16,0.28 -1.89,1.46 -1.59,2.63 0,0 0.05,0.15 0.05,0.15 0.26,1.17 1.46,1.89 2.61,1.61 1.16,-0.29 1.89,-1.47 1.59,-2.64l-2.1 0.51 2.1 -0.64c-0.26,-1.01 -1.16,-1.68 -2.14,-1.68l0 0zm3.81 9.58c-0.38,0 -0.77,0.09 -1.11,0.29 -1.03,0.6 -1.37,1.94 -0.77,2.98 0.6,1.05 1.93,1.47 3,0.87 1.03,-0.6 1.41,-1.88 0.81,-2.92l-0.04 -0.12c-0.43,-0.71 -1.16,-1.1 -1.89,-1.1l0 0zm6.27 8.16c-0.56,0 -1.16,0.24 -1.59,0.69 -0.82,0.88 -0.77,2.26 0.09,3.09 0.9,0.82 2.31,0.83 3.13,-0.02 0.81,-0.86 0.85,-2.17 0.04,-3.01 -0.04,-0.02 -0.17,-0.14 -0.17,-0.15 -0.43,-0.4 -0.95,-0.6 -1.5,-0.6l0 0zm8.27 6.14c-0.77,0 -1.54,0.42 -1.93,1.16 -0.55,1.06 -0.17,2.38 0.9,2.96 1.08,0.57 2.45,0.22 3.01,-0.84 0.6,-1.06 0.25,-2.36 -0.77,-2.93l-0.18 -0.09c-0.34,-0.17 -0.68,-0.26 -1.03,-0.26l0 0zm9.66 3.63c-1.03,0 -1.93,0.71 -2.15,1.75 -0.26,1.18 0.52,2.33 1.72,2.57 1.16,0.25 2.36,-0.49 2.61,-1.66 0.26,-1.17 -0.38,-2.31 -1.58,-2.57 0,-0.01 -0.18,-0.04 -0.18,-0.04 -0.12,-0.03 -0.3,-0.05 -0.42,-0.05l0 0zm10.42 0.89l-0.17 0c-1.2,0 -2.15,0.98 -2.15,2.19 0,1.2 0.95,2.18 2.15,2.18l0.17 0c1.2,0 2.19,-0.98 2.19,-2.18 0,-1.21 -0.99,-2.19 -2.19,-2.19l0 0zm-39.46 -117c-1.2,0 -2.19,-0.98 -2.19,-2.18l0 -0.15c0,-1.2 0.99,-2.18 2.19,-2.18 1.2,0 2.18,0.98 2.18,2.18l0 0.15c0,1.2 -0.98,2.18 -2.18,2.18l0 0zm0 -10.34c-1.2,0 -2.19,-0.98 -2.19,-2.18l0 -0.15c0,-1.21 0.99,-2.18 2.19,-2.18 1.2,0 2.18,0.97 2.18,2.18l0 0.15c0,1.2 -0.98,2.18 -2.18,2.18l0 0zm0 -10.34c-1.2,0 -2.19,-0.98 -2.19,-2.18l0 -0.15c0,-1.21 0.99,-2.18 2.19,-2.18 1.2,0 2.18,0.97 2.18,2.18l0 0.15c0,1.2 -0.98,2.18 -2.18,2.18l0 0zm0.04 -20.61c-1.2,0 -2.19,-0.97 -2.19,-2.18l0 -0.14c0,-1.21 0.99,-2.19 2.19,-2.19 1.2,0 2.19,0.98 2.19,2.19l0 0.14c0,1.21 -0.99,2.18 -2.19,2.18l0 0zm0 -10.34c-1.2,0 -2.19,-0.97 -2.19,-2.18 0,-1.2 0.99,-2.26 2.19,-2.26 1.2,0 2.19,0.91 2.19,2.11l0 0.15c0,1.21 -0.99,2.18 -2.19,2.18l0 0zm0 -10.33c-1.2,0 -2.19,-0.99 -2.19,-2.19 0,-1.21 0.99,-2.26 2.19,-2.26 1.2,0 2.19,0.91 2.19,2.12l0 0.14c0,1.2 -0.99,2.19 -2.19,2.19l0 0zm0 -10.34c-1.2,0 -2.19,-0.98 -2.19,-2.19 0,-1.2 0.99,-2.26 2.19,-2.26 1.2,0 2.19,0.91 2.19,2.12l0 0.14c0,1.21 -0.99,2.19 -2.19,2.19l0 0zm0 -10.34c-1.2,0 -2.19,-0.99 -2.19,-2.19l0 -0.14c0,-1.21 0.99,-2.19 2.19,-2.19 1.2,0 2.19,0.98 2.19,2.19l0 0.14c0,1.2 -0.99,2.19 -2.19,2.19l0 0zm0 -10.34c-1.2,0 -2.19,-0.98 -2.19,-2.19l0 -0.14c0,-1.21 0.99,-2.19 2.19,-2.19 1.2,0 2.19,0.98 2.19,2.19l0 0.14c0,1.21 -0.99,2.19 -2.19,2.19l0 0zm0 -10.35c-1.2,0 -2.19,-0.97 -2.19,-2.18l0 -0.14c0,-1.21 0.99,-2.19 2.19,-2.19 1.2,0 2.19,0.98 2.19,2.19l0 0.14c0,1.21 -0.99,2.19 -2.19,2.18l0 0zm0 -10.33c-1.2,0 -2.19,-0.98 -2.19,-2.19l0 -0.14c0,-1.21 0.99,-2.18 2.19,-2.18 1.2,0 2.19,0.97 2.19,2.18l0 0.14c0,1.21 -0.99,2.19 -2.19,2.19l0 0zm1.03 -10.25c-0.17,0 -0.34,-0.03 -0.52,-0.07 -1.15,-0.28 -1.88,-1.45 -1.63,-2.63 0,0 0.05,-0.14 0.05,-0.15 0.3,-1.17 1.46,-1.89 2.66,-1.6 1.15,0.28 1.88,1.46 1.58,2.63l-2.1 -0.51 2.06 0.65c-0.21,1 -1.11,1.68 -2.1,1.68l0 0zm3.77 -9.59c-0.34,0 -0.72,-0.09 -1.07,-0.29 -1.03,-0.6 -1.41,-1.93 -0.81,-2.98 0.6,-1.05 1.97,-1.47 3.04,-0.87 1.03,0.61 1.42,1.88 0.82,2.93l-0.09 0.12c-0.38,0.7 -1.11,1.09 -1.89,1.09l0 0zm6.31 -8.16c-0.6,0 -1.16,-0.23 -1.59,-0.69 -0.81,-0.88 -0.77,-2.26 0.09,-3.09 0.86,-0.81 2.27,-0.83 3.13,0.02 0.81,0.86 0.86,2.17 0,3.01 0,0.02 -0.13,0.14 -0.13,0.15 -0.43,0.4 -0.99,0.6 -1.5,0.6l0 0zm8.28 -6.14c-0.77,0 -1.55,-0.42 -1.93,-1.16 -0.56,-1.06 -0.17,-2.38 0.9,-2.95 1.03,-0.58 2.44,-0.22 3,0.83 0.6,1.06 0.26,2.36 -0.81,2.94l-0.13 0.08c-0.35,0.18 -0.69,0.26 -1.03,0.26l0 0zm9.65 -3.63c-1.03,0 -1.93,-0.71 -2.15,-1.74 -0.25,-1.18 0.52,-2.34 1.68,-2.58 1.2,-0.25 2.4,0.49 2.66,1.66 0.25,1.17 -0.39,2.31 -1.59,2.58 0,0 -0.17,0.04 -0.17,0.04 -0.13,0.03 -0.3,0.04 -0.43,0.04l0 0zm20.76 -0.89l-0.17 0c-1.2,0 -2.19,-0.98 -2.19,-2.18 0,-1.21 0.99,-2.18 2.19,-2.18l0.17 0c1.2,0 2.14,0.97 2.14,2.18 0,1.2 -0.94,2.18 -2.14,2.18l0 0zm-10.34 0l-0.17 0c-1.2,0 -2.19,-0.98 -2.19,-2.18 0,-1.21 0.99,-2.18 2.19,-2.18l0.17 0c1.2,0 2.19,0.97 2.19,2.18 0,1.2 -0.99,2.18 -2.19,2.18l0 0zm-39.5 121.3c-1.2,0 -2.19,-0.97 -2.19,-2.18l0 -0.15c0,-2.87 4.37,-2.87 4.37,0l0 0.15c0,1.21 -0.98,2.18 -2.18,2.18l0 0z"/>
  </g>
  <path class="fil12" d="M932.11 400.74c0,-8.28 1.87,-15.77 5.6,-22.48 3.74,-6.71 9.01,-12.04 15.8,-15.95 6.8,-3.93 14.49,-5.88 23.05,-5.88 8.58,0 16.27,1.95 23.07,5.88 6.79,3.91 12.04,9.24 15.76,15.95 3.72,6.71 5.57,14.2 5.57,22.48 0,6.22 -1.09,12.06 -3.27,17.51 -2.2,5.43 -5.21,10.13 -9.05,14.08 -3.87,3.94 -8.57,7.06 -14.1,9.31 -5.55,2.26 -11.53,3.4 -17.96,3.4 -8.58,0 -16.27,-1.93 -23.07,-5.8 -6.79,-3.88 -12.06,-9.19 -15.8,-15.94 -3.73,-6.74 -5.6,-14.26 -5.6,-22.56zm17.94 0c0,8.17 2.51,14.93 7.51,20.24 5,5.3 11.35,7.95 19.02,7.95 7.65,0 13.97,-2.65 18.96,-7.95 4.98,-5.31 7.48,-12.07 7.48,-20.24 0,-8.08 -2.5,-14.79 -7.48,-20.14 -4.99,-5.37 -11.31,-8.06 -18.96,-8.06 -7.67,0 -14.02,2.69 -19.02,8.06 -5,5.35 -7.51,12.06 -7.51,20.14z"/>
  <path id="_1_2" class="fil12" d="M1032.76 443.45l0 -85.43 27.18 0c8.5,0 15.32,2.05 20.44,6.16 5.11,4.11 7.67,9.6 7.67,16.5 0,3.9 -0.93,7.55 -2.83,10.9 -1.87,3.36 -4.37,5.9 -7.5,7.61 4.01,1.71 7.16,4.23 9.46,7.63 2.3,3.37 3.43,7.22 3.43,11.55 0,4.07 -0.77,7.71 -2.33,10.93 -1.57,3.23 -3.71,5.85 -6.41,7.89 -2.69,2.03 -5.8,3.58 -9.3,4.66 -3.52,1.07 -7.24,1.6 -11.21,1.6l-28.6 0zm17.21 -14.89l10.5 0c3.56,0 6.53,-1.01 8.91,-3.03 2.36,-2.01 3.54,-4.7 3.54,-8.09 0,-3.44 -1.18,-6.13 -3.52,-8.06 -2.34,-1.93 -5.33,-2.91 -8.93,-2.91l-10.5 0 0 22.09zm0 -35.76l9.77 0c3.03,0 5.55,-0.93 7.58,-2.82 2.02,-1.9 3.03,-4.34 3.03,-7.31 0,-2.93 -0.99,-5.29 -2.97,-7.08 -1.99,-1.79 -4.61,-2.68 -7.87,-2.68l-9.54 0 0 19.89z"/>
  <path id="_2_3" class="fil12" d="M1102.56 443.45l0 -85.43 25.73 0c9.01,0 16.09,2.4 21.23,7.2 5.15,4.82 7.71,10.86 7.71,18.16 0,5.05 -1.16,9.52 -3.45,13.45 -2.3,3.91 -5.46,6.96 -9.48,9.13l20.26 37.49 -19.06 0 -16.56 -33.44 -9.18 0 0 33.44 -17.2 0zm17.2 -47.96l8.04 0c3.29,0 6.08,-1 8.34,-3.01 2.26,-2 3.4,-4.82 3.4,-8.42 0,-3.42 -1.12,-6.15 -3.36,-8.14 -2.26,-2.01 -5.31,-3.01 -9.21,-3.01l-7.21 0 0 22.58z"/>
  <polygon id="_3_4" class="fil12" points="1173.95,443.45 1173.95,358.02 1191.16,358.02 1191.16,443.45 "/>
  <path id="_4_5" class="fil12" d="M1202.98 400.72c0,-6.09 1.1,-11.84 3.32,-17.25 2.2,-5.44 5.23,-10.13 9.07,-14.1 3.87,-3.99 8.56,-7.12 14.1,-9.46 5.55,-2.32 11.49,-3.48 17.84,-3.48 4.21,0 8.24,0.49 12.08,1.45 3.87,0.95 7.16,2.21 9.93,3.76 2.74,1.52 5.06,3.05 6.93,4.54 1.86,1.48 3.42,2.99 4.7,4.49l-10.82 11.23c-0.83,-0.9 -1.81,-1.81 -2.93,-2.69 -1.1,-0.89 -2.56,-1.89 -4.39,-2.99 -1.83,-1.11 -4.03,-1.99 -6.61,-2.66 -2.59,-0.67 -5.31,-1.02 -8.16,-1.02 -8.2,0 -14.75,2.69 -19.69,8.04 -4.94,5.35 -7.43,12.06 -7.43,20.14 0,8.54 2.55,15.37 7.65,20.52 5.11,5.13 11.6,7.69 19.47,7.69 5.19,0 9.54,-0.73 13,-2.22 3.48,-1.46 5.98,-2.97 7.48,-4.47l0 -10.52 -16.23 0 0 -14.52 32.34 0 0 33.8c-2.54,2.18 -4.96,4.05 -7.28,5.58 -2.34,1.52 -5,2.97 -8.01,4.33 -3.01,1.36 -6.37,2.4 -10.03,3.09 -3.66,0.69 -7.67,1.04 -12,1.04 -4.8,0 -9.42,-0.67 -13.88,-1.99 -4.45,-1.35 -8.52,-3.3 -12.18,-5.88 -3.68,-2.59 -6.88,-5.64 -9.62,-9.18 -2.75,-3.54 -4.86,-7.64 -6.39,-12.32 -1.5,-4.68 -2.26,-9.69 -2.26,-14.95z"/>
  <path id="_5_6" class="fil12" d="M1291.39 443.45l30.27 -85.43 18.06 0 30.27 85.43 -17.33 0 -7.41 -21.97 -29.07 0 -7.46 21.97 -17.33 0zm29.43 -36.25l19.92 0 -10.03 -30.73 -9.89 30.73z"/>
  <path id="_6_7" class="fil12" d="M1379.12 443.45l0 -85.43 22.7 0c14.02,0 25.09,3.78 33.16,11.33 8.08,7.57 12.12,18 12.12,31.33 0,13.56 -4.02,24.08 -12.1,31.57 -8.05,7.46 -19.12,11.2 -33.18,11.2l-22.7 0zm17.21 -14.89l6.08 0c8.3,0 14.83,-2.38 19.59,-7.16 4.78,-4.78 7.16,-11.69 7.16,-20.72 0,-8.83 -2.4,-15.69 -7.2,-20.51 -4.82,-4.84 -11.33,-7.26 -19.55,-7.26l-6.08 0 0 55.65z"/>
  <path id="_7_8" class="fil12" d="M1454.53 400.74c0,-8.28 1.87,-15.77 5.59,-22.48 3.75,-6.71 9.01,-12.04 15.81,-15.95 6.79,-3.93 14.48,-5.88 23.05,-5.88 8.58,0 16.27,1.95 23.06,5.88 6.8,3.91 12.05,9.24 15.77,15.95 3.72,6.71 5.57,14.2 5.57,22.48 0,6.22 -1.1,12.06 -3.27,17.51 -2.2,5.43 -5.21,10.13 -9.05,14.08 -3.87,3.94 -8.57,7.06 -14.1,9.31 -5.55,2.26 -11.54,3.4 -17.96,3.4 -8.59,0 -16.28,-1.93 -23.07,-5.8 -6.8,-3.88 -12.06,-9.19 -15.81,-15.94 -3.72,-6.74 -5.59,-14.26 -5.59,-22.56zm17.94 0c0,8.17 2.5,14.93 7.51,20.24 5,5.3 11.35,7.95 19.02,7.95 7.65,0 13.97,-2.65 18.96,-7.95 4.98,-5.31 7.48,-12.07 7.48,-20.24 0,-8.08 -2.5,-14.79 -7.48,-20.14 -4.99,-5.37 -11.31,-8.06 -18.96,-8.06 -7.67,0 -14.02,2.69 -19.02,8.06 -5.01,5.35 -7.51,12.06 -7.51,20.14z"/>
  <path id="_8_9" class="fil12" d="M1554.45 434.81c0,-2.89 0.89,-5.37 2.66,-7.43 1.77,-2.05 4.19,-3.09 7.22,-3.09 3.04,0 5.44,1.04 7.16,3.09 1.73,2.06 2.61,4.54 2.61,7.43 0,2.83 -0.88,5.23 -2.61,7.22 -1.72,2.01 -4.12,3.01 -7.16,3.01 -3.03,0 -5.45,-1 -7.22,-3.01 -1.77,-1.99 -2.66,-4.39 -2.66,-7.22zm0.61 -76.79l17.7 0 -0.49 61.15 -15.87 0 -1.34 -61.15z"/>
  <g id="_2386399493680">
   <g>
    <path class="fil12" d="M339.32 735.81l-13.17 0 0 -47.22 13.17 0 0 47.22zm19.4 -26.33l0 26.33 -13.16 0 0 -47.22 13.16 0 0 5.27 0 0 0 15.41c0,0.07 0,0.14 0,0.21zm3.52 -18.58c3.05,-2.07 6.35,-3.1 9.91,-3.1 4.97,0 9.14,1.76 12.51,5.27 3.36,3.51 5.04,8.19 5.04,14.04l0 28.7 -13.16 0 0 -26.68c0,-7.26 -2.66,-10.89 -7.99,-10.89 -2.38,0 -4.48,0.78 -6.31,2.33l0 -9.67zm52.09 45.61c-5.59,0 -10.58,-2.37 -14.96,-7.11 -4.39,-4.74 -6.59,-10.62 -6.59,-17.64 0,-7.02 2.14,-12.77 6.41,-17.25 4.27,-4.47 9.27,-6.71 15.01,-6.71 4.08,0 7.62,1.02 10.63,3.06l0 11.38c-2.06,-2.25 -4.55,-3.38 -7.47,-3.38 -3.1,0 -5.77,1.29 -7.99,3.86 -2.22,2.57 -3.33,5.76 -3.33,9.57 0,3.8 1.14,6.91 3.42,9.34 2.28,2.43 4.94,3.64 7.98,3.64 3.05,0 5.64,-1.21 7.77,-3.64 2.14,-2.43 3.2,-5.56 3.2,-9.39 0,-0.55 -0.02,-1.08 -0.06,-1.6l0 -32.82 -0.11 0 0 -7.13 13.16 0 0 65.12 -13.16 0 0 -6.23c-3.69,4.62 -8.32,6.93 -13.91,6.93zm74.21 -7.55c-5.32,5.03 -11.57,7.55 -18.74,7.55 -7.16,0 -13.09,-2.21 -17.77,-6.63 -4.68,-4.41 -7.02,-10.34 -7.02,-17.77 0,-7.43 2.39,-13.34 7.15,-17.73 4.77,-4.39 10.4,-6.58 16.9,-6.58 6.49,0 12.01,1.96 16.54,5.88 4.53,3.92 6.8,9.3 6.8,16.15l0 7.02 -31 0 0 -9.39 17.66 0c-0.29,-2.81 -1.34,-4.97 -3.16,-6.49 -1.81,-1.53 -4.02,-2.29 -6.62,-2.29 -2.61,0 -4.99,0.79 -7.16,2.37 -2.16,1.58 -3.42,3.72 -3.77,6.41 -0.72,4.76 -0.52,8.68 -0.35,9.39 0.41,2.57 1.76,4.68 4.04,6.32 2.28,1.64 4.85,2.46 7.72,2.46 4.62,0 8.43,-1.55 11.41,-4.66l7.37 7.99zm25.14 -28.1l8.54 -12.22 0.03 -0.05 15.45 0 -16.24 23.08 16.85 24.14 -15.71 0 -9.21 -12.99 -8.96 12.99 -15.17 0 24.42 -34.95zm65.01 34.95l-12.37 0 0 -5.71c-3.4,4.27 -7.6,6.41 -12.6,6.41 -5,0 -9.2,-1.45 -12.59,-4.35 -3.4,-2.89 -5.09,-6.75 -5.09,-11.58 0,-4.83 1.75,-8.44 5.26,-10.84 3.51,-2.4 8.31,-3.6 14.4,-3.6l6.25 0 0 9.39 -4.76 0c-5.27,0 -7.9,1.64 -7.9,4.92 0,1.69 0.63,3 1.89,3.9 1.25,0.91 3.05,1.36 5.39,1.36 2.34,0 4.41,-0.71 6.19,-2.15 1.79,-1.43 2.68,-3.35 2.68,-5.74l0.03 -2.11 0.06 -9.83c0,-5.03 -2.67,-7.55 -7.99,-7.55 -2.28,0 -4.7,0.46 -7.24,1.36 -2.55,0.91 -4.7,2.04 -6.45,3.38l-5.88 -8.51c6.2,-4.51 13.28,-6.76 21.24,-6.76 5.73,0 10.41,1.43 14.04,4.3 3.63,2.87 5.44,7.4 5.44,13.6l0 30.11z"/>
    <circle class="fil0" cx="332.74" cy="677.09" r="7.72"/>
    <circle class="fil0" cx="589.99" cy="728.79" r="7.72"/>
    <polygon class="fil0" points="504.16,709.4 511.98,698.21 505.84,688.59 490.13,688.59 "/>
    <path class="fil13" d="M617.48 688.71c8.43,0 14.89,2.06 19.4,6.19 4.51,4.12 6.76,9.86 6.76,17.2 0,7.35 -2.2,13.16 -6.59,17.44 -4.4,4.29 -11.1,6.43 -20.11,6.43l-16.16 0 0 -47.26 16.7 0zm0.54 37.93c4.82,0 8.53,-1.22 11.12,-3.65 2.59,-2.44 3.89,-5.97 3.89,-10.62 0,-4.64 -1.3,-8.21 -3.89,-10.71 -2.59,-2.5 -6.57,-3.76 -11.93,-3.76l-5.89 0 0 28.74 6.7 0zm67.21 -14.57c0,-4.22 -1.35,-7.81 -4.06,-10.78 -2.7,-2.98 -6.03,-4.47 -9.97,-4.47 -3.94,0 -7.27,1.49 -9.97,4.47 -2.71,2.97 -4.06,6.56 -4.06,10.78 0,4.21 1.35,7.8 4.06,10.75 2.7,2.95 6.03,4.43 9.97,4.43 3.94,0 7.27,-1.48 9.97,-4.43 2.71,-2.95 4.06,-6.54 4.06,-10.75zm3.58 17.37c-4.78,4.67 -10.66,7 -17.64,7 -6.99,0 -12.87,-2.33 -17.65,-7 -4.78,-4.66 -7.17,-10.46 -7.17,-17.4 0,-6.95 2.39,-12.75 7.17,-17.41 4.78,-4.67 10.66,-7 17.65,-7 6.98,0 12.86,2.33 17.64,7 4.78,4.66 7.17,10.46 7.17,17.41 0,6.94 -2.39,12.74 -7.17,17.4zm34.09 -2.8c5.18,0 9.42,-2.05 12.71,-6.15l6.76 6.96c-5.37,6.04 -11.69,9.06 -18.97,9.06 -7.28,0 -13.27,-2.3 -17.98,-6.9 -4.71,-4.59 -7.07,-10.4 -7.07,-17.41 0,-7 2.4,-12.85 7.21,-17.54 4.79,-4.69 10.67,-7.03 17.61,-7.03 7.75,0 14.24,2.95 19.47,8.86l-6.56 7.43c-3.34,-4.14 -7.48,-6.22 -12.44,-6.22 -3.97,0 -7.36,1.3 -10.18,3.89 -2.81,2.59 -4.22,6.08 -4.22,10.48 0,4.39 1.33,7.92 3.99,10.58 2.66,2.66 5.88,3.99 9.67,3.99z"/>
   </g>
   <g>
    <path class="fil12" d="M1770.51 735.81l-13.17 0 0 -47.22 13.17 0 0 47.22zm19.4 -26.33l0 26.33 -13.16 0 0 -47.22 13.16 0 0 5.27 0 -0.01 0 15.42c0,0.07 0,0.14 0,0.21zm3.52 -18.58c3.05,-2.07 6.35,-3.1 9.91,-3.1 4.97,0 9.14,1.76 12.5,5.27 3.37,3.51 5.05,8.19 5.05,14.04l0 28.7 -13.16 0 0 -26.68c0,-7.26 -2.67,-10.89 -7.99,-10.89 -2.38,0 -4.48,0.78 -6.31,2.33l0 -9.67zm52.09 45.61c-5.59,0 -10.58,-2.37 -14.97,-7.11 -4.39,-4.74 -6.58,-10.62 -6.58,-17.64 0,-7.02 2.14,-12.77 6.41,-17.25 4.27,-4.47 9.27,-6.71 15.01,-6.71 4.07,0 7.62,1.02 10.63,3.06l0 11.38c-2.06,-2.25 -4.56,-3.38 -7.48,-3.38 -3.1,0 -5.76,1.29 -7.98,3.86 -2.23,2.57 -3.34,5.76 -3.34,9.57 0,3.8 1.14,6.91 3.43,9.34 2.28,2.43 4.94,3.64 7.98,3.64 3.04,0 5.63,-1.21 7.77,-3.64 2.14,-2.43 3.2,-5.56 3.2,-9.39 0,-0.55 -0.02,-1.08 -0.06,-1.6l0 -32.82 -0.11 0 0 -7.13 13.16 0 0 65.12 -13.16 0 0 -6.23c-3.69,4.62 -8.33,6.93 -13.91,6.93zm74.21 -7.55c-5.33,5.03 -11.57,7.55 -18.74,7.55 -7.17,0 -13.09,-2.21 -17.77,-6.63 -4.68,-4.41 -7.02,-10.34 -7.02,-17.77 0,-7.43 2.38,-13.34 7.15,-17.73 4.77,-4.39 10.4,-6.58 16.9,-6.58 6.49,0 12,1.96 16.54,5.88 4.53,3.92 6.8,9.3 6.8,16.15l0 7.02 -31 0 0 -9.39 17.66 0c-0.29,-2.81 -1.35,-4.97 -3.16,-6.5 -1.81,-1.52 -4.02,-2.28 -6.63,-2.28 -2.6,0 -4.98,0.79 -7.15,2.37 -2.16,1.58 -3.42,3.72 -3.77,6.41 -0.73,4.76 -0.52,8.68 -0.35,9.39 0.41,2.57 1.75,4.68 4.03,6.32 2.29,1.64 4.86,2.46 7.73,2.46 4.62,0 8.42,-1.55 11.41,-4.66l7.37 7.99zm25.14 -28.1l8.54 -12.22 0.03 -0.05 15.44 0 -16.23 23.08 16.85 24.14 -15.71 0 -9.22 -12.99 -8.95 12.99 -15.18 0 24.43 -34.95zm65.01 34.95l-12.38 0 0 -5.71c-3.39,4.27 -7.59,6.41 -12.59,6.41 -5,0 -9.2,-1.45 -12.59,-4.35 -3.4,-2.89 -5.09,-6.75 -5.09,-11.58 0,-4.83 1.75,-8.44 5.26,-10.84 3.51,-2.4 8.31,-3.6 14.39,-3.6l6.26 0 0 9.39 -4.76 0c-5.27,0 -7.9,1.64 -7.9,4.92 0,1.69 0.63,3 1.88,3.9 1.26,0.91 3.06,1.36 5.4,1.36 2.34,0 4.4,-0.71 6.19,-2.15 1.78,-1.43 2.68,-3.35 2.68,-5.75l0.02 -2.1 0.06 -9.83c0,-5.03 -2.66,-7.55 -7.98,-7.55 -2.28,0 -4.7,0.46 -7.24,1.36 -2.55,0.91 -4.7,2.04 -6.45,3.38l-5.88 -8.51c6.2,-4.51 13.28,-6.76 21.23,-6.76 5.74,0 10.42,1.43 14.05,4.3 3.62,2.87 5.44,7.4 5.44,13.6l0 30.11z"/>
    <circle class="fil14" cx="1763.92" cy="677.09" r="7.72"/>
    <circle class="fil14" cx="2021.18" cy="728.79" r="7.72"/>
    <polygon class="fil14" points="1935.35,709.4 1943.17,698.21 1937.03,688.59 1921.32,688.59 "/>
    <path class="fil15" d="M2066.63 711.9l10.62 0 0 16.77c-4.69,5.22 -11.18,7.84 -19.47,7.84 -6.94,0 -12.77,-2.3 -17.48,-6.9 -4.71,-4.6 -7.06,-10.4 -7.06,-17.41 0,-7.01 2.4,-12.85 7.2,-17.54 4.8,-4.69 10.59,-7.03 17.37,-7.03 6.78,0 12.68,2.23 17.68,6.69l-5.48 7.91c-2.11,-1.85 -4.06,-3.12 -5.84,-3.82 -1.79,-0.7 -3.71,-1.05 -5.78,-1.05 -4.02,0 -7.4,1.37 -10.15,4.09 -2.75,2.73 -4.12,6.33 -4.12,10.79 0,4.46 1.32,8.03 3.95,10.71 2.64,2.68 5.78,4.03 9.44,4.03 3.65,0 6.69,-0.7 9.12,-2.1l0 -12.98zm54.67 -23.19l0 9.4 -23.53 0 0 9.73 21.17 0 0 8.99 -21.17 0 0 9.81 24.28 0 0 9.33 -34.82 0 0 -47.26 34.07 0zm27.43 0c8.42,0 14.89,2.06 19.4,6.19 4.51,4.12 6.76,9.86 6.76,17.2 0,7.35 -2.2,13.16 -6.59,17.44 -4.4,4.29 -11.1,6.43 -20.11,6.43l-16.16 0 0 -47.26 16.7 0zm0.54 37.93c4.82,0 8.53,-1.22 11.12,-3.65 2.59,-2.44 3.89,-5.97 3.89,-10.62 0,-4.64 -1.3,-8.21 -3.89,-10.71 -2.59,-2.5 -6.57,-3.76 -11.93,-3.76l-5.89 0 0 28.74 6.7 0z"/>
   </g>
  </g>
  <g id="logo_x0020_dux-2022.eps">
   <path class="fil12" d="M1083 1027.7c0.22,0 0.33,0.11 0.33,0.33l0 1.45c0,0.22 -0.11,0.33 -0.33,0.33l-7.62 0c-0.3,0 -0.51,0.08 -0.63,0.23 -0.12,0.15 -0.18,0.36 -0.18,0.62l0 0.52c0,0.57 0.26,0.85 0.79,0.85l5.71 0c0.88,0 1.54,0.23 1.99,0.68 0.45,0.45 0.67,1.1 0.67,1.94l0 1.22c0,0.74 -0.22,1.33 -0.66,1.79 -0.43,0.46 -1.11,0.69 -2.03,0.69l-8.43 0c-0.24,0 -0.35,-0.12 -0.35,-0.34l0 -1.44c0,-0.23 0.11,-0.34 0.35,-0.34l7.99 0c0.29,0 0.5,-0.07 0.62,-0.23 0.12,-0.15 0.18,-0.36 0.18,-0.62l0 -0.62c0,-0.57 -0.26,-0.86 -0.79,-0.86l-5.7 0c-0.89,0 -1.55,-0.22 -2,-0.67 -0.44,-0.46 -0.67,-1.1 -0.67,-1.94l0 -1.11c0,-0.74 0.22,-1.34 0.66,-1.8 0.43,-0.46 1.11,-0.68 2.04,-0.68l8.06 0z"/>
   <path class="fil12" d="M1102.29 1034.16c0,0.4 0.03,0.73 0.1,1 0.06,0.27 0.17,0.48 0.33,0.64 0.15,0.15 0.35,0.27 0.61,0.33 0.26,0.07 0.59,0.1 0.98,0.1l4.52 0c0.4,0 0.72,-0.03 0.98,-0.1 0.26,-0.06 0.47,-0.18 0.62,-0.33 0.15,-0.16 0.26,-0.37 0.33,-0.64 0.06,-0.27 0.09,-0.6 0.09,-1l0 -2.28c0,-0.4 -0.03,-0.73 -0.09,-1 -0.07,-0.26 -0.18,-0.48 -0.33,-0.64 -0.15,-0.15 -0.36,-0.26 -0.62,-0.33 -0.26,-0.07 -0.58,-0.1 -0.98,-0.1l-4.52 0c-0.39,0 -0.72,0.03 -0.98,0.1 -0.26,0.07 -0.46,0.18 -0.61,0.33 -0.16,0.16 -0.27,0.38 -0.33,0.64 -0.07,0.27 -0.1,0.6 -0.1,1l0 2.28zm6.63 -6.46c0.77,0 1.43,0.07 1.97,0.22 0.54,0.14 0.99,0.38 1.33,0.7 0.34,0.32 0.58,0.73 0.73,1.24 0.16,0.5 0.23,1.12 0.23,1.85l0 2.62c0,0.73 -0.07,1.35 -0.23,1.86 -0.15,0.51 -0.39,0.93 -0.73,1.25 -0.34,0.32 -0.79,0.55 -1.33,0.69 -0.54,0.14 -1.2,0.22 -1.97,0.22l-4.7 0c-0.77,0 -1.42,-0.08 -1.96,-0.22 -0.54,-0.14 -0.98,-0.37 -1.32,-0.69 -0.34,-0.32 -0.59,-0.74 -0.74,-1.25 -0.16,-0.51 -0.24,-1.13 -0.24,-1.86l0 -2.62c0,-0.73 0.08,-1.35 0.24,-1.85 0.15,-0.51 0.4,-0.92 0.74,-1.24 0.34,-0.32 0.78,-0.56 1.32,-0.7 0.54,-0.15 1.19,-0.22 1.96,-0.22l4.7 0z"/>
   <path class="fil12" d="M1131.65 1027.7c0.22,0 0.34,0.11 0.34,0.33l0 6.07c0,0.41 0.03,0.74 0.09,1.01 0.07,0.27 0.18,0.49 0.33,0.64 0.15,0.16 0.36,0.27 0.62,0.34 0.26,0.06 0.58,0.1 0.98,0.1l6.16 0c0.22,0 0.34,0.11 0.34,0.33l0 1.49c0,0.22 -0.12,0.34 -0.34,0.34l-6.25 0c-0.77,0 -1.43,-0.08 -1.96,-0.22 -0.54,-0.14 -0.98,-0.37 -1.32,-0.69 -0.34,-0.32 -0.59,-0.74 -0.75,-1.25 -0.15,-0.51 -0.23,-1.13 -0.23,-1.86l0 -6.3c0,-0.22 0.11,-0.33 0.35,-0.33l1.64 0z"/>
   <path class="fil12" d="M1158.25 1027.7c0.22,0 0.33,0.11 0.33,0.33l0 6.07c0,0.41 0.03,0.74 0.1,1.01 0.06,0.27 0.17,0.49 0.33,0.64 0.15,0.16 0.35,0.27 0.61,0.34 0.26,0.06 0.59,0.1 0.98,0.1l4.22 0c0.39,0 0.72,-0.04 0.98,-0.1 0.26,-0.07 0.46,-0.18 0.61,-0.34 0.16,-0.15 0.26,-0.37 0.32,-0.64 0.06,-0.27 0.1,-0.6 0.1,-1.01l0 -6.07c0,-0.22 0.11,-0.33 0.33,-0.33l1.66 0c0.22,0 0.33,0.11 0.33,0.33l0 6.3c0,0.73 -0.07,1.35 -0.23,1.86 -0.15,0.51 -0.39,0.93 -0.73,1.25 -0.34,0.32 -0.78,0.55 -1.33,0.69 -0.54,0.14 -1.2,0.22 -1.97,0.22l-4.38 0c-0.77,0 -1.42,-0.08 -1.96,-0.22 -0.54,-0.14 -0.98,-0.37 -1.32,-0.69 -0.34,-0.32 -0.59,-0.74 -0.74,-1.25 -0.16,-0.51 -0.24,-1.13 -0.24,-1.86l0 -6.3c0,-0.22 0.12,-0.33 0.35,-0.33l1.65 0z"/>
   <path class="fil12" d="M1192.57 1038.97c0.25,0 0.35,0.13 0.29,0.4l-0.67 2.76c-0.07,0.24 -0.19,0.35 -0.38,0.35l-0.87 0c-0.26,0 -0.37,-0.11 -0.35,-0.35l0.24 -2.81c0.02,-0.23 0.14,-0.35 0.37,-0.35l1.37 0zm4.2 -11.27c0.22,0 0.33,0.11 0.33,0.33l0 1.49c0,0.24 -0.11,0.35 -0.33,0.35l-6.78 0c-0.39,0 -0.72,0.03 -0.98,0.1 -0.26,0.07 -0.46,0.18 -0.61,0.34 -0.15,0.15 -0.26,0.36 -0.33,0.63 -0.07,0.26 -0.1,0.6 -0.1,1l0 2.16c0,0.41 0.03,0.74 0.1,1.01 0.07,0.27 0.18,0.49 0.33,0.64 0.15,0.16 0.35,0.27 0.61,0.34 0.26,0.06 0.59,0.1 0.98,0.1l6.78 0c0.22,0 0.33,0.11 0.33,0.33l0 1.49c0,0.22 -0.11,0.34 -0.33,0.34l-6.87 0c-0.77,0 -1.42,-0.08 -1.96,-0.22 -0.54,-0.14 -0.98,-0.37 -1.31,-0.69 -0.34,-0.32 -0.59,-0.74 -0.75,-1.25 -0.16,-0.51 -0.24,-1.13 -0.24,-1.86l0 -2.62c0,-0.73 0.08,-1.35 0.24,-1.85 0.16,-0.51 0.41,-0.92 0.75,-1.24 0.33,-0.32 0.77,-0.56 1.31,-0.7 0.54,-0.15 1.19,-0.22 1.96,-0.22l6.87 0z"/>
   <path class="fil12" d="M1216.21 1027.04c-0.12,0 -0.2,-0.03 -0.23,-0.1 -0.03,-0.06 -0.05,-0.18 -0.05,-0.34 0,-0.41 0.04,-0.76 0.11,-1.03 0.07,-0.28 0.18,-0.5 0.34,-0.66 0.15,-0.16 0.34,-0.27 0.59,-0.34 0.24,-0.07 0.53,-0.1 0.87,-0.1 0.54,0 1.01,0.07 1.4,0.22 0.39,0.15 0.76,0.36 1.11,0.63 0.17,0.15 0.33,0.26 0.48,0.35 0.15,0.08 0.38,0.12 0.67,0.12 0.15,0 0.28,-0.01 0.37,-0.04 0.09,-0.03 0.16,-0.09 0.2,-0.17 0.05,-0.08 0.08,-0.19 0.1,-0.32 0.02,-0.14 0.03,-0.31 0.03,-0.52 0.01,-0.22 0.15,-0.33 0.41,-0.33l0.87 0c0.11,0 0.18,0.03 0.22,0.1 0.04,0.07 0.05,0.18 0.05,0.34 0,0.42 -0.03,0.76 -0.1,1.04 -0.07,0.27 -0.19,0.49 -0.34,0.65 -0.16,0.16 -0.36,0.28 -0.61,0.34 -0.24,0.07 -0.53,0.1 -0.86,0.1 -0.55,0 -1.02,-0.07 -1.4,-0.22 -0.39,-0.15 -0.75,-0.36 -1.1,-0.63 -0.17,-0.14 -0.34,-0.26 -0.49,-0.34 -0.16,-0.09 -0.39,-0.13 -0.68,-0.13 -0.29,0 -0.48,0.07 -0.56,0.22 -0.08,0.15 -0.12,0.42 -0.12,0.83 -0.01,0.22 -0.16,0.33 -0.43,0.33l-0.85 0zm-0.66 7.12c0,0.4 0.04,0.73 0.1,1 0.07,0.27 0.18,0.48 0.33,0.64 0.15,0.15 0.36,0.27 0.62,0.33 0.25,0.07 0.58,0.1 0.98,0.1l4.52 0c0.39,0 0.72,-0.03 0.98,-0.1 0.26,-0.06 0.46,-0.18 0.61,-0.33 0.15,-0.16 0.26,-0.37 0.33,-0.64 0.07,-0.27 0.1,-0.6 0.1,-1l0 -2.28c0,-0.4 -0.03,-0.73 -0.1,-1 -0.07,-0.26 -0.18,-0.48 -0.33,-0.64 -0.15,-0.15 -0.35,-0.26 -0.61,-0.33 -0.26,-0.07 -0.59,-0.1 -0.98,-0.1l-4.52 0c-0.4,0 -0.73,0.03 -0.98,0.1 -0.26,0.07 -0.47,0.18 -0.62,0.33 -0.15,0.16 -0.26,0.38 -0.33,0.64 -0.06,0.27 -0.1,0.6 -0.1,1l0 2.28zm6.64 -6.46c0.77,0 1.42,0.07 1.97,0.22 0.54,0.14 0.98,0.38 1.32,0.7 0.34,0.32 0.59,0.73 0.74,1.24 0.15,0.5 0.23,1.12 0.23,1.85l0 2.62c0,0.73 -0.08,1.35 -0.23,1.86 -0.15,0.51 -0.4,0.93 -0.74,1.25 -0.34,0.32 -0.78,0.55 -1.32,0.69 -0.55,0.14 -1.2,0.22 -1.97,0.22l-4.7 0c-0.78,0 -1.43,-0.08 -1.97,-0.22 -0.53,-0.14 -0.97,-0.37 -1.31,-0.69 -0.34,-0.32 -0.59,-0.74 -0.75,-1.25 -0.16,-0.51 -0.23,-1.13 -0.23,-1.86l0 -2.62c0,-0.73 0.07,-1.35 0.23,-1.85 0.16,-0.51 0.41,-0.92 0.75,-1.24 0.34,-0.32 0.78,-0.56 1.31,-0.7 0.54,-0.15 1.19,-0.22 1.97,-0.22l4.7 0z"/>
   <path class="fil12" d="M1253.79 1027.7c0.23,0 0.34,0.11 0.34,0.33l0 1.45c0,0.22 -0.11,0.33 -0.34,0.33l-6.65 0c-0.4,0 -0.73,0.03 -0.98,0.1 -0.26,0.07 -0.47,0.18 -0.63,0.33 -0.16,0.16 -0.26,0.38 -0.33,0.64 -0.06,0.27 -0.09,0.6 -0.09,1l0 0.15 8.6 0c0.22,0 0.33,0.11 0.33,0.34l0 1.2c0,0.22 -0.11,0.33 -0.33,0.33l-8.6 0 0 0.26c0,0.4 0.03,0.73 0.09,1 0.07,0.27 0.17,0.48 0.33,0.64 0.16,0.15 0.37,0.27 0.63,0.33 0.25,0.07 0.58,0.1 0.98,0.1l6.65 0c0.23,0 0.34,0.11 0.34,0.34l0 1.44c0,0.22 -0.11,0.34 -0.34,0.34l-6.7 0c-0.77,0 -1.42,-0.08 -1.96,-0.22 -0.54,-0.14 -0.98,-0.37 -1.32,-0.69 -0.34,-0.32 -0.59,-0.74 -0.74,-1.25 -0.16,-0.51 -0.24,-1.13 -0.24,-1.86l0 -2.62c0,-0.73 0.08,-1.35 0.24,-1.85 0.15,-0.51 0.4,-0.92 0.74,-1.24 0.34,-0.32 0.78,-0.56 1.32,-0.7 0.54,-0.15 1.19,-0.22 1.96,-0.22l6.7 0z"/>
   <path class="fil12" d="M1281.08 1027.7c0.22,0 0.33,0.11 0.33,0.33l0 1.45c0,0.22 -0.11,0.33 -0.33,0.33l-7.62 0c-0.3,0 -0.51,0.08 -0.63,0.23 -0.12,0.15 -0.18,0.36 -0.18,0.62l0 0.52c0,0.57 0.26,0.85 0.79,0.85l5.71 0c0.88,0 1.54,0.23 1.99,0.68 0.44,0.45 0.67,1.1 0.67,1.94l0 1.22c0,0.74 -0.22,1.33 -0.66,1.79 -0.43,0.46 -1.11,0.69 -2.03,0.69l-8.43 0c-0.24,0 -0.35,-0.12 -0.35,-0.34l0 -1.44c0,-0.23 0.11,-0.34 0.35,-0.34l7.98 0c0.3,0 0.51,-0.07 0.63,-0.23 0.12,-0.15 0.18,-0.36 0.18,-0.62l0 -0.62c0,-0.57 -0.26,-0.86 -0.79,-0.86l-5.71 0c-0.88,0 -1.54,-0.22 -1.99,-0.67 -0.45,-0.46 -0.67,-1.1 -0.67,-1.94l0 -1.11c0,-0.74 0.22,-1.34 0.66,-1.8 0.43,-0.46 1.11,-0.68 2.03,-0.68l8.07 0z"/>
   <path class="fil12" d="M1328.71 1027.7c0.23,0 0.35,0.11 0.35,0.33l0 1.45c0,0.22 -0.12,0.33 -0.35,0.33l-6.65 0c-0.39,0 -0.72,0.03 -0.98,0.1 -0.26,0.07 -0.47,0.18 -0.62,0.33 -0.16,0.16 -0.27,0.38 -0.33,0.64 -0.06,0.27 -0.09,0.6 -0.09,1l0 0.15 8.59 0c0.23,0 0.34,0.11 0.34,0.34l0 1.2c0,0.22 -0.11,0.33 -0.34,0.33l-8.59 0 0 0.26c0,0.4 0.03,0.73 0.09,1 0.06,0.27 0.17,0.48 0.33,0.64 0.15,0.15 0.36,0.27 0.62,0.33 0.26,0.07 0.59,0.1 0.98,0.1l6.65 0c0.23,0 0.35,0.11 0.35,0.34l0 1.44c0,0.22 -0.12,0.34 -0.35,0.34l-6.69 0c-0.77,0 -1.43,-0.08 -1.97,-0.22 -0.53,-0.14 -0.97,-0.37 -1.31,-0.69 -0.34,-0.32 -0.59,-0.74 -0.75,-1.25 -0.15,-0.51 -0.23,-1.13 -0.23,-1.86l0 -2.62c0,-0.73 0.08,-1.35 0.23,-1.85 0.16,-0.51 0.41,-0.92 0.75,-1.24 0.34,-0.32 0.78,-0.56 1.31,-0.7 0.54,-0.15 1.2,-0.22 1.97,-0.22l6.69 0z"/>
   <path class="fil12" d="M1348.44 1027.7c0.23,0 0.42,0.01 0.58,0.04 0.16,0.03 0.31,0.09 0.43,0.18 0.12,0.08 0.23,0.2 0.32,0.35 0.1,0.14 0.2,0.34 0.3,0.58l3.16 7.31c0.05,0.09 0.12,0.13 0.22,0.13l0.18 0c0.1,0 0.17,-0.04 0.21,-0.13l3.17 -7.31c0.1,-0.24 0.2,-0.44 0.29,-0.58 0.1,-0.15 0.21,-0.27 0.33,-0.35 0.12,-0.09 0.26,-0.15 0.42,-0.18 0.16,-0.03 0.35,-0.04 0.57,-0.04l1.63 0c0.53,0 0.88,0.12 1.06,0.35 0.19,0.24 0.28,0.65 0.28,1.23l0 8.73c0,0.22 -0.12,0.34 -0.35,0.34l-1.55 0c-0.23,0 -0.34,-0.12 -0.34,-0.34l0 -7.94c0,-0.1 -0.04,-0.15 -0.12,-0.15l-0.14 0c-0.1,0 -0.17,0.04 -0.2,0.12l-3.07 6.81c-0.12,0.28 -0.24,0.51 -0.37,0.7 -0.13,0.19 -0.27,0.34 -0.41,0.46 -0.15,0.12 -0.32,0.21 -0.5,0.26 -0.19,0.05 -0.41,0.08 -0.67,0.08l-0.73 0c-0.25,0 -0.47,-0.03 -0.66,-0.08 -0.19,-0.05 -0.35,-0.14 -0.5,-0.26 -0.15,-0.12 -0.28,-0.27 -0.41,-0.46 -0.13,-0.19 -0.25,-0.42 -0.37,-0.7l-3.08 -6.81c-0.03,-0.08 -0.09,-0.12 -0.19,-0.12l-0.14 0c-0.08,0 -0.12,0.05 -0.12,0.15l0 7.94c0,0.22 -0.12,0.34 -0.34,0.34l-1.55 0c-0.23,0 -0.35,-0.12 -0.35,-0.34l0 -8.73c0,-0.58 0.09,-0.99 0.27,-1.23 0.19,-0.23 0.55,-0.35 1.08,-0.35l1.66 0z"/>
   <path class="fil12" d="M1409.51 1027.7c0.23,0 0.35,0.11 0.35,0.33l0 1.49c0,0.24 -0.12,0.35 -0.35,0.35l-4.78 0 0 8.14c0,0.22 -0.11,0.34 -0.33,0.34l-1.66 0c-0.22,0 -0.33,-0.12 -0.33,-0.34l0 -8.14 -4.78 0c-0.24,0 -0.35,-0.11 -0.35,-0.35l0 -1.49c0,-0.22 0.11,-0.33 0.35,-0.33l11.88 0z"/>
   <path class="fil12" d="M1427.83 1027.7c0.22,0 0.33,0.11 0.33,0.33l0 9.98c0,0.22 -0.11,0.34 -0.33,0.34l-1.65 0c-0.23,0 -0.35,-0.12 -0.35,-0.34l0 -9.98c0,-0.22 0.12,-0.33 0.35,-0.33l1.65 0z"/>
   <path class="fil12" d="M1083.63 961.05c0,-0.75 0.34,-1.12 1.04,-1.12l26.17 0c2.34,0 4.31,0.21 5.9,0.64 1.6,0.42 2.89,1.11 3.87,2.07 0.99,0.96 1.69,2.24 2.12,3.83 0.42,1.6 0.64,3.57 0.64,5.91l0 8.77c0,2.35 -0.22,4.31 -0.64,5.91 -0.43,1.59 -1.13,2.87 -2.12,3.83 -0.98,0.96 -2.27,1.65 -3.87,2.07 -1.59,0.43 -3.56,0.64 -5.9,0.64l-26.17 0c-0.7,0 -1.04,-0.34 -1.04,-1.04l0 -31.51zm-9.82 43.64l37.35 0c4.31,0 8,-0.44 11.09,-1.31 3.08,-0.88 5.61,-2.24 7.58,-4.07 1.97,-1.84 3.42,-4.18 4.35,-7.03 0.93,-2.84 1.39,-6.21 1.39,-10.09l0 -10.85c0,-3.88 -0.46,-7.25 -1.39,-10.09 -0.93,-2.85 -2.38,-5.19 -4.35,-7.03 -1.97,-1.83 -4.5,-3.19 -7.58,-4.07 -3.09,-0.87 -6.78,-1.31 -11.09,-1.31l-37.35 0c-1.59,0 -2.39,0.8 -2.39,2.39l0 51.07c0,1.6 0.8,2.39 2.39,2.39z"/>
   <path class="fil12" d="M1150.54 999.95c1.78,1.67 4.08,2.88 6.9,3.63 2.82,0.74 6.25,1.11 10.29,1.11l22.98 0c4.04,0 7.49,-0.37 10.33,-1.11 2.85,-0.75 5.16,-1.96 6.95,-3.63 1.78,-1.68 3.07,-3.86 3.87,-6.55 0.79,-2.68 1.19,-5.94 1.19,-9.77l0 -33.04c0,-1.17 -0.58,-1.75 -1.75,-1.75l-8.7 0c-1.17,0 -1.75,0.58 -1.75,1.75l0 31.84c0,2.13 -0.16,3.9 -0.48,5.31 -0.32,1.41 -0.88,2.52 -1.68,3.35 -0.8,0.82 -1.88,1.41 -3.23,1.75 -1.36,0.35 -3.07,0.52 -5.15,0.52l-22.1 0c-2.08,0 -3.79,-0.17 -5.15,-0.52 -1.35,-0.34 -2.43,-0.93 -3.23,-1.75 -0.8,-0.83 -1.37,-1.94 -1.71,-3.35 -0.35,-1.41 -0.52,-3.18 -0.52,-5.31l0 -31.84c0,-1.17 -0.59,-1.75 -1.76,-1.75l-8.62 0c-1.22,0 -1.83,0.58 -1.83,1.75l0 33.04c0,3.83 0.41,7.09 1.24,9.77 0.82,2.69 2.12,4.87 3.91,6.55z"/>
   <path class="fil12" d="M1289.83 935.33l-13.31 13.51 -1.23 0c-0.64,0 -1.14,0.09 -1.52,0.28 -0.37,0.18 -0.71,0.46 -1.03,0.84l-18.44 18.51 -17.39 -18.51c-0.32,-0.38 -0.67,-0.66 -1.04,-0.84 -0.37,-0.19 -0.88,-0.28 -1.51,-0.28l-10.94 0c-0.74,0 -1.14,0.25 -1.19,0.76 -0.06,0.5 0.08,0.94 0.4,1.31l23.7 24.42 -26.26 27.29c-0.37,0.37 -0.51,0.81 -0.44,1.31 0.08,0.51 0.47,0.76 1.16,0.76l0.71 0 -7.16 7.27 -142.92 -0.07 0 5.78 145.34 0.07 12.85 -13.05 1.55 0c0.7,0 1.21,-0.08 1.56,-0.24 0.35,-0.16 0.71,-0.45 1.08,-0.87l19.79 -20.67 19.71 20.67c0.31,0.42 0.66,0.71 1.03,0.87 0.37,0.16 0.88,0.24 1.52,0.24l10.93 0c0.74,0 1.16,-0.25 1.24,-0.76 0.08,-0.5 -0.07,-0.94 -0.44,-1.31l-25.61 -26.89 24.49 -24.82c0.37,-0.37 0.52,-0.81 0.44,-1.31 -0.08,-0.51 -0.49,-0.76 -1.24,-0.76l-1.03 0 7.62 -7.74 136.24 0 0 -5.77 -138.66 0z"/>
   <path class="fil16" d="M1408.86 971.35l-30.56 0 0 -10.54c0,-0.64 0.35,-0.96 1.04,-0.96l29.52 0c2.72,0 4.63,0.58 5.75,1.75 0.89,0.94 1.42,2.28 1.6,4 -0.18,1.72 -0.71,3.06 -1.6,4 -1.12,1.17 -3.03,1.75 -5.75,1.75zm15.64 -18.36c-2.66,-2.77 -7.05,-4.15 -13.16,-4.15l-42.85 0c-1.6,0 -2.4,0.8 -2.4,2.39l0 20.12 -45.42 0c-1.14,0 -2.05,0.92 -2.05,2.05l0 5.72c0,1.13 0.91,2.05 2.05,2.05l23.17 0c0.57,0.03 0.87,0.36 0.87,1.02l0 6.46c0,1.81 -0.32,3.08 -0.96,3.8 -0.64,0.71 -1.65,1.07 -3.03,1.07l-26.33 0c-2.08,0 -3.79,-0.17 -5.15,-0.52 -1.35,-0.34 -2.43,-0.93 -3.23,-1.75 -0.8,-0.83 -1.37,-1.94 -1.72,-3.35 -0.34,-1.41 -0.51,-3.18 -0.51,-5.31l0 -11.49c0,-2.13 0.17,-3.88 0.51,-5.27 0.35,-1.38 0.92,-2.48 1.72,-3.31 0.8,-0.82 1.88,-1.41 3.23,-1.75 1.36,-0.35 3.07,-0.52 5.15,-0.52l39.97 0c1.17,0 1.76,-0.61 1.76,-1.84l0 -7.82c0,-1.17 -0.59,-1.75 -1.76,-1.75l-40.45 0c-4.04,0 -7.48,0.38 -10.29,1.15 -2.82,0.78 -5.12,2 -6.91,3.68 -1.78,1.67 -3.08,3.84 -3.91,6.5 -0.82,2.66 -1.23,5.9 -1.23,9.73l0 13.73c0,3.83 0.41,7.09 1.23,9.77 0.83,2.69 2.13,4.87 3.91,6.55 1.79,1.67 4.09,2.88 6.91,3.63 2.81,0.74 6.25,1.11 10.29,1.11l32.24 0c3.19,0 5.63,-0.92 7.34,-2.75 1.7,-1.83 2.55,-4.99 2.55,-9.45l0 -11.32 10.05 0 0 21.77c0,1.17 0.61,1.75 1.84,1.75l8.62 0c1.17,0 1.75,-0.58 1.75,-1.75l0 -21.77 33.04 0c6.11,0 10.5,-1.39 13.16,-4.15 2.66,-2.77 3.99,-6.86 3.99,-12.29l0 -0.17c0,-5.43 -1.33,-8.81 -3.99,-11.57z"/>
  </g>
 </g>
</svg>
